<svg viewBox="0 0 600 400" xmlns="http://www.w3.org/2000/svg">
<g transform="translate(72, 364)">
<g>
<g>
<path d="M0,-55.34884 L0,-55.34884 L0.4804805,-300.46512 L0.960961,-189.76744 L1.4414414,-55.34884 L1.921922,-134.41861 L2.4024024,-268.83722 L2.8828828,-158.13954 L3.3633633,-63.255814 L3.843844,-94.88372 L4.324324,-126.51163 L4.804805,-332.09302 L5.2852855,-23.72093 L5.7657657,-63.255814 L6.2462463,-181.86046 L6.7267265,-166.04651 L7.207207,-332.09302 L7.687688,-189.76744 L8.168168,-15.813953 L8.648648,-118.60465 L9.129129,-94.88372 L9.60961,-47.44186 L10.09009,-94.88372 L10.570571,-166.04651 L11.051051,-197.67442 L11.531531,-15.813953 L12.0120125,-15.813953 L12.492493,-0 L12.972973,-181.86046 L13.453453,-276.74417 L13.933934,-55.34884 L14.414414,-7.9069767 L14.894895,-110.69768 L15.375376,-7.9069767 L15.855856,-39.534885 L16.336336,-340 L16.816816,-102.790695 L17.297297,-23.72093 L17.777779,-118.60465 L18.258259,-71.16279 L18.738739,-245.11627 L19.21922,-94.88372 L19.6997,-245.11627 L20.18018,-31.627907 L20.66066,-63.255814 L21.141142,-102.790695 L21.621622,-63.255814 L22.102102,-276.74417 L22.582582,-102.790695 L23.063063,-86.976746 L23.543543,-158.13954 L24.024025,-79.06977 L24.504505,-237.2093 L24.984985,-15.813953 L25.465466,-86.976746 L25.945946,-55.34884 L26.426426,-0 L26.906906,-71.16279 L27.387388,-197.67442 L27.867868,-15.813953 L28.348349,-71.16279 L28.828829,-189.76744 L29.309309,-71.16279 L29.78979,-0 L30.27027,-181.86046 L30.750751,-0 L31.231232,-79.06977 L31.711712,-15.813953 L32.192192,-158.13954 L32.672672,-237.2093 L33.153152,-142.32558 L33.633633,-213.48837 L34.114113,-340 L34.594593,-110.69768 L35.075073,-71.16279 L35.555557,-118.60465 L36.036037,-86.976746 L36.516518,-31.627907 L36.996998,-150.23256 L37.477478,-15.813953 L37.95796,-31.627907 L38.43844,-86.976746 L38.91892,-31.627907 L39.3994,-134.41861 L39.87988,-260.93024 L40.36036,-268.83722 L40.84084,-63.255814 L41.32132,-221.39536 L41.801804,-0 L42.282284,-173.95349 L42.762764,-221.39536 L43.243244,-102.790695 L43.723724,-15.813953 L44.204205,-284.65115 L44.684685,-158.13954 L45.165165,-126.51163 L45.645645,-7.9069767 L46.126125,-126.51163 L46.606606,-253.02325 L47.087086,-63.255814 L47.567566,-268.83722 L48.04805,-31.627907 L48.52853,-260.93024 L49.00901,-340 L49.48949,-126.51163 L49.96997,-15.813953 L50.45045,-71.16279 L50.93093,-63.255814 L51.41141,-173.95349 L51.89189,-118.60465 L52.37237,-300.46512 L52.85285,-292.55814 L53.333332,-134.41861 L53.813812,-7.9069767 L54.294292,-276.74417 L54.774776,-118.60465 L55.255257,-23.72093 L55.735737,-94.88372 L56.216217,-31.627907 L56.696697,-39.534885 L57.177177,-237.2093 L57.657658,-316.27908 L58.138138,-126.51163 L58.618618,-181.86046 L59.0991,-55.34884 L59.57958,-94.88372 L60.06006,-15.813953 L60.54054,-118.60465 L61.021023,-63.255814 L61.501503,-110.69768 L61.981983,-340 L62.462463,-237.2093 L62.942944,-63.255814 L63.423424,-55.34884 L63.903904,-15.813953 L64.384384,-150.23256 L64.86487,-71.16279 L65.345345,-134.41861 L65.82583,-284.65115 L66.306305,-118.60465 L66.78679,-110.69768 L67.267265,-150.23256 L67.74775,-39.534885 L68.228226,-237.2093 L68.70871,-253.02325 L69.189186,-221.39536 L69.66967,-47.44186 L70.15015,-118.60465 L70.63063,-31.627907 L71.111115,-221.39536 L71.59159,-31.627907 L72.072075,-166.04651 L72.55255,-15.813953 L73.033035,-15.813953 L73.51351,-79.06977 L73.993996,-213.48837 L74.47447,-173.95349 L74.954956,-15.813953 L75.43543,-340 L75.91592,-39.534885 L76.39639,-166.04651 L76.87688,-15.813953 L77.35736,-86.976746 L77.83784,-71.16279 L78.31832,-260.93024 L78.7988,-205.58139 L79.27928,-173.95349 L79.75976,-79.06977 L80.24024,-221.39536 L80.72072,-102.790695 L81.2012,-308.3721 L81.68168,-23.72093 L82.16216,-229.30232 L82.64264,-292.55814 L83.12312,-47.44186 L83.60361,-94.88372 L84.08408,-158.13954 L84.56457,-0 L85.045044,-79.06977 L85.52553,-102.790695 L86.006004,-126.51163 L86.48649,-55.34884 L86.966965,-142.32558 L87.44745,-197.67442 L87.927925,-79.06977 L88.40841,-134.41861 L88.888885,-189.76744 L89.36937,-23.72093 L89.84985,-15.813953 L90.33033,-292.55814 L90.810814,-7.9069767 L91.29129,-39.534885 L91.771774,-102.790695 L92.25225,-31.627907 L92.732735,-102.790695 L93.21321,-158.13954 L93.693695,-31.627907 L94.17417,-79.06977 L94.654655,-134.41861 L95.13513,-86.976746 L95.615616,-118.60465 L96.0961,-63.255814 L96.57658,-110.69768 L97.05706,-39.534885 L97.53754,-39.534885 L98.01802,-158.13954 L98.4985,-237.2093 L98.97898,-237.2093 L99.45946,-39.534885 L99.93994,-94.88372 L100.42042,-173.95349 L100.9009,-94.88372 L101.38138,-15.813953 L101.86186,-86.976746 L102.34234,-47.44186 L102.82282,-276.74417 L103.30331,-142.32558 L103.78378,-276.74417 L104.26427,-94.88372 L104.74474,-23.72093 L105.22523,-94.88372 L105.7057,-63.255814 L106.18619,-268.83722 L106.666664,-110.69768 L107.14715,-197.67442 L107.627625,-150.23256 L108.10811,-118.60465 L108.588585,-126.51163 L109.06907,-324.18604 L109.54955,-7.9069767 L110.03003,-47.44186 L110.51051,-79.06977 L110.99099,-173.95349 L111.47147,-23.72093 L111.95195,-71.16279 L112.432434,-15.813953 L112.91291,-126.51163 L113.393394,-39.534885 L113.87387,-15.813953 L114.354355,-102.790695 L114.83483,-197.67442 L115.315315,-276.74417 L115.7958,-86.976746 L116.276276,-15.813953 L116.75676,-31.627907 L117.237236,-94.88372 L117.71772,-23.72093 L118.1982,-55.34884 L118.67868,-166.04651 L119.15916,-31.627907 L119.63964,-7.9069767 L120.12012,-181.86046 L120.6006,-63.255814 L121.08108,-205.58139 L121.56156,-102.790695 L122.042046,-79.06977 L122.52252,-229.30232 L123.003006,-47.44186 L123.48348,-340 L123.96397,-197.67442 L124.44444,-23.72093 L124.92493,-118.60465 L125.4054,-181.86046 L125.88589,-15.813953 L126.36636,-158.13954 L126.84685,-79.06977 L127.327324,-268.83722 L127.80781,-31.627907 L128.28828,-102.790695 L128.76877,-63.255814 L129.24925,-94.88372 L129.72974,-63.255814 L130.2102,-158.13954 L130.69069,-158.13954 L131.17117,-150.23256 L131.65166,-284.65115 L132.13213,-150.23256 L132.61261,-55.34884 L133.0931,-79.06977 L133.57358,-284.65115 L134.05405,-142.32558 L134.53453,-142.32558 L135.01501,-94.88372 L135.4955,-15.813953 L135.97598,-31.627907 L136.45645,-340 L136.93694,-166.04651 L137.41742,-118.60465 L137.8979,-102.790695 L138.37837,-79.06977 L138.85886,-126.51163 L139.33934,-23.72093 L139.81982,-158.13954 L140.3003,-39.534885 L140.78078,-189.76744 L141.26126,-31.627907 L141.74174,-7.9069767 L142.22223,-23.72093 L142.7027,-340 L143.18318,-79.06977 L143.66367,-189.76744 L144.14415,-253.02325 L144.62462,-166.04651 L145.1051,-110.69768 L145.58559,-150.23256 L146.06607,-150.23256 L146.54654,-189.76744 L147.02702,-47.44186 L147.5075,-276.74417 L147.98799,-86.976746 L148.46848,-55.34884 L148.94894,-55.34884 L149.42943,-31.627907 L149.90991,-39.534885 L150.3904,-166.04651 L150.87086,-324.18604 L151.35135,-79.06977 L151.83183,-284.65115 L152.31232,-126.51163 L152.79279,-181.86046 L153.27327,-118.60465 L153.75375,-150.23256 L154.23424,-39.534885 L154.71472,-7.9069767 L155.19519,-23.72093 L155.67567,-189.76744 L156.15616,-79.06977 L156.63664,-47.44186 L157.11711,-221.39536 L157.5976,-23.72093 L158.07808,-126.51163 L158.55856,-15.813953 L159.03903,-23.72093 L159.51952,-47.44186 L160,-102.790695 L160.48048,-213.48837 L160.96097,-39.534885 L161.44144,-189.76744 L161.92192,-94.88372 L162.4024,-39.534885 L162.88289,-63.255814 L163.36336,-118.60465 L163.84384,-340 L164.32433,-245.11627 L164.80481,-189.76744 L165.28528,-126.51163 L165.76576,-340 L166.24625,-55.34884 L166.72673,-181.86046 L167.20721,-15.813953 L167.68768,-126.51163 L168.16817,-47.44186 L168.64865,-308.3721 L169.12914,-340 L169.6096,-126.51163 L170.09009,-205.58139 L170.57057,-118.60465 L171.05106,-118.60465 L171.53152,-31.627907 L172.01201,-197.67442 L172.4925,-47.44186 L172.97298,-23.72093 L173.45346,-253.02325 L173.93393,-340 L174.41441,-166.04651 L174.8949,-181.86046 L175.37538,-134.41861 L175.85585,-94.88372 L176.33633,-340 L176.81682,-221.39536 L177.2973,-7.9069767 L177.77777,-158.13954 L178.25826,-237.2093 L178.73874,-340 L179.21922,-86.976746 L179.6997,-229.30232 L180.18018,-55.34884 L180.66066,-102.790695 L181.14114,-31.627907 L181.62163,-47.44186 L182.1021,-63.255814 L182.58258,-23.72093 L183.06306,-39.534885 L183.54355,-150.23256 L184.02402,-31.627907 L184.5045,-63.255814 L184.98499,-0 L185.46547,-150.23256 L185.94595,-110.69768 L186.42642,-71.16279 L186.9069,-237.2093 L187.38739,-86.976746 L187.86787,-63.255814 L188.34834,-31.627907 L188.82883,-237.2093 L189.30931,-158.13954 L189.7898,-31.627907 L190.27026,-142.32558 L190.75075,-71.16279 L191.23123,-276.74417 L191.71172,-181.86046 L192.1922,-150.23256 L192.67267,-118.60465 L193.15315,-276.74417 L193.63364,-276.74417 L194.11412,-94.88372 L194.59459,-55.34884 L195.07507,-79.06977 L195.55556,-47.44186 L196.03604,-15.813953 L196.51651,-134.41861 L196.997,-300.46512 L197.47748,-86.976746 L197.95796,-15.813953 L198.43845,-23.72093 L198.91891,-126.51163 L199.3994,-102.790695 L199.87988,-126.51163 L200.36037,-308.3721 L200.84084,-63.255814 L201.32132,-150.23256 L201.8018,-102.790695 L202.28229,-63.255814 L202.76276,-142.32558 L203.24324,-134.41861 L203.72372,-205.58139 L204.20421,-31.627907 L204.68468,-221.39536 L205.16516,-166.04651 L205.64565,-79.06977 L206.12613,-197.67442 L206.60661,-110.69768 L207.08708,-205.58139 L207.56757,-166.04651 L208.04805,-126.51163 L208.52853,-39.534885 L209.009,-173.95349 L209.48949,-39.534885 L209.96997,-118.60465 L210.45045,-79.06977 L210.93092,-110.69768 L211.4114,-15.813953 L211.89189,-110.69768 L212.37238,-189.76744 L212.85286,-142.32558 L213.33333,-0 L213.81381,-142.32558 L214.2943,-205.58139 L214.77478,-237.2093 L215.25525,-79.06977 L215.73573,-134.41861 L216.21622,-150.23256 L216.6967,-205.58139 L217.17717,-23.72093 L217.65765,-47.44186 L218.13814,-118.60465 L218.61862,-166.04651 L219.0991,-55.34884 L219.57957,-71.16279 L220.06006,-63.255814 L220.54054,-118.60465 L221.02103,-39.534885 L221.5015,-189.76744 L221.98198,-126.51163 L222.46246,-118.60465 L222.94295,-79.06977 L223.42342,-118.60465 L223.9039,-166.04651 L224.38438,-71.16279 L224.86487,-47.44186 L225.34535,-71.16279 L225.82582,-110.69768 L226.3063,-237.2093 L226.78679,-47.44186 L227.26727,-150.23256 L227.74774,-340 L228.22823,-189.76744 L228.70871,-126.51163 L229.1892,-102.790695 L229.66966,-47.44186 L230.15015,-150.23256 L230.63063,-300.46512 L231.11111,-31.627907 L231.5916,-39.534885 L232.07207,-229.30232 L232.55255,-142.32558 L233.03304,-79.06977 L233.51352,-110.69768 L233.99399,-39.534885 L234.47447,-110.69768 L234.95496,-142.32558 L235.43544,-86.976746 L235.91591,-31.627907 L236.3964,-229.30232 L236.87688,-79.06977 L237.35736,-213.48837 L237.83784,-205.58139 L238.31831,-166.04651 L238.7988,-94.88372 L239.27928,-63.255814 L239.75977,-221.39536 L240.24023,-181.86046 L240.72072,-63.255814 L241.2012,-15.813953 L241.68169,-79.06977 L242.16216,-221.39536 L242.64264,-63.255814 L243.12312,-340 L243.6036,-237.2093 L244.08409,-110.69768 L244.56456,-126.51163 L245.04504,-158.13954 L245.52553,-63.255814 L246.00601,-94.88372 L246.48648,-340 L246.96696,-94.88372 L247.44745,-23.72093 L247.92793,-134.41861 L248.4084,-166.04651 L248.88889,-340 L249.36937,-7.9069767 L249.84985,-142.32558 L250.33034,-308.3721 L250.8108,-63.255814 L251.29129,-229.30232 L251.77177,-79.06977 L252.25226,-142.32558 L252.73273,-284.65115 L253.21321,-134.41861 L253.6937,-31.627907 L254.17418,-142.32558 L254.65465,-102.790695 L255.13513,-284.65115 L255.61562,-260.93024 L256.0961,-0 L256.57657,-15.813953 L257.05707,-237.2093 L257.53754,-205.58139 L258.018,-39.534885 L258.4985,-276.74417 L258.97897,-150.23256 L259.45947,-292.55814 L259.93994,-47.44186 L260.4204,-15.813953 L260.9009,-324.18604 L261.38138,-118.60465 L261.86185,-126.51163 L262.34235,-71.16279 L262.8228,-31.627907 L263.3033,-71.16279 L263.78378,-126.51163 L264.26425,-102.790695 L264.74475,-126.51163 L265.22522,-15.813953 L265.70572,-142.32558 L266.1862,-134.41861 L266.66666,-340 L267.14716,-253.02325 L267.62762,-102.790695 L268.1081,-15.813953 L268.5886,-47.44186 L269.06906,-15.813953 L269.54956,-102.790695 L270.03003,-31.627907 L270.5105,-39.534885 L270.991,-197.67442 L271.47147,-221.39536 L271.95197,-63.255814 L272.43243,-166.04651 L272.9129,-150.23256 L273.3934,-197.67442 L273.87387,-229.30232 L274.35434,-31.627907 L274.83484,-126.51163 L275.3153,-55.34884 L275.7958,-86.976746 L276.27628,-213.48837 L276.75674,-55.34884 L277.23724,-63.255814 L277.7177,-86.976746 L278.1982,-23.72093 L278.67868,-142.32558 L279.15915,-284.65115 L279.63965,-63.255814 L280.12012,-300.46512 L280.6006,-110.69768 L281.0811,-94.88372 L281.56155,-79.06977 L282.04205,-110.69768 L282.52252,-181.86046 L283.003,-221.39536 L283.4835,-47.44186 L283.96396,-15.813953 L284.44446,-284.65115 L284.92493,-63.255814 L285.4054,-340 L285.8859,-213.48837 L286.36636,-245.11627 L286.84683,-63.255814 L287.32733,-47.44186 L287.8078,-31.627907 L288.2883,-71.16279 L288.76877,-340 L289.24924,-253.02325 L289.72974,-142.32558 L290.2102,-268.83722 L290.6907,-7.9069767 L291.17117,-197.67442 L291.65164,-86.976746 L292.13214,-189.76744 L292.6126,-245.11627 L293.09308,-150.23256 L293.57358,-47.44186 L294.05405,-197.67442 L294.53455,-86.976746 L295.015,-31.627907 L295.49548,-245.11627 L295.97598,-166.04651 L296.45645,-47.44186 L296.93695,-47.44186 L297.41742,-308.3721 L297.8979,-15.813953 L298.3784,-31.627907 L298.85886,-181.86046 L299.33932,-213.48837 L299.81982,-253.02325 L300.3003,-110.69768 L300.7808,-31.627907 L301.26126,-300.46512 L301.74173,-63.255814 L302.22223,-86.976746 L302.7027,-47.44186 L303.1832,-181.86046 L303.66367,-245.11627 L304.14413,-181.86046 L304.62463,-31.627907 L305.1051,-102.790695 L305.58557,-63.255814 L306.06607,-229.30232 L306.54654,-126.51163 L307.02704,-55.34884 L307.5075,-316.27908 L307.98798,-102.790695 L308.46848,-284.65115 L308.94894,-118.60465 L309.42944,-0 L309.9099,-0 L310.39038,-134.41861 L310.87088,-94.88372 L311.35135,-166.04651 L311.83182,-94.88372 L312.31232,-47.44186 L312.7928,-39.534885 L313.2733,-181.86046 L313.75375,-71.16279 L314.23422,-94.88372 L314.71472,-39.534885 L315.1952,-197.67442 L315.6757,-15.813953 L316.15616,-166.04651 L316.63663,-118.60465 L317.11713,-245.11627 L317.5976,-324.18604 L318.07806,-31.627907 L318.55856,-102.790695 L319.03903,-47.44186 L319.51953,-166.04651 L320,-55.34884 L320.48047,-205.58139 L320.96097,-284.65115 L321.44144,-63.255814 L321.92194,-63.255814 L322.4024,-268.83722 L322.88287,-86.976746 L323.36337,-158.13954 L323.84384,-0 L324.3243,-55.34884 L324.8048,-47.44186 L325.28528,-110.69768 L325.76578,-47.44186 L326.24625,-189.76744 L326.7267,-197.67442 L327.2072,-197.67442 L327.68768,-79.06977 L328.16818,-110.69768 L328.64865,-118.60465 L329.12912,-126.51163 L329.60962,-300.46512 L330.0901,-213.48837 L330.57056,-79.06977 L331.05106,-63.255814 L331.53152,-126.51163 L332.01202,-181.86046 L332.4925,-189.76744 L332.97296,-47.44186 L333.45346,-79.06977 L333.93393,-47.44186 L334.41443,-31.627907 L334.8949,-276.74417 L335.37537,-0 L335.85587,-47.44186 L336.33633,-94.88372 L336.8168,-102.790695 L337.2973,-213.48837 L337.77777,-173.95349 L338.25827,-292.55814 L338.73874,-166.04651 L339.2192,-213.48837 L339.6997,-102.790695 L340.18018,-71.16279 L340.66068,-94.88372 L341.14114,-102.790695 L341.6216,-79.06977 L342.1021,-150.23256 L342.58258,-86.976746 L343.06305,-205.58139 L343.54355,-142.32558 L344.02402,-142.32558 L344.50452,-47.44186 L344.985,-134.41861 L345.46545,-158.13954 L345.94595,-150.23256 L346.42642,-229.30232 L346.90692,-205.58139 L347.3874,-55.34884 L347.86786,-47.44186 L348.34836,-86.976746 L348.82883,-86.976746 L349.3093,-102.790695 L349.7898,-237.2093 L350.27026,-260.93024 L350.75076,-94.88372 L351.23123,-15.813953 L351.7117,-197.67442 L352.1922,-150.23256 L352.67267,-94.88372 L353.15317,-102.790695 L353.63364,-110.69768 L354.1141,-55.34884 L354.5946,-79.06977 L355.07507,-15.813953 L355.55554,-55.34884 L356.03604,-181.86046 L356.5165,-142.32558 L356.997,-15.813953 L357.47748,-340 L357.95795,-142.32558 L358.43845,-7.9069767 L358.9189,-284.65115 L359.3994,-86.976746 L359.87988,-31.627907 L360.36035,-23.72093 L360.84085,-181.86046 L361.32132,-110.69768 L361.8018,-94.88372 L362.2823,-47.44186 L362.76276,-181.86046 L363.24326,-86.976746 L363.72372,-55.34884 L364.2042,-126.51163 L364.6847,-205.58139 L365.16516,-71.16279 L365.64566,-134.41861 L366.12613,-134.41861 L366.6066,-237.2093 L367.0871,-15.813953 L367.56757,-142.32558 L368.04803,-134.41861 L368.52853,-134.41861 L369.009,-181.86046 L369.4895,-63.255814 L369.96997,-110.69768 L370.45044,-31.627907 L370.93094,-229.30232 L371.4114,-86.976746 L371.8919,-23.72093 L372.37238,-181.86046 L372.85284,-276.74417 L373.33334,-63.255814 L373.8138,-94.88372 L374.29428,-197.67442 L374.77478,-253.02325 L375.25525,-221.39536 L375.73575,-276.74417 L376.21622,-23.72093 L376.6967,-86.976746 L377.1772,-71.16279 L377.65765,-197.67442 L378.13815,-63.255814 L378.61862,-237.2093 L379.0991,-110.69768 L379.5796,-142.32558 L380.06006,-150.23256 L380.54053,-126.51163 L381.02103,-173.95349 L381.5015,-31.627907 L381.982,-86.976746 L382.46246,-110.69768 L382.94293,-237.2093 L383.42343,-31.627907 L383.9039,-94.88372 L384.3844,-94.88372 L384.86487,-86.976746 L385.34534,-102.790695 L385.82584,-340 L386.3063,-189.76744 L386.78677,-245.11627 L387.26727,-39.534885 L387.74774,-71.16279 L388.22824,-340 L388.7087,-86.976746 L389.18918,-181.86046 L389.66968,-237.2093 L390.15015,-39.534885 L390.63065,-63.255814 L391.1111,-340 L391.59158,-55.34884 L392.07208,-110.69768 L392.55255,-110.69768 L393.03302,-150.23256 L393.51352,-63.255814 L393.994,-47.44186 L394.4745,-102.790695 L394.95496,-86.976746 L395.43542,-300.46512 L395.91592,-276.74417 L396.3964,-23.72093 L396.8769,-39.534885 L397.35736,-150.23256 L397.83783,-126.51163 L398.31833,-245.11627 L398.7988,-39.534885 L399.27927,-118.60465 L399.75977,-340 L400.24023,-47.44186 L400.72073,-158.13954 L401.2012,-126.51163 L401.68167,-308.3721 L402.16217,-126.51163 L402.64264,-126.51163 L403.1231,-197.67442 L403.6036,-63.255814 L404.08408,-79.06977 L404.56458,-39.534885 L405.04504,-110.69768 L405.5255,-134.41861 L406.006,-15.813953 L406.48648,-142.32558 L406.96698,-15.813953 L407.44745,-7.9069767 L407.92792,-63.255814 L408.40842,-134.41861 L408.8889,-39.534885 L409.36935,-134.41861 L409.84985,-189.76744 L410.33032,-126.51163 L410.81082,-63.255814 L411.2913,-173.95349 L411.77176,-316.27908 L412.25226,-150.23256 L412.73273,-173.95349 L413.21323,-181.86046 L413.6937,-205.58139 L414.17416,-94.88372 L414.65466,-142.32558 L415.13513,-15.813953 L415.6156,-197.67442 L416.0961,-197.67442 L416.57657,-134.41861 L417.05707,-197.67442 L417.53754,-23.72093 L418.018,-63.255814 L418.4985,-166.04651 L418.97897,-15.813953 L419.45947,-47.44186 L419.93994,-229.30232 L420.4204,-63.255814 L420.9009,-181.86046 L421.38138,-181.86046 L421.86185,-86.976746 L422.34235,-94.88372 L422.8228,-340 L423.3033,-47.44186 L423.78378,-23.72093 L424.26425,-118.60465 L424.74475,-31.627907 L425.22522,-102.790695 L425.70572,-134.41861 L426.1862,-79.06977 L426.66666,-292.55814 L427.14716,-166.04651 L427.62762,-15.813953 L428.1081,-166.04651 L428.5886,-55.34884 L429.06906,-158.13954 L429.54956,-134.41861 L430.03003,-0 L430.5105,-229.30232 L430.991,-150.23256 L431.47147,-94.88372 L431.95197,-31.627907 L432.43243,-340 L432.9129,-126.51163 L433.3934,-221.39536 L433.87387,-63.255814 L434.35434,-102.790695 L434.83484,-47.44186 L435.3153,-39.534885 L435.7958,-110.69768 L436.27628,-118.60465 L436.75674,-181.86046 L437.23724,-94.88372 L437.7177,-102.790695 L438.1982,-31.627907 L438.67868,-150.23256 L439.15915,-181.86046 L439.63965,-300.46512 L440.12012,-260.93024 L440.6006,-55.34884 L441.0811,-15.813953 L441.56155,-23.72093 L442.04205,-221.39536 L442.52252,-126.51163 L443.003,-86.976746 L443.4835,-79.06977 L443.96396,-86.976746 L444.44446,-166.04651 L444.92493,-181.86046 L445.4054,-31.627907 L445.8859,-39.534885 L446.36636,-221.39536 L446.84683,-23.72093 L447.32733,-79.06977 L447.8078,-253.02325 L448.2883,-142.32558 L448.76877,-31.627907 L449.24924,-63.255814 L449.72974,-47.44186 L450.2102,-126.51163 L450.6907,-150.23256 L451.17117,-102.790695 L451.65164,-268.83722 L452.13214,-39.534885 L452.6126,-229.30232 L453.09308,-55.34884 L453.57358,-63.255814 L454.05405,-166.04651 L454.53455,-39.534885 L455.015,-229.30232 L455.49548,-31.627907 L455.97598,-71.16279 L456.45645,-71.16279 L456.93695,-63.255814 L457.41742,-86.976746 L457.8979,-118.60465 L458.3784,-79.06977 L458.85886,-134.41861 L459.33932,-47.44186 L459.81982,-126.51163 L460.3003,-142.32558 L460.7808,-118.60465 L461.26126,-158.13954 L461.74173,-102.790695 L462.22223,-86.976746 L462.7027,-197.67442 L463.1832,-340 L463.66367,-15.813953 L464.14413,-134.41861 L464.62463,-150.23256 L465.1051,-23.72093 L465.58557,-23.72093 L466.06607,-102.790695 L466.54654,-166.04651 L467.02704,-79.06977 L467.5075,-142.32558 L467.98798,-229.30232 L468.46848,-47.44186 L468.94894,-213.48837 L469.42944,-55.34884 L469.9099,-134.41861 L470.39038,-126.51163 L470.87088,-142.32558 L471.35135,-245.11627 L471.83182,-47.44186 L472.31232,-142.32558 L472.7928,-55.34884 L473.2733,-173.95349 L473.75375,-31.627907 L474.23422,-55.34884 L474.71472,-31.627907 L475.1952,-166.04651 L475.6757,-102.790695 L476.15616,-102.790695 L476.63663,-229.30232 L477.11713,-63.255814 L477.5976,-55.34884 L478.07806,-71.16279 L478.55856,-55.34884 L479.03903,-71.16279 L479.51953,-55.34884 L480,-47.44186" fill="none" stroke="black" stroke-linejoin="round" stroke-width="2"/>
</g>
</g>
<g>
<g>
<line stroke="black" stroke-width="1" x1="0" x2="0" y1="0" y2="10"/>
<line stroke="black" stroke-width="1" x1="96.09609609609609" x2="96.09609609609609" y1="0" y2="10"/>
<line stroke="black" stroke-width="1" x1="192.19219219219218" x2="192.19219219219218" y1="0" y2="10"/>
<line stroke="black" stroke-width="1" x1="288.2882882882883" x2="288.2882882882883" y1="0" y2="10"/>
<line stroke="black" stroke-width="1" x1="384.38438438438436" x2="384.38438438438436" y1="0" y2="10"/>
</g>
<line stroke="black" stroke-width="1" x1="0" x2="480" y1="0" y2="0"/>
<g>
<text font-size="12" text-anchor="middle" x="0" y="20">
0
</text>
<text font-size="12" text-anchor="middle" x="96.09609609609609" y="20">
200
</text>
<text font-size="12" text-anchor="middle" x="192.19219219219218" y="20">
400
</text>
<text font-size="12" text-anchor="middle" x="288.2882882882883" y="20">
600
</text>
<text font-size="12" text-anchor="middle" x="384.38438438438436" y="20">
800
</text>
</g>
<text font-size="12" text-anchor="middle" x="240" y="30">

</text>
</g>
<g>
<g>
<line stroke="black" stroke-width="1" x1="0" x2="-10" y1="-0" y2="-0"/>
<line stroke="black" stroke-width="1" x1="0" x2="-10" y1="-79.06976744186046" y2="-79.06976744186046"/>
<line stroke="black" stroke-width="1" x1="0" x2="-10" y1="-158.13953488372093" y2="-158.13953488372093"/>
<line stroke="black" stroke-width="1" x1="0" x2="-10" y1="-237.2093023255814" y2="-237.2093023255814"/>
<line stroke="black" stroke-width="1" x1="0" x2="-10" y1="-316.27906976744185" y2="-316.27906976744185"/>
</g>
<line stroke="black" stroke-width="1" x1="0" x2="0" y1="0" y2="-340"/>
<g>
<text dominant-baseline="middle" font-size="12" text-anchor="end" x="-15" y="-0">
8
</text>
<text dominant-baseline="middle" font-size="12" text-anchor="end" x="-15" y="-79.06976744186046">
18
</text>
<text dominant-baseline="middle" font-size="12" text-anchor="end" x="-15" y="-158.13953488372093">
28
</text>
<text dominant-baseline="middle" font-size="12" text-anchor="end" x="-15" y="-237.2093023255814">
38
</text>
<text dominant-baseline="middle" font-size="12" text-anchor="end" x="-15" y="-316.27906976744185">
48
</text>
</g>
<text font-size="12" text-anchor="middle" transform="rotate(-90 -24 -170)" x="-24" y="-182">

</text>
</g>
</g>
</svg>