<svg viewBox="0 0 600 400" xmlns="http://www.w3.org/2000/svg">
<g transform="translate(72, 364)">
<g>
<g>
<path d="M0,-340 L0,-340 L0.96192384,-340 L1.9238477,-340 L2.8857715,-340 L3.8476954,-340 L4.8096194,-340 L5.771543,-340 L6.733467,-340 L7.6953907,-340 L8.657314,-340 L9.619239,-340 L10.581162,-340 L11.543086,-340 L12.50501,-340 L13.466934,-340 L14.428858,-340 L15.390781,-340 L16.352705,-340 L17.314629,-340 L18.276552,-340 L19.238478,-340 L20.200401,-340 L21.162325,-340 L22.124249,-340 L23.086172,-340 L24.048096,-340 L25.01002,-340 L25.971945,-340 L26.933868,-340 L27.895792,-340 L28.857716,-340 L29.81964,-340 L30.781563,-340 L31.743486,-340 L32.70541,-340 L33.667336,-340 L34.629257,-340 L35.591183,-340 L36.553104,-340 L37.51503,-340 L38.476955,-340 L39.438877,-340 L40.400803,-340 L41.362724,-340 L42.32465,-340 L43.28657,-340 L44.248497,-340 L45.210423,-340 L46.172344,-340 L47.13427,-340 L48.09619,-340 L49.058117,-340 L50.02004,-340 L50.981964,-340 L51.94389,-340 L52.90581,-340 L53.867737,-340 L54.82966,-340 L55.791584,-340 L56.753506,-340 L57.71543,-340 L58.677353,-340 L59.63928,-340 L60.601204,-340 L61.563126,-340 L62.52505,-340 L63.486973,-340 L64.4489,-340 L65.41082,-340 L66.37274,-340 L67.33467,-340 L68.29659,-340 L69.258514,-340 L70.22044,-340 L71.182365,-340 L72.14429,-340 L73.10621,-340 L74.06814,-340 L75.03006,-340 L75.99198,-340 L76.95391,-340 L77.91583,-340 L78.877754,-340 L79.839676,-340 L80.801605,-340 L81.76353,-340 L82.72545,-340 L83.68738,-340 L84.6493,-340 L85.61122,-340 L86.57314,-340 L87.53507,-340 L88.496994,-340 L89.458916,-340 L90.420845,-340 L91.38277,-340 L92.34469,-340 L93.30661,-340 L94.26854,-340 L95.23046,-340 L96.19238,-340 L97.15431,-340 L98.116234,-340 L99.078156,-340 L100.04008,-340 L101.00201,-340 L101.96393,-340 L102.92585,-340 L103.88778,-340 L104.8497,-340 L105.81162,-340 L106.773544,-340 L107.73547,-340 L108.697395,-340 L109.65932,-340 L110.62124,-340 L111.58317,-340 L112.54509,-340 L113.50701,-340 L114.46894,-340 L115.43086,-340 L116.392784,-340 L117.354706,-340 L118.316635,-340 L119.27856,-340 L120.24048,-340 L121.20241,-340 L122.16433,-340 L123.12625,-340 L124.08817,-340 L125.0501,-340 L126.012024,-340 L126.973946,-340 L127.935875,-340 L128.8978,-340 L129.85973,-340 L130.82164,-340 L131.78357,-340 L132.74548,-340 L133.70741,-340 L134.66934,-340 L135.63126,-340 L136.59319,-340 L137.55511,-340 L138.51703,-340 L139.47896,-340 L140.44089,-340 L141.4028,-340 L142.36473,-340 L143.32666,-340 L144.28857,-340 L145.2505,-340 L146.21242,-340 L147.17435,-340 L148.13628,-340 L149.09819,-340 L150.06012,-340 L151.02205,-340 L151.98396,-340 L152.94589,-340 L153.90782,-340 L154.86974,-340 L155.83167,-340 L156.7936,-340 L157.75551,-340 L158.71744,-340 L159.67935,-340 L160.64128,-340 L161.60321,-340 L162.56512,-340 L163.52705,-340 L164.48898,-340 L165.4509,-340 L166.41283,-340 L167.37476,-340 L168.33667,-340 L169.2986,-340 L170.26053,-340 L171.22244,-340 L172.18437,-340 L173.14629,-340 L174.10822,-340 L175.07014,-340 L176.03206,-340 L176.99399,-340 L177.95592,-340 L178.91783,-340 L179.87976,-340 L180.84169,-340 L181.8036,-340 L182.76553,-340 L183.72745,-340 L184.68938,-340 L185.6513,-340 L186.61322,-340 L187.57515,-340 L188.53708,-340 L189.499,-340 L190.46092,-340 L191.42285,-340 L192.38477,-340 L193.3467,-340 L194.30862,-340 L195.27054,-340 L196.23247,-340 L197.19438,-340 L198.15631,-340 L199.11824,-340 L200.08015,-340 L201.04208,-340 L202.00401,-340 L202.96593,-340 L203.92786,-340 L204.88979,-340 L205.8517,-340 L206.81363,-340 L207.77556,-340 L208.73747,-340 L209.6994,-340 L210.66132,-340 L211.62325,-340 L212.58517,-340 L213.54709,-340 L214.50902,-340 L215.47095,-340 L216.43286,-340 L217.39479,-340 L218.35672,-340 L219.31863,-340 L220.28056,-340 L221.24248,-340 L222.2044,-340 L223.16634,-340 L224.12825,-340 L225.09018,-340 L226.05211,-340 L227.01402,-340 L227.97595,-340 L228.93788,-340 L229.8998,-340 L230.86172,-340 L231.82365,-340 L232.78557,-340 L233.7475,-340 L234.70941,-340 L235.67134,-340 L236.63327,-340 L237.59518,-340 L238.55711,-340 L239.51904,-340 L240.48096,-340 L241.44289,-340 L242.40482,-340 L243.36673,-340 L244.32866,-340 L245.29059,-340 L246.2525,-340 L247.21443,-340 L248.17635,-340 L249.13828,-340 L250.1002,-340 L251.06212,-340 L252.02405,-340 L252.98598,-340 L253.94789,-340 L254.90982,-340 L255.87175,-340 L256.83368,-340 L257.7956,-340 L258.7575,-340 L259.71945,-340 L260.68137,-340 L261.64328,-340 L262.60522,-340 L263.56714,-340 L264.52905,-340 L265.49097,-340 L266.4529,-340 L267.41483,-340 L268.37674,-340 L269.33868,-340 L270.3006,-340 L271.2625,-340 L272.22446,-340 L273.18637,-340 L274.1483,-340 L275.11023,-340 L276.07214,-340 L277.03406,-340 L277.996,-340 L278.95792,-340 L279.91983,-340 L280.88177,-340 L281.8437,-340 L282.8056,-340 L283.76755,-340 L284.72946,-340 L285.69138,-340 L286.65332,-340 L287.61523,-340 L288.57715,-340 L289.5391,-340 L290.501,-340 L291.46292,-340 L292.42484,-340 L293.38678,-340 L294.3487,-340 L295.3106,-340 L296.27255,-340 L297.23447,-340 L298.19638,-340 L299.15833,-340 L300.12024,-340 L301.08215,-340 L302.0441,-340 L303.006,-340 L303.96793,-340 L304.92987,-340 L305.89178,-340 L306.8537,-340 L307.81564,-340 L308.77756,-340 L309.73947,-340 L310.70142,-340 L311.66333,-340 L312.62524,-340 L313.5872,-340 L314.5491,-340 L315.51102,-340 L316.47293,-340 L317.43488,-340 L318.3968,-340 L319.3587,-340 L320.32065,-340 L321.28256,-340 L322.24448,-340 L323.20642,-340 L324.16833,-340 L325.13025,-340 L326.0922,-340 L327.0541,-340 L328.01602,-340 L328.97797,-340 L329.93988,-340 L330.9018,-340 L331.86374,-340 L332.82565,-340 L333.78757,-340 L334.7495,-340 L335.71143,-340 L336.67334,-340 L337.63528,-340 L338.5972,-340 L339.5591,-340 L340.52106,-340 L341.48297,-340 L342.4449,-340 L343.4068,-340 L344.36874,-340 L345.33066,-340 L346.29257,-340 L347.25452,-340 L348.21643,-340 L349.17834,-340 L350.1403,-340 L351.1022,-340 L352.06412,-340 L353.02606,-340 L353.98798,-340 L354.9499,-340 L355.91183,-340 L356.87375,-340 L357.83566,-340 L358.7976,-340 L359.75952,-340 L360.72144,-340 L361.68338,-340 L362.6453,-340 L363.6072,-340 L364.56915,-340 L365.53107,-340 L366.49298,-340 L367.4549,-340 L368.41684,-340 L369.37875,-340 L370.34067,-340 L371.3026,-340 L372.26453,-340 L373.22644,-340 L374.1884,-340 L375.1503,-340 L376.1122,-340 L377.07416,-340 L378.03607,-340 L378.998,-340 L379.95993,-340 L380.92184,-340 L381.88376,-340 L382.8457,-340 L383.80762,-340 L384.76953,-340 L385.73148,-340 L386.6934,-340 L387.6553,-340 L388.61725,-340 L389.57916,-340 L390.54108,-340 L391.50302,-340 L392.46494,-340 L393.42685,-340 L394.38876,-340 L395.3507,-340 L396.31262,-340 L397.27454,-340 L398.23648,-340 L399.1984,-340 L400.1603,-340 L401.12225,-340 L402.08417,-340 L403.04608,-340 L404.00803,-340 L404.96994,-340 L405.93185,-340 L406.8938,-340 L407.8557,-340 L408.81763,-340 L409.77957,-340 L410.7415,-340 L411.7034,-340 L412.66534,-340 L413.62726,-340 L414.58917,-340 L415.55112,-340 L416.51303,-340 L417.47495,-340 L418.43686,-340 L419.3988,-340 L420.36072,-340 L421.32263,-340 L422.28458,-340 L423.2465,-340 L424.2084,-340 L425.17035,-340 L426.13226,-340 L427.09418,-340 L428.05612,-340 L429.01804,-340 L429.97995,-340 L430.9419,-340 L431.9038,-340 L432.86572,-340 L433.82767,-340 L434.78958,-340 L435.7515,-340 L436.71344,-340 L437.67535,-340 L438.63727,-340 L439.5992,-340 L440.56113,-340 L441.52304,-340 L442.48495,-340 L443.4469,-340 L444.4088,-340 L445.37073,-340 L446.33267,-340 L447.2946,-340 L448.2565,-340 L449.21844,-340 L450.18036,-340 L451.14227,-340 L452.10422,-340 L453.06613,-340 L454.02805,-340 L454.99,-340 L455.9519,-340 L456.91382,-340 L457.87576,-340 L458.83768,-340 L459.7996,-340 L460.76154,-340 L461.72345,-340 L462.68536,-340 L463.6473,-340 L464.60922,-340 L465.57114,-340 L466.53308,-340 L467.495,-340 L468.4569,-340 L469.41882,-340 L470.38077,-340 L471.34268,-340 L472.3046,-340 L473.26654,-340 L474.22845,-340 L475.19037,-340 L476.1523,-340 L477.11423,-340 L478.07614,-340 L479.0381,-340 L480,-340" fill="none" stroke="black" stroke-linejoin="round" stroke-width="2"/>
</g>
</g>
<g>
<g>
<line stroke="black" stroke-width="1" x1="0" x2="0" y1="0" y2="10"/>
<line stroke="black" stroke-width="1" x1="96.19238476953907" x2="96.19238476953907" y1="0" y2="10"/>
<line stroke="black" stroke-width="1" x1="192.38476953907815" x2="192.38476953907815" y1="0" y2="10"/>
<line stroke="black" stroke-width="1" x1="288.57715430861725" x2="288.57715430861725" y1="0" y2="10"/>
<line stroke="black" stroke-width="1" x1="384.7695390781563" x2="384.7695390781563" y1="0" y2="10"/>
</g>
<line stroke="black" stroke-width="1" x1="0" x2="480" y1="0" y2="0"/>
<g>
<text font-size="12" text-anchor="middle" x="0" y="20">
0
</text>
<text font-size="12" text-anchor="middle" x="96.19238476953907" y="20">
100
</text>
<text font-size="12" text-anchor="middle" x="192.38476953907815" y="20">
200
</text>
<text font-size="12" text-anchor="middle" x="288.57715430861725" y="20">
300
</text>
<text font-size="12" text-anchor="middle" x="384.7695390781563" y="20">
400
</text>
</g>
<text font-size="12" text-anchor="middle" x="240" y="30">

</text>
</g>
<g>
<g>
<line stroke="black" stroke-width="1" x1="0" x2="-10" y1="-0" y2="-0"/>
<line stroke="black" stroke-width="1" x1="0" x2="-10" y1="-85" y2="-85"/>
<line stroke="black" stroke-width="1" x1="0" x2="-10" y1="-170" y2="-170"/>
<line stroke="black" stroke-width="1" x1="0" x2="-10" y1="-255" y2="-255"/>
<line stroke="black" stroke-width="1" x1="0" x2="-10" y1="-340" y2="-340"/>
</g>
<line stroke="black" stroke-width="1" x1="0" x2="0" y1="0" y2="-340"/>
<g>
<text dominant-baseline="middle" font-size="12" text-anchor="end" x="-15" y="-0">
0
</text>
<text dominant-baseline="middle" font-size="12" text-anchor="end" x="-15" y="-85">
2
</text>
<text dominant-baseline="middle" font-size="12" text-anchor="end" x="-15" y="-170">
4
</text>
<text dominant-baseline="middle" font-size="12" text-anchor="end" x="-15" y="-255">
6
</text>
<text dominant-baseline="middle" font-size="12" text-anchor="end" x="-15" y="-340">
8
</text>
</g>
<text font-size="12" text-anchor="middle" transform="rotate(-90 -12 -170)" x="-12" y="-182">

</text>
</g>
</g>
</svg>