<svg viewBox="0 0 600 400" xmlns="http://www.w3.org/2000/svg">
<g transform="translate(72, 364)">
<g>
<g>
<path d="M0,-102.790695 L0,-102.790695 L0.4804805,-276.74417 L0.960961,-150.23256 L1.4414414,-47.44186 L1.921922,-189.76744 L2.4024024,-102.790695 L2.8828828,-166.04651 L3.3633633,-39.534885 L3.843844,-134.41861 L4.324324,-221.39536 L4.804805,-47.44186 L5.2852855,-173.95349 L5.7657657,-102.790695 L6.2462463,-23.72093 L6.7267265,-213.48837 L7.207207,-47.44186 L7.687688,-126.51163 L8.168168,-158.13954 L8.648648,-166.04651 L9.129129,-340 L9.60961,-166.04651 L10.09009,-173.95349 L10.570571,-245.11627 L11.051051,-110.69768 L11.531531,-86.976746 L12.0120125,-31.627907 L12.492493,-181.86046 L12.972973,-150.23256 L13.453453,-126.51163 L13.933934,-110.69768 L14.414414,-284.65115 L14.894895,-110.69768 L15.375376,-181.86046 L15.855856,-110.69768 L16.336336,-142.32558 L16.816816,-221.39536 L17.297297,-276.74417 L17.777779,-205.58139 L18.258259,-94.88372 L18.738739,-118.60465 L19.21922,-197.67442 L19.6997,-47.44186 L20.18018,-55.34884 L20.66066,-260.93024 L21.141142,-23.72093 L21.621622,-110.69768 L22.102102,-150.23256 L22.582582,-102.790695 L23.063063,-47.44186 L23.543543,-126.51163 L24.024025,-134.41861 L24.504505,-118.60465 L24.984985,-237.2093 L25.465466,-110.69768 L25.945946,-316.27908 L26.426426,-94.88372 L26.906906,-197.67442 L27.387388,-55.34884 L27.867868,-63.255814 L28.348349,-150.23256 L28.828829,-260.93024 L29.309309,-63.255814 L29.78979,-134.41861 L30.27027,-118.60465 L30.750751,-23.72093 L31.231232,-31.627907 L31.711712,-126.51163 L32.192192,-134.41861 L32.672672,-197.67442 L33.153152,-118.60465 L33.633633,-63.255814 L34.114113,-79.06977 L34.594593,-150.23256 L35.075073,-94.88372 L35.555557,-126.51163 L36.036037,-150.23256 L36.516518,-205.58139 L36.996998,-181.86046 L37.477478,-47.44186 L37.95796,-268.83722 L38.43844,-63.255814 L38.91892,-15.813953 L39.3994,-126.51163 L39.87988,-55.34884 L40.36036,-142.32558 L40.84084,-55.34884 L41.32132,-142.32558 L41.801804,-55.34884 L42.282284,-15.813953 L42.762764,-15.813953 L43.243244,-23.72093 L43.723724,-197.67442 L44.204205,-205.58139 L44.684685,-110.69768 L45.165165,-110.69768 L45.645645,-166.04651 L46.126125,-166.04651 L46.606606,-23.72093 L47.087086,-47.44186 L47.567566,-118.60465 L48.04805,-47.44186 L48.52853,-150.23256 L49.00901,-173.95349 L49.48949,-173.95349 L49.96997,-23.72093 L50.45045,-284.65115 L50.93093,-150.23256 L51.41141,-118.60465 L51.89189,-71.16279 L52.37237,-166.04651 L52.85285,-118.60465 L53.333332,-110.69768 L53.813812,-71.16279 L54.294292,-63.255814 L54.774776,-229.30232 L55.255257,-197.67442 L55.735737,-134.41861 L56.216217,-340 L56.696697,-229.30232 L57.177177,-94.88372 L57.657658,-118.60465 L58.138138,-94.88372 L58.618618,-134.41861 L59.0991,-15.813953 L59.57958,-134.41861 L60.06006,-189.76744 L60.54054,-31.627907 L61.021023,-102.790695 L61.501503,-284.65115 L61.981983,-39.534885 L62.462463,-340 L62.942944,-102.790695 L63.423424,-229.30232 L63.903904,-55.34884 L64.384384,-47.44186 L64.86487,-23.72093 L65.345345,-15.813953 L65.82583,-150.23256 L66.306305,-268.83722 L66.78679,-71.16279 L67.267265,-142.32558 L67.74775,-47.44186 L68.228226,-71.16279 L68.70871,-31.627907 L69.189186,-245.11627 L69.66967,-63.255814 L70.15015,-134.41861 L70.63063,-284.65115 L71.111115,-332.09302 L71.59159,-173.95349 L72.072075,-292.55814 L72.55255,-173.95349 L73.033035,-118.60465 L73.51351,-79.06977 L73.993996,-118.60465 L74.47447,-0 L74.954956,-150.23256 L75.43543,-94.88372 L75.91592,-31.627907 L76.39639,-221.39536 L76.87688,-79.06977 L77.35736,-253.02325 L77.83784,-134.41861 L78.31832,-308.3721 L78.7988,-63.255814 L79.27928,-340 L79.75976,-260.93024 L80.24024,-71.16279 L80.72072,-276.74417 L81.2012,-71.16279 L81.68168,-205.58139 L82.16216,-253.02325 L82.64264,-55.34884 L83.12312,-134.41861 L83.60361,-340 L84.08408,-205.58139 L84.56457,-63.255814 L85.045044,-86.976746 L85.52553,-110.69768 L86.006004,-118.60465 L86.48649,-55.34884 L86.966965,-86.976746 L87.44745,-55.34884 L87.927925,-118.60465 L88.40841,-150.23256 L88.888885,-102.790695 L89.36937,-71.16279 L89.84985,-142.32558 L90.33033,-39.534885 L90.810814,-260.93024 L91.29129,-102.790695 L91.771774,-253.02325 L92.25225,-31.627907 L92.732735,-15.813953 L93.21321,-102.790695 L93.693695,-173.95349 L94.17417,-15.813953 L94.654655,-268.83722 L95.13513,-189.76744 L95.615616,-126.51163 L96.0961,-102.790695 L96.57658,-118.60465 L97.05706,-55.34884 L97.53754,-63.255814 L98.01802,-166.04651 L98.4985,-118.60465 L98.97898,-166.04651 L99.45946,-142.32558 L99.93994,-31.627907 L100.42042,-71.16279 L100.9009,-86.976746 L101.38138,-118.60465 L101.86186,-213.48837 L102.34234,-55.34884 L102.82282,-7.9069767 L103.30331,-253.02325 L103.78378,-118.60465 L104.26427,-110.69768 L104.74474,-229.30232 L105.22523,-79.06977 L105.7057,-47.44186 L106.18619,-134.41861 L106.666664,-253.02325 L107.14715,-118.60465 L107.627625,-126.51163 L108.10811,-71.16279 L108.588585,-39.534885 L109.06907,-126.51163 L109.54955,-79.06977 L110.03003,-166.04651 L110.51051,-47.44186 L110.99099,-39.534885 L111.47147,-79.06977 L111.95195,-142.32558 L112.432434,-110.69768 L112.91291,-173.95349 L113.393394,-31.627907 L113.87387,-197.67442 L114.354355,-260.93024 L114.83483,-7.9069767 L115.315315,-134.41861 L115.7958,-0 L116.276276,-253.02325 L116.75676,-126.51163 L117.237236,-31.627907 L117.71772,-23.72093 L118.1982,-253.02325 L118.67868,-15.813953 L119.15916,-245.11627 L119.63964,-189.76744 L120.12012,-205.58139 L120.6006,-94.88372 L121.08108,-79.06977 L121.56156,-126.51163 L122.042046,-166.04651 L122.52252,-71.16279 L123.003006,-55.34884 L123.48348,-86.976746 L123.96397,-197.67442 L124.44444,-150.23256 L124.92493,-276.74417 L125.4054,-102.790695 L125.88589,-173.95349 L126.36636,-213.48837 L126.84685,-15.813953 L127.327324,-15.813953 L127.80781,-150.23256 L128.28828,-39.534885 L128.76877,-55.34884 L129.24925,-94.88372 L129.72974,-31.627907 L130.2102,-205.58139 L130.69069,-166.04651 L131.17117,-221.39536 L131.65166,-110.69768 L132.13213,-31.627907 L132.61261,-142.32558 L133.0931,-23.72093 L133.57358,-189.76744 L134.05405,-47.44186 L134.53453,-253.02325 L135.01501,-142.32558 L135.4955,-197.67442 L135.97598,-181.86046 L136.45645,-47.44186 L136.93694,-110.69768 L137.41742,-118.60465 L137.8979,-150.23256 L138.37837,-86.976746 L138.85886,-102.790695 L139.33934,-63.255814 L139.81982,-31.627907 L140.3003,-118.60465 L140.78078,-221.39536 L141.26126,-126.51163 L141.74174,-71.16279 L142.22223,-181.86046 L142.7027,-292.55814 L143.18318,-86.976746 L143.66367,-229.30232 L144.14415,-142.32558 L144.62462,-181.86046 L145.1051,-260.93024 L145.58559,-213.48837 L146.06607,-63.255814 L146.54654,-0 L147.02702,-86.976746 L147.5075,-55.34884 L147.98799,-181.86046 L148.46848,-47.44186 L148.94894,-79.06977 L149.42943,-213.48837 L149.90991,-110.69768 L150.3904,-126.51163 L150.87086,-189.76744 L151.35135,-118.60465 L151.83183,-118.60465 L152.31232,-166.04651 L152.79279,-31.627907 L153.27327,-173.95349 L153.75375,-276.74417 L154.23424,-150.23256 L154.71472,-47.44186 L155.19519,-284.65115 L155.67567,-221.39536 L156.15616,-142.32558 L156.63664,-102.790695 L157.11711,-39.534885 L157.5976,-118.60465 L158.07808,-110.69768 L158.55856,-102.790695 L159.03903,-118.60465 L159.51952,-158.13954 L160,-213.48837 L160.48048,-86.976746 L160.96097,-47.44186 L161.44144,-253.02325 L161.92192,-268.83722 L162.4024,-150.23256 L162.88289,-142.32558 L163.36336,-142.32558 L163.84384,-292.55814 L164.32433,-158.13954 L164.80481,-276.74417 L165.28528,-31.627907 L165.76576,-47.44186 L166.24625,-284.65115 L166.72673,-63.255814 L167.20721,-15.813953 L167.68768,-55.34884 L168.16817,-79.06977 L168.64865,-102.790695 L169.12914,-0 L169.6096,-47.44186 L170.09009,-189.76744 L170.57057,-15.813953 L171.05106,-94.88372 L171.53152,-173.95349 L172.01201,-31.627907 L172.4925,-102.790695 L172.97298,-340 L173.45346,-213.48837 L173.93393,-158.13954 L174.41441,-166.04651 L174.8949,-23.72093 L175.37538,-150.23256 L175.85585,-340 L176.33633,-71.16279 L176.81682,-142.32558 L177.2973,-15.813953 L177.77777,-71.16279 L178.25826,-260.93024 L178.73874,-197.67442 L179.21922,-47.44186 L179.6997,-213.48837 L180.18018,-39.534885 L180.66066,-55.34884 L181.14114,-181.86046 L181.62163,-166.04651 L182.1021,-63.255814 L182.58258,-126.51163 L183.06306,-158.13954 L183.54355,-15.813953 L184.02402,-47.44186 L184.5045,-63.255814 L184.98499,-110.69768 L185.46547,-0 L185.94595,-15.813953 L186.42642,-142.32558 L186.9069,-55.34884 L187.38739,-110.69768 L187.86787,-23.72093 L188.34834,-276.74417 L188.82883,-245.11627 L189.30931,-300.46512 L189.7898,-237.2093 L190.27026,-7.9069767 L190.75075,-213.48837 L191.23123,-86.976746 L191.71172,-31.627907 L192.1922,-173.95349 L192.67267,-102.790695 L193.15315,-94.88372 L193.63364,-237.2093 L194.11412,-237.2093 L194.59459,-340 L195.07507,-118.60465 L195.55556,-316.27908 L196.03604,-39.534885 L196.51651,-94.88372 L196.997,-55.34884 L197.47748,-118.60465 L197.95796,-340 L198.43845,-63.255814 L198.91891,-110.69768 L199.3994,-23.72093 L199.87988,-102.790695 L200.36037,-221.39536 L200.84084,-276.74417 L201.32132,-15.813953 L201.8018,-166.04651 L202.28229,-63.255814 L202.76276,-94.88372 L203.24324,-340 L203.72372,-47.44186 L204.20421,-213.48837 L204.68468,-253.02325 L205.16516,-31.627907 L205.64565,-173.95349 L206.12613,-276.74417 L206.60661,-134.41861 L207.08708,-181.86046 L207.56757,-102.790695 L208.04805,-71.16279 L208.52853,-31.627907 L209.009,-284.65115 L209.48949,-150.23256 L209.96997,-39.534885 L210.45045,-102.790695 L210.93092,-253.02325 L211.4114,-31.627907 L211.89189,-0 L212.37238,-86.976746 L212.85286,-205.58139 L213.33333,-237.2093 L213.81381,-63.255814 L214.2943,-15.813953 L214.77478,-110.69768 L215.25525,-23.72093 L215.73573,-110.69768 L216.21622,-205.58139 L216.6967,-221.39536 L217.17717,-126.51163 L217.65765,-79.06977 L218.13814,-63.255814 L218.61862,-253.02325 L219.0991,-189.76744 L219.57957,-245.11627 L220.06006,-205.58139 L220.54054,-229.30232 L221.02103,-126.51163 L221.5015,-79.06977 L221.98198,-118.60465 L222.46246,-276.74417 L222.94295,-213.48837 L223.42342,-94.88372 L223.9039,-7.9069767 L224.38438,-31.627907 L224.86487,-55.34884 L225.34535,-39.534885 L225.82582,-197.67442 L226.3063,-118.60465 L226.78679,-102.790695 L227.26727,-79.06977 L227.74774,-166.04651 L228.22823,-150.23256 L228.70871,-23.72093 L229.1892,-134.41861 L229.66966,-150.23256 L230.15015,-79.06977 L230.63063,-63.255814 L231.11111,-229.30232 L231.5916,-55.34884 L232.07207,-118.60465 L232.55255,-31.627907 L233.03304,-39.534885 L233.51352,-308.3721 L233.99399,-23.72093 L234.47447,-118.60465 L234.95496,-221.39536 L235.43544,-102.790695 L235.91591,-86.976746 L236.3964,-181.86046 L236.87688,-284.65115 L237.35736,-205.58139 L237.83784,-39.534885 L238.31831,-340 L238.7988,-63.255814 L239.27928,-142.32558 L239.75977,-110.69768 L240.24023,-197.67442 L240.72072,-39.534885 L241.2012,-150.23256 L241.68169,-94.88372 L242.16216,-86.976746 L242.64264,-284.65115 L243.12312,-71.16279 L243.6036,-173.95349 L244.08409,-63.255814 L244.56456,-205.58139 L245.04504,-102.790695 L245.52553,-63.255814 L246.00601,-86.976746 L246.48648,-260.93024 L246.96696,-237.2093 L247.44745,-158.13954 L247.92793,-142.32558 L248.4084,-110.69768 L248.88889,-158.13954 L249.36937,-181.86046 L249.84985,-47.44186 L250.33034,-237.2093 L250.8108,-260.93024 L251.29129,-55.34884 L251.77177,-39.534885 L252.25226,-15.813953 L252.73273,-15.813953 L253.21321,-55.34884 L253.6937,-197.67442 L254.17418,-47.44186 L254.65465,-39.534885 L255.13513,-197.67442 L255.61562,-118.60465 L256.0961,-39.534885 L256.57657,-55.34884 L257.05707,-253.02325 L257.53754,-55.34884 L258.018,-340 L258.4985,-150.23256 L258.97897,-213.48837 L259.45947,-292.55814 L259.93994,-71.16279 L260.4204,-253.02325 L260.9009,-0 L261.38138,-55.34884 L261.86185,-166.04651 L262.34235,-47.44186 L262.8228,-55.34884 L263.3033,-63.255814 L263.78378,-245.11627 L264.26425,-126.51163 L264.74475,-39.534885 L265.22522,-229.30232 L265.70572,-197.67442 L266.1862,-221.39536 L266.66666,-71.16279 L267.14716,-86.976746 L267.62762,-213.48837 L268.1081,-245.11627 L268.5886,-110.69768 L269.06906,-94.88372 L269.54956,-31.627907 L270.03003,-340 L270.5105,-150.23256 L270.991,-31.627907 L271.47147,-189.76744 L271.95197,-55.34884 L272.43243,-79.06977 L272.9129,-55.34884 L273.3934,-173.95349 L273.87387,-110.69768 L274.35434,-71.16279 L274.83484,-134.41861 L275.3153,-0 L275.7958,-39.534885 L276.27628,-189.76744 L276.75674,-158.13954 L277.23724,-47.44186 L277.7177,-134.41861 L278.1982,-94.88372 L278.67868,-118.60465 L279.15915,-150.23256 L279.63965,-134.41861 L280.12012,-197.67442 L280.6006,-94.88372 L281.0811,-110.69768 L281.56155,-181.86046 L282.04205,-308.3721 L282.52252,-63.255814 L283.003,-142.32558 L283.4835,-118.60465 L283.96396,-55.34884 L284.44446,-150.23256 L284.92493,-340 L285.4054,-197.67442 L285.8859,-23.72093 L286.36636,-134.41861 L286.84683,-39.534885 L287.32733,-71.16279 L287.8078,-39.534885 L288.2883,-15.813953 L288.76877,-181.86046 L289.24924,-47.44186 L289.72974,-150.23256 L290.2102,-142.32558 L290.6907,-221.39536 L291.17117,-150.23256 L291.65164,-189.76744 L292.13214,-213.48837 L292.6126,-15.813953 L293.09308,-158.13954 L293.57358,-166.04651 L294.05405,-173.95349 L294.53455,-31.627907 L295.015,-340 L295.49548,-150.23256 L295.97598,-63.255814 L296.45645,-79.06977 L296.93695,-31.627907 L297.41742,-0 L297.8979,-260.93024 L298.3784,-340 L298.85886,-245.11627 L299.33932,-166.04651 L299.81982,-94.88372 L300.3003,-276.74417 L300.7808,-118.60465 L301.26126,-39.534885 L301.74173,-181.86046 L302.22223,-181.86046 L302.7027,-134.41861 L303.1832,-205.58139 L303.66367,-0 L304.14413,-15.813953 L304.62463,-118.60465 L305.1051,-197.67442 L305.58557,-300.46512 L306.06607,-63.255814 L306.54654,-79.06977 L307.02704,-205.58139 L307.5075,-79.06977 L307.98798,-31.627907 L308.46848,-110.69768 L308.94894,-284.65115 L309.42944,-268.83722 L309.9099,-63.255814 L310.39038,-126.51163 L310.87088,-55.34884 L311.35135,-63.255814 L311.83182,-102.790695 L312.31232,-0 L312.7928,-276.74417 L313.2733,-126.51163 L313.75375,-63.255814 L314.23422,-94.88372 L314.71472,-197.67442 L315.1952,-142.32558 L315.6757,-181.86046 L316.15616,-39.534885 L316.63663,-229.30232 L317.11713,-55.34884 L317.5976,-47.44186 L318.07806,-63.255814 L318.55856,-181.86046 L319.03903,-31.627907 L319.51953,-134.41861 L320,-55.34884 L320.48047,-205.58139 L320.96097,-166.04651 L321.44144,-173.95349 L321.92194,-15.813953 L322.4024,-71.16279 L322.88287,-63.255814 L323.36337,-126.51163 L323.84384,-118.60465 L324.3243,-118.60465 L324.8048,-31.627907 L325.28528,-213.48837 L325.76578,-47.44186 L326.24625,-118.60465 L326.7267,-71.16279 L327.2072,-86.976746 L327.68768,-118.60465 L328.16818,-23.72093 L328.64865,-150.23256 L329.12912,-102.790695 L329.60962,-229.30232 L330.0901,-173.95349 L330.57056,-213.48837 L331.05106,-134.41861 L331.53152,-39.534885 L332.01202,-110.69768 L332.4925,-126.51163 L332.97296,-166.04651 L333.45346,-110.69768 L333.93393,-253.02325 L334.41443,-39.534885 L334.8949,-102.790695 L335.37537,-181.86046 L335.85587,-23.72093 L336.33633,-340 L336.8168,-340 L337.2973,-63.255814 L337.77777,-63.255814 L338.25827,-166.04651 L338.73874,-110.69768 L339.2192,-118.60465 L339.6997,-15.813953 L340.18018,-340 L340.66068,-134.41861 L341.14114,-71.16279 L341.6216,-47.44186 L342.1021,-173.95349 L342.58258,-126.51163 L343.06305,-39.534885 L343.54355,-134.41861 L344.02402,-316.27908 L344.50452,-71.16279 L344.985,-94.88372 L345.46545,-31.627907 L345.94595,-94.88372 L346.42642,-55.34884 L346.90692,-340 L347.3874,-142.32558 L347.86786,-71.16279 L348.34836,-94.88372 L348.82883,-23.72093 L349.3093,-166.04651 L349.7898,-110.69768 L350.27026,-340 L350.75076,-340 L351.23123,-94.88372 L351.7117,-118.60465 L352.1922,-173.95349 L352.67267,-55.34884 L353.15317,-23.72093 L353.63364,-324.18604 L354.1141,-71.16279 L354.5946,-205.58139 L355.07507,-15.813953 L355.55554,-0 L356.03604,-205.58139 L356.5165,-173.95349 L356.997,-260.93024 L357.47748,-205.58139 L357.95795,-324.18604 L358.43845,-237.2093 L358.9189,-102.790695 L359.3994,-118.60465 L359.87988,-15.813953 L360.36035,-340 L360.84085,-134.41861 L361.32132,-79.06977 L361.8018,-63.255814 L362.2823,-23.72093 L362.76276,-126.51163 L363.24326,-150.23256 L363.72372,-79.06977 L364.2042,-79.06977 L364.6847,-150.23256 L365.16516,-173.95349 L365.64566,-94.88372 L366.12613,-150.23256 L366.6066,-63.255814 L367.0871,-102.790695 L367.56757,-15.813953 L368.04803,-31.627907 L368.52853,-110.69768 L369.009,-86.976746 L369.4895,-63.255814 L369.96997,-71.16279 L370.45044,-39.534885 L370.93094,-110.69768 L371.4114,-229.30232 L371.8919,-181.86046 L372.37238,-260.93024 L372.85284,-229.30232 L373.33334,-102.790695 L373.8138,-102.790695 L374.29428,-55.34884 L374.77478,-245.11627 L375.25525,-126.51163 L375.73575,-23.72093 L376.21622,-189.76744 L376.6967,-7.9069767 L377.1772,-118.60465 L377.65765,-316.27908 L378.13815,-15.813953 L378.61862,-71.16279 L379.0991,-31.627907 L379.5796,-126.51163 L380.06006,-181.86046 L380.54053,-63.255814 L381.02103,-47.44186 L381.5015,-221.39536 L381.982,-142.32558 L382.46246,-110.69768 L382.94293,-86.976746 L383.42343,-0 L383.9039,-31.627907 L384.3844,-205.58139 L384.86487,-173.95349 L385.34534,-300.46512 L385.82584,-150.23256 L386.3063,-47.44186 L386.78677,-166.04651 L387.26727,-110.69768 L387.74774,-94.88372 L388.22824,-15.813953 L388.7087,-102.790695 L389.18918,-150.23256 L389.66968,-79.06977 L390.15015,-47.44186 L390.63065,-31.627907 L391.1111,-47.44186 L391.59158,-197.67442 L392.07208,-300.46512 L392.55255,-197.67442 L393.03302,-86.976746 L393.51352,-150.23256 L393.994,-86.976746 L394.4745,-173.95349 L394.95496,-340 L395.43542,-197.67442 L395.91592,-31.627907 L396.3964,-126.51163 L396.8769,-189.76744 L397.35736,-126.51163 L397.83783,-205.58139 L398.31833,-150.23256 L398.7988,-47.44186 L399.27927,-118.60465 L399.75977,-31.627907 L400.24023,-71.16279 L400.72073,-166.04651 L401.2012,-39.534885 L401.68167,-102.790695 L402.16217,-39.534885 L402.64264,-110.69768 L403.1231,-79.06977 L403.6036,-340 L404.08408,-55.34884 L404.56458,-118.60465 L405.04504,-79.06977 L405.5255,-39.534885 L406.006,-213.48837 L406.48648,-173.95349 L406.96698,-39.534885 L407.44745,-31.627907 L407.92792,-94.88372 L408.40842,-181.86046 L408.8889,-189.76744 L409.36935,-118.60465 L409.84985,-110.69768 L410.33032,-31.627907 L410.81082,-79.06977 L411.2913,-292.55814 L411.77176,-7.9069767 L412.25226,-86.976746 L412.73273,-166.04651 L413.21323,-31.627907 L413.6937,-31.627907 L414.17416,-94.88372 L414.65466,-102.790695 L415.13513,-86.976746 L415.6156,-86.976746 L416.0961,-213.48837 L416.57657,-55.34884 L417.05707,-189.76744 L417.53754,-55.34884 L418.018,-110.69768 L418.4985,-150.23256 L418.97897,-55.34884 L419.45947,-31.627907 L419.93994,-86.976746 L420.4204,-142.32558 L420.9009,-31.627907 L421.38138,-55.34884 L421.86185,-31.627907 L422.34235,-173.95349 L422.8228,-79.06977 L423.3033,-126.51163 L423.78378,-31.627907 L424.26425,-63.255814 L424.74475,-205.58139 L425.22522,-340 L425.70572,-47.44186 L426.1862,-118.60465 L426.66666,-15.813953 L427.14716,-181.86046 L427.62762,-142.32558 L428.1081,-150.23256 L428.5886,-189.76744 L429.06906,-15.813953 L429.54956,-86.976746 L430.03003,-63.255814 L430.5105,-39.534885 L430.991,-150.23256 L431.47147,-39.534885 L431.95197,-110.69768 L432.43243,-205.58139 L432.9129,-31.627907 L433.3934,-86.976746 L433.87387,-213.48837 L434.35434,-253.02325 L434.83484,-142.32558 L435.3153,-205.58139 L435.7958,-0 L436.27628,-284.65115 L436.75674,-189.76744 L437.23724,-31.627907 L437.7177,-47.44186 L438.1982,-71.16279 L438.67868,-221.39536 L439.15915,-213.48837 L439.63965,-7.9069767 L440.12012,-31.627907 L440.6006,-260.93024 L441.0811,-300.46512 L441.56155,-15.813953 L442.04205,-15.813953 L442.52252,-63.255814 L443.003,-189.76744 L443.4835,-126.51163 L443.96396,-0 L444.44446,-221.39536 L444.92493,-79.06977 L445.4054,-166.04651 L445.8859,-340 L446.36636,-31.627907 L446.84683,-7.9069767 L447.32733,-71.16279 L447.8078,-71.16279 L448.2883,-181.86046 L448.76877,-150.23256 L449.24924,-181.86046 L449.72974,-55.34884 L450.2102,-110.69768 L450.6907,-71.16279 L451.17117,-166.04651 L451.65164,-55.34884 L452.13214,-189.76744 L452.6126,-181.86046 L453.09308,-189.76744 L453.57358,-110.69768 L454.05405,-47.44186 L454.53455,-166.04651 L455.015,-181.86046 L455.49548,-63.255814 L455.97598,-31.627907 L456.45645,-284.65115 L456.93695,-86.976746 L457.41742,-142.32558 L457.8979,-284.65115 L458.3784,-245.11627 L458.85886,-102.790695 L459.33932,-284.65115 L459.81982,-134.41861 L460.3003,-39.534885 L460.7808,-110.69768 L461.26126,-221.39536 L461.74173,-181.86046 L462.22223,-173.95349 L462.7027,-47.44186 L463.1832,-102.790695 L463.66367,-173.95349 L464.14413,-340 L464.62463,-205.58139 L465.1051,-31.627907 L465.58557,-47.44186 L466.06607,-150.23256 L466.54654,-7.9069767 L467.02704,-260.93024 L467.5075,-71.16279 L467.98798,-39.534885 L468.46848,-55.34884 L468.94894,-86.976746 L469.42944,-189.76744 L469.9099,-158.13954 L470.39038,-245.11627 L470.87088,-205.58139 L471.35135,-15.813953 L471.83182,-63.255814 L472.31232,-86.976746 L472.7928,-23.72093 L473.2733,-134.41861 L473.75375,-221.39536 L474.23422,-102.790695 L474.71472,-173.95349 L475.1952,-181.86046 L475.6757,-0 L476.15616,-134.41861 L476.63663,-245.11627 L477.11713,-94.88372 L477.5976,-55.34884 L478.07806,-102.790695 L478.55856,-15.813953 L479.03903,-94.88372 L479.51953,-63.255814 L480,-63.255814" fill="none" stroke="black" stroke-linejoin="round" stroke-width="2"/>
</g>
</g>
<g>
<g>
<line stroke="black" stroke-width="1" x1="0" x2="0" y1="0" y2="10"/>
<line stroke="black" stroke-width="1" x1="96.09609609609609" x2="96.09609609609609" y1="0" y2="10"/>
<line stroke="black" stroke-width="1" x1="192.19219219219218" x2="192.19219219219218" y1="0" y2="10"/>
<line stroke="black" stroke-width="1" x1="288.2882882882883" x2="288.2882882882883" y1="0" y2="10"/>
<line stroke="black" stroke-width="1" x1="384.38438438438436" x2="384.38438438438436" y1="0" y2="10"/>
</g>
<line stroke="black" stroke-width="1" x1="0" x2="480" y1="0" y2="0"/>
<g>
<text font-size="12" text-anchor="middle" x="0" y="20">
0
</text>
<text font-size="12" text-anchor="middle" x="96.09609609609609" y="20">
200
</text>
<text font-size="12" text-anchor="middle" x="192.19219219219218" y="20">
400
</text>
<text font-size="12" text-anchor="middle" x="288.2882882882883" y="20">
600
</text>
<text font-size="12" text-anchor="middle" x="384.38438438438436" y="20">
800
</text>
</g>
<text font-size="12" text-anchor="middle" x="240" y="30">

</text>
</g>
<g>
<g>
<line stroke="black" stroke-width="1" x1="0" x2="-10" y1="-0" y2="-0"/>
<line stroke="black" stroke-width="1" x1="0" x2="-10" y1="-79.06976744186046" y2="-79.06976744186046"/>
<line stroke="black" stroke-width="1" x1="0" x2="-10" y1="-158.13953488372093" y2="-158.13953488372093"/>
<line stroke="black" stroke-width="1" x1="0" x2="-10" y1="-237.2093023255814" y2="-237.2093023255814"/>
<line stroke="black" stroke-width="1" x1="0" x2="-10" y1="-316.27906976744185" y2="-316.27906976744185"/>
</g>
<line stroke="black" stroke-width="1" x1="0" x2="0" y1="0" y2="-340"/>
<g>
<text dominant-baseline="middle" font-size="12" text-anchor="end" x="-15" y="-0">
8
</text>
<text dominant-baseline="middle" font-size="12" text-anchor="end" x="-15" y="-79.06976744186046">
18
</text>
<text dominant-baseline="middle" font-size="12" text-anchor="end" x="-15" y="-158.13953488372093">
28
</text>
<text dominant-baseline="middle" font-size="12" text-anchor="end" x="-15" y="-237.2093023255814">
38
</text>
<text dominant-baseline="middle" font-size="12" text-anchor="end" x="-15" y="-316.27906976744185">
48
</text>
</g>
<text font-size="12" text-anchor="middle" transform="rotate(-90 -24 -170)" x="-24" y="-182">

</text>
</g>
</g>
</svg>