<svg viewBox="0 0 600 400" xmlns="http://www.w3.org/2000/svg">
<g transform="translate(72, 364)">
<g>
<g>
<path d="M0,-0 L0,-0 L0.96192384,-0 L1.9238477,-0 L2.8857715,-0 L3.8476954,-0 L4.8096194,-0 L5.771543,-0 L6.733467,-0 L7.6953907,-0 L8.657314,-0 L9.619239,-0 L10.581162,-0 L11.543086,-0 L12.50501,-0 L13.466934,-0 L14.428858,-0 L15.390781,-0 L16.352705,-0 L17.314629,-0 L18.276552,-0 L19.238478,-0 L20.200401,-0 L21.162325,-0 L22.124249,-0 L23.086172,-0 L24.048096,-0 L25.01002,-0 L25.971945,-0 L26.933868,-0 L27.895792,-0 L28.857716,-0 L29.81964,-0 L30.781563,-0 L31.743486,-0 L32.70541,-0 L33.667336,-0 L34.629257,-0 L35.591183,-0 L36.553104,-0 L37.51503,-0 L38.476955,-0 L39.438877,-0 L40.400803,-0 L41.362724,-0 L42.32465,-0 L43.28657,-0 L44.248497,-0 L45.210423,-0 L46.172344,-0 L47.13427,-0 L48.09619,-0 L49.058117,-0 L50.02004,-0 L50.981964,-0 L51.94389,-0 L52.90581,-0 L53.867737,-0 L54.82966,-0 L55.791584,-0 L56.753506,-0 L57.71543,-0 L58.677353,-0 L59.63928,-0 L60.601204,-0 L61.563126,-0 L62.52505,-0 L63.486973,-0 L64.4489,-0 L65.41082,-0 L66.37274,-0 L67.33467,-0 L68.29659,-0 L69.258514,-0 L70.22044,-0 L71.182365,-0 L72.14429,-0 L73.10621,-0 L74.06814,-0 L75.03006,-0 L75.99198,-0 L76.95391,-0 L77.91583,-0 L78.877754,-0 L79.839676,-0 L80.801605,-0 L81.76353,-0 L82.72545,-0 L83.68738,-0 L84.6493,-0 L85.61122,-0 L86.57314,-0 L87.53507,-0 L88.496994,-0 L89.458916,-0 L90.420845,-0 L91.38277,-0 L92.34469,-0 L93.30661,-0 L94.26854,-0 L95.23046,-0 L96.19238,-0 L97.15431,-0 L98.116234,-0 L99.078156,-0 L100.04008,-0 L101.00201,-0 L101.96393,-0 L102.92585,-0 L103.88778,-0 L104.8497,-0 L105.81162,-0 L106.773544,-0 L107.73547,-0 L108.697395,-0 L109.65932,-0 L110.62124,-0 L111.58317,-0 L112.54509,-0 L113.50701,-0 L114.46894,-0 L115.43086,-0 L116.392784,-0 L117.354706,-0 L118.316635,-0 L119.27856,-0 L120.24048,-0 L121.20241,-0 L122.16433,-0 L123.12625,-0 L124.08817,-0 L125.0501,-0 L126.012024,-0 L126.973946,-0 L127.935875,-0 L128.8978,-0 L129.85973,-0 L130.82164,-0 L131.78357,-0 L132.74548,-0 L133.70741,-0 L134.66934,-0 L135.63126,-0 L136.59319,-0 L137.55511,-0 L138.51703,-0 L139.47896,-0 L140.44089,-0 L141.4028,-0 L142.36473,-0 L143.32666,-0 L144.28857,-0 L145.2505,-0 L146.21242,-0 L147.17435,-0 L148.13628,-0 L149.09819,-0 L150.06012,-0 L151.02205,-0 L151.98396,-0 L152.94589,-0 L153.90782,-0 L154.86974,-0 L155.83167,-0 L156.7936,-0 L157.75551,-0 L158.71744,-0 L159.67935,-0 L160.64128,-0 L161.60321,-0 L162.56512,-0 L163.52705,-0 L164.48898,-0 L165.4509,-0 L166.41283,-0 L167.37476,-0 L168.33667,-0 L169.2986,-0 L170.26053,-0 L171.22244,-0 L172.18437,-0 L173.14629,-0 L174.10822,-0 L175.07014,-0 L176.03206,-0 L176.99399,-0 L177.95592,-0 L178.91783,-0 L179.87976,-0 L180.84169,-0 L181.8036,-0 L182.76553,-0 L183.72745,-0 L184.68938,-0 L185.6513,-0 L186.61322,-0 L187.57515,-0 L188.53708,-0 L189.499,-0 L190.46092,-0 L191.42285,-0 L192.38477,-0 L193.3467,-0 L194.30862,-0 L195.27054,-0 L196.23247,-0 L197.19438,-0 L198.15631,-0 L199.11824,-0 L200.08015,-0 L201.04208,-0 L202.00401,-0 L202.96593,-0 L203.92786,-0 L204.88979,-0 L205.8517,-0 L206.81363,-0 L207.77556,-0 L208.73747,-0 L209.6994,-0 L210.66132,-0 L211.62325,-0 L212.58517,-0 L213.54709,-0 L214.50902,-0 L215.47095,-0 L216.43286,-0 L217.39479,-0 L218.35672,-0 L219.31863,-0 L220.28056,-0 L221.24248,-0 L222.2044,-0 L223.16634,-0 L224.12825,-0 L225.09018,-0 L226.05211,-0 L227.01402,-0 L227.97595,-0 L228.93788,-0 L229.8998,-0 L230.86172,-0 L231.82365,-0 L232.78557,-0 L233.7475,-0 L234.70941,-0 L235.67134,-0 L236.63327,-0 L237.59518,-0 L238.55711,-0 L239.51904,-0 L240.48096,-0 L241.44289,-0 L242.40482,-0 L243.36673,-0 L244.32866,-0 L245.29059,-0 L246.2525,-0 L247.21443,-0 L248.17635,-0 L249.13828,-0 L250.1002,-0 L251.06212,-0 L252.02405,-0 L252.98598,-0 L253.94789,-0 L254.90982,-0 L255.87175,-0 L256.83368,-0 L257.7956,-0 L258.7575,-0 L259.71945,-0 L260.68137,-0 L261.64328,-0 L262.60522,-0 L263.56714,-0 L264.52905,-0 L265.49097,-0 L266.4529,-0 L267.41483,-0 L268.37674,-0 L269.33868,-0 L270.3006,-0 L271.2625,-0 L272.22446,-0 L273.18637,-0 L274.1483,-0 L275.11023,-0 L276.07214,-0 L277.03406,-0 L277.996,-0 L278.95792,-0 L279.91983,-0 L280.88177,-0 L281.8437,-0 L282.8056,-0 L283.76755,-0 L284.72946,-0 L285.69138,-0 L286.65332,-0 L287.61523,-0 L288.57715,-0 L289.5391,-0 L290.501,-0 L291.46292,-0 L292.42484,-0 L293.38678,-0 L294.3487,-0 L295.3106,-0 L296.27255,-0 L297.23447,-0 L298.19638,-0 L299.15833,-0 L300.12024,-0 L301.08215,-0 L302.0441,-0 L303.006,-0 L303.96793,-0 L304.92987,-0 L305.89178,-0 L306.8537,-0 L307.81564,-0 L308.77756,-0 L309.73947,-0 L310.70142,-0 L311.66333,-0 L312.62524,-0 L313.5872,-0 L314.5491,-0 L315.51102,-0 L316.47293,-0 L317.43488,-0 L318.3968,-0 L319.3587,-0 L320.32065,-0 L321.28256,-0 L322.24448,-0 L323.20642,-0 L324.16833,-0 L325.13025,-0 L326.0922,-0 L327.0541,-0 L328.01602,-0 L328.97797,-0 L329.93988,-0 L330.9018,-0 L331.86374,-0 L332.82565,-0 L333.78757,-0 L334.7495,-0 L335.71143,-0 L336.67334,-0 L337.63528,-0 L338.5972,-0 L339.5591,-0 L340.52106,-0 L341.48297,-0 L342.4449,-0 L343.4068,-0 L344.36874,-0 L345.33066,-0 L346.29257,-0 L347.25452,-0 L348.21643,-0 L349.17834,-0 L350.1403,-0 L351.1022,-0 L352.06412,-0 L353.02606,-0 L353.98798,-0 L354.9499,-0 L355.91183,-0 L356.87375,-0 L357.83566,-0 L358.7976,-0 L359.75952,-0 L360.72144,-0 L361.68338,-0 L362.6453,-0 L363.6072,-0 L364.56915,-0 L365.53107,-0 L366.49298,-0 L367.4549,-0 L368.41684,-0 L369.37875,-0 L370.34067,-0 L371.3026,-0 L372.26453,-0 L373.22644,-0 L374.1884,-0 L375.1503,-0 L376.1122,-0 L377.07416,-0 L378.03607,-0 L378.998,-0 L379.95993,-0 L380.92184,-0 L381.88376,-0 L382.8457,-0 L383.80762,-0 L384.76953,-0 L385.73148,-0 L386.6934,-0 L387.6553,-0 L388.61725,-0 L389.57916,-0 L390.54108,-0 L391.50302,-0 L392.46494,-0 L393.42685,-0 L394.38876,-0 L395.3507,-0 L396.31262,-0 L397.27454,-0 L398.23648,-0 L399.1984,-0 L400.1603,-0 L401.12225,-0 L402.08417,-0 L403.04608,-0 L404.00803,-0 L404.96994,-0 L405.93185,-0 L406.8938,-0 L407.8557,-0 L408.81763,-0 L409.77957,-0 L410.7415,-0 L411.7034,-0 L412.66534,-0 L413.62726,-0 L414.58917,-0 L415.55112,-0 L416.51303,-0 L417.47495,-0 L418.43686,-0 L419.3988,-0 L420.36072,-0 L421.32263,-0 L422.28458,-0 L423.2465,-0 L424.2084,-0 L425.17035,-0 L426.13226,-0 L427.09418,-0 L428.05612,-0 L429.01804,-0 L429.97995,-0 L430.9419,-0 L431.9038,-0 L432.86572,-0 L433.82767,-0 L434.78958,-0 L435.7515,-0 L436.71344,-0 L437.67535,-0 L438.63727,-0 L439.5992,-0 L440.56113,-0 L441.52304,-0 L442.48495,-0 L443.4469,-0 L444.4088,-0 L445.37073,-0 L446.33267,-0 L447.2946,-0 L448.2565,-0 L449.21844,-0 L450.18036,-0 L451.14227,-0 L452.10422,-0 L453.06613,-0 L454.02805,-0 L454.99,-0 L455.9519,-0 L456.91382,-0 L457.87576,-0 L458.83768,-0 L459.7996,-0 L460.76154,-0 L461.72345,-0 L462.68536,-0 L463.6473,-0 L464.60922,-0 L465.57114,-0 L466.53308,-0 L467.495,-0 L468.4569,-0 L469.41882,-0 L470.38077,-0 L471.34268,-0 L472.3046,-0 L473.26654,-0 L474.22845,-0 L475.19037,-0 L476.1523,-0 L477.11423,-0 L478.07614,-0 L479.0381,-0 L480,-0" fill="none" stroke="black" stroke-linejoin="round" stroke-width="2"/>
</g>
</g>
<g>
<g>
<line stroke="black" stroke-width="1" x1="0" x2="0" y1="0" y2="10"/>
<line stroke="black" stroke-width="1" x1="96.19238476953907" x2="96.19238476953907" y1="0" y2="10"/>
<line stroke="black" stroke-width="1" x1="192.38476953907815" x2="192.38476953907815" y1="0" y2="10"/>
<line stroke="black" stroke-width="1" x1="288.57715430861725" x2="288.57715430861725" y1="0" y2="10"/>
<line stroke="black" stroke-width="1" x1="384.7695390781563" x2="384.7695390781563" y1="0" y2="10"/>
</g>
<line stroke="black" stroke-width="1" x1="0" x2="480" y1="0" y2="0"/>
<g>
<text font-size="12" text-anchor="middle" x="0" y="20">
0
</text>
<text font-size="12" text-anchor="middle" x="96.19238476953907" y="20">
100
</text>
<text font-size="12" text-anchor="middle" x="192.38476953907815" y="20">
200
</text>
<text font-size="12" text-anchor="middle" x="288.57715430861725" y="20">
300
</text>
<text font-size="12" text-anchor="middle" x="384.7695390781563" y="20">
400
</text>
</g>
<text font-size="12" text-anchor="middle" x="240" y="30">

</text>
</g>
<g>
<g>
<line stroke="black" stroke-width="1" x1="0" x2="-10" y1="-0" y2="-0"/>
<line stroke="black" stroke-width="1" x1="0" x2="-10" y1="-68" y2="-68"/>
<line stroke="black" stroke-width="1" x1="0" x2="-10" y1="-136" y2="-136"/>
<line stroke="black" stroke-width="1" x1="0" x2="-10" y1="-204" y2="-204"/>
<line stroke="black" stroke-width="1" x1="0" x2="-10" y1="-272" y2="-272"/>
<line stroke="black" stroke-width="1" x1="0" x2="-10" y1="-340" y2="-340"/>
</g>
<line stroke="black" stroke-width="1" x1="0" x2="0" y1="0" y2="-340"/>
<g>
<text dominant-baseline="middle" font-size="12" text-anchor="end" x="-15" y="-0">
0
</text>
<text dominant-baseline="middle" font-size="12" text-anchor="end" x="-15" y="-68">
0.2
</text>
<text dominant-baseline="middle" font-size="12" text-anchor="end" x="-15" y="-136">
0.4
</text>
<text dominant-baseline="middle" font-size="12" text-anchor="end" x="-15" y="-204">
0.6
</text>
<text dominant-baseline="middle" font-size="12" text-anchor="end" x="-15" y="-272">
0.8
</text>
<text dominant-baseline="middle" font-size="12" text-anchor="end" x="-15" y="-340">
1
</text>
</g>
<text font-size="12" text-anchor="middle" transform="rotate(-90 -36 -170)" x="-36" y="-182">

</text>
</g>
</g>
</svg>