<svg viewBox="0 0 600 400" xmlns="http://www.w3.org/2000/svg">
<g transform="translate(72, 364)">
<g>
<g>
<path d="M0,-0 L0,-0 L0.4804805,-0 L0.960961,-0 L1.4414414,-0 L1.921922,-0 L2.4024024,-0 L2.8828828,-0 L3.3633633,-0 L3.843844,-0 L4.324324,-0 L4.804805,-0 L5.2852855,-0 L5.7657657,-0 L6.2462463,-0 L6.7267265,-0 L7.207207,-0 L7.687688,-0 L8.168168,-0 L8.648648,-0 L9.129129,-0 L9.60961,-0 L10.09009,-0 L10.570571,-0 L11.051051,-340 L11.531531,-0 L12.0120125,-0 L12.492493,-0 L12.972973,-0 L13.453453,-0 L13.933934,-0 L14.414414,-0 L14.894895,-0 L15.375376,-0 L15.855856,-0 L16.336336,-0 L16.816816,-0 L17.297297,-0 L17.777779,-0 L18.258259,-0 L18.738739,-0 L19.21922,-0 L19.6997,-0 L20.18018,-0 L20.66066,-0 L21.141142,-0 L21.621622,-0 L22.102102,-0 L22.582582,-0 L23.063063,-0 L23.543543,-0 L24.024025,-0 L24.504505,-0 L24.984985,-0 L25.465466,-0 L25.945946,-0 L26.426426,-0 L26.906906,-0 L27.387388,-0 L27.867868,-0 L28.348349,-0 L28.828829,-0 L29.309309,-0 L29.78979,-0 L30.27027,-0 L30.750751,-0 L31.231232,-0 L31.711712,-0 L32.192192,-0 L32.672672,-0 L33.153152,-0 L33.633633,-0 L34.114113,-0 L34.594593,-0 L35.075073,-0 L35.555557,-0 L36.036037,-0 L36.516518,-0 L36.996998,-0 L37.477478,-0 L37.95796,-0 L38.43844,-0 L38.91892,-0 L39.3994,-0 L39.87988,-0 L40.36036,-0 L40.84084,-0 L41.32132,-0 L41.801804,-0 L42.282284,-0 L42.762764,-0 L43.243244,-0 L43.723724,-0 L44.204205,-0 L44.684685,-0 L45.165165,-0 L45.645645,-0 L46.126125,-0 L46.606606,-0 L47.087086,-0 L47.567566,-0 L48.04805,-0 L48.52853,-0 L49.00901,-0 L49.48949,-0 L49.96997,-0 L50.45045,-0 L50.93093,-0 L51.41141,-0 L51.89189,-0 L52.37237,-0 L52.85285,-0 L53.333332,-0 L53.813812,-0 L54.294292,-0 L54.774776,-0 L55.255257,-0 L55.735737,-0 L56.216217,-0 L56.696697,-0 L57.177177,-0 L57.657658,-340 L58.138138,-0 L58.618618,-0 L59.0991,-0 L59.57958,-0 L60.06006,-0 L60.54054,-0 L61.021023,-0 L61.501503,-0 L61.981983,-0 L62.462463,-0 L62.942944,-0 L63.423424,-0 L63.903904,-0 L64.384384,-0 L64.86487,-0 L65.345345,-0 L65.82583,-0 L66.306305,-0 L66.78679,-0 L67.267265,-0 L67.74775,-0 L68.228226,-0 L68.70871,-0 L69.189186,-0 L69.66967,-0 L70.15015,-0 L70.63063,-0 L71.111115,-0 L71.59159,-0 L72.072075,-0 L72.55255,-0 L73.033035,-0 L73.51351,-0 L73.993996,-0 L74.47447,-0 L74.954956,-0 L75.43543,-0 L75.91592,-0 L76.39639,-0 L76.87688,-0 L77.35736,-0 L77.83784,-0 L78.31832,-0 L78.7988,-0 L79.27928,-0 L79.75976,-0 L80.24024,-0 L80.72072,-0 L81.2012,-0 L81.68168,-340 L82.16216,-0 L82.64264,-0 L83.12312,-0 L83.60361,-0 L84.08408,-0 L84.56457,-0 L85.045044,-0 L85.52553,-0 L86.006004,-0 L86.48649,-0 L86.966965,-0 L87.44745,-0 L87.927925,-0 L88.40841,-0 L88.888885,-0 L89.36937,-0 L89.84985,-0 L90.33033,-0 L90.810814,-0 L91.29129,-0 L91.771774,-0 L92.25225,-0 L92.732735,-0 L93.21321,-0 L93.693695,-0 L94.17417,-0 L94.654655,-0 L95.13513,-0 L95.615616,-0 L96.0961,-0 L96.57658,-0 L97.05706,-0 L97.53754,-0 L98.01802,-0 L98.4985,-0 L98.97898,-0 L99.45946,-0 L99.93994,-0 L100.42042,-0 L100.9009,-0 L101.38138,-0 L101.86186,-0 L102.34234,-0 L102.82282,-0 L103.30331,-0 L103.78378,-0 L104.26427,-0 L104.74474,-0 L105.22523,-0 L105.7057,-0 L106.18619,-0 L106.666664,-0 L107.14715,-0 L107.627625,-0 L108.10811,-0 L108.588585,-0 L109.06907,-0 L109.54955,-0 L110.03003,-0 L110.51051,-0 L110.99099,-0 L111.47147,-0 L111.95195,-0 L112.432434,-0 L112.91291,-0 L113.393394,-0 L113.87387,-0 L114.354355,-0 L114.83483,-0 L115.315315,-0 L115.7958,-0 L116.276276,-0 L116.75676,-0 L117.237236,-0 L117.71772,-0 L118.1982,-0 L118.67868,-0 L119.15916,-0 L119.63964,-0 L120.12012,-0 L120.6006,-0 L121.08108,-0 L121.56156,-0 L122.042046,-0 L122.52252,-0 L123.003006,-0 L123.48348,-0 L123.96397,-0 L124.44444,-0 L124.92493,-0 L125.4054,-0 L125.88589,-0 L126.36636,-0 L126.84685,-0 L127.327324,-0 L127.80781,-0 L128.28828,-0 L128.76877,-0 L129.24925,-0 L129.72974,-0 L130.2102,-0 L130.69069,-0 L131.17117,-0 L131.65166,-0 L132.13213,-0 L132.61261,-0 L133.0931,-0 L133.57358,-0 L134.05405,-0 L134.53453,-0 L135.01501,-0 L135.4955,-0 L135.97598,-0 L136.45645,-0 L136.93694,-0 L137.41742,-0 L137.8979,-0 L138.37837,-0 L138.85886,-0 L139.33934,-0 L139.81982,-0 L140.3003,-0 L140.78078,-0 L141.26126,-0 L141.74174,-0 L142.22223,-0 L142.7027,-0 L143.18318,-0 L143.66367,-0 L144.14415,-0 L144.62462,-0 L145.1051,-0 L145.58559,-0 L146.06607,-0 L146.54654,-0 L147.02702,-0 L147.5075,-0 L147.98799,-0 L148.46848,-0 L148.94894,-0 L149.42943,-0 L149.90991,-0 L150.3904,-0 L150.87086,-0 L151.35135,-0 L151.83183,-0 L152.31232,-0 L152.79279,-0 L153.27327,-0 L153.75375,-0 L154.23424,-0 L154.71472,-0 L155.19519,-0 L155.67567,-0 L156.15616,-0 L156.63664,-0 L157.11711,-0 L157.5976,-0 L158.07808,-0 L158.55856,-0 L159.03903,-0 L159.51952,-0 L160,-0 L160.48048,-0 L160.96097,-0 L161.44144,-0 L161.92192,-0 L162.4024,-0 L162.88289,-0 L163.36336,-0 L163.84384,-0 L164.32433,-0 L164.80481,-0 L165.28528,-0 L165.76576,-0 L166.24625,-0 L166.72673,-340 L167.20721,-0 L167.68768,-0 L168.16817,-0 L168.64865,-0 L169.12914,-0 L169.6096,-0 L170.09009,-0 L170.57057,-0 L171.05106,-0 L171.53152,-0 L172.01201,-0 L172.4925,-0 L172.97298,-0 L173.45346,-0 L173.93393,-340 L174.41441,-0 L174.8949,-0 L175.37538,-0 L175.85585,-0 L176.33633,-0 L176.81682,-0 L177.2973,-0 L177.77777,-0 L178.25826,-0 L178.73874,-0 L179.21922,-0 L179.6997,-0 L180.18018,-0 L180.66066,-0 L181.14114,-0 L181.62163,-0 L182.1021,-0 L182.58258,-0 L183.06306,-0 L183.54355,-0 L184.02402,-0 L184.5045,-0 L184.98499,-0 L185.46547,-0 L185.94595,-0 L186.42642,-0 L186.9069,-0 L187.38739,-340 L187.86787,-0 L188.34834,-0 L188.82883,-0 L189.30931,-0 L189.7898,-0 L190.27026,-0 L190.75075,-0 L191.23123,-0 L191.71172,-0 L192.1922,-0 L192.67267,-0 L193.15315,-0 L193.63364,-0 L194.11412,-0 L194.59459,-0 L195.07507,-0 L195.55556,-0 L196.03604,-0 L196.51651,-0 L196.997,-0 L197.47748,-0 L197.95796,-0 L198.43845,-0 L198.91891,-0 L199.3994,-0 L199.87988,-0 L200.36037,-0 L200.84084,-0 L201.32132,-0 L201.8018,-0 L202.28229,-0 L202.76276,-0 L203.24324,-0 L203.72372,-0 L204.20421,-0 L204.68468,-0 L205.16516,-0 L205.64565,-0 L206.12613,-0 L206.60661,-0 L207.08708,-0 L207.56757,-0 L208.04805,-0 L208.52853,-0 L209.009,-0 L209.48949,-0 L209.96997,-0 L210.45045,-0 L210.93092,-0 L211.4114,-0 L211.89189,-0 L212.37238,-0 L212.85286,-0 L213.33333,-340 L213.81381,-0 L214.2943,-0 L214.77478,-0 L215.25525,-0 L215.73573,-0 L216.21622,-0 L216.6967,-0 L217.17717,-0 L217.65765,-0 L218.13814,-0 L218.61862,-0 L219.0991,-0 L219.57957,-0 L220.06006,-0 L220.54054,-0 L221.02103,-0 L221.5015,-0 L221.98198,-0 L222.46246,-0 L222.94295,-0 L223.42342,-0 L223.9039,-0 L224.38438,-0 L224.86487,-0 L225.34535,-0 L225.82582,-0 L226.3063,-0 L226.78679,-0 L227.26727,-0 L227.74774,-0 L228.22823,-0 L228.70871,-0 L229.1892,-0 L229.66966,-0 L230.15015,-0 L230.63063,-0 L231.11111,-0 L231.5916,-0 L232.07207,-0 L232.55255,-0 L233.03304,-0 L233.51352,-0 L233.99399,-0 L234.47447,-0 L234.95496,-0 L235.43544,-0 L235.91591,-0 L236.3964,-0 L236.87688,-0 L237.35736,-0 L237.83784,-0 L238.31831,-0 L238.7988,-0 L239.27928,-0 L239.75977,-0 L240.24023,-0 L240.72072,-0 L241.2012,-0 L241.68169,-0 L242.16216,-0 L242.64264,-0 L243.12312,-0 L243.6036,-0 L244.08409,-0 L244.56456,-0 L245.04504,-0 L245.52553,-0 L246.00601,-0 L246.48648,-0 L246.96696,-0 L247.44745,-0 L247.92793,-0 L248.4084,-0 L248.88889,-0 L249.36937,-0 L249.84985,-0 L250.33034,-0 L250.8108,-0 L251.29129,-0 L251.77177,-0 L252.25226,-0 L252.73273,-0 L253.21321,-0 L253.6937,-0 L254.17418,-0 L254.65465,-0 L255.13513,-0 L255.61562,-0 L256.0961,-0 L256.57657,-0 L257.05707,-0 L257.53754,-0 L258.018,-0 L258.4985,-0 L258.97897,-0 L259.45947,-0 L259.93994,-0 L260.4204,-0 L260.9009,-0 L261.38138,-0 L261.86185,-0 L262.34235,-0 L262.8228,-0 L263.3033,-0 L263.78378,-0 L264.26425,-0 L264.74475,-0 L265.22522,-340 L265.70572,-0 L266.1862,-0 L266.66666,-0 L267.14716,-0 L267.62762,-0 L268.1081,-0 L268.5886,-0 L269.06906,-0 L269.54956,-0 L270.03003,-0 L270.5105,-0 L270.991,-0 L271.47147,-0 L271.95197,-0 L272.43243,-0 L272.9129,-0 L273.3934,-0 L273.87387,-0 L274.35434,-0 L274.83484,-0 L275.3153,-0 L275.7958,-0 L276.27628,-0 L276.75674,-0 L277.23724,-0 L277.7177,-0 L278.1982,-0 L278.67868,-0 L279.15915,-0 L279.63965,-0 L280.12012,-0 L280.6006,-0 L281.0811,-0 L281.56155,-0 L282.04205,-0 L282.52252,-0 L283.003,-0 L283.4835,-0 L283.96396,-0 L284.44446,-0 L284.92493,-0 L285.4054,-0 L285.8859,-0 L286.36636,-0 L286.84683,-0 L287.32733,-0 L287.8078,-0 L288.2883,-340 L288.76877,-0 L289.24924,-0 L289.72974,-0 L290.2102,-0 L290.6907,-0 L291.17117,-0 L291.65164,-0 L292.13214,-0 L292.6126,-0 L293.09308,-0 L293.57358,-0 L294.05405,-0 L294.53455,-0 L295.015,-0 L295.49548,-0 L295.97598,-0 L296.45645,-0 L296.93695,-0 L297.41742,-0 L297.8979,-0 L298.3784,-0 L298.85886,-0 L299.33932,-0 L299.81982,-0 L300.3003,-0 L300.7808,-0 L301.26126,-0 L301.74173,-0 L302.22223,-0 L302.7027,-0 L303.1832,-0 L303.66367,-0 L304.14413,-0 L304.62463,-0 L305.1051,-0 L305.58557,-0 L306.06607,-0 L306.54654,-0 L307.02704,-0 L307.5075,-0 L307.98798,-0 L308.46848,-0 L308.94894,-0 L309.42944,-0 L309.9099,-0 L310.39038,-0 L310.87088,-0 L311.35135,-0 L311.83182,-0 L312.31232,-0 L312.7928,-0 L313.2733,-0 L313.75375,-0 L314.23422,-0 L314.71472,-0 L315.1952,-0 L315.6757,-0 L316.15616,-0 L316.63663,-0 L317.11713,-0 L317.5976,-0 L318.07806,-0 L318.55856,-0 L319.03903,-0 L319.51953,-0 L320,-0 L320.48047,-0 L320.96097,-0 L321.44144,-0 L321.92194,-0 L322.4024,-0 L322.88287,-0 L323.36337,-0 L323.84384,-0 L324.3243,-0 L324.8048,-0 L325.28528,-0 L325.76578,-0 L326.24625,-0 L326.7267,-0 L327.2072,-0 L327.68768,-0 L328.16818,-0 L328.64865,-0 L329.12912,-0 L329.60962,-0 L330.0901,-0 L330.57056,-0 L331.05106,-0 L331.53152,-0 L332.01202,-0 L332.4925,-0 L332.97296,-0 L333.45346,-0 L333.93393,-0 L334.41443,-0 L334.8949,-0 L335.37537,-0 L335.85587,-0 L336.33633,-0 L336.8168,-0 L337.2973,-0 L337.77777,-0 L338.25827,-0 L338.73874,-0 L339.2192,-0 L339.6997,-0 L340.18018,-0 L340.66068,-0 L341.14114,-0 L341.6216,-0 L342.1021,-0 L342.58258,-0 L343.06305,-0 L343.54355,-0 L344.02402,-0 L344.50452,-0 L344.985,-0 L345.46545,-0 L345.94595,-0 L346.42642,-0 L346.90692,-0 L347.3874,-0 L347.86786,-0 L348.34836,-0 L348.82883,-0 L349.3093,-0 L349.7898,-0 L350.27026,-0 L350.75076,-0 L351.23123,-0 L351.7117,-0 L352.1922,-0 L352.67267,-0 L353.15317,-0 L353.63364,-0 L354.1141,-0 L354.5946,-0 L355.07507,-0 L355.55554,-0 L356.03604,-0 L356.5165,-0 L356.997,-0 L357.47748,-0 L357.95795,-0 L358.43845,-0 L358.9189,-0 L359.3994,-0 L359.87988,-0 L360.36035,-0 L360.84085,-0 L361.32132,-0 L361.8018,-0 L362.2823,-0 L362.76276,-0 L363.24326,-0 L363.72372,-0 L364.2042,-0 L364.6847,-0 L365.16516,-0 L365.64566,-0 L366.12613,-0 L366.6066,-0 L367.0871,-0 L367.56757,-0 L368.04803,-0 L368.52853,-0 L369.009,-0 L369.4895,-0 L369.96997,-0 L370.45044,-0 L370.93094,-0 L371.4114,-0 L371.8919,-0 L372.37238,-0 L372.85284,-0 L373.33334,-0 L373.8138,-0 L374.29428,-0 L374.77478,-0 L375.25525,-0 L375.73575,-0 L376.21622,-0 L376.6967,-0 L377.1772,-0 L377.65765,-0 L378.13815,-0 L378.61862,-0 L379.0991,-0 L379.5796,-0 L380.06006,-0 L380.54053,-0 L381.02103,-0 L381.5015,-0 L381.982,-0 L382.46246,-0 L382.94293,-0 L383.42343,-0 L383.9039,-0 L384.3844,-0 L384.86487,-0 L385.34534,-0 L385.82584,-0 L386.3063,-0 L386.78677,-0 L387.26727,-0 L387.74774,-0 L388.22824,-0 L388.7087,-0 L389.18918,-0 L389.66968,-0 L390.15015,-0 L390.63065,-0 L391.1111,-0 L391.59158,-0 L392.07208,-0 L392.55255,-0 L393.03302,-0 L393.51352,-0 L393.994,-0 L394.4745,-0 L394.95496,-0 L395.43542,-0 L395.91592,-0 L396.3964,-0 L396.8769,-0 L397.35736,-0 L397.83783,-0 L398.31833,-0 L398.7988,-0 L399.27927,-0 L399.75977,-0 L400.24023,-0 L400.72073,-0 L401.2012,-0 L401.68167,-0 L402.16217,-0 L402.64264,-0 L403.1231,-0 L403.6036,-0 L404.08408,-0 L404.56458,-0 L405.04504,-0 L405.5255,-0 L406.006,-0 L406.48648,-0 L406.96698,-0 L407.44745,-0 L407.92792,-0 L408.40842,-0 L408.8889,-0 L409.36935,-0 L409.84985,-0 L410.33032,-0 L410.81082,-0 L411.2913,-0 L411.77176,-0 L412.25226,-340 L412.73273,-0 L413.21323,-0 L413.6937,-0 L414.17416,-0 L414.65466,-0 L415.13513,-0 L415.6156,-0 L416.0961,-0 L416.57657,-0 L417.05707,-0 L417.53754,-0 L418.018,-0 L418.4985,-0 L418.97897,-0 L419.45947,-0 L419.93994,-0 L420.4204,-0 L420.9009,-0 L421.38138,-0 L421.86185,-0 L422.34235,-0 L422.8228,-0 L423.3033,-0 L423.78378,-0 L424.26425,-0 L424.74475,-0 L425.22522,-0 L425.70572,-0 L426.1862,-0 L426.66666,-0 L427.14716,-0 L427.62762,-0 L428.1081,-0 L428.5886,-0 L429.06906,-0 L429.54956,-0 L430.03003,-0 L430.5105,-0 L430.991,-0 L431.47147,-0 L431.95197,-0 L432.43243,-0 L432.9129,-0 L433.3934,-0 L433.87387,-0 L434.35434,-0 L434.83484,-0 L435.3153,-0 L435.7958,-0 L436.27628,-0 L436.75674,-0 L437.23724,-0 L437.7177,-0 L438.1982,-0 L438.67868,-0 L439.15915,-0 L439.63965,-0 L440.12012,-0 L440.6006,-0 L441.0811,-0 L441.56155,-0 L442.04205,-0 L442.52252,-0 L443.003,-0 L443.4835,-0 L443.96396,-0 L444.44446,-0 L444.92493,-0 L445.4054,-0 L445.8859,-0 L446.36636,-0 L446.84683,-0 L447.32733,-0 L447.8078,-0 L448.2883,-0 L448.76877,-0 L449.24924,-0 L449.72974,-0 L450.2102,-0 L450.6907,-0 L451.17117,-0 L451.65164,-0 L452.13214,-0 L452.6126,-0 L453.09308,-0 L453.57358,-0 L454.05405,-0 L454.53455,-0 L455.015,-0 L455.49548,-0 L455.97598,-0 L456.45645,-0 L456.93695,-0 L457.41742,-0 L457.8979,-0 L458.3784,-0 L458.85886,-0 L459.33932,-0 L459.81982,-0 L460.3003,-0 L460.7808,-0 L461.26126,-0 L461.74173,-0 L462.22223,-0 L462.7027,-0 L463.1832,-0 L463.66367,-0 L464.14413,-0 L464.62463,-0 L465.1051,-0 L465.58557,-0 L466.06607,-0 L466.54654,-0 L467.02704,-0 L467.5075,-0 L467.98798,-0 L468.46848,-0 L468.94894,-0 L469.42944,-0 L469.9099,-0 L470.39038,-0 L470.87088,-0 L471.35135,-0 L471.83182,-0 L472.31232,-0 L472.7928,-0 L473.2733,-0 L473.75375,-0 L474.23422,-0 L474.71472,-0 L475.1952,-0 L475.6757,-0 L476.15616,-0 L476.63663,-0 L477.11713,-0 L477.5976,-0 L478.07806,-0 L478.55856,-0 L479.03903,-0 L479.51953,-0 L480,-0" fill="none" stroke="black" stroke-linejoin="round" stroke-width="2"/>
</g>
</g>
<g>
<g>
<line stroke="black" stroke-width="1" x1="0" x2="0" y1="0" y2="10"/>
<line stroke="black" stroke-width="1" x1="96.09609609609609" x2="96.09609609609609" y1="0" y2="10"/>
<line stroke="black" stroke-width="1" x1="192.19219219219218" x2="192.19219219219218" y1="0" y2="10"/>
<line stroke="black" stroke-width="1" x1="288.2882882882883" x2="288.2882882882883" y1="0" y2="10"/>
<line stroke="black" stroke-width="1" x1="384.38438438438436" x2="384.38438438438436" y1="0" y2="10"/>
</g>
<line stroke="black" stroke-width="1" x1="0" x2="480" y1="0" y2="0"/>
<g>
<text font-size="12" text-anchor="middle" x="0" y="20">
0
</text>
<text font-size="12" text-anchor="middle" x="96.09609609609609" y="20">
200
</text>
<text font-size="12" text-anchor="middle" x="192.19219219219218" y="20">
400
</text>
<text font-size="12" text-anchor="middle" x="288.2882882882883" y="20">
600
</text>
<text font-size="12" text-anchor="middle" x="384.38438438438436" y="20">
800
</text>
</g>
<text font-size="12" text-anchor="middle" x="240" y="30">

</text>
</g>
<g>
<g>
<line stroke="black" stroke-width="1" x1="0" x2="-10" y1="-0" y2="-0"/>
<line stroke="black" stroke-width="1" x1="0" x2="-10" y1="-67.99999999999999" y2="-67.99999999999999"/>
<line stroke="black" stroke-width="1" x1="0" x2="-10" y1="-135.99999999999997" y2="-135.99999999999997"/>
<line stroke="black" stroke-width="1" x1="0" x2="-10" y1="-204.00000000000003" y2="-204.00000000000003"/>
<line stroke="black" stroke-width="1" x1="0" x2="-10" y1="-272" y2="-272"/>
<line stroke="black" stroke-width="1" x1="0" x2="-10" y1="-340" y2="-340"/>
</g>
<line stroke="black" stroke-width="1" x1="0" x2="0" y1="0" y2="-340"/>
<g>
<text dominant-baseline="middle" font-size="12" text-anchor="end" x="-15" y="-0">
2
</text>
<text dominant-baseline="middle" font-size="12" text-anchor="end" x="-15" y="-67.99999999999999">
2.4
</text>
<text dominant-baseline="middle" font-size="12" text-anchor="end" x="-15" y="-135.99999999999997">
2.8
</text>
<text dominant-baseline="middle" font-size="12" text-anchor="end" x="-15" y="-204.00000000000003">
3.2
</text>
<text dominant-baseline="middle" font-size="12" text-anchor="end" x="-15" y="-272">
3.6
</text>
<text dominant-baseline="middle" font-size="12" text-anchor="end" x="-15" y="-340">
4
</text>
</g>
<text font-size="12" text-anchor="middle" transform="rotate(-90 -36 -170)" x="-36" y="-182">

</text>
</g>
</g>
</svg>