<svg viewBox="0 0 600 400" xmlns="http://www.w3.org/2000/svg">
<g transform="translate(72, 364)">
<g>
<g>
<path d="M0,-340 L0,-340 L1.0105263,-314.33408 L2.0210526,-320.53836 L3.031579,-326.12222 L4.042105,-286.687 L5.0526314,-263.32098 L6.063158,-241.28108 L7.073684,-241.65456 L8.08421,-255.1268 L9.094737,-240.9796 L10.105263,-221.17383 L11.115789,-220.52663 L12.126316,-196.70334 L13.136842,-196.48225 L14.147368,-185.16809 L15.157895,-179.02724 L16.16842,-173.50047 L17.178947,-156.40074 L18.189474,-149.09474 L19.2,-139.48793 L20.210526,-127.810394 L21.221052,-118.31108 L22.231579,-115.82452 L23.242105,-100.4505 L24.252632,-91.66624 L25.263159,-80.72899 L26.273684,-70.88547 L27.28421,-76.172874 L28.294737,-65.7745 L29.305264,-62.478775 L30.31579,-54.460274 L31.326315,-50.275032 L32.33684,-48.529255 L33.34737,-39.88477 L34.357895,-31.094263 L35.36842,-34.29797 L36.37895,-29.097551 L37.389473,-33.511402 L38.4,-37.483864 L39.410526,-42.069553 L40.42105,-32.0501 L41.43158,-28.084934 L42.442104,-34.620983 L43.452633,-26.356855 L44.463158,-31.044775 L45.473682,-23.138266 L46.48421,-28.148045 L47.494736,-23.562618 L48.505264,-17.414795 L49.51579,-15.923633 L50.526318,-11.550179 L51.536842,-14.687356 L52.547367,-13.468938 L53.557896,-24.497995 L54.56842,-21.288044 L55.57895,-16.378147 L56.589474,-9.938303 L57.6,-3.1319726 L58.610527,-2.058623 L59.62105,-3.1135476 L60.63158,-7.094388 L61.642105,-11.687614 L62.65263,-9.7587 L63.66316,-20.148314 L64.67368,-15.35239 L65.68421,-8.004651 L66.69474,-4.4230947 L67.70526,-13.325329 L68.71579,-14.264052 L69.72632,-16.119373 L70.73684,-13.747283 L71.74737,-21.717098 L72.7579,-23.837584 L73.76842,-18.672733 L74.778946,-20.087187 L75.789474,-24.391602 L76.8,-20.18182 L77.810524,-13.361608 L78.82105,-20.35952 L79.83158,-24.636703 L80.8421,-23.433819 L81.85263,-26.393103 L82.86316,-35.119274 L83.87369,-37.920483 L84.88421,-71.76612 L85.89474,-102.2272 L86.905266,-97.307144 L87.91579,-97.93144 L88.926315,-101.52472 L89.936844,-90.6121 L90.947365,-88.87449 L91.95789,-103.47816 L92.96842,-98.43301 L93.97895,-93.89237 L94.98947,-92.83721 L96,-95.92944 L97.01053,-122.963715 L98.02105,-117.99095 L99.03158,-127.66203 L100.04211,-113.125206 L101.052635,-107.11535 L102.063156,-108.77977 L103.073685,-116.34056 L104.08421,-99.90447 L105.094734,-101.27951 L106.10526,-97.46469 L107.11579,-98.073235 L108.12631,-98.620926 L109.13684,-95.07197 L110.14737,-94.90932 L111.1579,-88.70011 L112.16842,-92.20605 L113.17895,-89.29858 L114.189476,-91.7342 L115.2,-108.07284 L116.210526,-106.6101 L117.221054,-103.27269 L118.23158,-105.32137 L119.2421,-101.10237 L120.25263,-97.30527 L121.26316,-86.81459 L122.27368,-111.72894 L123.28421,-107.879654 L124.29474,-103.40482 L125.30526,-90.28325 L126.31579,-85.54712 L127.32632,-74.21132 L128.33684,-70.07191 L129.34737,-60.283627 L130.3579,-72.69403 L131.36842,-69.71683 L132.37895,-66.02687 L133.38948,-54.62215 L134.4,-56.48354 L135.41052,-53.10644 L136.42105,-51.077526 L137.43158,-44.19915 L138.44211,-41.040024 L139.45264,-43.249153 L140.46317,-43.216434 L141.47368,-46.218395 L142.4842,-39.825935 L143.49474,-31.04131 L144.50526,-29.197966 L145.5158,-37.64365 L146.52632,-32.108665 L147.53683,-29.148115 L148.54736,-46.693012 L149.55789,-37.22168 L150.56842,-55.98016 L151.57895,-57.70575 L152.58948,-51.175022 L153.6,-48.328773 L154.61052,-42.735744 L155.62105,-39.722958 L156.63158,-46.105675 L157.6421,-41.745426 L158.65263,-54.99918 L159.66316,-74.00085 L160.67369,-64.83014 L161.6842,-58.597446 L162.69473,-57.029896 L163.70526,-60.67145 L164.71579,-53.844154 L165.72632,-57.80428 L166.73685,-57.32652 L167.74738,-64.980286 L168.75789,-78.94196 L169.76842,-99.59123 L170.77895,-111.10229 L171.78947,-104.284256 L172.8,-93.09568 L173.81053,-105.25629 L174.82106,-108.11708 L175.83157,-101.597565 L176.8421,-98.76141 L177.85263,-99.24029 L178.86316,-91.58752 L179.87369,-88.7419 L180.88422,-76.07615 L181.89473,-71.75026 L182.90526,-62.80461 L183.91579,-57.784935 L184.92632,-52.25676 L185.93684,-45.260464 L186.94737,-45.02661 L187.9579,-41.784737 L188.96841,-41.89846 L189.97894,-47.053158 L190.98947,-46.640038 L192,-49.299637 L193.01053,-41.58858 L194.02106,-35.6591 L195.03159,-31.333038 L196.0421,-26.429113 L197.05263,-19.99464 L198.06316,-17.235025 L199.07368,-16.772308 L200.08421,-22.418682 L201.09474,-20.427132 L202.10527,-13.582388 L203.11578,-14.495405 L204.12631,-17.33806 L205.13684,-15.854571 L206.14737,-13.508962 L207.1579,-17.460732 L208.16843,-15.964975 L209.17894,-10.576917 L210.18947,-22.905647 L211.2,-24.907278 L212.21053,-19.635458 L213.22105,-29.037395 L214.23158,-39.520077 L215.24211,-42.891674 L216.25262,-65.12503 L217.26315,-71.99895 L218.27368,-71.11219 L219.28421,-66.272224 L220.29474,-81.11518 L221.30527,-75.27492 L222.3158,-79.11291 L223.32631,-71.451935 L224.33684,-63.54659 L225.34737,-58.452717 L226.3579,-56.899643 L227.36842,-48.428585 L228.37895,-53.94074 L229.38948,-62.943558 L230.4,-79.12985 L231.41052,-76.51953 L232.42105,-85.28541 L233.43158,-80.03859 L234.44211,-80.368805 L235.45264,-85.718346 L236.46317,-75.37589 L237.47368,-69.09909 L238.4842,-57.38715 L239.49474,-51.89875 L240.50526,-51.001072 L241.5158,-49.18269 L242.52632,-49.567085 L243.53683,-51.933983 L244.54736,-53.05372 L245.55789,-47.998665 L246.56842,-38.396767 L247.57895,-33.796936 L248.58948,-28.646622 L249.6,-21.990398 L250.61052,-17.010267 L251.62105,-33.74801 L252.63158,-36.686344 L253.6421,-32.257557 L254.65263,-28.271648 L255.66316,-30.747149 L256.67368,-55.20543 L257.6842,-49.935204 L258.69473,-59.338573 L259.70526,-55.675972 L260.7158,-49.348225 L261.72632,-45.674187 L262.73685,-46.409435 L263.74738,-66.27008 L264.7579,-53.83057 L265.76843,-48.69783 L266.77896,-46.099304 L267.78946,-67.00143 L268.8,-62.57254 L269.81052,-93.95298 L270.82104,-97.9441 L271.83157,-97.49423 L272.8421,-91.026535 L273.85263,-79.14279 L274.86316,-83.60446 L275.8737,-93.682785 L276.88422,-83.55436 L277.89474,-75.44924 L278.90527,-68.15463 L279.9158,-67.652306 L280.92633,-68.21068 L281.93683,-71.74462 L282.94736,-61.789066 L283.9579,-60.912827 L284.9684,-55.07186 L285.97894,-55.877808 L286.98947,-73.78114 L288,-72.71616 L289.01053,-59.63205 L290.02106,-57.96104 L291.0316,-58.47807 L292.0421,-50.859642 L293.05264,-56.12869 L294.06317,-51.776608 L295.07367,-66.04819 L296.0842,-62.725094 L297.09473,-58.72384 L298.10526,-67.248344 L299.11578,-65.82618 L300.1263,-55.452 L301.13684,-60.26181 L302.14737,-65.60111 L303.1579,-79.50071 L304.16843,-83.92659 L305.17896,-80.83659 L306.18948,-83.10795 L307.2,-97.2778 L308.21054,-94.87363 L309.22104,-101.80409 L310.23157,-90.86353 L311.2421,-86.069374 L312.25262,-71.64993 L313.26315,-74.83996 L314.27368,-97.920364 L315.2842,-93.43099 L316.29474,-85.34868 L317.30527,-78.0746 L318.3158,-68.49651 L319.32632,-57.855305 L320.33685,-58.382908 L321.34738,-55.826344 L322.35788,-47.462616 L323.3684,-47.008553 L324.37894,-46.59989 L325.38947,-41.17975 L326.4,-34.280685 L327.41052,-31.102932 L328.42105,-32.284836 L329.43158,-31.327608 L330.4421,-24.403286 L331.45264,-28.276093 L332.46317,-19.635983 L333.4737,-14.891294 L334.48422,-8.600134 L335.49475,-10.011376 L336.50525,-10.271026 L337.51578,-8.483771 L338.5263,-6.8752418 L339.53683,-17.5532 L340.54736,-30.19477 L341.5579,-28.43608 L342.56842,-37.968426 L343.57895,-30.38002 L344.58948,-29.613276 L345.6,-22.860386 L346.61053,-30.929361 L347.62106,-29.097212 L348.6316,-34.521564 L349.64212,-31.319725 L350.65262,-24.39619 L351.66315,-19.175482 L352.67368,-18.51872 L353.6842,-34.095146 L354.69473,-28.91501 L355.70526,-32.336643 L356.7158,-26.321888 L357.72632,-21.919077 L358.73685,-23.008896 L359.74738,-20.958324 L360.7579,-24.165155 L361.76843,-30.082714 L362.77896,-22.272413 L363.78946,-14.232671 L364.8,-11.038782 L365.81052,-17.258509 L366.82104,-18.814383 L367.83157,-27.287958 L368.8421,-22.78854 L369.85263,-32.88564 L370.86316,-40.962555 L371.8737,-44.189903 L372.88422,-36.989822 L373.89474,-40.614445 L374.90527,-43.876606 L375.9158,-40.74973 L376.92633,-35.914604 L377.93683,-34.594402 L378.94736,-27.343401 L379.9579,-24.859377 L380.9684,-19.592348 L381.97894,-13.841553 L382.98947,-12.707715 L384,-7.6453824 L385.01053,-5.1102223 L386.02106,-4.8495173 L387.0316,-7.6462917 L388.0421,-3.0901015 L389.05264,-0 L390.06317,-4.2921953 L391.07367,-9.165641 L392.0842,-3.4470463 L393.09473,-17.499233 L394.10526,-15.999627 L395.11578,-18.69186 L396.1263,-34.250973 L397.13684,-66.44263 L398.14737,-64.09056 L399.1579,-92.28779 L400.16843,-83.309326 L401.17896,-75.22871 L402.18948,-61.893337 L403.2,-66.05901 L404.21054,-66.77672 L405.22104,-81.56922 L406.23157,-68.610275 L407.2421,-63.010033 L408.25262,-55.948875 L409.26315,-48.583366 L410.27368,-52.059105 L411.2842,-54.176796 L412.29474,-51.030373 L413.30527,-41.125305 L414.3158,-41.30497 L415.32632,-50.560894 L416.33685,-47.776062 L417.34738,-50.32206 L418.35788,-42.508762 L419.3684,-55.686188 L420.37894,-47.336475 L421.38947,-79.23005 L422.4,-102.88192 L423.41052,-108.00108 L424.42105,-119.681625 L425.43158,-136.25693 L426.4421,-160.26892 L427.45264,-167.73315 L428.46317,-188.59752 L429.4737,-191.20795 L430.48422,-204.6725 L431.49475,-197.59167 L432.50525,-215.4702 L433.51578,-217.41429 L434.5263,-195.92317 L435.53683,-203.86386 L436.54736,-186.7592 L437.5579,-172.37547 L438.56842,-165.49294 L439.57895,-178.49757 L440.58948,-162.91908 L441.6,-167.08688 L442.61053,-145.57616 L443.62106,-139.35262 L444.6316,-138.80377 L445.64212,-147.40405 L446.65262,-159.18617 L447.66315,-176.86336 L448.67368,-154.375 L449.6842,-176.57518 L450.69473,-196.55536 L451.70526,-214.5375 L452.7158,-230.72145 L453.72632,-245.287 L454.73685,-258.396 L455.74738,-234.82765 L456.7579,-248.98257 L457.76843,-243.53355 L458.77896,-256.8179 L459.78946,-268.7738 L460.8,-279.5341 L461.81052,-254.86241 L462.82104,-224.57414 L463.83157,-221.56596 L464.8421,-198.64922 L465.85263,-202.27542 L466.86316,-180.27725 L467.8737,-161.48938 L468.88422,-168.83156 L469.89474,-148.15683 L470.90527,-133.59148 L471.9158,-125.53499 L472.92633,-122.326035 L473.93683,-147.73112 L474.94736,-146.34444 L475.9579,-169.34767 L476.9684,-165.79933 L477.97894,-167.65817 L478.98947,-161.24736 L480,-140.3206" fill="none" stroke="black" stroke-linejoin="round" stroke-width="2"/>
</g>
</g>
<g>
<g>
<line stroke="black" stroke-width="1" x1="0" x2="0" y1="0" y2="10"/>
<line stroke="black" stroke-width="1" x1="101.05263157894737" x2="101.05263157894737" y1="0" y2="10"/>
<line stroke="black" stroke-width="1" x1="202.10526315789474" x2="202.10526315789474" y1="0" y2="10"/>
<line stroke="black" stroke-width="1" x1="303.1578947368421" x2="303.1578947368421" y1="0" y2="10"/>
<line stroke="black" stroke-width="1" x1="404.2105263157895" x2="404.2105263157895" y1="0" y2="10"/>
</g>
<line stroke="black" stroke-width="1" x1="0" x2="480" y1="0" y2="0"/>
<g>
<text font-size="12" text-anchor="middle" x="0" y="20">
0
</text>
<text font-size="12" text-anchor="middle" x="101.05263157894737" y="20">
100
</text>
<text font-size="12" text-anchor="middle" x="202.10526315789474" y="20">
200
</text>
<text font-size="12" text-anchor="middle" x="303.1578947368421" y="20">
300
</text>
<text font-size="12" text-anchor="middle" x="404.2105263157895" y="20">
400
</text>
</g>
<text font-size="12" text-anchor="middle" x="240" y="30">

</text>
</g>
<g>
<g>
<line stroke="black" stroke-width="1" x1="0" x2="-10" y1="-0.00003769614046203956" y2="-0.00003769614046203956"/>
<line stroke="black" stroke-width="1" x1="0" x2="-10" y1="-101.04699193371121" y2="-101.04699193371121"/>
<line stroke="black" stroke-width="1" x1="0" x2="-10" y1="-202.093946171282" y2="-202.093946171282"/>
<line stroke="black" stroke-width="1" x1="0" x2="-10" y1="-303.14090040885276" y2="-303.14090040885276"/>
</g>
<line stroke="black" stroke-width="1" x1="0" x2="0" y1="0" y2="-340"/>
<g>
<text dominant-baseline="middle" font-size="12" text-anchor="end" x="-15" y="-0.00003769614046203956">
13.75228
</text>
<text dominant-baseline="middle" font-size="12" text-anchor="end" x="-15" y="-101.04699193371121">
23.75228
</text>
<text dominant-baseline="middle" font-size="12" text-anchor="end" x="-15" y="-202.093946171282">
33.75228
</text>
<text dominant-baseline="middle" font-size="12" text-anchor="end" x="-15" y="-303.14090040885276">
43.75228
</text>
</g>
<text font-size="12" text-anchor="middle" transform="rotate(-90 -96 -170)" x="-96" y="-182">

</text>
</g>
</g>
</svg>