<svg viewBox="0 0 600 400" xmlns="http://www.w3.org/2000/svg">
<g transform="translate(72, 364)">
<g>
<g>
<path d="M0,-89.23893 L0,-89.23893 L0.53571427,-73.147385 L1.0714285,-70.15895 L1.6071428,-61.72238 L2.142857,-77.1174 L2.6785715,-62.238003 L3.2142856,-48.846546 L3.75,-36.794235 L4.285714,-25.947155 L4.821429,-39.17271 L5.357143,-28.087784 L5.892857,-41.099277 L6.428571,-35.568676 L6.964286,-30.591133 L7.5,-23.237854 L8.035714,-25.240376 L8.571428,-21.295664 L9.107142,-23.492405 L9.642858,-31.216455 L10.178572,-20.927153 L10.714286,-11.66678 L11.25,-3.332446 L11.785714,-1.5785272 L12.321428,-0 L12.857142,-15.8202715 L13.392858,-35.8055 L13.928572,-71.03315 L14.464286,-79.75011 L15,-81.84839 L15.535714,-83.73684 L16.071428,-91.183426 L16.607143,-97.88535 L17.142857,-86.67615 L17.678572,-99.57578 L18.214285,-82.45055 L18.75,-90.025764 L19.285715,-73.85553 L19.821428,-65.0493 L20.357143,-68.61766 L20.892857,-77.57617 L21.428572,-111.500244 L21.964285,-98.92954 L22.5,-130.71828 L23.035715,-150.70767 L23.571428,-139.96321 L24.107143,-164.77509 L24.642857,-169.86484 L25.178572,-157.20467 L25.714285,-140.06352 L26.25,-164.86537 L26.785715,-158.45212 L27.321428,-164.17416 L27.857143,-175.07098 L28.392857,-150.39622 L28.928572,-156.92386 L29.464285,-139.81079 L30,-147.39697 L30.535715,-174.33897 L31.071428,-198.58676 L31.607143,-220.40977 L32.142857,-240.05049 L32.67857,-257.72714 L33.214287,-273.6361 L33.75,-287.9542 L34.285713,-300.84045 L34.82143,-312.4381 L35.357143,-314.25552 L35.892857,-281.4093 L36.42857,-246.10071 L36.964287,-231.56392 L37.5,-201.23987 L38.035713,-179.6952 L38.57143,-160.30502 L39.107143,-165.84177 L39.642857,-142.08994 L40.17857,-120.71329 L40.714287,-118.71525 L41.25,-128.41098 L41.785713,-114.1492 L42.32143,-95.56663 L42.857143,-78.84231 L43.392857,-86.77835 L43.92857,-70.93285 L44.464287,-73.912865 L45,-93.83581 L45.535713,-83.031555 L46.07143,-84.80169 L46.607143,-109.38274 L47.142857,-140.12616 L47.67857,-167.79523 L48.214287,-189.82391 L48.75,-169.42084 L49.285713,-168.29903 L49.82143,-178.78337 L50.357143,-153.73737 L50.892857,-136.94296 L51.42857,-116.08101 L51.964287,-103.05223 L52.5,-134.4287 L53.035713,-119.565155 L53.57143,-106.187965 L54.107143,-88.40151 L54.642857,-89.63465 L55.17857,-79.25051 L55.714287,-113.00715 L56.25,-143.38812 L56.785713,-127.62864 L57.32143,-153.67398 L57.857143,-171.3678 L58.392857,-170.05128 L58.92857,-157.37247 L59.464287,-154.582 L60,-160.69106 L60.535713,-183.43015 L61.07143,-175.16043 L61.607143,-199.32608 L62.142857,-172.22581 L62.67857,-159.32954 L63.214287,-185.07828 L63.75,-208.25214 L64.28571,-180.25926 L64.82143,-183.8006 L65.35714,-158.25288 L65.89286,-146.75389 L66.42857,-130.65784 L66.96429,-110.42439 L67.5,-97.96128 L68.03571,-80.9975 L68.57143,-88.71802 L69.10714,-112.90743 L69.64286,-143.29839 L70.17857,-136.16835 L70.71429,-121.13084 L71.25,-144.95245 L71.78571,-172.1389 L72.32143,-170.74529 L72.85714,-192.47896 L73.39286,-166.0634 L73.92857,-148.03639 L74.46429,-174.91444 L75,-196.2312 L75.53571,-186.68137 L76.07143,-172.33954 L76.60714,-147.93793 L77.14286,-148.9644 L77.67857,-167.12918 L78.21429,-183.47748 L78.75,-180.95001 L79.28571,-178.67528 L79.82143,-159.38707 L80.35714,-185.13007 L80.89286,-208.29875 L81.42857,-229.15056 L81.96429,-247.91719 L82.5,-261.9337 L83.03571,-228.57265 L83.57143,-204.29471 L84.10714,-188.19154 L84.64286,-167.95172 L85.17857,-161.22984 L85.71429,-186.78854 L86.25,-172.436 L86.78571,-153.77173 L87.32143,-131.2269 L87.85714,-122.43051 L88.39286,-151.86916 L88.92857,-178.36392 L89.46429,-182.09479 L90,-162.46463 L90.53571,-139.05052 L91.07143,-117.977806 L91.60714,-122.0003 L92.14286,-148.60847 L92.67857,-132.32695 L93.21429,-117.67358 L93.75,-121.726494 L94.28571,-108.13317 L94.82143,-130.38107 L95.35714,-115.92229 L95.89286,-137.39128 L96.42857,-150.96638 L96.96429,-145.94304 L97.5,-129.92805 L98.03571,-115.51458 L98.57143,-125.53037 L99.10714,-123.05063 L99.64286,-149.55377 L100.17857,-156.16565 L100.71429,-167.86331 L101.25,-155.40329 L101.78571,-155.68323 L102.32143,-181.7966 L102.85714,-162.19627 L103.39286,-167.5439 L103.92857,-143.62184 L104.46429,-122.092 L105,-119.95609 L105.53571,-118.033775 L106.07143,-127.79765 L106.60714,-130.83817 L107.14286,-116.33367 L107.67857,-132.01454 L108.21429,-140.38034 L108.75,-124.92163 L109.28571,-111.00879 L109.82143,-92.74026 L110.35714,-125.14792 L110.89286,-154.31482 L111.42857,-180.56503 L111.96429,-158.21436 L112.5,-184.07462 L113.03571,-158.4995 L113.57143,-141.22888 L114.10714,-125.68531 L114.64286,-105.94913 L115.17857,-111.174484 L115.71429,-110.130325 L116.25,-91.94964 L116.78571,-98.57494 L117.32143,-81.5498 L117.85714,-66.22716 L118.39286,-52.436787 L118.92857,-40.02545 L119.46429,-34.60223 L120,-41.215298 L120.53571,-41.420074 L121.07143,-78.95976 L121.60714,-69.64311 L122.14286,-72.75209 L122.67857,-58.309223 L123.21429,-74.045555 L123.75,-108.32269 L124.28571,-124.80466 L124.82143,-110.90352 L125.35714,-132.87439 L125.89286,-123.91325 L126.42857,-121.595215 L126.96429,-108.01502 L127.5,-130.27473 L128.03572,-115.82659 L128.57143,-108.57024 L129.10715,-102.03952 L129.64285,-113.402824 L130.17857,-112.13583 L130.71428,-116.74252 L131.25,-109.39458 L131.78572,-108.528404 L132.32143,-102.00188 L132.85715,-84.63403 L133.39285,-117.85232 L133.92857,-147.74878 L134.46428,-131.55322 L135,-111.23025 L135.53572,-141.78891 L136.07143,-169.29172 L136.60715,-194.04424 L137.14285,-181.83961 L137.67857,-205.33734 L138.21428,-200.62387 L138.75,-213.62271 L139.28572,-213.8277 L139.82143,-196.77122 L140.35715,-169.92645 L140.89285,-163.0071 L141.42857,-139.53873 L141.96428,-124.164185 L142.5,-127.56803 L143.03572,-124.88452 L143.57143,-154.07776 L144.10715,-163.11073 L144.64285,-188.48135 L145.17857,-211.31491 L145.71428,-231.86511 L146.25,-250.36029 L146.78572,-218.1566 L147.32143,-189.17328 L147.85715,-168.83528 L148.39285,-150.53108 L148.92857,-128.31032 L149.46428,-119.80559 L150,-112.15134 L150.53572,-111.0095 L151.07143,-141.59024 L151.60715,-169.1129 L152.14285,-145.03395 L152.67857,-140.60385 L153.21428,-119.37581 L153.75,-100.27057 L154.28572,-100.3168 L154.82143,-100.35841 L155.35715,-100.39586 L155.89285,-94.68259 L156.42857,-78.04667 L156.96428,-68.82133 L157.5,-60.51852 L158.03572,-58.792976 L158.57143,-62.98697 L159.10715,-55.267597 L159.64285,-42.57318 L160.17857,-54.136135 L160.71428,-47.301846 L161.25,-41.150986 L161.78572,-35.615215 L162.32143,-70.86189 L162.85715,-62.35503 L163.39285,-66.19282 L163.92857,-101.255226 L164.46428,-129.9379 L165,-115.52344 L165.53572,-119.79137 L166.07143,-117.88552 L166.60715,-104.67629 L167.14285,-98.53497 L167.67857,-104.50175 L168.21428,-127.11279 L168.75,-130.22179 L169.28572,-133.01988 L169.82143,-112.55023 L170.35715,-99.874535 L170.89285,-94.21339 L171.42857,-77.62439 L171.96428,-111.54365 L172.5,-142.07097 L173.03572,-166.67207 L173.57143,-142.8372 L174.10715,-132.87979 L174.64285,-112.424164 L175.17857,-142.86343 L175.71428,-127.15642 L176.25,-118.76708 L176.78572,-105.4697 L177.32143,-99.24904 L177.85715,-93.650444 L178.39285,-77.117744 L178.92857,-62.23831 L179.46428,-83.32871 L180,-102.31008 L180.53572,-102.15236 L181.07143,-130.74533 L181.60715,-159.35248 L182.14285,-185.09892 L182.67857,-159.42137 L183.21428,-185.16093 L183.75,-208.32652 L184.28572,-229.17557 L184.82143,-247.9397 L185.35715,-264.82742 L185.89285,-236.92401 L186.42857,-206.06395 L186.96428,-189.78386 L187.5,-163.63782 L188.03572,-145.85336 L188.57143,-158.58226 L189.10715,-141.30336 L189.64285,-148.74028 L190.17857,-132.44557 L190.71428,-117.78034 L191.25,-116.0756 L191.78572,-97.300385 L192.32143,-126.37855 L192.85715,-118.067 L193.39285,-99.09264 L193.92857,-82.015724 L194.46428,-101.12839 L195,-89.59487 L195.53572,-84.96169 L196.07143,-75.044846 L196.60715,-60.372707 L197.14285,-75.90269 L197.67857,-72.63873 L198.21428,-75.44814 L198.75,-72.22964 L199.28572,-57.83902 L199.82143,-67.87539 L200.35715,-53.920193 L200.89285,-64.34844 L201.42857,-99.59529 L201.96428,-131.31746 L202.5,-159.8674 L203.03572,-185.56235 L203.57143,-168.45894 L204.10715,-150.19237 L204.64285,-150.9934 L205.17857,-163.2083 L205.71428,-151.21378 L206.25,-140.4187 L206.78572,-119.209175 L207.32143,-111.61457 L207.85715,-116.273384 L208.39285,-146.32773 L208.92857,-173.37665 L209.46428,-189.1002 L210,-168.76952 L210.53572,-147.59839 L211.07143,-125.6709 L211.60715,-105.93615 L212.14285,-99.668846 L212.67857,-99.77525 L213.21428,-94.12403 L213.75,-83.290955 L214.28572,-67.794205 L214.82143,-76.83505 L215.35715,-67.73087 L215.89285,-71.031075 L216.42857,-62.507294 L216.96428,-66.32986 L217.5,-64.02318 L218.03572,-67.69415 L218.57143,-70.998024 L219.10715,-56.730564 L219.64285,-55.383816 L220.17857,-71.41269 L220.71428,-74.34471 L221.25,-99.97146 L221.78572,-82.806656 L222.32143,-78.852295 L222.85715,-98.2813 L223.39285,-98.52646 L223.92857,-81.50616 L224.46428,-89.17581 L225,-101.825485 L225.53572,-130.45114 L226.07143,-156.21422 L226.60715,-133.42514 L227.14285,-141.64989 L227.67857,-169.1666 L228.21428,-193.93163 L228.75,-216.22015 L229.28572,-207.54492 L229.82143,-228.47212 L230.35715,-247.3066 L230.89285,-215.40828 L231.42857,-192.44678 L231.96428,-194.76935 L232.5,-191.11269 L233.03572,-170.58075 L233.57143,-146.35501 L234.10715,-141.7928 L234.64285,-120.44587 L235.17857,-129.96854 L235.71428,-109.80402 L236.25,-103.14993 L236.78572,-120.14917 L237.32143,-149.81595 L237.85715,-147.78113 L238.39285,-131.58235 L238.92857,-134.24438 L239.46428,-162.50163 L240,-144.8308 L240.53572,-172.0294 L241.07143,-196.50816 L241.60715,-218.53903 L242.14285,-238.36682 L242.67857,-256.21182 L243.21428,-272.27234 L243.75,-286.7268 L244.28572,-299.7358 L244.82143,-311.4439 L245.35715,-321.98123 L245.89285,-331.46478 L246.42857,-340 L246.96428,-313.1998 L247.5,-320.68802 L248.03572,-281.45157 L248.57143,-246.13875 L249.10715,-225.85118 L249.64285,-230.58029 L250.17857,-206.1016 L250.71428,-178.32378 L251.25,-164.8177 L251.78572,-141.16827 L252.32143,-119.8838 L252.85715,-106.47474 L253.39285,-94.40659 L253.92857,-77.79828 L254.46428,-74.34476 L255,-65.48961 L255.53572,-80.507904 L256.07144,-114.1388 L256.60715,-124.292175 L257.14285,-153.54465 L257.67856,-179.87187 L258.2143,-203.56638 L258.75,-181.78906 L259.2857,-205.29185 L259.82144,-189.08897 L260.35715,-211.86177 L260.89285,-232.35728 L261.42856,-224.94183 L261.9643,-201.02696 L262.5,-179.5036 L263.0357,-165.87955 L263.57144,-147.87091 L264.10715,-137.41013 L264.64285,-116.501465 L265.17856,-97.68366 L265.7143,-80.747635 L266.25,-65.50522 L266.7857,-51.78704 L267.32144,-39.440678 L267.85715,-28.328955 L268.39285,-18.328402 L268.92856,-26.568851 L269.4643,-33.985256 L270,-29.166056 L270.5357,-42.06972 L271.07144,-30.695093 L271.60715,-37.698875 L272.14285,-26.76133 L272.67856,-28.411505 L273.2143,-41.390625 L273.75,-53.071835 L274.2857,-63.584923 L274.82144,-50.058773 L275.35715,-86.73459 L275.89285,-119.74282 L276.42856,-149.45023 L276.9643,-144.57849 L277.5,-122.95299 L278.0357,-120.73098 L278.57144,-124.47816 L279.10715,-104.862686 L279.64285,-87.208755 L280.17856,-82.81419 L280.7143,-84.606064 L281.25,-68.9778 L281.7857,-66.40633 L282.32144,-98.57389 L282.85715,-87.29583 L283.39285,-77.14557 L283.92856,-62.26336 L284.4643,-54.61635 L285,-41.987057 L285.5357,-53.608624 L286.07144,-52.57407 L286.60715,-45.89599 L287.14285,-62.873642 L287.67856,-49.41862 L288.2143,-45.929577 L288.75,-34.16896 L289.2857,-23.58441 L289.82144,-42.79322 L290.35715,-37.093227 L290.89285,-49.204174 L291.42856,-42.863083 L291.9643,-54.397045 L292.5,-41.789684 L293.0357,-41.937023 L293.57144,-36.322647 L294.10715,-31.269709 L294.64285,-69.82443 L295.17856,-104.523674 L295.7143,-98.39761 L296.25,-87.137184 L296.7857,-88.49675 L297.32144,-72.47942 L297.85715,-63.810802 L298.39285,-50.262066 L298.92856,-43.815186 L299.4643,-49.506958 L300,-60.376534 L300.5357,-47.171223 L301.07144,-41.03343 L301.60715,-64.24432 L302.14285,-56.39921 L302.67856,-60.83258 L303.2143,-93.557526 L303.75,-117.26299 L304.2857,-132.85092 L304.82144,-129.63913 L305.35715,-126.748505 L305.89285,-135.6409 L306.42856,-132.1501 L306.9643,-117.51442 L307.5,-110.08929 L308.0357,-132.14157 L308.57144,-140.49467 L309.10715,-153.75945 L309.64285,-180.06519 L310.17856,-163.51149 L310.7143,-188.84203 L311.25,-191.52509 L311.7857,-170.9519 L312.32144,-192.6649 L312.85715,-177.72473 L313.39285,-158.53157 L313.92856,-141.25775 L314.4643,-142.95224 L315,-138.7303 L315.5357,-129.18358 L316.07144,-132.0855 L316.60715,-140.4442 L317.14285,-124.97911 L317.67856,-111.060524 L318.2143,-92.78681 L318.75,-125.18983 L319.2857,-154.35254 L319.82144,-180.59897 L320.35715,-204.22076 L320.89285,-225.48038 L321.42856,-195.76468 L321.9643,-209.24944 L322.5,-230.00618 L323.0357,-199.8379 L323.57144,-178.43344 L324.10715,-153.42244 L324.64285,-148.15349 L325.17856,-131.91747 L325.7143,-128.79901 L326.25,-120.245415 L326.7857,-101.053215 L327.32144,-95.2742 L327.85715,-78.579124 L328.39285,-63.55356 L328.92856,-50.030544 L329.4643,-86.70918 L330,-119.719955 L330.5357,-149.42966 L331.07144,-127.31903 L331.60715,-156.26881 L332.14285,-159.3357 L332.67856,-185.08382 L333.2143,-165.15477 L333.75,-141.47163 L334.2857,-120.156815 L334.82144,-112.46744 L335.35715,-142.90239 L335.89285,-127.191475 L336.42856,-118.79863 L336.9643,-116.99206 L337.5,-98.1252 L338.0357,-86.892006 L338.57144,-82.529106 L339.10715,-84.34949 L339.64285,-74.493866 L340.17856,-77.11777 L340.7143,-67.98531 L341.25,-59.76611 L341.7857,-52.368824 L342.32144,-80.19316 L342.85715,-82.24713 L343.39285,-101.336655 L343.92856,-89.78232 L344.4643,-85.130394 L345,-80.943665 L345.5357,-88.66956 L346.07144,-121.4843 L346.60715,-151.01756 L347.14285,-177.5975 L347.67856,-201.51944 L348.2143,-177.07333 L348.75,-186.68024 L349.2857,-166.59154 L349.82144,-154.25868 L350.35715,-137.41214 L350.89285,-116.50327 L351.42856,-114.92624 L351.9643,-102.01294 L352.5,-96.137955 L353.0357,-79.3565 L353.57144,-70.000175 L354.10715,-55.8325 L354.64285,-48.82858 L355.17856,-59.76599 L355.7143,-69.609665 L356.25,-104.33039 L356.7857,-135.57904 L357.32144,-120.600464 L357.85715,-107.11974 L358.39285,-89.24011 L358.92856,-84.64241 L359.4643,-74.75749 L360,-100.342964 L360.5357,-88.88799 L361.07144,-78.578514 L361.60715,-112.40236 L362.14285,-93.99446 L362.67856,-126.27671 L363.2143,-117.97535 L363.75,-110.50412 L364.2857,-103.780014 L364.82144,-97.728325 L365.35715,-92.2818 L365.89285,-110.36785 L366.42856,-103.65738 L366.9643,-103.36493 L367.5,-134.71013 L368.0357,-162.9208 L368.57144,-188.31041 L369.10715,-211.16107 L369.64285,-217.35919 L370.17856,-222.93752 L370.7143,-193.4761 L371.25,-166.96083 L371.7857,-157.46455 L372.32144,-134.55045 L372.85715,-125.42171 L373.39285,-105.711876 L373.92856,-128.2019 L374.4643,-119.70802 L375,-117.81051 L375.5357,-110.35577 L376.07144,-97.89951 L376.60715,-80.94191 L377.14285,-114.52941 L377.67856,-107.40278 L378.2143,-123.97673 L378.75,-150.38727 L379.2857,-133.92786 L379.82144,-142.10233 L380.35715,-143.71237 L380.89285,-127.920456 L381.42856,-125.2017 L381.9643,-154.36322 L382.5,-174.8616 L383.0357,-190.43666 L383.57144,-181.4663 L384.10715,-167.64597 L384.64285,-149.4607 L385.17856,-176.19632 L385.7143,-200.25838 L386.25,-213.29376 L386.7857,-190.5437 L387.32144,-204.55055 L387.85715,-182.67482 L388.39285,-174.48064 L388.92856,-149.86491 L389.4643,-133.45775 L390,-118.6913 L390.5357,-148.50386 L391.07144,-126.48582 L391.60715,-106.66958 L392.14285,-94.58195 L392.67856,-106.691 L393.2143,-100.34821 L393.75,-83.14574 L394.2857,-84.90445 L394.82144,-92.234276 L395.35715,-104.5781 L395.89285,-135.80199 L396.42856,-163.90347 L396.9643,-189.19482 L397.5,-194.71608 L398.0357,-216.92616 L398.57144,-234.04175 L399.10715,-203.46992 L399.64285,-181.70226 L400.17856,-162.11136 L400.7143,-138.73256 L401.25,-123.43863 L401.7857,-109.674095 L402.32144,-103.03299 L402.85715,-97.056 L403.39285,-91.676704 L403.92856,-86.83534 L404.4643,-88.2251 L405,-95.22286 L405.5357,-90.026886 L406.07144,-85.3505 L406.60715,-104.129684 L407.14285,-98.04303 L407.67856,-81.07107 L408.2143,-77.29027 L408.75,-102.62246 L409.2857,-134.0419 L409.82144,-145.07846 L410.35715,-172.2523 L410.89285,-196.70877 L411.42856,-215.84608 L411.9643,-198.58778 L412.5,-188.80229 L413.0357,-168.50139 L413.57144,-144.4836 L414.10715,-128.61456 L414.64285,-108.58545 L415.17856,-90.55925 L415.7143,-85.829636 L416.25,-75.826 L416.7857,-72.5697 L417.32144,-106.99442 L417.85715,-117.862236 L418.39285,-147.7577 L418.92856,-174.66362 L419.4643,-196.00546 L420,-218.08661 L420.5357,-200.60425 L421.07144,-222.22552 L421.60715,-241.68466 L422.14285,-259.19788 L422.67856,-274.95978 L423.2143,-263.2841 L423.75,-258.52292 L424.2857,-254.23788 L424.82144,-270.4958 L425.35715,-285.1279 L425.89285,-249.44745 L426.42856,-251.81694 L426.9643,-236.70854 L427.5,-240.35193 L428.0357,-209.14908 L428.57144,-215.5484 L429.10715,-235.67525 L429.64285,-222.18102 L430.17856,-192.79526 L430.7143,-212.32393 L431.25,-189.67087 L431.7857,-209.51198 L432.32144,-192.88708 L432.85715,-215.28008 L433.39285,-235.43376 L433.92856,-253.57207 L434.4643,-269.89655 L435,-252.9802 L435.5357,-220.51451 L436.07144,-191.29541 L436.60715,-164.99821 L437.14285,-147.07771 L437.67856,-136.69624 L438.2143,-127.352936 L438.75,-156.29933 L439.2857,-182.35109 L439.82144,-202.92418 L440.35715,-175.46411 L440.89285,-156.49702 L441.42856,-133.67966 L441.9643,-118.89102 L442.5,-111.328224 L443.0357,-93.02775 L443.57144,-93.79826 L444.10715,-94.49173 L444.64285,-77.87489 L445.17856,-97.40164 L445.7143,-103.48175 L446.25,-85.96592 L446.7857,-98.936584 L447.32144,-87.622246 L447.85715,-77.43935 L448.39285,-68.27474 L448.92856,-103.12896 L449.4643,-134.49776 L450,-162.72968 L450.5357,-188.1384 L451.07144,-211.00624 L451.60715,-231.58731 L452.14285,-250.11028 L452.67856,-266.78094 L453.2143,-281.78455 L453.75,-246.43843 L454.2857,-231.86787 L454.82144,-207.2604 L455.35715,-179.36671 L455.89285,-188.74428 L456.42856,-202.93106 L456.9643,-204.20522 L457.5,-193.85799 L458.0357,-196.03944 L458.57144,-175.01482 L459.10715,-167.58662 L459.64285,-149.40729 L460.17856,-167.52779 L460.7143,-155.1013 L461.25,-149.66447 L461.7857,-150.5183 L462.32144,-128.29881 L462.85715,-142.78316 L463.39285,-150.0721 L463.92856,-127.89723 L464.4643,-136.67476 L465,-121.58662 L465.5357,-102.26029 L466.07144,-107.85454 L466.60715,-101.39539 L467.14285,-95.58216 L467.67856,-127.705635 L468.2143,-156.61676 L468.75,-182.63678 L469.2857,-206.0548 L469.82144,-201.26958 L470.35715,-191.21591 L470.89285,-164.92667 L471.42856,-147.01332 L471.9643,-130.89131 L472.5,-116.381516 L473.0357,-103.322685 L473.57144,-103.063705 L474.10715,-108.57761 L474.64285,-125.03408 L475.17856,-154.21237 L475.7143,-180.47282 L476.25,-155.25789 L476.7857,-132.56444 L477.32144,-112.140335 L477.85715,-142.608 L478.39285,-121.17954 L478.92856,-113.38789 L479.4643,-112.12239 L480,-93.7425" fill="none" stroke="black" stroke-linejoin="round" stroke-width="2"/>
</g>
</g>
<g>
<g>
<line stroke="black" stroke-width="1" x1="0" x2="0" y1="0" y2="10"/>
<line stroke="black" stroke-width="1" x1="107.14285714285714" x2="107.14285714285714" y1="0" y2="10"/>
<line stroke="black" stroke-width="1" x1="214.28571428571428" x2="214.28571428571428" y1="0" y2="10"/>
<line stroke="black" stroke-width="1" x1="321.42857142857144" x2="321.42857142857144" y1="0" y2="10"/>
<line stroke="black" stroke-width="1" x1="428.57142857142856" x2="428.57142857142856" y1="0" y2="10"/>
</g>
<line stroke="black" stroke-width="1" x1="0" x2="480" y1="0" y2="0"/>
<g>
<text font-size="12" text-anchor="middle" x="0" y="20">
0
</text>
<text font-size="12" text-anchor="middle" x="107.14285714285714" y="20">
200
</text>
<text font-size="12" text-anchor="middle" x="214.28571428571428" y="20">
400
</text>
<text font-size="12" text-anchor="middle" x="321.42857142857144" y="20">
600
</text>
<text font-size="12" text-anchor="middle" x="428.57142857142856" y="20">
800
</text>
</g>
<text font-size="12" text-anchor="middle" x="240" y="30">

</text>
</g>
<g>
<g>
<line stroke="black" stroke-width="1" x1="0" x2="-10" y1="-0.00008269904223406759" y2="-0.00008269904223406759"/>
<line stroke="black" stroke-width="1" x1="0" x2="-10" y1="-57.46990361351994" y2="-57.46990361351994"/>
<line stroke="black" stroke-width="1" x1="0" x2="-10" y1="-114.93972452799765" y2="-114.93972452799765"/>
<line stroke="black" stroke-width="1" x1="0" x2="-10" y1="-172.40954544247538" y2="-172.40954544247538"/>
<line stroke="black" stroke-width="1" x1="0" x2="-10" y1="-229.87936635695308" y2="-229.87936635695308"/>
<line stroke="black" stroke-width="1" x1="0" x2="-10" y1="-287.3491872714307" y2="-287.3491872714307"/>
</g>
<line stroke="black" stroke-width="1" x1="0" x2="0" y1="0" y2="-340"/>
<g>
<text dominant-baseline="middle" font-size="12" text-anchor="end" x="-15" y="-0.00008269904223406759">
6.49441
</text>
<text dominant-baseline="middle" font-size="12" text-anchor="end" x="-15" y="-57.46990361351994">
8.49441
</text>
<text dominant-baseline="middle" font-size="12" text-anchor="end" x="-15" y="-114.93972452799765">
10.49441
</text>
<text dominant-baseline="middle" font-size="12" text-anchor="end" x="-15" y="-172.40954544247538">
12.49441
</text>
<text dominant-baseline="middle" font-size="12" text-anchor="end" x="-15" y="-229.87936635695308">
14.49441
</text>
<text dominant-baseline="middle" font-size="12" text-anchor="end" x="-15" y="-287.3491872714307">
16.49441
</text>
</g>
<text font-size="12" text-anchor="middle" transform="rotate(-90 -96 -170)" x="-96" y="-182">

</text>
</g>
</g>
</svg>