<svg viewBox="0 0 600 400" xmlns="http://www.w3.org/2000/svg">
<g transform="translate(72, 364)">
<g>
<g>
<path d="M0,-335.0486 L0,-335.0486 L1.0835215,-340 L2.167043,-299.15625 L3.2505643,-307.69687 L4.334086,-315.38345 L5.4176073,-322.30136 L6.5011287,-296.92282 L7.58465,-261.44028 L8.668172,-273.7525 L9.751693,-284.83353 L10.835215,-294.80643 L11.9187355,-303.78204 L13.002257,-311.86008 L14.085779,-291.73962 L15.1693,-301.0219 L16.252821,-280.9318 L17.336344,-291.29486 L18.419865,-300.62164 L19.503386,-270.03665 L20.586908,-281.48926 L21.67043,-291.79657 L22.75395,-301.07318 L23.837471,-259.90817 L24.920994,-272.3736 L26.004515,-260.41574 L27.088036,-272.83044 L28.171558,-284.00363 L29.25508,-245.59906 L30.3386,-259.49542 L31.422121,-229.86258 L32.505642,-245.33258 L33.589165,-259.25558 L34.672688,-271.7863 L35.756207,-272.52902 L36.83973,-265.82306 L37.923252,-236.61096 L39.00677,-251.40613 L40.090294,-264.72177 L41.173817,-272.49188 L42.257336,-283.69897 L43.34086,-293.7853 L44.424377,-302.86304 L45.5079,-311.033 L46.591423,-318.38596 L47.674942,-288.13153 L48.758465,-297.77463 L49.841988,-306.45343 L50.925507,-281.6062 L52.00903,-262.40414 L53.092552,-274.62 L54.17607,-259.27704 L55.259594,-264.43115 L56.343117,-263.80243 L57.426636,-275.87845 L58.51016,-255.14221 L59.59368,-268.08426 L60.6772,-279.7321 L61.760723,-290.21512 L62.844242,-299.64987 L63.927765,-308.14114 L65.011284,-310.51584 L66.09481,-317.9205 L67.17833,-324.58472 L68.26185,-330.5825 L69.345375,-335.9805 L70.428894,-311.34103 L71.51241,-303.91434 L72.59594,-281.428 L73.67946,-249.60191 L74.76298,-226.22588 L75.846504,-208.34792 L76.93002,-198.57867 L78.01354,-191.89334 L79.09707,-194.30444 L80.18059,-188.04654 L81.26411,-190.84232 L82.34763,-174.39574 L83.43115,-154.32637 L84.51467,-133.10347 L85.5982,-126.64472 L86.68172,-112.40394 L87.765236,-116.443054 L88.848755,-110.59686 L89.93228,-99.01436 L91.0158,-93.857544 L92.09932,-94.48386 L93.182846,-86.61963 L94.266365,-83.755775 L95.349884,-72.750404 L96.43341,-75.48743 L97.51693,-63.201912 L98.60045,-73.214714 L99.683975,-66.42391 L100.767494,-75.06103 L101.85101,-70.19257 L102.93454,-62.650497 L104.01806,-68.50449 L105.10158,-55.863777 L106.185104,-59.235977 L107.26862,-53.84305 L108.35214,-48.989414 L109.43567,-48.835094 L110.51919,-48.69621 L111.60271,-42.25028 L112.68623,-32.23499 L113.76975,-27.435183 L114.85327,-62.094433 L115.9368,-78.53892 L117.02032,-85.96453 L118.103836,-76.84526 L119.18736,-72.85187 L120.27088,-67.15084 L121.3544,-67.28735 L122.43792,-88.47999 L123.52145,-75.94871 L124.604965,-66.77753 L125.688484,-76.43277 L126.77201,-81.96203 L127.85553,-69.02905 L128.93906,-67.924255 L130.02257,-61.6625 L131.1061,-58.133896 L132.18962,-47.583733 L133.27313,-46.516495 L134.35666,-37.12807 L135.44019,-37.1064 L136.5237,-34.979916 L137.60722,-29.905617 L138.69075,-23.23177 L139.77426,-20.385773 L140.85779,-11.503445 L141.94131,-17.2047 L143.02483,-14.9614105 L144.10835,-24.530825 L145.19188,-25.768877 L146.27539,-33.204056 L147.35892,-30.414318 L148.44244,-27.903555 L149.52596,-18.26945 L150.60948,-22.240616 L151.69301,-28.975132 L152.77652,-31.87573 L153.86005,-27.111849 L154.94357,-19.66389 L156.02708,-12.960727 L157.11061,-7.981369 L158.19414,-5.606924 L159.27765,-0.30945793 L160.36118,-14.504532 L161.4447,-19.90568 L162.52821,-28.980665 L163.61174,-20.292337 L164.69527,-27.22168 L165.77878,-28.190647 L166.8623,-32.223183 L167.94583,-24.26409 L169.02934,-27.635794 L170.11287,-31.723814 L171.1964,-29.082102 L172.2799,-36.18596 L173.36343,-45.73989 L174.44695,-40.643085 L175.53047,-40.26991 L176.614,-39.934055 L177.69751,-29.096897 L178.78104,-25.664389 L179.86456,-22.57513 L180.94807,-39.81108 L182.0316,-38.467617 L183.11513,-33.044548 L184.19864,-31.324251 L185.28217,-43.471333 L186.36569,-37.547894 L187.4492,-48.019123 L188.53273,-51.1223 L189.61626,-51.80818 L190.69977,-39.78361 L191.7833,-42.656853 L192.86682,-37.868347 L193.95033,-40.933113 L195.03386,-37.37047 L196.11739,-34.164093 L197.2009,-28.117886 L198.28442,-32.157696 L199.36795,-27.36562 L200.45146,-24.106237 L201.53499,-27.493727 L202.61852,-37.916885 L203.70203,-30.441912 L204.78555,-32.14234 L205.86908,-28.405289 L206.95259,-29.255896 L208.03612,-27.914463 L209.11964,-34.081593 L210.20316,-25.93666 L211.28668,-17.552732 L212.37021,-19.488594 L213.45372,-22.284357 L214.53725,-24.800545 L215.62077,-39.706974 L216.70428,-47.85532 L217.78781,-39.386505 L218.87134,-32.818058 L219.95485,-40.601807 L221.03838,-37.072292 L222.1219,-45.484108 L223.20541,-35.145435 L224.28894,-47.963886 L225.37247,-38.430725 L226.45598,-73.04391 L227.5395,-56.78879 L228.62303,-89.56617 L229.70654,-91.6751 L230.79007,-85.14524 L231.8736,-79.268364 L232.9571,-72.92568 L234.04063,-70.37774 L235.12416,-59.65668 L236.20767,-58.435635 L237.2912,-81.56693 L238.37473,-70.78044 L239.45824,-56.858646 L240.54176,-52.75694 L241.62527,-40.637493 L242.7088,-61.334652 L243.79233,-55.731853 L244.87584,-67.54515 L245.95937,-63.428284 L247.0429,-69.2045 L248.1264,-90.20542 L249.20993,-96.464386 L250.29346,-85.24164 L251.37697,-77.248146 L252.4605,-79.53539 L253.54402,-83.7009 L254.62753,-95.87776 L255.71106,-85.767166 L256.7946,-73.507164 L257.8781,-66.68712 L258.96164,-62.65605 L260.04514,-61.135067 L261.12866,-55.55223 L262.2122,-54.74163 L263.29572,-42.423717 L264.37924,-62.94225 L265.46277,-64.553116 L266.54626,-96.55406 L267.6298,-84.26886 L268.71332,-72.15868 L269.79684,-62.31302 L270.88037,-53.451923 L271.9639,-48.637398 L273.0474,-50.62526 L274.13092,-73.4841 L275.21445,-64.55939 L276.29797,-59.687603 L277.3815,-63.73091 L278.465,-58.941975 L279.54852,-54.631935 L280.63205,-71.82267 L281.71558,-73.59898 L282.7991,-104.69534 L283.88263,-96.86345 L284.96613,-86.65429 L286.04965,-80.6265 L287.13318,-73.09452 L288.2167,-69.476204 L289.30023,-62.005764 L290.38376,-94.261444 L291.46725,-90.633415 L292.55078,-96.84958 L293.6343,-125.62088 L294.71783,-127.28481 L295.80136,-153.01259 L296.8849,-176.16759 L297.96838,-167.5094 L299.0519,-149.18216 L300.13544,-146.38298 L301.21896,-150.18466 L302.3025,-143.07127 L303.38602,-124.02738 L304.4695,-120.58322 L305.55304,-111.162544 L306.63657,-103.73742 L307.7201,-103.37575 L308.80362,-104.10373 L309.88715,-110.02635 L310.97064,-97.44741 L312.05417,-88.23334 L313.1377,-73.61974 L314.22122,-67.84193 L315.30475,-58.427933 L316.38828,-48.901855 L317.47177,-39.274895 L318.5553,-32.71761 L319.63882,-23.655586 L320.72235,-16.553253 L321.80588,-10.161155 L322.8894,-7.5687313 L323.9729,-22.091366 L325.05643,-26.73383 L326.13995,-26.698093 L327.22348,-25.612442 L328.307,-18.314423 L329.39053,-9.63923 L330.47403,-2.8850448 L331.55756,-4.180698 L332.64108,-0.07934283 L333.7246,-9.029985 L334.80814,-7.6041675 L335.89166,-0 L336.97516,-5.7981114 L338.0587,-22.604786 L339.1422,-31.409863 L340.22574,-31.96001 L341.30927,-32.455143 L342.3928,-25.526344 L343.4763,-18.236937 L344.5598,-14.836934 L345.64334,-27.579262 L346.72687,-36.940376 L347.8104,-28.509565 L348.8939,-28.296255 L349.97742,-18.622879 L351.06094,-22.558702 L352.14447,-18.726524 L353.228,-22.651983 L354.31152,-24.077919 L355.39502,-22.200796 L356.47855,-31.046272 L357.56207,-49.542084 L358.6456,-37.744125 L359.72913,-34.50038 L360.81265,-37.901943 L361.89615,-45.177303 L362.97968,-33.815823 L364.0632,-29.91142 L365.14673,-27.450947 L366.23026,-28.396988 L367.31378,-28.194935 L368.39728,-30.120064 L369.4808,-31.85268 L370.56433,-29.198082 L371.64786,-24.701965 L372.73138,-33.29732 L373.8149,-39.979656 L374.8984,-30.19143 L375.98193,-31.916908 L377.06546,-21.881468 L378.149,-38.133293 L379.2325,-42.225056 L380.31604,-33.265774 L381.39954,-33.630333 L382.48306,-28.69099 L383.5666,-28.459538 L384.65012,-22.983788 L385.73364,-23.323055 L386.81717,-17.307465 L387.90067,-17.160875 L388.9842,-44.419647 L390.06772,-49.98975 L391.15125,-48.681908 L392.23477,-42.237408 L393.3183,-37.49085 L394.4018,-45.860806 L395.48532,-35.484463 L396.56885,-54.589947 L397.65237,-49.66162 L398.7359,-48.386593 L399.81943,-38.81116 L400.90292,-35.460712 L401.98645,-35.605774 L403.06998,-50.485172 L404.1535,-53.341743 L405.23703,-41.16382 L406.32056,-39.68508 L407.40405,-42.568176 L408.48758,-35.68156 L409.5711,-34.75105 L410.65463,-32.860104 L411.73816,-45.90709 L412.82166,-57.64938 L413.90518,-54.522087 L414.9887,-56.974968 L416.07224,-49.70116 L417.15576,-68.43846 L418.2393,-61.071796 L419.32278,-53.38831 L420.4063,-70.70341 L421.48984,-68.377686 L422.57336,-72.60548 L423.6569,-59.554665 L424.74042,-57.290333 L425.8239,-46.824524 L426.90744,-35.29832 L427.99097,-40.727066 L429.0745,-30.864098 L430.15802,-23.040915 L431.24155,-14.946561 L432.32504,-12.929085 L433.40857,-44.82499 L434.4921,-33.49874 L435.57562,-44.374886 L436.65915,-43.628532 L437.74268,-36.635883 L438.82617,-29.28901 L439.9097,-22.676823 L440.99323,-21.993298 L442.07675,-32.9665 L443.16028,-57.59122 L444.2438,-66.05812 L445.3273,-70.51786 L446.41083,-65.05023 L447.49435,-67.503784 L448.57788,-78.13989 L449.6614,-78.230995 L450.74493,-90.95484 L451.82843,-84.49701 L452.91196,-82.8989 L453.99548,-73.03271 L455.079,-75.7415 L456.16254,-73.96546 L457.24606,-63.93912 L458.32956,-57.02239 L459.4131,-53.957798 L460.4966,-72.26943 L461.58014,-64.51967 L462.66367,-58.598373 L463.7472,-50.108738 L464.8307,-43.521557 L465.9142,-52.34193 L466.99774,-43.424454 L468.08127,-40.666164 L469.1648,-39.237194 L470.24832,-35.844143 L471.33182,-46.485752 L472.41534,-40.260868 L473.49887,-36.76545 L474.5824,-32.566086 L475.66592,-22.465725 L476.74945,-28.12424 L477.83295,-37.43086 L478.91647,-35.27193 L480,-30.16843" fill="none" stroke="black" stroke-linejoin="round" stroke-width="2"/>
</g>
</g>
<g>
<g>
<line stroke="black" stroke-width="1" x1="0" x2="0" y1="0" y2="10"/>
<line stroke="black" stroke-width="1" x1="108.35214446952595" x2="108.35214446952595" y1="0" y2="10"/>
<line stroke="black" stroke-width="1" x1="216.7042889390519" x2="216.7042889390519" y1="0" y2="10"/>
<line stroke="black" stroke-width="1" x1="325.0564334085779" x2="325.0564334085779" y1="0" y2="10"/>
<line stroke="black" stroke-width="1" x1="433.4085778781038" x2="433.4085778781038" y1="0" y2="10"/>
</g>
<line stroke="black" stroke-width="1" x1="0" x2="480" y1="0" y2="0"/>
<g>
<text font-size="12" text-anchor="middle" x="0" y="20">
0
</text>
<text font-size="12" text-anchor="middle" x="108.35214446952595" y="20">
100
</text>
<text font-size="12" text-anchor="middle" x="216.7042889390519" y="20">
200
</text>
<text font-size="12" text-anchor="middle" x="325.0564334085779" y="20">
300
</text>
<text font-size="12" text-anchor="middle" x="433.4085778781038" y="20">
400
</text>
</g>
<text font-size="12" text-anchor="middle" x="240" y="30">

</text>
</g>
<g>
<g>
<line stroke="black" stroke-width="1" x1="0" x2="-10" y1="0.00004850611351343277" y2="0.00004850611351343277"/>
<line stroke="black" stroke-width="1" x1="0" x2="-10" y1="-105.34880596658408" y2="-105.34880596658408"/>
<line stroke="black" stroke-width="1" x1="0" x2="-10" y1="-210.69766043928175" y2="-210.69766043928175"/>
<line stroke="black" stroke-width="1" x1="0" x2="-10" y1="-316.0465149119794" y2="-316.0465149119794"/>
</g>
<line stroke="black" stroke-width="1" x1="0" x2="0" y1="0" y2="-340"/>
<g>
<text dominant-baseline="middle" font-size="12" text-anchor="end" x="-15" y="0.00004850611351343277">
14.49627
</text>
<text dominant-baseline="middle" font-size="12" text-anchor="end" x="-15" y="-105.34880596658408">
24.49627
</text>
<text dominant-baseline="middle" font-size="12" text-anchor="end" x="-15" y="-210.69766043928175">
34.49627
</text>
<text dominant-baseline="middle" font-size="12" text-anchor="end" x="-15" y="-316.0465149119794">
44.49627
</text>
</g>
<text font-size="12" text-anchor="middle" transform="rotate(-90 -96 -170)" x="-96" y="-182">

</text>
</g>
</g>
</svg>