<svg viewBox="0 0 600 400" xmlns="http://www.w3.org/2000/svg">
<g transform="translate(72, 364)">
<g>
<g>
<path d="M0,-64.282104 L0,-64.282104 L0.24415056,-72.14774 L0.48830113,-73.89964 L0.7324517,-75.56394 L0.97660226,-77.14502 L1.2207528,-90.08799 L1.4649034,-108.10428 L1.7090539,-102.337875 L1.9532045,-114.0212 L2.197355,-148.00224 L2.4415057,-145.96141 L2.685656,-186.92613 L2.9298067,-182.9391 L3.1739573,-179.15143 L3.4181077,-186.99408 L3.6622584,-223.04694 L3.906409,-240.13576 L4.1505594,-276.39175 L4.39471,-310.83496 L4.6388607,-334.9753 L4.8830113,-335.02676 L5.127162,-323.6347 L5.371312,-307.0918 L5.615463,-340 L5.8596134,-322.63882 L6.103764,-311.86615 L6.3479147,-301.6321 L6.5920653,-286.18933 L6.8362155,-282.95963 L7.080366,-274.17093 L7.324517,-260.10117 L7.5686674,-246.73494 L7.812818,-234.037 L8.056969,-233.4149 L8.301119,-227.10344 L8.54527,-221.10754 L8.78942,-209.69098 L9.03357,-198.84525 L9.277721,-188.5418 L9.521872,-195.91492 L9.766023,-185.75798 L10.010173,-176.1089 L10.254324,-166.94226 L10.498474,-181.11584 L10.742624,-171.69887 L10.986775,-162.75273 L11.230926,-154.2539 L11.475077,-146.18002 L11.719227,-155.67123 L11.963377,-147.52649 L12.207528,-145.50945 L12.451678,-137.87279 L12.695829,-142.0589 L12.93998,-140.31523 L13.184131,-167.2611 L13.428281,-169.9778 L13.672431,-166.83818 L13.916582,-158.13509 L14.160732,-167.02855 L14.404883,-164.0364 L14.649034,-161.19386 L14.893184,-169.93439 L15.137335,-189.67883 L15.381485,-185.55417 L15.625636,-204.51761 L15.869786,-193.93054 L16.113937,-183.87283 L16.358088,-197.19987 L16.602238,-192.69916 L16.846388,-182.70302 L17.09054,-218.97043 L17.33469,-207.66072 L17.57884,-219.79837 L17.82299,-242.77008 L18.06714,-235.99086 L18.311293,-269.59387 L18.555443,-272.9144 L18.799593,-258.9075 L19.043743,-294.2249 L19.287893,-279.1525 L19.532045,-270.55414 L19.776196,-273.82666 L20.020346,-265.4946 L20.264496,-251.85869 L20.508648,-250.3455 L20.752798,-237.46704 L20.996948,-230.95297 L21.241098,-219.04413 L21.485249,-207.73073 L21.7294,-196.98302 L21.97355,-186.77267 L22.217701,-177.07285 L22.461851,-167.85802 L22.706001,-164.8244 L22.950153,-161.94246 L23.194304,-153.48415 L23.438454,-145.44876 L23.682604,-137.81512 L23.926754,-147.7246 L24.170906,-151.4181 L24.415056,-143.48602 L24.659206,-141.67099 L24.903357,-134.22626 L25.147507,-138.5947 L25.391659,-131.30377 L25.635809,-124.377396 L25.87996,-140.67921 L26.12411,-133.28407 L26.368261,-126.258675 L26.612411,-131.0255 L26.856562,-124.11303 L27.100712,-134.7076 L27.344862,-133.3315 L27.589014,-132.0242 L27.833164,-125.061806 L28.077314,-124.16799 L28.321465,-117.598404 L28.565615,-117.07777 L28.809767,-116.58316 L29.053917,-110.392815 L29.298067,-104.511986 L29.542217,-110.366135 L29.786367,-104.48664 L30.03052,-98.90112 L30.27467,-105.03581 L30.51882,-99.42284 L30.76297,-94.09051 L31.00712,-94.74526 L31.251272,-106.80822 L31.495422,-112.547554 L31.739573,-106.55899 L31.983723,-100.86985 L32.227875,-112.62658 L32.472023,-106.63406 L32.716175,-100.94117 L32.960327,-101.253395 L33.204475,-118.71141 L33.448627,-112.41465 L33.692776,-112.1532 L33.936928,-111.90482 L34.18108,-111.66886 L34.42523,-117.16517 L34.66938,-110.945724 L34.91353,-105.03725 L35.15768,-105.14467 L35.401833,-105.24671 L35.64598,-99.62319 L35.890133,-100.00131 L36.13428,-111.80147 L36.378433,-111.57067 L36.622585,-105.63095 L36.866734,-105.70869 L37.110886,-100.062065 L37.355034,-94.69777 L37.599186,-89.60169 L37.843338,-90.48089 L38.087486,-85.59566 L38.33164,-92.39562 L38.575787,-98.85559 L38.81994,-93.55163 L39.06409,-88.512856 L39.30824,-83.72603 L39.55239,-79.178535 L39.79654,-74.85842 L40.04069,-70.75431 L40.284843,-66.85541 L40.52899,-74.592384 L40.773144,-70.50158 L41.017296,-66.61531 L41.261444,-68.64383 L41.505596,-64.85045 L41.749744,-66.96721 L41.993896,-63.25766 L42.23805,-59.73359 L42.482197,-56.38572 L42.72635,-64.64619 L42.970497,-66.773155 L43.21465,-63.07331 L43.4588,-59.558456 L43.70295,-67.660286 L43.9471,-69.63655 L44.19125,-71.51401 L44.435402,-73.297585 L44.679554,-69.271515 L44.923702,-76.88769 L45.167854,-72.68212 L45.412003,-68.68682 L45.656155,-76.33223 L45.900307,-72.154434 L46.144455,-102.50834 L46.388607,-97.021736 L46.632755,-97.52993 L46.876907,-92.292244 L47.12106,-93.03691 L47.365208,-88.02388 L47.60936,-83.2615 L47.853508,-78.737236 L48.09766,-74.439186 L48.341812,-87.51744 L48.58596,-88.500854 L48.830112,-83.71462 L49.07426,-90.60864 L49.318413,-85.71702 L49.562565,-103.95186 L49.806713,-104.11355 L50.050865,-104.26715 L50.295013,-98.692604 L50.539165,-93.39678 L50.783318,-111.247635 L51.027466,-111.04453 L51.271618,-105.13112 L51.51577,-116.67478 L51.75992,-116.200325 L52.00407,-121.470055 L52.24822,-115.03536 L52.49237,-120.36335 L52.736523,-119.70446 L52.98067,-113.35805 L53.224823,-118.7699 L53.46897,-118.19068 L53.713123,-123.3609 L53.957275,-122.55213 L54.201424,-116.06334 L54.445576,-115.61945 L54.689724,-115.19776 L54.933876,-114.79716 L55.17803,-120.13705 L55.422176,-125.209946 L55.66633,-118.58826 L55.910477,-123.738594 L56.15463,-117.190475 L56.39878,-110.969765 L56.64293,-116.50103 L56.88708,-110.31479 L57.13123,-110.15833 L57.37538,-110.0097 L57.619534,-121.309425 L57.86368,-120.60324 L58.107834,-125.652824 L58.351982,-124.72947 L58.596134,-118.131805 L58.840286,-117.584496 L59.084435,-122.78502 L59.328587,-122.00505 L59.572735,-115.54361 L59.816887,-109.40524 L60.06104,-115.01473 L60.305187,-108.9028 L60.54934,-103.09647 L60.793488,-103.300934 L61.03764,-97.7747 L61.28179,-92.52477 L61.52594,-98.97829 L61.770092,-105.10912 L62.01424,-105.212944 L62.258392,-105.31158 L62.502544,-99.684814 L62.746693,-117.22126 L62.990845,-110.99901 L63.234997,-110.80834 L63.479145,-139.22955 L63.723297,-131.90689 L63.967445,-124.95035 L64.21159,-129.78258 L64.45575,-122.93227 L64.6999,-116.42446 L64.944046,-110.24205 L65.1882,-115.8097 L65.43235,-115.378494 L65.6765,-114.96885 L65.920654,-114.57969 L66.1648,-108.48952 L66.40895,-102.70386 L66.6531,-108.648415 L66.897255,-102.854805 L67.1414,-97.350876 L67.38555,-92.12215 L67.62971,-87.15485 L67.873856,-82.43592 L68.118004,-89.39387 L68.36216,-84.56299 L68.60631,-91.41459 L68.85046,-86.48267 L69.09461,-81.79735 L69.33876,-88.78723 L69.58291,-83.98669 L69.82706,-85.14663 L70.07121,-80.52811 L70.31536,-76.14052 L70.55951,-71.972305 L70.803665,-73.73297 L71.04781,-81.12607 L71.29196,-76.70858 L71.53612,-78.23243 L71.780266,-79.68009 L72.024414,-75.3349 L72.26856,-76.92744 L72.51272,-72.71987 L72.75687,-68.722694 L73.001015,-64.92537 L73.24517,-61.317913 L73.48932,-57.890827 L73.73347,-60.355568 L73.97762,-56.9766 L74.22177,-53.766582 L74.46592,-50.717068 L74.71007,-53.540493 L74.95422,-56.22275 L75.19837,-53.050423 L75.44252,-50.036716 L75.686676,-47.17369 L75.930824,-44.45382 L76.17497,-41.869938 L76.41913,-39.415253 L76.66328,-37.083305 L76.907425,-34.86795 L77.15157,-32.763363 L77.39573,-30.764008 L77.63988,-28.86462 L77.884026,-32.78067 L78.12818,-42.221386 L78.37233,-45.469597 L78.61648,-48.555397 L78.860634,-51.486908 L79.10478,-48.551376 L79.34893,-45.76262 L79.59308,-43.1133 L79.837234,-40.596447 L80.08138,-38.205437 L80.32553,-35.933975 L80.56969,-33.77609 L80.813835,-31.726097 L81.05798,-29.778605 L81.30214,-45.089893 L81.54629,-48.19468 L81.790436,-45.423756 L82.03459,-42.79138 L82.27874,-46.011093 L82.52289,-60.510757 L82.76704,-57.12403 L83.01119,-59.62711 L83.25534,-56.28457 L83.49949,-64.55009 L83.743645,-60.961395 L83.98779,-63.272606 L84.23194,-59.747787 L84.4761,-56.39921 L84.720245,-53.218063 L84.96439,-50.195972 L85.20854,-47.324986 L85.4527,-44.597546 L85.696846,-47.72695 L85.940994,-56.420353 L86.18515,-53.238148 L86.4293,-50.215054 L86.67345,-58.78405 L86.9176,-55.483658 L87.16175,-58.068756 L87.4059,-60.5246 L87.65005,-68.57812 L87.8942,-70.50849 L88.13835,-78.06282 L88.3825,-73.79849 L88.626656,-69.747375 L88.870804,-71.61929 L89.11495,-67.67714 L89.35911,-63.93209 L89.60326,-60.3743 L89.847404,-56.994396 L90.09155,-53.78349 L90.33571,-50.733128 L90.57986,-59.27622 L90.824005,-55.95122 L91.06816,-52.792473 L91.31231,-49.79166 L91.55646,-46.940887 L91.80061,-67.11453 L92.04476,-69.11809 L92.28891,-65.300995 L92.533066,-78.83617 L92.777214,-74.533165 L93.02136,-70.44532 L93.26551,-72.28233 L93.50967,-85.46844 L93.753815,-86.5543 L93.99796,-99.0268 L94.24212,-110.87568 L94.48627,-116.411644 L94.730415,-115.95035 L94.97457,-132.67352 L95.21872,-125.67865 L95.46287,-136.19493 L95.707016,-134.74448 L95.95117,-156.2484 L96.19532,-159.51573 L96.43947,-151.17876 L96.683624,-143.25864 L96.92777,-135.73451 L97.17192,-140.02754 L97.41608,-132.66498 L97.660225,-154.27289 L97.90437,-146.19804 L98.14852,-138.52696 L98.39268,-136.95988 L98.636826,-152.63258 L98.880974,-144.63977 L99.12513,-142.76706 L99.36928,-146.70845 L99.61343,-144.73232 L99.85758,-137.1345 L100.10173,-129.9166 L100.34588,-123.05958 L100.59003,-116.54541 L100.83418,-127.518364 L101.07833,-120.78126 L101.32248,-120.10147 L101.566635,-125.17615 L101.81078,-118.55615 L102.05493,-117.987625 L102.29909,-111.72706 L102.543236,-105.77952 L102.787384,-100.12936 L103.03154,-94.761696 L103.27569,-89.66242 L103.51984,-84.818115 L103.763985,-80.21602 L104.00814,-93.00544 L104.25229,-93.71445 L104.49644,-88.667534 L104.74059,-89.593445 L104.98474,-84.75258 L105.22889,-85.87423 L105.473045,-86.939804 L105.71719,-93.67256 L105.96134,-88.62775 L106.20549,-83.83517 L106.449646,-79.28223 L106.693794,-74.956924 L106.93794,-76.56836 L107.1821,-72.37875 L107.42625,-85.560036 L107.670395,-80.920845 L107.91455,-76.51361 L108.1587,-72.326744 L108.40285,-68.34922 L108.646996,-70.29104 L108.89115,-89.29717 L109.1353,-84.47113 L109.37945,-79.88638 L109.623604,-86.97182 L109.86775,-82.26204 L110.1119,-100.669624 L110.35606,-95.274956 L110.600204,-90.15002 L110.84435,-85.28133 L111.0885,-80.656075 L111.33266,-81.98255 L111.576805,-77.52223 L111.82095,-79.0054 L112.06511,-80.41441 L112.30926,-87.47344 L112.553406,-88.45905 L112.79756,-100.83632 L113.04171,-101.153786 L113.28586,-101.455376 L113.53001,-107.46236 L113.77416,-107.44852 L114.01831,-101.714905 L114.26246,-101.98844 L114.506615,-96.52783 L114.75076,-91.340256 L114.99491,-92.13252 L115.23907,-87.1647 L115.483215,-82.44528 L115.72736,-89.40277 L115.97152,-96.01238 L116.21567,-90.85057 L116.459816,-85.94685 L116.703964,-92.72926 L116.94812,-87.73161 L117.19227,-82.98384 L117.43642,-95.63487 L117.68057,-90.491936 L117.92472,-85.606155 L118.16887,-86.68513 L118.413025,-81.989685 L118.65717,-77.52901 L118.90132,-79.01184 L119.14547,-80.42053 L119.389626,-76.038315 L119.63377,-83.31615 L119.87792,-78.789154 L120.12208,-80.20898 L120.36623,-75.83734 L120.610374,-77.404755 L120.85453,-78.8938 L121.09868,-80.30839 L121.34283,-75.93178 L121.586975,-83.21494 L121.83113,-90.13394 L122.07528,-102.42747 L122.31943,-96.94491 L122.56358,-91.73647 L122.80773,-86.78846 L123.05188,-82.087845 L123.296036,-89.06321 L123.540184,-84.248856 L123.78433,-79.675224 L124.02848,-75.33028 L124.27264,-76.92304 L124.516785,-78.43617 L124.76093,-85.59412 L125.00509,-86.67369 L125.24924,-87.69929 L125.493385,-88.6736 L125.73754,-83.87873 L125.98169,-79.32361 L126.22584,-74.99624 L126.46999,-82.32618 L126.71414,-83.56915 L126.95829,-79.0295 L127.20244,-74.71684 L127.446594,-70.61981 L127.69074,-66.72763 L127.93489,-68.750534 L128.17905,-64.95182 L128.42319,-61.343037 L128.66734,-69.35564 L128.9115,-71.24714 L129.15564,-67.32359 L129.3998,-69.31669 L129.64395,-76.93061 L129.88809,-84.163826 L130.13225,-79.594444 L130.3764,-75.25354 L130.62054,-71.12967 L130.8647,-67.212 L131.10886,-80.65162 L131.353,-81.97832 L131.59715,-77.51822 L131.84131,-79.00159 L132.08545,-74.690315 L132.3296,-70.59461 L132.57376,-66.7037 L132.8179,-63.007324 L133.06206,-59.49577 L133.3062,-56.15979 L133.55035,-75.87249 L133.79451,-77.43815 L134.03865,-73.20505 L134.2828,-69.18361 L134.52696,-65.36324 L134.7711,-61.73389 L135.01526,-58.28601 L135.25941,-55.01052 L135.50356,-57.619274 L135.74771,-54.377125 L135.99187,-51.297077 L136.23601,-48.371037 L136.48016,-45.591297 L136.72432,-42.950542 L136.96846,-40.44183 L137.21262,-38.058548 L137.45677,-35.794434 L137.70091,-39.363995 L137.94507,-37.034607 L138.18922,-34.821686 L138.43336,-32.719414 L138.67752,-30.722256 L138.92166,-34.545425 L139.16582,-32.456963 L139.40997,-36.193398 L139.65411,-45.463478 L139.89827,-54.270054 L140.14243,-51.195362 L140.38657,-53.994877 L140.63072,-50.933945 L140.87488,-53.74653 L141.11902,-50.698013 L141.36317,-47.801926 L141.60733,-45.05064 L141.85147,-42.43692 L142.09563,-39.953884 L142.33978,-43.31547 L142.58392,-40.78851 L142.82808,-38.387897 L143.07224,-36.107315 L143.31638,-33.94076 L143.56053,-31.882534 L143.80467,-35.64769 L144.04883,-33.504116 L144.29298,-37.18819 L144.53712,-34.967594 L144.78128,-32.858025 L145.02544,-30.853935 L145.26958,-28.95005 L145.51373,-27.141361 L145.75789,-25.423103 L146.00203,-23.79076 L146.24619,-22.240034 L146.49034,-26.487314 L146.73448,-30.522228 L146.97864,-34.3554 L147.2228,-32.27644 L147.46693,-36.0219 L147.71109,-33.859615 L147.95525,-31.805447 L148.19939,-29.853987 L148.44354,-28.0001 L148.6877,-31.959375 L148.93184,-30.00022 L149.176,-28.139019 L149.42014,-26.37088 L149.66429,-30.411617 L149.90845,-39.970787 L150.15259,-43.331528 L150.39674,-46.52423 L150.6409,-43.836834 L150.88504,-41.283802 L151.1292,-56.019833 L151.37335,-58.57812 L151.6175,-66.728966 L151.86165,-63.03133 L152.1058,-65.239044 L152.34995,-61.615902 L152.5941,-58.17392 L152.83826,-54.904037 L153.0824,-51.797646 L153.32655,-48.846577 L153.57071,-46.04306 L153.81485,-66.2616 L154.059,-68.30779 L154.30315,-87.41309 L154.5473,-82.68125 L154.79146,-78.186 L155.0356,-85.35645 L155.27975,-86.44791 L155.52391,-87.484795 L155.76805,-82.74937 L156.0122,-95.41212 L156.25636,-107.44173 L156.5005,-118.869865 L156.74466,-118.28565 L156.98882,-112.01018 L157.23296,-111.76895 L157.47711,-117.260254 L157.72127,-116.75652 L157.96541,-110.55751 L158.20956,-104.66844 L158.45372,-99.07384 L158.69786,-99.47942 L158.94202,-94.144264 L159.18616,-89.07586 L159.43031,-84.26088 L159.67447,-79.686646 L159.91861,-86.78207 L160.16277,-82.08177 L160.40692,-100.498375 L160.65106,-95.11227 L160.89522,-89.99547 L161.13937,-85.13451 L161.38351,-86.23706 L161.62767,-81.56402 L161.87183,-82.8451 L162.11597,-84.062126 L162.36012,-79.49783 L162.60428,-75.16175 L162.84842,-82.48341 L163.09258,-83.71852 L163.33673,-84.89188 L163.58087,-86.00657 L163.82503,-81.34505 L164.06918,-76.91661 L164.31332,-72.70959 L164.55748,-68.71292 L164.80162,-70.63656 L165.04578,-66.74354 L165.28993,-63.045177 L165.53407,-70.972664 L165.77823,-72.78332 L166.02238,-68.78296 L166.26653,-70.703094 L166.51068,-66.80675 L166.75484,-63.105225 L166.99898,-65.30924 L167.24313,-61.682594 L167.48729,-69.678215 L167.73143,-65.833115 L167.97559,-79.34168 L168.21974,-75.013405 L168.46388,-70.90155 L168.70804,-66.995285 L168.9522,-63.284332 L169.19633,-65.47939 L169.44049,-61.84424 L169.68463,-58.39084 L169.92879,-60.830578 L170.17294,-74.589264 L170.41708,-70.49861 L170.66124,-66.612495 L170.9054,-62.920685 L171.14954,-59.41346 L171.39369,-56.0816 L171.63785,-52.916332 L171.88199,-49.90933 L172.12614,-47.052673 L172.3703,-44.338852 L172.61444,-41.76072 L172.8586,-45.031963 L173.10275,-42.419178 L173.3469,-39.93703 L173.59105,-37.57899 L173.8352,-41.059322 L174.07935,-38.64517 L174.3235,-36.351723 L174.56766,-39.893417 L174.8118,-48.978497 L175.05595,-46.168385 L175.3001,-54.939713 L175.54425,-51.83154 L175.7884,-48.878777 L176.03255,-46.073647 L176.2767,-43.40878 L176.52086,-46.59762 L176.765,-43.90655 L177.00916,-47.070503 L177.25331,-44.35579 L177.49745,-47.497284 L177.74161,-44.76123 L177.98576,-47.88245 L178.2299,-45.12714 L178.47406,-48.230064 L178.71822,-56.898308 L178.96236,-70.853615 L179.20651,-66.949745 L179.45067,-63.24107 L179.69481,-59.717827 L179.93896,-62.091217 L180.1831,-64.34594 L180.42726,-72.20839 L180.67142,-68.236786 L180.91556,-64.46375 L181.15971,-72.32032 L181.40387,-74.06358 L181.64801,-69.999214 L181.89217,-71.858536 L182.13632,-73.62489 L182.38046,-75.302925 L182.62462,-71.17659 L182.86877,-67.25658 L183.11292,-63.53256 L183.35707,-59.99474 L183.60123,-62.354286 L183.84537,-70.31632 L184.08952,-66.439316 L184.33368,-68.47663 L184.57782,-64.69161 L184.82198,-61.095844 L185.06613,-63.400333 L185.31027,-59.86913 L185.55443,-56.514484 L185.79857,-53.32757 L186.04272,-50.300003 L186.28688,-47.423817 L186.53102,-50.411907 L186.77518,-47.53012 L187.01933,-73.394775 L187.26347,-69.363846 L187.50763,-71.25494 L187.75179,-78.77194 L187.99593,-74.47215 L188.24008,-70.38736 L188.48424,-66.5068 L188.72838,-62.820274 L188.97253,-59.318073 L189.21669,-55.99098 L189.46083,-58.550713 L189.70499,-66.70293 L189.94914,-63.00659 L190.19328,-65.215546 L190.43744,-61.59358 L190.68158,-58.15271 L190.92574,-54.88389 L191.16989,-51.778503 L191.41403,-48.828392 L191.65819,-46.025784 L191.90234,-49.083775 L192.14648,-46.2684 L192.39064,-43.593792 L192.6348,-41.052914 L192.87894,-38.63908 L193.1231,-36.345936 L193.36725,-45.60839 L193.61139,-42.96678 L193.85555,-51.898193 L194.0997,-48.942097 L194.34384,-46.133804 L194.588,-43.465923 L194.83215,-40.93144 L195.0763,-38.52368 L195.32045,-36.23631 L195.5646,-51.224712 L195.80875,-48.302288 L196.0529,-45.525986 L196.29704,-48.608967 L196.5412,-57.25827 L196.78535,-59.754635 L197.0295,-62.126186 L197.27365,-58.658688 L197.5178,-55.364567 L197.76195,-57.95562 L198.0061,-60.417118 L198.25026,-57.035072 L198.4944,-53.822132 L198.73856,-50.769836 L198.98271,-47.87016 L199.22685,-45.115463 L199.47101,-42.4985 L199.71516,-51.453323 L199.9593,-54.23994 L200.20346,-51.166756 L200.44762,-48.24723 L200.69176,-45.47368 L200.93591,-42.838806 L201.18005,-46.05615 L201.42421,-43.39215 L201.66837,-40.861355 L201.9125,-44.17757 L202.15666,-41.607502 L202.40082,-56.327347 L202.64496,-58.870262 L202.88911,-55.56556 L203.13327,-58.14656 L203.37741,-60.598515 L203.62157,-57.2074 L203.86572,-71.14725 L204.10986,-72.949165 L204.35402,-68.94052 L204.59818,-76.57324 L204.84232,-78.10387 L205.08647,-73.83749 L205.33063,-69.784424 L205.57477,-65.93401 L205.81892,-62.276123 L206.06308,-58.80113 L206.30722,-55.499886 L206.55138,-52.3637 L206.79552,-49.384327 L207.03967,-46.553925 L207.28383,-43.86504 L207.52797,-41.3106 L207.77213,-38.88388 L208.01628,-36.5785 L208.26042,-34.388386 L208.50458,-32.307777 L208.74873,-30.331202 L208.99287,-28.453453 L209.23703,-32.39006 L209.48119,-30.40937 L209.72533,-28.527714 L209.96948,-32.46061 L210.21364,-30.47639 L210.45778,-28.591383 L210.70193,-26.800627 L210.94609,-25.099407 L211.19023,-23.483248 L211.43439,-21.947897 L211.67853,-26.209784 L211.92268,-30.258575 L212.16684,-28.384459 L212.41098,-26.604048 L212.65514,-30.633125 L212.89929,-28.740282 L213.14343,-26.94208 L213.38759,-25.233788 L213.63174,-23.61091 L213.87589,-33.510113 L214.12004,-31.473421 L214.3642,-29.53856 L214.60834,-27.700445 L214.8525,-25.954235 L215.09665,-24.295336 L215.34079,-22.71938 L215.58495,-21.222223 L215.8291,-19.799923 L216.07324,-24.169209 L216.3174,-22.59956 L216.56154,-26.828863 L216.8057,-36.56717 L217.04985,-34.377625 L217.29399,-32.297554 L217.53815,-30.321487 L217.7823,-28.444225 L218.02644,-32.381294 L218.2706,-30.401043 L218.51476,-28.519802 L218.7589,-26.732624 L219.00305,-25.034805 L219.24721,-29.142345 L219.49135,-27.32404 L219.7355,-31.31712 L219.97966,-29.390074 L220.2238,-33.27985 L220.46796,-42.69561 L220.71211,-40.199642 L220.95625,-37.828472 L221.20041,-35.57586 L221.44456,-33.43588 L221.6887,-37.123363 L221.93286,-34.90601 L222.177,-38.51999 L222.42116,-36.232803 L222.66531,-34.059975 L222.90945,-37.716255 L223.15361,-41.189724 L223.39777,-38.76905 L223.6419,-36.46941 L223.88606,-34.28475 L224.13022,-32.209324 L224.37436,-30.23767 L224.61852,-28.3646 L224.86267,-26.58518 L225.10681,-36.33567 L225.35097,-34.1577 L225.59512,-32.088627 L225.83926,-30.123007 L226.08342,-28.255669 L226.32758,-26.481697 L226.57172,-24.796425 L226.81587,-28.915884 L227.06001,-27.108902 L227.30417,-25.39227 L227.54832,-23.761467 L227.79247,-22.212206 L228.03662,-20.740408 L228.28078,-19.3422 L228.52492,-23.73437 L228.76907,-22.186462 L229.01323,-26.43642 L229.25737,-24.753412 L229.50153,-23.154552 L229.74568,-21.635637 L229.98982,-25.913136 L230.23398,-24.25629 L230.47813,-22.68229 L230.72227,-21.186987 L230.96643,-19.766449 L231.21059,-18.416939 L231.45473,-17.134903 L231.69888,-21.63744 L231.94304,-25.914848 L232.18718,-24.257917 L232.43134,-22.683834 L232.67548,-21.188454 L232.91963,-19.767843 L233.16379,-24.138731 L233.40793,-22.570606 L233.65208,-26.801357 L233.89624,-25.100101 L234.14038,-23.483908 L234.38454,-21.948524 L234.6287,-26.210379 L234.87283,-24.538671 L235.11699,-22.95055 L235.36115,-21.441835 L235.60529,-20.008554 L235.84944,-18.64694 L236.0936,-17.353405 L236.33774,-16.124546 L236.5819,-14.95713 L236.82605,-13.848085 L237.07019,-12.794494 L237.31435,-11.793581 L237.55849,-16.563183 L237.80264,-15.373836 L238.0468,-14.243956 L238.29094,-24.611507 L238.5351,-23.019745 L238.77925,-27.228039 L239.02339,-25.505447 L239.26755,-23.868988 L239.5117,-22.31435 L239.75584,-20.837444 L240,-19.434383 L240.24416,-23.821945 L240.4883,-27.99013 L240.73245,-26.229435 L240.97661,-24.556774 L241.22075,-28.688217 L241.4649,-26.892618 L241.70906,-25.1868 L241.9532,-23.56627 L242.19736,-22.02677 L242.44151,-20.564243 L242.68565,-19.174843 L242.92981,-23.575382 L243.17395,-22.035423 L243.4181,-20.572464 L243.66226,-19.182653 L243.9064,-17.862333 L244.15056,-16.608028 L244.39471,-15.416438 L244.63885,-14.284429 L244.88301,-41.811363 L245.12717,-39.359608 L245.3713,-37.030437 L245.61546,-34.81773 L245.85962,-38.436123 L246.10376,-36.15313 L246.34792,-33.984283 L246.59207,-31.923882 L246.83621,-29.9665 L247.08037,-33.827457 L247.32452,-31.774895 L247.56866,-29.824963 L247.81282,-27.972527 L248.05696,-37.65365 L248.30112,-35.40978 L248.54527,-33.278103 L248.78941,-31.25301 L249.03357,-29.32917 L249.27773,-27.501524 L249.52187,-25.765259 L249.76602,-24.115808 L250.01018,-22.54883 L250.25432,-21.0602 L250.49847,-19.646002 L250.74263,-18.302513 L250.98677,-17.0262 L251.23093,-21.53417 L251.47508,-20.096273 L251.71922,-18.730272 L251.96338,-23.15304 L252.20753,-27.35467 L252.45168,-25.625748 L252.69583,-29.703741 L252.93999,-27.857365 L253.18413,-26.10331 L253.42828,-24.436956 L253.67242,-22.85392 L253.91658,-21.350035 L254.16074,-19.921347 L254.40488,-18.56409 L254.64903,-22.995167 L254.89319,-21.48422 L255.13733,-20.04882 L255.38148,-24.40566 L255.62564,-22.82419 L255.86978,-27.042261 L256.11392,-25.32896 L256.3581,-23.701324 L256.60223,-22.15507 L256.84637,-20.686129 L257.09055,-25.011103 L257.3347,-23.399359 L257.57883,-21.868204 L257.823,-26.134073 L258.06714,-30.186651 L258.31128,-28.31613 L258.55545,-26.539137 L258.7996,-24.85099 L259.04373,-23.247253 L259.2879,-21.723703 L259.53204,-20.276329 L259.77618,-18.901325 L260.02036,-23.31554 L260.2645,-38.94998 L260.50864,-36.641293 L260.7528,-34.44804 L260.99695,-32.364452 L261.2411,-30.38504 L261.48526,-28.5046 L261.7294,-26.718182 L261.97354,-25.021086 L262.2177,-29.129313 L262.46185,-27.311659 L262.706,-25.584887 L262.95016,-23.944454 L263.1943,-22.386044 L263.43845,-26.626022 L263.68262,-24.933533 L263.92676,-23.325668 L264.1709,-21.798197 L264.41507,-26.067568 L264.6592,-24.403002 L264.90335,-22.821663 L265.14752,-27.039862 L265.39166,-36.767616 L265.6358,-34.56805 L265.87997,-32.47846 L266.1241,-30.493347 L266.36826,-28.607492 L266.6124,-26.81593 L266.85657,-25.113945 L267.1007,-23.497059 L267.34485,-27.681488 L267.58902,-31.656694 L267.83316,-29.712671 L268.0773,-27.865849 L268.32147,-26.111368 L268.5656,-24.444613 L268.80975,-22.861193 L269.05392,-21.356945 L269.29807,-19.92791 L269.5422,-18.570326 L269.78638,-17.280622 L270.03052,-16.055403 L270.27466,-14.891445 L270.51883,-13.785685 L270.76297,-12.735212 L271.0071,-11.737264 L271.25128,-10.789212 L271.49542,-9.888563 L271.73956,-9.032948 L271.98373,-8.220112 L272.22787,-7.447918 L272.47202,-6.714334 L272.7162,-6.0174294 L272.96033,-5.3553696 L273.20447,-4.726413 L273.44864,-4.1289043 L273.69278,-3.561271 L273.93692,-14.462957 L274.1811,-19.09909 L274.42523,-17.782948 L274.66937,-22.25308 L274.91354,-20.77924 L275.15768,-19.37909 L275.40182,-18.048946 L275.646,-16.78531 L275.89014,-15.584857 L276.13428,-14.444427 L276.37845,-13.361017 L276.6226,-12.331778 L276.86673,-17.07447 L277.11087,-15.859558 L277.35504,-14.705393 L277.59918,-13.608934 L277.84332,-12.5673 L278.0875,-17.298216 L278.33163,-16.072117 L278.57578,-14.907323 L278.81995,-13.800769 L279.0641,-12.749542 L279.30823,-17.471346 L279.5524,-16.236591 L279.79654,-15.063573 L280.04068,-13.949206 L280.28485,-12.890557 L280.529,-11.884842 L280.77313,-10.929412 L281.0173,-10.021752 L281.26144,-9.159477 L281.50558,-8.340315 L281.74976,-7.5621114 L281.9939,-12.543286 L282.23804,-11.5549345 L282.4822,-16.336468 L282.72635,-15.158457 L282.9705,-14.039346 L283.21466,-12.976191 L283.4588,-17.686663 L283.70294,-16.441141 L283.9471,-15.257895 L284.19125,-14.133813 L284.4354,-18.786404 L284.67957,-17.485895 L284.9237,-16.250412 L285.16785,-20.797173 L285.41202,-19.396126 L285.65616,-18.06513 L285.9003,-16.800686 L286.14447,-15.599464 L286.3886,-14.4583025 L286.63275,-13.3742 L286.87692,-12.344301 L287.12106,-11.365898 L287.3652,-16.156883 L287.60934,-14.987852 L287.85352,-19.59774 L288.09766,-18.256664 L288.3418,-16.982643 L288.58597,-15.772324 L288.8301,-20.342989 L289.07425,-18.964651 L289.31842,-17.65523 L289.56256,-16.41128 L289.8067,-15.229528 L290.05087,-14.106864 L290.295,-13.040333 L290.53915,-12.027127 L290.78333,-11.064583 L291.02747,-10.150166 L291.2716,-9.281469 L291.51578,-8.456208 L291.75992,-13.392678 L292.00406,-12.361856 L292.24823,-11.382575 L292.49237,-10.452259 L292.7365,-9.568458 L292.98068,-8.728847 L293.22482,-7.9312162 L293.46896,-7.173467 L293.71313,-6.4536057 L293.95728,-5.7697372 L294.20142,-5.1200624 L294.4456,-4.502871 L294.68973,-3.9165394 L294.93387,-3.3595245 L295.17804,-8.550829 L295.42218,-13.482569 L295.66632,-18.16772 L295.9105,-16.898148 L296.15463,-15.692052 L296.39877,-14.546261 L296.64294,-13.45776 L296.8871,-12.423683 L297.13123,-11.441311 L297.3754,-10.508058 L297.61954,-9.621467 L297.86368,-8.779205 L298.10782,-7.979057 L298.352,-7.218916 L298.59613,-17.93772 L298.84027,-16.679646 L299.08444,-15.484475 L299.32858,-14.349064 L299.57272,-13.270422 L299.8169,-12.245713 L300.06104,-11.27224 L300.30518,-10.347439 L300.54935,-9.468879 L300.7935,-8.634247 L301.03763,-7.8413467 L301.2818,-7.0880914 L301.52594,-6.3724985 L301.77008,-5.6926856 L302.01425,-5.046863 L302.2584,-4.433332 L302.50253,-3.8504772 L302.7467,-3.296765 L302.99084,-2.7707388 L303.235,-2.2710137 L303.47916,-1.7962749 L303.7233,-1.3452731 L303.96744,-0.9168213 L304.2116,-0.50979215 L304.45575,-0.12311442 L304.6999,-5.4762397 L304.94406,-4.8412395 L305.1882,-4.2379894 L305.43234,-3.664902 L305.6765,-3.1204686 L305.92065,-2.6032572 L306.1648,-2.111906 L306.40897,-1.6451228 L306.6531,-1.2016785 L306.89725,-0.7804064 L307.14142,-0.380198 L307.38556,-0 L307.6297,-5.359281 L307.87384,-4.730129 L308.118,-4.1324344 L308.36215,-3.5646243 L308.6063,-8.745674 L308.85046,-7.947202 L309.0946,-7.188654 L309.33875,-12.188502 L309.58292,-11.217889 L309.82706,-10.295807 L310.0712,-9.419828 L310.31537,-8.587648 L310.5595,-7.797078 L310.80365,-7.046036 L311.04782,-6.332546 L311.29196,-5.654731 L311.5361,-10.731275 L311.78027,-9.833523 L312.0244,-14.701128 L312.26855,-13.604883 L312.51273,-12.563451 L312.75687,-11.574091 L313.001,-10.634198 L313.24518,-15.461769 L313.48932,-14.327493 L313.73346,-18.970398 L313.97763,-17.66069 L314.22177,-16.416468 L314.4659,-15.234456 L314.71008,-14.111546 L314.95422,-13.04478 L315.19836,-12.031353 L315.44254,-11.068597 L315.68668,-10.153979 L315.93082,-9.285092 L316.175,-8.459649 L316.41913,-7.675479 L316.66327,-6.9305167 L316.90744,-6.222803 L317.15158,-5.5504746 L317.39572,-4.9117627 L317.6399,-4.3049865 L317.88403,-3.728549 L318.12817,-8.901402 L318.3723,-19.536083 L318.6165,-18.19809 L318.86063,-16.926998 L319.10477,-21.439928 L319.34894,-20.006744 L319.59308,-18.645218 L319.83722,-17.35177 L320.0814,-16.122993 L320.32553,-20.676125 L320.56967,-19.28113 L320.81384,-23.676355 L321.05798,-27.851818 L321.30212,-26.098038 L321.5463,-30.152418 L321.79044,-28.28361 L322.03458,-26.50824 L322.27875,-24.82164 L322.5229,-28.939838 L322.76703,-27.131659 L323.0112,-25.413887 L323.25534,-23.782005 L323.49948,-22.231716 L323.74365,-26.479412 L323.9878,-24.794252 L324.23193,-23.193352 L324.4761,-27.392965 L324.72025,-25.66213 L324.9644,-24.017836 L325.20856,-22.455755 L325.4527,-20.971779 L325.69684,-19.562002 L325.941,-23.943182 L326.18515,-22.384836 L326.4293,-20.904406 L326.67346,-19.497997 L326.9176,-18.16191 L327.16174,-16.892626 L327.4059,-15.686807 L327.65005,-14.541278 L327.8942,-13.453026 L328.13837,-12.419187 L328.3825,-22.877977 L328.62665,-21.37289 L328.8708,-19.943058 L329.11496,-18.584717 L329.3591,-17.294292 L329.60324,-21.788858 L329.8474,-20.338228 L330.09155,-24.680597 L330.3357,-23.085379 L330.57986,-21.569921 L330.824,-20.130238 L331.06815,-18.762539 L331.31232,-17.463223 L331.55646,-21.949343 L331.8006,-26.211157 L332.04477,-24.539412 L332.2889,-22.951252 L332.53305,-32.88344 L332.77722,-30.878078 L333.02136,-28.972988 L333.2655,-27.163149 L333.50967,-25.443804 L333.7538,-23.810427 L333.99796,-22.258717 L334.24213,-20.784592 L334.48627,-25.104643 L334.7304,-29.208693 L334.97458,-27.38707 L335.21872,-25.656528 L335.46286,-24.012514 L335.70703,-22.4507 L335.95117,-26.687447 L336.1953,-24.991886 L336.43948,-23.381104 L336.68362,-21.85086 L336.92776,-20.39713 L337.17194,-19.016085 L337.41608,-23.42456 L337.66022,-21.892145 L337.9044,-26.156818 L338.14853,-24.48779 L338.39267,-22.902212 L338.63684,-21.395912 L338.88098,-19.96493 L339.12512,-24.325964 L339.36926,-22.748478 L339.61343,-21.249865 L339.85757,-19.826183 L340.1017,-18.473686 L340.3459,-22.909283 L340.59003,-27.1231 L340.83417,-25.405758 L341.07834,-23.77428 L341.32248,-22.224379 L341.56662,-20.751972 L341.8108,-19.353186 L342.05493,-18.024338 L342.29907,-16.761932 L342.54324,-21.283117 L342.78738,-19.857773 L343.03152,-18.503696 L343.2757,-17.217323 L343.51984,-21.715738 L343.76398,-25.989233 L344.00815,-24.328583 L344.2523,-28.471434 L344.49643,-26.686674 L344.7406,-24.991152 L344.98474,-29.100876 L345.22888,-27.284643 L345.47305,-25.559223 L345.7172,-23.920074 L345.96133,-22.362883 L346.2055,-20.88355 L346.44965,-19.478184 L346.6938,-18.143087 L346.93796,-16.874744 L347.1821,-15.66982 L347.42624,-14.525141 L347.6704,-13.4376955 L347.91455,-12.404622 L348.1587,-11.423203 L348.40286,-10.490855 L348.647,-9.605124 L348.89114,-8.7636795 L349.1353,-7.964308 L349.37946,-7.204904 L349.6236,-6.483471 L349.86774,-5.798109 L350.1119,-5.1470156 L350.35605,-4.5284767 L350.6002,-3.9408648 L350.84436,-3.3826334 L351.0885,-2.8523135 L351.33264,-8.068979 L351.5768,-13.024811 L351.82095,-12.0123825 L352.0651,-16.771044 L352.30927,-15.571303 L352.5534,-14.43155 L352.79755,-13.348784 L353.04172,-12.320157 L353.28586,-11.342961 L353.53,-10.414625 L353.77417,-9.532706 L354.0183,-8.694882 L354.26245,-19.339888 L354.50662,-18.011705 L354.75076,-16.749933 L354.9949,-15.551248 L355.23907,-14.4124975 L355.48322,-13.330685 L355.72736,-12.302962 L355.97153,-17.047094 L356.21567,-15.833551 L356.4598,-14.680686 L356.70398,-13.585464 L356.94812,-12.545002 L357.19226,-11.556564 L357.43643,-10.617548 L357.68057,-9.725482 L357.9247,-8.87802 L358.16888,-8.072931 L358.41302,-7.3080964 L358.65717,-6.5815034 L358.90134,-5.89124 L359.14548,-16.676428 L359.38962,-21.201887 L359.6338,-19.780605 L359.87793,-18.430387 L360.12207,-17.147678 L360.3662,-21.649576 L360.61038,-20.20591 L360.85452,-18.834425 L361.09866,-17.531517 L361.34283,-16.293753 L361.58698,-20.838346 L361.83112,-19.43524 L362.0753,-18.102291 L362.31943,-16.835987 L362.56357,-15.633 L362.80774,-14.490162 L363.05188,-13.404466 L363.29602,-12.3730545 L363.5402,-11.393213 L363.78433,-10.462365 L364.02847,-15.298528 L364.27264,-14.172413 L364.51678,-18.823072 L364.76093,-23.241201 L365.0051,-21.717953 L365.24924,-25.991335 L365.49338,-24.330582 L365.73755,-22.752863 L365.9817,-21.254032 L366.22583,-19.830143 L366.47,-18.477448 L366.71414,-17.192387 L366.95828,-21.692049 L367.20245,-20.246258 L367.4466,-18.872757 L367.69073,-17.56793 L367.9349,-27.769285 L368.17905,-26.019632 L368.4232,-24.357462 L368.66736,-22.7784 L368.9115,-21.278294 L369.15564,-19.85319 L369.3998,-18.499342 L369.64395,-17.213188 L369.8881,-15.99134 L370.13226,-14.830585 L370.3764,-25.168806 L370.62054,-23.549177 L370.8647,-22.01053 L371.10886,-31.989754 L371.353,-30.029078 L371.59714,-28.166435 L371.8413,-26.396925 L372.08545,-24.71589 L372.3296,-23.118908 L372.57376,-21.601776 L372.8179,-20.160498 L373.06204,-18.791285 L373.3062,-17.490534 L373.55035,-16.254818 L373.7945,-15.080889 L374.03867,-13.965656 L374.2828,-18.626656 L374.52695,-17.334133 L374.77112,-16.10624 L375.01526,-14.939739 L375.2594,-13.831564 L375.50357,-12.778797 L375.7477,-23.219608 L375.99185,-21.69744 L376.23602,-20.251379 L376.48016,-18.877623 L376.7243,-17.572554 L376.96848,-16.332737 L377.21262,-15.154912 L377.45676,-14.035978 L377.70093,-12.972991 L377.94507,-11.963154 L378.1892,-11.003808 L378.43338,-10.092429 L378.67752,-9.22662 L378.92166,-8.4041 L379.16583,-7.6227074 L379.40997,-18.321321 L379.6541,-17.044067 L379.8983,-21.551146 L380.14243,-20.1124 L380.38657,-18.745592 L380.63074,-17.447124 L380.87488,-16.21358 L381.11902,-15.041713 L381.36316,-13.928439 L381.60733,-12.870829 L381.85147,-11.866099 L382.0956,-10.911607 L382.33978,-10.004838 L382.58392,-9.143408 L382.82806,-8.325049 L383.07224,-7.547609 L383.31638,-6.80904 L383.56052,-11.827869 L383.8047,-10.875288 L384.04883,-9.970335 L384.29297,-14.8310995 L384.53714,-13.728356 L384.78128,-12.68075 L385.02542,-11.685525 L385.2696,-10.74006 L385.51373,-9.841869 L385.75787,-14.709057 L386.00204,-13.612415 L386.2462,-12.570607 L386.49033,-17.301357 L386.7345,-16.075102 L386.97864,-14.910158 L387.22278,-13.803462 L387.46695,-12.752101 L387.7111,-11.753308 L387.95523,-16.524923 L388.1994,-15.337489 L388.44354,-14.209427 L388.68768,-13.137767 L388.93185,-17.84016 L389.176,-16.586964 L389.42014,-15.396427 L389.6643,-14.265418 L389.90845,-18.911428 L390.1526,-17.604668 L390.39676,-16.363247 L390.6409,-20.904366 L390.88504,-19.49796 L391.1292,-18.161873 L391.37335,-16.892591 L391.6175,-15.686773 L391.86163,-14.541246 L392.1058,-13.452996 L392.34995,-12.419158 L392.5941,-11.437013 L392.83826,-16.224443 L393.0824,-15.052032 L393.32654,-19.658712 L393.5707,-29.755526 L393.81485,-33.62703 L394.059,-31.584492 L394.30316,-29.64408 L394.5473,-33.521156 L394.79144,-31.48391 L395.0356,-29.548527 L395.27975,-27.709911 L395.5239,-25.963228 L395.76807,-30.024347 L396.0122,-28.161942 L396.25635,-26.392656 L396.50052,-24.711836 L396.74466,-23.115055 L396.9888,-21.598114 L397.23297,-20.15702 L397.4771,-18.787981 L397.72125,-23.207863 L397.96542,-21.686283 L398.20956,-31.681719 L398.4537,-29.736444 L398.69788,-27.888433 L398.94202,-37.57376 L399.18616,-46.774822 L399.43033,-44.074894 L399.67447,-41.50996 L399.9186,-39.073277 L400.16278,-36.758423 L400.40692,-34.559315 L400.65106,-38.190628 L400.89523,-41.64038 L401.13937,-39.19717 L401.3835,-36.876125 L401.6277,-46.11207 L401.87183,-49.165745 L402.11597,-46.34627 L402.3601,-43.66777 L402.60428,-52.564133 L402.84842,-49.574738 L403.09256,-46.73481 L403.33673,-44.036884 L403.58087,-41.47385 L403.825,-39.03897 L404.06918,-36.725834 L404.31332,-34.528355 L404.55746,-32.440746 L404.80164,-30.457521 L405.04578,-28.573458 L405.28992,-26.783596 L405.5341,-25.08323 L405.77823,-23.46788 L406.02237,-21.933298 L406.26654,-20.475445 L406.51068,-24.810953 L406.75482,-23.209217 L406.999,-27.408037 L407.24313,-25.676447 L407.48727,-24.031437 L407.73145,-22.468678 L407.9756,-26.704523 L408.21973,-25.00811 L408.4639,-29.116985 L408.70804,-38.740887 L408.95218,-42.163124 L409.19635,-45.414246 L409.4405,-42.78235 L409.68463,-40.28204 L409.9288,-37.90675 L410.17294,-35.650227 L410.41708,-33.506527 L410.66125,-31.47001 L410.9054,-40.97626 L411.14954,-38.56626 L411.3937,-59.158634 L411.63785,-55.839516 L411.882,-52.68635 L412.12616,-49.690845 L412.3703,-69.72699 L412.61444,-71.59992 L412.85858,-73.3792 L413.10275,-69.34906 L413.3469,-65.52042 L413.59103,-67.603676 L413.8352,-81.02371 L414.07935,-76.611336 L414.3235,-83.86052 L414.56766,-79.306305 L414.8118,-74.979805 L415.05594,-70.86963 L415.3001,-72.685425 L415.54425,-74.41044 L415.7884,-87.490135 L416.03256,-82.75444 L416.2767,-89.696465 L416.52084,-84.85046 L416.765,-91.68768 L417.00916,-92.46258 L417.2533,-87.478264 L417.49747,-88.46363 L417.7416,-106.561134 L417.98575,-112.31283 L418.22992,-106.336 L418.47406,-117.81942 L418.7182,-111.56726 L418.96237,-111.348175 L419.2065,-105.41958 L419.45065,-105.50788 L419.69482,-122.753174 L419.93896,-116.254326 L420.1831,-110.08042 L420.42728,-109.935684 L420.67142,-104.07771 L420.91556,-98.51264 L421.15973,-104.666756 L421.40387,-99.07223 L421.648,-93.75743 L421.89218,-94.42884 L422.13632,-89.34621 L422.38046,-90.23818 L422.6246,-91.085556 L422.86877,-91.89056 L423.1129,-86.93484 L423.35706,-93.66785 L423.60123,-88.62327 L423.84537,-89.551384 L424.0895,-84.71263 L424.33368,-85.83628 L424.57782,-98.34468 L424.82196,-93.06626 L425.06613,-99.4927 L425.31027,-99.87734 L425.5544,-100.24276 L425.79858,-94.86943 L426.04272,-95.48524 L426.28687,-96.07026 L426.53104,-90.905556 L426.77518,-85.99909 L427.01932,-87.05842 L427.2635,-82.34431 L427.50763,-95.02731 L427.75177,-89.91476 L427.99594,-85.05783 L428.24008,-80.443756 L428.48422,-81.780846 L428.7284,-83.05109 L428.97253,-84.25781 L429.21667,-85.404205 L429.46085,-80.772804 L429.705,-76.37298 L429.94913,-72.19314 L430.1933,-68.22229 L430.43744,-64.44999 L430.68158,-66.58677 L430.92575,-62.896244 L431.1699,-59.390244 L431.41403,-56.059544 L431.6582,-52.89538 L431.90234,-49.889423 L432.14648,-47.033764 L432.39066,-44.32089 L432.6348,-41.743656 L432.87894,-45.01575 L433.12308,-42.403778 L433.36725,-39.9224 L433.6114,-37.56509 L433.85553,-35.32565 L434.0997,-50.359585 L434.34384,-47.48042 L434.58798,-44.74521 L434.83215,-42.14676 L435.0763,-39.678234 L435.32043,-43.053604 L435.5646,-46.260204 L435.80875,-43.586006 L436.0529,-41.045517 L436.29706,-44.352524 L436.5412,-47.49418 L436.78534,-44.75828 L437.0295,-42.15918 L437.27365,-39.690033 L437.5178,-37.34434 L437.76196,-35.115936 L438.0061,-32.99895 L438.25024,-36.708286 L438.49442,-34.511684 L438.73856,-32.42491 L438.9827,-30.442476 L439.22687,-28.559164 L439.471,-32.490486 L439.71515,-30.504774 L439.95932,-28.618347 L440.20346,-32.54671 L440.4476,-30.558187 L440.69177,-28.66909 L440.9359,-26.874447 L441.18005,-30.890007 L441.42422,-28.984318 L441.66837,-32.894382 L441.9125,-30.888475 L442.15668,-34.70333 L442.40082,-32.60698 L442.64496,-30.61544 L442.88913,-28.72348 L443.13327,-26.926119 L443.3774,-25.218624 L443.62155,-23.596506 L443.86572,-22.055492 L444.10986,-20.59153 L444.354,-19.200766 L444.59818,-17.879538 L444.84232,-22.344843 L445.08646,-32.30735 L445.33063,-30.330795 L445.57477,-28.453066 L445.8189,-32.389694 L446.06308,-30.409021 L446.30722,-39.96832 L446.55136,-37.608715 L446.79553,-35.367092 L447.03967,-33.23755 L447.2838,-31.214483 L447.52798,-29.292572 L447.77213,-38.907692 L448.01627,-36.60112 L448.26044,-34.409878 L448.50458,-32.328194 L448.74872,-36.071064 L448.9929,-39.626793 L449.23703,-37.284264 L449.48117,-40.77933 L449.72534,-44.099648 L449.96948,-41.533478 L450.21362,-39.095615 L450.4578,-36.779648 L450.70193,-34.579475 L450.94608,-32.489315 L451.19025,-30.50366 L451.4344,-28.617289 L451.67853,-26.825235 L451.9227,-30.843256 L452.16684,-28.939905 L452.41098,-27.131721 L452.65515,-25.413946 L452.8993,-23.78206 L453.14343,-22.23177 L453.3876,-37.920403 L453.63174,-35.663193 L453.8759,-33.518845 L454.12003,-42.922653 L454.3642,-40.415333 L454.60834,-38.03338 L454.85248,-35.77052 L455.09665,-33.620808 L455.3408,-31.578577 L455.58493,-29.63846 L455.8291,-27.79535 L456.07324,-31.764862 L456.31738,-29.815432 L456.56155,-27.963472 L456.8057,-26.204111 L457.04984,-24.532717 L457.294,-34.38583 L457.53815,-32.30535 L457.7823,-30.328896 L458.02646,-28.451263 L458.2706,-26.667511 L458.51474,-24.972948 L458.7589,-23.363111 L459.00305,-27.554237 L459.2472,-25.815338 L459.49136,-24.163382 L459.7355,-22.594025 L459.97964,-21.103136 L460.22382,-19.68679 L460.46796,-29.782202 L460.7121,-27.931904 L460.95627,-26.17412 L461.2004,-24.504227 L461.44455,-22.917826 L461.68872,-27.131216 L461.93286,-31.133936 L462.177,-29.216051 L462.42117,-38.835 L462.6653,-42.25253 L462.90945,-39.778713 L463.15363,-37.428593 L463.39777,-35.195972 L463.6419,-33.074986 L463.88608,-31.06005 L464.13022,-40.586796 L464.37436,-38.19627 L464.6185,-35.925266 L464.86267,-33.767815 L465.1068,-31.718237 L465.35095,-29.771137 L465.59512,-27.921392 L465.83926,-26.164135 L466.0834,-24.49474 L466.32758,-22.908813 L466.57172,-21.402185 L466.81586,-19.970888 L467.06003,-18.611156 L467.30417,-23.039879 L467.5483,-21.526697 L467.79248,-20.089174 L468.03662,-18.723528 L468.28076,-17.426163 L468.52493,-16.193666 L468.76907,-20.743263 L469.0132,-19.344913 L469.2574,-18.01648 L469.50153,-16.754467 L469.74567,-26.996494 L469.98984,-36.726418 L470.23398,-40.24938 L470.47812,-37.87572 L470.7223,-35.620747 L470.96643,-33.478523 L471.21057,-31.443407 L471.45474,-40.95099 L471.69888,-38.54225 L471.94302,-36.25395 L472.1872,-34.080063 L472.43134,-32.014874 L472.67548,-30.05294 L472.91965,-28.189106 L473.1638,-32.13893 L473.40793,-35.891266 L473.6521,-33.735516 L473.89624,-31.68755 L474.14038,-29.741985 L474.38455,-27.893698 L474.6287,-37.578762 L474.87283,-35.338634 L475.11697,-33.210518 L475.36115,-31.188803 L475.6053,-29.268173 L475.84943,-33.164047 L476.0936,-31.144655 L476.33774,-29.226234 L476.58188,-27.403734 L476.82605,-25.67236 L477.0702,-24.027554 L477.31433,-22.464989 L477.5585,-20.98055 L477.80264,-19.570335 L478.04678,-18.23063 L478.29095,-16.95791 L478.5351,-15.748827 L478.77924,-14.600198 L479.0234,-19.22947 L479.26755,-17.906807 L479.5117,-16.650278 L479.75586,-15.456576 L480,-14.322559" fill="none" stroke="black" stroke-linejoin="round" stroke-width="2"/>
</g>
</g>
<g>
<g>
<line stroke="black" stroke-width="1" x1="0" x2="0" y1="0" y2="10"/>
<line stroke="black" stroke-width="1" x1="97.66022380467955" x2="97.66022380467955" y1="0" y2="10"/>
<line stroke="black" stroke-width="1" x1="195.3204476093591" x2="195.3204476093591" y1="0" y2="10"/>
<line stroke="black" stroke-width="1" x1="292.9806714140387" x2="292.9806714140387" y1="0" y2="10"/>
<line stroke="black" stroke-width="1" x1="390.6408952187182" x2="390.6408952187182" y1="0" y2="10"/>
</g>
<line stroke="black" stroke-width="1" x1="0" x2="480" y1="0" y2="0"/>
<g>
<text font-size="12" text-anchor="middle" x="0" y="20">
0
</text>
<text font-size="12" text-anchor="middle" x="97.66022380467955" y="20">
400
</text>
<text font-size="12" text-anchor="middle" x="195.3204476093591" y="20">
800
</text>
<text font-size="12" text-anchor="middle" x="292.9806714140387" y="20">
1200
</text>
<text font-size="12" text-anchor="middle" x="390.6408952187182" y="20">
1600
</text>
</g>
<text font-size="12" text-anchor="middle" x="240" y="30">

</text>
</g>
<g>
<g>
<line stroke="black" stroke-width="1" x1="0" x2="-10" y1="-0.000046077766788133313" y2="-0.000046077766788133313"/>
<line stroke="black" stroke-width="1" x1="0" x2="-10" y1="-57.20473640289854" y2="-57.20473640289854"/>
<line stroke="black" stroke-width="1" x1="0" x2="-10" y1="-114.40942672803028" y2="-114.40942672803028"/>
<line stroke="black" stroke-width="1" x1="0" x2="-10" y1="-171.61411705316203" y2="-171.61411705316203"/>
<line stroke="black" stroke-width="1" x1="0" x2="-10" y1="-228.8188073782937" y2="-228.8188073782937"/>
<line stroke="black" stroke-width="1" x1="0" x2="-10" y1="-286.02349770342545" y2="-286.02349770342545"/>
</g>
<line stroke="black" stroke-width="1" x1="0" x2="0" y1="0" y2="-340"/>
<g>
<text dominant-baseline="middle" font-size="12" text-anchor="end" x="-15" y="-0.000046077766788133313">
4.12628
</text>
<text dominant-baseline="middle" font-size="12" text-anchor="end" x="-15" y="-57.20473640289854">
5.12628
</text>
<text dominant-baseline="middle" font-size="12" text-anchor="end" x="-15" y="-114.40942672803028">
6.12628
</text>
<text dominant-baseline="middle" font-size="12" text-anchor="end" x="-15" y="-171.61411705316203">
7.12628
</text>
<text dominant-baseline="middle" font-size="12" text-anchor="end" x="-15" y="-228.8188073782937">
8.12628
</text>
<text dominant-baseline="middle" font-size="12" text-anchor="end" x="-15" y="-286.02349770342545">
9.12628
</text>
</g>
<text font-size="12" text-anchor="middle" transform="rotate(-90 -84 -170)" x="-84" y="-182">

</text>
</g>
</g>
</svg>