<svg viewBox="0 0 600 400" xmlns="http://www.w3.org/2000/svg">
<g transform="translate(72, 364)">
<g>
<g>
<path d="M0,-52.520973 L0,-52.520973 L0.56537104,-86.15342 L1.1307421,-116.42262 L1.6961131,-143.6649 L2.2614841,-125.47509 L2.8268552,-151.81213 L3.3922262,-175.51546 L3.9575973,-154.1406 L4.5229683,-177.61108 L5.0883393,-198.73451 L5.6537104,-217.7456 L6.2190814,-216.1709 L6.7844524,-233.43835 L7.3498235,-248.97906 L7.9151945,-254.95798 L8.480565,-268.34674 L9.045937,-280.3966 L9.611307,-291.2415 L10.176679,-301.0019 L10.742049,-309.78625 L11.307421,-304.34595 L11.872791,-267.4188 L12.438163,-260.87677 L13.003533,-244.31198 L13.568905,-240.08063 L14.134275,-254.9571 L14.699647,-268.34595 L15.2650175,-237.68803 L15.830389,-252.80377 L16.39576,-266.40793 L16.96113,-278.6517 L17.526503,-289.67108 L18.091873,-299.5885 L18.657244,-297.83725 L19.222614,-293.59186 L19.787987,-303.11722 L20.353357,-311.69003 L20.918728,-290.0439 L21.484098,-299.92407 L22.04947,-274.11606 L22.614841,-285.58902 L23.180212,-293.24542 L23.745583,-262.76678 L24.310953,-275.37466 L24.876326,-286.72174 L25.441696,-296.9341 L26.007067,-306.12524 L26.572437,-314.39728 L27.13781,-321.84207 L27.70318,-328.54242 L28.26855,-334.57272 L28.833921,-340 L29.399294,-326.19986 L29.964664,-332.46442 L30.530035,-308.74084 L31.095406,-276.71268 L31.660778,-279.91824 L32.226147,-250.77234 L32.79152,-240.55647 L33.35689,-220.68523 L33.92226,-192.12413 L34.487633,-177.09612 L35.053005,-152.89394 L35.618374,-173.81985 L36.183746,-149.9453 L36.749115,-139.13516 L37.314487,-164.1062 L37.87986,-186.58012 L38.44523,-164.09879 L39.0106,-186.57346 L39.575974,-193.45444 L40.141342,-178.2934 L40.706715,-191.34088 L41.272083,-211.09134 L41.837456,-199.5051 L42.40283,-178.4005 L42.968197,-170.08333 L43.53357,-162.59789 L44.09894,-161.19946 L44.66431,-143.92543 L45.229683,-160.40971 L45.79505,-143.21466 L46.360424,-127.739105 L46.925797,-135.16505 L47.491165,-131.17143 L48.056538,-111.561714 L48.621906,-104.58994 L49.18728,-119.66929 L49.75265,-101.20979 L50.31802,-87.26549 L50.883392,-77.38486 L51.448765,-108.530914 L52.014133,-136.56236 L52.579506,-153.78296 L53.144875,-147.92754 L53.710247,-172.01933 L54.27562,-193.70195 L54.84099,-178.51616 L55.40636,-154.17197 L55.971733,-137.6007 L56.5371,-154.71744 L57.102474,-164.78403 L57.667843,-141.81306 L58.233215,-137.15465 L58.798588,-116.94661 L59.363956,-120.11332 L59.92933,-106.9479 L60.4947,-100.43751 L61.06007,-89.23968 L61.625443,-111.19253 L62.19081,-93.58071 L62.756184,-77.73007 L63.321556,-74.141464 L63.886925,-60.23475 L64.45229,-79.74961 L65.01767,-70.62057 L65.58304,-62.404427 L66.14841,-76.36384 L66.71378,-62.234886 L67.27915,-86.888214 L67.84452,-77.04531 L68.4099,-78.86366 L68.975266,-101.85412 L69.540634,-90.514626 L70.10601,-120.34771 L70.67138,-104.48961 L71.23675,-124.91747 L71.80212,-105.93316 L72.36749,-94.18575 L72.93286,-78.27461 L73.49823,-69.29307 L74.06361,-98.57906 L74.628975,-119.59798 L75.19434,-106.4841 L75.75972,-94.6816 L76.32509,-78.72088 L76.89046,-109.73334 L77.45583,-102.944405 L78.0212,-91.49588 L78.58657,-75.85372 L79.15195,-107.15289 L79.717316,-135.32216 L80.282684,-160.67448 L80.84805,-138.11447 L81.41343,-128.48743 L81.9788,-154.52322 L82.54417,-148.59378 L83.10954,-127.241844 L83.67491,-140.056 L84.24028,-146.25024 L84.80566,-170.50977 L85.371025,-192.34334 L85.93639,-211.99355 L86.50177,-186.97087 L87.06714,-207.15833 L87.63251,-179.94994 L88.19788,-155.46237 L88.76325,-144.10052 L89.32862,-168.57503 L89.89399,-150.56345 L90.459366,-174.39165 L91.024734,-161.13687 L91.5901,-143.86911 L92.15548,-122.98963 L92.72085,-104.1981 L93.28622,-87.28572 L93.85159,-117.441696 L94.41696,-99.204956 L94.98233,-82.79189 L95.54771,-78.697105 L96.113075,-69.67331 L96.678444,-56.213413 L97.24381,-44.099503 L97.80919,-38.53547 L98.37456,-33.52784 L98.939926,-50.37491 L99.5053,-38.84485 L100.07067,-73.84491 L100.63604,-105.34496 L101.201416,-107.002594 L101.766785,-105.82522 L102.33215,-94.088615 L102.89753,-120.89506 L103.4629,-102.31298 L104.02827,-90.927605 L104.59364,-107.37318 L105.15901,-111.49723 L105.72438,-109.87039 L106.28975,-108.406235 L106.855125,-96.41153 L107.420494,-90.95477 L107.98586,-120.74384 L108.55124,-147.554 L109.11661,-171.68315 L109.68198,-193.39938 L110.24735,-212.94398 L110.81272,-230.53413 L111.37809,-238.35754 L111.94347,-224.04468 L112.508835,-200.48613 L113.0742,-184.62192 L113.63958,-159.66716 L114.20495,-137.20787 L114.77032,-133.00996 L115.335686,-118.554886 L115.90106,-100.20683 L116.46643,-89.03207 L117.0318,-73.63629 L117.597176,-59.780094 L118.162544,-57.986485 L118.72791,-51.033752 L119.29329,-39.43781 L119.85866,-66.37085 L120.42403,-53.241196 L120.9894,-41.42451 L121.55477,-41.466457 L122.12014,-73.53512 L122.68551,-75.70449 L123.250885,-61.64147 L123.81625,-75.67718 L124.38162,-72.29386 L124.947,-85.26433 L125.51237,-115.622444 L126.077736,-142.94475 L126.64311,-146.18088 L127.20848,-130.4087 L127.77385,-116.21375 L128.33922,-108.77678 L128.90459,-96.74502 L129.46997,-125.95506 L130.03534,-152.2441 L130.60071,-175.90424 L131.16608,-173.17519 L131.73145,-160.04207 L132.29681,-137.54529 L132.8622,-162.67531 L133.42757,-185.29233 L133.99294,-205.64764 L134.5583,-223.96742 L135.12367,-197.74734 L135.68904,-171.48006 L136.25441,-147.83948 L136.8198,-126.562965 L137.38516,-107.4141 L137.95053,-90.18012 L138.5159,-90.68499 L139.08127,-80.46241 L139.64664,-76.60057 L140.21202,-94.47885 L140.77739,-83.87688 L141.34276,-74.335106 L141.90813,-65.74751 L142.4735,-74.034134 L143.03886,-105.51527 L143.60423,-109.8251 L144.16962,-97.688515 L144.73499,-86.76558 L145.30035,-71.59645 L145.86572,-63.282722 L146.43109,-95.839 L146.99646,-125.13964 L147.56184,-151.51022 L148.12721,-175.24374 L148.69258,-151.2268 L149.25795,-150.9655 L149.82332,-145.39183 L150.38869,-135.03705 L150.95407,-131.05623 L151.51944,-116.796524 L152.08481,-98.6243 L152.65018,-92.94627 L153.21555,-103.851494 L153.78091,-86.97378 L154.34628,-93.13777 L154.91167,-82.66991 L155.47704,-67.91035 L156.0424,-54.626747 L156.60777,-64.025444 L157.17314,-61.807297 L157.73851,-59.810966 L158.3039,-58.01427 L158.86926,-67.07421 L159.43463,-59.212708 L160,-46.79887 L160.56537,-51.64187 L161.13074,-66.677536 L161.6961,-98.894325 L162.26149,-127.88944 L162.82686,-129.96187 L163.39223,-155.85022 L163.9576,-179.14975 L164.52296,-184.10387 L165.08833,-169.87788 L165.65372,-151.73601 L166.21909,-130.06984 L166.78445,-142.6012 L167.34982,-121.8485 L167.91519,-113.84805 L168.48056,-106.64765 L169.04593,-94.828804 L169.61131,-78.853355 L170.17668,-101.84484 L170.74205,-85.167786 L171.30742,-70.15844 L171.87279,-94.01942 L172.43816,-94.14036 L173.00354,-123.61087 L173.56891,-150.13432 L174.13428,-155.32076 L174.69965,-133.29611 L175.26501,-113.47393 L175.83038,-116.98791 L176.39577,-104.13503 L176.96114,-103.24441 L177.5265,-91.765884 L178.09187,-86.7737 L178.65724,-79.61149 L179.22261,-70.496254 L179.78798,-83.646484 L180.35336,-90.1432 L180.91873,-95.99025 L181.4841,-85.237144 L182.04947,-75.55934 L182.61484,-66.84933 L183.1802,-91.041214 L183.74559,-118.1524 L184.31096,-126.53701 L184.87633,-152.76785 L185.4417,-176.37561 L186.00706,-189.61487 L186.57243,-174.83778 L187.1378,-182.89235 L187.70319,-174.12599 L188.26855,-187.59021 L188.83392,-162.33862 L189.39929,-144.95068 L189.96466,-169.34016 L190.53003,-151.25206 L191.09541,-175.0114 L191.66078,-151.01768 L192.22615,-140.10033 L192.79152,-124.93621 L193.35689,-105.95002 L193.92226,-88.86245 L194.48763,-94.83757 L195.05301,-124.238365 L195.61838,-110.66044 L196.18375,-93.10183 L196.74911,-82.637566 L197.31448,-113.258354 L197.87985,-132.80934 L198.44524,-118.37432 L199.0106,-116.05978 L199.57597,-129.99213 L200.14134,-126.5158 L200.70671,-152.74876 L201.27208,-141.6583 L201.83746,-126.33838 L202.40283,-112.55046 L202.9682,-94.80284 L203.53357,-78.829994 L204.09894,-109.83154 L204.6643,-95.02506 L205.22968,-105.722404 L205.79506,-88.6576 L206.36043,-118.676384 L206.9258,-132.34708 L207.49117,-112.619804 L208.05653,-100.20374 L208.6219,-129.06792 L209.18729,-120.34552 L209.75266,-107.15689 L210.31802,-89.94863 L210.88339,-85.13817 L211.44876,-86.14724 L212.01413,-76.378426 L212.5795,-62.248016 L213.14488,-94.90776 L213.71025,-124.30154 L214.27562,-150.75592 L214.84099,-174.56488 L215.40636,-153.28506 L215.97173,-174.17186 L216.53711,-195.63922 L217.10248,-214.95985 L217.66785,-232.3484 L218.23322,-213.29797 L218.79858,-222.84499 L219.36395,-194.06793 L219.92932,-173.50705 L220.4947,-181.69469 L221.06007,-189.06355 L221.62544,-185.01857 L222.19081,-181.37807 L222.75618,-156.7477 L223.32155,-134.58037 L223.88693,-114.62976 L224.4523,-96.67422 L225.01767,-107.20664 L225.58304,-135.37053 L226.1484,-115.340904 L226.71378,-102.65273 L227.27916,-96.57186 L227.84453,-80.422104 L228.4099,-76.56429 L228.97527,-73.09227 L229.54063,-104.66759 L230.106,-133.08537 L230.67137,-145.31517 L231.23676,-150.9835 L231.80212,-150.74652 L232.3675,-174.55643 L232.93286,-179.96988 L233.49823,-200.85744 L234.0636,-174.27911 L234.62898,-195.73575 L235.19435,-215.04672 L235.75972,-187.04948 L236.32509,-167.19046 L236.89046,-159.9943 L237.45583,-137.50229 L238.0212,-162.63661 L238.58658,-185.25749 L239.15195,-168.2469 L239.71732,-190.30676 L240.28268,-164.78352 L240.84805,-152.48956 L241.41342,-176.12515 L241.9788,-197.39719 L242.54417,-216.542 L243.10954,-204.41069 L243.67491,-177.47707 L244.24028,-163.91376 L244.80565,-186.40692 L245.37102,-206.65077 L245.9364,-179.49313 L246.50177,-155.05125 L247.06714,-138.39204 L247.6325,-118.06027 L248.19788,-121.115616 L248.76324,-113.18845 L249.32863,-140.75415 L249.894,-165.56328 L250.45937,-158.52985 L251.02473,-136.1843 L251.5901,-161.45041 L252.15547,-184.18991 L252.72084,-204.65547 L253.28622,-223.07446 L253.8516,-239.65157 L254.41696,-254.57095 L254.98233,-267.9984 L255.5477,-240.04448 L256.11307,-220.22444 L256.67844,-191.70943 L257.2438,-171.3844 L257.80917,-163.76884 L258.37457,-151.57635 L258.93994,-156.61858 L259.5053,-171.83354 L260.07068,-153.4961 L260.63605,-158.34634 L261.20142,-141.35762 L261.76678,-120.729294 L262.33215,-102.163795 L262.89752,-90.793335 L263.4629,-85.8984 L264.02826,-70.815994 L264.59363,-67.91879 L265.159,-54.634346 L265.7244,-53.355312 L266.28976,-41.527214 L266.85513,-68.25131 L267.4205,-76.28755 L267.98587,-83.520164 L268.55124,-68.67558 L269.1166,-60.65394 L269.68198,-48.095978 L270.24734,-63.486233 L270.8127,-66.66049 L271.37808,-53.501877 L271.94345,-52.33609 L272.50882,-67.30233 L273.07422,-64.7565 L273.6396,-83.81918 L274.20496,-114.321815 L274.77032,-99.06631 L275.3357,-128.04422 L275.90106,-114.08572 L276.46643,-96.18458 L277.0318,-125.45067 L277.59717,-151.79015 L278.16254,-175.49568 L278.7279,-196.83066 L279.29327,-208.02441 L279.85864,-218.09879 L280.42404,-195.13483 L280.9894,-169.12878 L281.55478,-167.07727 L282.12015,-149.21545 L282.68552,-133.13983 L283.2509,-113.333275 L283.81625,-111.522835 L284.38162,-93.87798 L284.947,-83.3361 L285.51236,-73.848404 L286.07773,-59.971 L286.6431,-47.48133 L287.20847,-41.579113 L287.77386,-30.928637 L288.33923,-37.358658 L288.9046,-48.484158 L289.46997,-63.835594 L290.03534,-61.636436 L290.6007,-86.34961 L291.16608,-103.25299 L291.73145,-113.12754 L292.2968,-100.660706 L292.86218,-126.80994 L293.42755,-128.99031 L293.99292,-146.96811 L294.55832,-136.45569 L295.1237,-161.69467 L295.68906,-184.40974 L296.25443,-204.85332 L296.8198,-223.25253 L297.38516,-239.81183 L297.95053,-254.7152 L298.5159,-265.45898 L299.08127,-232.42052 L299.64664,-240.05528 L300.212,-214.89568 L300.77737,-218.94444 L301.34274,-235.93454 L301.90814,-221.86397 L302.4735,-193.18501 L303.03888,-167.37393 L303.60425,-144.14398 L304.16962,-168.61412 L304.735,-150.59863 L305.30035,-145.06165 L305.86572,-134.73988 L306.4311,-141.46574 L306.99646,-131.50357 L307.56183,-157.23776 L308.1272,-180.39853 L308.69257,-201.24323 L309.25797,-179.96481 L309.82333,-155.47577 L310.3887,-138.77411 L310.95407,-129.0811 L311.51944,-115.018906 L312.0848,-107.701416 L312.65018,-90.438705 L313.21555,-117.61014 L313.7809,-144.73367 L314.34628,-129.10622 L314.91165,-115.04152 L315.47702,-118.398735 L316.0424,-105.40478 L316.6078,-109.72567 L317.17316,-113.61447 L317.73853,-111.77591 L318.3039,-99.44423 L318.86926,-104.361176 L319.43463,-108.78643 L320,-123.44612 L320.56537,-131.30136 L321.13074,-117.01714 L321.6961,-125.51528 L322.26147,-151.8483 L322.82684,-132.84015 L323.3922,-118.40205 L323.9576,-100.069275 L324.52298,-83.56978 L325.08835,-68.72023 L325.65372,-60.694126 L326.2191,-58.809113 L326.78445,-91.81275 L327.34982,-118.84678 L327.9152,-145.84665 L328.48056,-170.14653 L329.04593,-192.01642 L329.6113,-168.99146 L330.17667,-156.2767 L330.74203,-139.49495 L331.30743,-164.43001 L331.8728,-186.87155 L332.43817,-207.06894 L333.00354,-179.86948 L333.5689,-155.38997 L334.13428,-178.73552 L334.69965,-199.7465 L335.265,-218.6564 L335.83038,-200.97516 L336.39575,-179.72357 L336.96112,-155.25864 L337.5265,-159.93263 L338.09186,-182.82391 L338.65726,-203.42607 L339.22263,-221.968 L339.788,-238.65575 L340.35336,-208.2976 L340.91873,-186.31377 L341.4841,-161.18982 L342.04947,-149.25523 L342.61484,-143.8526 L343.1802,-128.31326 L343.74557,-119.66633 L344.31094,-101.20713 L344.8763,-89.932335 L345.44168,-90.46198 L346.00708,-85.60019 L346.57245,-86.56305 L347.13782,-114.122055 L347.7032,-96.21728 L348.26855,-101.45692 L348.83392,-127.526535 L349.3993,-113.6198 L349.96466,-106.442215 L350.53003,-94.64391 L351.0954,-124.064064 L351.66077,-110.50358 L352.22614,-124.991554 L352.79153,-105.99983 L353.3569,-115.5997 L353.92227,-102.88565 L354.48764,-118.13542 L355.053,-105.16779 L355.61838,-88.15845 L356.18375,-118.22715 L356.7491,-99.911865 L357.31448,-83.42811 L357.87985,-68.592735 L358.44522,-55.24089 L359.0106,-53.901203 L359.57596,-42.018517 L360.14136,-76.70121 L360.70673,-107.915634 L361.2721,-93.30074 L361.83746,-122.85522 L362.40283,-149.45424 L362.9682,-173.39337 L363.53357,-194.93857 L364.09894,-214.32927 L364.6643,-231.78088 L365.22968,-212.7872 L365.79504,-185.01591 L366.3604,-165.36023 L366.92578,-142.33165 L367.49118,-126.9444 L368.05655,-113.09587 L368.62192,-140.67084 L369.1873,-130.78815 L369.75266,-121.89373 L370.31802,-119.22724 L370.8834,-111.48892 L371.44876,-109.862915 L372.01413,-108.399506 L372.5795,-101.74396 L373.14487,-130.4541 L373.71024,-156.29324 L374.2756,-179.54846 L374.841,-200.47816 L375.40637,-219.3149 L375.97174,-236.26794 L376.5371,-206.14859 L377.10248,-189.71812 L377.66785,-164.25375 L378.23322,-141.3358 L378.79858,-120.709656 L379.36395,-123.50006 L379.92932,-150.0346 L380.4947,-128.53857 L381.06006,-114.53063 L381.62543,-117.938934 L382.19083,-99.65247 L382.7562,-117.894806 L383.32156,-144.98987 L383.88693,-129.3368 L384.4523,-115.24904 L385.01767,-142.60867 L385.58304,-121.85525 L386.1484,-108.51564 L386.71378,-101.84847 L387.27914,-85.17106 L387.8445,-75.49987 L388.40988,-77.47276 L388.97525,-108.61004 L389.54065,-136.63358 L390.10602,-119.1469 L390.6714,-132.77054 L391.23676,-139.69334 L391.80212,-129.9084 L392.3675,-126.44045 L392.93286,-123.31929 L393.49823,-104.4948 L394.0636,-92.89123 L394.62897,-82.44802 L395.19434,-67.710655 L395.7597,-59.785503 L396.32507,-47.31439 L396.89047,-36.09038 L397.45584,-36.66574 L398.0212,-31.845085 L398.58658,-22.168009 L399.15195,-24.135609 L399.71732,-15.22948 L400.28268,-7.213964 L400.84805,-0 L401.41342,-38.88455 L401.9788,-28.503525 L402.54416,-56.52999 L403.10953,-44.384426 L403.67493,-44.130383 L404.2403,-70.59416 L404.80566,-67.71915 L405.37103,-54.454666 L405.9364,-69.20905 L406.50177,-61.134064 L407.06714,-80.55899 L407.6325,-76.68749 L408.19788,-89.2186 L408.76324,-119.18128 L409.3286,-146.1477 L409.89398,-141.05582 L410.45935,-120.457664 L411.02475,-107.25782 L411.59012,-90.03947 L412.1555,-119.92007 L412.72086,-101.43549 L413.28622,-95.47634 L413.8516,-90.11311 L414.41696,-79.947716 L414.98233,-65.46037 L415.5477,-68.437225 L416.11307,-87.131836 L416.67844,-103.95699 L417.2438,-129.7766 L417.80917,-131.66031 L418.37457,-112.00171 L418.93994,-104.98594 L419.5053,-120.02568 L420.07068,-146.90765 L420.63605,-171.10144 L421.20142,-150.16797 L421.76678,-174.03572 L422.33215,-195.5167 L422.89752,-180.14943 L423.4629,-171.65736 L424.02826,-153.33754 L424.59363,-136.8497 L425.159,-132.68762 L425.7244,-128.94174 L426.28976,-141.5859 L426.85513,-158.30414 L427.4205,-135.98116 L427.98587,-115.89047 L428.55124,-124.501274 L429.1166,-105.55858 L429.68198,-99.187126 L430.24734,-114.80675 L430.8127,-123.525925 L431.37808,-104.68076 L431.94345,-93.0586 L432.50882,-87.93714 L433.07422,-118.02798 L433.6396,-145.10973 L434.20496,-129.44467 L434.77032,-120.6846 L435.3357,-139.49297 L435.90106,-164.4282 L436.46643,-186.86993 L437.0318,-207.06749 L437.59717,-185.20667 L438.16254,-205.57054 L438.7279,-213.22107 L439.29327,-206.76033 L439.85864,-224.96884 L440.42404,-241.3565 L440.9894,-221.40526 L441.55478,-214.1261 L442.12015,-196.89789 L442.68552,-216.09264 L443.2509,-233.36792 L443.81625,-227.56174 L444.38162,-243.69011 L444.947,-218.16702 L445.51236,-205.8732 L446.07773,-189.47028 L446.6431,-209.4078 L447.20847,-227.35156 L447.77386,-214.1393 L448.33923,-186.2328 L448.9046,-182.47089 L449.46997,-195.10062 L450.03534,-211.80586 L450.6007,-189.47119 L451.16608,-174.70847 L451.73145,-156.08354 L452.2968,-144.65959 L452.86218,-129.03955 L453.42755,-155.02014 L453.99292,-133.02556 L454.55832,-118.56892 L455.1237,-100.21946 L455.68906,-99.7204 L456.25443,-120.625175 L456.8198,-107.40858 L457.38516,-106.190605 L457.95053,-115.77139 L458.5159,-108.378654 L459.08127,-107.063675 L459.64664,-135.24185 L460.212,-160.60222 L460.77737,-140.71867 L461.34274,-157.52362 L461.90814,-172.64809 L462.4735,-191.59857 L463.03888,-211.32326 L463.60425,-229.07549 L464.16962,-245.05247 L464.735,-259.4318 L465.30035,-272.37314 L465.86572,-284.0204 L466.4311,-294.5029 L466.99646,-303.93713 L467.56183,-312.42798 L468.1272,-320.06973 L468.69257,-326.9473 L469.25797,-333.13712 L469.82333,-296.0001 L470.3887,-305.2846 L470.95407,-289.61752 L471.51944,-259.50168 L472.0848,-253.75137 L472.65018,-227.22215 L473.21555,-198.00737 L473.7809,-171.71407 L474.34628,-153.38858 L474.91165,-142.23412 L475.47702,-126.85662 L476.0424,-113.01688 L476.6078,-95.22262 L477.17316,-79.207794 L477.73853,-80.8099 L478.3039,-82.25179 L478.86926,-83.5495 L479.43463,-74.04047 L480,-76.1593" fill="none" stroke="black" stroke-linejoin="round" stroke-width="2"/>
</g>
</g>
<g>
<g>
<line stroke="black" stroke-width="1" x1="0" x2="0" y1="0" y2="10"/>
<line stroke="black" stroke-width="1" x1="113.07420494699646" x2="113.07420494699646" y1="0" y2="10"/>
<line stroke="black" stroke-width="1" x1="226.14840989399292" x2="226.14840989399292" y1="0" y2="10"/>
<line stroke="black" stroke-width="1" x1="339.2226148409894" x2="339.2226148409894" y1="0" y2="10"/>
<line stroke="black" stroke-width="1" x1="452.29681978798584" x2="452.29681978798584" y1="0" y2="10"/>
</g>
<line stroke="black" stroke-width="1" x1="0" x2="480" y1="0" y2="0"/>
<g>
<text font-size="12" text-anchor="middle" x="0" y="20">
0
</text>
<text font-size="12" text-anchor="middle" x="113.07420494699646" y="20">
200
</text>
<text font-size="12" text-anchor="middle" x="226.14840989399292" y="20">
400
</text>
<text font-size="12" text-anchor="middle" x="339.2226148409894" y="20">
600
</text>
<text font-size="12" text-anchor="middle" x="452.29681978798584" y="20">
800
</text>
</g>
<text font-size="12" text-anchor="middle" x="240" y="30">

</text>
</g>
<g>
<g>
<line stroke="black" stroke-width="1" x1="0" x2="-10" y1="0.00010160754093830739" y2="0.00010160754093830739"/>
<line stroke="black" stroke-width="1" x1="0" x2="-10" y1="-106.76957840629346" y2="-106.76957840629346"/>
<line stroke="black" stroke-width="1" x1="0" x2="-10" y1="-213.53925842012785" y2="-213.53925842012785"/>
<line stroke="black" stroke-width="1" x1="0" x2="-10" y1="-320.3089384339623" y2="-320.3089384339623"/>
</g>
<line stroke="black" stroke-width="1" x1="0" x2="0" y1="0" y2="-340"/>
<g>
<text dominant-baseline="middle" font-size="12" text-anchor="end" x="-15" y="0.00010160754093830739">
6.43236
</text>
<text dominant-baseline="middle" font-size="12" text-anchor="end" x="-15" y="-106.76957840629346">
10.43236
</text>
<text dominant-baseline="middle" font-size="12" text-anchor="end" x="-15" y="-213.53925842012785">
14.43236
</text>
<text dominant-baseline="middle" font-size="12" text-anchor="end" x="-15" y="-320.3089384339623">
18.43236
</text>
</g>
<text font-size="12" text-anchor="middle" transform="rotate(-90 -96 -170)" x="-96" y="-182">

</text>
</g>
</g>
</svg>