<svg viewBox="0 0 600 400" xmlns="http://www.w3.org/2000/svg">
<g transform="translate(72, 364)">
<g>
<g>
<path d="M0,-23.086363 L0,-23.086363 L0.21798365,-20.557262 L0.4359673,-43.572075 L0.6539509,-38.994404 L0.8719346,-34.874496 L1.0899183,-56.457584 L1.3079019,-50.591362 L1.5258856,-45.311764 L1.7438692,-40.560123 L1.9618529,-36.283646 L2.1798365,-32.43482 L2.3978202,-28.970873 L2.6158037,-25.853321 L2.8337874,-48.338528 L3.0517712,-43.28421 L3.269755,-38.735325 L3.4877384,-59.932327 L3.705722,-79.009636 L3.9237058,-70.88821 L4.1416893,-63.578922 L4.359673,-57.000565 L4.5776567,-51.080044 L4.7956405,-45.751575 L5.013624,-40.955956 L5.2316074,-36.639896 L5.449591,-58.046444 L5.667575,-52.021336 L5.8855586,-46.59874 L6.1035423,-41.7184 L6.321526,-37.326096 L6.53951,-33.373024 L6.757493,-55.10626 L6.9754767,-74.66617 L7.1934605,-66.97909 L7.411444,-60.060715 L7.629428,-53.83418 L7.8474116,-48.230297 L8.065395,-43.186806 L8.283379,-38.64766 L8.501363,-34.56243 L8.719346,-30.885723 L8.937329,-27.576689 L9.1553135,-24.598555 L9.373297,-21.918236 L9.591281,-19.505949 L9.809264,-17.33489 L10.027248,-40.671936 L10.245232,-36.38428 L10.463215,-32.525387 L10.681199,-54.343388 L10.899182,-48.688583 L11.1171665,-43.599262 L11.33515,-39.01887 L11.553134,-34.896523 L11.771117,-31.186405 L11.9891,-53.1383 L12.207085,-72.895004 L12.425068,-65.38504 L12.643052,-109.20808 L12.861035,-98.0668 L13.07902,-88.03966 L13.297003,-129.59723 L13.514986,-116.417046 L13.73297,-155.13687 L13.9509535,-189.98473 L14.168938,-170.7658 L14.386921,-178.75975 L14.604904,-160.66331 L14.822888,-144.37651 L15.040872,-129.7184 L15.258856,-116.52609 L15.476839,-104.65302 L15.694823,-93.967255 L15.9128065,-134.93207 L16.13079,-197.0914 L16.348774,-227.74379 L16.566757,-204.74895 L16.78474,-209.34459 L17.002726,-188.18967 L17.220709,-169.15024 L17.438692,-152.01476 L17.656675,-136.59282 L17.874659,-122.713066 L18.092644,-186.0943 L18.310627,-293.7194 L18.52861,-340 L18.746593,-305.77954 L18.964577,-300.27213 L19.182562,-270.02444 L19.400545,-242.80153 L19.618528,-294.17392 L19.836512,-264.53607 L20.054497,-263.15298 L20.27248,-236.61723 L20.490463,-212.73505 L20.708447,-191.24107 L20.92643,-171.8965 L21.144415,-154.48639 L21.362398,-164.10829 L21.580381,-147.47699 L21.798365,-132.50883 L22.016348,-194.91049 L22.234333,-251.07198 L22.452316,-276.32632 L22.6703,-299.0552 L22.888283,-319.51123 L23.106268,-287.33963 L23.324251,-283.6762 L23.542234,-255.08813 L23.760218,-254.64986 L23.9782,-228.9644 L24.196186,-205.8475 L24.41417,-185.04228 L24.632153,-166.3176 L24.850136,-149.46538 L25.06812,-134.29837 L25.286104,-120.64807 L25.504087,-158.9448 L25.72207,-168.12085 L25.940054,-151.0883 L26.15804,-135.75902 L26.376022,-121.96265 L26.594006,-134.83691 L26.811989,-121.13277 L27.029972,-108.79903 L27.247957,-148.28065 L27.46594,-133.23213 L27.683924,-119.68845 L27.901907,-107.499146 L28.11989,-96.52876 L28.337875,-86.655426 L28.555859,-77.76942 L28.773842,-69.77201 L28.991825,-62.57435 L29.209808,-131.96945 L29.427794,-118.55204 L29.645777,-106.47637 L29.86376,-120.89927 L30.081743,-108.58888 L30.299728,-97.50953 L30.517712,-87.53812 L30.735695,-78.563835 L30.953678,-146.35999 L31.171661,-131.50352 L31.389647,-168.7147 L31.60763,-151.62277 L31.825613,-136.24004 L32.0436,-122.39557 L32.26158,-135.22655 L32.479565,-146.77443 L32.697548,-131.87653 L32.91553,-118.46841 L33.133514,-106.4011 L33.351498,-95.54053 L33.56948,-85.766014 L33.787464,-76.96895 L34.00545,-69.05159 L34.223434,-61.925964 L34.441418,-106.09491 L34.6594,-95.26495 L34.877384,-110.80899 L35.095367,-99.50763 L35.31335,-89.3364 L35.531334,-181.3463 L35.749317,-162.99121 L35.967304,-146.47162 L36.185287,-207.47699 L36.40327,-186.50883 L36.621254,-192.92848 L36.839237,-173.41518 L37.05722,-155.8532 L37.275204,-190.62941 L37.493187,-171.34601 L37.71117,-153.99094 L37.929153,-138.37138 L38.14714,-124.31378 L38.365124,-187.53494 L38.583107,-168.56099 L38.80109,-151.48442 L39.019073,-136.11551 L39.237057,-122.2835 L39.45504,-109.83469 L39.673023,-98.63075 L39.891006,-88.54721 L40.108994,-79.47203 L40.326977,-147.17737 L40.54496,-132.23917 L40.762943,-118.794785 L40.980927,-157.27684 L41.19891,-141.32869 L41.416893,-126.97536 L41.634876,-114.05736 L41.85286,-178.30415 L42.070847,-160.25328 L42.28883,-144.00749 L42.506813,-230.55028 L42.724796,-207.27478 L42.94278,-186.32684 L43.160763,-192.7647 L43.378746,-173.26776 L43.59673,-155.72052 L43.814713,-139.92801 L44.032696,-176.29674 L44.250683,-234.31961 L44.468666,-210.66718 L44.68665,-189.38 L44.904633,-170.22154 L45.122616,-152.97891 L45.3406,-137.46056 L45.558582,-123.49404 L45.776566,-136.21518 L45.99455,-147.6642 L46.212536,-132.6773 L46.43052,-119.18912 L46.648502,-107.04974 L46.866486,-96.124306 L47.08447,-86.29141 L47.302452,-77.4418 L47.520435,-69.47716 L47.73842,-62.30898 L47.9564,-55.85762 L48.174385,-50.05139 L48.392372,-44.82579 L48.610355,-40.122746 L48.82834,-35.89001 L49.04632,-32.080544 L49.264305,-28.652027 L49.48229,-25.56636 L49.70027,-98.66226 L49.918255,-88.57557 L50.13624,-79.49755 L50.354225,-71.32733 L50.57221,-63.974136 L50.79019,-57.35626 L51.008175,-51.40017 L51.22616,-46.03969 L51.44414,-41.215256 L51.662125,-36.873264 L51.880108,-32.965477 L52.09809,-80.030464 L52.31608,-71.80695 L52.53406,-64.40579 L52.752045,-83.03575 L52.970028,-74.51171 L53.18801,-66.84008 L53.405994,-59.935608 L53.623978,-53.72158 L53.84196,-48.12896 L54.059944,-43.0956 L54.277927,-38.56558 L54.495914,-34.488556 L54.713898,-30.819237 L54.93188,-27.51685 L55.149864,-75.1267 L55.367847,-67.39357 L55.58583,-60.433746 L55.803814,-54.169907 L56.021797,-48.532455 L56.23978,-43.458744 L56.457767,-38.892406 L56.67575,-60.073704 L56.893734,-79.13687 L57.111717,-71.002716 L57.3297,-63.681984 L57.547684,-107.67532 L57.765667,-96.687325 L57.98365,-137.38013 L58.201633,-174.00365 L58.419617,-156.38283 L58.637604,-140.52408 L58.855587,-151.5422 L59.07357,-136.16753 L59.291553,-147.6213 L59.509537,-157.92972 L59.72752,-141.91628 L59.945503,-127.50419 L60.163486,-114.5333 L60.38147,-102.85951 L60.599457,-92.353096 L60.81744,-82.89732 L61.035423,-99.67812 L61.253407,-89.48985 L61.47139,-80.320404 L61.689373,-97.358894 L61.907356,-137.98454 L62.12534,-123.96563 L62.343323,-111.3486 L62.561306,-99.99328 L62.779293,-89.77348 L62.997276,-131.15767 L63.21526,-168.40344 L63.433243,-151.34264 L63.651226,-161.2789 L63.86921,-170.22156 L64.0872,-152.97893 L64.305176,-137.46057 L64.52316,-123.49406 L64.74114,-110.92419 L64.95913,-150.1933 L65.17711,-160.2445 L65.395096,-194.58159 L65.613075,-174.90297 L65.83106,-157.19221 L66.04905,-217.12553 L66.26703,-195.1925 L66.485016,-175.45279 L66.702995,-157.68706 L66.92098,-141.69788 L67.13896,-127.30763 L67.35695,-139.6474 L67.57493,-125.462204 L67.792915,-112.69552 L68.0109,-101.2055 L68.22888,-90.86449 L68.44687,-132.13957 L68.66485,-169.28716 L68.882835,-152.13797 L69.100815,-136.70372 L69.3188,-148.10388 L69.53678,-133.07303 L69.75477,-119.54526 L69.972755,-107.37027 L70.190735,-96.41278 L70.40872,-86.55104 L70.6267,-77.67547 L70.84469,-145.56046 L71.06267,-130.78395 L71.280655,-117.48509 L71.498634,-105.51612 L71.71662,-170.61705 L71.93461,-153.33487 L72.15259,-137.78093 L72.370575,-149.07336 L72.588554,-184.52757 L72.80654,-165.85435 L73.02452,-149.04845 L73.24251,-133.92314 L73.46049,-120.31036 L73.678474,-108.05886 L73.89646,-97.03252 L74.11444,-87.108795 L74.33243,-78.17745 L74.55041,-95.430244 L74.768394,-110.957756 L74.986374,-99.64152 L75.20436,-89.4569 L75.42234,-80.29075 L75.64033,-72.04121 L75.85831,-64.61662 L76.076294,-57.934498 L76.29428,-51.920586 L76.51226,-46.508064 L76.73025,-41.636795 L76.94823,-37.25265 L77.166214,-33.306923 L77.38419,-29.755766 L77.60218,-26.559725 L77.82016,-23.683289 L78.03815,-21.094496 L78.256134,-18.764584 L78.47411,-16.667662 L78.6921,-14.780432 L78.91008,-13.081924 L79.12807,-11.553268 L79.34605,-10.177478 L79.56403,-8.939266 L79.78201,-58.406876 L80,-52.345726 L80.21799,-122.76369 L80.43597,-110.26685 L80.65395,-99.01971 L80.87193,-88.89727 L81.08992,-105.07808 L81.3079,-94.34981 L81.52589,-84.69437 L81.743866,-76.00446 L81.96185,-68.183556 L82.17984,-61.144737 L82.39782,-54.8098 L82.61581,-49.108356 L82.833786,-94.55906 L83.05177,-84.88268 L83.26975,-152.04695 L83.48774,-212.4948 L83.70572,-216.31586 L83.923706,-194.4638 L84.14169,-200.08797 L84.35967,-179.8587 L84.57766,-161.65236 L84.79564,-221.13966 L85.013626,-198.80524 L85.231606,-178.70425 L85.44959,-160.61336 L85.66757,-144.33156 L85.88556,-129.67795 L86.10354,-116.489685 L86.321526,-104.620255 L86.53951,-93.93776 L86.75749,-84.323524 L86.97548,-75.67071 L87.19346,-67.88317 L87.411446,-60.87439 L87.629425,-54.56649 L87.84741,-48.889378 L88.06539,-94.36198 L88.28338,-84.705315 L88.501366,-76.01432 L88.719345,-68.19242 L88.93733,-61.152718 L89.15531,-54.816982 L89.3733,-49.11482 L89.59128,-43.982876 L89.809265,-39.364124 L90.027245,-35.20725 L90.24523,-31.466059 L90.46322,-28.09899 L90.6812,-25.068626 L90.899185,-22.341301 L91.117165,-19.886707 L91.33515,-17.677572 L91.55313,-15.689351 L91.77112,-64.48195 L91.9891,-57.813293 L92.207085,-51.8115 L92.42507,-46.409885 L92.64305,-41.548435 L92.86104,-62.464127 L93.07902,-55.99725 L93.297005,-50.177063 L93.514984,-44.938892 L93.73297,-40.22454 L93.95095,-86.56362 L94.16894,-128.2688 L94.386925,-115.22145 L94.604904,-154.06084 L94.82289,-138.4343 L95.04087,-149.6614 L95.25886,-159.7658 L95.47684,-143.56876 L95.694824,-128.99141 L95.9128,-115.87181 L96.13079,-129.35516 L96.34877,-192.07219 L96.56676,-172.6445 L96.784744,-180.45059 L97.00272,-162.18507 L97.22071,-145.7461 L97.43869,-130.95102 L97.65668,-117.63546 L97.87466,-105.65145 L98.09264,-94.86584 L98.31062,-85.15879 L98.52861,-76.42245 L98.7466,-68.55974 L98.96458,-112.0653 L99.18256,-100.638306 L99.40054,-90.35401 L99.61853,-81.09815 L99.83651,-72.76787 L100.0545,-65.27062 L100.27248,-58.523094 L100.49046,-52.45032 L100.70845,-46.984825 L100.92643,-42.06588 L101.14442,-37.63883 L101.3624,-58.94548 L101.58038,-52.83047 L101.79836,-47.326958 L102.01635,-42.3738 L102.23433,-37.915955 L102.45232,-33.903896 L102.6703,-30.293043 L102.88828,-27.043276 L103.10627,-24.118484 L103.32425,-21.486172 L103.54224,-19.11709 L103.760216,-42.275917 L103.9782,-37.82786 L104.19618,-33.82461 L104.41417,-55.512688 L104.63216,-49.740955 L104.850136,-44.546394 L105.06812,-65.16229 L105.2861,-58.4256 L105.50409,-52.362576 L105.72207,-46.905853 L105.940056,-41.994804 L106.158035,-37.57486 L106.37602,-33.596912 L106.594,-55.30776 L106.81199,-49.55652 L107.029976,-44.3804 L107.247955,-39.721897 L107.46594,-35.529243 L107.68392,-31.755856 L107.90191,-28.359808 L108.11989,-25.303362 L108.337875,-47.843563 L108.555855,-42.83874 L108.77384,-38.334404 L108.99183,-34.280502 L109.20981,-30.631987 L109.427795,-27.348324 L109.645775,-24.393028 L109.86376,-21.733261 L110.08174,-19.339472 L110.29973,-17.18506 L110.51771,-15.246091 L110.735695,-13.501019 L110.95368,-37.221455 L111.17166,-33.278843 L111.38965,-29.730495 L111.60763,-26.536983 L111.825615,-48.95382 L112.043594,-43.837975 L112.26158,-39.233715 L112.47956,-35.089878 L112.69755,-31.360428 L112.915535,-28.003922 L113.133514,-50.274067 L113.3515,-45.026196 L113.56948,-40.303112 L113.78747,-36.052338 L114.00545,-32.22664 L114.223434,-28.783512 L114.441414,-25.684696 L114.6594,-22.895763 L114.87739,-45.676723 L115.09537,-40.888588 L115.313354,-61.870266 L115.531334,-55.462776 L115.74932,-74.98704 L115.9673,-67.26787 L116.18529,-60.320618 L116.40327,-79.35909 L116.621254,-71.20272 L116.83923,-63.861984 L117.05722,-57.25532 L117.27521,-51.309326 L117.49319,-45.957928 L117.711174,-41.141674 L117.92915,-36.80704 L118.14714,-32.905872 L118.36512,-29.394823 L118.58311,-26.234877 L118.80109,-23.390924 L119.01907,-20.83137 L119.23706,-18.52777 L119.45504,-16.454529 L119.67303,-14.588612 L119.89101,-38.200287 L120.10899,-34.159794 L120.32697,-81.105354 L120.54496,-72.77435 L120.76294,-166.44046 L120.98093,-149.57594 L121.19891,-134.39789 L121.41689,-120.73763 L121.63488,-108.443405 L121.85286,-97.3786 L122.07085,-87.42028 L122.288826,-78.45779 L122.50681,-70.39155 L122.72479,-63.131927 L122.94278,-56.59827 L123.16077,-50.71798 L123.378746,-45.425716 L123.59673,-40.66268 L123.81471,-36.37595 L124.0327,-32.51789 L124.25068,-29.045639 L124.468666,-25.92061 L124.686646,-23.108086 L124.90463,-20.576815 L125.12261,-18.29867 L125.3406,-16.248339 L125.558586,-14.403041 L125.776566,-38.03327 L125.99455,-34.009483 L126.21253,-30.388071 L126.43052,-27.1288 L126.6485,-24.195456 L126.866486,-21.555447 L127.084465,-19.179438 L127.30245,-17.04103 L127.52044,-15.116464 L127.73842,-13.384354 L127.956406,-11.825455 L128.1744,-10.422445 L128.39236,-9.159738 L128.61035,-8.0233 L128.82834,-57.582508 L129.04633,-51.60379 L129.26431,-46.22295 L129.48228,-41.38019 L129.70027,-112.89471 L129.91826,-101.38477 L130.13625,-91.02583 L130.35422,-81.70279 L130.5722,-73.31204 L130.79019,-65.760376 L131.00818,-84.254875 L131.22615,-75.608925 L131.44414,-67.82757 L131.66212,-60.82435 L131.88011,-54.52145 L132.0981,-48.84884 L132.31607,-69.03449 L132.53406,-61.91058 L132.75204,-55.499058 L132.97003,-75.01969 L133.188,-67.29726 L133.40599,-60.347065 L133.62398,-54.091896 L133.84196,-48.462242 L134.05995,-68.686554 L134.27792,-86.888435 L134.49591,-77.979126 L134.7139,-95.251755 L134.93188,-85.50611 L135.14986,-76.73504 L135.36784,-94.13207 L135.58583,-84.4984 L135.80382,-75.828094 L136.0218,-68.024826 L136.23978,-86.29288 L136.45776,-77.44312 L136.67575,-69.47835 L136.89374,-62.31005 L137.11171,-55.85858 L137.3297,-50.05226 L137.54768,-70.11757 L137.76567,-62.88535 L137.98366,-56.37635 L138.20163,-75.80925 L138.41962,-68.007866 L138.6376,-86.27761 L138.85559,-77.42939 L139.07356,-69.46599 L139.29155,-62.298923 L139.50954,-55.848568 L139.72752,-50.043247 L139.94551,-44.81846 L140.16348,-40.11615 L140.38147,-35.88407 L140.59946,-57.3662 L140.81744,-51.409115 L141.03542,-46.04774 L141.2534,-41.222504 L141.47139,-36.879787 L141.68938,-32.971348 L141.90736,-54.744747 L142.12534,-49.04981 L142.34332,-69.21536 L142.56131,-62.073364 L142.7793,-55.645565 L142.99727,-49.860546 L143.21526,-44.654026 L143.43324,-39.96816 L143.65123,-35.75088 L143.86922,-31.955328 L144.08719,-28.539331 L144.30518,-25.464935 L144.52316,-22.697977 L144.74115,-20.207716 L144.95912,-17.96648 L145.17711,-15.949369 L145.3951,-14.133968 L145.61308,-12.500108 L145.83107,-11.0296335 L146.04904,-34.997208 L146.26703,-31.277021 L146.48502,-27.928856 L146.703,-50.20651 L146.92097,-44.965393 L147.13896,-40.24839 L147.35695,-61.294086 L147.57494,-54.944214 L147.79292,-49.22933 L148.0109,-69.37693 L148.22888,-62.218777 L148.44687,-55.776436 L148.66486,-49.97833 L148.88283,-44.760033 L149.10081,-40.063564 L149.3188,-35.836742 L149.53679,-32.032604 L149.75478,-28.608881 L149.97275,-50.81853 L150.19073,-45.516212 L150.40872,-40.74413 L150.62671,-36.449253 L150.84468,-57.874863 L151.06267,-51.866913 L151.28065,-46.45976 L151.49864,-41.59332 L151.71661,-37.213524 L151.9346,-33.271706 L152.15259,-29.724073 L152.37057,-26.531202 L152.58856,-23.657618 L152.80653,-21.071392 L153.02452,-18.74379 L153.24251,-16.648947 L153.4605,-14.763588 L153.67847,-13.066766 L153.89645,-11.539625 L154.11444,-10.165199 L154.33243,-8.928216 L154.55042,-7.8149304 L154.76839,-32.103973 L154.98637,-53.96411 L155.20436,-48.347237 L155.42235,-43.29205 L155.64032,-38.742382 L155.8583,-59.93868 L156.0763,-79.01535 L156.29428,-70.89335 L156.51227,-63.58355 L156.73024,-57.004734 L156.94823,-51.083794 L157.16621,-45.75495 L157.3842,-40.958992 L157.60217,-36.64263 L157.82016,-58.048904 L158.03815,-52.02355 L158.25613,-46.60073 L158.47412,-41.720196 L158.6921,-37.32771 L158.91008,-33.374477 L159.12807,-29.816565 L159.34605,-26.614445 L159.56403,-23.732536 L159.78201,-21.138819 L160,-44.095474 L160.21799,-39.46546 L160.43597,-60.589455 L160.65395,-54.310043 L160.87193,-48.658577 L161.08992,-43.572254 L161.3079,-64.28557 L161.52588,-82.92754 L161.74387,-99.70533 L161.96185,-114.80533 L162.17984,-103.10433 L162.39783,-92.57344 L162.6158,-83.09563 L162.83379,-99.856606 L163.05177,-89.65048 L163.26976,-80.464966 L163.48773,-97.489006 L163.70572,-87.519646 L163.9237,-78.54722 L164.1417,-70.47203 L164.35968,-63.204365 L164.57765,-81.95446 L164.79564,-73.53855 L165.01363,-65.96423 L165.23161,-59.147346 L165.44958,-53.01215 L165.66757,-47.49047 L165.88556,-67.81196 L166.10355,-60.8103 L166.32153,-54.508804 L166.5395,-48.837463 L166.75749,-69.024254 L166.97548,-87.19236 L167.19347,-103.54366 L167.41144,-92.968834 L167.62943,-108.742485 L167.84741,-97.64777 L168.0654,-87.66254 L168.28339,-103.96682 L168.50136,-93.34967 L168.71935,-83.79424 L168.93733,-75.19435 L169.15532,-118.03645 L169.37329,-106.012344 L169.59128,-95.19064 L169.80927,-110.74212 L170.02725,-99.44744 L170.24522,-89.282234 L170.46321,-80.133545 L170.6812,-71.89973 L170.89919,-64.489296 L171.11717,-57.8199 L171.33514,-51.817448 L171.55313,-46.415237 L171.77112,-66.84425 L171.9891,-85.23036 L172.20708,-76.48686 L172.42506,-68.617714 L172.64305,-61.535477 L172.86104,-55.161465 L173.07903,-49.424854 L173.297,-44.261906 L173.51498,-64.90625 L173.73297,-58.195164 L173.95096,-77.44618 L174.16893,-69.4811 L174.38692,-62.312527 L174.6049,-55.86081 L174.82289,-50.054268 L175.04088,-70.11938 L175.25885,-62.886974 L175.47684,-56.377815 L175.69482,-50.51957 L175.91281,-45.247147 L176.13078,-40.50197 L176.34877,-36.231308 L176.56676,-32.387714 L176.78474,-28.928478 L177.00273,-25.815168 L177.2207,-48.304188 L177.43869,-68.544304 L177.65668,-61.46941 L177.87466,-55.102005 L178.09264,-49.37134 L178.31062,-44.213745 L178.52861,-39.571907 L178.7466,-35.394253 L178.96458,-56.92536 L179.18256,-51.012363 L179.40054,-45.690662 L179.61853,-66.19213 L179.83652,-59.352455 L180.05449,-53.196747 L180.27248,-72.94761 L180.49046,-65.43238 L180.70845,-58.668682 L180.92644,-52.58135 L181.14441,-47.102753 L181.3624,-42.172012 L181.58038,-37.73435 L181.79837,-33.740448 L182.01634,-30.14594 L182.23433,-26.910883 L182.45232,-23.99933 L182.6703,-21.378935 L182.88829,-69.60258 L183.10626,-62.421856 L183.32425,-55.959206 L183.54224,-50.142822 L183.76022,-44.908077 L183.9782,-40.196804 L184.19618,-61.24766 L184.41417,-54.90243 L184.63216,-49.191723 L184.85014,-69.34309 L185.06812,-62.188316 L185.2861,-55.74902 L185.50409,-49.953655 L185.72208,-70.028824 L185.94005,-88.09648 L186.15804,-79.06637 L186.37602,-70.93927 L186.59401,-88.91588 L186.812,-130.38582 L187.02997,-117.12678 L187.24796,-105.193634 L187.46594,-94.45381 L187.68393,-84.787964 L187.9019,-76.08871 L188.11989,-93.55037 L188.33788,-83.97487 L188.55586,-75.35692 L188.77385,-67.60076 L188.99182,-60.620224 L189.20981,-54.337738 L189.4278,-48.683502 L189.64578,-43.59469 L189.86375,-39.014755 L190.08174,-34.892815 L190.29973,-31.18307 L190.51772,-27.8443 L190.73569,-50.130405 L190.95367,-44.8969 L191.17166,-40.18675 L191.38965,-35.94761 L191.60764,-32.132385 L191.8256,-28.698683 L192.0436,-25.60835 L192.26158,-22.827051 L192.47957,-20.323883 L192.69754,-68.65303 L192.91553,-61.567265 L193.13351,-55.190075 L193.3515,-49.450603 L193.56949,-44.28508 L193.78746,-64.92711 L194.00545,-83.50494 L194.22343,-74.933975 L194.44142,-92.511116 L194.6594,-108.33054 L194.87738,-97.27702 L195.09537,-112.61986 L195.31335,-101.137405 L195.53134,-90.8032 L195.74931,-81.50242 L195.9673,-73.131714 L196.18529,-90.88908 L196.40327,-81.579704 L196.62125,-73.20127 L196.83923,-65.66068 L197.05722,-58.87415 L197.2752,-52.76627 L197.4932,-97.85118 L197.71117,-87.8456 L197.92915,-78.840576 L198.14714,-70.73605 L198.36513,-63.441986 L198.5831,-56.877323 L198.80109,-50.969128 L199.01907,-45.65175 L199.23706,-40.86611 L199.45505,-36.559036 L199.67302,-32.68267 L199.891,-29.19394 L200.109,-26.054081 L200.32698,-73.81021 L200.54495,-66.208725 L200.76294,-59.36739 L200.98093,-53.210186 L201.19891,-47.668705 L201.4169,-42.68137 L201.63487,-38.19277 L201.85286,-34.15303 L202.07085,-30.517262 L202.28883,-27.245071 L202.5068,-49.591103 L202.7248,-44.411526 L202.94278,-39.749912 L203.16077,-35.554455 L203.37875,-57.069546 L203.59673,-51.142128 L203.81471,-45.807453 L204.0327,-41.006245 L204.25069,-36.685154 L204.46866,-32.796177 L204.68665,-29.296095 L204.90463,-26.14602 L205.12262,-48.601955 L205.3406,-68.812294 L205.55858,-61.7106 L205.77657,-55.31908 L205.99455,-49.566708 L206.21254,-44.389572 L206.43051,-39.730152 L206.6485,-35.536674 L206.86649,-31.762543 L207.08447,-53.656826 L207.30246,-73.36168 L207.52043,-65.805046 L207.73842,-59.004078 L207.9564,-52.883205 L208.1744,-47.374424 L208.39236,-42.416515 L208.61035,-37.954403 L208.82834,-33.938496 L209.04633,-30.324184 L209.26431,-27.071302 L209.48228,-24.143707 L209.70027,-21.508873 L209.91826,-19.137522 L210.13625,-17.003307 L210.35422,-15.082512 L210.5722,-13.353797 L210.79019,-11.797954 L211.00818,-10.397695 L211.22615,-9.137462 L211.44414,-8.003252 L211.66212,-6.982463 L211.88011,-6.063753 L212.0981,-5.236914 L212.31607,-4.4927588 L212.53406,-3.8230193 L212.75204,-3.2202537 L212.97003,-2.6777647 L213.188,-27.480524 L213.40599,-24.512009 L213.62398,-21.840343 L213.84196,-19.435846 L214.05995,-17.271797 L214.27792,-15.324154 L214.49591,-13.571275 L214.7139,-11.993684 L214.93188,-10.573852 L215.14986,-9.296003 L215.36784,-8.145939 L215.58583,-7.1108813 L215.80382,-6.1793294 L216.0218,-5.340933 L216.23978,-4.5863757 L216.45776,-29.198275 L216.67575,-26.057983 L216.89374,-23.231722 L217.11171,-45.979084 L217.3297,-66.45171 L217.54768,-59.58608 L217.76567,-53.407005 L217.98366,-47.845844 L218.20163,-68.1318 L218.41962,-61.098152 L218.6376,-105.34988 L218.85559,-119.88542 L219.07356,-107.676414 L219.29155,-96.68831 L219.50954,-86.79902 L219.72752,-77.89865 L219.94551,-69.88832 L220.16348,-62.679028 L220.38147,-56.19066 L220.59946,-50.35113 L220.81744,-45.095554 L221.03542,-40.365536 L221.2534,-36.108517 L221.47139,-32.277203 L221.68938,-28.829018 L221.90736,-51.01665 L222.12534,-45.694523 L222.34332,-40.904606 L222.56131,-36.59368 L222.7793,-32.713852 L222.99727,-29.222002 L223.21526,-26.079338 L223.43324,-23.25094 L223.65123,-20.705383 L223.86922,-18.414381 L224.08719,-16.35248 L224.30518,-14.496768 L224.52316,-12.826627 L224.74115,-11.323501 L224.95912,-9.970687 L225.17711,-34.044155 L225.3951,-30.419275 L225.61308,-27.156885 L225.83107,-24.220732 L226.04904,-21.578196 L226.26703,-19.199911 L226.48502,-17.059458 L226.703,-15.133048 L226.92097,-13.39928 L227.13896,-11.838887 L227.35695,-10.434535 L227.57494,-9.170618 L227.79292,-8.0330925 L228.0109,-7.00932 L228.22888,-31.378923 L228.44687,-28.020569 L228.66486,-24.998047 L228.88283,-72.85978 L229.10081,-90.64434 L229.3188,-81.35944 L229.53679,-73.00303 L229.75478,-90.77326 L229.97275,-81.47548 L230.19073,-73.10747 L230.40872,-65.576256 L230.62671,-58.798164 L230.84468,-52.697884 L231.06267,-47.207634 L231.28065,-42.266407 L231.49864,-88.4013 L231.71661,-79.340706 L231.9346,-71.18617 L232.15259,-63.84709 L232.37057,-57.24192 L232.58856,-51.297264 L232.80653,-71.238075 L233.02452,-63.893803 L233.24251,-57.28396 L233.4605,-51.3351 L233.67847,-45.981125 L233.89645,-41.162548 L234.11444,-36.825832 L234.33243,-83.50478 L234.55042,-74.933846 L234.76839,-67.21999 L234.98637,-60.27753 L235.20436,-54.029316 L235.42235,-48.40592 L235.64032,-93.926865 L235.8583,-84.31371 L236.0763,-75.66188 L236.29428,-67.87523 L236.51227,-60.86724 L236.73024,-54.56005 L236.94823,-74.17458 L237.16621,-66.53666 L237.3842,-59.662533 L237.60217,-53.475815 L237.82016,-73.19877 L238.03815,-65.65843 L238.25613,-84.163124 L238.47412,-75.526344 L238.6921,-67.75325 L238.91008,-60.75746 L239.12807,-54.46125 L239.34605,-48.794662 L239.56403,-43.694733 L239.78201,-39.104794 L240,-34.97385 L240.21799,-31.256002 L240.43597,-78.491936 L240.65395,-70.42228 L240.87193,-63.159588 L241.08992,-56.623165 L241.3079,-76.03139 L241.52588,-68.20779 L241.74387,-61.166542 L241.96185,-54.829426 L242.17984,-49.12602 L242.39783,-43.992954 L242.6158,-39.37319 L242.83379,-35.215412 L243.05177,-31.473406 L243.26976,-28.105602 L243.48773,-25.074577 L243.70572,-47.637657 L243.9237,-67.94443 L244.1417,-60.92952 L244.35968,-54.616104 L244.57765,-48.934032 L244.79564,-94.40216 L245.01363,-84.741486 L245.23161,-76.046875 L245.44958,-68.22172 L245.66757,-61.179085 L245.88556,-54.840714 L246.10355,-49.136177 L246.32153,-44.002098 L246.5395,-39.381424 L246.75749,-35.222816 L246.97548,-31.480072 L247.19347,-28.1116 L247.41144,-25.079977 L247.62943,-22.351515 L247.84741,-19.8959 L248.0654,-17.685846 L248.28339,-15.696798 L248.50136,-64.488655 L248.71935,-57.819324 L248.93733,-51.81693 L249.15532,-46.414772 L249.37329,-41.552834 L249.59128,-37.177086 L249.80927,-83.820915 L250.02725,-75.21836 L250.24522,-92.76706 L250.46321,-83.26989 L250.6812,-74.722435 L250.89919,-92.32073 L251.11717,-82.868195 L251.33514,-74.36091 L251.55313,-66.70435 L251.77112,-85.104454 L251.9891,-76.37354 L252.20708,-68.51573 L252.42506,-61.44369 L252.64305,-55.078857 L252.86104,-49.35051 L253.07903,-44.194996 L253.297,-39.55503 L253.51498,-35.379066 L253.73297,-31.620695 L253.95096,-53.52916 L254.16893,-47.95578 L254.38692,-68.23074 L254.6049,-86.4782 L254.82289,-77.60992 L255.04088,-69.62846 L255.25885,-62.445152 L255.47684,-55.980175 L255.69482,-50.161694 L255.91281,-44.92506 L256.1308,-40.21209 L256.3488,-35.970417 L256.56677,-32.152912 L256.78473,-28.717157 L257.00272,-25.624977 L257.2207,-22.842016 L257.4387,-20.33735 L257.65668,-18.083153 L257.87466,-16.054373 L258.09265,-14.228473 L258.31064,-37.87616 L258.52863,-33.86808 L258.74658,-80.84281 L258.96457,-72.53806 L259.18256,-65.0638 L259.40054,-83.62795 L259.61853,-75.04469 L259.83652,-67.31976 L260.0545,-85.65832 L260.2725,-76.872025 L260.49045,-68.964355 L260.70844,-61.847458 L260.92642,-55.44225 L261.1444,-49.67756 L261.3624,-44.48934 L261.58038,-90.40195 L261.79837,-81.14129 L262.01636,-72.806694 L262.23434,-65.30556 L262.4523,-58.55454 L262.6703,-52.478622 L262.88828,-47.010296 L263.10626,-67.37981 L263.32425,-60.42136 L263.54224,-54.15876 L263.76022,-48.52242 L263.9782,-43.449715 L264.1962,-38.88428 L264.41415,-34.775387 L264.63214,-81.659386 L264.85013,-73.27298 L265.0681,-65.72522 L265.2861,-58.932236 L265.5041,-52.818546 L265.72208,-47.31623 L265.94006,-67.65514 L266.15805,-60.669167 L266.376,-54.381786 L266.594,-48.723145 L266.81198,-43.630363 L267.02997,-39.046864 L267.24796,-34.921715 L267.46594,-31.20908 L267.68393,-27.867708 L267.90192,-24.860474 L268.1199,-22.153963 L268.33786,-19.718102 L268.55585,-42.81683 L268.77383,-38.314682 L268.99182,-34.26275 L269.2098,-55.907013 L269.4278,-75.38685 L269.64578,-67.6277 L269.86377,-60.644466 L270.08176,-54.359554 L270.2997,-48.703136 L270.5177,-43.61236 L270.7357,-39.03066 L270.95367,-34.907127 L271.17166,-31.195953 L271.38965,-53.146893 L271.60764,-47.61174 L271.82562,-42.630104 L272.0436,-88.72863 L272.26157,-79.6353 L272.47955,-71.45131 L272.69754,-89.37672 L272.91553,-80.21858 L273.1335,-71.97626 L273.3515,-64.55817 L273.5695,-57.88189 L273.78748,-51.873234 L274.00546,-46.465446 L274.22342,-142.76244 L274.4414,-128.26573 L274.6594,-140.50969 L274.87738,-126.23826 L275.09537,-113.393974 L275.31335,-101.834114 L275.53134,-142.01224 L275.74933,-127.590546 L275.96732,-114.61103 L276.18527,-102.92947 L276.40326,-142.99805 L276.62125,-128.47778 L276.83923,-115.409546 L277.05722,-103.648125 L277.2752,-93.06285 L277.4932,-83.5361 L277.71118,-74.96203 L277.92917,-67.24536 L278.14713,-110.88236 L278.3651,-99.57366 L278.5831,-89.39583 L278.8011,-80.23579 L279.01907,-71.991745 L279.23706,-64.572105 L279.45505,-57.89443 L279.67303,-51.88452 L279.89102,-71.76661 L280.10898,-64.369484 L280.32697,-57.71207 L280.54495,-51.7204 L280.76294,-71.6189 L280.98093,-64.23654 L281.1989,-57.592426 L281.4169,-51.61272 L281.6349,-46.230984 L281.85287,-91.96942 L282.07083,-82.55202 L282.28882,-74.07635 L282.5068,-66.44825 L282.7248,-59.582962 L282.94278,-53.4042 L283.16077,-47.84332 L283.37875,-42.838524 L283.59674,-38.334206 L283.81473,-34.280323 L284.03268,-30.631826 L284.25067,-27.34818 L284.46866,-24.392899 L284.68665,-21.733145 L284.90463,-19.339367 L285.12262,-42.475967 L285.3406,-38.007908 L285.5586,-33.986652 L285.77658,-55.658524 L285.99454,-49.872208 L286.21252,-44.664524 L286.4305,-65.26861 L286.6485,-58.521282 L286.8665,-52.448692 L287.08447,-72.27436 L287.30246,-64.82646 L287.52045,-58.12335 L287.73843,-127.96355 L287.9564,-114.94673 L288.17438,-103.2316 L288.39236,-117.97897 L288.61035,-105.96061 L288.82834,-95.14409 L289.04633,-110.70021 L289.2643,-99.40973 L289.4823,-89.24829 L289.7003,-80.103 L289.91824,-71.87224 L290.13623,-64.46455 L290.35422,-57.79763 L290.5722,-51.7974 L290.7902,-46.397198 L291.00818,-66.82802 L291.22617,-59.92475 L291.44415,-53.71181 L291.66214,-123.993164 L291.8801,-111.37339 L292.09808,-100.01559 L292.31607,-115.084564 L292.53406,-103.355644 L292.75204,-118.090614 L292.97003,-156.6431 L293.18802,-140.75832 L293.406,-151.75302 L293.624,-161.64825 L293.84195,-170.55397 L294.05994,-153.2781 L294.27792,-137.72983 L294.4959,-123.73638 L294.7139,-111.14228 L294.9319,-125.098595 L295.14987,-112.36827 L295.36786,-100.91098 L295.58585,-90.59942 L295.8038,-81.31901 L296.0218,-72.966644 L296.23978,-65.44952 L296.45776,-58.6841 L296.67575,-52.59523 L296.89374,-47.115242 L297.11172,-42.183254 L297.3297,-37.744465 L297.5477,-33.749554 L297.76566,-30.154135 L297.98364,-26.918259 L298.20163,-49.29697 L298.41962,-44.14681 L298.6376,-39.511665 L298.8556,-35.340034 L299.07358,-31.585567 L299.29156,-28.206547 L299.50955,-25.165428 L299.7275,-22.428421 L299.9455,-19.965117 L300.16348,-43.03914 L300.38147,-38.514763 L300.59946,-34.44282 L300.81744,-30.778076 L301.03543,-27.479805 L301.25342,-49.80236 L301.47137,-44.60166 L301.68936,-39.921032 L301.90735,-35.708466 L302.12534,-31.917154 L302.34332,-28.504976 L302.5613,-25.434013 L302.7793,-22.670149 L302.99728,-20.18267 L303.21527,-17.94394 L303.43323,-15.929082 L303.6512,-14.11571 L303.8692,-12.483676 L304.0872,-11.014844 L304.30518,-9.692896 L304.52316,-8.503143 L304.74115,-7.432365 L304.95914,-6.4686646 L305.17712,-5.6013346 L305.39508,-4.8207374 L305.61307,-4.1182 L305.83105,-3.4859164 L306.04904,-2.916861 L306.26703,-2.4047112 L306.48502,-1.9437764 L306.703,-1.5289351 L306.921,-1.1555779 L307.13898,-0.81955636 L307.35693,-0.51713705 L307.57492,-0.24495965 L307.7929,-0 L308.0109,-25.070536 L308.22888,-22.34302 L308.44687,-19.888254 L308.66486,-17.678965 L308.88284,-15.690604 L309.10083,-64.48308 L309.3188,-57.81431 L309.53677,-77.10342 L309.75476,-69.17261 L309.97275,-62.034885 L310.19073,-55.61093 L310.40872,-49.829376 L310.6267,-44.625973 L310.8447,-39.942913 L311.06268,-35.728157 L311.28064,-31.93488 L311.49863,-28.520927 L311.7166,-25.44837 L311.9346,-22.68307 L312.1526,-20.1943 L312.37057,-17.954405 L312.58856,-41.2295 L312.80655,-62.177086 L313.02454,-55.738914 L313.2425,-49.94456 L313.46048,-44.72964 L313.67847,-40.036213 L313.89645,-35.812126 L314.11444,-32.010452 L314.33243,-53.879944 L314.5504,-48.271484 L314.7684,-43.223873 L314.9864,-38.681023 L315.20435,-34.592457 L315.42233,-56.203747 L315.64032,-50.362907 L315.8583,-45.106155 L316.0763,-40.375076 L316.29428,-61.408104 L316.51227,-55.04683 L316.73026,-49.321682 L316.94824,-44.169052 L317.1662,-64.822685 L317.3842,-58.11995 L317.60217,-52.08749 L317.82016,-46.65828 L318.03815,-41.771988 L318.25613,-37.374325 L318.47412,-58.707428 L318.6921,-52.616222 L318.9101,-47.134136 L319.12805,-67.49126 L319.34604,-60.521667 L319.56403,-54.24904 L319.782,-48.603672 L320,-68.81384 L320.218,-61.711994 L320.43597,-55.32033 L320.65396,-49.567833 L320.87195,-44.390587 L321.0899,-65.022064 L321.3079,-58.299393 L321.52588,-52.24899 L321.74387,-46.803627 L321.96185,-41.9028 L322.17984,-62.78306 L322.39783,-56.284286 L322.6158,-50.435394 L322.8338,-70.462395 L323.05176,-63.19569 L323.26974,-56.65566 L323.48773,-50.769627 L323.70572,-45.472202 L323.9237,-40.704517 L324.1417,-61.7046 L324.35968,-55.31368 L324.57767,-49.561848 L324.79565,-44.385197 L325.0136,-39.726215 L325.2316,-35.53313 L325.4496,-31.759354 L325.66757,-28.362953 L325.88556,-25.306194 L326.10355,-22.55511 L326.32153,-20.079136 L326.53952,-17.85076 L326.7575,-15.84522 L326.97546,-14.040235 L327.19345,-12.415747 L327.41144,-36.24471 L327.62943,-32.399773 L327.8474,-28.939333 L328.0654,-25.824936 L328.2834,-23.021978 L328.50137,-20.499317 L328.71936,-18.228922 L328.93732,-16.185566 L329.1553,-39.637547 L329.3733,-35.453327 L329.59128,-56.97853 L329.80927,-51.060215 L330.02725,-45.73373 L330.24524,-91.5219 L330.46323,-82.14924 L330.6812,-73.71385 L330.89917,-66.122 L331.11716,-59.28934 L331.33514,-53.139942 L331.55313,-47.605484 L331.77112,-67.915474 L331.9891,-86.19446 L332.2071,-77.35455 L332.42508,-69.398636 L332.64307,-62.238304 L332.86102,-55.79401 L333.079,-49.99415 L333.297,-44.77427 L333.51498,-65.36738 L333.73297,-58.610176 L333.95096,-52.528694 L334.16895,-47.055363 L334.38693,-42.12936 L334.60492,-37.69596 L334.82288,-33.705902 L335.04086,-30.11485 L335.25885,-26.8829 L335.47684,-23.974146 L335.69482,-46.647266 L335.9128,-41.762077 L336.1308,-37.365406 L336.3488,-33.4084 L336.56677,-55.1381 L336.78473,-49.403824 L337.00272,-44.242977 L337.2207,-39.598217 L337.4387,-35.41793 L337.65668,-31.655674 L337.87466,-28.269644 L338.09265,-50.513214 L338.31064,-45.24143 L338.52863,-40.496822 L338.74658,-36.226677 L338.96457,-32.383545 L339.18256,-28.924728 L339.40054,-25.81179 L339.61853,-23.010149 L339.83652,-20.48867 L340.0545,-43.510338 L340.2725,-38.938843 L340.49045,-34.824493 L340.70844,-31.12158 L340.92642,-27.78896 L341.1444,-24.789598 L341.3624,-22.090176 L341.58038,-44.951694 L341.79837,-40.23606 L342.01636,-35.991993 L342.23434,-57.46333 L342.4523,-51.496532 L342.6703,-46.126415 L342.88828,-66.58431 L343.10626,-59.705414 L343.32425,-78.80541 L343.54224,-95.99541 L343.76022,-136.7574 L343.9782,-148.15219 L344.1962,-133.11652 L344.41415,-144.8754 L344.63214,-155.45839 L344.85013,-139.6921 L345.0681,-125.50242 L345.2861,-112.73171 L345.5041,-126.529076 L345.72208,-113.65571 L345.94006,-102.06967 L346.15805,-116.93324 L346.376,-105.019455 L346.594,-94.29704 L346.81198,-84.64687 L347.02997,-101.25272 L347.24796,-90.90699 L347.46594,-81.595825 L347.68393,-73.21578 L347.90192,-65.67374 L348.1199,-84.1769 L348.33786,-75.53875 L348.55585,-67.76441 L348.77383,-86.0585 L348.99182,-77.23219 L349.2098,-69.288506 L349.4278,-62.139194 L349.64578,-55.70481 L349.86377,-49.913864 L350.08176,-44.702015 L350.2997,-40.01135 L350.5177,-61.08075 L350.7357,-54.752213 L350.95367,-49.056526 L351.17166,-43.930412 L351.38965,-39.316906 L351.60764,-60.455753 L351.82562,-79.48071 L352.0436,-96.60318 L352.26157,-86.7224 L352.47955,-77.8297 L352.69754,-69.82626 L352.91553,-87.91417 L353.1335,-78.90229 L353.3515,-70.791595 L353.5695,-63.491974 L353.78748,-56.922314 L354.00546,-51.009617 L354.22342,-45.68819 L354.4414,-40.89891 L354.6594,-36.588554 L354.87738,-32.709236 L355.09537,-29.217848 L355.31335,-51.3666 L355.53134,-46.009476 L355.74933,-41.188065 L355.96732,-36.848793 L356.18527,-32.94345 L356.40326,-29.428642 L356.62125,-51.556316 L356.83923,-46.18022 L357.05722,-41.341736 L357.2752,-62.278095 L357.4932,-55.829823 L357.71118,-50.02638 L357.92917,-44.803276 L358.14713,-65.393486 L358.3651,-58.63367 L358.5831,-52.549843 L358.8011,-47.074394 L359.01907,-42.146492 L359.23706,-37.711376 L359.45505,-33.719776 L359.67303,-30.127335 L359.89102,-26.894138 L360.10898,-23.98426 L360.32697,-21.365372 L360.54495,-19.00837 L360.76294,-42.17807 L360.98093,-37.7398 L361.1989,-33.745354 L361.4169,-80.73235 L361.6349,-72.43866 L361.85287,-115.55633 L362.07083,-103.78023 L362.28882,-93.18175 L362.5068,-83.643105 L362.7248,-75.058334 L362.94278,-117.91403 L363.16077,-156.48416 L363.37875,-140.61528 L363.59674,-151.6243 L363.81473,-136.24141 L364.03268,-147.6878 L364.25067,-132.69855 L364.46866,-119.20824 L364.68665,-107.06695 L364.90463,-96.13979 L365.12262,-86.30534 L365.3406,-77.454346 L365.5586,-69.48845 L365.77658,-62.31914 L365.99454,-55.866764 L366.21252,-50.059624 L366.4305,-44.8332 L366.6485,-40.129414 L366.8665,-35.896008 L367.08447,-32.085945 L367.30246,-28.656887 L367.52045,-25.570734 L367.73843,-22.793198 L367.9564,-20.293413 L368.17438,-18.043608 L368.39236,-16.018784 L368.61035,-14.196442 L368.82834,-37.847336 L369.04633,-33.842136 L369.2643,-30.23746 L369.4823,-77.57525 L369.7003,-120.17926 L369.91824,-107.94087 L370.13623,-147.50832 L370.35422,-132.53702 L370.5722,-119.06286 L370.7902,-106.93611 L371.00818,-96.02203 L371.22617,-86.19937 L371.44415,-102.64997 L371.66214,-92.164505 L371.8801,-82.72759 L372.09808,-74.23437 L372.31607,-66.59047 L372.53406,-59.710957 L372.75204,-53.519398 L372.97003,-47.946995 L373.18802,-42.93183 L373.406,-89.00018 L373.624,-79.8797 L373.84195,-71.67127 L374.05994,-64.283676 L374.27792,-57.634846 L374.4959,-51.650898 L374.7139,-46.265347 L374.9319,-41.418346 L375.14987,-37.05605 L375.36786,-58.42098 L375.58585,-52.358418 L375.8038,-46.90211 L376.0218,-41.991436 L376.23978,-62.86283 L376.45776,-106.93809 L376.67575,-96.02381 L376.89374,-136.78297 L377.11172,-122.88421 L377.3297,-110.37532 L377.5477,-99.117325 L377.76566,-88.98513 L377.98364,-79.86615 L378.20163,-96.95007 L378.41962,-87.03461 L378.6376,-78.11068 L378.8556,-70.07915 L379.07358,-62.85077 L379.29156,-56.34523 L379.50955,-50.490242 L379.7275,-45.220753 L379.9455,-40.478214 L380.16348,-36.20993 L380.38147,-32.368473 L380.59946,-28.911161 L380.81744,-51.090584 L381.03543,-45.76106 L381.25342,-40.96449 L381.47137,-36.64758 L381.68936,-32.762356 L381.90735,-29.265657 L382.12534,-76.70063 L382.34332,-68.810104 L382.5613,-61.708626 L382.7793,-55.317303 L382.99728,-49.565105 L383.21527,-44.388134 L383.43323,-39.728855 L383.6512,-35.535507 L383.8692,-31.761492 L384.0872,-28.36488 L384.30518,-25.307928 L384.52316,-47.84767 L384.74115,-42.84244 L384.95914,-63.628735 L385.17712,-57.045395 L385.39508,-51.12039 L385.61307,-45.78789 L385.83105,-40.988636 L386.04904,-36.669308 L386.26703,-32.781914 L386.48502,-29.28326 L386.703,-51.42547 L386.921,-46.062458 L387.13898,-41.23575 L387.35693,-62.182713 L387.57492,-55.743977 L387.7929,-49.949116 L388.0109,-44.73374 L388.22888,-40.0399 L388.44687,-35.81545 L388.66486,-32.01344 L388.88284,-28.591633 L389.10083,-50.803005 L389.3188,-70.79324 L389.53677,-114.075455 L389.75476,-102.44744 L389.97275,-91.98224 L390.19073,-82.563545 L390.40872,-99.37773 L390.6267,-89.21949 L390.8447,-80.07708 L391.06268,-71.84891 L391.28064,-64.44356 L391.49863,-83.06973 L391.7166,-74.5423 L391.9346,-66.86761 L392.1526,-59.96038 L392.37057,-53.743877 L392.58856,-48.14903 L392.80655,-43.11366 L393.02454,-38.58183 L393.2425,-34.503185 L393.46048,-30.832401 L393.67847,-27.528698 L393.89645,-24.555365 L394.11444,-21.879364 L394.33243,-19.470964 L394.5504,-17.303404 L394.7684,-15.3526 L394.9864,-13.596876 L395.20435,-12.016726 L395.42233,-10.594589 L395.64032,-9.314667 L395.8583,-58.744736 L396.0763,-52.6498 L396.29428,-47.164356 L396.51227,-42.227455 L396.73026,-37.78425 L396.94824,-33.78536 L397.1662,-30.18636 L397.3842,-26.94726 L397.60217,-24.03207 L397.82016,-21.4084 L398.03815,-19.047096 L398.25613,-16.921923 L398.47412,-15.009266 L398.6921,-13.287876 L398.9101,-11.738625 L399.12805,-10.344298 L399.34604,-9.089405 L399.56403,-7.960001 L399.782,-6.943537 L400,-6.0287194 L400.218,-5.205384 L400.43597,-4.4643817 L400.65396,-3.79748 L400.87195,-28.488268 L401.0899,-25.418978 L401.3079,-22.656616 L401.52588,-20.17049 L401.74387,-43.22398 L401.96185,-38.681118 L402.17984,-59.88354 L402.39783,-53.674725 L402.6158,-98.668785 L402.8338,-88.58144 L403.05176,-79.50284 L403.26974,-71.33209 L403.48773,-63.978416 L403.70572,-107.94211 L403.9237,-122.21844 L404.1417,-109.77613 L404.35968,-98.57806 L404.57767,-88.49979 L404.79565,-79.429344 L405.0136,-71.265945 L405.2316,-63.918884 L405.4496,-57.306534 L405.66757,-51.355415 L405.88556,-45.999413 L406.10355,-66.47001 L406.32153,-59.602543 L406.53952,-53.421825 L406.7575,-47.859177 L406.97546,-42.8528 L407.19345,-38.347054 L407.41144,-34.291885 L407.62943,-30.642233 L407.8474,-27.357546 L408.0654,-24.401327 L408.2834,-21.74073 L408.50137,-19.346193 L408.71936,-17.19111 L408.93732,-40.542538 L409.1553,-36.26782 L409.3733,-32.420574 L409.59128,-28.958052 L409.80927,-25.841784 L410.02725,-23.037142 L410.24524,-20.512964 L410.46323,-18.241203 L410.6812,-16.196619 L410.89917,-14.356494 L411.11716,-37.991383 L411.33514,-33.97178 L411.55313,-30.354137 L411.77112,-27.09826 L411.9891,-49.45897 L412.2071,-44.29261 L412.42508,-64.93388 L412.64307,-58.22003 L412.86102,-52.177567 L413.079,-46.739346 L413.297,-67.13595 L413.51498,-60.20189 L413.73297,-79.252235 L413.95096,-71.10655 L414.16895,-63.77543 L414.38693,-57.177425 L414.60492,-51.239216 L414.82288,-71.18583 L415.04086,-63.846786 L415.25885,-82.532646 L415.47684,-74.058914 L415.69482,-66.43256 L415.9128,-59.56884 L416.1308,-53.39149 L416.3488,-47.83188 L416.56677,-42.828228 L416.78473,-38.32494 L417.00272,-34.271984 L417.2207,-30.624321 L417.4387,-52.632427 L417.65668,-47.14872 L417.87466,-42.213383 L418.09265,-63.06258 L418.31064,-56.53586 L418.52863,-50.66181 L418.74658,-45.375164 L418.96457,-40.617184 L419.18256,-36.335003 L419.40054,-32.48104 L419.61853,-29.012472 L419.83652,-25.89076 L420.0545,-23.08122 L420.2725,-20.552635 L420.49045,-18.276909 L420.70844,-16.228754 L420.92642,-64.967415 L421.1444,-58.25021 L421.3624,-52.204723 L421.58038,-46.76379 L421.79837,-67.15794 L422.01636,-85.51269 L422.23434,-76.74096 L422.4523,-68.8464 L422.6703,-61.74129 L422.88828,-55.3467 L423.10626,-49.591568 L423.32425,-44.411945 L423.54224,-65.04129 L423.76022,-58.316696 L423.9782,-52.26456 L424.1962,-46.817642 L424.41415,-41.915413 L424.63214,-37.50341 L424.85013,-33.532604 L425.0681,-29.95888 L425.2861,-26.742529 L425.5041,-23.847813 L425.72208,-21.242567 L425.94006,-18.897846 L426.15805,-16.787598 L426.376,-40.179375 L426.594,-35.940975 L426.81198,-32.12641 L427.02997,-53.984306 L427.24796,-48.365414 L427.46594,-43.308407 L427.68393,-64.0481 L427.90192,-57.42283 L428.1199,-51.460083 L428.33786,-46.093613 L428.55585,-41.263786 L428.77383,-36.916943 L428.99182,-33.004787 L429.2098,-29.483843 L429.4278,-26.314995 L429.64578,-23.463032 L429.86377,-20.896265 L430.08176,-18.586176 L430.2997,-67.089096 L430.5177,-110.74172 L430.7357,-99.44708 L430.95367,-89.28191 L431.17166,-80.133255 L431.38965,-71.89947 L431.60764,-64.48906 L431.82562,-57.819687 L432.0436,-51.817257 L432.26157,-46.415066 L432.47955,-41.553097 L432.69754,-37.177322 L432.91553,-33.23913 L433.1335,-29.69475 L433.3515,-26.504812 L433.5695,-23.633867 L433.78748,-21.050016 L434.00546,-18.724552 L434.22342,-16.631632 L434.4414,-14.748006 L434.6594,-38.343742 L434.87738,-34.288902 L435.09537,-30.63955 L435.31335,-27.355131 L435.53134,-24.399155 L435.74933,-47.029774 L435.96732,-42.106335 L436.18527,-37.675236 L436.40326,-33.68725 L436.62125,-30.09806 L436.83923,-26.86779 L437.05722,-23.960548 L437.2752,-46.63503 L437.4932,-41.751064 L437.71118,-37.35549 L437.92917,-33.39948 L438.14713,-29.83907 L438.3651,-26.634697 L438.5831,-23.750765 L438.8011,-21.155224 L439.01907,-44.110237 L439.23706,-39.478752 L439.45505,-35.310413 L439.67303,-31.558907 L439.89102,-28.182552 L440.10898,-25.143833 L440.32697,-22.408987 L440.54495,-19.947624 L440.76294,-17.732399 L440.98093,-66.320694 L441.1989,-59.468163 L441.4169,-103.88288 L441.6349,-93.27413 L441.85287,-83.72625 L442.07083,-75.13316 L442.28882,-67.39938 L442.5068,-60.438984 L442.7248,-54.17462 L442.94278,-48.536694 L443.16077,-43.462563 L443.37875,-38.89584 L443.59674,-34.785793 L443.81473,-31.08675 L444.03268,-78.339615 L444.25067,-70.28519 L444.46866,-63.036205 L444.68665,-81.80312 L444.90463,-73.40234 L445.12262,-91.132645 L445.3406,-81.79892 L445.5586,-73.39856 L445.77658,-91.12924 L445.99454,-107.08685 L446.21252,-96.15771 L446.4305,-86.32147 L446.6485,-77.468864 L446.8665,-69.50151 L447.08447,-62.330894 L447.30246,-55.877342 L447.52045,-50.069145 L447.73843,-44.841766 L447.9564,-65.42812 L448.17438,-58.66485 L448.39236,-77.868904 L448.61035,-69.86155 L448.82834,-62.65493 L449.04633,-56.168972 L449.2643,-50.33161 L449.4823,-45.077988 L449.7003,-40.349724 L449.91824,-36.094288 L450.13623,-57.555397 L450.35422,-51.57939 L450.5722,-46.20099 L450.7902,-41.360428 L451.00818,-62.29492 L451.22617,-55.844963 L451.44415,-50.040005 L451.66214,-44.81554 L451.8801,-40.11352 L452.09808,-61.172707 L452.31607,-54.834972 L452.53406,-49.131012 L452.75204,-69.288445 L452.97003,-62.139137 L453.18802,-55.70476 L453.406,-49.913822 L453.624,-44.701977 L453.84195,-40.011314 L454.05994,-35.78972 L454.27792,-31.990284 L454.4959,-28.570791 L454.7139,-25.493248 L454.9319,-22.72346 L455.14987,-45.521652 L455.36786,-40.749023 L455.58585,-61.744656 L455.8038,-55.349728 L456.0218,-49.59429 L456.23978,-44.4144 L456.45776,-39.752495 L456.67575,-60.847782 L456.89374,-54.542538 L457.11172,-48.86782 L457.3297,-43.760574 L457.5477,-39.164055 L457.76566,-60.318184 L457.98364,-54.065903 L458.20163,-48.43885 L458.41962,-43.3745 L458.6376,-38.816586 L458.8556,-85.29646 L459.07358,-76.54636 L459.29156,-68.67126 L459.50955,-86.874664 L459.7275,-103.25774 L459.9455,-92.7115 L460.16348,-133.80188 L460.38147,-120.20123 L460.59946,-107.96065 L460.81744,-96.944115 L461.03543,-87.02924 L461.25342,-78.10586 L461.47137,-95.36581 L461.68936,-85.608765 L461.90735,-76.82742 L462.12534,-68.92422 L462.34332,-61.81133 L462.5613,-55.409733 L462.7793,-49.648296 L462.99728,-44.463 L463.21527,-65.08724 L463.43323,-58.35805 L463.6512,-77.59278 L463.8692,-69.61304 L464.0872,-62.431274 L464.30518,-81.25868 L464.52316,-72.91235 L464.74115,-65.40065 L464.95914,-58.64012 L465.17712,-52.555645 L465.39508,-47.079617 L465.61307,-42.15119 L465.83105,-37.71561 L466.04904,-33.723587 L466.26703,-30.130762 L466.48502,-26.897223 L466.703,-49.278038 L466.921,-44.12977 L467.13898,-39.49633 L467.35693,-35.326233 L467.57492,-31.573145 L467.7929,-28.195368 L468.0109,-50.446365 L468.22888,-45.181267 L468.44687,-40.442677 L468.66486,-36.177944 L468.88284,-57.630688 L469.10083,-76.938156 L469.3188,-69.02387 L469.53677,-61.901024 L469.75476,-55.49046 L469.97275,-49.720947 L470.19073,-44.52839 L470.40872,-39.855087 L470.6267,-35.649117 L470.8447,-57.15474 L471.06268,-51.218803 L471.28064,-45.876457 L471.49863,-66.35935 L471.7166,-59.50295 L471.9346,-53.33219 L472.1526,-47.778507 L472.37057,-42.780193 L472.58856,-38.28171 L472.80655,-34.233078 L473.02454,-30.589304 L473.2425,-27.30991 L473.46048,-24.358456 L473.67847,-21.702147 L473.89645,-19.311468 L474.11444,-17.159859 L474.33243,-15.223409 L474.5504,-38.771603 L474.7684,-34.67398 L474.9864,-81.568115 L475.20435,-98.48184 L475.42233,-88.41319 L475.64032,-155.22441 L475.8583,-139.4815 L476.0763,-125.31289 L476.29428,-112.56114 L476.51227,-101.084564 L476.73026,-90.755646 L476.94824,-81.45962 L477.1662,-73.093185 L477.3842,-65.56341 L477.60217,-84.0776 L477.82016,-75.44938 L478.03815,-67.683975 L478.25613,-60.695114 L478.47412,-54.40514 L478.6921,-48.744164 L478.9101,-43.649284 L479.12805,-64.35489 L479.34604,-57.698936 L479.56403,-51.70858 L479.782,-46.317257 L480,-41.46507" fill="none" stroke="black" stroke-linejoin="round" stroke-width="2"/>
</g>
</g>
<g>
<g>
<line stroke="black" stroke-width="1" x1="0" x2="0" y1="0" y2="10"/>
<line stroke="black" stroke-width="1" x1="87.19346049046321" x2="87.19346049046321" y1="0" y2="10"/>
<line stroke="black" stroke-width="1" x1="174.38692098092642" x2="174.38692098092642" y1="0" y2="10"/>
<line stroke="black" stroke-width="1" x1="261.58038147138967" x2="261.58038147138967" y1="0" y2="10"/>
<line stroke="black" stroke-width="1" x1="348.77384196185284" x2="348.77384196185284" y1="0" y2="10"/>
<line stroke="black" stroke-width="1" x1="435.96730245231606" x2="435.96730245231606" y1="0" y2="10"/>
</g>
<line stroke="black" stroke-width="1" x1="0" x2="480" y1="0" y2="0"/>
<g>
<text font-size="12" text-anchor="middle" x="0" y="20">
0
</text>
<text font-size="12" text-anchor="middle" x="87.19346049046321" y="20">
400
</text>
<text font-size="12" text-anchor="middle" x="174.38692098092642" y="20">
800
</text>
<text font-size="12" text-anchor="middle" x="261.58038147138967" y="20">
1200
</text>
<text font-size="12" text-anchor="middle" x="348.77384196185284" y="20">
1600
</text>
<text font-size="12" text-anchor="middle" x="435.96730245231606" y="20">
2000
</text>
</g>
<text font-size="12" text-anchor="middle" x="240" y="30">

</text>
</g>
<g>
<g>
<line stroke="black" stroke-width="1" x1="0" x2="-10" y1="0.0005262344758349575" y2="0.0005262344758349575"/>
<line stroke="black" stroke-width="1" x1="0" x2="-10" y1="-63.22697394754862" y2="-63.22697394754862"/>
<line stroke="black" stroke-width="1" x1="0" x2="-10" y1="-126.45447412957309" y2="-126.45447412957309"/>
<line stroke="black" stroke-width="1" x1="0" x2="-10" y1="-189.68197431159754" y2="-189.68197431159754"/>
<line stroke="black" stroke-width="1" x1="0" x2="-10" y1="-252.909474493622" y2="-252.909474493622"/>
<line stroke="black" stroke-width="1" x1="0" x2="-10" y1="-316.13697467564646" y2="-316.13697467564646"/>
</g>
<line stroke="black" stroke-width="1" x1="0" x2="0" y1="0" y2="-340"/>
<g>
<text dominant-baseline="middle" font-size="12" text-anchor="end" x="-15" y="0.0005262344758349575">
4.01743
</text>
<text dominant-baseline="middle" font-size="12" text-anchor="end" x="-15" y="-63.22697394754862">
4.51743
</text>
<text dominant-baseline="middle" font-size="12" text-anchor="end" x="-15" y="-126.45447412957309">
5.01743
</text>
<text dominant-baseline="middle" font-size="12" text-anchor="end" x="-15" y="-189.68197431159754">
5.51743
</text>
<text dominant-baseline="middle" font-size="12" text-anchor="end" x="-15" y="-252.909474493622">
6.01743
</text>
<text dominant-baseline="middle" font-size="12" text-anchor="end" x="-15" y="-316.13697467564646">
6.51743
</text>
</g>
<text font-size="12" text-anchor="middle" transform="rotate(-90 -84 -170)" x="-84" y="-182">

</text>
</g>
</g>
</svg>