<svg viewBox="0 0 600 400" xmlns="http://www.w3.org/2000/svg">
<g transform="translate(72, 364)">
<g>
<g>
<path d="M0,-173.1317 L0,-173.1317 L0.21641119,-155.25279 L0.43282238,-178.89268 L0.6492335,-160.43767 L0.86564475,-143.82817 L1.0820559,-128.87961 L1.298467,-115.42591 L1.5148783,-123.18304 L1.7312895,-110.29899 L1.9477006,-98.703354 L2.1641119,-88.26728 L2.380523,-78.87481 L2.596934,-70.42159 L2.8133454,-62.81369 L3.0297565,-55.966583 L3.2461677,-49.804184 L3.462579,-123.71985 L3.6789901,-110.78212 L3.8954012,-99.13817 L4.1118126,-88.658615 L4.3282237,-79.22701 L4.544635,-70.73857 L4.761046,-63.098976 L4.977457,-56.22334 L5.193868,-50.035263 L5.4102798,-44.466 L5.626691,-39.45366 L5.843102,-74.67346 L6.059513,-66.64038 L6.275924,-59.4106 L6.4923353,-92.63471 L6.7087464,-122.53641 L6.925158,-109.717026 L7.141569,-98.17959 L7.3579803,-87.79589 L7.5743914,-78.45056 L7.7908025,-70.039764 L8.007214,-62.470047 L8.223625,-55.657303 L8.440036,-49.525833 L8.656447,-44.00751 L8.872858,-39.04102 L9.08927,-34.57118 L9.305681,-30.54832 L9.522092,-26.92775 L9.738503,-23.669235 L9.954914,-20.736572 L10.171326,-18.097176 L10.387736,-15.721718 L10.604148,-13.583807 L10.8205595,-51.390594 L11.03697,-45.6858 L11.253382,-40.55148 L11.469792,-35.93059 L11.686204,-31.771791 L11.902615,-28.028873 L12.119026,-24.660246 L12.335438,-21.62848 L12.551848,-18.899895 L12.76826,-16.444164 L12.984671,-133.42674 L13.201082,-119.518326 L13.417493,-107.000755 L13.633904,-95.73494 L13.850316,-85.5957 L14.066727,-116.2013 L14.283138,-143.74634 L14.499549,-128.80597 L14.7159605,-115.359634 L14.932371,-103.25793 L15.148783,-211.55913 L15.365194,-269.2993 L15.581605,-241.80362 L15.798017,-217.05753 L16.014427,-274.24786 L16.230839,-285.98825 L16.44725,-256.82367 L16.66366,-230.57556 L16.880072,-206.95227 L17.096483,-185.6913 L17.312895,-206.28734 L17.529306,-224.82378 L17.745716,-201.77567 L17.962128,-181.03235 L18.17854,-281.55612 L18.39495,-252.83476 L18.611362,-306.44736 L18.827772,-275.23688 L19.044184,-326.60928 L19.260595,-293.3826 L19.477007,-263.4786 L19.693417,-236.565 L19.909828,-212.34277 L20.12624,-190.54276 L20.342651,-290.11548 L20.559063,-340 L20.775473,-305.43427 L20.991884,-314.056 L21.208296,-282.08466 L21.424707,-253.31046 L21.641119,-227.41367 L21.857529,-204.10657 L22.07394,-183.13017 L22.290352,-164.25142 L22.506763,-147.26053 L22.723173,-251.16147 L22.939585,-265.21048 L23.155996,-238.1237 L23.372408,-213.74559 L23.58882,-231.53621 L23.80523,-207.81685 L24.02164,-186.46942 L24.238052,-167.25674 L24.454464,-149.96533 L24.670876,-134.40305 L24.887285,-120.39701 L25.103697,-107.791565 L25.320108,-175.9085 L25.53652,-157.7519 L25.75293,-141.41096 L25.969341,-325.35867 L26.185753,-292.25708 L26.402164,-262.46564 L26.618576,-235.65332 L26.834986,-251.25316 L27.051397,-225.5621 L27.267809,-202.44016 L27.48422,-181.6304 L27.700632,-162.90163 L27.917042,-146.04572 L28.133453,-170.60632 L28.349865,-192.71086 L28.566277,-172.87404 L28.782686,-155.02089 L28.999098,-138.95306 L29.21551,-124.49201 L29.431921,-111.47707 L29.648333,-99.763626 L29.864742,-89.22153 L30.081154,-79.733635 L30.297565,-110.92544 L30.513977,-99.26716 L30.730389,-88.774704 L30.946798,-79.33149 L31.16321,-70.8326 L31.379622,-63.1836 L31.596033,-56.299503 L31.812443,-50.103813 L32.028854,-44.52769 L32.245266,-39.509182 L32.461678,-34.992527 L32.67809,-30.927532 L32.8945,-27.269041 L33.110912,-23.976397 L33.32732,-21.013018 L33.54373,-18.345976 L33.760143,-15.945639 L33.976555,-13.785336 L34.192966,-11.841063 L34.409378,-10.091216 L34.62579,-127.70908 L34.8422,-114.37244 L35.058613,-221.56218 L35.275024,-198.84023 L35.491432,-178.39046 L35.707844,-159.98567 L35.924255,-143.42137 L36.140667,-207.97531 L36.35708,-186.61205 L36.57349,-207.11601 L36.7899,-185.83867 L37.006313,-166.68906 L37.222725,-149.45442 L37.439133,-133.94324 L37.655544,-119.98317 L37.871956,-186.88094 L38.088367,-167.6271 L38.30478,-150.29865 L38.52119,-134.70305 L38.737602,-120.667 L38.954014,-187.49638 L39.170425,-168.181 L39.386833,-150.79716 L39.603245,-135.1517 L39.819656,-121.0708 L40.036068,-108.39798 L40.25248,-216.18517 L40.46889,-194.00092 L40.685303,-174.03508 L40.901714,-156.06584 L41.118126,-139.89351 L41.334538,-125.338425 L41.550945,-112.23884 L41.767357,-219.64194 L41.98377,-197.11201 L42.20018,-176.83507 L42.41659,-238.04764 L42.633003,-213.67714 L42.849415,-191.74368 L43.065826,-172.00357 L43.282238,-193.96838 L43.498646,-213.73672 L43.715057,-191.7973 L43.93147,-172.05183 L44.14788,-154.28091 L44.364292,-138.28708 L44.580704,-123.89264 L44.797115,-110.93763 L45.013527,-99.27813 L45.22994,-88.78458 L45.446346,-79.34038 L45.662758,-70.8406 L45.87917,-63.190804 L46.09558,-56.305984 L46.311993,-50.109646 L46.528404,-44.53294 L46.744816,-198.43755 L46.961227,-178.02805 L47.17764,-159.6595 L47.39405,-262.32056 L47.61046,-235.52275 L47.82687,-290.86655 L48.04328,-261.21417 L48.259693,-234.52701 L48.476105,-210.50856 L48.692516,-188.89197 L48.908928,-248.89885 L49.12534,-223.44322 L49.34175,-200.53317 L49.55816,-259.37592 L49.77457,-232.87259 L49.990982,-248.7505 L50.207394,-223.30972 L50.423805,-200.41301 L50.640217,-219.53688 L50.85663,-197.01744 L51.07304,-176.74997 L51.28945,-198.24014 L51.50586,-177.85039 L51.72227,-159.4996 L51.938683,-142.9839 L52.155094,-128.11978 L52.371506,-114.74206 L52.587917,-102.70211 L52.80433,-91.866165 L53.02074,-82.11381 L53.237152,-73.336685 L53.45356,-65.43728 L53.66997,-58.327812 L53.886383,-91.6602 L54.102795,-81.92844 L54.319206,-73.16985 L54.535618,-65.28713 L54.75203,-58.19268 L54.96844,-91.53858 L55.184853,-81.818985 L55.401264,-73.07134 L55.617672,-104.92938 L55.834084,-93.870705 L56.050495,-83.91789 L56.266907,-233.884 L56.48332,-209.92987 L56.69973,-188.37114 L56.91614,-168.96828 L57.132553,-151.50572 L57.348965,-135.7894 L57.565372,-121.64472 L57.781784,-108.91451 L57.998196,-97.45732 L58.214607,-87.14585 L58.43102,-77.865524 L58.64743,-69.51324 L58.863842,-61.99617 L59.080254,-55.230812 L59.296665,-88.8729 L59.513073,-79.419876 L59.729485,-70.91215 L59.945896,-63.25519 L60.162308,-135.82576 L60.37872,-121.67744 L60.59513,-108.943954 L60.811543,-97.48382 L61.027954,-87.1697 L61.244366,-77.886986 L61.460777,-69.53255 L61.677185,-141.47537 L61.893597,-126.7621 L62.11001,-192.98196 L62.32642,-212.84894 L62.54283,-230.72922 L62.759243,-207.09056 L62.975655,-185.81577 L63.192066,-206.39935 L63.408478,-185.19368 L63.624886,-166.10857 L63.841297,-148.93198 L64.05771,-133.47304 L64.274124,-119.56 L64.49053,-186.50008 L64.70694,-167.28433 L64.923355,-149.99016 L65.13976,-174.15631 L65.35618,-156.17494 L65.572586,-139.9917 L65.789,-125.426796 L66.00541,-112.318375 L66.221825,-100.5208 L66.43823,-89.90298 L66.65464,-80.34694 L66.871056,-71.746506 L67.08746,-143.46794 L67.30388,-128.5554 L67.52029,-115.134125 L67.7367,-103.05497 L67.95311,-92.18374 L68.169525,-82.39962 L68.38593,-73.59392 L68.60234,-65.668785 L68.818756,-58.53617 L69.035164,-52.116814 L69.25158,-46.339394 L69.46799,-41.139713 L69.6844,-36.460003 L69.90081,-71.97917 L70.117226,-64.215515 L70.33363,-57.228226 L70.55005,-50.939663 L70.76646,-45.279957 L70.982864,-79.91713 L71.19928,-150.8215 L71.41569,-135.17361 L71.6321,-121.09051 L71.84851,-108.41572 L72.064926,-97.00841 L72.281334,-86.74183 L72.49775,-77.50191 L72.71416,-69.185974 L72.930565,-101.43255 L73.14698,-130.45447 L73.36339,-116.84328 L73.5798,-104.59321 L73.79621,-93.568146 L74.01263,-83.64559 L74.229034,-74.715294 L74.44545,-66.678024 L74.66186,-99.17539 L74.878265,-168.15393 L75.09468,-150.7728 L75.31109,-214.5916 L75.527504,-192.5667 L75.74391,-172.7443 L75.96033,-154.90413 L76.176735,-138.84798 L76.39315,-164.12834 L76.60956,-186.88068 L76.825966,-167.62688 L77.04238,-190.02936 L77.25879,-170.46068 L77.475204,-152.84888 L77.69161,-136.99825 L77.90803,-122.73268 L78.124435,-109.89368 L78.34085,-138.06947 L78.55726,-123.69679 L78.77367,-110.76137 L78.99008,-99.11949 L79.20649,-88.64181 L79.422905,-79.21188 L79.63931,-110.455864 L79.85573,-98.84454 L80.072136,-88.39435 L80.28855,-78.989174 L80.50496,-70.52451 L80.72137,-62.906326 L80.93778,-95.78086 L81.15419,-85.63704 L81.370605,-76.50759 L81.58701,-68.29109 L81.80343,-60.896244 L82.01984,-54.240883 L82.23625,-48.251053 L82.45266,-42.860207 L82.669075,-77.73936 L82.88548,-69.39968 L83.10189,-61.893974 L83.318306,-55.138836 L83.53471,-88.79012 L83.75113,-79.345375 L83.96754,-70.84509 L84.18395,-142.65666 L84.40036,-127.82526 L84.616776,-114.477 L84.83318,-142.19446 L85.04959,-127.40928 L85.26601,-114.10261 L85.482414,-102.12661 L85.69883,-91.34821 L85.91524,-121.378555 L86.13165,-108.674965 L86.34806,-97.24173 L86.564476,-86.95181 L86.78088,-77.690895 L86.99729,-69.356064 L87.21371,-61.854717 L87.430115,-55.103508 L87.64653,-49.027416 L87.86294,-43.558937 L88.07935,-78.36821 L88.29576,-69.96565 L88.51218,-141.86517 L88.728584,-166.84383 L88.94499,-189.32462 L89.16141,-169.8264 L89.377815,-152.27803 L89.59423,-136.48448 L89.81064,-122.270294 L90.027054,-149.20844 L90.24346,-133.72185 L90.45988,-119.78393 L90.676285,-107.2398 L90.89269,-135.68098 L91.10911,-121.54715 L91.325516,-188.28851 L91.54193,-168.89392 L91.75834,-151.4388 L91.974754,-175.46008 L92.19116,-236.81015 L92.40758,-212.5634 L92.623985,-190.74132 L92.84039,-171.10144 L93.05681,-153.42557 L93.27322,-137.51727 L93.48963,-123.1998 L93.70604,-150.045 L93.922455,-134.47475 L94.13886,-120.46154 L94.35528,-107.84965 L94.571686,-136.22984 L94.7881,-122.04112 L95.00451,-149.00218 L95.22092,-133.53622 L95.43733,-199.07869 L95.65374,-218.33598 L95.870155,-195.93665 L96.08656,-175.77724 L96.30298,-157.63377 L96.51939,-141.30466 L96.7358,-126.60845 L96.95221,-153.11278 L97.16862,-176.96667 L97.38503,-158.70427 L97.60144,-142.2681 L97.817856,-127.47555 L98.03426,-114.162254 L98.25068,-102.18029 L98.46709,-91.39652 L98.6835,-81.69113 L98.89991,-72.956276 L99.11632,-65.09491 L99.33273,-97.75059 L99.54914,-87.40979 L99.76556,-78.10307 L99.981964,-109.45793 L100.19838,-137.6773 L100.41479,-123.34384 L100.6312,-110.44372 L100.84761,-138.56451 L101.06402,-124.14233 L101.28043,-111.16235 L101.49684,-99.48038 L101.71326,-88.9666 L101.929665,-79.5042 L102.14608,-70.98804 L102.36249,-103.054405 L102.5789,-92.18323 L102.79531,-82.39916 L103.01172,-113.32442 L103.228134,-101.42624 L103.44454,-90.71787 L103.66096,-120.81126 L103.877365,-147.8953 L104.09378,-172.27094 L104.31019,-194.20901 L104.5266,-174.22238 L104.74301,-156.2344 L104.95942,-140.04521 L105.175835,-125.47496 L105.39224,-112.361725 L105.60866,-140.29073 L105.825066,-165.42682 L106.04148,-148.31839 L106.25789,-132.92082 L106.474304,-119.062996 L106.69071,-146.32187 L106.90712,-131.12395 L107.123535,-117.44581 L107.33994,-105.13548 L107.55636,-133.78711 L107.772766,-159.57356 L107.98918,-143.05048 L108.20559,-128.17969 L108.422005,-114.795975 L108.63841,-102.75064 L108.85483,-91.909836 L109.071236,-82.153114 L109.28764,-113.102974 L109.50406,-101.22694 L109.72047,-90.5385 L109.93688,-80.918915 L110.15329,-72.261284 L110.369705,-64.46941 L110.58611,-136.91855 L110.80253,-122.66096 L111.018936,-109.829124 L111.235344,-98.28047 L111.45176,-87.88668 L111.66817,-78.53227 L111.88458,-70.11331 L112.10099,-62.53624 L112.317406,-95.447784 L112.53381,-85.337265 L112.75023,-76.2378 L112.96664,-68.04828 L113.183044,-100.40862 L113.39946,-89.80202 L113.61587,-159.7179 L113.83228,-143.18037 L114.04869,-168.0275 L114.26511,-150.65901 L114.481514,-135.02737 L114.69793,-120.95889 L114.91434,-108.297264 L115.130745,-96.9018 L115.34716,-86.64588 L115.56357,-77.41555 L115.77998,-108.839165 L115.99639,-137.12042 L116.21281,-122.842636 L116.429214,-109.99264 L116.64563,-98.427635 L116.86204,-88.01913 L117.078445,-118.382385 L117.29486,-105.97841 L117.51127,-134.54573 L117.727684,-120.52542 L117.94409,-107.90714 L118.16051,-96.55069 L118.376915,-86.32988 L118.59333,-116.86206 L118.80974,-104.610115 L119.026146,-93.58337 L119.24256,-83.65929 L119.45897,-114.45853 L119.675385,-102.44694 L119.89179,-91.636505 L120.10821,-81.90711 L120.324615,-73.150665 L120.54103,-65.26986 L120.75744,-58.17713 L120.973854,-51.79368 L121.19026,-85.77948 L121.40667,-76.635796 L121.623085,-68.40647 L121.83949,-61.000088 L122.05591,-54.33434 L122.272316,-48.335167 L122.48873,-82.66682 L122.70514,-73.8344 L122.921555,-65.885216 L123.13796,-58.730957 L123.35437,-52.29212 L123.570786,-46.49717 L123.78719,-41.28171 L124.00361,-36.587803 L124.22002,-32.36328 L124.43643,-28.561214 L124.65284,-25.139353 L124.869255,-22.059679 L125.08566,-19.287971 L125.30207,-56.524345 L125.518486,-50.30617 L125.73489,-44.709812 L125.95131,-39.67309 L126.16772,-35.140045 L126.38413,-31.060299 L126.60054,-27.38853 L126.816956,-24.083939 L127.03336,-21.109804 L127.24977,-18.433084 L127.46619,-16.024036 L127.682594,-13.855893 L127.89901,-51.635475 L128.11542,-45.906185 L128.33183,-40.74983 L128.54825,-36.109108 L128.76465,-31.932455 L128.98106,-28.173471 L129.19748,-64.52129 L129.41388,-57.503426 L129.6303,-51.187344 L129.84671,-45.50287 L130.06313,-40.38684 L130.27953,-35.782417 L130.49594,-31.638437 L130.71236,-67.63976 L130.92877,-60.310047 L131.14517,-53.713303 L131.36159,-47.776234 L131.578,-42.43287 L131.7944,-37.623844 L132.01082,-33.29572 L132.22723,-29.400408 L132.44365,-65.625534 L132.66005,-58.497246 L132.87646,-52.08178 L133.09288,-46.30786 L133.30928,-41.111336 L133.5257,-36.434464 L133.74211,-32.225277 L133.95853,-28.43701 L134.17493,-25.027569 L134.39134,-141.15181 L134.60776,-126.47088 L134.82417,-192.71988 L135.04057,-172.88214 L135.25699,-155.0282 L135.4734,-138.95964 L135.6898,-124.49793 L135.90622,-111.4824 L136.12263,-99.76842 L136.33905,-89.22584 L136.55545,-119.46842 L136.77187,-146.68675 L136.98828,-131.45233 L137.20468,-117.74136 L137.4211,-105.40149 L137.63751,-94.2956 L137.85393,-124.03121 L138.07033,-111.06235 L138.28674,-139.12128 L138.50316,-124.64342 L138.71957,-111.613335 L138.93597,-99.88626 L139.15239,-89.331894 L139.3688,-79.83297 L139.5852,-71.28393 L139.80162,-63.589798 L140.01804,-56.665077 L140.23445,-50.43283 L140.45085,-84.55472 L140.66727,-75.53351 L140.88368,-67.41441 L141.1001,-60.107235 L141.3165,-93.26168 L141.53291,-83.369774 L141.74933,-74.46706 L141.96573,-106.185524 L142.18214,-95.00123 L142.39856,-84.93536 L142.61497,-75.87609 L142.83138,-67.72274 L143.04779,-60.384727 L143.2642,-93.51143 L143.4806,-83.59454 L143.69702,-74.66935 L143.91344,-66.63667 L144.12985,-59.40727 L144.34625,-52.900803 L144.56267,-47.044983 L144.77908,-41.774746 L144.9955,-76.76244 L145.2119,-108.251366 L145.42831,-96.86049 L145.64473,-126.33961 L145.86113,-113.13991 L146.07755,-101.26018 L146.29396,-90.56842 L146.51038,-80.94584 L146.72678,-112.016426 L146.94319,-100.24905 L147.1596,-89.6584 L147.376,-80.12682 L147.59242,-71.5484 L147.80884,-63.82782 L148.02525,-56.8793 L148.24165,-50.62563 L148.45807,-44.997326 L148.67448,-39.931854 L148.8909,-35.37293 L149.1073,-31.269896 L149.32372,-67.308075 L149.54013,-60.011528 L149.75653,-53.444637 L149.97295,-47.534435 L150.18936,-81.94616 L150.40578,-112.91672 L150.62218,-101.0593 L150.8386,-90.387634 L151.05501,-80.783134 L151.27141,-72.13908 L151.48782,-64.35943 L151.70424,-97.08866 L151.92065,-86.81405 L152.13705,-77.56691 L152.35347,-69.24448 L152.56989,-101.4852 L152.7863,-90.77094 L153.0027,-81.128105 L153.21912,-72.449554 L153.43553,-64.63886 L153.65193,-57.609234 L153.86835,-51.282574 L154.08476,-45.588577 L154.30118,-40.463978 L154.51758,-75.58275 L154.734,-146.92056 L154.95041,-171.39368 L155.16682,-153.68857 L155.38322,-137.75397 L155.59964,-123.412834 L155.81606,-110.505806 L156.03246,-98.88949 L156.24887,-88.4348 L156.46529,-79.02558 L156.6817,-70.55728 L156.8981,-62.935814 L157.11452,-56.076492 L157.33093,-49.903103 L157.54733,-84.077965 L157.76375,-75.10443 L157.98016,-67.028244 L158.19658,-99.49059 L158.41298,-88.97579 L158.6294,-79.512474 L158.84581,-110.726395 L159.06223,-99.08802 L159.27863,-88.61348 L159.49504,-79.186386 L159.71146,-70.70201 L159.92786,-63.06607 L160.14427,-56.19372 L160.36069,-50.00861 L160.5771,-44.44201 L160.7935,-39.43207 L161.00992,-34.923122 L161.22633,-70.59598 L161.44273,-62.970642 L161.65915,-56.107838 L161.87556,-129.39314 L162.09198,-195.3499 L162.30838,-175.24918 L162.5248,-157.15851 L162.74121,-180.60783 L162.95763,-161.98131 L163.17403,-145.21744 L163.39044,-169.86087 L163.60686,-152.30904 L163.82326,-136.51239 L164.03967,-122.29542 L164.25609,-109.50014 L164.4725,-97.98438 L164.6889,-87.6202 L164.90532,-78.29244 L165.12173,-69.89746 L165.33815,-102.07288 L165.55455,-131.03076 L165.77097,-117.36195 L165.98738,-144.79092 L166.20378,-129.7461 L166.4202,-116.20574 L166.63661,-143.75034 L166.85303,-168.54048 L167.06943,-190.8516 L167.28584,-171.2007 L167.50226,-153.5149 L167.71866,-137.59766 L167.93507,-123.272156 L168.15149,-110.3792 L168.3679,-98.77554 L168.5843,-88.332245 L168.80072,-78.93328 L169.01714,-110.205124 L169.23355,-98.61887 L169.44995,-88.191246 L169.66637,-118.53729 L169.88278,-106.11782 L170.09918,-94.9403 L170.3156,-84.88053 L170.53201,-75.82674 L170.74843,-67.67832 L170.96483,-60.344753 L171.18124,-53.744537 L171.39766,-47.804344 L171.61406,-42.45817 L171.83047,-37.646614 L172.04689,-33.31621 L172.2633,-29.418852 L172.4797,-25.911228 L172.69612,-102.21619 L172.91254,-91.428825 L173.12895,-81.72021 L173.34535,-72.982445 L173.56177,-65.11846 L173.77818,-58.040874 L173.99458,-51.671047 L174.211,-45.9382 L174.42741,-40.778645 L174.64383,-36.13504 L174.86023,-31.955795 L175.07664,-28.194477 L175.29306,-24.80929 L175.50946,-21.76262 L175.72588,-19.020618 L175.94229,-56.283726 L176.1587,-50.089615 L176.3751,-44.514915 L176.59152,-39.497684 L176.80794,-34.982174 L177.02435,-30.918219 L177.24075,-66.99157 L177.45717,-59.72667 L177.67358,-53.188263 L177.88998,-47.303696 L178.1064,-42.007587 L178.32281,-76.972 L178.53923,-68.70906 L178.75563,-61.272415 L178.97205,-54.579433 L179.18846,-48.55575 L179.40488,-82.86535 L179.62128,-74.01307 L179.83769,-224.96967 L180.05411,-201.90695 L180.27051,-181.15053 L180.48692,-202.20064 L180.70334,-181.41484 L180.91975,-162.70761 L181.13615,-145.87111 L181.35257,-130.71826 L181.56898,-117.080696 L181.78539,-104.806885 L182.0018,-93.76046 L182.21822,-83.81867 L182.43463,-74.87106 L182.65103,-146.28004 L182.86745,-131.08629 L183.08386,-117.41193 L183.30028,-105.104996 L183.51668,-94.028755 L183.7331,-84.06014 L183.94951,-75.08839 L184.16591,-67.01381 L184.38232,-59.74669 L184.59874,-53.20628 L184.81516,-47.319912 L185.03156,-42.022182 L185.24797,-37.254223 L185.46439,-32.963062 L185.68079,-68.831924 L185.8972,-61.38299 L186.11362,-54.678955 L186.33003,-48.64532 L186.54643,-43.21505 L186.76285,-38.327805 L186.97926,-33.929283 L187.19568,-29.970615 L187.41208,-105.86964 L187.6285,-94.716934 L187.84491,-84.6795 L188.06131,-115.37672 L188.27773,-143.00421 L188.49414,-128.13806 L188.71056,-114.75851 L188.92696,-102.71692 L189.14337,-91.879486 L189.35979,-82.1258 L189.5762,-73.34748 L189.7926,-65.44699 L190.00902,-98.06747 L190.22543,-87.69498 L190.44183,-78.35974 L190.65825,-109.688934 L190.87466,-98.154305 L191.09108,-87.77313 L191.30748,-78.43008 L191.5239,-70.02133 L191.74031,-62.45346 L191.95671,-95.37328 L192.17313,-125.00113 L192.38954,-111.93527 L192.60596,-100.17601 L192.82236,-89.59267 L193.03877,-80.06766 L193.25519,-71.495155 L193.4716,-63.7799 L193.688,-96.56708 L193.90442,-86.344635 L194.12083,-77.14443 L194.33723,-68.86425 L194.55365,-61.412083 L194.77007,-54.705135 L194.98648,-48.66888 L195.20288,-43.236256 L195.4193,-38.34689 L195.63571,-33.94646 L195.85211,-29.986074 L196.06853,-26.421728 L196.28494,-62.944725 L196.50136,-95.81542 L196.71776,-85.668144 L196.93417,-76.53558 L197.15059,-68.31629 L197.367,-140.38074 L197.5834,-205.23874 L197.79982,-223.88004 L198.01624,-200.9263 L198.23264,-180.26793 L198.44905,-201.40631 L198.66547,-220.43085 L198.88188,-197.82202 L199.09828,-177.47408 L199.3147,-159.16093 L199.53111,-142.6791 L199.74751,-127.84545 L199.96393,-114.49516 L200.18034,-102.47991 L200.39676,-91.666176 L200.61316,-81.93382 L200.82957,-73.1747 L201.04599,-65.29149 L201.2624,-58.1966 L201.4788,-51.811203 L201.69522,-46.064342 L201.91164,-40.892166 L202.12804,-36.237213 L202.34445,-32.047752 L202.56087,-28.277237 L202.77728,-64.614685 L202.99368,-57.587475 L203.2101,-90.9939 L203.42651,-81.328766 L203.64293,-112.36106 L203.85933,-100.55922 L204.07574,-89.93755 L204.29216,-80.37806 L204.50856,-71.77451 L204.72498,-64.03133 L204.94139,-57.06245 L205.1578,-50.790466 L205.3742,-45.14568 L205.59062,-40.065372 L205.80704,-35.493095 L206.02344,-31.378046 L206.23985,-27.674501 L206.45627,-24.341312 L206.67268,-21.341442 L206.88908,-18.641558 L207.1055,-16.211662 L207.32191,-14.024756 L207.53833,-12.056541 L207.75473,-50.016056 L207.97115,-44.44871 L208.18756,-79.169014 L208.40396,-70.68637 L208.62038,-63.051994 L208.83679,-95.911964 L209.0532,-125.48594 L209.2696,-152.10251 L209.48602,-136.32652 L209.70244,-122.12813 L209.91884,-109.34958 L210.13525,-97.848885 L210.35167,-87.49825 L210.56808,-78.182686 L210.78448,-69.79868 L211.0009,-62.25307 L211.21732,-55.462025 L211.43373,-49.350082 L211.65013,-43.849335 L211.86655,-38.898663 L212.08296,-34.443058 L212.29936,-30.433012 L212.51578,-26.82397 L212.7322,-23.575834 L212.94861,-20.652512 L213.16501,-18.02152 L213.38142,-15.653628 L213.59784,-13.522526 L213.81424,-51.335445 L214.03065,-45.636158 L214.24707,-40.506805 L214.46349,-75.62129 L214.67989,-67.49342 L214.8963,-60.178345 L215.11272,-53.59477 L215.32913,-47.66955 L215.54553,-42.336857 L215.76195,-37.537434 L215.97836,-72.94886 L216.19476,-65.088234 L216.41118,-58.01367 L216.6276,-51.646564 L216.84401,-45.91617 L217.06041,-40.758812 L217.27682,-36.11719 L217.49324,-31.939732 L217.70966,-28.18002 L217.92606,-24.796278 L218.14247,-61.48182 L218.35889,-54.7679 L218.57529,-247.37991 L218.7917,-222.07619 L219.00812,-199.30283 L219.22453,-218.53772 L219.44093,-196.11821 L219.65735,-175.94064 L219.87376,-157.78084 L220.09016,-141.43701 L220.30658,-126.72758 L220.523,-153.21999 L220.73941,-137.33224 L220.95581,-123.03329 L221.17223,-110.164215 L221.38864,-178.04387 L221.60506,-159.67375 L221.82146,-143.14064 L222.03787,-167.99174 L222.25429,-150.62683 L222.47069,-134.9984 L222.6871,-120.93282 L222.90352,-108.2738 L223.11993,-96.880684 L223.33633,-86.62688 L223.55275,-77.398445 L223.76917,-108.82378 L223.98557,-97.375656 L224.20198,-87.07235 L224.4184,-77.79938 L224.63481,-69.4537 L224.85121,-61.94259 L225.06763,-55.18259 L225.28404,-49.09859 L225.50046,-43.622993 L225.71686,-38.694954 L225.93327,-34.25972 L226.14969,-30.268007 L226.36609,-26.675468 L226.5825,-23.44218 L226.79892,-20.532223 L227.01534,-17.913261 L227.23174,-15.556196 L227.44815,-53.165745 L227.66457,-47.283432 L227.88098,-41.98935 L228.09738,-76.95558 L228.3138,-68.69429 L228.53021,-100.99003 L228.74661,-90.32529 L228.96303,-80.72702 L229.17944,-72.08858 L229.39586,-64.31398 L229.61226,-57.31684 L229.82867,-51.019417 L230.04509,-45.351738 L230.26149,-40.250824 L230.4779,-35.66 L230.69432,-31.528261 L230.91074,-67.5406 L231.12714,-99.95171 L231.34355,-89.3908 L231.55997,-79.88599 L231.77638,-71.33165 L231.99278,-63.63274 L232.2092,-56.703728 L232.42561,-50.467617 L232.64201,-44.855114 L232.85843,-39.803864 L233.07484,-35.257736 L233.29126,-31.166224 L233.50766,-27.483862 L233.72408,-24.169737 L233.94049,-100.64884 L234.15689,-90.01822 L234.3733,-80.45066 L234.58972,-71.83985 L234.80614,-103.82104 L235.02254,-92.87319 L235.23895,-122.751045 L235.45537,-109.9102 L235.67178,-98.35344 L235.88818,-87.952354 L236.1046,-78.591385 L236.32101,-70.166504 L236.53741,-62.584114 L236.75383,-55.759964 L236.97025,-89.34914 L237.18666,-79.84848 L237.40306,-71.2979 L237.61948,-63.602367 L237.83589,-56.67639 L238.05229,-50.443012 L238.2687,-124.29479 L238.48512,-111.29957 L238.70154,-99.603874 L238.91794,-89.07775 L239.13435,-79.60423 L239.35077,-71.07807 L239.56718,-103.13544 L239.78358,-92.25615 L240,-82.4648 L240.21642,-73.65258 L240.43282,-65.72158 L240.64923,-58.583683 L240.86565,-171.35231 L241.08206,-153.65134 L241.29846,-137.72046 L241.51488,-123.382675 L241.7313,-110.47867 L241.94771,-98.86506 L242.16411,-128.14372 L242.38052,-114.76361 L242.59694,-102.72151 L242.81334,-171.34544 L243.02975,-153.64516 L243.24617,-137.7149 L243.46259,-123.37767 L243.67899,-110.47417 L243.8954,-98.86101 L244.11182,-88.40917 L244.32822,-118.73342 L244.54463,-106.29434 L244.76105,-95.09917 L244.97746,-85.02351 L245.19386,-75.95542 L245.41028,-67.794136 L245.6267,-139.9108 L245.84311,-204.81581 L246.05951,-183.76848 L246.27592,-244.28772 L246.49234,-259.0241 L246.70874,-232.55597 L246.92516,-208.73463 L247.14157,-227.02634 L247.35799,-203.75797 L247.57439,-182.81642 L247.7908,-163.96904 L248.00722,-147.0064 L248.22362,-131.74002 L248.44003,-118.000275 L248.65645,-105.634514 L248.87286,-94.50532 L249.08926,-84.48905 L249.30568,-75.4744 L249.5221,-67.36122 L249.73851,-60.05936 L249.95491,-93.2186 L250.17133,-83.33099 L250.38774,-74.43216 L250.60414,-66.4232 L250.82056,-59.21514 L251.03697,-92.4588 L251.25339,-82.64718 L251.46979,-73.81672 L251.6862,-65.86931 L251.90262,-58.71664 L252.11902,-92.01015 L252.33543,-82.24339 L252.55185,-73.453316 L252.76826,-105.273155 L252.98466,-133.91101 L253.20108,-119.95416 L253.4175,-107.39301 L253.63391,-135.81888 L253.85031,-121.67125 L254.06673,-108.938385 L254.28314,-97.478806 L254.49954,-87.16519 L254.71596,-77.88293 L254.93237,-69.5289 L255.14879,-62.01027 L255.36519,-94.97441 L255.5816,-84.91123 L255.79802,-75.85437 L256.01443,-67.70319 L256.23083,-100.098045 L256.44724,-89.5225 L256.66367,-159.46632 L256.88007,-142.95395 L257.0965,-128.09282 L257.3129,-114.7178 L257.5293,-102.68028 L257.74573,-131.57742 L257.96213,-117.85394 L258.17853,-105.50281 L258.39496,-94.38679 L258.61136,-84.38237 L258.82776,-75.378395 L259.0442,-67.27481 L259.2606,-59.98159 L259.47702,-53.417694 L259.69342,-47.510185 L259.90982,-42.193428 L260.12625,-37.408344 L260.34265,-33.10177 L260.55905,-29.225853 L260.77548,-25.737528 L260.99188,-22.598036 L261.20828,-19.772493 L261.4247,-17.229504 L261.6411,-14.940814 L261.85754,-12.880993 L262.07394,-11.027154 L262.29034,-9.358699 L262.50677,-7.8570895 L262.72318,-6.505641 L262.93958,-45.02025 L263.156,-39.952484 L263.3724,-35.391495 L263.5888,-31.286606 L263.80524,-27.592205 L264.02164,-24.267246 L264.23804,-21.274782 L264.45447,-18.581564 L264.67087,-16.157667 L264.8873,-13.976161 L265.1037,-12.012806 L265.3201,-10.245786 L265.53653,-8.655467 L265.75293,-7.224181 L265.96933,-125.12875 L266.18576,-112.05014 L266.40216,-100.27938 L266.61856,-89.68571 L266.835,-80.1514 L267.0514,-71.57052 L267.26782,-63.847725 L267.48422,-56.897213 L267.70062,-50.641754 L267.91705,-45.011837 L268.13345,-39.944916 L268.34985,-35.38468 L268.56628,-31.280476 L268.78268,-27.586689 L268.99908,-24.26228 L269.2155,-21.270311 L269.43192,-18.577541 L269.64835,-16.154047 L269.86475,-53.70381 L270.08115,-47.767693 L270.29758,-82.15609 L270.51398,-73.37474 L270.73038,-65.47153 L270.9468,-58.35864 L271.1632,-51.957035 L271.3796,-46.19559 L271.59604,-41.010292 L271.81244,-36.343525 L272.02887,-32.143433 L272.24527,-28.363348 L272.46167,-24.961275 L272.6781,-21.899408 L272.8945,-19.143726 L273.1109,-16.663614 L273.32733,-14.431514 L273.54373,-12.422623 L273.76013,-10.614621 L273.97656,-8.987419 L274.19296,-7.522938 L274.40936,-6.2049046 L274.6258,-5.0186744 L274.8422,-3.9510672 L275.05862,-2.990221 L275.27502,-41.85637 L275.49142,-37.104992 L275.70786,-32.828754 L275.92426,-28.980139 L276.14066,-25.516386 L276.3571,-62.129917 L276.5735,-55.351185 L276.7899,-49.250328 L277.00632,-43.759556 L277.22272,-78.54877 L277.43915,-70.12815 L277.65555,-62.5496 L277.87195,-55.728897 L278.08838,-89.32118 L278.30478,-79.82332 L278.52118,-71.27525 L278.7376,-63.581985 L278.954,-56.658047 L279.1704,-50.426502 L279.38684,-44.81811 L279.60324,-39.77056 L279.81967,-35.227768 L280.03607,-31.13925 L280.25247,-27.459585 L280.4689,-63.878796 L280.6853,-56.92518 L280.9017,-50.66692 L281.11813,-45.03449 L281.33453,-39.9653 L281.55093,-35.40303 L281.76736,-110.758804 L281.98376,-138.8481 L282.2002,-124.397545 L282.4166,-111.39205 L282.633,-99.68711 L282.84943,-89.15266 L283.06583,-79.67165 L283.28223,-190.33148 L283.49866,-210.4635 L283.71506,-188.85141 L283.93146,-169.40053 L284.1479,-151.89473 L284.3643,-175.87044 L284.5807,-157.71765 L284.79712,-141.38014 L285.01352,-166.4073 L285.22995,-149.20084 L285.44635,-133.71501 L285.66275,-199.2396 L285.87918,-178.7499 L286.09558,-160.30916 L286.31198,-183.44342 L286.5284,-164.53334 L286.7448,-147.51427 L286.9612,-171.92801 L287.17764,-154.16946 L287.39404,-138.18678 L287.61047,-123.80236 L287.82687,-110.856384 L288.04327,-99.20501 L288.2597,-88.718765 L288.4761,-79.28115 L288.6925,-70.78729 L288.90894,-63.142826 L289.12534,-56.262806 L289.34174,-50.070786 L289.55817,-44.497967 L289.77457,-39.48243 L289.991,-34.96845 L290.2074,-30.905863 L290.4238,-27.249537 L290.64023,-63.689754 L290.85663,-56.75504 L291.07303,-50.513794 L291.28946,-84.62759 L291.50586,-115.329994 L291.72226,-103.231255 L291.9387,-92.34239 L292.1551,-162.00423 L292.37152,-145.23807 L292.58792,-169.87944 L292.80432,-192.05666 L293.02075,-172.28525 L293.23715,-154.49098 L293.45355,-138.47615 L293.66998,-124.0628 L293.88638,-111.090775 L294.10278,-139.14687 L294.3192,-124.66644 L294.5356,-111.634056 L294.752,-99.904915 L294.96844,-89.34869 L295.18484,-119.57899 L295.40128,-107.05534 L295.61768,-95.78407 L295.83408,-85.63992 L296.0505,-76.51019 L296.2669,-68.293434 L296.4833,-60.89835 L296.69974,-54.242775 L296.91614,-48.252758 L297.13254,-82.59265 L297.34897,-153.22946 L297.56537,-177.07169 L297.7818,-198.5297 L297.9982,-178.11098 L298.2146,-159.73415 L298.43103,-143.19499 L298.64743,-128.30975 L298.86383,-114.91304 L299.08026,-102.855995 L299.29666,-131.73557 L299.51306,-117.99627 L299.7295,-105.630905 L299.9459,-94.502075 L300.16232,-124.21703 L300.37872,-111.22959 L300.59512,-139.2718 L300.81155,-124.778885 L301.02795,-111.73525 L301.24435,-99.99599 L301.4608,-89.43065 L301.6772,-79.921844 L301.8936,-71.36392 L302.11002,-63.66179 L302.32642,-56.729874 L302.54282,-90.22205 L302.75925,-80.63411 L302.97565,-72.00496 L303.19208,-64.23872 L303.40848,-136.71094 L303.62488,-122.4741 L303.8413,-109.66095 L304.0577,-98.12911 L304.2741,-167.21228 L304.49054,-189.65622 L304.70694,-170.12486 L304.92334,-152.54663 L305.13977,-136.72623 L305.35617,-122.48787 L305.5726,-109.67335 L305.789,-137.87119 L306.0054,-163.24924 L306.22183,-146.35857 L306.43823,-131.15697 L306.65463,-117.47553 L306.87106,-105.16224 L307.08746,-94.08028 L307.30386,-84.106514 L307.5203,-75.13012 L307.7367,-67.05137 L307.95313,-99.511406 L308.16953,-88.99452 L308.38593,-79.52933 L308.60236,-71.01066 L308.81876,-63.343853 L309.03516,-96.17464 L309.2516,-85.99143 L309.468,-76.82655 L309.6844,-108.30907 L309.90082,-96.91242 L310.11722,-86.65544 L310.33365,-77.42416 L310.55005,-69.116 L310.76645,-61.63866 L310.98288,-54.909054 L311.19928,-48.85241 L311.41568,-122.86325 L311.6321,-110.011185 L311.8485,-98.44433 L312.0649,-88.03416 L312.28134,-78.665 L312.49774,-70.23276 L312.71414,-62.643745 L312.93057,-135.27545 L313.14697,-121.18217 L313.3634,-108.49821 L313.5798,-97.08265 L313.7962,-86.80865 L314.01263,-117.292946 L314.22903,-104.99792 L314.44543,-93.93238 L314.66187,-83.973404 L314.87827,-75.01032 L315.09467,-66.94355 L315.3111,-59.68346 L315.5275,-53.149372 L315.74393,-86.9996 L315.96033,-77.73391 L316.17673,-69.394775 L316.39316,-61.889557 L316.60956,-55.134865 L316.82596,-49.055637 L317.0424,-43.584335 L317.2588,-38.66016 L317.4752,-34.228405 L317.69162,-109.701645 L317.90802,-98.16574 L318.12445,-87.783424 L318.34085,-78.43935 L318.55725,-70.02967 L318.77368,-62.460964 L318.99008,-55.649128 L319.20648,-89.24938 L319.4229,-79.758705 L319.6393,-71.217094 L319.8557,-63.529648 L320.07214,-96.34185 L320.28854,-125.87284 L320.50497,-112.71982 L320.72137,-100.882095 L320.93777,-90.22814 L321.1542,-80.63959 L321.3706,-72.009895 L321.587,-64.243164 L321.80344,-57.25311 L322.01984,-50.962055 L322.23624,-45.30011 L322.45267,-40.20436 L322.66907,-35.618187 L322.88547,-31.490627 L323.1019,-27.775826 L323.3183,-24.432503 L323.53473,-21.423513 L323.75113,-18.715422 L323.96753,-95.73996 L324.18396,-85.60023 L324.40036,-116.20537 L324.61676,-143.75 L324.8332,-128.80927 L325.0496,-115.3626 L325.266,-103.2606 L325.48242,-211.56152 L325.69882,-189.83963 L325.91525,-249.75175 L326.13165,-224.21083 L326.34805,-201.22401 L326.56448,-180.53587 L326.78088,-161.91655 L326.99728,-145.15915 L327.2137,-130.0775 L327.4301,-195.96582 L327.6465,-175.80351 L327.86295,-157.65741 L328.07935,-181.05684 L328.29578,-162.38542 L328.51218,-145.58113 L328.72858,-130.45729 L328.945,-116.84582 L329.1614,-104.5955 L329.3778,-133.30112 L329.59424,-119.405266 L329.81064,-106.899 L330.02704,-95.64336 L330.24347,-85.51328 L330.45987,-76.39622 L330.6763,-68.19086 L330.8927,-60.80603 L331.1091,-133.6215 L331.32553,-119.69362 L331.54193,-107.158516 L331.75833,-95.87692 L331.97476,-85.723495 L332.19116,-76.5854 L332.40756,-108.09203 L332.624,-96.71709 L332.8404,-86.479645 L333.0568,-77.26594 L333.27322,-68.9736 L333.48962,-61.510506 L333.70605,-54.793713 L333.92245,-48.748604 L334.13885,-122.76982 L334.3553,-149.658 L334.5717,-173.85738 L334.7881,-155.9059 L335.00452,-139.74957 L335.22092,-125.20888 L335.43732,-112.122246 L335.65375,-100.344284 L335.87015,-89.74412 L336.08658,-80.203964 L336.30298,-111.34874 L336.51938,-99.648125 L336.7358,-89.11758 L336.9522,-79.640076 L337.1686,-71.11033 L337.38504,-63.433556 L337.60144,-56.52446 L337.81784,-90.037186 L338.03427,-80.46773 L338.25067,-71.85522 L338.4671,-64.10395 L338.6835,-96.85873 L338.8999,-86.60712 L339.11633,-117.11157 L339.33273,-104.83468 L339.54913,-173.24728 L339.76556,-195.08774 L339.98196,-175.01321 L340.19836,-156.94615 L340.4148,-140.6858 L340.6312,-126.05148 L340.8476,-112.88059 L341.06403,-101.026794 L341.28043,-130.08928 L341.49686,-116.51462 L341.71326,-104.29742 L341.92966,-93.30193 L342.1461,-202.59872 L342.3625,-261.23492 L342.5789,-234.5457 L342.79532,-210.52539 L343.01172,-228.63803 L343.22812,-284.6703 L343.44455,-255.63753 L343.66095,-229.50804 L343.87738,-205.9915 L344.09378,-184.82661 L344.31018,-165.77821 L344.5266,-188.36555 L344.743,-168.96326 L344.9594,-151.50119 L345.17584,-175.51625 L345.39224,-157.39888 L345.60864,-180.82416 L345.82507,-201.90692 L346.04147,-181.15048 L346.2579,-162.4697 L346.4743,-145.65698 L346.6907,-130.52554 L346.90714,-116.90726 L347.12354,-104.65079 L347.33994,-93.61997 L347.55637,-123.42314 L347.77277,-110.51509 L347.98917,-98.89784 L348.2056,-88.44232 L348.422,-79.03235 L348.63843,-70.56337 L348.85483,-62.941296 L349.07123,-95.81234 L349.28766,-85.66536 L349.50406,-76.53309 L349.72046,-68.31404 L349.9369,-100.647804 L350.1533,-90.01729 L350.3697,-80.449814 L350.58612,-111.57001 L350.80252,-99.84727 L351.01892,-89.2968 L351.23535,-79.80138 L351.45175,-71.2555 L351.66818,-63.564213 L351.88458,-56.64205 L352.10098,-50.412106 L352.3174,-44.805157 L352.5338,-79.489815 L352.7502,-70.97509 L352.96664,-63.31184 L353.18304,-56.414917 L353.39944,-50.207687 L353.61588,-44.621178 L353.83228,-39.593323 L354.0487,-35.06825 L354.2651,-30.995686 L354.4815,-27.330376 L354.69794,-24.031599 L354.91434,-21.0627 L355.13074,-18.39069 L355.34717,-15.985882 L355.56357,-13.821554 L355.77997,-11.873659 L355.9964,-10.120553 L356.2128,-8.542759 L356.42923,-46.853653 L356.64563,-41.602547 L356.86203,-36.876553 L357.07846,-112.08498 L357.29486,-100.31074 L357.51126,-89.71393 L357.7277,-80.176796 L357.9441,-71.593376 L358.1605,-63.868298 L358.37692,-56.91573 L358.59332,-50.658417 L358.80975,-45.026836 L359.02615,-39.958412 L359.24255,-35.39683 L359.45898,-31.291409 L359.67538,-67.32744 L359.89178,-60.028954 L360.10822,-53.46032 L360.32462,-47.54855 L360.54102,-42.227955 L360.75745,-37.43942 L360.97385,-33.129738 L361.19025,-29.251024 L361.40668,-25.760181 L361.62308,-22.618423 L361.8395,-59.52175 L362.0559,-53.003838 L362.2723,-47.137714 L362.48874,-41.858204 L362.70514,-37.106644 L362.92154,-32.83024 L363.13797,-28.981476 L363.35437,-25.517588 L363.57077,-22.40009 L363.7872,-59.325253 L364.0036,-52.82699 L364.22003,-46.97855 L364.43643,-81.44586 L364.65283,-72.735535 L364.86926,-64.89625 L365.08566,-57.84088 L365.30206,-51.49105 L365.5185,-45.776207 L365.7349,-40.632847 L365.9513,-36.003822 L366.16772,-31.837702 L366.38412,-28.088192 L366.60056,-24.713633 L366.81696,-21.676529 L367.03336,-18.943138 L367.2498,-16.483084 L367.4662,-14.269036 L367.6826,-12.276393 L367.89902,-10.483014 L368.11542,-8.868973 L368.33182,-7.416336 L368.54825,-45.839874 L368.76465,-120.15196 L368.98108,-107.57103 L369.19748,-96.248184 L369.41388,-86.057625 L369.6303,-156.34795 L369.8467,-140.14742 L370.0631,-125.56693 L370.27954,-112.444496 L370.49594,-100.63431 L370.71234,-90.005135 L370.92877,-80.43888 L371.14517,-111.560165 L371.36157,-99.83841 L371.578,-89.288826 L371.7944,-79.794205 L372.01083,-190.44177 L372.22723,-210.56277 L372.44363,-228.67166 L372.66006,-205.23875 L372.87646,-184.14914 L373.09286,-165.16849 L373.3093,-148.08589 L373.5257,-132.71156 L373.7421,-118.87467 L373.95853,-106.42146 L374.17493,-95.21358 L374.39136,-85.12648 L374.60776,-76.048096 L374.82416,-67.87755 L375.0406,-60.52405 L375.257,-93.63682 L375.4734,-123.4383 L375.68982,-110.52873 L375.90622,-98.91012 L376.12262,-88.45337 L376.33905,-79.04229 L376.55545,-70.57233 L376.77188,-62.949352 L376.98828,-95.81959 L377.20468,-85.67189 L377.4211,-116.26987 L377.6375,-104.07714 L377.8539,-93.10369 L378.07034,-83.227585 L378.28674,-114.06999 L378.50314,-102.09725 L378.71957,-91.32179 L378.93597,-81.62387 L379.1524,-72.895744 L379.3688,-65.04043 L379.5852,-57.970646 L379.80164,-51.60784 L380.01804,-45.88132 L380.23444,-80.45836 L380.45087,-71.84678 L380.66727,-64.09637 L380.88367,-57.120987 L381.1001,-50.84315 L381.3165,-45.193096 L381.5329,-40.108047 L381.74933,-35.5315 L381.96573,-31.412613 L382.18216,-27.705612 L382.39856,-24.36931 L382.61496,-21.36664 L382.8314,-58.395145 L383.0478,-91.7208 L383.2642,-81.98298 L383.48062,-73.21894 L383.69702,-65.33131 L383.91342,-58.23244 L384.12985,-91.57436 L384.34625,-121.5821 L384.56268,-108.85815 L384.77908,-97.40659 L384.99548,-87.1002 L385.2119,-77.82444 L385.4283,-69.47626 L385.6447,-61.962887 L385.86115,-94.93177 L386.07755,-84.872856 L386.29395,-115.550735 L386.51038,-103.429924 L386.72678,-132.2521 L386.9432,-118.46115 L387.1596,-106.0493 L387.376,-94.87863 L387.59244,-84.82503 L387.80884,-75.77679 L388.02524,-67.63337 L388.24167,-60.30429 L388.45807,-53.708122 L388.67447,-127.23339 L388.8909,-113.94431 L389.1073,-181.44595 L389.3237,-162.73563 L389.54013,-145.89632 L389.75653,-130.74095 L389.97296,-117.10111 L390.18936,-144.55617 L390.40576,-129.53482 L390.6222,-116.015594 L390.8386,-103.8483 L391.055,-132.62863 L391.27142,-118.80003 L391.48782,-106.354294 L391.70422,-95.15312 L391.92065,-85.07207 L392.13705,-75.99912 L392.3535,-67.83347 L392.5699,-60.484386 L392.7863,-53.87021 L393.00272,-47.917446 L393.21912,-42.559963 L393.43552,-37.738228 L393.65195,-33.398663 L393.86835,-29.49306 L394.08475,-25.978012 L394.30118,-22.814472 L394.51758,-59.698196 L394.734,-92.89355 L394.9504,-122.76936 L395.1668,-109.92669 L395.38324,-98.36828 L395.59964,-87.96571 L395.81604,-78.6034 L396.03247,-70.17732 L396.24887,-62.59385 L396.46527,-55.768723 L396.6817,-49.62611 L396.8981,-44.09776 L397.11453,-39.122246 L397.33093,-34.64428 L397.54733,-30.614113 L397.76376,-26.986963 L397.98016,-23.722527 L398.19656,-20.784534 L398.413,-57.87125 L398.6294,-130.98021 L398.8458,-117.316444 L399.06223,-184.48088 L399.27863,-165.46706 L399.49503,-148.35461 L399.71146,-172.68431 L399.92786,-154.85014 L400.1443,-178.5303 L400.3607,-160.11153 L400.5771,-143.53464 L400.79352,-168.34634 L401.00992,-150.94597 L401.22632,-175.01654 L401.44275,-156.94916 L401.65915,-140.68849 L401.87555,-126.05391 L402.09198,-112.882774 L402.30838,-180.49059 L402.5248,-161.87578 L402.7412,-145.12247 L402.9576,-130.04448 L403.17404,-116.47429 L403.39044,-104.26112 L403.60684,-93.26927 L403.82327,-83.3766 L404.03967,-74.473206 L404.25607,-66.460144 L404.4725,-59.24839 L404.6889,-52.757813 L404.90533,-46.91629 L405.12173,-81.38983 L405.33813,-72.68511 L405.55457,-64.85086 L405.77097,-97.530945 L405.98737,-87.21211 L406.2038,-77.925156 L406.4202,-109.29781 L406.6366,-97.80229 L406.85303,-87.45632 L407.06943,-78.14495 L407.28586,-69.76472 L407.50226,-62.222504 L407.71866,-55.434517 L407.9351,-49.325325 L408.1515,-43.827053 L408.3679,-38.87861 L408.58432,-34.425007 L408.80072,-30.416767 L409.01712,-26.809351 L409.23355,-23.562675 L409.44995,-20.640669 L409.66635,-18.010862 L409.88278,-15.644036 L410.09918,-53.244804 L410.3156,-87.085495 L410.532,-77.8112 L410.7484,-69.46434 L410.96484,-61.95217 L411.18124,-94.92213 L411.39764,-84.864174 L411.61407,-75.81201 L411.83047,-107.39598 L412.04688,-96.090645 L412.2633,-85.91584 L412.4797,-116.489426 L412.69614,-104.27474 L412.91254,-133.01244 L413.12894,-198.60727 L413.34537,-178.18082 L413.56177,-159.79698 L413.77817,-143.25156 L413.9946,-128.36066 L414.211,-114.95885 L414.4274,-142.62813 L414.64383,-127.79958 L414.86023,-114.45389 L415.07666,-102.44276 L415.29306,-91.632744 L415.50946,-81.903725 L415.7259,-73.14761 L415.9423,-65.26711 L416.1587,-58.174664 L416.37512,-51.79146 L416.59152,-46.046574 L416.80792,-40.876175 L417.02435,-36.222816 L417.24075,-32.034798 L417.45718,-28.265577 L417.67358,-24.87328 L417.88998,-21.820213 L418.1064,-19.072453 L418.3228,-16.599466 L418.5392,-14.37378 L418.75565,-12.370663 L418.97205,-10.567857 L419.18845,-8.945332 L419.40488,-7.485059 L419.62128,-6.1708136 L419.83768,-4.987993 L420.0541,-3.9234538 L420.2705,-2.9653687 L420.48694,-2.1030922 L420.70334,-1.3270435 L420.91974,-0.6285995 L421.13617,-0 L421.35257,-39.16517 L421.56897,-114.14473 L421.7854,-102.16452 L422.0018,-131.11324 L422.2182,-117.43617 L422.43463,-105.126816 L422.65103,-94.04839 L422.86746,-84.07782 L423.08386,-75.104294 L423.30026,-67.02813 L423.5167,-59.759575 L423.7331,-132.6797 L423.9495,-118.845985 L424.16592,-106.39565 L424.38232,-95.190346 L424.59872,-85.10557 L424.81516,-76.029274 L425.03156,-67.8606 L425.248,-60.50881 L425.4644,-53.892185 L425.6808,-47.93723 L425.89722,-42.577766 L426.11362,-37.75425 L426.33002,-33.413086 L426.54645,-69.236946 L426.76285,-61.747513 L426.97925,-55.007023 L427.19568,-48.94058 L427.41208,-43.48078 L427.62848,-38.566963 L427.8449,-34.144527 L428.0613,-69.89525 L428.27774,-62.33998 L428.49414,-55.540245 L428.71054,-49.42048 L428.92697,-43.912693 L429.14337,-38.955685 L429.35977,-34.494377 L429.5762,-30.479198 L429.7926,-26.86554 L430.009,-23.613245 L430.22543,-20.686182 L430.44183,-18.051823 L430.65826,-55.41181 L430.87466,-49.30489 L431.09106,-83.53957 L431.3075,-74.61987 L431.5239,-66.59215 L431.7403,-59.367195 L431.95673,-52.864735 L432.17313,-47.01252 L432.38953,-41.74553 L432.60596,-37.005238 L432.82236,-72.46989 L433.0388,-64.65716 L433.2552,-57.6257 L433.4716,-130.75922 L433.68802,-117.117546 L433.90442,-104.84006 L434.12082,-133.52122 L434.33725,-159.33427 L434.55365,-142.8351 L434.77005,-127.985855 L434.98648,-114.62153 L435.20288,-102.593636 L435.4193,-131.49944 L435.6357,-117.78376 L435.8521,-105.439644 L436.06854,-134.06085 L436.28494,-120.08903 L436.50134,-147.24529 L436.71777,-171.68593 L436.93417,-153.9516 L437.15057,-137.9907 L437.367,-123.62589 L437.5834,-110.69756 L437.7998,-99.062065 L438.01624,-88.59012 L438.23264,-79.16537 L438.44907,-70.68309 L438.66547,-63.04904 L438.88187,-56.1784 L439.0983,-49.99482 L439.3147,-84.16051 L439.5311,-114.90963 L439.74753,-102.85293 L439.96393,-171.46371 L440.18033,-153.7516 L440.39676,-137.8107 L440.61316,-123.46389 L440.8296,-110.551765 L441.046,-138.66176 L441.2624,-124.22984 L441.47882,-111.24112 L441.69522,-99.55127 L441.91162,-89.0304 L442.12805,-79.56162 L442.34445,-71.03972 L442.56085,-63.370007 L442.77728,-56.467266 L442.99368,-50.254803 L443.2101,-44.66358 L443.4265,-39.631485 L443.6429,-35.102596 L443.85934,-31.026596 L444.07574,-27.358196 L444.29214,-24.056639 L444.50858,-60.816143 L444.72498,-54.16879 L444.94138,-48.186172 L445.1578,-82.53272 L445.3742,-73.713715 L445.59064,-65.7766 L445.80704,-98.36411 L446.02344,-207.1547 L446.23987,-185.87347 L446.45627,-166.7204 L446.67267,-149.48262 L446.8891,-173.69952 L447.1055,-155.76382 L447.3219,-139.6217 L447.53833,-125.093796 L447.75473,-112.01868 L447.97113,-139.98198 L448.18756,-165.14896 L448.40396,-148.06831 L448.6204,-132.69574 L448.8368,-118.860435 L449.0532,-106.40865 L449.26962,-95.20204 L449.48602,-85.116104 L449.70242,-115.76966 L449.91885,-103.62695 L450.13525,-92.69852 L450.35165,-82.86293 L450.56808,-74.010895 L450.7845,-105.77498 L451.00092,-94.63174 L451.21732,-124.33373 L451.43372,-111.334625 L451.65015,-99.63542 L451.86655,-89.10614 L452.08295,-79.62978 L452.29938,-71.10107 L452.51578,-63.42522 L452.73218,-56.51696 L452.9486,-50.299522 L453.165,-44.70383 L453.38144,-39.66771 L453.59784,-35.135197 L453.81424,-31.055939 L454.03067,-27.384605 L454.24707,-24.080406 L454.46347,-60.837536 L454.6799,-54.18804 L454.8963,-48.2035 L455.1127,-42.81741 L455.32913,-37.96993 L455.54553,-33.607197 L455.76196,-29.680737 L455.97836,-26.146923 L456.19476,-22.966492 L456.4112,-20.104103 L456.6276,-17.527952 L456.844,-15.209418 L457.06042,-52.853645 L457.27682,-47.00254 L457.49323,-81.46746 L457.70966,-72.754974 L457.92606,-64.913734 L458.14246,-57.85662 L458.3589,-51.505222 L458.5753,-125.25078 L458.79172,-112.15996 L459.00812,-100.37823 L459.22452,-89.774666 L459.44095,-119.962364 L459.65735,-107.40039 L459.87375,-96.09461 L460.09018,-85.91941 L460.30658,-76.761734 L460.52298,-108.250725 L460.7394,-96.85992 L460.9558,-86.608185 L461.17224,-77.38163 L461.38864,-69.07772 L461.60504,-61.604214 L461.82147,-54.87805 L462.03787,-48.824505 L462.25427,-43.376316 L462.4707,-38.472946 L462.6871,-34.05991 L462.9035,-30.08818 L463.11993,-66.24453 L463.33633,-59.05434 L463.55276,-52.583164 L463.76917,-46.75911 L463.98557,-41.51746 L464.202,-36.799973 L464.4184,-32.554237 L464.6348,-28.733074 L464.85123,-25.294027 L465.06763,-22.198885 L465.28403,-19.413256 L465.50046,-16.90619 L465.71686,-14.649833 L465.93326,-12.619109 L466.1497,-10.791459 L466.3661,-9.146573 L466.58252,-87.128 L466.79892,-77.84946 L467.01532,-69.49877 L467.23175,-61.983154 L467.44815,-94.95001 L467.66455,-84.88927 L467.88098,-75.8346 L468.09738,-67.6854 L468.31378,-60.351124 L468.5302,-53.75027 L468.7466,-47.809505 L468.96304,-42.462814 L469.17944,-37.650795 L469.39584,-33.319973 L469.61227,-69.153145 L469.82867,-61.672092 L470.04507,-54.939144 L470.2615,-48.87949 L470.4779,-43.4258 L470.6943,-78.24839 L470.91074,-69.85781 L471.12714,-62.306293 L471.34357,-95.24083 L471.55997,-85.15101 L471.77637,-76.07017 L471.9928,-67.897415 L472.2092,-60.54193 L472.4256,-53.922 L472.64203,-87.69497 L472.85843,-78.35973 L473.07483,-69.95802 L473.29126,-102.12739 L473.50766,-131.07982 L473.7241,-117.4061 L473.9405,-105.09975 L474.1569,-94.02403 L474.37332,-84.05589 L474.58972,-75.084564 L474.80612,-67.01037 L475.02255,-59.74359 L475.23895,-53.20349 L475.45535,-47.3174 L475.67178,-81.75083 L475.88818,-73.01001 L476.10458,-65.14327 L476.321,-137.52502 L476.5374,-123.20678 L476.75385,-150.05127 L476.97025,-134.48041 L477.18665,-120.46663 L477.40308,-107.854225 L477.61948,-96.50306 L477.83588,-86.28702 L478.0523,-77.092575 L478.2687,-108.548485 L478.4851,-97.1279 L478.70154,-86.84937 L478.91794,-77.598694 L479.13437,-69.27309 L479.35077,-61.780037 L479.56717,-55.036293 L479.7836,-48.966923 L480,-43.504494" fill="none" stroke="black" stroke-linejoin="round" stroke-width="2"/>
</g>
</g>
<g>
<g>
<line stroke="black" stroke-width="1" x1="0" x2="0" y1="0" y2="10"/>
<line stroke="black" stroke-width="1" x1="86.56447249774571" x2="86.56447249774571" y1="0" y2="10"/>
<line stroke="black" stroke-width="1" x1="173.12894499549142" x2="173.12894499549142" y1="0" y2="10"/>
<line stroke="black" stroke-width="1" x1="259.6934174932372" x2="259.6934174932372" y1="0" y2="10"/>
<line stroke="black" stroke-width="1" x1="346.25788999098285" x2="346.25788999098285" y1="0" y2="10"/>
<line stroke="black" stroke-width="1" x1="432.8223624887286" x2="432.8223624887286" y1="0" y2="10"/>
</g>
<line stroke="black" stroke-width="1" x1="0" x2="480" y1="0" y2="0"/>
<g>
<text font-size="12" text-anchor="middle" x="0" y="20">
0
</text>
<text font-size="12" text-anchor="middle" x="86.56447249774571" y="20">
400
</text>
<text font-size="12" text-anchor="middle" x="173.12894499549142" y="20">
800
</text>
<text font-size="12" text-anchor="middle" x="259.6934174932372" y="20">
1200
</text>
<text font-size="12" text-anchor="middle" x="346.25788999098285" y="20">
1600
</text>
<text font-size="12" text-anchor="middle" x="432.8223624887286" y="20">
2000
</text>
</g>
<text font-size="12" text-anchor="middle" x="240" y="30">

</text>
</g>
<g>
<g>
<line stroke="black" stroke-width="1" x1="0" x2="-10" y1="-0.00028565739281788665" y2="-0.00028565739281788665"/>
<line stroke="black" stroke-width="1" x1="0" x2="-10" y1="-79.46210510286505" y2="-79.46210510286505"/>
<line stroke="black" stroke-width="1" x1="0" x2="-10" y1="-158.9239245483371" y2="-158.9239245483371"/>
<line stroke="black" stroke-width="1" x1="0" x2="-10" y1="-238.3857439938093" y2="-238.3857439938093"/>
<line stroke="black" stroke-width="1" x1="0" x2="-10" y1="-317.8475634392813" y2="-317.8475634392813"/>
</g>
<line stroke="black" stroke-width="1" x1="0" x2="0" y1="0" y2="-340"/>
<g>
<text dominant-baseline="middle" font-size="12" text-anchor="end" x="-15" y="-0.00028565739281788665">
4.02848
</text>
<text dominant-baseline="middle" font-size="12" text-anchor="end" x="-15" y="-79.46210510286505">
4.42848
</text>
<text dominant-baseline="middle" font-size="12" text-anchor="end" x="-15" y="-158.9239245483371">
4.82848
</text>
<text dominant-baseline="middle" font-size="12" text-anchor="end" x="-15" y="-238.3857439938093">
5.22848
</text>
<text dominant-baseline="middle" font-size="12" text-anchor="end" x="-15" y="-317.8475634392813">
5.62848
</text>
</g>
<text font-size="12" text-anchor="middle" transform="rotate(-90 -84 -170)" x="-84" y="-182">

</text>
</g>
</g>
</svg>