<svg viewBox="0 0 600 400" xmlns="http://www.w3.org/2000/svg">
<g transform="translate(72, 364)">
<g>
<g>
<path d="M0,-40.404488 L0,-40.404488 L0.22588235,-36.309826 L0.4517647,-37.174255 L0.67764705,-33.40262 L0.9035294,-30.008142 L1.1294118,-65.624916 L1.3552941,-97.680016 L1.5811765,-126.52961 L1.8070588,-120.64687 L2.032941,-144.92496 L2.2588236,-134.92787 L2.484706,-128.2053 L2.7105882,-133.52907 L2.9364705,-120.12195 L3.162353,-108.055534 L3.3882353,-101.74539 L3.6141176,-91.51664 L3.84,-82.31077 L4.065882,-74.025475 L4.2917647,-66.56872 L4.5176473,-59.85763 L4.7435293,-53.817657 L4.969412,-48.38168 L5.195294,-48.03892 L5.4211764,-43.180817 L5.647059,-43.358147 L5.872941,-38.968117 L6.0988235,-35.017094 L6.324706,-36.010796 L6.550588,-32.355503 L6.7764707,-29.06574 L7.0023527,-26.104954 L7.2282352,-27.98987 L7.454118,-25.13667 L7.68,-27.118414 L7.9058824,-24.35236 L8.131764,-21.862911 L8.357647,-19.622408 L8.583529,-17.605953 L8.809412,-15.791145 L9.035295,-14.157819 L9.261176,-12.687824 L9.487059,-11.364829 L9.712941,-10.174133 L9.938824,-9.102507 L10.164706,-8.138043 L10.390588,-11.819651 L10.61647,-10.583472 L10.842353,-9.470913 L11.068235,-8.469608 L11.294118,-21.217306 L11.52,-23.590988 L11.745882,-25.7273 L11.971765,-23.100357 L12.197647,-20.736109 L12.42353,-23.15791 L12.649412,-20.787905 L12.875294,-18.654902 L13.101176,-16.735199 L13.327059,-15.007466 L13.552941,-13.452507 L13.778824,-16.602667 L14.004705,-14.888188 L14.230588,-13.345157 L14.4564705,-11.956429 L14.682353,-10.706573 L14.908236,-14.131327 L15.134118,-26.312853 L15.36,-23.627356 L15.585882,-21.210407 L15.811765,-19.035152 L16.037647,-17.077425 L16.263529,-19.865093 L16.489412,-17.824371 L16.715294,-20.537346 L16.941177,-18.4294 L17.167059,-16.532246 L17.39294,-14.824809 L17.618824,-13.288115 L17.844706,-11.90509 L18.07059,-10.660369 L18.29647,-9.540119 L18.522352,-8.531895 L18.748236,-7.6244926 L18.974117,-11.357454 L19.2,-10.167497 L19.425882,-9.096534 L19.651764,-8.132668 L19.877647,-7.265188 L20.103529,-6.4844565 L20.329412,-14.881046 L20.555294,-13.338729 L20.781176,-25.599516 L21.00706,-27.534975 L21.23294,-24.727264 L21.458824,-22.200325 L21.684706,-19.92608 L21.910587,-22.428883 L22.13647,-20.131783 L22.362352,-18.064392 L22.588236,-16.20374 L22.814117,-14.529153 L23.04,-17.57165 L23.265882,-15.760271 L23.491764,-14.130032 L23.717648,-12.662815 L23.94353,-11.342321 L24.169413,-14.7035 L24.395294,-13.178937 L24.621176,-16.356455 L24.84706,-14.666596 L25.07294,-13.145724 L25.298824,-11.776939 L25.524706,-19.64428 L25.750587,-17.625639 L25.97647,-20.358486 L26.202353,-18.268425 L26.428236,-30.036242 L26.654118,-26.978405 L26.88,-33.3256 L27.105883,-43.5877 L27.331764,-39.174717 L27.557648,-35.203033 L27.78353,-31.628515 L28.00941,-32.961075 L28.235294,-34.160378 L28.461176,-30.690128 L28.68706,-41.215775 L28.912941,-37.039986 L29.138824,-33.281773 L29.364706,-29.899384 L29.590588,-26.855232 L29.816471,-28.665121 L30.042353,-25.744396 L30.268236,-23.115744 L30.494118,-20.749956 L30.72,-18.620749 L30.945883,-21.254084 L31.171764,-19.074463 L31.397648,-17.112804 L31.62353,-15.347311 L31.849411,-13.758367 L32.075294,-12.328318 L32.301178,-11.041273 L32.527058,-14.432557 L32.75294,-17.484713 L32.978825,-15.682029 L33.204704,-23.158861 L33.430588,-25.338387 L33.65647,-22.750334 L33.882355,-29.520336 L34.108234,-26.51409 L34.334118,-23.808468 L34.56,-21.37341 L34.78588,-19.181854 L35.011765,-17.209457 L35.237648,-15.4342985 L35.463528,-13.836656 L35.68941,-12.398778 L35.915295,-11.104687 L36.14118,-19.039253 L36.367058,-17.081116 L36.59294,-15.318791 L36.818825,-13.732699 L37.044704,-12.305217 L37.270588,-11.020482 L37.49647,-14.413845 L37.72235,-12.918248 L37.948235,-11.57221 L38.174118,-14.9104 L38.4,-13.365148 L38.62588,-11.974421 L38.851765,-10.722766 L39.07765,-9.596276 L39.303528,-8.582436 L39.52941,-7.6699796 L39.755295,-6.8487687 L39.98118,-10.659303 L40.207058,-9.53916 L40.43294,-13.080655 L40.658825,-11.718377 L40.884705,-10.492327 L41.110588,-9.388881 L41.33647,-8.395781 L41.56235,-7.5019894 L41.788235,-15.796825 L42.01412,-14.1629305 L42.24,-17.242048 L42.46588,-15.463631 L42.691765,-13.863055 L42.91765,-12.422537 L43.143528,-11.12607 L43.36941,-14.508875 L43.595295,-17.553398 L43.821175,-20.29347 L44.04706,-18.20991 L44.27294,-16.334707 L44.498825,-14.647023 L44.724705,-13.128108 L44.95059,-11.761085 L45.17647,-10.530764 L45.40235,-9.423474 L45.628235,-22.075787 L45.85412,-19.813995 L46.08,-17.778383 L46.30588,-15.946331 L46.531765,-14.297485 L46.75765,-12.813524 L46.98353,-11.477959 L47.20941,-23.924822 L47.435295,-21.478127 L47.661175,-21.550915 L47.88706,-19.34161 L48.11294,-17.353235 L48.338825,-38.31182 L48.564705,-34.426426 L48.79059,-30.92957 L49.01647,-27.7824 L49.24235,-24.949947 L49.468235,-22.40074 L49.69412,-20.106453 L49.92,-18.041595 L50.14588,-20.732847 L50.371765,-27.704597 L50.59765,-63.551727 L50.82353,-57.14234 L51.04941,-90.0457 L51.275295,-119.65872 L51.501175,-146.31044 L51.72706,-170.29698 L51.95294,-155.48788 L52.178825,-178.55669 L52.404705,-199.31862 L52.63059,-218.00435 L52.856472,-234.8215 L53.08235,-249.95694 L53.308235,-259.0292 L53.53412,-271.7439 L53.76,-283.18707 L53.98588,-293.48596 L54.211765,-302.75497 L54.43765,-311.09705 L54.66353,-318.60495 L54.889412,-325.36203 L55.115295,-329.1686 L55.341175,-334.86935 L55.56706,-340 L55.792942,-326.4191 L56.01882,-311.92148 L56.244705,-319.34692 L56.47059,-326.02982 L56.696472,-332.04443 L56.92235,-330.63315 L57.148235,-297.5156 L57.37412,-272.25946 L57.6,-244.9793 L57.825882,-220.42715 L58.051765,-198.33023 L58.27765,-178.443 L58.50353,-160.54448 L58.729412,-144.43582 L58.955296,-129.93802 L59.181175,-121.43964 L59.40706,-113.791084 L59.632942,-102.35776 L59.85882,-92.06777 L60.084705,-82.806786 L60.31059,-74.47189 L60.536472,-66.97049 L60.762352,-60.219227 L60.988235,-67.79196 L61.21412,-60.958553 L61.44,-54.808487 L61.665882,-49.273426 L61.891766,-48.841496 L62.117645,-43.903133 L62.34353,-39.458607 L62.569412,-35.458534 L62.795296,-31.858467 L63.021175,-28.618406 L63.24706,-25.702354 L63.472942,-23.077906 L63.698822,-20.715902 L63.924706,-18.5901 L64.15059,-16.676876 L64.37647,-19.5046 L64.602356,-17.499928 L64.82823,-15.695722 L65.054115,-14.071937 L65.28,-12.610531 L65.50588,-11.295265 L65.731766,-10.111526 L65.95765,-9.046161 L66.18353,-8.087332 L66.40941,-7.2243857 L66.63529,-6.4477344 L66.861176,-5.7487483 L67.08706,-5.1196604 L67.31294,-4.5534816 L67.538826,-4.043921 L67.76471,-3.585316 L67.990585,-3.1725717 L68.21647,-2.8011017 L68.44235,-2.4667788 L68.668236,-2.1658883 L68.89412,-1.8950866 L69.12,-6.2009892 L69.34588,-5.5266776 L69.57176,-4.919797 L69.797646,-4.373605 L70.02353,-3.8820314 L70.24941,-3.4396155 L70.475296,-3.0414412 L70.70118,-2.6830842 L70.927055,-6.9101872 L71.15294,-6.1649556 L71.37882,-5.4942474 L71.604706,-4.8906097 L71.83059,-4.3473363 L72.05647,-3.8583899 L72.28236,-7.9679623 L72.50823,-7.116953 L72.734116,-6.351045 L72.96,-5.661728 L73.18588,-9.590966 L73.411766,-8.577657 L73.63765,-7.6656785 L73.86353,-11.394522 L74.08941,-10.200857 L74.31529,-9.126558 L74.541176,-8.15969 L74.76706,-7.2895083 L74.99294,-6.506345 L75.21883,-5.8014975 L75.4447,-5.167135 L75.670586,-4.5962086 L75.89647,-4.082375 L76.12235,-3.6199248 L76.348236,-3.2037196 L76.57412,-2.829135 L76.8,-2.4920087 L77.02588,-2.188595 L77.25176,-1.9155228 L77.477646,-1.6697577 L77.70353,-1.4485693 L77.92941,-1.2494996 L78.1553,-1.0703369 L78.38118,-0.90909046 L78.607056,-0.76396865 L78.83294,-0.6333591 L79.05882,-0.51581043 L79.284706,-0.41001663 L79.51059,-0.31480223 L79.73647,-4.7787333 L79.96236,-8.796271 L80.18823,-7.862431 L80.414116,-7.0219755 L80.64,-15.364813 L80.86588,-13.774119 L81.09177,-12.342494 L81.31765,-11.054032 L81.543526,-9.894416 L81.76941,-8.850761 L81.99529,-7.911473 L82.221176,-7.066113 L82.44706,-10.854913 L82.67294,-9.715209 L82.89883,-8.689475 L83.1247,-7.766315 L83.350586,-16.03472 L83.57647,-18.926659 L83.80235,-21.529404 L84.02824,-19.32225 L84.25412,-17.335812 L84.48,-24.647266 L84.70588,-22.128326 L84.93176,-19.861282 L85.157646,-17.82094 L85.38353,-15.984634 L85.60941,-14.331958 L85.8353,-12.844549 L86.06118,-11.505881 L86.287056,-10.301081 L86.51294,-9.21676 L86.73882,-8.240871 L86.96471,-7.3625712 L87.19059,-6.5721016 L87.41647,-5.8606787 L87.64235,-5.220398 L87.86823,-4.6441455 L88.09412,-4.1255183 L88.32,-3.6587536 L88.54588,-3.2386656 L88.77177,-2.8605862 L88.99765,-2.520315 L89.223526,-2.2140706 L89.44941,-1.9384508 L89.67529,-1.690393 L89.90118,-6.016765 L90.12706,-9.9105 L90.35294,-8.865237 L90.57883,-7.9245005 L90.8047,-7.0778375 L91.03059,-6.315841 L91.25647,-5.6300445 L91.48235,-5.012827 L91.70824,-4.4573317 L91.93412,-3.9573858 L92.16,-3.5074344 L92.38588,-3.1024783 L92.61176,-2.7380178 L92.83765,-2.4100032 L93.06353,-2.1147902 L93.28941,-1.8490983 L93.5153,-1.6099758 L93.74117,-5.9443893 L93.96706,-5.2957377 L94.19294,-4.7119513 L94.41882,-4.1865435 L94.64471,-3.7136762 L94.87059,-7.83772 L95.09647,-6.9997354 L95.32235,-10.795173 L95.54823,-9.661443 L95.77412,-8.641086 L96,-7.7227645 L96.22588,-11.445899 L96.45177,-10.247097 L96.67765,-9.168174 L96.90353,-12.746768 L97.12941,-11.417878 L97.35529,-10.221878 L97.58118,-9.145477 L97.80706,-8.176717 L98.03294,-7.3048325 L98.25883,-6.5201364 L98.4847,-5.81391 L98.71059,-5.178306 L98.93647,-4.606263 L99.16235,-4.091424 L99.38824,-3.6280687 L99.61412,-3.211049 L99.84,-2.8357315 L100.06588,-2.4979455 L100.29176,-2.1939383 L100.51765,-1.9203317 L100.74353,-1.6740859 L100.96941,-1.4524645 L101.1953,-1.2530053 L101.42117,-1.073492 L101.64706,-0.9119301 L101.87294,-0.7665243 L102.09882,-9.734907 L102.32471,-13.256827 L102.55059,-11.876932 L102.776474,-10.635026 L103.00235,-9.517311 L103.22823,-8.511367 L103.45412,-7.6060176 L103.68,-6.791203 L103.90588,-6.05787 L104.13177,-5.39787 L104.35765,-4.8038707 L104.58353,-4.269271 L104.80941,-3.7881308 L105.03529,-7.904729 L105.26118,-7.0600433 L105.48706,-6.299826 L105.712944,-10.165255 L105.93882,-9.094517 L106.1647,-8.130853 L106.39059,-7.263554 L106.61647,-11.03261 L106.842354,-9.875136 L107.06824,-8.83341 L107.29412,-12.44548 L107.52,-15.696343 L107.74588,-14.072496 L107.97176,-12.611034 L108.19765,-11.295718 L108.42353,-10.111934 L108.649414,-9.046527 L108.8753,-8.087662 L109.10117,-7.224683 L109.32706,-6.448002 L109.55294,-5.748989 L109.778824,-9.669501 L110.00471,-8.648338 L110.23059,-7.729292 L110.456474,-6.9021497 L110.68235,-10.707346 L110.90823,-9.582398 L111.13412,-13.11957 L111.36,-11.753401 L111.585884,-10.523848 L111.81177,-9.41725 L112.03764,-8.421312 L112.26353,-7.524968 L112.48941,-11.267882 L112.715294,-10.086882 L112.94118,-9.023981 L113.16706,-8.06737 L113.392944,-16.305668 L113.61882,-14.620889 L113.8447,-17.654211 L114.07059,-20.384201 L114.29647,-18.291569 L114.522354,-16.4082 L114.74824,-14.713166 L114.97412,-13.187636 L115.2,-11.81466 L115.42588,-15.128606 L115.651764,-13.561532 L115.87765,-12.151166 L116.10353,-15.43146 L116.329414,-22.93335 L116.5553,-20.585802 L116.78117,-23.022633 L117.00706,-20.666157 L117.23294,-18.545328 L117.458824,-16.636583 L117.68471,-14.918712 L117.91059,-22.471876 L118.13647,-20.170475 L118.36235,-18.099215 L118.588234,-16.23508 L118.81412,-14.557361 L119.04,-17.597036 L119.265884,-15.783119 L119.49177,-14.150595 L119.71764,-12.681322 L119.94353,-11.358977 L120.16941,-10.168867 L120.395294,-18.197016 L120.62118,-16.323101 L120.84706,-19.186203 L121.072945,-17.21337 L121.29882,-15.4378195 L121.524704,-13.839825 L121.75059,-12.401629 L121.97647,-11.107254 L122.202354,-14.49194 L122.42824,-12.988533 L122.65412,-11.635467 L122.88,-10.417707 L123.10588,-9.321724 L123.331764,-12.884963 L123.55765,-11.5422535 L123.78353,-10.333816 L124.009415,-13.795845 L124.23529,-12.362048 L124.461174,-11.0716305 L124.68706,-14.459879 L124.91294,-12.959678 L125.138824,-11.609497 L125.36471,-14.943959 L125.59059,-13.39535 L125.81647,-12.001602 L126.04235,-15.296854 L126.268234,-13.712955 L126.49412,-12.287447 L126.72,-11.00449 L126.945885,-9.849828 L127.17177,-8.810633 L127.397644,-7.8753567 L127.62353,-7.033608 L127.84941,-6.2760344 L128.07529,-5.5942183 L128.30118,-4.9805837 L128.52705,-4.428313 L128.75294,-3.9312687 L128.97882,-3.483929 L129.20471,-3.0813234 L129.43059,-2.7189784 L129.65646,-2.3928678 L129.88235,-2.099368 L130.10823,-6.3848424 L130.33412,-10.24177 L130.56,-13.713004 L130.78589,-12.287491 L131.01176,-11.004529 L131.23764,-9.849863 L131.46353,-8.810664 L131.6894,-12.425009 L131.9153,-11.128295 L132.14117,-9.961253 L132.36707,-8.910915 L132.59294,-7.965611 L132.81882,-7.114837 L133.04471,-6.3491406 L133.27058,-10.209638 L133.49648,-9.134461 L133.72235,-8.166802 L133.94824,-7.2959094 L134.17412,-6.5121055 L134.4,-5.8066826 L134.62589,-5.1718016 L134.85176,-4.6004086 L135.07765,-8.635778 L135.30353,-7.717988 L135.52942,-6.891977 L135.7553,-6.1485662 L135.98117,-5.479497 L136.20706,-4.8773346 L136.43294,-4.335388 L136.65883,-3.8476367 L136.8847,-3.4086604 L137.1106,-3.0135815 L137.33647,-20.856506 L137.56235,-18.716642 L137.78824,-16.790766 L138.01411,-15.057477 L138.24,-13.497517 L138.46588,-12.093552 L138.69176,-15.379608 L138.91765,-13.787435 L139.14352,-12.354478 L139.36942,-11.064817 L139.59529,-14.453747 L139.82118,-12.95416 L140.04706,-11.604531 L140.27293,-10.389865 L140.49883,-9.296666 L140.7247,-8.312786 L140.95059,-7.427295 L141.17647,-6.630353 L141.40236,-5.913105 L141.62823,-5.2675815 L141.85411,-4.6866107 L142.08,-4.163737 L142.30588,-8.242774 L142.53177,-7.364284 L142.75764,-6.573643 L142.98354,-5.8620663 L143.20941,-14.320894 L143.43529,-12.834593 L143.66118,-11.496921 L143.88705,-14.84264 L144.11295,-13.304163 L144.33882,-11.919534 L144.56471,-10.6733675 L144.79059,-9.551818 L145.01646,-8.542423 L145.24236,-7.6339684 L145.46823,-6.816359 L145.69412,-6.08051 L145.92,-5.4182467 L146.14589,-4.8222094 L146.37177,-4.2857757 L146.59764,-3.8029852 L146.82353,-3.368474 L147.04941,-2.977414 L147.2753,-2.6254597 L147.50117,-2.308701 L147.72707,-2.0236182 L147.95294,-6.3166676 L148.17882,-5.630788 L148.40471,-5.0134964 L148.63058,-9.007558 L148.85648,-8.052589 L149.08235,-7.1931176 L149.30824,-6.4195933 L149.53412,-5.723421 L149.76,-5.096866 L149.98589,-4.532967 L150.21176,-4.0254574 L150.43765,-8.118323 L150.66353,-7.252278 L150.8894,-6.4728374 L151.1153,-5.771341 L151.34117,-5.139994 L151.56706,-4.571782 L151.79294,-4.060391 L152.01883,-3.6001391 L152.2447,-3.1859126 L152.47058,-2.8131084 L152.69647,-2.4775848 L152.92235,-2.1756136 L153.14824,-1.9038396 L153.37411,-1.6592429 L153.6,-1.4391059 L153.82588,-1.2409825 L154.05176,-1.0626715 L154.27765,-0.90219164 L154.50352,-0.75775975 L154.72942,-0.627771 L154.95529,-0.51078117 L155.18118,-0.4054903 L155.40706,-0.31072852 L155.63293,-0.22544293 L155.85883,-0.1486859 L156.0847,-4.6292286 L156.3106,-4.112093 L156.53647,-3.6466708 L156.76236,-3.227791 L156.98824,-2.8507993 L157.21411,-2.5115066 L157.44,-2.2061431 L157.66588,-6.48094 L157.89177,-10.328258 L158.11765,-9.241219 L158.34354,-8.262884 L158.56941,-7.382383 L158.79529,-6.589932 L159.02118,-5.876726 L159.24706,-5.234841 L159.47295,-4.657144 L159.69882,-4.1372166 L159.92471,-3.6692824 L160.15059,-7.7977653 L160.37646,-6.963776 L160.60236,-6.213186 L160.82823,-5.5376544 L161.05412,-4.929676 L161.28,-4.382496 L161.50589,-3.8900335 L161.73177,-3.4468174 L161.95764,-3.0479228 L162.18353,-11.788166 L162.40941,-10.555137 L162.6353,-9.44541 L162.86118,-17.545904 L163.08705,-15.737102 L163.31294,-14.109179 L163.53882,-12.644048 L163.76471,-11.32543 L163.99059,-14.688298 L164.21648,-13.165256 L164.44235,-11.7945175 L164.66823,-10.560853 L164.89412,-9.450555 L165.12,-8.451286 L165.34589,-7.551945 L165.57176,-6.742538 L165.79765,-6.0140715 L166.02353,-9.908075 L166.2494,-8.863055 L166.4753,-7.922537 L166.70117,-11.625694 L166.92706,-10.408913 L167.15294,-9.313808 L167.37883,-8.328215 L167.6047,-7.4411807 L167.83058,-6.64285 L168.05647,-5.924352 L168.28235,-5.2777042 L168.50824,-4.695721 L168.73412,-4.171936 L168.96,-3.7005298 L169.18588,-3.276264 L169.41176,-2.894425 L169.63765,-2.5507696 L169.86353,-6.791104 L170.08942,-6.0577807 L170.31529,-5.39779 L170.54118,-4.803798 L170.76706,-4.2692056 L170.99294,-3.7880723 L171.21883,-3.3550525 L171.4447,-2.9653344 L171.6706,-2.6145883 L171.89647,-2.2989166 L172.12236,-2.0148122 L172.34824,-6.308742 L172.57411,-5.6236553 L172.8,-5.007077 L173.02588,-4.4521565 L173.25177,-3.9527283 L173.47765,-3.5032425 L173.70354,-3.0987055 L173.92941,-2.7346222 L174.15529,-2.4069474 L174.38118,-2.1120398 L174.60706,-1.8466232 L174.83295,-1.607748 L175.05882,-1.3927605 L175.2847,-1.1992717 L175.51059,-1.0251318 L175.73647,-0.8684059 L175.96236,-0.72735256 L176.18823,-0.60040456 L176.41412,-0.48615137 L176.64,-0.3833235 L176.86588,-0.2907784 L177.09177,-0.2074878 L177.31764,-0.13252628 L177.54353,-4.614685 L177.76941,-4.099004 L177.9953,-3.6348906 L178.22118,-3.2171888 L178.44705,-11.940505 L178.67294,-10.692242 L178.89882,-9.568805 L179.12471,-8.557712 L179.35059,-7.647728 L179.57648,-6.828742 L179.80235,-6.0916553 L180.02823,-5.428277 L180.25412,-4.8312364 L180.48,-4.2939 L180.70589,-8.359921 L180.93176,-7.4697165 L181.15765,-6.668532 L181.38353,-10.49709 L181.6094,-9.393168 L181.8353,-8.399639 L182.06117,-7.505462 L182.28706,-6.700703 L182.51294,-5.97642 L182.73883,-5.3245654 L182.9647,-4.737896 L183.19058,-4.2098937 L183.41647,-3.7346916 L183.64235,-3.3070097 L183.86824,-2.922096 L184.09412,-2.5756736 L184.32,-2.2638936 L184.54588,-1.9832915 L184.77176,-1.7307496 L184.99765,-1.5034618 L185.22353,-1.298903 L185.44942,-1.1147999 L185.6753,-10.048355 L185.90118,-8.989306 L186.12706,-8.036163 L186.35294,-7.178334 L186.57883,-6.406288 L186.8047,-10.26107 L187.0306,-9.180751 L187.25647,-8.208463 L187.48235,-7.333404 L187.70824,-11.095475 L187.93411,-9.931714 L188.16,-8.884331 L188.38588,-7.9416847 L188.61177,-7.093303 L188.83765,-6.32976 L189.06352,-5.6425714 L189.28941,-9.573726 L189.51529,-13.111764 L189.74118,-11.746375 L189.96706,-10.517525 L190.19295,-9.41156 L190.41882,-12.965815 L190.6447,-11.615021 L190.87059,-10.399306 L191.09647,-9.305162 L191.32236,-8.320434 L191.54823,-7.4341774 L191.77412,-6.636547 L192,-5.9186797 L192.22588,-5.2725987 L192.45177,-4.6911263 L192.67764,-4.167801 L192.90353,-3.696808 L193.12941,-3.2729144 L193.3553,-11.990658 L193.58118,-15.2870035 L193.80705,-13.70409 L194.03294,-12.279469 L194.25882,-10.997309 L194.48471,-9.843366 L194.71059,-8.804816 L194.93648,-7.870122 L195.16235,-7.028897 L195.38823,-6.2717943 L195.61412,-5.590402 L195.84,-4.9771495 L196.06589,-4.4252214 L196.29176,-3.9284868 L196.51765,-17.130297 L196.74353,-15.363054 L196.9694,-13.772536 L197.1953,-16.890694 L197.42117,-15.147412 L197.64706,-18.128082 L197.87294,-16.26106 L198.09882,-14.580742 L198.3247,-17.61808 L198.55058,-15.802058 L198.77647,-14.16764 L199.00235,-12.696663 L199.22824,-15.922408 L199.45412,-14.275954 L199.68,-12.794147 L199.90588,-11.460519 L200.13176,-14.809878 L200.35765,-26.92355 L200.58353,-24.176983 L200.80942,-21.70507 L201.0353,-19.48035 L201.26117,-17.478104 L201.48706,-15.67608 L201.71294,-14.054259 L201.93883,-12.594621 L202.1647,-11.280946 L202.3906,-14.648263 L202.61647,-13.129224 L202.84235,-11.762089 L203.06824,-10.531667 L203.29411,-13.973911 L203.52,-17.071932 L203.74588,-15.310526 L203.97177,-13.725261 L204.19765,-12.298522 L204.42352,-11.014457 L204.64941,-9.858798 L204.87529,-13.36833 L205.10118,-11.9772835 L205.32706,-10.725343 L205.55295,-9.598596 L205.77882,-8.584523 L206.0047,-7.6718583 L206.23059,-6.8504596 L206.45647,-6.1112013 L206.68236,-5.445868 L206.90823,-4.847069 L207.13412,-4.308149 L207.36,-3.8231213 L207.58588,-3.3865964 L207.81177,-2.993724 L208.03764,-2.6401389 L208.26353,-6.8715363 L208.48941,-6.13017 L208.7153,-5.46294 L208.94118,-4.8624334 L209.16705,-4.321977 L209.39294,-8.385191 L209.61882,-12.042083 L209.84471,-10.783662 L210.07059,-9.651083 L210.29646,-8.631762 L210.52235,-7.714373 L210.74823,-6.888723 L210.97412,-6.145638 L211.2,-5.4768615 L211.42589,-4.8749623 L211.65176,-8.882877 L211.87764,-7.940377 L212.10353,-7.0921264 L212.3294,-6.328701 L212.5553,-10.191242 L212.78117,-13.667529 L213.00706,-12.246564 L213.23294,-10.967694 L213.45882,-9.816712 L213.68471,-8.780828 L213.91058,-7.8485327 L214.13647,-7.0094666 L214.36235,-6.2543073 L214.58824,-5.5746636 L214.81412,-4.9629846 L215.04,-4.4124737 L215.26588,-3.9170134 L215.49176,-3.4710994 L215.71765,-3.0697765 L215.94353,-2.7085862 L216.16942,-2.383515 L216.3953,-2.0909507 L216.62117,-1.8276428 L216.84706,-1.5906658 L217.07294,-1.3773865 L217.29883,-1.185435 L217.5247,-1.0126789 L217.7506,-0.85719824 L217.97647,-0.71726567 L218.20235,-0.59132636 L218.42824,-0.47798097 L218.65411,-0.37597013 L218.88,-0.28416038 L219.10588,-0.20153159 L219.33177,-0.12716569 L219.55765,-0.06023638 L219.78352,-0 L220.00941,-4.4954114 L220.23529,-3.9916573 L220.46118,-3.5382788 L220.68706,-7.679862 L220.91295,-6.857663 L221.13882,-10.667308 L221.3647,-9.546365 L221.59059,-13.087139 L221.81647,-16.273836 L222.04236,-14.59224 L222.26823,-13.078803 L222.49411,-25.365582 L222.72,-22.77481 L222.94588,-20.443117 L223.17177,-18.344593 L223.39764,-16.455921 L223.62354,-19.30574 L223.84941,-21.870577 L224.07529,-19.629307 L224.30118,-17.612164 L224.52705,-15.796734 L224.75294,-23.262096 L224.97882,-25.431297 L225.20471,-22.833956 L225.43059,-25.04597 L225.65646,-22.487162 L225.88235,-24.733856 L226.10823,-22.206257 L226.33412,-19.93142 L226.56,-17.884064 L226.78589,-16.041445 L227.01176,-32.581585 L227.23764,-29.269213 L227.46353,-26.288078 L227.6894,-23.605059 L227.9153,-25.739964 L228.14117,-23.111755 L228.36707,-20.746367 L228.59294,-18.617517 L228.81882,-16.701553 L229.04471,-14.977184 L229.27058,-27.074125 L229.49648,-24.3125 L229.72235,-21.827038 L229.94824,-19.59012 L230.17412,-22.12652 L230.4,-28.958902 L230.62589,-26.0088 L230.85176,-32.452953 L231.07765,-29.153446 L231.30353,-26.18389 L231.52942,-28.060911 L231.7553,-34.299854 L231.98117,-30.815657 L232.20706,-27.679878 L232.43294,-24.857677 L232.65883,-22.317698 L232.8847,-20.031715 L233.1106,-22.523954 L233.33647,-20.217346 L233.56235,-18.1414 L233.78824,-16.273046 L234.01411,-14.591529 L234.24,-13.078163 L234.46588,-11.716134 L234.69176,-10.490308 L234.91765,-9.387065 L235.14352,-8.394146 L235.36942,-7.5005183 L235.59529,-6.696254 L235.82118,-5.9724154 L236.04706,-5.320961 L236.27293,-9.284276 L236.49883,-8.301636 L236.7247,-7.4172597 L236.95059,-6.6213207 L237.17647,-5.904976 L237.40236,-9.80989 L237.62823,-8.774688 L237.85411,-7.8430066 L238.08,-7.004493 L238.30588,-6.249831 L238.53177,-5.5706353 L238.75764,-14.058607 L238.98354,-12.598534 L239.20941,-11.284468 L239.43529,-10.101808 L239.66118,-9.037415 L239.88705,-8.07946 L240.11295,-7.2173014 L240.33882,-10.990982 L240.56471,-9.837671 L240.79059,-8.799691 L241.01646,-7.8655095 L241.24236,-7.024746 L241.46823,-6.268059 L241.69412,-5.58704 L241.92,-4.9741235 L242.14589,-4.422498 L242.37177,-3.9260356 L242.59764,-3.4792194 L242.82353,-12.176332 L243.04941,-10.904487 L243.2753,-9.759825 L243.50117,-8.7296295 L243.72707,-12.352078 L243.95294,-11.062657 L244.17882,-9.902179 L244.40471,-8.857748 L244.63058,-7.917761 L244.85648,-7.071772 L245.08235,-6.310382 L245.30824,-10.174755 L245.53412,-9.103066 L245.76,-8.138548 L245.98589,-7.27048 L246.21176,-6.489219 L246.43765,-5.7860847 L246.66353,-5.1532636 L246.8894,-4.5837245 L247.1153,-4.0711393 L247.34117,-3.6098125 L247.56706,-3.1946185 L247.79294,-7.370568 L248.01883,-6.5792985 L248.2447,-10.4167795 L248.47058,-9.3208885 L248.69647,-8.334587 L248.92235,-11.99654 L249.14824,-10.742673 L249.37411,-9.614193 L249.6,-13.148185 L249.82588,-11.779154 L250.05176,-10.547026 L250.27765,-9.43811 L250.50352,-8.440086 L250.72942,-7.5418653 L250.95529,-6.7334657 L251.18118,-6.0059066 L251.40706,-5.3511033 L251.63293,-4.7617803 L251.85883,-4.2313895 L252.0847,-3.7540376 L252.3106,-7.874045 L252.53647,-7.032428 L252.76236,-6.2749724 L252.98824,-5.593262 L253.21411,-4.9797235 L253.44,-4.4275384 L253.66588,-3.9305718 L253.89177,-3.4833019 L254.11765,-3.0807588 L254.34354,-2.7184703 L254.56941,-6.9420342 L254.79529,-6.1936183 L255.02118,-5.520044 L255.24706,-4.9138265 L255.47295,-4.3682313 L255.69882,-3.8771954 L255.92471,-3.4352632 L256.15057,-3.037524 L256.37646,-2.6795588 L256.60236,-2.3573902 L256.82825,-2.0674384 L257.0541,-1.8064818 L257.28,-1.571621 L257.5059,-1.3602461 L257.73175,-1.1700088 L257.95764,-0.99879515 L258.18353,-0.8447029 L258.40942,-5.255644 L258.63528,-4.6758666 L258.86118,-8.7036915 L259.08707,-7.7791095 L259.31293,-6.9469857 L259.53882,-6.1980743 L259.7647,-5.524054 L259.9906,-9.46706 L260.21646,-13.015765 L260.44235,-11.659976 L260.66824,-10.439766 L260.8941,-9.341577 L261.12,-8.353206 L261.3459,-7.4636726 L261.57178,-6.6630926 L261.79764,-5.9425707 L262.02353,-5.2941008 L262.24942,-4.710478 L262.47528,-4.1852174 L262.70117,-12.811731 L262.92706,-11.476345 L263.15295,-10.274498 L263.3788,-13.742459 L263.6047,-12.314 L263.8306,-24.67726 L264.05646,-22.155321 L264.28235,-28.984823 L264.50824,-26.03213 L264.73413,-23.374702 L264.96,-20.98302 L265.18588,-18.830505 L265.41177,-16.893242 L265.63763,-15.149705 L265.86353,-18.130146 L266.08942,-16.262918 L266.3153,-14.582414 L266.54117,-13.06996 L266.76706,-11.708751 L266.99295,-10.483664 L267.2188,-9.381084 L267.4447,-8.388763 L267.6706,-12.045298 L267.89648,-10.786555 L268.12234,-9.6536875 L268.34824,-8.634106 L268.57413,-7.716482 L268.8,-6.890621 L269.02588,-6.1473465 L269.25177,-5.4783993 L269.47766,-4.8763466 L269.70352,-4.334499 L269.9294,-3.8468363 L270.1553,-3.4079401 L270.38116,-3.0129333 L270.60706,-7.2070513 L270.83295,-6.432133 L271.05884,-10.284331 L271.2847,-9.201685 L271.5106,-8.227304 L271.73648,-7.350361 L271.96234,-6.561112 L272.18823,-5.850788 L272.41412,-5.2114964 L272.64,-4.636134 L272.86588,-8.667932 L273.09177,-7.746926 L273.31766,-6.9180207 L273.54352,-6.1720057 L273.7694,-5.5005927 L273.9953,-4.8963203 L274.2212,-4.3524756 L274.44705,-3.8630154 L274.67294,-3.422501 L274.89883,-3.0260384 L275.1247,-2.6692216 L275.3506,-2.3480868 L275.57648,-2.0590653 L275.80237,-1.7989461 L276.02823,-1.5648388 L276.25412,-1.3541422 L276.48,-1.1645151 L276.70587,-0.99385095 L276.93176,-5.389877 L277.15765,-9.3463 L277.3835,-8.357458 L277.6094,-7.4674993 L277.8353,-11.216161 L278.0612,-10.040332 L278.28705,-8.982086 L278.51294,-8.029664 L278.73883,-7.1724854 L278.9647,-6.401024 L279.19058,-5.706709 L279.41647,-5.0818253 L279.64236,-4.51943 L279.86823,-4.013274 L280.09412,-3.557734 L280.32,-3.147748 L280.54587,-2.7787604 L280.77176,-2.4466717 L280.99765,-2.1477916 L281.22354,-1.8787998 L281.4494,-1.6367071 L281.6753,-5.9684477 L281.90118,-9.867014 L282.12704,-13.375724 L282.35294,-11.983939 L282.57883,-10.731332 L282.80472,-9.603986 L283.03058,-8.589375 L283.25647,-12.225848 L283.48236,-10.949051 L283.70822,-9.799933 L283.9341,-8.765727 L284.16,-12.384565 L284.3859,-11.091896 L284.61176,-9.9284935 L284.83765,-8.881432 L285.06354,-7.939076 L285.2894,-16.190203 L285.5153,-14.516971 L285.74118,-13.011061 L285.96707,-16.205366 L286.19293,-14.530617 L286.41882,-13.023342 L286.6447,-11.666795 L286.87057,-14.995527 L287.09647,-13.441761 L287.32236,-12.043372 L287.54825,-10.784822 L287.7741,-14.201752 L288,-12.727364 L288.2259,-11.400414 L288.45175,-10.206161 L288.67764,-9.131331 L288.90353,-8.163985 L289.12943,-7.2933745 L289.3553,-6.5098243 L289.58118,-5.804629 L289.80707,-5.1699533 L290.03293,-4.5987453 L290.25882,-4.084658 L290.4847,-3.6219795 L290.7106,-7.7551928 L290.93646,-6.925461 L291.16235,-6.178702 L291.38824,-5.506619 L291.6141,-4.9017444 L291.84,-8.906981 L292.0659,-7.9620705 L292.29178,-7.1116505 L292.51764,-6.346273 L292.74353,-5.6574326 L292.96942,-9.587101 L293.19528,-8.574178 L293.42117,-7.662547 L293.64706,-6.8420796 L293.87296,-6.103659 L294.09882,-5.43908 L294.3247,-4.8409595 L294.5506,-13.401899 L294.77646,-16.55712 L295.00235,-14.847196 L295.22824,-13.308263 L295.45413,-11.923224 L295.68,-10.676689 L295.90588,-9.554808 L296.13177,-8.545114 L296.35764,-7.6363897 L296.58353,-6.818538 L296.80942,-6.0824714 L297.0353,-5.4200115 L297.26117,-4.8237977 L297.48706,-4.287205 L297.71295,-3.804272 L297.9388,-7.9192557 L298.1647,-7.0731177 L298.3906,-6.311593 L298.6165,-14.725469 L298.84235,-13.1987095 L299.06824,-11.824626 L299.29413,-10.587951 L299.52,-9.474942 L299.74588,-8.473235 L299.97177,-12.121324 L300.19763,-10.854979 L300.42352,-14.264892 L300.6494,-12.784189 L300.8753,-11.451558 L301.10117,-10.25219 L301.32706,-9.172758 L301.55295,-8.201269 L301.7788,-16.426178 L302.0047,-14.729347 L302.2306,-13.2022 L302.45648,-20.927015 L302.68234,-23.329725 L302.90823,-20.94254 L303.13412,-18.794073 L303.36,-21.410076 L303.58588,-19.214857 L303.81177,-17.239159 L304.03766,-15.461029 L304.26352,-13.860714 L304.4894,-12.420429 L304.7153,-11.124174 L304.94116,-14.507168 L305.16705,-13.002238 L305.39294,-11.647801 L305.61884,-10.428809 L305.8447,-9.331715 L306.0706,-8.344331 L306.29648,-7.455685 L306.52234,-6.655904 L306.74823,-5.9361005 L306.97412,-9.837902 L307.2,-13.349523 L307.42587,-11.960358 L307.65176,-15.259733 L307.87766,-13.679547 L308.10352,-12.25738 L308.3294,-15.527053 L308.5553,-18.469759 L308.7812,-16.568571 L309.00705,-14.8575 L309.23294,-22.416786 L309.45883,-20.120893 L309.6847,-18.054592 L309.91058,-16.19492 L310.13647,-14.521215 L310.36237,-13.014881 L310.58823,-16.208805 L310.81412,-14.533711 L311.04,-13.026127 L311.26587,-11.669302 L311.49176,-10.448159 L311.71765,-9.349131 L311.94354,-8.360004 L312.1694,-7.4697914 L312.3953,-11.218224 L312.6212,-10.042189 L312.84705,-8.983757 L313.07294,-8.031168 L313.29883,-7.1738386 L313.52472,-6.402242 L313.75058,-5.707805 L313.97647,-9.632436 L314.20236,-8.61498 L314.42822,-7.699269 L314.6541,-6.875129 L314.88,-6.133404 L315.1059,-5.4658504 L315.33176,-4.8650527 L315.55765,-4.3243346 L315.78354,-8.387313 L316.0094,-7.4943686 L316.2353,-6.6907187 L316.46118,-5.9674344 L316.68707,-5.3164783 L316.91293,-4.7306175 L317.13882,-4.203343 L317.36472,-3.728796 L317.59058,-3.3017037 L317.81647,-2.9173205 L318.04236,-2.5713758 L318.26825,-2.2600255 L318.4941,-1.9798101 L318.72,-1.7276164 L318.9459,-1.500642 L319.17175,-1.296365 L319.39764,-1.1125158 L319.62354,-0.94705147 L319.84943,-0.7981336 L320.0753,-0.6641075 L320.30118,-0.543484 L320.52707,-0.43492284 L320.75293,-9.436466 L320.97882,-8.438606 L321.2047,-7.540533 L321.4306,-6.732267 L321.65646,-6.0048275 L321.88235,-5.350132 L322.10825,-9.31053 L322.3341,-12.874888 L322.56,-16.082811 L322.7859,-14.420317 L323.01178,-12.924072 L323.23764,-11.577453 L323.46353,-14.915118 L323.68942,-13.369394 L323.91528,-11.978242 L324.14117,-15.275828 L324.36707,-13.694034 L324.59293,-12.270417 L324.81882,-10.989162 L325.0447,-9.836034 L325.2706,-8.798218 L325.49646,-7.864183 L325.72235,-7.023552 L325.94824,-6.266984 L326.1741,-5.586073 L326.4,-4.973253 L326.6259,-4.421715 L326.85178,-3.9253306 L327.07764,-3.4785848 L327.30353,-3.0765135 L327.52942,-2.7146494 L327.75528,-2.3889718 L327.98117,-2.095862 L328.20706,-6.3816867 L328.43295,-5.6893053 L328.6588,-9.615787 L328.8847,-8.599995 L329.1106,-7.6857824 L329.33646,-6.862992 L329.56235,-6.1224794 L329.78824,-14.555267 L330.01413,-13.045527 L330.24,-11.686762 L330.46588,-10.463873 L330.69177,-13.912897 L330.91763,-12.467395 L331.14352,-11.166442 L331.36942,-9.995585 L331.5953,-13.491438 L331.82117,-12.088081 L332.04706,-10.825061 L332.27295,-9.688342 L332.4988,-13.214919 L332.7247,-11.839214 L332.9506,-10.60108 L333.17648,-9.486759 L333.40234,-8.4838705 L333.62823,-7.5812707 L333.85413,-6.768931 L334.08,-6.037825 L334.30588,-9.929454 L334.53177,-8.882296 L334.75766,-7.939853 L334.98352,-11.641279 L335.2094,-10.422938 L335.4353,-9.326432 L335.66116,-12.8892 L335.88705,-11.546067 L336.11295,-10.337248 L336.33884,-9.2493105 L336.5647,-12.819791 L336.7906,-11.483599 L337.01648,-10.281026 L337.24234,-9.19871 L337.46823,-8.224627 L337.69412,-7.3479514 L337.92,-6.5589437 L338.14587,-5.8488364 L338.37177,-5.20974 L338.59766,-4.6345534 L338.82352,-4.116885 L339.0494,-3.650984 L339.2753,-3.2316728 L339.5012,-7.403917 L339.72705,-6.6093125 L339.95294,-5.8941684 L340.17883,-5.250539 L340.4047,-9.220896 L340.63058,-8.244594 L340.85648,-7.3659215 L341.08237,-6.5751166 L341.30823,-10.413016 L341.53412,-9.317502 L341.76,-8.331539 L341.98587,-7.4441724 L342.21176,-6.6455426 L342.43765,-5.9267755 L342.66354,-9.829509 L342.8894,-8.792345 L343.1153,-7.858898 L343.3412,-7.0187955 L343.56705,-6.2627034 L343.79294,-5.58222 L344.01883,-4.9697857 L344.24472,-4.4185944 L344.47058,-3.922522 L344.69647,-3.476057 L344.92236,-7.6238627 L345.14822,-6.8072634 L345.3741,-6.0723243 L345.6,-5.410879 L345.8259,-4.8155785 L346.05176,-4.279808 L346.27765,-3.7976146 L346.50354,-3.3636403 L346.7294,-2.9730635 L346.9553,-2.6215444 L347.18118,-2.3051772 L347.40707,-6.5700707 L347.63293,-5.858851 L347.85883,-5.218753 L348.08472,-4.642665 L348.31058,-4.1241856 L348.53647,-3.6575544 L348.76236,-3.2375863 L348.98822,-2.8596148 L349.2141,-2.5194407 L349.44,-2.2132838 L349.6659,-1.9377427 L349.89175,-1.6897557 L350.11765,-10.565815 L350.34354,-9.455021 L350.5694,-8.455306 L350.7953,-7.555563 L351.02118,-6.745794 L351.24707,-10.566626 L351.47293,-9.45575 L351.69882,-8.455962 L351.9247,-7.556154 L352.15057,-6.7463255 L352.37646,-6.0174804 L352.60236,-14.460768 L352.82825,-12.960478 L353.0541,-11.610217 L353.28,-10.394983 L353.5059,-9.301271 L353.73175,-8.316932 L353.95764,-7.431026 L354.18353,-6.633711 L354.40942,-5.9161267 L354.63528,-5.2703013 L354.86118,-4.6890583 L355.08707,-4.16594 L355.31293,-3.6951332 L355.53882,-3.2714071 L355.7647,-2.8900537 L355.9906,-2.5468357 L356.21646,-2.2379394 L356.44235,-6.509557 L356.66824,-5.804388 L356.8941,-5.1697364 L357.12,-4.5985503 L357.3459,-4.0844827 L357.57178,-3.6218214 L357.79764,-3.2054265 L358.02353,-2.830671 L358.24942,-2.4933913 L358.47528,-6.7394633 L358.70117,-6.0113044 L358.92706,-5.3559613 L359.15295,-4.7661524 L359.3788,-4.2353244 L359.6047,-8.307203 L359.8306,-7.42227 L360.05646,-11.175454 L360.28235,-14.55332 L360.50824,-13.043776 L360.73413,-11.685185 L360.96,-10.462454 L361.18588,-9.361996 L361.41177,-12.921207 L361.63763,-11.574874 L361.86353,-14.912798 L362.08942,-13.367305 L362.3153,-11.976362 L362.54117,-10.724513 L362.76706,-14.147473 L362.99295,-12.678513 L363.2188,-11.356449 L363.4447,-10.166592 L363.6706,-9.095719 L363.89648,-8.131935 L364.12234,-7.2645283 L364.34824,-11.033487 L364.57413,-9.875925 L364.8,-8.83412 L365.02588,-7.8964953 L365.25177,-11.602257 L365.47766,-14.937443 L365.70352,-17.93911 L365.9294,-25.190233 L366.1553,-27.166622 L366.38116,-24.395746 L366.60706,-26.451584 L366.83295,-23.752213 L367.05884,-21.322779 L367.2847,-19.136288 L367.5106,-17.168446 L367.73648,-15.397388 L367.96234,-18.353062 L368.18823,-16.463543 L368.41412,-14.762976 L368.64,-17.78209 L368.86588,-15.949667 L369.09177,-14.3004875 L369.31766,-12.816226 L369.54352,-16.030014 L369.7694,-14.372801 L369.9953,-12.881308 L370.2212,-11.538964 L370.44705,-10.330855 L370.67294,-9.243557 L370.89883,-8.264989 L371.1247,-7.384277 L371.3506,-6.5916367 L371.57648,-10.427884 L371.80237,-18.43013 L372.02823,-16.532906 L372.25412,-14.825401 L372.48,-13.288649 L372.70587,-11.905571 L372.93176,-10.660801 L373.15765,-9.540508 L373.3835,-8.532245 L373.6094,-7.624808 L373.8353,-11.3577385 L374.0612,-10.167751 L374.28705,-9.096764 L374.51294,-8.1328745 L374.73883,-7.265374 L374.9647,-6.4846244 L375.19058,-5.781949 L375.41647,-5.1495414 L375.64236,-4.5803747 L375.86823,-4.0681243 L376.09412,-3.607099 L376.32,-3.1921766 L376.54587,-7.36837 L376.77176,-15.676568 L376.99765,-14.054699 L377.22354,-12.5950165 L377.4494,-15.830926 L377.6753,-14.193621 L377.90118,-17.26967 L378.12704,-15.48849 L378.35294,-18.435053 L378.57883,-16.537334 L378.80472,-14.829388 L379.03058,-13.292236 L379.25647,-11.9088 L379.48236,-10.663708 L379.70822,-9.543124 L379.9341,-13.084223 L380.16,-11.721588 L380.3859,-10.495216 L380.61176,-9.391481 L380.83765,-8.398121 L381.06354,-7.504096 L381.2894,-6.699474 L381.5153,-10.524938 L381.74118,-9.418231 L381.96707,-17.521442 L382.19293,-15.715086 L382.41882,-14.089365 L382.6447,-12.626216 L382.87057,-11.3093815 L383.09647,-10.12423 L383.32236,-9.057594 L383.54825,-8.097622 L383.7741,-7.2336473 L384,-6.45607 L384.2259,-5.7562504 L384.45175,-5.1264124 L384.67764,-9.109182 L384.90353,-8.144052 L385.12943,-11.825057 L385.3553,-10.588339 L385.58118,-9.475292 L385.80707,-13.023174 L386.03293,-11.666644 L386.25882,-10.445767 L386.4847,-9.346977 L386.7106,-8.3580675 L386.93646,-7.4680476 L387.16235,-6.6670303 L387.38824,-5.9461145 L387.6141,-5.2972903 L387.84,-9.262973 L388.0659,-8.282462 L388.29178,-7.4000034 L388.51764,-6.60579 L388.74353,-14.990247 L388.96942,-22.536257 L389.19528,-20.228418 L389.42117,-18.151363 L389.64706,-16.282015 L389.87296,-14.599601 L390.09882,-13.085428 L390.3247,-16.272297 L390.5506,-14.590854 L390.77646,-13.077556 L391.00235,-11.715588 L391.22824,-10.489816 L391.45413,-9.386621 L391.68,-8.393746 L391.90588,-12.049784 L392.13177,-10.790592 L392.35764,-9.65732 L392.58353,-8.637376 L392.80942,-7.719425 L393.0353,-6.89327 L393.26117,-6.14973 L393.48706,-5.4805446 L393.71295,-4.8782773 L393.9388,-4.336237 L394.1647,-3.8484004 L394.3906,-7.9589715 L394.6165,-7.1088614 L394.84235,-6.343763 L395.06824,-5.655174 L395.29413,-9.585068 L395.52,-8.572348 L395.74588,-7.6609006 L395.97177,-6.8405976 L396.19763,-10.651949 L396.42352,-9.532541 L396.6494,-13.074698 L396.8753,-11.713016 L397.10117,-24.136374 L397.32706,-21.668524 L397.55295,-19.447458 L397.7788,-17.4485 L398.0047,-15.649437 L398.2306,-14.030281 L398.45648,-12.57304 L398.68234,-11.261523 L398.90823,-10.081158 L399.13412,-13.568454 L399.36,-12.157395 L399.58588,-10.887444 L399.81177,-9.744486 L400.03766,-8.715825 L400.26352,-7.7900295 L400.4894,-6.956814 L400.7153,-6.2069197 L400.94116,-5.532015 L401.16705,-4.9246006 L401.39294,-4.377928 L401.61884,-3.8859224 L401.8447,-3.4431174 L402.0706,-7.594217 L402.29648,-6.7805824 L402.52234,-6.048311 L402.74823,-5.3892674 L402.97412,-4.7961283 L403.2,-4.2623024 L403.42587,-3.7818596 L403.65176,-12.448709 L403.87766,-20.248873 L404.10352,-18.169773 L404.3294,-25.397831 L404.5553,-22.803835 L404.7812,-20.469238 L405.00705,-18.368103 L405.23294,-16.47708 L405.45883,-19.324783 L405.6847,-26.43734 L405.91058,-23.739393 L406.13647,-25.860865 L406.36237,-32.319813 L406.58823,-29.033619 L406.81412,-26.076044 L407.04,-23.414227 L407.26587,-21.018593 L407.49176,-23.412144 L407.71765,-21.016716 L407.94354,-18.860832 L408.1694,-16.920536 L408.3953,-15.17427 L408.6212,-18.152254 L408.84705,-16.282816 L409.07294,-14.600322 L409.29883,-13.086077 L409.52472,-11.723256 L409.75058,-10.496718 L409.97647,-9.392834 L410.20236,-8.399338 L410.42822,-7.505191 L410.6541,-11.250083 L410.88,-10.070862 L411.1059,-9.009563 L411.33176,-8.054394 L411.55765,-7.1947417 L411.78354,-6.421055 L412.0094,-10.274361 L412.2353,-9.192712 L412.46118,-8.219228 L412.68707,-7.3430924 L412.91293,-11.104195 L413.13882,-9.939562 L413.36472,-8.891394 L413.59058,-7.948041 L413.81647,-7.0990243 L414.04236,-6.334909 L414.26825,-5.6472054 L414.4941,-5.028272 L414.72,-4.4712324 L414.9459,-3.9698963 L415.17175,-8.068317 L415.39764,-7.2072735 L415.62354,-6.4323335 L415.84943,-5.734887 L416.0753,-5.107186 L416.30118,-4.5422544 L416.52707,-4.0338163 L416.75293,-3.576222 L416.97882,-3.164387 L417.2047,-7.3433595 L417.4306,-6.554811 L417.65646,-5.845117 L417.88235,-5.2063923 L418.10825,-9.181165 L418.3341,-8.208836 L418.56,-7.333739 L418.7859,-6.5461526 L419.01178,-5.8373246 L419.23764,-9.749003 L419.46353,-8.719891 L419.68942,-7.7936883 L419.91528,-11.50973 L420.14117,-19.403793 L420.36707,-17.4092 L420.59293,-15.614068 L420.81882,-18.548073 L421.0447,-16.639053 L421.2706,-14.920935 L421.49646,-13.374628 L421.72235,-11.982953 L421.94824,-10.730445 L422.1741,-14.152811 L422.4,-17.23294 L422.6259,-15.455435 L422.85178,-13.855679 L423.07764,-12.415897 L423.30353,-11.120095 L423.52942,-9.953873 L423.75528,-8.904273 L423.98117,-7.959633 L424.20706,-7.109457 L424.43295,-10.893923 L424.6588,-9.750318 L424.8847,-13.270697 L425.1106,-11.889415 L425.33646,-10.64626 L425.56235,-9.527422 L425.78824,-8.520467 L426.01413,-12.163831 L426.24,-15.44286 L426.46588,-13.84436 L426.69177,-12.405712 L426.91763,-11.110928 L427.14352,-9.945622 L427.36942,-8.896848 L427.5953,-7.95295 L427.82117,-7.103442 L428.04706,-6.3388853 L428.27295,-5.650784 L428.4988,-5.0314927 L428.7247,-4.4741306 L428.9506,-8.522129 L429.17648,-7.615703 L429.40234,-11.349545 L429.62823,-10.1603775 L429.85413,-13.6397505 L430.08,-16.771187 L430.30588,-15.039855 L430.53177,-13.481657 L430.75766,-12.079279 L430.98352,-10.817138 L431.2094,-9.681211 L431.4353,-8.658877 L431.66116,-7.738777 L431.88705,-6.9106865 L432.11295,-6.1654053 L432.33884,-10.044276 L432.5647,-13.535259 L432.7906,-12.127521 L433.01648,-10.860556 L433.24234,-9.720287 L433.46823,-8.694046 L433.69412,-7.7704287 L433.92,-6.939173 L434.14587,-6.191043 L434.37177,-5.517726 L434.59766,-4.911741 L434.82352,-4.366354 L435.0494,-3.8755057 L435.2753,-7.9833665 L435.5012,-7.130817 L435.72705,-6.3635225 L435.95294,-5.6729574 L436.17883,-5.0514493 L436.4047,-4.4920917 L436.63058,-3.9886696 L436.85648,-8.085214 L437.08237,-7.22248 L437.30823,-6.446019 L437.53412,-5.7472043 L437.76,-5.1182714 L437.98587,-4.5522313 L438.21176,-4.0427957 L438.43765,-3.5843031 L438.66354,-3.1716602 L438.8894,-7.3499055 L439.1153,-6.560702 L439.3412,-5.850419 L439.56705,-5.2111645 L439.79294,-4.635835 L440.01883,-4.118039 L440.24472,-3.6520224 L440.47058,-3.2326074 L440.69647,-2.8551338 L440.92236,-7.0650315 L441.14822,-6.304316 L441.3741,-14.71892 L441.6,-13.192815 L441.8259,-11.819321 L442.05176,-10.583176 L442.27765,-9.470645 L442.50354,-8.469368 L442.7294,-7.5682187 L442.9553,-6.757184 L443.18118,-6.0272527 L443.40707,-9.919939 L443.63293,-8.873733 L443.85883,-7.932146 L444.08472,-7.0847187 L444.31058,-6.3220344 L444.53647,-5.635618 L444.76236,-5.0178437 L444.98822,-4.4618464 L445.2141,-3.961449 L445.44,-8.060716 L445.6659,-7.200431 L445.89175,-6.426175 L446.11765,-5.729345 L446.34354,-9.651822 L446.5694,-8.632427 L446.7953,-7.7149715 L447.02118,-6.8892612 L447.24707,-6.1461225 L447.47293,-5.477298 L447.69882,-13.974603 L447.9247,-12.52293 L448.15057,-15.766048 L448.37646,-14.135231 L448.60236,-12.667495 L448.82825,-11.346533 L449.0541,-14.707291 L449.28,-17.731974 L449.5059,-15.904563 L449.73175,-23.359142 L449.95764,-20.969015 L450.18353,-18.8179 L450.40942,-21.431522 L450.63528,-23.783781 L450.86118,-21.35119 L451.08707,-19.161858 L451.31293,-17.19146 L451.53882,-15.418101 L451.7647,-13.822078 L451.9906,-12.385657 L452.21646,-11.092879 L452.44235,-9.9293785 L452.66824,-8.882228 L452.8941,-7.939792 L453.12,-7.0916004 L453.3459,-6.3282275 L453.57178,-5.641192 L453.79764,-5.02286 L454.02353,-4.4663615 L454.24942,-3.9655125 L454.47528,-3.5147486 L454.70117,-3.109061 L454.92706,-2.743942 L455.15295,-2.4153352 L455.3788,-2.1195889 L455.6047,-1.8534173 L455.8306,-1.6138628 L456.05646,-1.3982637 L456.28235,-1.2042246 L456.50824,-5.5792136 L456.73413,-4.967079 L456.96,-4.4161587 L457.18588,-3.92033 L457.41177,-8.023708 L457.63763,-7.1671247 L457.86353,-6.3961997 L458.08942,-5.702367 L458.3153,-9.627542 L458.54117,-8.610575 L458.76706,-7.6953044 L458.99295,-11.4211855 L459.2188,-10.2248535 L459.4447,-13.69778 L459.6706,-16.823414 L459.89648,-15.086859 L460.12234,-18.073584 L460.34824,-20.761637 L460.57413,-18.63126 L460.8,-16.713923 L461.02588,-14.988317 L461.25177,-13.435272 L461.47766,-12.037533 L461.70352,-10.779567 L461.9294,-14.1970215 L462.1553,-12.723106 L462.38116,-11.396583 L462.60706,-10.202712 L462.83295,-9.128228 L463.05884,-8.161192 L463.2847,-7.29086 L463.5106,-6.5075617 L463.73648,-5.8025928 L463.96234,-5.168121 L464.18823,-4.597096 L464.41412,-4.0831738 L464.64,-3.6206434 L464.86588,-7.75399 L465.09177,-6.9243784 L465.31766,-10.727352 L465.54352,-9.600404 L465.7694,-13.135775 L465.9953,-11.767984 L466.2212,-10.536973 L466.44705,-9.429063 L466.67294,-12.981568 L466.89883,-29.827694 L467.1247,-26.790712 L467.3506,-24.057428 L467.57648,-21.597473 L467.80237,-19.383512 L468.02823,-17.39095 L468.25412,-15.597641 L468.48,-13.9836645 L468.70587,-12.531085 L468.93176,-11.223763 L469.15765,-10.047174 L469.3835,-8.988244 L469.6094,-8.035208 L469.8353,-11.7270975 L470.0612,-10.500175 L470.28705,-9.395945 L470.51294,-8.402138 L470.73883,-7.5077114 L470.9647,-6.7027273 L471.19058,-5.978242 L471.41647,-5.326205 L471.64236,-4.739372 L471.86823,-4.2112217 L472.09412,-8.285511 L472.32,-7.402747 L472.54587,-11.157884 L472.77176,-9.987883 L472.99765,-8.934881 L473.22354,-7.9871807 L473.4494,-7.1342497 L473.6753,-6.366612 L473.90118,-5.6757383 L474.12704,-5.0539517 L474.35294,-4.4943438 L474.57883,-3.9906964 L474.80472,-8.087038 L475.03058,-7.2241216 L475.25647,-6.447497 L475.48236,-5.748534 L475.70822,-9.669092 L475.9341,-8.64797 L476.16,-7.7289605 L476.3859,-11.451475 L476.61176,-10.252115 L476.83765,-9.172691 L477.06354,-12.7508335 L477.2894,-15.971161 L477.5153,-14.319832 L477.74118,-12.833636 L477.96707,-11.496059 L478.19293,-14.841866 L478.41882,-17.85309 L478.6447,-16.013569 L478.87057,-14.357999 L479.09647,-12.867986 L479.32236,-11.526975 L479.54825,-10.320065 L479.7741,-9.233845 L480,-8.2562475" fill="none" stroke="black" stroke-linejoin="round" stroke-width="2"/>
</g>
</g>
<g>
<g>
<line stroke="black" stroke-width="1" x1="0" x2="0" y1="0" y2="10"/>
<line stroke="black" stroke-width="1" x1="90.3529411764706" x2="90.3529411764706" y1="0" y2="10"/>
<line stroke="black" stroke-width="1" x1="180.7058823529412" x2="180.7058823529412" y1="0" y2="10"/>
<line stroke="black" stroke-width="1" x1="271.05882352941177" x2="271.05882352941177" y1="0" y2="10"/>
<line stroke="black" stroke-width="1" x1="361.4117647058824" x2="361.4117647058824" y1="0" y2="10"/>
<line stroke="black" stroke-width="1" x1="451.7647058823529" x2="451.7647058823529" y1="0" y2="10"/>
</g>
<line stroke="black" stroke-width="1" x1="0" x2="480" y1="0" y2="0"/>
<g>
<text font-size="12" text-anchor="middle" x="0" y="20">
0
</text>
<text font-size="12" text-anchor="middle" x="90.3529411764706" y="20">
400
</text>
<text font-size="12" text-anchor="middle" x="180.7058823529412" y="20">
800
</text>
<text font-size="12" text-anchor="middle" x="271.05882352941177" y="20">
1200
</text>
<text font-size="12" text-anchor="middle" x="361.4117647058824" y="20">
1600
</text>
<text font-size="12" text-anchor="middle" x="451.7647058823529" y="20">
2000
</text>
</g>
<text font-size="12" text-anchor="middle" x="240" y="30">

</text>
</g>
<g>
<g>
<line stroke="black" stroke-width="1" x1="0" x2="-10" y1="0.000039729472914787475" y2="0.000039729472914787475"/>
<line stroke="black" stroke-width="1" x1="0" x2="-10" y1="-90.99243962552895" y2="-90.99243962552895"/>
<line stroke="black" stroke-width="1" x1="0" x2="-10" y1="-181.98491898053084" y2="-181.98491898053084"/>
<line stroke="black" stroke-width="1" x1="0" x2="-10" y1="-272.9773983355327" y2="-272.9773983355327"/>
</g>
<line stroke="black" stroke-width="1" x1="0" x2="0" y1="0" y2="-340"/>
<g>
<text dominant-baseline="middle" font-size="12" text-anchor="end" x="-15" y="0.000039729472914787475">
4.02383
</text>
<text dominant-baseline="middle" font-size="12" text-anchor="end" x="-15" y="-90.99243962552895">
8.02383
</text>
<text dominant-baseline="middle" font-size="12" text-anchor="end" x="-15" y="-181.98491898053084">
12.02383
</text>
<text dominant-baseline="middle" font-size="12" text-anchor="end" x="-15" y="-272.9773983355327">
16.02383
</text>
</g>
<text font-size="12" text-anchor="middle" transform="rotate(-90 -96 -170)" x="-96" y="-182">

</text>
</g>
</g>
</svg>