<svg viewBox="0 0 600 400" xmlns="http://www.w3.org/2000/svg">
<g transform="translate(72, 364)">
<g>
<g>
<path d="M0,-0 L0,-0 L0.38034865,-12.599599 L0.7606973,-17.639439 L1.1410459,-22.175293 L1.5213946,-19.957764 L1.9017433,-17.961988 L2.2820919,-16.165789 L2.6624405,-20.849009 L3.0427892,-31.363707 L3.423138,-28.227337 L3.8034866,-25.404602 L4.183835,-22.864143 L4.5641837,-20.577728 L4.9445324,-18.519955 L5.324881,-16.66796 L5.7052298,-15.0011635 L6.0855784,-13.501047 L6.465927,-31.05034 L6.846276,-27.945307 L7.2266245,-25.150776 L7.606973,-22.635698 L7.987322,-32.971725 L8.36767,-29.674555 L8.748019,-33.006897 L9.128367,-29.70621 L9.508717,-33.035385 L9.889065,-36.031647 L10.269414,-32.428482 L10.649762,-60.68463 L11.030111,-73.515564 L11.4104595,-66.16401 L11.790809,-59.547607 L12.171157,-53.592846 L12.551505,-48.233562 L12.931854,-62.309605 L13.312202,-62.378445 L13.692552,-81.3398 L14.0729,-85.80541 L14.453249,-108.72387 L14.833597,-104.15128 L15.213946,-118.93535 L15.594295,-107.04182 L15.974644,-96.33763 L16.354992,-93.00367 L16.73534,-96.3029 L17.11569,-99.27221 L17.496038,-89.344986 L17.876387,-86.71029 L18.256735,-90.63886 L18.637083,-81.574974 L19.017433,-117.516075 L19.397781,-181.36206 L19.77813,-182.12524 L20.158478,-170.21252 L20.538828,-172.09067 L20.919176,-154.8816 L21.299524,-139.39345 L21.679873,-125.454094 L22.060223,-112.90869 L22.44057,-101.61782 L22.820919,-122.95503 L23.201267,-186.25713 L23.581617,-186.5308 L23.961966,-174.17752 L24.342314,-156.75978 L24.722662,-153.6834 L25.10301,-188.71346 L25.48336,-213.9407 L25.863708,-192.54663 L26.244057,-173.29196 L26.624405,-162.26257 L27.004755,-152.3361 L27.385103,-143.4023 L27.765451,-147.96147 L28.1458,-133.16533 L28.52615,-119.84879 L28.906498,-107.86391 L29.286846,-97.07752 L29.667194,-93.66956 L30.047544,-128.4012 L30.427893,-134.46048 L30.80824,-158.81323 L31.18859,-149.2317 L31.568937,-153.20793 L31.949287,-169.38614 L32.329636,-165.04712 L32.709984,-154.84221 L33.090332,-164.55719 L33.47068,-148.10147 L33.85103,-133.29132 L34.23138,-157.76099 L34.61173,-173.48389 L34.992077,-168.73509 L35.372425,-151.86159 L35.752773,-142.97522 L36.13312,-134.97751 L36.51347,-140.37915 L36.893818,-126.34123 L37.274166,-126.30671 L37.65452,-119.97584 L38.034866,-114.27805 L38.415215,-128.04944 L38.795563,-140.4437 L39.17591,-157.89833 L39.55626,-148.4083 L39.936607,-171.36626 L40.316956,-198.32823 L40.697308,-184.79521 L41.077656,-241.91327 L41.458004,-217.72195 L41.838352,-221.14896 L42.2187,-205.33386 L42.59905,-260.39807 L42.979397,-234.35826 L43.359745,-210.92242 L43.740093,-208.72958 L44.120445,-194.15643 L44.500793,-187.34038 L44.88114,-174.90614 L45.26149,-163.71533 L45.641838,-172.543 L46.022186,-211.9869 L46.402534,-197.088 L46.782883,-177.3792 L47.163235,-172.24088 L47.543583,-155.01678 L47.92393,-139.5151 L48.30428,-157.06259 L48.684628,-172.85533 L49.064976,-161.8696 L49.445324,-151.98244 L49.825672,-161.9834 L50.20602,-183.58385 L50.586372,-171.52527 L50.96672,-154.37274 L51.34707,-138.93547 L51.727417,-137.64151 L52.107765,-123.877365 L52.488113,-111.489624 L52.86846,-100.34067 L53.24881,-115.5058 L53.62916,-129.15442 L54.00951,-166.63736 L54.38986,-168.87303 L54.770206,-183.48473 L55.150555,-165.13625 L55.530903,-180.12163 L55.91125,-199.90825 L56.2916,-179.91743 L56.671947,-187.12488 L57.0523,-199.91139 L57.432648,-205.11945 L57.812996,-184.6075 L58.193344,-166.14676 L58.573692,-155.83188 L58.95404,-152.84828 L59.33439,-143.86327 L59.714737,-167.27573 L60.09509,-163.14775 L60.475437,-146.83298 L60.855785,-157.34888 L61.236134,-179.41278 L61.61648,-180.37091 L61.99683,-174.93341 L62.37718,-188.93907 L62.757526,-188.94456 L63.137875,-207.8489 L63.518227,-218.563 L63.898575,-221.9059 L64.27892,-206.0151 L64.65927,-261.0112 L65.03962,-272.70886 L65.41997,-295.83636 L65.800316,-278.85233 L66.180664,-263.5667 L66.56101,-237.21004 L66.94136,-219.78883 L67.32171,-204.10974 L67.70206,-183.69878 L68.082405,-171.6287 L68.46276,-160.76563 L68.84311,-150.98886 L69.22346,-142.18977 L69.603806,-134.2706 L69.98415,-177.54173 L70.3645,-159.78755 L70.74485,-143.8088 L71.1252,-148.32732 L71.50555,-190.19278 L71.885895,-190.0729 L72.26624,-177.36542 L72.64659,-165.92867 L73.02694,-193.4344 L73.40729,-186.69055 L73.787636,-199.5205 L74.167984,-223.66704 L74.54833,-201.30034 L74.92869,-193.7699 L75.30904,-174.39291 L75.689384,-156.95363 L76.06973,-153.85786 L76.45008,-176.27087 L76.83043,-158.64378 L77.21078,-155.379 L77.591125,-183.9397 L77.97147,-203.34453 L78.35182,-195.60966 L78.73217,-188.6483 L79.11252,-169.78348 L79.49287,-171.70453 L79.873215,-186.03307 L80.25356,-186.32916 L80.63391,-167.69624 L81.01426,-163.52621 L81.394615,-153.47339 L81.77496,-138.12605 L82.15531,-130.61325 L82.53566,-123.85172 L82.91601,-117.76635 L83.29636,-156.3881 L83.676704,-147.0491 L84.05705,-151.24359 L84.4374,-167.61823 L84.81775,-188.6552 L85.1981,-245.38727 L85.578445,-239.74794 L85.95879,-240.97235 L86.33914,-235.7745 L86.71949,-275.19504 L87.09984,-279.17453 L87.48019,-251.2571 L87.86054,-276.5298 L88.24089,-261.4764 L88.62124,-260.52795 L89.00159,-259.67435 L89.381935,-246.30652 L89.76228,-240.57527 L90.14263,-216.51773 L90.52298,-207.46556 L90.90333,-218.218 L91.283676,-240.4948 L91.664024,-235.34471 L92.04437,-211.81024 L92.42472,-234.72781 L92.80507,-230.15443 L93.18542,-207.13899 L93.565765,-199.02469 L93.94611,-185.42201 L94.32647,-173.17961 L94.70682,-181.06085 L95.087166,-162.95477 L95.467514,-165.55869 L95.84786,-155.30261 L96.22821,-146.07216 L96.60856,-137.76474 L96.98891,-136.58786 L97.369255,-154.42807 L97.7496,-164.18446 L98.12995,-223.36362 L98.5103,-201.02725 L98.89065,-212.42352 L99.270996,-266.77875 L99.651344,-240.10089 L100.03169,-222.3906 L100.41204,-275.7491 L100.7924,-248.17421 L101.172745,-242.2562 L101.55309,-224.33037 L101.93344,-239.69614 L102.31379,-253.52531 L102.69414,-265.9716 L103.074486,-258.2738 L103.454834,-232.44644 L103.83518,-278.49957 L104.21553,-250.64963 L104.59588,-225.58467 L104.97623,-209.326 L105.356575,-213.59259 L105.73692,-198.53314 L106.11727,-216.47862 L106.49762,-226.32976 L106.87797,-203.69678 L107.25832,-252.6249 L107.63867,-233.6622 L108.01902,-235.49518 L108.39937,-218.24545 L108.77972,-209.02051 L109.160065,-194.41826 L109.54041,-181.27623 L109.92076,-200.9474 L110.30111,-243.85066 L110.68146,-263.56418 L111.061806,-268.70676 L111.442154,-241.83609 L111.8225,-242.85168 L112.20285,-231.1661 L112.5832,-239.5485 L112.96355,-253.39244 L113.343895,-253.2524 L113.72425,-227.92715 L114.1046,-205.13445 L114.48495,-190.92079 L114.865295,-171.82872 L115.24564,-167.24544 L115.62599,-200.9193 L116.00634,-256.42496 L116.38669,-293.78046 L116.76704,-340 L117.147385,-324.89938 L117.52773,-317.60864 L117.90808,-311.047 L118.28843,-279.9423 L118.66878,-283.44705 L119.049126,-305.50073 L119.429474,-287.55026 L119.80982,-265.09503 L120.19018,-270.08453 L120.570526,-280.87488 L120.950874,-259.0872 L121.33122,-258.37766 L121.71157,-282.9383 L122.09192,-273.54385 L122.47227,-309.18747 L122.852615,-290.86832 L123.23296,-286.98068 L123.61331,-277.182 L123.99366,-249.46382 L124.37401,-237.11703 L124.75436,-213.40533 L125.134705,-210.96419 L125.51505,-208.76717 L125.8954,-200.49005 L126.27575,-180.44106 L126.656105,-231.69473 L127.03645,-265.22345 L127.4168,-263.9003 L127.79715,-256.40967 L128.17749,-237.06851 L128.55785,-244.86066 L128.93819,-232.97418 L129.31854,-215.97656 L129.69888,-206.97852 L130.07924,-186.28065 L130.4596,-167.65259 L130.83994,-157.18713 L131.22029,-147.76822 L131.60063,-145.59099 L131.98099,-131.03189 L132.36133,-124.22851 L132.74168,-118.10545 L133.12202,-112.59471 L133.50238,-120.234634 L133.88272,-114.51097 L134.26308,-115.65947 L134.64342,-141.89232 L135.02377,-178.10149 L135.40411,-172.89093 L135.78447,-174.50124 L136.16481,-182.2503 L136.54517,-176.62488 L136.92552,-177.86179 L137.30586,-185.27481 L137.68622,-185.64673 L138.06656,-167.08205 L138.44691,-162.97345 L138.82726,-165.5755 L139.20761,-155.31775 L139.58795,-152.38557 L139.9683,-156.04642 L140.34865,-171.94077 L140.729,-154.74669 L141.10934,-139.27202 L141.4897,-125.34482 L141.87004,-156.90894 L142.2504,-147.51784 L142.63074,-157.96526 L143.0111,-142.16873 L143.39145,-140.55145 L143.77179,-132.79611 L144.15215,-144.7157 L144.53249,-142.84372 L144.91284,-147.45876 L145.29318,-132.71288 L145.67354,-150.94058 L146.05388,-135.84653 L146.43423,-134.86147 L146.81458,-159.17412 L147.19493,-181.05551 L147.57527,-181.84935 L147.95563,-188.86362 L148.33597,-195.17645 L148.71632,-188.2584 L149.09666,-182.03217 L149.47702,-170.12874 L149.85738,-197.21446 L150.23772,-215.29181 L150.61807,-206.36223 L150.99841,-198.3256 L151.37877,-216.29184 L151.75911,-200.96246 L152.13947,-231.2646 L152.5198,-245.93694 L152.90016,-252.84224 L153.2805,-227.55801 L153.66086,-211.10202 L154.0412,-202.59142 L154.42155,-213.83127 L154.8019,-192.44814 L155.18225,-198.40253 L155.56259,-184.86208 L155.94295,-223.07407 L156.3233,-238.56544 L156.70364,-271.4071 L157.084,-250.5662 L157.46434,-275.90796 L157.8447,-267.21655 L158.22504,-278.2937 L158.6054,-250.46434 L158.98573,-250.6171 L159.36609,-225.55539 L159.74643,-221.89925 L160.12679,-224.90852 L160.50713,-215.01727 L160.88748,-269.11313 L161.26782,-242.20181 L161.64818,-236.88104 L162.02852,-269.8911 L162.40887,-242.90201 L162.78923,-262.71042 L163.16957,-236.43936 L163.54993,-237.99463 L163.93027,-283.49295 L164.31062,-267.74326 L164.69096,-285.06754 L165.07132,-325.85858 L165.45166,-305.8723 L165.83202,-300.48428 L166.21236,-276.73566 L166.59271,-312.0601 L166.97305,-293.45367 L167.35341,-264.1083 L167.73375,-237.69746 L168.1141,-220.22752 L168.49445,-198.20477 L168.8748,-184.6841 L169.25516,-166.21568 L169.6355,-155.89392 L170.01585,-146.60432 L170.3962,-194.94188 L170.77655,-225.84608 L171.15689,-209.56128 L171.53725,-245.30334 L171.91759,-227.07281 L172.29794,-210.66533 L172.67828,-189.5988 L173.05864,-214.73752 L173.43898,-193.26376 L173.81934,-186.53699 L174.19968,-218.28168 L174.58003,-196.4535 L174.96037,-176.80817 L175.34073,-165.42714 L175.72108,-148.88443 L176.10143,-133.99599 L176.48178,-120.59639 L176.86212,-121.136345 L177.24248,-134.22191 L177.62282,-164.89832 L178.00317,-148.40848 L178.38351,-133.56764 L178.76387,-120.21087 L179.14421,-120.78938 L179.52457,-115.01025 L179.9049,-109.80902 L180.28526,-105.127914 L180.6656,-107.21472 L181.04596,-146.89165 L181.4263,-163.70148 L181.80666,-197.72972 L182.18701,-190.55635 L182.56735,-171.50072 L182.94771,-160.65044 L183.32805,-144.5854 L183.7084,-130.12686 L184.08875,-117.114174 L184.4691,-168.40076 L184.84944,-183.05968 L185.2298,-171.0535 L185.61014,-153.94815 L185.9905,-138.55334 L186.37083,-137.2976 L186.75119,-123.56784 L187.13153,-123.81065 L187.51189,-130.329 L187.89223,-142.49529 L188.27258,-140.84535 L188.65294,-177.15921 L189.03328,-159.4433 L189.41364,-149.79877 L189.79398,-166.31789 L190.17433,-206.3843 L190.55467,-192.04565 L190.93503,-204.34009 L191.31537,-202.80548 L191.69572,-182.52493 L192.07607,-164.27245 L192.45642,-154.14499 L192.83676,-182.82909 L193.21712,-170.84598 L193.59746,-160.06119 L193.97781,-150.35486 L194.35815,-160.51857 L194.73851,-163.36612 L195.11887,-147.02951 L195.4992,-138.62636 L195.87956,-137.36331 L196.2599,-142.52638 L196.64026,-134.57355 L197.0206,-121.11619 L197.40096,-115.30437 L197.7813,-116.37353 L198.16165,-117.33578 L198.54199,-174.9 L198.92235,-214.10818 L199.30269,-211.59677 L199.68304,-196.7369 L200.06339,-177.0632 L200.44374,-184.55608 L200.82408,-229.09846 L201.20444,-250.28722 L201.5848,-231.55829 L201.96513,-214.70226 L202.34549,-193.23204 L202.72583,-224.30722 L203.10619,-208.1763 L203.48653,-193.65848 L203.86688,-186.89223 L204.24722,-168.203 L204.62758,-176.5819 L205.00792,-158.9237 L205.38828,-168.23053 L205.76862,-220.70528 L206.14897,-223.83394 L206.52931,-201.45055 L206.90967,-187.6053 L207.29001,-168.84476 L207.67036,-158.26009 L208.05072,-180.23288 L208.43106,-206.30818 L208.81142,-191.97716 L209.19176,-235.77744 L209.57211,-224.7993 L209.95245,-208.61917 L210.33281,-212.95645 L210.71315,-223.1598 L211.0935,-270.1416 L211.47385,-262.02686 L211.8542,-254.72356 L212.23454,-229.2512 L212.6149,-225.22548 L212.99524,-209.00273 L213.3756,-213.30165 L213.75594,-210.8709 L214.13629,-196.0836 L214.51665,-189.07484 L214.89699,-170.16736 L215.27734,-190.94942 L215.65768,-184.45407 L216.03804,-178.60826 L216.41838,-160.74744 L216.79874,-144.6727 L217.17908,-180.60382 L217.55943,-206.64203 L217.93977,-198.57742 L218.32013,-185.01949 L218.70047,-185.41693 L219.08083,-179.47484 L219.46117,-161.52736 L219.84152,-157.97421 L220.22186,-142.1768 L220.60222,-140.55872 L220.98257,-132.80264 L221.36292,-151.02138 L221.74327,-161.11844 L222.12361,-145.00659 L222.50397,-136.80573 L222.88431,-135.72476 L223.26466,-153.65128 L223.645,-150.88574 L224.02536,-148.39677 L224.4057,-183.95549 L224.78606,-171.85974 L225.1664,-179.87297 L225.54675,-237.48326 L225.9271,-213.73494 L226.30745,-198.66124 L226.68779,-203.99431 L227.06815,-189.89468 L227.4485,-221.3036 L227.82884,-224.37244 L228.2092,-208.235 L228.58954,-200.0111 L228.9699,-186.30978 L229.35023,-167.6788 L229.73059,-150.91093 L230.11093,-135.81984 L230.49129,-122.237854 L230.87163,-122.61366 L231.25198,-148.1511 L231.63232,-133.33598 L232.01268,-145.20158 L232.39302,-199.97922 L232.77338,-205.1805 L233.15372,-247.66043 L233.53407,-235.49399 L233.91443,-268.6428 L234.29477,-241.7785 L234.67513,-217.60066 L235.05547,-221.0398 L235.43582,-198.9358 L235.81616,-179.04224 L236.19652,-167.4378 L236.57686,-175.89322 L236.95721,-196.10269 L237.33755,-176.49243 L237.71791,-196.64198 L238.09825,-214.77658 L238.4786,-224.79791 L238.85895,-214.91772 L239.2393,-199.72575 L239.61964,-198.65257 L240,-185.08711 L240.38036,-179.17801 L240.7607,-186.4594 L241.14105,-174.11327 L241.5214,-181.90112 L241.90175,-195.21 L242.28209,-207.188 L242.66245,-211.66841 L243.04279,-266.09915 L243.42314,-264.68845 L243.80348,-257.119 L244.18384,-237.7069 L244.56418,-213.9362 L244.94453,-268.14017 L245.32487,-285.42474 L245.70523,-269.48187 L246.08557,-255.13329 L246.46593,-235.91975 L246.84628,-231.22717 L247.22662,-239.60345 L247.60698,-247.1421 L247.98732,-235.0275 L248.36768,-230.42415 L248.74802,-213.68153 L249.12837,-242.71178 L249.50871,-218.4406 L249.88907,-228.09554 L250.26941,-205.28598 L250.64977,-197.35698 L251.0301,-183.92108 L251.41046,-197.02797 L251.7908,-177.32518 L252.17116,-222.59065 L252.5515,-200.33159 L252.93185,-180.29843 L253.31221,-174.86818 L253.69255,-176.28076 L254.0729,-158.65268 L254.45325,-174.2864 L254.8336,-156.85777 L255.21394,-141.172 L255.5943,-139.65439 L255.97464,-138.28856 L256.35498,-124.4597 L256.73535,-112.013725 L257.1157,-100.812355 L257.49603,-90.73112 L257.87637,-81.658005 L258.25674,-104.9912 L258.6371,-113.39148 L259.01743,-120.95173 L259.39777,-115.15636 L259.77814,-147.73932 L260.15848,-151.86478 L260.53882,-155.5777 L260.9192,-140.01993 L261.29953,-132.31773 L261.67987,-119.08597 L262.0602,-144.97617 L262.44058,-206.07614 L262.82092,-191.76833 L263.20126,-178.8913 L263.5816,-224.00015 L263.96198,-233.09914 L264.34232,-241.28822 L264.72266,-223.4592 L265.103,-201.11328 L265.48337,-212.50095 L265.8637,-191.25085 L266.24405,-191.02516 L266.62442,-216.02124 L267.00476,-194.41911 L267.3851,-181.27701 L267.76544,-200.9481 L268.1458,-199.75269 L268.52615,-186.07722 L268.9065,-173.7693 L269.28683,-168.99197 L269.6672,-170.99217 L270.04755,-210.59114 L270.4279,-208.43143 L270.80823,-200.18788 L271.1886,-180.1691 L271.56894,-162.15219 L271.94928,-145.93697 L272.32962,-131.34328 L272.71,-118.20895 L273.09033,-106.38805 L273.47067,-95.749245 L273.85104,-111.37352 L274.23138,-106.535965 L274.61172,-102.18217 L274.99207,-98.26375 L275.37244,-94.737175 L275.75278,-123.062256 L276.13312,-180.05382 L276.51346,-174.64804 L276.89383,-232.78082 L277.27417,-234.70193 L277.6545,-280.52954 L278.03485,-309.17477 L278.41522,-278.2573 L278.79556,-250.43156 L279.1759,-237.988 L279.55627,-226.7888 L279.9366,-223.00932 L280.31696,-270.0062 L280.6973,-249.30537 L281.07767,-236.97443 L281.458,-219.57678 L281.83835,-222.8183 L282.2187,-232.03548 L282.59906,-227.73132 L282.9794,-223.85759 L283.35974,-201.47183 L283.74008,-231.72304 L284.12045,-240.04973 L284.5008,-222.34456 L284.88113,-269.4079 L285.26147,-255.06671 L285.64185,-279.95844 L286.0222,-270.86197 L286.40253,-256.3754 L286.7829,-300.03564 L287.16324,-270.03207 L287.54358,-293.42728 L287.92392,-301.88333 L288.3043,-271.695 L288.68463,-244.5255 L289.06497,-238.97235 L289.4453,-240.2743 L289.82568,-241.44608 L290.20602,-217.30147 L290.58636,-220.77052 L290.9667,-198.69347 L291.34708,-235.52231 L291.72742,-224.56969 L292.10776,-239.91151 L292.48813,-215.92036 L292.86847,-219.52753 L293.2488,-222.77397 L293.62915,-200.49657 L294.00952,-211.9459 L294.38986,-215.95052 L294.7702,-194.35547 L295.15054,-187.51952 L295.5309,-168.76756 L295.91125,-164.4904 L296.2916,-160.64096 L296.67194,-163.47627 L297.0523,-147.12865 L297.43265,-151.31517 L297.813,-161.38286 L298.19333,-157.84416 L298.5737,-148.35954 L298.95404,-152.42299 L299.33438,-137.1807 L299.71475,-129.76242 L300.0951,-135.68558 L300.47543,-122.11702 L300.85577,-116.20512 L301.23615,-180.1822 L301.6165,-162.16397 L301.99683,-221.54517 L302.37717,-205.69046 L302.75754,-185.12141 L303.13788,-166.60927 L303.51822,-162.54794 L303.89856,-146.29315 L304.27893,-150.56323 L304.65927,-154.40631 L305.0396,-157.86507 L305.41998,-192.47696 L305.80032,-211.02806 L306.18066,-215.12445 L306.561,-206.21161 L306.94138,-204.48984 L307.32172,-190.34065 L307.70206,-171.3066 L308.0824,-166.77553 L308.46277,-162.69757 L308.8431,-209.42581 L309.22345,-213.68243 L309.6038,-267.91177 L309.98416,-241.1206 L310.3645,-217.00854 L310.74484,-195.30768 L311.12518,-200.97612 L311.50555,-212.3775 L311.8859,-203.73935 L312.26624,-183.36542 L312.6466,-196.52786 L313.02695,-214.67387 L313.4073,-205.80609 L313.78763,-191.52528 L314.168,-172.37276 L314.54834,-155.13548 L314.92868,-171.12093 L315.30902,-172.90823 L315.6894,-218.6154 L316.06973,-221.95306 L316.45007,-212.35735 L316.8304,-197.42142 L317.2108,-209.17827 L317.59113,-188.26044 L317.97147,-207.2332 L318.35184,-192.80968 L318.73218,-179.8285 L319.11252,-187.04486 L319.49286,-180.93997 L319.87323,-169.14577 L320.25357,-152.23119 L320.6339,-137.00807 L321.01425,-142.20667 L321.39462,-134.2858 L321.77496,-139.75662 L322.1553,-125.78095 L322.53564,-113.20286 L322.91602,-139.68137 L323.29636,-125.713234 L323.6767,-150.9407 L324.05704,-154.74603 L324.4374,-139.27142 L324.81775,-125.344284 L325.1981,-131.70926 L325.57846,-124.83813 L325.9588,-143.85332 L326.33914,-173.56657 L326.71948,-219.20792 L327.09985,-222.48631 L327.4802,-244.33629 L327.86053,-219.90265 L328.24088,-273.50998 L328.62125,-296.55737 L329.0016,-323.59982 L329.38193,-297.53964 L329.76227,-267.78568 L330.14264,-253.60672 L330.52298,-228.24605 L330.90332,-205.42143 L331.2837,-184.87929 L331.66403,-235.68916 L332.04437,-212.12024 L332.4247,-253.9062 L332.80508,-253.71478 L333.18542,-240.9429 L333.56577,-216.84862 L333.9461,-220.36295 L334.32648,-198.32666 L334.70682,-197.39339 L335.08716,-215.45285 L335.4675,-193.90756 L335.84787,-180.8166 L336.2282,-187.93414 L336.60855,-181.74033 L336.9889,-201.3651 L337.36926,-193.82819 L337.7496,-212.24416 L338.12994,-197.31953 L338.5103,-190.18718 L338.89066,-177.46826 L339.271,-159.72144 L339.65134,-156.34889 L340.0317,-140.714 L340.41205,-126.6426 L340.7924,-151.77715 L341.17273,-161.79863 L341.5531,-221.21635 L341.93344,-217.99411 L342.31378,-246.5931 L342.69412,-291.23157 L343.0745,-274.708 L343.45483,-247.23721 L343.83517,-235.1131 L344.21555,-211.60179 L344.5959,-253.4396 L344.97623,-234.39545 L345.35657,-223.5555 L345.73694,-220.09935 L346.11728,-216.9888 L346.49762,-201.58972 L346.87796,-194.03035 L347.25833,-180.92711 L347.63867,-169.1342 L348.019,-158.52058 L348.39935,-142.66852 L348.77972,-178.80006 L349.16006,-160.92006 L349.5404,-151.12785 L349.92075,-136.01506 L350.30112,-135.01315 L350.68146,-153.01083 L351.0618,-144.00955 L351.44217,-142.2082 L351.8225,-203.58498 L352.20285,-183.22647 L352.5832,-164.90382 L352.96356,-179.91245 L353.3439,-187.12039 L353.72424,-181.00795 L354.10458,-181.80655 L354.48495,-188.8251 L354.8653,-169.94258 L355.24564,-165.54793 L355.62598,-180.49213 L356.00635,-162.44292 L356.3867,-183.99742 L356.76703,-171.89748 L357.1474,-179.90692 L357.52774,-161.91623 L357.90808,-145.72461 L358.28842,-137.45195 L358.6688,-130.00656 L359.04913,-117.0059 L359.42947,-180.90291 L359.8098,-232.1104 L360.1902,-259.29776 L360.57053,-245.96758 L360.95087,-221.37082 L361.3312,-211.83334 L361.71158,-203.2496 L362.09192,-214.42365 L362.47226,-205.58087 L362.8526,-235.42119 L363.23297,-218.17886 L363.6133,-246.75937 L363.99365,-278.78162 L364.37402,-257.20328 L364.75436,-231.48294 L365.1347,-208.33464 L365.51505,-212.70038 L365.89542,-204.02994 L366.27576,-202.52634 L366.6561,-238.97191 L367.03644,-215.0747 L367.4168,-218.76643 L367.79715,-222.08899 L368.1775,-199.8801 L368.55783,-198.79149 L368.9382,-191.51193 L369.31854,-172.36073 L369.69888,-155.12466 L370.07925,-158.5116 L370.4596,-205.65843 L370.83994,-210.29178 L371.22028,-189.2626 L371.60065,-208.13515 L371.981,-225.12042 L372.36133,-202.60838 L372.74167,-201.24695 L373.12204,-200.02165 L373.50238,-180.01949 L373.88272,-212.41592 L374.26306,-222.67332 L374.64343,-225.6052 L375.02377,-234.54367 L375.4041,-211.08931 L375.78445,-208.87978 L376.16483,-200.5914 L376.54517,-199.43166 L376.9255,-223.58708 L377.30588,-232.72737 L377.68622,-209.45464 L378.06656,-201.10876 L378.4469,-187.2977 L378.82727,-181.16753 L379.2076,-169.35057 L379.58795,-152.41551 L379.9683,-143.47375 L380.34866,-154.32558 L380.729,-151.49261 L381.10934,-180.44196 L381.4897,-162.39777 L381.87006,-165.05739 L382.2504,-148.55164 L382.63074,-177.79507 L383.0111,-235.61316 L383.39145,-218.35164 L383.7718,-234.31528 L384.15213,-236.08295 L384.5325,-218.77444 L384.91284,-203.19681 L385.29318,-182.87712 L385.67352,-177.18901 L386.0539,-203.56871 L386.43423,-189.51163 L386.81458,-214.65906 L387.19492,-212.09256 L387.5753,-222.3823 L387.95563,-206.44386 L388.33597,-204.69888 L388.7163,-184.22899 L389.09668,-228.80408 L389.47702,-205.92368 L389.85736,-191.6311 L390.23773,-203.967 L390.61807,-196.16989 L390.9984,-220.6515 L391.37875,-198.58635 L391.75912,-254.3253 L392.13947,-235.19258 L392.5198,-236.87251 L392.90015,-238.38446 L393.28052,-264.9444 L393.66086,-282.54855 L394.0412,-254.2937 L394.42154,-241.46393 L394.8019,-236.21693 L395.18225,-212.59525 L395.5626,-203.93532 L395.94296,-208.74098 L396.3233,-206.76628 L396.70364,-223.88846 L397.08398,-226.6988 L397.46436,-210.32872 L397.8447,-208.19525 L398.22504,-193.67552 L398.60538,-212.10677 L398.98575,-197.19589 L399.3661,-240.47429 L399.74643,-229.02646 L400.12677,-212.42361 L400.50714,-210.08066 L400.88748,-239.47098 L401.26782,-234.42328 L401.64816,-210.98096 L402.02853,-196.18266 L402.40887,-176.56439 L402.7892,-177.80736 L403.1696,-178.92601 L403.54993,-173.63301 L403.93027,-156.26971 L404.3106,-140.64275 L404.69098,-158.07747 L405.07132,-142.26971 L405.45166,-159.54175 L405.832,-143.58757 L406.21237,-160.72781 L406.5927,-150.95482 L406.97305,-142.15915 L407.3534,-146.84262 L407.73376,-132.15836 L408.1141,-125.242325 L408.49445,-144.21709 L408.87482,-142.39497 L409.25516,-134.45528 L409.6355,-133.60934 L410.01584,-139.14781 L410.3962,-137.83263 L410.77655,-130.34917 L411.1569,-129.91385 L411.53723,-116.92246 L411.9176,-105.23022 L412.29794,-94.7072 L412.67828,-129.33507 L413.05862,-135.30096 L413.439,-172.16927 L413.81934,-173.85173 L414.19968,-175.36595 L414.58002,-201.92796 L414.9604,-181.73517 L415.34073,-201.36044 L415.72107,-206.4236 L416.10144,-198.38083 L416.48178,-191.14235 L416.86212,-172.0281 L417.24246,-192.6241 L417.62283,-192.2611 L418.00317,-179.33478 L418.3835,-167.7011 L418.76385,-157.23079 L419.14423,-141.5077 L419.52457,-127.35694 L419.9049,-139.82043 L420.28525,-144.7378 L420.66562,-168.0628 L421.04596,-170.15593 L421.4263,-165.73993 L421.80667,-149.16594 L422.187,-134.24934 L422.56735,-139.72382 L422.9477,-132.05122 L423.32806,-131.44571 L423.7084,-124.60094 L424.08875,-124.74044 L424.4691,-143.7654 L424.84946,-141.98845 L425.2298,-140.3892 L425.61014,-157.84927 L425.99048,-148.36415 L426.37085,-146.12733 L426.7512,-144.1142 L427.13153,-142.30238 L427.51187,-159.57114 L427.89224,-143.61403 L428.27258,-135.55241 L428.65292,-121.99718 L429.0333,-160.19586 L429.41364,-169.37547 L429.79398,-171.33733 L430.17432,-160.50339 L430.5547,-188.55164 L430.93503,-194.89568 L431.31537,-200.6053 L431.6957,-199.44417 L432.07608,-204.69896 L432.45642,-196.82866 L432.83676,-221.24438 L433.2171,-205.41975 L433.59747,-197.47737 L433.9778,-177.72963 L434.35815,-159.95667 L434.73853,-143.961 L435.11887,-129.5649 L435.4992,-116.60841 L435.87955,-155.34596 L436.25992,-139.81137 L436.64026,-138.42982 L437.0206,-124.586845 L437.40094,-168.82635 L437.7813,-158.24352 L438.16165,-167.61836 L438.542,-157.15633 L438.92233,-147.7405 L439.3027,-139.26625 L439.68304,-182.03781 L440.0634,-163.83403 L440.44373,-160.05023 L440.8241,-144.04521 L441.20444,-161.13968 L441.58478,-163.92511 L441.96515,-166.43199 L442.3455,-193.88739 L442.72583,-199.69785 L443.10617,-186.02786 L443.48654,-205.22388 L443.86688,-197.30109 L444.24722,-221.66957 L444.62756,-205.80241 L445.00793,-197.82178 L445.38828,-203.23878 L445.76862,-182.91492 L446.14896,-177.22302 L446.52933,-165.80052 L446.90967,-174.41966 L447.29,-169.5773 L447.67038,-196.71815 L448.05072,-183.34615 L448.43106,-177.61113 L448.8114,-172.44962 L449.19177,-193.00345 L449.5721,-198.9023 L449.95245,-216.81087 L450.3328,-195.12978 L450.71317,-175.6168 L451.0935,-189.55412 L451.47385,-246.1963 L451.8542,-297.17426 L452.23456,-311.55542 L452.6149,-292.99948 L452.99524,-263.69952 L453.37558,-281.4282 L453.75595,-278.48456 L454.1363,-250.63611 L454.51663,-225.5725 L454.897,-203.01524 L455.27734,-189.01352 L455.65768,-189.01157 L456.03802,-182.71 L456.4184,-170.7388 L456.79874,-185.16393 L457.17908,-242.24512 L457.55942,-218.02061 L457.9398,-196.21855 L458.32013,-189.19629 L458.70047,-189.17606 L459.0808,-170.25845 L459.46118,-159.53241 L459.84152,-162.47856 L460.22186,-146.23071 L460.60223,-137.90744 L460.98257,-124.11669 L461.3629,-118.00482 L461.74326,-137.70334 L462.12363,-142.8324 L462.50397,-134.84897 L462.8843,-127.663864 L463.26465,-121.19728 L463.64502,-184.67514 L464.02536,-216.60602 L464.4057,-194.94542 L464.78604,-188.05048 L465.1664,-244.84302 L465.54675,-220.35872 L465.9271,-198.32285 L466.30743,-228.88896 L466.6878,-206.00006 L467.06815,-197.99965 L467.4485,-184.49948 L467.82886,-178.64914 L468.2092,-160.78423 L468.58954,-144.7058 L468.96988,-142.83482 L469.35025,-185.24953 L469.7306,-223.42278 L470.11093,-201.08049 L470.49127,-206.17165 L470.87164,-229.65308 L471.25198,-206.68776 L471.63232,-198.61859 L472.01266,-178.75673 L472.39304,-198.67986 L472.77338,-222.91046 L473.15372,-200.61942 L473.5341,-193.15707 L473.91443,-180.14116 L474.29477,-193.62605 L474.6751,-174.26344 L475.05548,-169.43669 L475.43582,-158.79283 L475.81616,-155.51314 L476.1965,-146.26163 L476.57687,-182.03386 L476.9572,-163.83047 L477.33755,-191.54602 L477.7179,-184.99101 L478.09827,-191.69112 L478.4786,-197.72119 L478.85895,-209.44807 L479.2393,-207.40266 L479.61966,-192.9622 L480,-230.36417" fill="none" stroke="black" stroke-linejoin="round" stroke-width="2"/>
</g>
</g>
<g>
<g>
<line stroke="black" stroke-width="1" x1="0" x2="0" y1="0" y2="10"/>
<line stroke="black" stroke-width="1" x1="152.13946117274168" x2="152.13946117274168" y1="0" y2="10"/>
<line stroke="black" stroke-width="1" x1="304.27892234548335" x2="304.27892234548335" y1="0" y2="10"/>
<line stroke="black" stroke-width="1" x1="456.418383518225" x2="456.418383518225" y1="0" y2="10"/>
</g>
<line stroke="black" stroke-width="1" x1="0" x2="480" y1="0" y2="0"/>
<g>
<text font-size="12" text-anchor="middle" x="0" y="20">
0
</text>
<text font-size="12" text-anchor="middle" x="152.13946117274168" y="20">
400
</text>
<text font-size="12" text-anchor="middle" x="304.27892234548335" y="20">
800
</text>
<text font-size="12" text-anchor="middle" x="456.418383518225" y="20">
1200
</text>
</g>
<text font-size="12" text-anchor="middle" x="240" y="30">

</text>
</g>
<g>
<g>
<line stroke="black" stroke-width="1" x1="0" x2="-10" y1="-0" y2="-0"/>
<line stroke="black" stroke-width="1" x1="0" x2="-10" y1="-62.99799330422639" y2="-62.99799330422639"/>
<line stroke="black" stroke-width="1" x1="0" x2="-10" y1="-125.99598660845278" y2="-125.99598660845278"/>
<line stroke="black" stroke-width="1" x1="0" x2="-10" y1="-188.99397991267918" y2="-188.99397991267918"/>
<line stroke="black" stroke-width="1" x1="0" x2="-10" y1="-251.99197321690556" y2="-251.99197321690556"/>
<line stroke="black" stroke-width="1" x1="0" x2="-10" y1="-314.989966521132" y2="-314.989966521132"/>
</g>
<line stroke="black" stroke-width="1" x1="0" x2="0" y1="0" y2="-340"/>
<g>
<text dominant-baseline="middle" font-size="12" text-anchor="end" x="-15" y="-0">
2
</text>
<text dominant-baseline="middle" font-size="12" text-anchor="end" x="-15" y="-62.99799330422639">
4
</text>
<text dominant-baseline="middle" font-size="12" text-anchor="end" x="-15" y="-125.99598660845278">
6
</text>
<text dominant-baseline="middle" font-size="12" text-anchor="end" x="-15" y="-188.99397991267918">
8
</text>
<text dominant-baseline="middle" font-size="12" text-anchor="end" x="-15" y="-251.99197321690556">
10
</text>
<text dominant-baseline="middle" font-size="12" text-anchor="end" x="-15" y="-314.989966521132">
12
</text>
</g>
<text font-size="12" text-anchor="middle" transform="rotate(-90 -24 -170)" x="-24" y="-182">

</text>
</g>
</g>
</svg>