<svg viewBox="0 0 600 400" xmlns="http://www.w3.org/2000/svg">
<g transform="translate(72, 364)">
<g>
<g>
<path d="M0,-0 L0,-0 L0.6233766,-0 L1.2467532,-77.54161 L1.8701298,-147.32906 L2.4935064,-132.59615 L3.116883,-119.33653 L3.7402596,-121.08669 L4.3636365,-163.71327 L4.987013,-192.95467 L5.6103897,-237.517 L6.233766,-213.76529 L6.857143,-256.24655 L7.4805193,-248.86699 L8.103896,-301.5219 L8.727273,-298.73734 L9.350649,-305.35376 L9.974026,-311.30856 L10.597403,-289.30026 L11.220779,-260.3702 L11.844156,-234.3332 L12.467532,-229.14496 L13.090909,-206.23047 L13.714286,-185.60742 L14.337663,-203.53685 L14.961039,-183.18317 L15.584415,-192.23247 L16.207792,-236.86702 L16.83117,-231.4254 L17.454546,-285.82446 L18.077923,-334.78363 L18.701298,-319.55035 L19.324675,-296.71786 L19.948051,-267.04608 L20.571428,-276.83163 L21.194805,-258.27103 L21.818182,-287.17917 L22.441559,-276.70633 L23.064936,-249.0357 L23.688313,-301.67374 L24.311687,-289.75146 L24.935064,-288.14392 L25.558441,-332.30988 L26.181818,-317.32397 L26.805195,-294.7141 L27.428572,-283.4878 L28.051949,-273.3841 L28.675325,-282.53586 L29.298702,-254.28227 L29.922077,-228.85405 L30.545454,-205.96864 L31.16883,-212.7394 L31.792208,-237.07817 L32.415585,-231.61543 L33.03896,-226.69897 L33.66234,-240.51926 L34.285713,-225.58987 L34.909092,-203.03088 L35.532467,-182.7278 L36.155846,-164.45502 L36.77922,-157.13205 L37.402596,-141.41885 L38.025974,-127.27696 L38.64935,-123.671814 L39.272728,-120.42717 L39.896103,-108.38445 L40.51948,-97.546005 L41.142857,-87.791405 L41.766235,-106.37989 L42.38961,-104.86445 L43.012985,-94.378 L43.636364,-103.18529 L44.25974,-120.23438 L44.883118,-108.210945 L45.506493,-97.389854 L46.12987,-87.65086 L46.753246,-133.62103 L47.376625,-138.50401 L48,-133.77615 L48.623375,-120.39854 L49.246754,-117.481224 L49.87013,-114.855644 L50.493507,-103.37008 L51.116882,-93.03307 L51.74026,-138.46503 L52.363636,-161.10869 L52.987015,-163.2429 L53.61039,-146.91861 L54.233765,-132.22675 L54.857143,-128.12662 L55.48052,-133.55904 L56.103897,-138.44823 L56.727272,-133.72594 L57.35065,-138.59843 L57.974026,-124.73859 L58.597404,-112.26473 L59.22078,-101.03825 L59.844154,-109.17951 L60.467533,-98.261566 L61.090908,-106.68049 L61.714287,-141.62515 L62.33766,-173.07535 L62.96104,-183.13544 L63.584415,-201.31207 L64.207794,-181.18086 L64.83117,-163.06277 L65.454544,-155.87904 L66.07792,-176.78131 L66.7013,-159.10318 L67.32468,-161.43794 L67.94805,-154.41669 L68.57143,-148.09756 L69.19481,-142.41035 L69.818184,-155.53694 L70.44156,-176.47342 L71.06493,-177.07115 L71.68831,-159.36404 L72.31169,-161.67273 L72.93507,-145.50545 L73.55844,-130.95491 L74.181816,-117.85941 L74.80519,-106.07347 L75.42857,-95.466125 L76.05195,-85.91951 L76.67532,-77.32756 L77.2987,-78.71735 L77.92208,-79.968155 L78.545456,-90.21642 L79.16883,-81.19478 L79.792206,-82.197845 L80.41558,-73.97806 L81.03896,-66.58025 L81.66234,-69.04477 L82.28571,-89.50792 L82.90909,-80.55713 L83.53247,-72.50142 L84.155846,-74.37382 L84.77922,-66.93643 L85.402596,-60.24279 L86.02597,-63.341053 L86.64935,-75.25204 L87.27273,-67.72683 L87.8961,-60.954147 L88.51948,-73.10382 L89.14286,-65.793434 L89.766235,-59.214092 L90.38961,-53.292683 L91.012985,-93.576126 L91.63636,-93.34106 L92.25974,-102.25204 L92.88312,-110.27191 L93.50649,-117.48981 L94.12987,-114.86337 L94.75325,-112.49957 L95.376625,-119.494705 L96,-107.545235 L96.623375,-96.79071 L97.24675,-87.11164 L97.87013,-105.7681 L98.49351,-122.558914 L99.11688,-110.303024 L99.74026,-163.13052 L100.36364,-224.35907 L100.987015,-206.48444 L101.61039,-263.3776 L102.233765,-255.28493 L102.85714,-293.61423 L103.48052,-291.62042 L104.1039,-340 L104.72727,-306 L105.35065,-284.52255 L105.97403,-256.07028 L106.597404,-239.5858 L107.22078,-224.74977 L107.844154,-211.39732 L108.46753,-190.2576 L109.09091,-180.35439 L109.71429,-198.80911 L110.33766,-178.92819 L110.96104,-238.57698 L111.58442,-214.71928 L112.207794,-257.10516 L112.83117,-267.8848 L113.454544,-286.70905 L114.07792,-267.16068 L114.7013,-240.44461 L115.32468,-271.1354 L115.94805,-244.02187 L116.57143,-219.61967 L117.19481,-197.65771 L117.818184,-177.89194 L118.44156,-187.47037 L119.06493,-168.72333 L119.68831,-160.97354 L120.31169,-181.36636 L120.93507,-190.59735 L121.55844,-171.53761 L122.181816,-154.38385 L122.80519,-138.94547 L123.42857,-125.05092 L124.05195,-130.79091 L124.67532,-154.202 L125.2987,-166.14941 L125.92208,-149.53447 L126.545456,-134.58102 L127.16883,-139.36801 L127.792206,-134.55376 L128.41559,-130.22092 L129.03896,-117.19883 L129.66234,-105.47894 L130.28572,-122.298676 L130.90909,-110.06881 L131.53247,-153.79718 L132.15584,-138.41747 L132.77922,-202.11732 L133.4026,-191.02814 L134.02597,-249.46693 L134.64935,-224.52023 L135.27272,-202.0682 L135.8961,-181.86139 L136.51949,-163.67525 L137.14285,-147.30772 L137.76624,-132.57695 L138.38962,-128.4418 L139.01299,-142.96526 L139.63637,-137.79126 L140.25974,-160.5023 L140.88312,-190.06479 L141.5065,-171.0583 L142.12987,-153.95248 L142.75325,-138.55724 L143.37662,-133.82405 L144,-129.5642 L144.62338,-116.607765 L145.24675,-141.43716 L145.87013,-204.83505 L146.4935,-193.47409 L147.11688,-183.24922 L147.74026,-164.9243 L148.36363,-148.43187 L148.98701,-142.71123 L149.61038,-174.05281 L150.23376,-156.64754 L150.85715,-159.22786 L151.48051,-152.42763 L152.1039,-146.3074 L152.72728,-131.67667 L153.35065,-118.508995 L153.97403,-115.78064 L154.5974,-113.32512 L155.22078,-101.99261 L155.84416,-91.79334 L156.46753,-91.73655 L157.09091,-100.80798 L157.71428,-90.72718 L158.33766,-90.77701 L158.96104,-81.6993 L159.58441,-100.897 L160.2078,-99.92985 L160.83116,-89.93686 L161.45454,-80.94318 L162.07793,-91.09394 L162.7013,-81.98455 L163.32468,-92.03117 L163.94806,-101.07314 L164.57143,-118.33346 L165.19481,-142.99028 L165.81818,-128.69125 L166.44156,-134.06721 L167.06494,-193.64082 L167.68831,-174.27675 L168.31169,-156.84908 L168.93506,-150.28671 L169.55844,-212.79964 L170.18182,-200.64223 L170.80519,-226.1907 L171.42857,-203.57164 L172.05194,-183.21448 L172.67532,-174.01556 L173.2987,-234.15562 L173.92207,-228.98514 L174.54546,-206.08662 L175.16884,-212.8456 L175.7922,-269.10263 L176.41559,-306.05017 L177.03896,-275.44516 L177.66234,-247.90063 L178.28572,-268.7233 L178.90909,-241.85095 L179.53247,-217.66586 L180.15584,-205.02182 L180.77922,-221.00981 L181.4026,-244.52153 L182.02597,-220.06938 L182.64935,-234.55261 L183.27272,-211.09735 L183.8961,-189.98761 L184.51949,-170.98886 L185.14285,-163.01251 L185.76624,-146.71126 L186.38962,-141.16267 L187.01299,-136.16895 L187.63637,-140.79713 L188.25974,-126.71743 L188.88312,-114.045685 L189.5065,-148.25383 L190.12987,-133.42845 L190.75325,-156.57578 L191.37662,-150.04074 L192,-162.40428 L192.62338,-173.53148 L193.24675,-156.17833 L193.87013,-140.5605 L194.4935,-126.504456 L195.11688,-113.854004 L195.74026,-102.468605 L196.36363,-101.34429 L196.98701,-91.20986 L197.61038,-127.701584 L198.23376,-124.05397 L198.85715,-111.648575 L199.48051,-100.48371 L200.1039,-90.43534 L200.72728,-99.636894 L201.35065,-117.04083 L201.97403,-114.45929 L202.5974,-121.258446 L203.22078,-186.67421 L203.84416,-168.00679 L204.46753,-151.20612 L205.09091,-145.20804 L205.71428,-130.68724 L206.33766,-126.74106 L206.96104,-114.06695 L207.58441,-102.660255 L208.2078,-110.63931 L208.83116,-108.69792 L209.45454,-97.82813 L210.07793,-97.16786 L210.7013,-96.573616 L211.32468,-96.038795 L211.94806,-95.55746 L212.57143,-104.246796 L213.19481,-93.82212 L213.81818,-84.4399 L214.44156,-75.99592 L215.06494,-68.396324 L215.68831,-61.556694 L216.31169,-64.52357 L216.93506,-58.07121 L217.55844,-61.38663 L218.18182,-55.247967 L218.80519,-58.84571 L219.42857,-62.083683 L220.05194,-55.875317 L220.67532,-50.287785 L221.2987,-72.62663 L221.92207,-65.36397 L222.54546,-95.31774 L223.16884,-85.785965 L223.7922,-77.20737 L224.41559,-69.48663 L225.03896,-71.660515 L225.66234,-64.49446 L226.28572,-85.41264 L226.90909,-104.239006 L227.53247,-121.18273 L228.15584,-127.30954 L228.77922,-123.701126 L229.4026,-111.33102 L230.02597,-100.197914 L230.64935,-90.17812 L231.27272,-81.16031 L231.8961,-73.04428 L232.51949,-65.73985 L233.14285,-59.165867 L233.76624,-89.73945 L234.38962,-89.88805 L235.01299,-80.89924 L235.63637,-72.80932 L236.25974,-65.52839 L236.88312,-58.975548 L237.5065,-71.323074 L238.12987,-64.19077 L238.75325,-57.771694 L239.37662,-61.117065 L240,-55.00536 L240.62338,-58.627365 L241.24675,-52.76463 L241.87013,-47.488167 L242.4935,-42.73935 L243.11688,-38.465416 L243.74026,-34.618874 L244.36363,-31.156986 L244.98701,-28.041286 L245.61038,-25.237158 L246.23376,-22.713442 L246.85715,-47.809727 L247.48051,-52.151295 L248.1039,-46.936165 L248.72728,-42.24255 L249.35065,-38.018295 L249.97403,-34.216465 L250.5974,-58.162445 L251.22078,-52.3462 L251.84416,-47.11158 L252.46753,-42.40042 L253.09091,-74.65055 L253.71428,-67.18549 L254.33766,-78.71203 L254.96104,-79.96337 L255.58441,-81.08958 L256.2078,-82.10316 L256.83118,-92.137924 L257.45456,-110.29176 L258.0779,-126.63021 L258.7013,-113.96719 L259.32468,-102.57047 L259.94806,-92.31342 L260.57144,-110.44971 L261.1948,-99.40474 L261.81818,-89.464264 L262.44156,-80.51784 L263.06494,-72.46606 L263.68832,-65.21945 L264.31168,-113.432755 L264.93506,-111.21202 L265.55844,-109.21336 L266.18182,-98.29203 L266.8052,-97.585365 L267.42856,-87.82683 L268.05194,-115.53432 L268.67532,-140.47105 L269.2987,-135.5465 L269.9221,-131.11438 L270.54544,-127.12549 L271.16882,-150.9031 L271.7922,-154.05788 L272.4156,-138.6521 L273.03897,-124.78688 L273.66232,-121.43074 L274.2857,-109.28767 L274.9091,-98.358894 L275.53247,-88.52301 L276.15585,-97.915794 L276.77924,-88.124214 L277.4026,-79.31179 L278.02597,-80.50315 L278.64935,-72.452835 L279.27274,-74.33009 L279.89612,-66.89709 L280.51947,-60.20738 L281.14285,-54.18664 L281.76624,-48.767975 L282.38962,-62.136265 L283.013,-65.04518 L283.63635,-58.54066 L284.25974,-52.686596 L284.88312,-47.417934 L285.5065,-51.798683 L286.12988,-73.98644 L286.75323,-66.5878 L287.37662,-69.05156 L288,-62.146404 L288.62338,-55.931763 L289.24677,-50.33859 L289.87012,-45.30473 L290.4935,-40.774258 L291.11688,-45.819374 L291.74026,-41.237434 L292.36365,-55.358776 L292.987,-49.8229 L293.61038,-44.84061 L294.23376,-40.35655 L294.85715,-36.320892 L295.48053,-32.688805 L296.10388,-29.419924 L296.72726,-35.60047 L297.35065,-32.040424 L297.97403,-28.836384 L298.5974,-25.952745 L299.22076,-23.357471 L299.84415,-39.266808 L300.46753,-90.07538 L301.0909,-144.92564 L301.7143,-166.92325 L302.33768,-150.23091 L302.96103,-135.20782 L303.5844,-121.68704 L304.2078,-109.51834 L304.83118,-98.566505 L305.45456,-125.20003 L306.0779,-112.68002 L306.7013,-119.657104 L307.32468,-135.05902 L307.94806,-121.553116 L308.57144,-109.397804 L309.1948,-98.45802 L309.81818,-88.61222 L310.44156,-79.751 L311.06494,-71.7759 L311.68832,-64.59831 L312.31168,-58.13848 L312.93506,-52.32463 L313.55844,-56.21471 L314.18182,-50.59324 L314.8052,-45.533916 L315.42856,-40.980526 L316.05194,-36.882473 L316.67532,-33.194225 L317.2987,-29.874802 L317.9221,-26.887321 L318.54544,-51.566216 L319.16882,-46.409595 L319.7922,-78.258804 L320.4156,-79.555466 L321.03897,-71.59992 L321.66232,-100.9301 L322.2857,-109.08217 L322.9091,-98.17396 L323.53247,-88.35656 L324.15585,-125.13361 L324.77924,-121.7428 L325.4026,-187.11012 L326.02597,-186.6442 L326.64935,-167.97978 L327.27274,-151.1818 L327.89612,-154.3087 L328.51947,-138.87784 L329.14285,-124.99005 L329.76624,-130.73613 L330.38962,-117.66251 L331.013,-124.14135 L331.63635,-111.72721 L332.25974,-109.67703 L332.88312,-98.709335 L333.5065,-88.8384 L334.12988,-79.95456 L334.75323,-90.204185 L335.37662,-99.428856 L336,-98.60851 L336.62338,-88.74766 L337.24677,-79.872894 L337.87012,-71.885605 L338.4935,-73.81959 L339.11688,-66.43763 L339.74026,-59.793865 L340.36365,-72.05956 L340.987,-92.22123 L341.61038,-82.99911 L342.23376,-74.699196 L342.85715,-67.22928 L343.48053,-60.50635 L344.10388,-54.455715 L344.72726,-49.010143 L345.35065,-62.354214 L345.97403,-56.118793 L346.5974,-59.629456 L347.22076,-71.9116 L347.84415,-64.720436 L348.46753,-58.24839 L349.0909,-52.423553 L349.7143,-65.426285 L350.33768,-68.006195 L350.96103,-61.205578 L351.5844,-82.452644 L352.2078,-83.329926 L352.83118,-74.99693 L353.45456,-76.61978 L354.0779,-105.44797 L354.7013,-94.903175 L355.32468,-94.5354 L355.94806,-85.081856 L356.57144,-76.57367 L357.1948,-68.916306 L357.81818,-71.14722 L358.44156,-73.15504 L359.06494,-65.83953 L359.68832,-59.25558 L360.31168,-71.5751 L360.93506,-64.417595 L361.55844,-57.975838 L362.18182,-52.178253 L362.8052,-74.32806 L363.42856,-76.01779 L364.05194,-86.661095 L364.67532,-77.99499 L365.2987,-70.19549 L365.9221,-63.175938 L366.54544,-56.858345 L367.16882,-60.29505 L367.7922,-54.26555 L368.4156,-48.838993 L369.03897,-62.20018 L369.66232,-65.1027 L370.2857,-58.592434 L370.9091,-52.73319 L371.53247,-83.95004 L372.15585,-93.80012 L372.77924,-93.54265 L373.4026,-84.188385 L374.02597,-75.76955 L374.64935,-68.19259 L375.27274,-61.373333 L375.89612,-55.236 L376.51947,-58.83494 L377.14285,-52.951447 L377.76624,-65.90139 L378.38962,-59.31125 L379.013,-53.380123 L379.63635,-48.04211 L380.25974,-43.2379 L380.88312,-38.91411 L381.5065,-44.14524 L382.12988,-39.730717 L382.75323,-44.880188 L383.37662,-49.51471 L384,-44.56324 L384.62338,-40.106915 L385.24677,-36.096226 L385.87012,-41.609146 L386.4935,-55.693314 L387.11688,-50.12398 L387.74026,-45.111584 L388.36365,-40.600426 L388.987,-36.540382 L389.61038,-42.00889 L390.23376,-37.808 L390.85715,-43.149742 L391.48053,-47.95731 L392.10388,-97.896835 L392.72726,-88.10715 L393.35065,-106.66406 L393.97403,-95.99766 L394.5974,-86.39789 L395.22076,-86.880646 L395.84415,-105.5602 L396.46753,-104.126724 L397.0909,-93.71405 L397.7143,-120.83282 L398.33768,-181.72987 L398.96103,-163.55688 L399.5844,-156.32375 L400.2078,-140.69136 L400.83118,-135.74477 L401.45456,-122.170296 L402.0779,-109.95326 L402.7013,-98.95794 L403.32468,-89.06214 L403.94806,-80.15593 L404.57144,-90.38542 L405.1948,-81.34688 L405.81818,-109.70236 L406.44156,-116.97721 L407.06494,-105.27949 L407.68832,-103.874084 L408.31168,-93.48667 L408.93506,-84.13801 L409.55844,-93.96929 L410.18182,-84.57236 L410.8052,-76.11513 L411.42856,-68.50361 L412.05194,-70.775795 L412.67532,-63.698215 L413.2987,-57.328392 L413.9221,-51.595554 L414.54544,-46.435997 L415.16882,-41.792397 L415.7922,-37.61316 L416.4156,-33.85184 L417.03897,-30.466658 L417.66232,-45.665077 L418.2857,-41.098568 L418.9091,-36.988712 L419.53247,-60.657467 L420.15585,-54.59172 L420.77924,-58.255093 L421.4026,-52.42958 L422.02597,-56.309166 L422.64935,-50.67825 L423.27274,-54.732967 L423.89612,-49.25967 L424.51947,-53.456245 L425.14285,-48.110622 L425.76624,-43.29956 L426.38962,-48.092144 L427.013,-43.282932 L427.63635,-38.954636 L428.25974,-35.059174 L428.88312,-40.6758 L429.5065,-36.60822 L430.12988,-32.947395 L430.75323,-29.652657 L431.37662,-54.05502 L432,-57.77206 L432.62338,-70.23994 L433.24677,-90.58357 L433.87012,-81.525215 L434.4935,-73.37269 L435.11688,-66.03542 L435.74026,-86.79951 L436.36365,-78.11955 L436.987,-97.675224 L437.61038,-87.90771 L438.23376,-79.116936 L438.85715,-71.20524 L439.48053,-64.08472 L440.10388,-57.676247 L440.72726,-51.90862 L441.35065,-64.962845 L441.97403,-58.46656 L442.5974,-52.619904 L443.22076,-74.72554 L443.84415,-67.25298 L444.46753,-60.527687 L445.0909,-72.72 L445.7143,-83.693085 L446.33768,-75.32378 L446.96103,-67.7914 L447.5844,-61.01226 L448.2078,-54.911034 L448.83118,-49.41993 L449.45456,-53.60048 L450.0779,-57.362972 L450.7013,-51.62668 L451.32468,-46.46401 L451.94806,-60.06269 L452.57144,-54.056423 L453.1948,-48.65078 L453.81818,-71.15333 L454.44156,-82.28308 L455.06494,-83.177315 L455.68832,-74.85958 L456.31168,-67.37363 L456.93506,-60.63626 L457.55844,-54.572636 L458.18182,-49.11537 L458.8052,-53.326378 L459.42856,-47.99374 L460.05194,-52.31691 L460.67532,-56.20776 L461.2987,-50.586983 L461.9221,-45.528286 L462.54544,-50.098 L463.16882,-45.0882 L463.7922,-40.57938 L464.4156,-36.521442 L465.03897,-51.11438 L465.66232,-46.002945 L466.2857,-41.40265 L466.9091,-37.262383 L467.53247,-42.658688 L468.15585,-47.51536 L468.77924,-42.763824 L469.4026,-38.487442 L470.02597,-80.25141 L470.64935,-72.226265 L471.27274,-65.00364 L471.89612,-67.62582 L472.51947,-60.86324 L473.14285,-54.776913 L473.76624,-58.421764 L474.38962,-52.57959 L475.013,-47.32163 L475.63635,-51.71201 L476.25974,-55.66335 L476.88312,-59.21956 L477.5065,-53.2976 L478.12988,-47.967842 L478.75323,-43.17106 L479.37662,-38.85395 L480,-34.968555" fill="none" stroke="black" stroke-linejoin="round" stroke-width="2"/>
</g>
</g>
<g>
<g>
<line stroke="black" stroke-width="1" x1="0" x2="0" y1="0" y2="10"/>
<line stroke="black" stroke-width="1" x1="124.67532467532467" x2="124.67532467532467" y1="0" y2="10"/>
<line stroke="black" stroke-width="1" x1="249.35064935064935" x2="249.35064935064935" y1="0" y2="10"/>
<line stroke="black" stroke-width="1" x1="374.02597402597405" x2="374.02597402597405" y1="0" y2="10"/>
</g>
<line stroke="black" stroke-width="1" x1="0" x2="480" y1="0" y2="0"/>
<g>
<text font-size="12" text-anchor="middle" x="0" y="20">
0
</text>
<text font-size="12" text-anchor="middle" x="124.67532467532467" y="20">
200
</text>
<text font-size="12" text-anchor="middle" x="249.35064935064935" y="20">
400
</text>
<text font-size="12" text-anchor="middle" x="374.02597402597405" y="20">
600
</text>
</g>
<text font-size="12" text-anchor="middle" x="240" y="30">

</text>
</g>
<g>
<g>
<line stroke="black" stroke-width="1" x1="0" x2="-10" y1="-0" y2="-0"/>
<line stroke="black" stroke-width="1" x1="0" x2="-10" y1="-91.22542226856315" y2="-91.22542226856315"/>
<line stroke="black" stroke-width="1" x1="0" x2="-10" y1="-182.4508445371263" y2="-182.4508445371263"/>
<line stroke="black" stroke-width="1" x1="0" x2="-10" y1="-273.67626680568947" y2="-273.67626680568947"/>
</g>
<line stroke="black" stroke-width="1" x1="0" x2="0" y1="0" y2="-340"/>
<g>
<text dominant-baseline="middle" font-size="12" text-anchor="end" x="-15" y="-0">
4
</text>
<text dominant-baseline="middle" font-size="12" text-anchor="end" x="-15" y="-91.22542226856315">
6
</text>
<text dominant-baseline="middle" font-size="12" text-anchor="end" x="-15" y="-182.4508445371263">
8
</text>
<text dominant-baseline="middle" font-size="12" text-anchor="end" x="-15" y="-273.67626680568947">
10
</text>
</g>
<text font-size="12" text-anchor="middle" transform="rotate(-90 -24 -170)" x="-24" y="-182">

</text>
</g>
</g>
</svg>