<svg viewBox="0 0 600 400" xmlns="http://www.w3.org/2000/svg">
<g transform="translate(72, 364)">
<g>
<g>
<path d="M0,-340 L0,-340 L0.19347037,-324.8889 L0.38694075,-311.28888 L0.58041114,-280.16 L0.7738815,-280.47733 L0.96735185,-252.4296 L1.1608223,-274.40887 L1.3542926,-284.74576 L1.547763,-322.3823 L1.7412333,-327.92184 L1.9347037,-295.12967 L2.128174,-265.6167 L2.3216445,-253.22168 L2.5151148,-227.89952 L2.7085853,-205.10957 L2.9020557,-184.5986 L3.095526,-166.13875 L3.2889965,-149.52487 L3.4824667,-134.57239 L3.6759372,-121.11515 L3.8694074,-109.00363 L4.0628777,-98.10327 L4.256348,-88.292946 L4.4498186,-79.463646 L4.643289,-71.51728 L4.8367596,-64.365555 L5.0302296,-57.929 L5.2237,-52.1361 L5.4171705,-46.92249 L5.610641,-42.23024 L5.8041115,-38.007217 L5.9975815,-34.206493 L6.191052,-30.785845 L6.3845224,-27.70726 L6.577993,-24.936535 L6.771463,-22.44288 L6.9649334,-20.198593 L7.158404,-18.178734 L7.3518744,-16.36086 L7.545345,-14.724774 L7.738815,-13.252297 L7.9322853,-11.927068 L8.125755,-10.734361 L8.319226,-9.660925 L8.512696,-8.694832 L8.706167,-7.825349 L8.899637,-7.042814 L9.093107,-6.3385324 L9.286578,-5.7046795 L9.480048,-5.1342115 L9.673519,-4.6207905 L9.866989,-4.1587114 L10.060459,-3.74284 L10.25393,-3.368556 L10.4474,-3.0317004 L10.640871,-2.7285304 L10.834341,-2.4556775 L11.027811,-2.2101097 L11.221282,-1.9890987 L11.414752,-1.7901888 L11.608223,-1.6111699 L11.801693,-1.450053 L11.995163,-1.3050476 L12.188634,-1.1745429 L12.382104,-1.0570886 L12.575574,-0.9513797 L12.769045,-0.85624176 L12.962515,-0.7706176 L13.155986,-0.69355583 L13.349456,-0.6242002 L13.542926,-0.5617802 L13.736397,-0.5056022 L13.929867,-0.45504197 L14.123338,-0.4095378 L14.316808,-0.368584 L14.510278,-0.3317256 L14.703749,-0.29855305 L14.897219,-0.26869774 L15.09069,-0.24182796 L15.28416,-0.21764517 L15.47763,-0.19588065 L15.671101,-0.17629258 L15.864571,-0.15866333 L16.05804,-0.142797 L16.25151,-0.1285173 L16.444983,-0.11566556 L16.638453,-0.10409901 L16.831923,-0.09368911 L17.025393,-0.084320195 L17.218863,-0.07588818 L17.412334,-0.06829936 L17.605804,-0.061469425 L17.799274,-0.055322483 L17.992744,-0.049790233 L18.186214,-0.04481121 L18.379686,-0.04033009 L18.573156,-0.03629708 L18.766626,-0.032667372 L18.960096,-0.029400636 L19.153566,-0.026460571 L19.347038,-0.023814514 L19.540508,-0.021433063 L19.733978,-0.019289756 L19.927448,-0.01736078 L20.120918,-0.015624703 L20.31439,-0.014062232 L20.50786,-0.012656009 L20.70133,-0.0113904085 L20.8948,-0.010251367 L21.08827,-0.009226231 L21.281742,-0.008303608 L21.475212,-0.007473247 L21.668682,-0.006725922 L21.862152,-0.00605333 L22.055622,-0.005447997 L22.249094,-0.0049031973 L22.442564,-0.0044128774 L22.636034,-0.0039715897 L22.829504,-0.003574431 L23.022974,-0.0032169877 L23.216446,-0.0028952889 L23.409916,-0.00260576 L23.603386,-0.002345184 L23.796856,-0.0021106657 L23.990326,-0.0018995991 L24.183796,-0.0017096392 L24.377268,-0.0015386753 L24.570738,-0.0013848078 L24.764208,-0.001246327 L24.957678,-0.0011216942 L25.151148,-0.0010095248 L25.34462,-0.00090857234 L25.53809,-0.00081771513 L25.73156,-0.0007359436 L25.92503,-0.0006623492 L26.1185,-0.0005961143 L26.311972,-0.0005365029 L26.505442,-0.0004828526 L26.698912,-0.00043456734 L26.892382,-0.0003911106 L27.085852,-0.00035199954 L27.279324,-0.0003167996 L27.472794,-0.00028511963 L27.666264,-0.00025660766 L27.859734,-0.0002309469 L28.053204,-0.00020785221 L28.246675,-0.000187067 L28.440145,-0.00016836029 L28.633615,-0.00015152426 L28.827085,-0.00013637183 L29.020555,-0.00012273465 L29.214027,-0.00011046119 L29.407497,-0.00009941507 L29.600967,-0.000089473564 L29.794437,-0.0000805262 L29.987907,-0.00007247359 L30.18138,-0.000065226224 L30.37485,-0.000058703605 L30.56832,-0.000052833242 L30.76179,-0.00004754992 L30.95526,-0.000042794927 L31.148731,-0.000038515434 L31.342201,-0.00003466389 L31.535671,-0.0000311975 L31.729141,-0.000028077751 L31.922611,-0.000025269976 L32.11608,-0.00002274298 L32.30955,-0.00002046868 L32.50302,-0.000018421813 L32.696495,-0.000016579632 L32.889965,-0.0000149216685 L33.083435,-0.000013429501 L33.276905,-0.000012086552 L33.470375,-0.000010877896 L33.663845,-0.000009790107 L33.857315,-0.0000088110955 L34.050785,-0.000007929986 L34.244255,-0.0000071369877 L34.437725,-0.0000064232886 L34.6312,-0.00000578096 L34.82467,-0.000005202864 L35.01814,-0.0000046825776 L35.21161,-0.0000042143197 L35.40508,-0.0000037928876 L35.59855,-0.000003413599 L35.79202,-0.000003072239 L35.98549,-0.000002765015 L36.17896,-0.0000024885135 L36.37243,-0.000002239662 L36.565903,-0.0000020156958 L36.759373,-0.0000018141263 L36.952843,-0.0000016327136 L37.146313,-0.0000014694423 L37.339783,-0.0000013224981 L37.533253,-0.0000011902482 L37.726723,-0.0000010712233 L37.920193,-0.000000964101 L38.113663,-0.00000086769086 L38.307133,-0.00000078092177 L38.500603,-0.00000070282954 L38.694077,-0.0000006325466 L38.887547,-0.0000005692919 L39.081017,-0.0000005123627 L39.274487,-0.0000004611264 L39.467957,-0.00000041501374 L39.661427,-0.00000037351234 L39.854897,-0.0000003361611 L40.048367,-0.00000030254495 L40.241837,-0.00000027229044 L40.435307,-0.00000024506133 L40.62878,-0.00000022055518 L40.82225,-0.00000019849965 L41.01572,-0.00000017864966 L41.20919,-0.00000016078465 L41.40266,-0.00000014470615 L41.59613,-0.00000013023553 L41.7896,-0.00000011721195 L41.98307,-0.000000105490734 L42.17654,-0.00000009494163 L42.37001,-0.00000008544744 L42.563484,-0.000000076902644 L42.756954,-0.000000069212376 L42.950424,-0.0000000622911 L43.143894,-0.000000056061957 L43.337364,-0.000000050455725 L43.530834,-0.000000045410133 L43.724304,-0.000000040869097 L43.917774,-0.00000003678217 L44.111244,-0.000000033103916 L44.304714,-0.000000029793496 L44.498188,-0.00000002681412 L44.691658,-0.000000024132701 L44.885128,-0.000000021719414 L45.078598,-0.00000001954746 L45.272068,-0.000000017592681 L45.465538,-0.000000015833391 L45.659008,-0.000000014250048 L45.852478,-0.000000012825035 L46.045948,-0.000000011542498 L46.239418,-0.000000010388218 L46.43289,-0.000000009349363 L46.62636,-0.000000008414397 L46.81983,-0.00000000757292 L47.0133,-0.0000000068156196 L47.20677,-0.000000006134024 L47.40024,-0.0000000055206257 L47.59371,-0.0000000049685465 L47.78718,-0.0000000044716626 L47.98065,-0.0000000040244794 L48.17412,-0.0000000036220065 L48.36759,-0.0000000032597973 L48.561066,-0.000000002933784 L48.754536,-0.0000000026404015 L48.948006,-0.0000000023763362 L49.141476,-0.000000002138694 L49.334946,-0.0000000019247912 L49.528416,-0.0000000017322785 L49.721886,-0.0000000015590171 L49.915356,-0.0000000014031196 L50.108826,-0.0000000012627824 L50.302296,-0.0000000011364539 L50.49577,-0.0000000010227917 L50.68924,-0.0000000009204958 L50.88271,-0.0000000008284336 L51.07618,-0.0000000007455567 L51.26965,-0.00000000067098427 L51.46312,-0.00000000060387745 L51.65659,-0.0000000005434813 L51.85006,-0.0000000004891248 L52.04353,-0.00000000044017875 L52.237,-0.0000000003961399 L52.430473,-0.00000000035650494 L52.623943,-0.00000000032085445 L52.817413,-0.00000000028872707 L53.010883,-0.00000000025982919 L53.204353,-0.0000000002338253 L53.397823,-0.0000000002104218 L53.591293,-0.0000000001893251 L53.784763,-0.00000000017036743 L53.978233,-0.00000000015329712 L54.171703,-0.00000000013794645 L54.365177,-0.00000000012414761 L54.558647,-0.000000000111732845 L54.752117,-0.00000000010053439 L54.945587,-0.00000000009042643 L55.139057,-0.00000000008136701 L55.332527,-0.00000000007323031 L55.525997,-0.0000000000658905 L55.719467,-0.000000000059305644 L55.912937,-0.000000000053349918 L56.106407,-0.000000000047981372 L56.29988,-0.00000000004315807 L56.49335,-0.000000000038838068 L56.68682,-0.000000000034937483 L56.88029,-0.000000000031414378 L57.07376,-0.000000000028268745 L57.26723,-0.000000000025416705 L57.4607,-0.000000000022858259 L57.65417,-0.000000000020551462 L57.84764,-0.000000000018454373 L58.04111,-0.000000000016608936 L58.23458,-0.000000000014931266 L58.428055,-0.000000000013421363 L58.621525,-0.0000000000120792265 L58.814995,-0.0000000000108209735 L59.008465,-0.000000000009730488 L59.201935,-0.000000000008723886 L59.395405,-0.000000000007801167 L59.588875,-0.000000000007004274 L59.782345,-0.000000000006291264 L59.975815,-0.0000000000056201957 L60.169285,-0.000000000005033011 L60.36276,-0.00000000000452971 L60.55623,-0.000000000004026409 L60.7497,-0.0000000000036069912 L60.94317,-0.0000000000032295154 L61.13664,-0.0000000000028520396 L61.33011,-0.0000000000025165055 L61.52358,-0.000000000002264855 L61.71705,-0.0000000000020132045 L61.91052,-0.0000000000017615539 L62.10399,-0.000000000001551845 L62.297462,-0.0000000000013421363 L62.490932,-0.0000000000011743692 L62.684402,-0.0000000000010066022 L62.877872,-0.00000000000088077695 L63.071342,-0.00000000000075495166 L63.264812,-0.00000000000067106813 L63.458282,-0.0000000000005871846 L63.651752,-0.0000000000005033011 L63.845222,-0.0000000000004194176 L64.0387,-0.00000000000033553406 L64.23216,-0.00000000000025165056 L64.42564,-0.0000000000002097088 L64.6191,-0.00000000000016776703 L64.81258,-0.00000000000012582528 L65.00604,-0.000000000000083883516 L65.19952,-0.000000000000041941758 L65.39299,-0 L65.58646,-0 L65.77993,-0 L65.9734,-0 L66.16687,-0 L66.36034,-0 L66.55381,-0 L66.74728,-0 L66.94075,-0 L67.13422,-0 L67.32769,-0 L67.521164,-0 L67.71463,-0 L67.908104,-0 L68.10157,-0 L68.295044,-0 L68.48851,-0 L68.681984,-0 L68.87545,-0 L69.068924,-0 L69.2624,-0 L69.455864,-0 L69.64934,-0 L69.842804,-0 L70.03628,-0 L70.229744,-0 L70.42322,-0 L70.616684,-0 L70.81016,-0 L71.003624,-0 L71.1971,-0 L71.39057,-0 L71.58404,-0 L71.77751,-0 L71.97098,-0 L72.16445,-0 L72.35792,-0 L72.55139,-0 L72.74486,-0 L72.93833,-0 L73.131805,-0 L73.32527,-0 L73.518745,-0 L73.71221,-0 L73.905685,-0 L74.09915,-0 L74.292625,-0 L74.48609,-0 L74.679565,-0 L74.87303,-0 L75.066505,-0 L75.25998,-0 L75.453445,-0 L75.64692,-0 L75.840385,-0 L76.03386,-0 L76.227325,-0 L76.4208,-0 L76.614265,-0 L76.80774,-0 L77.001205,-0 L77.19468,-0 L77.38815,-0 L77.58162,-0 L77.77509,-0 L77.96856,-0 L78.16203,-0 L78.3555,-0 L78.54897,-0 L78.74244,-0 L78.93591,-0 L79.12939,-0 L79.32285,-0 L79.51633,-0 L79.70979,-0 L79.90327,-0 L80.09673,-0 L80.29021,-0 L80.48367,-0 L80.67715,-0 L80.87061,-0 L81.06409,-0 L81.25756,-0 L81.45103,-0 L81.6445,-0 L81.83797,-0 L82.03144,-0 L82.22491,-0 L82.41838,-0 L82.61185,-0 L82.80532,-0 L82.998795,-0 L83.19226,-0 L83.385735,-0 L83.5792,-0 L83.772675,-0 L83.96614,-0 L84.159615,-0 L84.35308,-0 L84.546555,-0 L84.74002,-0 L84.933495,-0 L85.12697,-0 L85.320435,-0 L85.51391,-0 L85.707375,-0 L85.90085,-0 L86.094315,-0 L86.28779,-0 L86.481255,-0 L86.67473,-0 L86.868195,-0 L87.06167,-0 L87.25514,-0 L87.44861,-0 L87.64208,-0 L87.83555,-0 L88.02902,-0 L88.22249,-0 L88.41596,-0 L88.60943,-0 L88.8029,-0 L88.996376,-0 L89.18984,-0 L89.383316,-0 L89.57678,-0 L89.770256,-0 L89.96372,-0 L90.157196,-0 L90.35066,-0 L90.544136,-0 L90.7376,-0 L90.931076,-0 L91.12455,-0 L91.318016,-0 L91.51149,-0 L91.704956,-0 L91.89843,-0 L92.091896,-0 L92.28537,-0 L92.478836,-0 L92.67231,-0 L92.86578,-0 L93.05925,-0 L93.25272,-0 L93.44619,-0 L93.63966,-0 L93.83313,-0 L94.0266,-0 L94.22007,-0 L94.41354,-0 L94.60701,-0 L94.80048,-0 L94.99396,-0 L95.18742,-0 L95.3809,-0 L95.57436,-0 L95.76784,-0 L95.9613,-0 L96.15478,-0 L96.34824,-0 L96.54172,-0 L96.73518,-0 L96.92866,-0 L97.12213,-0 L97.3156,-0 L97.50907,-0 L97.70254,-0 L97.89601,-0 L98.08948,-0 L98.28295,-0 L98.47642,-0 L98.66989,-0 L98.863365,-0 L99.05683,-0 L99.250305,-0 L99.44377,-0 L99.637245,-0 L99.83071,-0 L100.024185,-0 L100.21765,-0 L100.411125,-0 L100.60459,-0 L100.798065,-0 L100.99154,-0 L101.185005,-0 L101.37848,-0 L101.571945,-0 L101.76542,-0 L101.958885,-0 L102.15236,-0 L102.345825,-0 L102.5393,-0 L102.73277,-0 L102.92624,-0 L103.11971,-0 L103.31318,-0 L103.50665,-0 L103.70012,-0 L103.89359,-0 L104.08706,-0 L104.28053,-0 L104.474,-0 L104.66747,-0 L104.86095,-0 L105.05441,-0 L105.24789,-0 L105.44135,-0 L105.63483,-0 L105.82829,-0 L106.02177,-0 L106.21523,-0 L106.40871,-0 L106.60217,-0 L106.79565,-0 L106.98912,-0 L107.18259,-0 L107.37606,-0 L107.56953,-0 L107.763,-0 L107.95647,-0 L108.14994,-0 L108.34341,-0 L108.53688,-0 L108.730354,-0 L108.92382,-0 L109.117294,-0 L109.31076,-0 L109.504234,-0 L109.6977,-0 L109.891174,-0 L110.08464,-0 L110.278114,-0 L110.47158,-0 L110.665054,-0 L110.85853,-0 L111.051994,-0 L111.24547,-0 L111.438934,-0 L111.63241,-0 L111.825874,-0 L112.01935,-0 L112.212814,-0 L112.40629,-0 L112.59976,-0 L112.79323,-0 L112.9867,-0 L113.18017,-0 L113.37364,-0 L113.56711,-0 L113.76058,-0 L113.95405,-0 L114.14752,-0 L114.34099,-0 L114.53446,-0 L114.727936,-0 L114.9214,-0 L115.114876,-0 L115.30834,-0 L115.501816,-0 L115.69528,-0 L115.888756,-0 L116.08222,-0 L116.275696,-0 L116.46916,-0 L116.662636,-0 L116.85611,-0 L117.049576,-0 L117.24305,-0 L117.436516,-0 L117.62999,-0 L117.823456,-0 L118.01693,-0 L118.210396,-0 L118.40387,-0 L118.59734,-0 L118.79081,-0 L118.98428,-0 L119.17775,-0 L119.37122,-0 L119.56469,-0 L119.75816,-0 L119.95163,-0 L120.1451,-0 L120.33857,-0 L120.53204,-0 L120.72552,-0 L120.91898,-0 L121.11246,-0 L121.30592,-0 L121.4994,-0 L121.69286,-0 L121.88634,-0 L122.0798,-0 L122.27328,-0 L122.46674,-0 L122.66022,-0 L122.85369,-0 L123.04716,-0 L123.24063,-0 L123.4341,-0 L123.62757,-0 L123.82104,-0 L124.01451,-0 L124.20798,-0 L124.40145,-0 L124.594925,-0 L124.78839,-0 L124.981865,-0 L125.17533,-0 L125.368805,-0 L125.56227,-0 L125.755745,-0 L125.94921,-0 L126.142685,-0 L126.33615,-0 L126.529625,-0 L126.7231,-0 L126.916565,-0 L127.11004,-0 L127.303505,-0 L127.49698,-0 L127.690445,-0 L127.88392,-0 L128.0774,-0 L128.27086,-0 L128.46432,-0 L128.6578,-0 L128.85127,-0 L129.04474,-0 L129.2382,-0 L129.43169,-0 L129.62515,-0 L129.81862,-0 L130.01208,-0 L130.20557,-0 L130.39903,-0 L130.5925,-0 L130.78598,-0 L130.97945,-0 L131.17291,-0 L131.36638,-0 L131.55986,-0 L131.75333,-0 L131.9468,-0 L132.14026,-0 L132.33374,-0 L132.5272,-0 L132.72067,-0 L132.91415,-0 L133.10762,-0 L133.30109,-0 L133.49455,-0 L133.68803,-0 L133.8815,-0 L134.07497,-0 L134.26843,-0 L134.46191,-0 L134.65538,-0 L134.84885,-0 L135.04233,-0 L135.2358,-0 L135.42926,-0 L135.62273,-0 L135.81621,-0 L136.00967,-0 L136.20314,-0 L136.39662,-0 L136.59009,-0 L136.78355,-0 L136.97702,-0 L137.1705,-0 L137.36397,-0 L137.55743,-0 L137.7509,-0 L137.94438,-0 L138.13785,-0 L138.33131,-0 L138.5248,-0 L138.71826,-0 L138.91173,-0 L139.1052,-0 L139.29868,-0 L139.49214,-0 L139.68561,-0 L139.87907,-0 L140.07256,-0 L140.26602,-0 L140.45949,-0 L140.65297,-0 L140.84644,-0 L141.0399,-0 L141.23337,-0 L141.42685,-0 L141.62032,-0 L141.81378,-0 L142.00725,-0 L142.20073,-0 L142.3942,-0 L142.58766,-0 L142.78114,-0 L142.97461,-0 L143.16808,-0 L143.36154,-0 L143.55502,-0 L143.74849,-0 L143.94196,-0 L144.13542,-0 L144.3289,-0 L144.52237,-0 L144.71584,-0 L144.90932,-0 L145.10278,-0 L145.29625,-0 L145.48972,-0 L145.6832,-0 L145.87666,-0 L146.07013,-0 L146.26361,-0 L146.45708,-0 L146.65054,-0 L146.84401,-0 L147.03749,-0 L147.23096,-0 L147.42442,-0 L147.61789,-0 L147.81137,-0 L148.00484,-0 L148.1983,-0 L148.39178,-0 L148.58525,-0 L148.77872,-0 L148.97218,-0 L149.16566,-0 L149.35913,-0 L149.5526,-0 L149.74606,-0 L149.93954,-0 L150.13301,-0 L150.32648,-0 L150.51996,-0 L150.71342,-0 L150.90689,-0 L151.10036,-0 L151.29384,-0 L151.4873,-0 L151.68077,-0 L151.87424,-0 L152.06772,-0 L152.26118,-0 L152.45465,-0 L152.64813,-0 L152.8416,-0 L153.03506,-0 L153.22853,-0 L153.42201,-0 L153.61548,-0 L153.80894,-0 L154.00241,-0 L154.19589,-0 L154.38936,-0 L154.58282,-0 L154.7763,-0 L154.96977,-0 L155.16324,-0 L155.3567,-0 L155.55019,-0 L155.74365,-0 L155.93712,-0 L156.1306,-0 L156.32407,-0 L156.51753,-0 L156.711,-0 L156.90448,-0 L157.09795,-0 L157.29141,-0 L157.48488,-0 L157.67836,-0 L157.87183,-0 L158.06529,-0 L158.25877,-0 L158.45224,-0 L158.6457,-0 L158.83917,-0 L159.03265,-0 L159.22612,-0 L159.41959,-0 L159.61305,-0 L159.80653,-0 L160,-0 L160.19347,-0 L160.38695,-0 L160.58041,-0 L160.77388,-0 L160.96735,-0 L161.16083,-0 L161.3543,-0 L161.54776,-0 L161.74123,-0 L161.93471,-0 L162.12817,-0 L162.32164,-0 L162.51512,-0 L162.70859,-0 L162.90205,-0 L163.09552,-0 L163.289,-0 L163.48247,-0 L163.67593,-0 L163.8694,-0 L164.06288,-0 L164.25635,-0 L164.44981,-0 L164.6433,-0 L164.83676,-0 L165.03023,-0 L165.2237,-0 L165.41718,-0 L165.61064,-0 L165.80411,-0 L165.99759,-0 L166.19106,-0 L166.38452,-0 L166.57799,-0 L166.77147,-0 L166.96494,-0 L167.1584,-0 L167.35187,-0 L167.54535,-0 L167.73882,-0 L167.93228,-0 L168.12576,-0 L168.31923,-0 L168.5127,-0 L168.70616,-0 L168.89964,-0 L169.09311,-0 L169.28658,-0 L169.48004,-0 L169.67352,-0 L169.86699,-0 L170.06046,-0 L170.25394,-0 L170.4474,-0 L170.64087,-0 L170.83434,-0 L171.02782,-0 L171.22128,-0 L171.41475,-0 L171.60822,-0 L171.8017,-0 L171.99516,-0 L172.18863,-0 L172.38211,-0 L172.57558,-0 L172.76904,-0 L172.96251,-0 L173.15599,-0 L173.34946,-0 L173.54292,-0 L173.73639,-0 L173.92987,-0 L174.12334,-0 L174.3168,-0 L174.51028,-0 L174.70375,-0 L174.89722,-0 L175.09068,-0 L175.28416,-0 L175.47763,-0 L175.6711,-0 L175.86458,-0 L176.05804,-0 L176.25151,-0 L176.44498,-0 L176.63846,-0 L176.83192,-0 L177.02539,-0 L177.21886,-0 L177.41234,-0 L177.6058,-0 L177.79927,-0 L177.99275,-0 L178.18622,-0 L178.37968,-0 L178.57315,-0 L178.76663,-0 L178.9601,-0 L179.15356,-0 L179.34703,-0 L179.54051,-0 L179.73398,-0 L179.92744,-0 L180.12093,-0 L180.31439,-0 L180.50786,-0 L180.70132,-0 L180.8948,-0 L181.08827,-0 L181.28174,-0 L181.4752,-0 L181.66869,-0 L181.86215,-0 L182.05562,-0 L182.2491,-0 L182.44257,-0 L182.63603,-0 L182.8295,-0 L183.02298,-0 L183.21645,-0 L183.40991,-0 L183.60338,-0 L183.79686,-0 L183.99033,-0 L184.18379,-0 L184.37727,-0 L184.57074,-0 L184.7642,-0 L184.95767,-0 L185.15115,-0 L185.34462,-0 L185.53809,-0 L185.73157,-0 L185.92503,-0 L186.1185,-0 L186.31197,-0 L186.50545,-0 L186.69891,-0 L186.89238,-0 L187.08585,-0 L187.27933,-0 L187.4728,-0 L187.66626,-0 L187.85974,-0 L188.0532,-0 L188.24667,-0 L188.44014,-0 L188.63362,-0 L188.82709,-0 L189.02055,-0 L189.21402,-0 L189.4075,-0 L189.60097,-0 L189.79443,-0 L189.98792,-0 L190.18138,-0 L190.37485,-0 L190.56831,-0 L190.7618,-0 L190.95526,-0 L191.14873,-0 L191.3422,-0 L191.53568,-0 L191.72914,-0 L191.9226,-0 L192.11609,-0 L192.30956,-0 L192.50302,-0 L192.69649,-0 L192.88997,-0 L193.08344,-0 L193.2769,-0 L193.47037,-0 L193.66385,-0 L193.85732,-0 L194.05078,-0 L194.24426,-0 L194.43773,-0 L194.6312,-0 L194.82466,-0 L195.01814,-0 L195.21161,-0 L195.40508,-0 L195.59856,-0 L195.79202,-0 L195.98549,-0 L196.17896,-0 L196.37244,-0 L196.5659,-0 L196.75937,-0 L196.95284,-0 L197.14632,-0 L197.33978,-0 L197.53325,-0 L197.72673,-0 L197.9202,-0 L198.11366,-0 L198.30713,-0 L198.50061,-0 L198.69408,-0 L198.88754,-0 L199.08101,-0 L199.27449,-0 L199.46796,-0 L199.66142,-0 L199.8549,-0 L200.04837,-0 L200.24184,-0 L200.4353,-0 L200.62878,-0 L200.82225,-0 L201.01572,-0 L201.20918,-0 L201.40266,-0 L201.59613,-0 L201.7896,-0 L201.98308,-0 L202.17654,-0 L202.37001,-0 L202.56348,-0 L202.75696,-0 L202.95042,-0 L203.14389,-0 L203.33736,-0 L203.53084,-0 L203.7243,-0 L203.91777,-0 L204.11125,-0 L204.30472,-0 L204.49818,-0 L204.69165,-0 L204.88513,-0 L205.0786,-0 L205.27206,-0 L205.46555,-0 L205.65901,-0 L205.85248,-0 L206.04594,-0 L206.23943,-0 L206.43289,-0 L206.62636,-0 L206.81982,-0 L207.0133,-0 L207.20677,-0 L207.40024,-0 L207.59372,-0 L207.78719,-0 L207.98065,-0 L208.17412,-0 L208.3676,-0 L208.56107,-0 L208.75453,-0 L208.948,-0 L209.14148,-0 L209.33495,-0 L209.52841,-0 L209.7219,-0 L209.91536,-0 L210.10883,-0 L210.30229,-0 L210.49577,-0 L210.68924,-0 L210.8827,-0 L211.07617,-0 L211.26965,-0 L211.46312,-0 L211.65659,-0 L211.85007,-0 L212.04353,-0 L212.237,-0 L212.43047,-0 L212.62395,-0 L212.81741,-0 L213.01088,-0 L213.20435,-0 L213.39783,-0 L213.5913,-0 L213.78476,-0 L213.97824,-0 L214.1717,-0 L214.36517,-0 L214.55864,-0 L214.75212,-0 L214.94559,-0 L215.13905,-0 L215.33253,-0 L215.526,-0 L215.71947,-0 L215.91293,-0 L216.10641,-0 L216.29988,-0 L216.49335,-0 L216.68681,-0 L216.8803,-0 L217.07376,-0 L217.26723,-0 L217.46071,-0 L217.65417,-0 L217.84764,-0 L218.0411,-0 L218.23459,-0 L218.42805,-0 L218.62152,-0 L218.81499,-0 L219.00847,-0 L219.20193,-0 L219.3954,-0 L219.58888,-0 L219.78235,-0 L219.97581,-0 L220.16928,-0 L220.36276,-0 L220.55623,-0 L220.7497,-0 L220.94316,-0 L221.13664,-0 L221.33011,-0 L221.52357,-0 L221.71706,-0 L221.91052,-0 L222.10399,-0 L222.29745,-0 L222.49094,-0 L222.6844,-0 L222.87787,-0 L223.07133,-0 L223.26482,-0 L223.45828,-0 L223.65175,-0 L223.84523,-0 L224.0387,-0 L224.23216,-0 L224.42563,-0 L224.61911,-0 L224.81258,-0 L225.00604,-0 L225.19952,-0 L225.39299,-0 L225.58646,-0 L225.77992,-0 L225.9734,-0 L226.16687,-0 L226.36034,-0 L226.5538,-0 L226.74728,-0 L226.94075,-0 L227.13422,-0 L227.3277,-0 L227.52116,-0 L227.71463,-0 L227.9081,-0 L228.10158,-0 L228.29504,-0 L228.48851,-0 L228.68198,-0 L228.87546,-0 L229.06892,-0 L229.26239,-0 L229.45587,-0 L229.64934,-0 L229.8428,-0 L230.03627,-0 L230.22975,-0 L230.42322,-0 L230.61668,-0 L230.81015,-0 L231.00363,-0 L231.1971,-0 L231.39056,-0 L231.58405,-0 L231.77751,-0 L231.97098,-0 L232.16444,-0 L232.35793,-0 L232.55139,-0 L232.74486,-0 L232.93832,-0 L233.1318,-0 L233.32527,-0 L233.51874,-0 L233.71222,-0 L233.90569,-0 L234.09915,-0 L234.29262,-0 L234.4861,-0 L234.67957,-0 L234.87303,-0 L235.06651,-0 L235.25998,-0 L235.45345,-0 L235.64691,-0 L235.8404,-0 L236.03386,-0 L236.22733,-0 L236.42079,-0 L236.61427,-0 L236.80774,-0 L237.0012,-0 L237.19469,-0 L237.38815,-0 L237.58162,-0 L237.77509,-0 L237.96857,-0 L238.16203,-0 L238.3555,-0 L238.54897,-0 L238.74245,-0 L238.93591,-0 L239.12938,-0 L239.32286,-0 L239.51633,-0 L239.7098,-0 L239.90326,-0 L240.09674,-0 L240.2902,-0 L240.48367,-0 L240.67714,-0 L240.87062,-0 L241.06409,-0 L241.25755,-0 L241.45103,-0 L241.6445,-0 L241.83797,-0 L242.03143,-0 L242.22491,-0 L242.41838,-0 L242.61185,-0 L242.80531,-0 L242.9988,-0 L243.19226,-0 L243.38573,-0 L243.57921,-0 L243.77267,-0 L243.96614,-0 L244.1596,-0 L244.35309,-0 L244.54655,-0 L244.74002,-0 L244.93349,-0 L245.12697,-0 L245.32043,-0 L245.5139,-0 L245.70738,-0 L245.90085,-0 L246.09431,-0 L246.28778,-0 L246.48126,-0 L246.67473,-0 L246.8682,-0 L247.06168,-0 L247.25514,-0 L247.44861,-0 L247.64207,-0 L247.83556,-0 L248.02902,-0 L248.22249,-0 L248.41595,-0 L248.60944,-0 L248.8029,-0 L248.99637,-0 L249.18985,-0 L249.38332,-0 L249.57678,-0 L249.77025,-0 L249.96373,-0 L250.1572,-0 L250.35066,-0 L250.54413,-0 L250.73761,-0 L250.93108,-0 L251.12454,-0 L251.31802,-0 L251.51149,-0 L251.70496,-0 L251.89842,-0 L252.0919,-0 L252.28537,-0 L252.47884,-0 L252.6723,-0 L252.86578,-0 L253.05925,-0 L253.25272,-0 L253.4462,-0 L253.63966,-0 L253.83313,-0 L254.0266,-0 L254.22008,-0 L254.41354,-0 L254.60701,-0 L254.80048,-0 L254.99396,-0 L255.18742,-0 L255.38089,-0 L255.57437,-0 L255.76784,-0 L255.9613,-0 L256.1548,-0 L256.34824,-0 L256.54172,-0 L256.7352,-0 L256.92865,-0 L257.12213,-0 L257.3156,-0 L257.50906,-0 L257.70255,-0 L257.896,-0 L258.08948,-0 L258.28296,-0 L258.4764,-0 L258.6699,-0 L258.86337,-0 L259.05682,-0 L259.2503,-0 L259.4438,-0 L259.63724,-0 L259.83072,-0 L260.02417,-0 L260.21765,-0 L260.41113,-0 L260.60458,-0 L260.79807,-0 L260.99155,-0 L261.185,-0 L261.37848,-0 L261.57196,-0 L261.7654,-0 L261.9589,-0 L262.15234,-0 L262.34583,-0 L262.5393,-0 L262.73276,-0 L262.92624,-0 L263.11972,-0 L263.31317,-0 L263.50665,-0 L263.70013,-0 L263.8936,-0 L264.08707,-0 L264.28052,-0 L264.474,-0 L264.66748,-0 L264.86093,-0 L265.0544,-0 L265.2479,-0 L265.44135,-0 L265.63483,-0 L265.8283,-0 L266.02176,-0 L266.21524,-0 L266.4087,-0 L266.60217,-0 L266.79565,-0 L266.9891,-0 L267.1826,-0 L267.37607,-0 L267.56952,-0 L267.763,-0 L267.95648,-0 L268.14993,-0 L268.3434,-0 L268.53687,-0 L268.73035,-0 L268.92383,-0 L269.11728,-0 L269.31076,-0 L269.50424,-0 L269.6977,-0 L269.89117,-0 L270.08466,-0 L270.2781,-0 L270.4716,-0 L270.66507,-0 L270.85852,-0 L271.052,-0 L271.24545,-0 L271.43893,-0 L271.63242,-0 L271.82587,-0 L272.01935,-0 L272.21283,-0 L272.40628,-0 L272.59976,-0 L272.79324,-0 L272.9867,-0 L273.18018,-0 L273.37363,-0 L273.5671,-0 L273.7606,-0 L273.95404,-0 L274.14752,-0 L274.341,-0 L274.53445,-0 L274.72794,-0 L274.92142,-0 L275.11487,-0 L275.30835,-0 L275.5018,-0 L275.69528,-0 L275.88876,-0 L276.0822,-0 L276.2757,-0 L276.46918,-0 L276.66263,-0 L276.8561,-0 L277.0496,-0 L277.24304,-0 L277.43652,-0 L277.62997,-0 L277.82346,-0 L278.01694,-0 L278.2104,-0 L278.40387,-0 L278.59735,-0 L278.7908,-0 L278.98428,-0 L279.17776,-0 L279.37122,-0 L279.5647,-0 L279.75815,-0 L279.95163,-0 L280.1451,-0 L280.33856,-0 L280.53204,-0 L280.72552,-0 L280.91898,-0 L281.11246,-0 L281.30594,-0 L281.4994,-0 L281.69287,-0 L281.88632,-0 L282.0798,-0 L282.2733,-0 L282.46674,-0 L282.66022,-0 L282.8537,-0 L283.04715,-0 L283.24063,-0 L283.4341,-0 L283.62756,-0 L283.82104,-0 L284.0145,-0 L284.20798,-0 L284.40146,-0 L284.5949,-0 L284.7884,-0 L284.98187,-0 L285.17532,-0 L285.3688,-0 L285.5623,-0 L285.75574,-0 L285.94922,-0 L286.14267,-0 L286.33615,-0 L286.52963,-0 L286.72308,-0 L286.91656,-0 L287.11005,-0 L287.3035,-0 L287.49698,-0 L287.69046,-0 L287.8839,-0 L288.0774,-0 L288.27084,-0 L288.46432,-0 L288.6578,-0 L288.85126,-0 L289.04474,-0 L289.23822,-0 L289.43167,-0 L289.62515,-0 L289.81863,-0 L290.0121,-0 L290.20557,-0 L290.39905,-0 L290.5925,-0 L290.78598,-0 L290.97943,-0 L291.1729,-0 L291.3664,-0 L291.55984,-0 L291.75333,-0 L291.9468,-0 L292.14026,-0 L292.33374,-0 L292.52722,-0 L292.72067,-0 L292.91415,-0 L293.1076,-0 L293.3011,-0 L293.49457,-0 L293.68802,-0 L293.8815,-0 L294.07498,-0 L294.26843,-0 L294.4619,-0 L294.6554,-0 L294.84885,-0 L295.04233,-0 L295.23578,-0 L295.42926,-0 L295.62274,-0 L295.8162,-0 L296.00967,-0 L296.20316,-0 L296.3966,-0 L296.5901,-0 L296.78357,-0 L296.97702,-0 L297.1705,-0 L297.36395,-0 L297.55743,-0 L297.75092,-0 L297.94437,-0 L298.13785,-0 L298.33133,-0 L298.52478,-0 L298.71826,-0 L298.91174,-0 L299.1052,-0 L299.29868,-0 L299.49213,-0 L299.6856,-0 L299.8791,-0 L300.07254,-0 L300.26602,-0 L300.4595,-0 L300.65295,-0 L300.84644,-0 L301.03992,-0 L301.23337,-0 L301.42685,-0 L301.6203,-0 L301.81378,-0 L302.00726,-0 L302.2007,-0 L302.3942,-0 L302.58768,-0 L302.78113,-0 L302.9746,-0 L303.1681,-0 L303.36154,-0 L303.55502,-0 L303.74847,-0 L303.94196,-0 L304.13544,-0 L304.3289,-0 L304.52237,-0 L304.71585,-0 L304.9093,-0 L305.10278,-0 L305.29626,-0 L305.48972,-0 L305.6832,-0 L305.87665,-0 L306.07013,-0 L306.2636,-0 L306.45706,-0 L306.65054,-0 L306.84402,-0 L307.03748,-0 L307.23096,-0 L307.42444,-0 L307.6179,-0 L307.81137,-0 L308.00482,-0 L308.1983,-0 L308.39178,-0 L308.58524,-0 L308.77872,-0 L308.9722,-0 L309.16565,-0 L309.35913,-0 L309.5526,-0 L309.74606,-0 L309.93954,-0 L310.13303,-0 L310.32648,-0 L310.51996,-0 L310.7134,-0 L310.9069,-0 L311.10037,-0 L311.29382,-0 L311.4873,-0 L311.6808,-0 L311.87424,-0 L312.06772,-0 L312.2612,-0 L312.45465,-0 L312.64813,-0 L312.84158,-0 L313.03506,-0 L313.22855,-0 L313.422,-0 L313.61548,-0 L313.80896,-0 L314.0024,-0 L314.1959,-0 L314.38937,-0 L314.58282,-0 L314.7763,-0 L314.96976,-0 L315.16324,-0 L315.35672,-0 L315.55017,-0 L315.74365,-0 L315.93713,-0 L316.13058,-0 L316.32407,-0 L316.51755,-0 L316.711,-0 L316.90448,-0 L317.09793,-0 L317.2914,-0 L317.4849,-0 L317.67834,-0 L317.87183,-0 L318.0653,-0 L318.25876,-0 L318.45224,-0 L318.64572,-0 L318.83917,-0 L319.03265,-0 L319.2261,-0 L319.4196,-0 L319.61307,-0 L319.80652,-0 L320,-0 L320.19348,-0 L320.38693,-0 L320.5804,-0 L320.7739,-0 L320.96735,-0 L321.16083,-0 L321.35428,-0 L321.54776,-0 L321.74124,-0 L321.9347,-0 L322.12817,-0 L322.32166,-0 L322.5151,-0 L322.7086,-0 L322.90207,-0 L323.09552,-0 L323.289,-0 L323.48245,-0 L323.67593,-0 L323.86942,-0 L324.06287,-0 L324.25635,-0 L324.44983,-0 L324.64328,-0 L324.83676,-0 L325.03024,-0 L325.2237,-0 L325.41718,-0 L325.61063,-0 L325.8041,-0 L325.9976,-0 L326.19104,-0 L326.38452,-0 L326.578,-0 L326.77145,-0 L326.96494,-0 L327.15842,-0 L327.35187,-0 L327.54535,-0 L327.7388,-0 L327.93228,-0 L328.12576,-0 L328.3192,-0 L328.5127,-0 L328.70618,-0 L328.89963,-0 L329.0931,-0 L329.2866,-0 L329.48004,-0 L329.67352,-0 L329.86697,-0 L330.06046,-0 L330.25394,-0 L330.4474,-0 L330.64087,-0 L330.83435,-0 L331.0278,-0 L331.22128,-0 L331.41476,-0 L331.60822,-0 L331.8017,-0 L331.99518,-0 L332.18863,-0 L332.3821,-0 L332.57556,-0 L332.76904,-0 L332.96252,-0 L333.15598,-0 L333.34946,-0 L333.54294,-0 L333.7364,-0 L333.92987,-0 L334.12335,-0 L334.3168,-0 L334.51028,-0 L334.70374,-0 L334.89722,-0 L335.0907,-0 L335.28415,-0 L335.47763,-0 L335.6711,-0 L335.86456,-0 L336.05804,-0 L336.25153,-0 L336.44498,-0 L336.63846,-0 L336.8319,-0 L337.0254,-0 L337.21887,-0 L337.41232,-0 L337.6058,-0 L337.7993,-0 L337.99274,-0 L338.18622,-0 L338.3797,-0 L338.57315,-0 L338.76663,-0 L338.96008,-0 L339.15356,-0 L339.34705,-0 L339.5405,-0 L339.73398,-0 L339.92746,-0 L340.1209,-0 L340.3144,-0 L340.50787,-0 L340.70132,-0 L340.8948,-0 L341.08826,-0 L341.28174,-0 L341.47522,-0 L341.66867,-0 L341.86215,-0 L342.05563,-0 L342.24908,-0 L342.44257,-0 L342.63605,-0 L342.8295,-0 L343.02298,-0 L343.21643,-0 L343.4099,-0 L343.6034,-0 L343.79684,-0 L343.99033,-0 L344.1838,-0 L344.37726,-0 L344.57074,-0 L344.76422,-0 L344.95767,-0 L345.15115,-0 L345.3446,-0 L345.5381,-0 L345.73157,-0 L345.92502,-0 L346.1185,-0 L346.31198,-0 L346.50543,-0 L346.6989,-0 L346.8924,-0 L347.08585,-0 L347.27933,-0 L347.47278,-0 L347.66626,-0 L347.85974,-0 L348.0532,-0 L348.24667,-0 L348.44016,-0 L348.6336,-0 L348.8271,-0 L349.02057,-0 L349.21402,-0 L349.4075,-0 L349.60095,-0 L349.79443,-0 L349.9879,-0 L350.18137,-0 L350.37485,-0 L350.56833,-0 L350.76178,-0 L350.95526,-0 L351.14874,-0 L351.3422,-0 L351.53568,-0 L351.72916,-0 L351.9226,-0 L352.1161,-0 L352.30954,-0 L352.50302,-0 L352.6965,-0 L352.88995,-0 L353.08344,-0 L353.27692,-0 L353.47037,-0 L353.66385,-0 L353.85733,-0 L354.05078,-0 L354.24426,-0 L354.4377,-0 L354.6312,-0 L354.82468,-0 L355.01813,-0 L355.2116,-0 L355.4051,-0 L355.59854,-0 L355.79202,-0 L355.9855,-0 L356.17896,-0 L356.37244,-0 L356.5659,-0 L356.75937,-0 L356.95285,-0 L357.1463,-0 L357.33978,-0 L357.53326,-0 L357.7267,-0 L357.9202,-0 L358.11368,-0 L358.30713,-0 L358.5006,-0 L358.69406,-0 L358.88754,-0 L359.08102,-0 L359.27448,-0 L359.46796,-0 L359.66144,-0 L359.8549,-0 L360.04837,-0 L360.24185,-0 L360.4353,-0 L360.62878,-0 L360.82224,-0 L361.01572,-0 L361.2092,-0 L361.40265,-0 L361.59613,-0 L361.7896,-0 L361.98306,-0 L362.17654,-0 L362.37003,-0 L362.56348,-0 L362.75696,-0 L362.9504,-0 L363.1439,-0 L363.33737,-0 L363.53082,-0 L363.7243,-0 L363.9178,-0 L364.11124,-0 L364.30472,-0 L364.4982,-0 L364.69165,-0 L364.88513,-0 L365.07858,-0 L365.27206,-0 L365.46555,-0 L365.659,-0 L365.85248,-0 L366.04596,-0 L366.2394,-0 L366.4329,-0 L366.62637,-0 L366.81982,-0 L367.0133,-0 L367.20676,-0 L367.40024,-0 L367.59372,-0 L367.78717,-0 L367.98065,-0 L368.17413,-0 L368.36758,-0 L368.56107,-0 L368.75455,-0 L368.948,-0 L369.14148,-0 L369.33493,-0 L369.5284,-0 L369.7219,-0 L369.91534,-0 L370.10883,-0 L370.3023,-0 L370.49576,-0 L370.68924,-0 L370.88272,-0 L371.07617,-0 L371.26965,-0 L371.46313,-0 L371.6566,-0 L371.85007,-0 L372.04352,-0 L372.237,-0 L372.43048,-0 L372.62393,-0 L372.8174,-0 L373.0109,-0 L373.20435,-0 L373.39783,-0 L373.5913,-0 L373.78476,-0 L373.97824,-0 L374.1717,-0 L374.36517,-0 L374.55865,-0 L374.7521,-0 L374.9456,-0 L375.13907,-0 L375.33252,-0 L375.526,-0 L375.71948,-0 L375.91293,-0 L376.1064,-0 L376.29987,-0 L376.49335,-0 L376.68683,-0 L376.88028,-0 L377.07376,-0 L377.26724,-0 L377.4607,-0 L377.65417,-0 L377.84766,-0 L378.0411,-0 L378.2346,-0 L378.42804,-0 L378.62152,-0 L378.815,-0 L379.00845,-0 L379.20193,-0 L379.39542,-0 L379.58887,-0 L379.78235,-0 L379.97583,-0 L380.16928,-0 L380.36276,-0 L380.5562,-0 L380.7497,-0 L380.94318,-0 L381.13663,-0 L381.3301,-0 L381.5236,-0 L381.71704,-0 L381.91052,-0 L382.104,-0 L382.29745,-0 L382.49094,-0 L382.6844,-0 L382.87787,-0 L383.07135,-0 L383.2648,-0 L383.45828,-0 L383.65176,-0 L383.8452,-0 L384.0387,-0 L384.23218,-0 L384.42563,-0 L384.6191,-0 L384.81256,-0 L385.00604,-0 L385.19952,-0 L385.39297,-0 L385.58646,-0 L385.77994,-0 L385.9734,-0 L386.16687,-0 L386.36035,-0 L386.5538,-0 L386.74728,-0 L386.94073,-0 L387.13422,-0 L387.3277,-0 L387.52115,-0 L387.71463,-0 L387.9081,-0 L388.10156,-0 L388.29504,-0 L388.48853,-0 L388.68198,-0 L388.87546,-0 L389.0689,-0 L389.2624,-0 L389.45587,-0 L389.64932,-0 L389.8428,-0 L390.0363,-0 L390.22974,-0 L390.42322,-0 L390.6167,-0 L390.81015,-0 L391.00363,-0 L391.1971,-0 L391.39056,-0 L391.58405,-0 L391.7775,-0 L391.97098,-0 L392.16446,-0 L392.3579,-0 L392.5514,-0 L392.74487,-0 L392.93832,-0 L393.1318,-0 L393.3253,-0 L393.51874,-0 L393.71222,-0 L393.90567,-0 L394.09915,-0 L394.29263,-0 L394.48608,-0 L394.67957,-0 L394.87305,-0 L395.0665,-0 L395.25998,-0 L395.45346,-0 L395.6469,-0 L395.8404,-0 L396.03384,-0 L396.22733,-0 L396.4208,-0 L396.61426,-0 L396.80774,-0 L397.00122,-0 L397.19467,-0 L397.38815,-0 L397.58163,-0 L397.7751,-0 L397.96857,-0 L398.16202,-0 L398.3555,-0 L398.54898,-0 L398.74243,-0 L398.9359,-0 L399.1294,-0 L399.32285,-0 L399.51633,-0 L399.7098,-0 L399.90326,-0 L400.09674,-0 L400.2902,-0 L400.48367,-0 L400.67715,-0 L400.8706,-0 L401.0641,-0 L401.25757,-0 L401.45102,-0 L401.6445,-0 L401.83798,-0 L402.03143,-0 L402.2249,-0 L402.41837,-0 L402.61185,-0 L402.80533,-0 L402.99878,-0 L403.19226,-0 L403.38574,-0 L403.5792,-0 L403.77267,-0 L403.96616,-0 L404.1596,-0 L404.3531,-0 L404.54654,-0 L404.74002,-0 L404.9335,-0 L405.12695,-0 L405.32043,-0 L405.51392,-0 L405.70737,-0 L405.90085,-0 L406.09433,-0 L406.28778,-0 L406.48126,-0 L406.6747,-0 L406.8682,-0 L407.06168,-0 L407.25513,-0 L407.4486,-0 L407.6421,-0 L407.83554,-0 L408.02902,-0 L408.2225,-0 L408.41595,-0 L408.60944,-0 L408.8029,-0 L408.99637,-0 L409.18985,-0 L409.3833,-0 L409.57678,-0 L409.77026,-0 L409.9637,-0 L410.1572,-0 L410.35068,-0 L410.54413,-0 L410.7376,-0 L410.9311,-0 L411.12454,-0 L411.31802,-0 L411.51147,-0 L411.70496,-0 L411.89844,-0 L412.0919,-0 L412.28537,-0 L412.47885,-0 L412.6723,-0 L412.86578,-0 L413.05927,-0 L413.25272,-0 L413.4462,-0 L413.63965,-0 L413.83313,-0 L414.0266,-0 L414.22006,-0 L414.41354,-0 L414.60703,-0 L414.80048,-0 L414.99396,-0 L415.18744,-0 L415.3809,-0 L415.57437,-0 L415.76782,-0 L415.9613,-0 L416.1548,-0 L416.34824,-0 L416.54172,-0 L416.7352,-0 L416.92865,-0 L417.12213,-0 L417.3156,-0 L417.50906,-0 L417.70255,-0 L417.896,-0 L418.08948,-0 L418.28296,-0 L418.4764,-0 L418.6699,-0 L418.86337,-0 L419.05682,-0 L419.2503,-0 L419.4438,-0 L419.63724,-0 L419.83072,-0 L420.02417,-0 L420.21765,-0 L420.41113,-0 L420.60458,-0 L420.79807,-0 L420.99155,-0 L421.185,-0 L421.37848,-0 L421.57196,-0 L421.7654,-0 L421.9589,-0 L422.15234,-0 L422.34583,-0 L422.5393,-0 L422.73276,-0 L422.92624,-0 L423.11972,-0 L423.31317,-0 L423.50665,-0 L423.70013,-0 L423.8936,-0 L424.08707,-0 L424.28052,-0 L424.474,-0 L424.66748,-0 L424.86093,-0 L425.0544,-0 L425.2479,-0 L425.44135,-0 L425.63483,-0 L425.8283,-0 L426.02176,-0 L426.21524,-0 L426.4087,-0 L426.60217,-0 L426.79565,-0 L426.9891,-0 L427.1826,-0 L427.37607,-0 L427.56952,-0 L427.763,-0 L427.95648,-0 L428.14993,-0 L428.3434,-0 L428.53687,-0 L428.73035,-0 L428.92383,-0 L429.11728,-0 L429.31076,-0 L429.50424,-0 L429.6977,-0 L429.89117,-0 L430.08466,-0 L430.2781,-0 L430.4716,-0 L430.66507,-0 L430.85852,-0 L431.052,-0 L431.24545,-0 L431.43893,-0 L431.63242,-0 L431.82587,-0 L432.01935,-0 L432.21283,-0 L432.40628,-0 L432.59976,-0 L432.79324,-0 L432.9867,-0 L433.18018,-0 L433.37363,-0 L433.5671,-0 L433.7606,-0 L433.95404,-0 L434.14752,-0 L434.341,-0 L434.53445,-0 L434.72794,-0 L434.92142,-0 L435.11487,-0 L435.30835,-0 L435.5018,-0 L435.69528,-0 L435.88876,-0 L436.0822,-0 L436.2757,-0 L436.46918,-0 L436.66263,-0 L436.8561,-0 L437.0496,-0 L437.24304,-0 L437.43652,-0 L437.62997,-0 L437.82346,-0 L438.01694,-0 L438.2104,-0 L438.40387,-0 L438.59735,-0 L438.7908,-0 L438.98428,-0 L439.17776,-0 L439.37122,-0 L439.5647,-0 L439.75815,-0 L439.95163,-0 L440.1451,-0 L440.33856,-0 L440.53204,-0 L440.72552,-0 L440.91898,-0 L441.11246,-0 L441.30594,-0 L441.4994,-0 L441.69287,-0 L441.88632,-0 L442.0798,-0 L442.2733,-0 L442.46674,-0 L442.66022,-0 L442.8537,-0 L443.04715,-0 L443.24063,-0 L443.4341,-0 L443.62756,-0 L443.82104,-0 L444.0145,-0 L444.20798,-0 L444.40146,-0 L444.5949,-0 L444.7884,-0 L444.98187,-0 L445.17532,-0 L445.3688,-0 L445.5623,-0 L445.75574,-0 L445.94922,-0 L446.14267,-0 L446.33615,-0 L446.52963,-0 L446.72308,-0 L446.91656,-0 L447.11005,-0 L447.3035,-0 L447.49698,-0 L447.69046,-0 L447.8839,-0 L448.0774,-0 L448.27084,-0 L448.46432,-0 L448.6578,-0 L448.85126,-0 L449.04474,-0 L449.23822,-0 L449.43167,-0 L449.62515,-0 L449.81863,-0 L450.0121,-0 L450.20557,-0 L450.39905,-0 L450.5925,-0 L450.78598,-0 L450.97943,-0 L451.1729,-0 L451.3664,-0 L451.55984,-0 L451.75333,-0 L451.9468,-0 L452.14026,-0 L452.33374,-0 L452.52722,-0 L452.72067,-0 L452.91415,-0 L453.1076,-0 L453.3011,-0 L453.49457,-0 L453.68802,-0 L453.8815,-0 L454.07498,-0 L454.26843,-0 L454.4619,-0 L454.6554,-0 L454.84885,-0 L455.04233,-0 L455.23578,-0 L455.42926,-0 L455.62274,-0 L455.8162,-0 L456.00967,-0 L456.20316,-0 L456.3966,-0 L456.5901,-0 L456.78357,-0 L456.97702,-0 L457.1705,-0 L457.36395,-0 L457.55743,-0 L457.75092,-0 L457.94437,-0 L458.13785,-0 L458.33133,-0 L458.52478,-0 L458.71826,-0 L458.91174,-0 L459.1052,-0 L459.29868,-0 L459.49213,-0 L459.6856,-0 L459.8791,-0 L460.07254,-0 L460.26602,-0 L460.4595,-0 L460.65295,-0 L460.84644,-0 L461.03992,-0 L461.23337,-0 L461.42685,-0 L461.6203,-0 L461.81378,-0 L462.00726,-0 L462.2007,-0 L462.3942,-0 L462.58768,-0 L462.78113,-0 L462.9746,-0 L463.1681,-0 L463.36154,-0 L463.55502,-0 L463.74847,-0 L463.94196,-0 L464.13544,-0 L464.3289,-0 L464.52237,-0 L464.71585,-0 L464.9093,-0 L465.10278,-0 L465.29626,-0 L465.48972,-0 L465.6832,-0 L465.87665,-0 L466.07013,-0 L466.2636,-0 L466.45706,-0 L466.65054,-0 L466.84402,-0 L467.03748,-0 L467.23096,-0 L467.42444,-0 L467.6179,-0 L467.81137,-0 L468.00482,-0 L468.1983,-0 L468.39178,-0 L468.58524,-0 L468.77872,-0 L468.9722,-0 L469.16565,-0 L469.35913,-0 L469.5526,-0 L469.74606,-0 L469.93954,-0 L470.13303,-0 L470.32648,-0 L470.51996,-0 L470.7134,-0 L470.9069,-0 L471.10037,-0 L471.29382,-0 L471.4873,-0 L471.6808,-0 L471.87424,-0 L472.06772,-0 L472.2612,-0 L472.45465,-0 L472.64813,-0 L472.84158,-0 L473.03506,-0 L473.22855,-0 L473.422,-0 L473.61548,-0 L473.80896,-0 L474.0024,-0 L474.1959,-0 L474.38937,-0 L474.58282,-0 L474.7763,-0 L474.96976,-0 L475.16324,-0 L475.35672,-0 L475.55017,-0 L475.74365,-0 L475.93713,-0 L476.13058,-0 L476.32407,-0 L476.51755,-0 L476.711,-0 L476.90448,-0 L477.09793,-0 L477.2914,-0 L477.4849,-0 L477.67834,-0 L477.87183,-0 L478.0653,-0 L478.25876,-0 L478.45224,-0 L478.64572,-0 L478.83917,-0 L479.03265,-0 L479.2261,-0 L479.4196,-0 L479.61307,-0 L479.80652,-0 L480,-0" fill="none" stroke="black" stroke-linejoin="round" stroke-width="2"/>
</g>
</g>
<g>
<g>
<line stroke="black" stroke-width="1" x1="0" x2="0" y1="0" y2="10"/>
<line stroke="black" stroke-width="1" x1="96.73518742442563" x2="96.73518742442563" y1="0" y2="10"/>
<line stroke="black" stroke-width="1" x1="193.47037484885126" x2="193.47037484885126" y1="0" y2="10"/>
<line stroke="black" stroke-width="1" x1="290.2055622732769" x2="290.2055622732769" y1="0" y2="10"/>
<line stroke="black" stroke-width="1" x1="386.94074969770253" x2="386.94074969770253" y1="0" y2="10"/>
</g>
<line stroke="black" stroke-width="1" x1="0" x2="480" y1="0" y2="0"/>
<g>
<text font-size="12" text-anchor="middle" x="0" y="20">
0
</text>
<text font-size="12" text-anchor="middle" x="96.73518742442563" y="20">
500
</text>
<text font-size="12" text-anchor="middle" x="193.47037484885126" y="20">
1000
</text>
<text font-size="12" text-anchor="middle" x="290.2055622732769" y="20">
1500
</text>
<text font-size="12" text-anchor="middle" x="386.94074969770253" y="20">
2000
</text>
</g>
<text font-size="12" text-anchor="middle" x="240" y="30">

</text>
</g>
<g>
<g>
<line stroke="black" stroke-width="1" x1="0" x2="-10" y1="0.00000000000025165055224836895" y2="0.00000000000025165055224836895"/>
<line stroke="black" stroke-width="1" x1="0" x2="-10" y1="-94.44444444444424" y2="-94.44444444444424"/>
<line stroke="black" stroke-width="1" x1="0" x2="-10" y1="-188.88888888888874" y2="-188.88888888888874"/>
<line stroke="black" stroke-width="1" x1="0" x2="-10" y1="-283.33333333333326" y2="-283.33333333333326"/>
</g>
<line stroke="black" stroke-width="1" x1="0" x2="0" y1="0" y2="-340"/>
<g>
<text dominant-baseline="middle" font-size="12" text-anchor="end" x="-15" y="0.00000000000025165055224836895">
4
</text>
<text dominant-baseline="middle" font-size="12" text-anchor="end" x="-15" y="-94.44444444444424">
6
</text>
<text dominant-baseline="middle" font-size="12" text-anchor="end" x="-15" y="-188.88888888888874">
8
</text>
<text dominant-baseline="middle" font-size="12" text-anchor="end" x="-15" y="-283.33333333333326">
10
</text>
</g>
<text font-size="12" text-anchor="middle" transform="rotate(-90 -24 -170)" x="-24" y="-182">

</text>
</g>
</g>
</svg>