<svg viewBox="0 0 600 400" xmlns="http://www.w3.org/2000/svg">
<g transform="translate(72, 364)">
<g>
<g>
<path d="M0,-306.9848 L0,-306.9848 L1.1970075,-319.18097 L2.394015,-333.9688 L3.5910225,-305.35358 L4.78803,-294.84506 L5.9850373,-306.98477 L7.182045,-309.01746 L8.379052,-324.82166 L9.57606,-339.0454 L10.773067,-308.6521 L11.970075,-271.13464 L13.167082,-290.7271 L14.36409,-249.92046 L15.561097,-271.63434 L16.758104,-249.25256 L17.955112,-243.08372 L19.15212,-233.72047 L20.349127,-257.05435 L21.546135,-278.05484 L22.743143,-269.00577 L23.94015,-288.81113 L25.137157,-263.44125 L26.334164,-283.80304 L27.531172,-302.12866 L28.72818,-261.45227 L29.925186,-282.01297 L31.122194,-271.29767 L32.319202,-290.87384 L33.51621,-308.49237 L34.71322,-270.9909 L35.910225,-242.32132 L37.10723,-211.43695 L38.30424,-228.10616 L39.501247,-208.80678 L40.698254,-234.63202 L41.895264,-257.87476 L43.09227,-278.7932 L44.289276,-270.94073 L45.486286,-252.43962 L46.683292,-226.89558 L47.8803,-250.91196 L49.077305,-224.25026 L50.274315,-238.3677 L51.47132,-245.99168 L52.668327,-240.14893 L53.865337,-255.21738 L55.062344,-228.12514 L56.25935,-197.38995 L57.45636,-224.35689 L58.653366,-215.59589 L59.850372,-240.74223 L61.047382,-263.37393 L62.24439,-269.76773 L63.441395,-289.4969 L64.638405,-274.22186 L65.83541,-247.77005 L67.03242,-269.69897 L68.22942,-289.435 L69.42644,-257.65057 L70.62344,-231.58545 L71.82045,-197.96338 L73.017456,-219.79123 L74.21446,-244.51804 L75.41147,-266.77216 L76.60848,-269.01483 L77.80549,-267.22192 L79.002495,-232.57707 L80.1995,-217.91232 L81.39651,-208.52534 L82.59351,-234.37874 L83.79053,-257.6468 L84.98753,-250.63853 L86.18454,-221.46332 L87.381546,-246.0229 L88.57855,-231.28401 L89.77556,-211.66684 L90.97257,-185.11835 L92.16958,-175.19948 L93.366585,-158.64989 L94.56359,-151.37785 L95.7606,-147.3739 L96.9576,-152.66336 L98.15461,-135.82652 L99.35162,-121.943794 L100.54863,-109.44935 L101.745636,-94.39304 L102.94264,-96.08756 L104.13965,-83.63787 L105.336655,-71.16272 L106.53367,-61.205513 L107.730675,-66.21878 L108.92768,-69.4603 L110.12469,-62.214195 L111.32169,-51.88141 L112.5187,-55.28623 L113.71571,-50.727966 L114.91272,-55.51856 L116.109726,-63.64139 L117.30673,-56.977184 L118.50374,-68.76545 L119.700745,-59.04797 L120.89776,-74.44045 L122.094765,-79.400665 L123.29177,-73.70139 L124.48878,-59.679024 L125.68578,-59.763214 L126.88279,-58.56855 L128.0798,-52.411625 L129.27681,-39.2478 L130.47382,-52.809006 L131.67082,-49.768898 L132.86783,-49.57367 L134.06483,-43.0458 L135.26184,-53.68634 L136.45885,-53.099365 L137.65585,-48.759792 L138.85287,-61.369797 L140.04988,-67.63707 L141.24689,-88.52281 L142.4439,-88.26349 L143.6409,-90.57096 L144.8379,-77.4025 L146.03491,-76.98477 L147.23192,-70.25666 L148.42892,-80.71698 L149.62593,-85.04954 L150.82294,-87.678406 L152.01994,-86.233086 L153.21696,-74.768845 L154.41397,-70.803185 L155.61098,-62.152367 L156.80798,-55.637062 L158.00499,-44.691555 L159.202,-34.840603 L160.399,-55.194687 L161.59601,-49.37515 L162.79301,-60.653187 L163.99002,-53.017365 L165.18703,-51.226856 L166.38403,-44.53367 L167.58105,-42.3211 L168.77806,-49.22281 L169.97507,-45.270893 L171.17207,-48.06633 L172.36908,-45.500492 L173.56609,-50.81383 L174.76309,-60.677567 L175.9601,-58.12104 L177.1571,-71.06535 L178.35411,-64.92918 L179.55112,-50.5136 L180.74812,-57.866493 L181.94514,-55.591072 L183.14215,-57.35449 L184.33916,-43.696377 L185.53616,-31.404076 L186.73317,-25.422733 L187.93018,-18.769093 L189.12718,-12.780817 L190.32419,-7.3913684 L191.5212,-0 L192.7182,-11.133822 L193.9152,-7.179506 L195.11221,-2.3501885 L196.30922,-10.708127 L197.50624,-5.5259476 L198.70325,-11.025446 L199.90025,-8.352399 L201.09726,-16.110117 L202.29427,-15.469468 L203.49127,-8.540722 L204.68828,-13.738743 L205.88528,-27.309988 L207.08229,-36.983242 L208.2793,-43.148308 L209.4763,-44.88557 L210.67331,-40.096943 L211.87033,-47.221073 L213.06734,-42.198895 L214.26434,-61.817154 L215.46135,-55.33537 L216.65836,-54.583492 L217.85536,-48.825073 L219.05237,-62.698982 L220.24937,-53.58815 L221.44638,-53.010994 L222.64339,-42.3281 L223.8404,-41.606514 L225.0374,-29.5232 L226.23442,-35.163837 L227.43143,-27.536087 L228.62843,-21.941544 L229.82544,-16.906454 L231.02245,-22.538334 L232.21945,-12.361836 L233.41646,-5.743854 L234.61346,-4.869399 L235.81047,-2.8119574 L237.00748,-18.746313 L238.20448,-16.571613 L239.40149,-18.42568 L240.59851,-25.17607 L241.79552,-16.006231 L242.99252,-26.809862 L244.18953,-16.206211 L245.38654,-19.36725 L246.58354,-23.482618 L247.78055,-17.02299 L248.97755,-12.479756 L250.17456,-18.554306 L251.37157,-12.587509 L252.56857,-27.54431 L253.76558,-23.219378 L254.9626,-21.867802 L256.1596,-42.248737 L257.3566,-46.61682 L258.55362,-88.66107 L259.7506,-126.50089 L260.94763,-105.92814 L262.14465,-142.04126 L263.34164,-174.54306 L264.53867,-144.08437 L265.73566,-176.38185 L266.93268,-205.4496 L268.12967,-231.61057 L269.3267,-255.15544 L270.52368,-243.31459 L271.7207,-265.68906 L272.9177,-285.82608 L274.11472,-292.5155 L275.3117,-252.80043 L276.50873,-274.22632 L277.70575,-260.47836 L278.90274,-250.64609 L280.09976,-272.2874 L281.29675,-270.16724 L282.49377,-232.687 L283.69077,-252.31293 L284.8878,-254.73108 L286.08478,-253.09612 L287.2818,-219.86385 L288.4788,-197.5774 L289.6758,-187.68304 L290.8728,-181.31898 L292.06982,-165.42789 L293.26685,-167.64151 L294.46384,-156.92946 L295.66086,-157.45206 L296.85785,-141.40678 L298.05487,-125.6956 L299.25186,-119.17814 L300.44888,-105.68982 L301.64587,-138.01547 L302.8429,-116.29126 L304.0399,-103.09164 L305.2369,-88.671104 L306.43393,-96.01955 L307.63092,-84.84709 L308.82794,-91.3075 L310.02493,-80.60625 L311.22195,-73.51598 L312.41895,-78.56864 L313.61597,-76.76387 L314.81296,-80.221306 L316.00998,-116.36424 L317.20697,-151.43375 L318.404,-182.9963 L319.60098,-177.10092 L320.798,-206.09677 L321.99503,-211.8661 L323.19202,-237.38542 L324.38904,-260.3528 L325.58603,-273.40085 L326.78305,-292.7667 L327.98004,-310.19595 L329.17706,-325.8823 L330.37405,-340 L331.57108,-295.53647 L332.76807,-283.4688 L333.9651,-256.0923 L335.1621,-222.5604 L336.3591,-213.97905 L337.55612,-194.82193 L338.7531,-204.25961 L339.95013,-182.26315 L341.14713,-176.4411 L342.34415,-153.41519 L343.54114,-144.12576 L344.73816,-124.33138 L345.93515,-120.4912 L347.13217,-101.78985 L348.32916,-116.719444 L349.52618,-111.099594 L350.7232,-102.23043 L351.9202,-106.95251 L353.11722,-99.768486 L354.3142,-92.03243 L355.51123,-78.71782 L356.70822,-69.275536 L357.90524,-67.12965 L359.10223,-57.575745 L360.29926,-45.16594 L361.49625,-30.185816 L362.69327,-26.867165 L363.8903,-37.855137 L365.08728,-31.228687 L366.2843,-54.48483 L367.4813,-60.17017 L368.6783,-62.74611 L369.8753,-103.17743 L371.07233,-107.80481 L372.26932,-143.73026 L373.46634,-125.245865 L374.66333,-113.69164 L375.86035,-99.481544 L377.05734,-100.66721 L378.25436,-137.30641 L379.4514,-170.28171 L380.64838,-187.25514 L381.8454,-211.42426 L383.0424,-195.06349 L384.2394,-222.26308 L385.4364,-246.74269 L386.63342,-268.77435 L387.8304,-284.79156 L389.02744,-247.11931 L390.22443,-262.76114 L391.42145,-233.64409 L392.61844,-206.16832 L393.81546,-187.79228 L395.01248,-195.39206 L396.20947,-206.04317 L397.4065,-201.6544 L398.6035,-224.38359 L399.8005,-219.43121 L400.9975,-212.43321 L402.19452,-207.40544 L403.3915,-192.717 L404.58853,-173.14523 L405.78552,-158.0715 L406.98254,-154.66861 L408.17957,-159.22859 L409.37656,-190.01166 L410.57358,-217.71643 L411.77057,-199.45601 L412.9676,-226.21634 L414.16458,-222.35112 L415.3616,-207.43854 L416.5586,-233.40062 L417.7556,-236.43956 L418.9526,-204.87294 L420.14963,-217.11682 L421.34662,-200.1868 L422.54364,-192.57237 L423.74066,-180.63766 L424.93765,-161.00339 L426.13467,-149.68472 L427.33167,-134.41617 L428.5287,-132.10838 L429.72568,-110.97488 L430.9227,-91.95473 L432.1197,-82.45918 L433.3167,-86.61752 L434.5137,-71.303535 L435.71072,-75.30701 L436.90775,-73.8284 L438.10474,-64.87505 L439.30176,-73.33267 L440.49875,-64.4289 L441.69577,-78.01286 L442.89276,-81.3454 L444.08978,-70.36992 L445.28677,-69.385025 L446.4838,-64.68732 L447.6808,-64.270676 L448.8778,-88.03392 L450.0748,-105.609535 L451.27182,-141.75452 L452.46884,-162.8511 L453.66583,-165.3224 L454.86285,-154.84225 L456.05984,-149.22142 L457.25687,-137.81052 L458.45386,-146.59717 L459.65088,-158.31647 L460.84787,-151.07777 L462.0449,-131.85863 L463.24188,-112.02054 L464.4389,-97.97755 L465.63593,-85.33886 L466.83292,-81.58663 L468.02994,-75.66877 L469.22693,-71.61312 L470.42395,-73.04476 L471.62094,-67.98108 L472.81796,-55.801174 L474.01495,-47.380123 L475.21198,-39.801178 L476.40897,-40.60272 L477.606,-46.405838 L478.80298,-38.92432 L480,-72.84479" fill="none" stroke="black" stroke-linejoin="round" stroke-width="2"/>
</g>
</g>
<g>
<g>
<line stroke="black" stroke-width="1" x1="0" x2="0" y1="0" y2="10"/>
<line stroke="black" stroke-width="1" x1="119.70074812967582" x2="119.70074812967582" y1="0" y2="10"/>
<line stroke="black" stroke-width="1" x1="239.40149625935163" x2="239.40149625935163" y1="0" y2="10"/>
<line stroke="black" stroke-width="1" x1="359.1022443890274" x2="359.1022443890274" y1="0" y2="10"/>
<line stroke="black" stroke-width="1" x1="478.80299251870326" x2="478.80299251870326" y1="0" y2="10"/>
</g>
<line stroke="black" stroke-width="1" x1="0" x2="480" y1="0" y2="0"/>
<g>
<text font-size="12" text-anchor="middle" x="0" y="20">
0
</text>
<text font-size="12" text-anchor="middle" x="119.70074812967582" y="20">
100
</text>
<text font-size="12" text-anchor="middle" x="239.40149625935163" y="20">
200
</text>
<text font-size="12" text-anchor="middle" x="359.1022443890274" y="20">
300
</text>
<text font-size="12" text-anchor="middle" x="478.80299251870326" y="20">
400
</text>
</g>
<text font-size="12" text-anchor="middle" x="240" y="30">

</text>
</g>
<g>
<g>
<line stroke="black" stroke-width="1" x1="0" x2="-10" y1="0.000060331433503404054" y2="0.000060331433503404054"/>
<line stroke="black" stroke-width="1" x1="0" x2="-10" y1="-63.52156084435654" y2="-63.52156084435654"/>
<line stroke="black" stroke-width="1" x1="0" x2="-10" y1="-127.04318202014659" y2="-127.04318202014659"/>
<line stroke="black" stroke-width="1" x1="0" x2="-10" y1="-190.56480319593663" y2="-190.56480319593663"/>
<line stroke="black" stroke-width="1" x1="0" x2="-10" y1="-254.08642437172668" y2="-254.08642437172668"/>
<line stroke="black" stroke-width="1" x1="0" x2="-10" y1="-317.6080455475167" y2="-317.6080455475167"/>
</g>
<line stroke="black" stroke-width="1" x1="0" x2="0" y1="0" y2="-340"/>
<g>
<text dominant-baseline="middle" font-size="12" text-anchor="end" x="-15" y="0.000060331433503404054">
14.23619
</text>
<text dominant-baseline="middle" font-size="12" text-anchor="end" x="-15" y="-63.52156084435654">
19.23619
</text>
<text dominant-baseline="middle" font-size="12" text-anchor="end" x="-15" y="-127.04318202014659">
24.23619
</text>
<text dominant-baseline="middle" font-size="12" text-anchor="end" x="-15" y="-190.56480319593663">
29.23619
</text>
<text dominant-baseline="middle" font-size="12" text-anchor="end" x="-15" y="-254.08642437172668">
34.23619
</text>
<text dominant-baseline="middle" font-size="12" text-anchor="end" x="-15" y="-317.6080455475167">
39.23619
</text>
</g>
<text font-size="12" text-anchor="middle" transform="rotate(-90 -96 -170)" x="-96" y="-182">

</text>
</g>
</g>
</svg>