<svg viewBox="0 0 600 400" xmlns="http://www.w3.org/2000/svg">
<g transform="translate(72, 364)">
<g>
<g>
<path d="M0,-79.3236 L0,-79.3236 L0.2247191,-79.3236 L0.4494382,-95.68849 L0.6741573,-94.052 L0.8988764,-223.49832 L1.1235955,-340 L1.3483146,-338.4797 L1.5730337,-304.38165 L1.7977529,-273.6934 L2.022472,-246.07396 L2.247191,-237.58138 L2.47191,-213.57315 L2.6966293,-191.96574 L2.9213483,-172.51909 L3.1460674,-171.38199 L3.3707864,-153.9937 L3.5955057,-138.34424 L3.8202248,-140.62463 L4.044944,-126.31208 L4.269663,-113.43078 L4.494382,-101.837616 L4.719101,-91.40377 L4.94382,-82.013306 L5.1685395,-106.29167 L5.3932586,-95.41242 L5.6179776,-85.62109 L5.8426967,-76.8089 L6.0674157,-101.607704 L6.292135,-91.196846 L6.516854,-81.82708 L6.741573,-73.39428 L6.966292,-65.80476 L7.1910114,-58.974205 L7.4157305,-52.826694 L7.6404495,-47.29394 L7.8651686,-58.67935 L8.089888,-52.56133 L8.314607,-47.05511 L8.539326,-58.464405 L8.764045,-52.367878 L8.988764,-46.881004 L9.213483,-41.942818 L9.438202,-53.863342 L9.662921,-48.22692 L9.88764,-75.88393 L10.11236,-100.77524 L10.337079,-106.81252 L10.561798,-128.61098 L10.786517,-164.59447 L11.011236,-180.61473 L11.235955,-178.66806 L11.460674,-209.64584 L11.685393,-204.79607 L11.910112,-200.43127 L12.134831,-196.50294 L12.35955,-192.96747 L12.58427,-189.78552 L12.808989,-186.92178 L13.033708,-184.3444 L13.258427,-182.02478 L13.483146,-179.9371 L13.707865,-161.69331 L13.932584,-161.63878 L14.157304,-145.22482 L14.382023,-146.81714 L14.606742,-131.88535 L14.831461,-151.17651 L15.05618,-135.80878 L15.280899,-121.977806 L15.505618,-109.52994 L15.730337,-98.32686 L15.955056,-104.60898 L16.179775,-142.99268 L16.404495,-144.80821 L16.629213,-146.4422 L16.853933,-131.5479 L17.078651,-134.50792 L17.303371,-120.80704 L17.52809,-108.47624 L17.75281,-97.37853 L17.977528,-218.30974 L18.202248,-212.59358 L18.426966,-207.44902 L18.651686,-202.81894 L18.876404,-247.74652 L19.101124,-239.08669 L19.325842,-247.65771 L19.550562,-239.00674 L19.77528,-231.22089 L20,-224.21361 L20.22472,-201.54216 L20.449438,-197.50275 L20.674158,-193.86728 L20.898876,-174.23047 L21.123596,-156.55733 L21.348314,-157.0164 L21.573034,-141.06468 L21.797752,-192.1677 L22.022472,-189.06573 L22.24719,-169.90907 L22.47191,-169.03297 L22.696629,-151.8796 L22.921349,-136.44154 L23.146067,-138.9122 L23.370787,-124.77089 L23.595505,-128.40862 L23.820225,-115.31766 L24.044945,-103.535805 L24.269663,-92.93214 L24.494383,-83.38884 L24.7191,-74.799866 L24.94382,-67.06979 L25.16854,-60.11273 L25.39326,-53.851368 L25.617977,-48.216145 L25.842697,-108.60402 L26.067415,-97.49353 L26.292135,-103.858986 L26.516853,-93.223 L26.741573,-100.0155 L26.966291,-89.76387 L27.191011,-80.53739 L27.41573,-72.23357 L27.64045,-64.760124 L27.865168,-58.034023 L28.089888,-51.980537 L28.314608,-46.532394 L28.539326,-90.72375 L28.764046,-81.40129 L28.988764,-89.37597 L29.213484,-80.188286 L29.438202,-71.919365 L29.662922,-64.47734 L29.88764,-57.779522 L30.11236,-51.751484 L30.337078,-46.32625 L30.561798,-41.443535 L30.786516,-37.049095 L31.011236,-33.0941 L31.235954,-29.534603 L31.460674,-75.425735 L31.685392,-67.63308 L31.910112,-126.07926 L32.13483,-129.58614 L32.35955,-132.74234 L32.58427,-184.6776 L32.80899,-182.32463 L33.033707,-229.30167 L33.258427,-271.581 L33.483147,-260.5377 L33.707867,-266.96362 L33.932583,-240.01718 L34.157303,-232.13026 L34.382023,-225.03204 L34.606743,-202.27876 L34.83146,-181.8008 L35.05618,-179.73552 L35.2809,-161.51189 L35.50562,-145.11061 L35.730335,-130.34946 L35.955055,-117.06442 L36.179775,-105.107895 L36.404495,-94.34702 L36.629215,-215.58139 L36.85393,-193.77316 L37.07865,-223.24043 L37.30337,-266.1259 L37.52809,-304.72278 L37.752808,-306.7302 L37.977528,-308.5369 L38.202248,-293.798 L38.426968,-280.53302 L38.651684,-268.5945 L38.876404,-257.84988 L39.101124,-248.17969 L39.325844,-223.11163 L39.55056,-200.55038 L39.77528,-180.24525 L40,-161.97064 L40.22472,-145.5235 L40.44944,-130.72105 L40.674156,-117.398865 L40.898876,-105.40889 L41.123596,-94.61792 L41.348316,-150.36562 L41.573032,-135.07896 L41.797752,-137.68588 L42.022472,-123.667206 L42.247192,-111.05039 L42.47191,-99.69527 L42.69663,-89.475655 L42.92135,-80.278 L43.14607,-72.000114 L43.370785,-64.55002 L43.595505,-57.84493 L43.820225,-51.81035 L44.044945,-46.379227 L44.269665,-106.95079 L44.49438,-145.10031 L44.7191,-195.79977 L44.94382,-192.3346 L45.16854,-189.21594 L45.393257,-186.40916 L45.617977,-167.51816 L45.842697,-183.24605 L46.067417,-164.67136 L46.292133,-147.95413 L46.516853,-132.90863 L46.741573,-119.367676 L46.966293,-107.180824 L47.19101,-96.212654 L47.41573,-86.3413 L47.64045,-110.186874 L47.86517,-115.28299 L48.08989,-119.8695 L48.314606,-107.63246 L48.539326,-96.61913 L48.764046,-86.70713 L48.988766,-77.78633 L49.21348,-69.75761 L49.4382,-78.89666 L49.66292,-70.756905 L49.88764,-63.431126 L50.11236,-56.837925 L50.33708,-50.904045 L50.5618,-45.563557 L50.78652,-40.757114 L51.011234,-36.431313 L51.235954,-32.538097 L51.460674,-29.034199 L51.685394,-25.880692 L51.91011,-39.40743 L52.13483,-35.2166 L52.35955,-64.174644 L52.58427,-57.50709 L52.80899,-51.506294 L53.033707,-95.200264 L53.258427,-101.795044 L53.483147,-91.36545 L53.707867,-81.97882 L53.932583,-73.53085 L54.157303,-65.92768 L54.382023,-59.084824 L54.606743,-69.291145 L54.83146,-62.111946 L55.05618,-55.650665 L55.2809,-49.83551 L55.50562,-44.60187 L55.730335,-39.891598 L55.955055,-35.65235 L56.179775,-31.837029 L56.404495,-28.40324 L56.629215,-25.312828 L56.85393,-22.531458 L57.07865,-69.12291 L57.30337,-61.96053 L57.52809,-71.87929 L57.752808,-80.80616 L57.977528,-121.570145 L58.202248,-125.52794 L58.426968,-112.72505 L58.651684,-101.20246 L58.876404,-90.83213 L59.101124,-97.86372 L59.325844,-87.82726 L59.55056,-78.79445 L59.77528,-70.66492 L60,-63.34834 L60.22472,-56.76342 L60.44944,-50.83699 L60.674156,-45.503204 L60.898876,-40.702797 L61.123596,-36.38243 L61.348316,-32.4941 L61.573032,-28.994602 L61.797752,-25.845055 L62.022472,-23.010464 L62.247192,-36.824223 L62.47191,-32.891716 L62.69663,-29.352455 L62.92135,-26.167124 L63.14607,-23.300323 L63.370785,-86.17978 L63.595505,-110.041504 L63.820225,-98.78727 L64.044945,-88.658455 L64.26966,-128.6372 L64.494385,-131.88829 L64.7191,-118.44937 L64.94382,-220.90862 L65.16854,-280.39212 L65.39326,-268.4677 L65.61798,-241.37086 L65.8427,-233.34859 L66.06741,-226.12854 L66.29214,-252.36028 L66.51685,-243.23906 L66.74157,-218.66507 L66.96629,-196.54848 L67.19101,-193.00844 L67.41573,-173.4575 L67.64045,-155.86166 L67.865166,-156.3903 L68.08989,-140.50119 L68.314606,-126.20098 L68.53933,-113.330795 L68.764046,-101.74763 L68.98876,-91.32278 L69.213486,-81.940414 L69.4382,-73.496284 L69.66292,-65.89657 L69.88764,-59.056828 L70.11236,-52.90106 L70.33708,-96.45554 L70.5618,-102.9248 L70.786514,-92.38223 L71.01124,-82.89392 L71.235954,-90.71934 L71.46067,-81.397316 L71.685394,-73.0075 L71.91011,-65.45666 L72.134834,-58.660908 L72.35955,-52.54473 L72.58427,-47.04017 L72.80899,-42.086067 L73.03371,-37.627373 L73.25843,-33.614548 L73.48315,-30.003006 L73.70786,-26.752619 L73.93259,-23.82727 L74.1573,-21.194456 L74.38202,-18.824923 L74.60674,-16.692345 L74.83146,-14.773023 L75.05618,-13.045633 L75.2809,-11.490983 L75.505615,-10.091798 L75.73034,-8.832531 L75.955055,-7.6991906 L76.17978,-6.6791844 L76.404495,-5.761179 L76.62921,-4.934974 L76.853935,-4.1913896 L77.07865,-3.5221639 L77.30337,-2.9198604 L77.52809,-2.3777874 L77.75281,-50.984604 L77.97753,-94.730736 L78.20225,-85.007576 L78.42696,-76.25674 L78.65169,-117.475655 L78.8764,-121.842896 L79.10112,-109.40852 L79.32584,-130.94737 L79.55056,-117.60255 L79.77528,-121.9571 L80,-109.5113 L80.22472,-98.31008 L80.44944,-137.32367 L80.67416,-123.34122 L80.89888,-143.4868 L81.1236,-128.88803 L81.34831,-115.74914 L81.57304,-103.92414 L81.79775,-93.28164 L82.02247,-100.06828 L82.24719,-106.17626 L82.47191,-95.30855 L82.69663,-85.5276 L82.92135,-76.724754 L83.146065,-117.89688 L83.37079,-105.8571 L83.595505,-95.02131 L83.82022,-117.99888 L84.044945,-155.04358 L84.26966,-139.28914 L84.494385,-141.47504 L84.7191,-127.07744 L84.94382,-130.48451 L85.16854,-149.91576 L85.39326,-134.67409 L85.61798,-137.32149 L85.8427,-156.06905 L86.06741,-189.30673 L86.29214,-202.85576 L86.51685,-182.3201 L86.74157,-163.838 L86.96629,-147.20412 L87.19101,-132.23361 L87.41573,-118.76017 L87.64045,-172.09364 L87.865166,-154.63419 L88.08989,-155.28558 L88.314606,-155.87183 L88.53933,-140.03456 L88.764046,-125.78101 L88.98876,-112.95283 L89.213486,-101.407455 L89.4382,-91.016624 L89.66292,-98.02977 L89.88764,-104.3416 L90.11236,-93.65735 L90.33708,-84.04153 L90.5618,-75.38729 L90.786514,-83.96337 L91.01124,-108.04673 L91.235954,-113.356865 L91.46067,-101.771095 L91.685394,-91.343895 L91.91011,-81.95942 L92.134834,-73.51339 L92.35955,-65.911964 L92.58427,-59.070683 L92.80899,-69.27842 L93.03371,-62.10049 L93.25843,-55.640354 L93.48315,-82.55602 L93.70786,-74.05033 L93.93259,-66.39521 L94.1573,-59.505604 L94.38202,-53.304955 L94.60674,-47.724373 L94.83146,-42.70185 L95.05618,-38.181576 L95.2809,-115.937805 L95.505615,-136.82373 L95.73034,-139.25616 L95.955055,-125.08046 L96.17978,-112.32233 L96.404495,-100.840004 L96.62921,-90.50592 L96.853935,-81.20524 L97.07865,-72.834625 L97.30337,-98.03087 L97.52809,-87.97769 L97.75281,-78.92983 L97.97753,-70.786766 L98.20225,-63.458 L98.42696,-56.862114 L98.65169,-50.925816 L98.8764,-45.58315 L99.10112,-73.50453 L99.32584,-98.63378 L99.55056,-88.52032 L99.77528,-79.4182 L100,-71.22629 L100.22472,-63.853577 L100.44944,-57.218132 L100.67416,-51.24623 L100.89888,-45.87152 L101.1236,-41.034283 L101.34831,-69.41055 L101.57304,-62.219414 L101.79775,-55.747383 L102.02247,-49.922558 L102.24719,-61.04511 L102.47191,-54.690514 L102.69663,-81.701164 L102.92135,-73.28096 L103.146065,-65.702774 L103.37079,-91.6122 L103.595505,-82.20089 L103.82022,-90.09561 L104.044945,-80.83596 L104.26966,-72.50228 L104.494385,-65.00196 L104.7191,-58.251682 L104.94382,-52.176426 L105.16854,-46.708694 L105.39326,-41.78774 L105.61798,-37.35888 L105.8427,-49.737797 L106.06741,-77.24372 L106.29214,-69.269264 L106.51685,-62.092247 L106.74157,-55.632935 L106.96629,-49.819553 L107.19101,-44.587513 L107.41573,-72.60846 L107.64045,-65.09753 L107.865166,-58.33769 L108.08989,-52.253834 L108.314606,-46.778362 L108.53933,-41.85044 L108.764046,-37.41531 L108.98876,-33.42369 L109.213486,-29.831234 L109.4382,-59.327812 L109.66292,-69.50984 L109.88764,-62.30877 L110.11236,-55.827805 L110.33708,-49.994938 L110.5618,-44.745358 L110.786514,-40.020733 L111.01124,-35.768574 L111.235954,-31.94163 L111.46067,-28.49738 L111.685394,-25.397554 L111.91011,-38.972607 L112.134834,-34.825256 L112.35955,-31.092646 L112.58427,-44.098186 L112.80899,-39.438282 L113.03371,-67.97415 L113.25843,-60.92665 L113.48315,-54.5839 L113.70786,-48.875423 L113.93259,-43.737793 L114.1573,-39.113926 L114.38202,-34.952446 L114.60674,-31.207115 L114.83146,-60.566105 L115.05618,-54.259407 L115.2809,-48.58338 L115.505615,-43.474957 L115.73034,-38.877373 L115.955055,-34.739548 L116.17978,-31.015507 L116.404495,-27.66387 L116.62921,-24.647394 L116.853935,-21.932568 L117.07865,-19.489225 L117.30337,-17.290215 L117.52809,-15.311107 L117.75281,-13.529909 L117.97753,-11.926831 L118.20225,-10.484061 L118.42696,-9.185568 L118.65169,-8.016924 L118.8764,-6.9651446 L119.10112,-6.0185432 L119.32584,-37.89639 L119.55056,-33.856663 L119.77528,-30.220911 L120,-59.67852 L120.22472,-53.460583 L120.44944,-47.864437 L120.67416,-42.827908 L120.89888,-54.659924 L121.1236,-48.943844 L121.34831,-43.799374 L121.57304,-39.169346 L121.79775,-35.002327 L122.02247,-31.252007 L122.24719,-27.876719 L122.47191,-57.56875 L122.69663,-84.29157 L122.92135,-75.61233 L123.146065,-67.80101 L123.37079,-60.77082 L123.595505,-87.17344 L123.82022,-78.20601 L124.044945,-70.13532 L124.26966,-62.871704 L124.494385,-56.334446 L124.7191,-50.450912 L124.94382,-61.52063 L125.16854,-55.11848 L125.39326,-49.356544 L125.61798,-44.170803 L125.8427,-55.86853 L126.06741,-50.03159 L126.29214,-44.778343 L126.51685,-40.050423 L126.74157,-35.79529 L126.96629,-31.965677 L127.19101,-28.519022 L127.41573,-25.417032 L127.64045,-22.625242 L127.865166,-20.11263 L128.08989,-17.851282 L128.3146,-32.18096 L128.53932,-61.442566 L128.76404,-55.04822 L128.98877,-49.293312 L129.21349,-44.113895 L129.4382,-39.45242 L129.66292,-35.257088 L129.88763,-47.846188 L130.11237,-42.81148 L130.33708,-38.280247 L130.5618,-50.567028 L130.78651,-61.625134 L131.01123,-55.212532 L131.23596,-82.17098 L131.46068,-73.7038 L131.6854,-66.08333 L131.91011,-59.22491 L132.13483,-53.05233 L132.35956,-63.861904 L132.58427,-73.59052 L132.80899,-98.711174 L133.0337,-88.589966 L133.25842,-79.48088 L133.48314,-71.28271 L133.70787,-63.90435 L133.93259,-57.26383 L134.1573,-84.01714 L134.38202,-75.36534 L134.60674,-100.30851 L134.83147,-90.02757 L135.05618,-80.77473 L135.2809,-72.44717 L135.50562,-64.95236 L135.73033,-58.207043 L135.95506,-52.13625 L136.17978,-46.67254 L136.4045,-41.7552 L136.62921,-70.05938 L136.85393,-62.803356 L137.07866,-56.27293 L137.30338,-50.39555 L137.52809,-77.8357 L137.7528,-86.16694 L137.97752,-77.300156 L138.20224,-69.32005 L138.42697,-62.13796 L138.65169,-55.674076 L138.8764,-49.856583 L139.10112,-77.350624 L139.32584,-69.36548 L139.55057,-62.17884 L139.77528,-72.07577 L140,-80.982994 L140.22472,-72.634605 L140.44943,-65.12106 L140.67416,-58.358868 L140.89888,-52.272892 L141.1236,-46.795517 L141.34831,-41.86588 L141.57303,-37.429203 L141.79776,-33.436195 L142.02248,-29.84249 L142.2472,-26.608154 L142.47191,-40.062145 L142.69662,-52.17074 L142.92134,-95.79826 L143.14607,-85.968346 L143.37079,-77.12142 L143.5955,-69.159195 L143.82022,-61.99319 L144.04494,-55.54378 L144.26967,-82.46911 L144.49438,-73.97211 L144.7191,-66.324814 L144.94382,-59.44224 L145.16853,-53.247932 L145.39326,-47.67305 L145.61798,-42.65566 L145.8427,-54.5049 L146.06741,-48.804325 L146.29213,-43.673805 L146.51686,-39.056335 L146.74158,-34.900616 L146.9663,-31.160467 L147.19101,-27.794334 L147.41573,-24.764812 L147.64044,-22.038244 L147.86517,-19.584333 L148.08989,-17.375813 L148.3146,-15.3881445 L148.53932,-13.599243 L148.76404,-11.989232 L148.98877,-10.540221 L149.21349,-9.236113 L149.4382,-8.062414 L149.66292,-7.006086 L149.88763,-6.0553904 L150.11237,-5.1997643 L150.33708,-4.429701 L150.5618,-3.7366436 L150.78651,-3.1128922 L151.01123,-2.551516 L151.23596,-18.411171 L151.46068,-16.319967 L151.6854,-14.437883 L151.91011,-45.473797 L152.13483,-40.67633 L152.35956,-36.35861 L152.58427,-32.47266 L152.80899,-28.97531 L153.0337,-25.82769 L153.25842,-22.994835 L153.48314,-36.810158 L153.70787,-65.60884 L153.93259,-58.79787 L154.1573,-52.668 L154.38202,-47.15111 L154.60674,-42.185913 L154.83147,-37.717236 L155.05618,-33.695423 L155.2809,-30.075794 L155.50562,-26.818129 L155.73033,-23.886229 L155.95506,-21.247519 L156.17978,-18.87268 L156.4045,-16.735325 L156.62921,-31.1766 L156.85393,-44.173748 L157.07866,-39.506287 L157.30338,-35.30557 L157.52809,-31.524925 L157.7528,-28.122347 L157.97752,-25.060024 L158.20224,-38.66883 L158.42697,-34.55186 L158.65169,-47.21148 L158.8764,-42.240246 L159.10112,-37.766132 L159.32584,-33.739433 L159.55057,-30.115402 L159.77528,-26.853775 L160,-23.918312 L160.22472,-37.64129 L160.44943,-49.991966 L160.67416,-44.742683 L160.89888,-56.38322 L161.1236,-50.494812 L161.34831,-45.195244 L161.57303,-40.425632 L161.79776,-52.497875 L162.02248,-46.998 L162.2472,-42.048115 L162.47191,-37.593216 L162.69662,-33.58381 L162.92134,-29.97534 L163.14607,-43.092613 L163.37079,-38.533264 L163.5955,-34.42985 L163.82022,-30.736778 L164.04494,-27.413013 L164.26967,-24.421625 L164.49438,-38.09427 L164.7191,-34.034756 L164.94382,-30.381193 L165.16853,-43.457882 L165.39326,-38.862007 L165.61798,-34.72572 L165.8427,-47.367954 L166.06741,-42.381073 L166.29213,-37.892876 L166.51686,-33.853504 L166.74158,-30.218065 L166.9663,-26.94617 L167.19101,-24.001467 L167.41573,-21.351234 L167.64044,-18.966022 L167.86517,-16.819334 L168.08989,-14.887314 L168.3146,-13.148496 L168.53932,-11.583559 L168.76404,-10.175116 L168.98877,-8.907517 L169.21349,-7.7666783 L169.4382,-23.104818 L169.66292,-20.544249 L169.88763,-18.239737 L170.11237,-16.165676 L170.33708,-14.299022 L170.5618,-12.619033 L170.78651,-11.107042 L171.01123,-26.111145 L171.23596,-23.249943 L171.46068,-20.674862 L171.6854,-34.722183 L171.91011,-30.999878 L172.13483,-27.649803 L172.35956,-24.634735 L172.58427,-21.921175 L172.80899,-19.478971 L173.0337,-17.280987 L173.25842,-15.302801 L173.48314,-13.522434 L173.70787,-11.920103 L173.93259,-10.478006 L174.1573,-9.180119 L174.38202,-8.012019 L174.60674,-6.9607306 L174.83147,-6.0145707 L175.05618,-5.1630263 L175.2809,-4.396637 L175.50562,-3.706886 L175.73033,-3.0861106 L175.95506,-2.5274124 L176.17978,-2.024584 L176.4045,-1.5720388 L176.62921,-1.1647478 L176.85393,-17.16308 L177.07866,-31.561579 L177.30338,-60.885124 L177.52809,-54.546524 L177.7528,-48.841785 L177.97752,-60.072414 L178.20224,-53.815086 L178.42697,-48.18349 L178.65169,-43.11505 L178.8764,-38.55346 L179.10112,-34.44803 L179.32584,-30.753138 L179.55057,-27.427736 L179.77528,-24.434875 L180,-54.47109 L180.22472,-48.773895 L180.44943,-43.64642 L180.67416,-39.03169 L180.89888,-34.878433 L181.1236,-31.140503 L181.34831,-60.506153 L181.57303,-54.205452 L181.79776,-48.53482 L182.02248,-59.796143 L182.2472,-53.566444 L182.47191,-47.959713 L182.69662,-42.913654 L182.92134,-54.737095 L183.14607,-49.013298 L183.37079,-43.86188 L183.5955,-39.225605 L183.82022,-35.05296 L184.04494,-31.297577 L184.26967,-27.917732 L184.49438,-41.240765 L184.7191,-53.231495 L184.94382,-47.65826 L185.16853,-59.00724 L185.39326,-52.85643 L185.61798,-47.320698 L185.8427,-42.338543 L186.06741,-37.854603 L186.29213,-33.819054 L186.51686,-30.187061 L186.74158,-43.28316 L186.9663,-38.704758 L187.19101,-34.584198 L187.41573,-47.240585 L187.64044,-42.266438 L187.86517,-37.789707 L188.08989,-50.125546 L188.3146,-44.862904 L188.53932,-40.126526 L188.76404,-52.22868 L188.98877,-46.755726 L189.21349,-41.830067 L189.4382,-37.396973 L189.66292,-49.772083 L189.88763,-77.274574 L190.11237,-69.29703 L190.33708,-78.48213 L190.5618,-70.383835 L190.78651,-63.095364 L191.01123,-56.53574 L191.23596,-66.99697 L191.46068,-60.047188 L191.6854,-53.79238 L191.91011,-48.16306 L192.13483,-43.096664 L192.35956,-38.53691 L192.58427,-34.433132 L192.80899,-30.739733 L193.0337,-27.415672 L193.25842,-24.424019 L193.48314,-21.73153 L193.70787,-19.30829 L193.93259,-17.127373 L194.1573,-15.164549 L194.38202,-13.398007 L194.60674,-11.80812 L194.83147,-10.37722 L195.05618,-9.089412 L195.2809,-24.295277 L195.50562,-37.980556 L195.73033,-50.29731 L195.95506,-45.01749 L196.17978,-40.265656 L196.4045,-35.989002 L196.62921,-32.140015 L196.85393,-28.675926 L197.07866,-25.558247 L197.30338,-22.752335 L197.52809,-20.227015 L197.7528,-17.954226 L197.97752,-32.27361 L198.20224,-28.796162 L198.42697,-25.66646 L198.65169,-22.849726 L198.8764,-20.314667 L199.10112,-18.033113 L199.32584,-15.979714 L199.55057,-14.131657 L199.77528,-12.468404 L200,-10.971477 L200.22472,-9.624242 L200.44943,-8.411731 L200.67416,-7.3204703 L200.89888,-6.3383365 L201.1236,-5.454416 L201.34831,-4.658887 L201.57303,-3.9429114 L201.79776,-19.663427 L202.02248,-17.446997 L202.2472,-15.45221 L202.47191,-13.656902 L202.69662,-12.041125 L202.92134,-10.5869255 L203.14607,-9.278147 L203.37079,-8.1002445 L203.5955,-23.405027 L203.82022,-37.179333 L204.04494,-33.21131 L204.26967,-29.640093 L204.49438,-26.425997 L204.7191,-23.53331 L204.94382,-53.65968 L205.16853,-48.043625 L205.39326,-42.989178 L205.61798,-54.805065 L205.8427,-81.80426 L206.06741,-73.37375 L206.29213,-65.786285 L206.51686,-75.322464 L206.74158,-67.54013 L206.9663,-60.53603 L207.19101,-54.23234 L207.41573,-48.55902 L207.64044,-43.45303 L207.86517,-38.85764 L208.08989,-34.72179 L208.3146,-30.999523 L208.53932,-27.649485 L208.76404,-24.634449 L208.98877,-21.920918 L209.21349,-19.478739 L209.4382,-17.280777 L209.66292,-15.302612 L209.88763,-13.5222645 L210.11237,-28.284845 L210.33708,-25.206274 L210.5618,-22.435558 L210.78651,-36.30681 L211.01123,-32.42604 L211.23596,-28.933352 L211.46068,-25.789928 L211.6854,-39.325745 L211.91011,-35.14308 L212.13483,-31.378687 L212.35956,-77.08541 L212.58427,-69.126785 L212.80899,-61.96402 L213.0337,-55.517532 L213.25842,-49.71569 L213.48314,-44.494034 L213.70787,-39.794544 L213.93259,-35.565002 L214.1573,-31.758415 L214.38202,-44.69738 L214.60674,-39.977554 L214.83147,-35.729713 L215.05618,-31.906654 L215.2809,-28.465902 L215.50562,-25.369225 L215.73033,-22.582216 L215.95506,-36.4388 L216.17978,-32.544834 L216.4045,-29.040264 L216.62921,-25.88615 L216.85393,-23.04745 L217.07866,-20.492617 L217.30338,-18.193268 L217.52809,-16.123854 L217.7528,-14.261381 L217.97752,-12.585156 L218.20224,-11.076553 L218.42697,-9.718811 L218.65169,-24.861738 L218.8764,-38.49037 L219.10112,-34.391247 L219.32584,-47.06693 L219.55057,-42.11015 L219.77528,-37.649048 L220,-33.634056 L220.22472,-46.385456 L220.44943,-41.496826 L220.67416,-37.097054 L220.89888,-33.137264 L221.1236,-29.57345 L221.34831,-26.366016 L221.57303,-23.479328 L221.79776,-20.88131 L222.02248,-18.54309 L222.2472,-16.438694 L222.47191,-14.544738 L222.69662,-61.93486 L222.92134,-55.491287 L223.14607,-49.69207 L223.37079,-44.47278 L223.5955,-39.775414 L223.82022,-35.547783 L224.04494,-31.742918 L224.26967,-28.31854 L224.49438,-25.236599 L224.7191,-22.462852 L224.94382,-19.96648 L225.16853,-34.08464 L225.39326,-30.426088 L225.61798,-43.498287 L225.8427,-38.89837 L226.06741,-34.758446 L226.29213,-31.032515 L226.51686,-27.679176 L226.74158,-41.026066 L226.9663,-36.673374 L227.19101,-32.755947 L227.41573,-29.230267 L227.64044,-26.057152 L227.86517,-23.201351 L228.08989,-20.631128 L228.3146,-18.317928 L228.53932,-16.236048 L228.76404,-30.727251 L228.98877,-27.404438 L229.21349,-40.7788 L229.4382,-36.450836 L229.66292,-32.555664 L229.88763,-29.05001 L230.11237,-25.894922 L230.33708,-23.055344 L230.5618,-20.499722 L230.78651,-34.564556 L231.01123,-47.222908 L231.23596,-58.615425 L231.46068,-85.23358 L231.6854,-76.46014 L231.91011,-84.92893 L232.13483,-76.18595 L232.35956,-68.31727 L232.58427,-61.235455 L232.80899,-54.861824 L233.0337,-49.125553 L233.25842,-43.96291 L233.48314,-39.316532 L233.70787,-35.134792 L233.93259,-47.736122 L234.1573,-42.71242 L234.38202,-38.191093 L234.60674,-34.121895 L234.83147,-30.45962 L235.05618,-27.16357 L235.2809,-24.197126 L235.50562,-21.527327 L235.73033,-19.124508 L235.95506,-16.96197 L236.17978,-15.015685 L236.4045,-29.628923 L236.62921,-26.415945 L236.85393,-23.524263 L237.07866,-20.92175 L237.30338,-18.579489 L237.52809,-16.471453 L237.7528,-14.57422 L237.97752,-12.866711 L238.20224,-11.329953 L238.42697,-26.311764 L238.65169,-23.430502 L238.8764,-20.837364 L239.10112,-18.50354 L239.32584,-16.4031 L239.55057,-14.512703 L239.77528,-12.811345 L240,-11.280124 L240.22472,-9.902024 L240.44943,-8.661735 L240.67416,-7.5454745 L240.89888,-6.54084 L241.1236,-5.636669 L241.34831,-4.822915 L241.57303,-4.0905366 L241.79776,-3.4313958 L242.02248,-19.203064 L242.2472,-17.032671 L242.47191,-15.079316 L242.69662,-13.321298 L242.92134,-11.73908 L243.14607,-26.67998 L243.37079,-40.12679 L243.5955,-35.86402 L243.82022,-32.027534 L244.04494,-28.574694 L244.26967,-25.467136 L244.49438,-22.670336 L244.7191,-20.153215 L244.94382,-17.887808 L245.16853,-32.213833 L245.39326,-77.83704 L245.61798,-86.16815 L245.8427,-77.30125 L246.06741,-69.32104 L246.29213,-62.138844 L246.51686,-55.674873 L246.74158,-66.22219 L246.9663,-75.71478 L247.19101,-67.89322 L247.41573,-60.853806 L247.64044,-70.88323 L247.86517,-63.544823 L248.08989,-56.940254 L248.3146,-67.36104 L248.53932,-60.374844 L248.76404,-54.087273 L248.98877,-48.42846 L249.21349,-43.335526 L249.4382,-38.75189 L249.66292,-34.62661 L249.88763,-30.913862 L250.11237,-27.57239 L250.33708,-24.565063 L250.5618,-21.85847 L250.78651,-19.422537 L251.01123,-17.230196 L251.23596,-15.257089 L251.46068,-13.481293 L251.6854,-11.883077 L251.91011,-10.444682 L252.13483,-9.150126 L252.35956,-24.349922 L252.58427,-21.664843 L252.80899,-19.24827 L253.0337,-17.073357 L253.25842,-15.115934 L253.48314,-13.354254 L253.70787,-11.768742 L253.93259,-10.34178 L254.1573,-9.057515 L254.38202,-40.631466 L254.60674,-36.31823 L254.83147,-32.43632 L255.05618,-28.942602 L255.2809,-25.798254 L255.50562,-39.333237 L255.73033,-35.149826 L255.95506,-31.384756 L256.17978,-27.996193 L256.40448,-24.946487 L256.6292,-54.93154 L256.85394,-49.188297 L257.07864,-44.019382 L257.30338,-39.367355 L257.52808,-35.180534 L257.7528,-31.412394 L257.97754,-28.021067 L258.20224,-41.333767 L258.42697,-36.950302 L258.65167,-33.005188 L258.8764,-45.819473 L259.10114,-40.987442 L259.32584,-36.63861 L259.55057,-65.45445 L259.77527,-58.658916 L260,-52.54294 L260.22473,-47.03856 L260.44943,-42.084614 L260.67416,-37.62607 L260.89886,-33.613373 L261.1236,-30.00195 L261.34833,-26.751667 L261.57303,-23.826414 L261.79776,-21.193686 L262.02246,-18.82423 L262.2472,-16.69172 L262.47192,-14.77246 L262.69662,-13.045127 L262.92136,-11.490528 L263.14606,-42.821175 L263.3708,-38.28897 L263.59552,-34.209988 L263.82022,-30.538902 L264.04495,-27.234924 L264.26965,-24.261345 L264.4944,-21.585123 L264.71912,-19.176523 L264.94382,-17.008785 L265.16855,-15.057819 L265.39325,-29.666845 L265.61798,-26.450073 L265.84268,-56.284767 L266.0674,-50.406204 L266.29214,-45.115498 L266.51685,-56.718754 L266.74158,-50.79679 L266.96628,-45.467026 L267.191,-40.670235 L267.41574,-52.718018 L267.64044,-47.19613 L267.86517,-42.22643 L268.08987,-37.7537 L268.3146,-50.093136 L268.53934,-44.833736 L268.76404,-40.100277 L268.98877,-35.84016 L269.21347,-32.006058 L269.4382,-44.92026 L269.66293,-40.178146 L269.88763,-52.27514 L270.11237,-46.79754 L270.33707,-41.8677 L270.5618,-37.43084 L270.78653,-33.437668 L271.01123,-29.843815 L271.23596,-26.609346 L271.46066,-23.698326 L271.6854,-21.078405 L271.91013,-18.720478 L272.13483,-16.598343 L272.35956,-14.688422 L272.58426,-29.334387 L272.809,-26.150862 L273.03372,-39.65058 L273.25842,-35.435436 L273.48315,-31.641806 L273.70786,-28.22754 L273.9326,-25.154697 L274.15732,-22.389141 L274.38202,-19.90014 L274.60675,-17.660038 L274.83145,-15.643948 L275.05618,-13.829466 L275.28088,-28.561327 L275.5056,-25.455107 L275.73035,-22.65951 L275.95505,-20.14347 L276.17978,-17.879038 L276.40448,-15.841046 L276.6292,-30.37175 L276.85394,-27.084488 L277.07864,-24.125952 L277.30338,-21.463268 L277.52808,-19.066854 L277.7528,-16.910082 L277.97754,-31.333881 L278.20224,-44.3153 L278.42697,-39.633682 L278.65167,-35.420227 L278.8764,-31.628119 L279.10114,-28.21522 L279.32584,-25.14361 L279.55057,-38.744057 L279.77527,-34.619564 L280,-30.90752 L280.22473,-43.931576 L280.44943,-39.28833 L280.67416,-35.10941 L280.89886,-31.348383 L281.1236,-27.963457 L281.34833,-24.917025 L281.57303,-22.175236 L281.79776,-19.707624 L282.02246,-17.486774 L282.2472,-15.48801 L282.47192,-30.054016 L282.69662,-26.798529 L282.92136,-40.233482 L283.14606,-35.96005 L283.3708,-48.47885 L283.59552,-43.38088 L283.82022,-38.7927 L284.04495,-34.663345 L284.26965,-30.946924 L284.4944,-27.602144 L284.71912,-24.591843 L284.94382,-21.882572 L285.16855,-19.444227 L285.39325,-17.249718 L285.61798,-31.639553 L285.84268,-28.225512 L286.0674,-25.152872 L286.29214,-22.387499 L286.51685,-19.898663 L286.74158,-34.0236 L286.96628,-46.73605 L287.191,-58.17725 L287.41574,-52.10944 L287.64044,-46.648407 L287.86517,-41.733482 L288.08987,-37.310047 L288.3146,-49.693848 L288.53934,-44.474377 L288.76404,-39.77685 L288.98877,-35.54908 L289.21347,-31.744085 L289.4382,-28.31959 L289.66293,-25.237543 L289.88763,-22.463701 L290.11237,-19.967245 L290.33707,-17.720432 L290.5618,-32.063198 L290.78653,-28.60679 L291.01123,-25.496025 L291.23596,-22.696335 L291.46066,-20.176615 L291.6854,-50.638653 L291.91013,-45.324703 L292.13483,-40.542145 L292.35956,-36.237843 L292.58426,-32.36397 L292.809,-28.877487 L293.03372,-25.739653 L293.25842,-22.9156 L293.48315,-20.373953 L293.70786,-18.08647 L293.9326,-16.027737 L294.15732,-14.174875 L294.38202,-28.872196 L294.60675,-25.734888 L294.83145,-22.911312 L295.05618,-36.73499 L295.28088,-49.176296 L295.5056,-60.373474 L295.73035,-54.08604 L295.95505,-48.42735 L296.17978,-92.42921 L296.40448,-82.9362 L296.6292,-74.392494 L296.85394,-66.703156 L297.07864,-59.782757 L297.30338,-86.28418 L297.52808,-77.40568 L297.7528,-85.779915 L297.97754,-76.951836 L298.20224,-69.00657 L298.42697,-61.855824 L298.65167,-55.420155 L298.8764,-49.62805 L299.10114,-60.780052 L299.32584,-54.45196 L299.55057,-48.756676 L299.77527,-43.630924 L300,-39.017742 L300.22473,-34.865883 L300.44943,-63.858994 L300.67416,-57.223007 L300.89886,-51.25062 L301.1236,-62.240364 L301.34833,-55.766243 L301.57303,-49.93953 L301.79776,-77.42528 L302.02246,-69.43266 L302.2472,-62.23931 L302.47192,-55.765293 L302.69662,-49.938675 L302.92136,-44.69472 L303.14606,-39.975163 L303.3708,-52.092453 L303.59552,-46.63312 L303.82022,-58.084618 L304.04495,-52.026066 L304.26965,-46.573376 L304.4944,-74.39574 L304.71912,-66.70608 L304.94382,-59.78538 L305.16855,-53.55676 L305.39325,-47.950993 L305.61798,-42.905807 L305.84268,-38.36514 L306.0674,-50.643433 L306.29214,-45.329002 L306.51685,-40.546017 L306.74158,-36.241325 L306.96628,-32.367107 L307.191,-45.245205 L307.41574,-56.83549 L307.64044,-67.26675 L307.86517,-60.289986 L308.08987,-54.010902 L308.3146,-48.359722 L308.53934,-43.273666 L308.76404,-38.696213 L308.98877,-34.576504 L309.21347,-30.868765 L309.4382,-27.531801 L309.66293,-24.528534 L309.88763,-21.825594 L310.11237,-35.757843 L310.33707,-31.93197 L310.5618,-28.488688 L310.78653,-25.38973 L311.01123,-22.600672 L311.23596,-20.090517 L311.46066,-17.831379 L311.6854,-32.163048 L311.91013,-28.696655 L312.13483,-25.576902 L312.35956,-39.13402 L312.58426,-34.97053 L312.809,-47.588284 L313.03372,-42.57937 L313.25842,-38.071346 L313.48315,-34.014126 L313.70786,-30.362625 L313.9326,-27.076275 L314.15732,-24.11856 L314.38202,-21.456617 L314.60675,-19.06087 L314.83145,-16.904696 L315.05618,-47.693928 L315.28088,-42.674446 L315.5056,-38.156914 L315.73035,-34.091137 L315.95505,-30.431936 L316.17978,-27.138655 L316.40448,-24.174704 L316.6292,-21.507145 L316.85394,-19.106344 L317.07864,-16.945623 L317.30338,-15.000974 L317.52808,-13.250789 L317.7528,-11.675623 L317.97754,-10.257974 L318.20224,-8.982089 L318.42697,-24.198689 L318.65167,-21.528732 L318.8764,-35.490665 L319.10114,-31.691513 L319.32584,-28.272274 L319.55057,-25.19496 L319.77527,-22.425377 L320,-36.297646 L320.22473,-32.417793 L320.44943,-28.925928 L320.67416,-25.783249 L320.89886,-22.954836 L321.1236,-20.409266 L321.34833,-18.118252 L321.57303,-16.05634 L321.79776,-30.565514 L322.02246,-27.258875 L322.2472,-24.2829 L322.47192,-21.604523 L322.69662,-19.193983 L322.92136,-17.024498 L323.14606,-15.071961 L323.3708,-13.314678 L323.59552,-11.733124 L323.82022,-10.309724 L324.04495,-9.028665 L324.26965,-7.8757114 L324.4944,-6.838053 L324.71912,-5.904161 L324.94382,-5.0636578 L325.16855,-4.3072047 L325.39325,-19.991291 L325.61798,-17.742075 L325.84268,-15.717781 L326.0674,-13.895916 L326.29214,-12.256237 L326.51685,-10.780526 L326.74158,-9.452387 L326.96628,-8.257061 L327.191,-7.181268 L327.41574,-22.577948 L327.64044,-36.43496 L327.86517,-32.541378 L328.08987,-29.037153 L328.3146,-42.248245 L328.53934,-37.773335 L328.76404,-33.745914 L328.98877,-30.121235 L329.21347,-26.859024 L329.4382,-23.923035 L329.66293,-21.280643 L329.88763,-18.902493 L330.11237,-16.762156 L330.33707,-14.835854 L330.5618,-13.102181 L330.78653,-11.541876 L331.01123,-10.137602 L331.23596,-8.8737545 L331.46066,-7.736292 L331.6854,-6.712576 L331.91013,-5.791231 L332.13483,-4.962021 L332.35956,-4.215732 L332.58426,-3.5440717 L332.809,-2.9395776 L333.03372,-2.3955328 L333.25842,-1.9058925 L333.48315,-1.4652163 L333.70786,-1.0686076 L333.9326,-0.71165985 L334.15732,-0.39040682 L334.38202,-0.10127913 L334.60675,-16.20596 L334.83145,-30.70017 L335.05618,-27.380066 L335.28088,-40.756866 L335.5056,-36.43109 L335.73035,-32.537895 L335.95505,-29.03402 L336.17978,-25.880531 L336.40448,-39.407284 L336.6292,-35.21647 L336.85394,-31.444735 L337.07864,-28.050175 L337.30338,-41.359966 L337.52808,-36.97388 L337.7528,-33.026405 L337.97754,-29.473679 L338.20224,-26.276224 L338.42697,-23.398514 L338.65167,-20.808577 L338.8764,-18.47763 L339.10114,-16.379782 L339.32584,-14.491715 L339.55057,-12.792458 L339.77527,-11.263124 L340,-9.886725 L340.22473,-8.647965 L340.44943,-7.533082 L340.67416,-22.89458 L340.89886,-20.355036 L341.1236,-18.069445 L341.34833,-16.012413 L341.57303,-14.161085 L341.79776,-12.49489 L342.02246,-10.995314 L342.2472,-9.645696 L342.47192,-8.431039 L342.69662,-7.3378477 L342.92136,-6.3539762 L343.14606,-5.4684916 L343.3708,-4.6715555 L343.59552,-3.9543128 L343.82022,-3.3087945 L344.04495,-2.727828 L344.26965,-2.2049582 L344.4944,-1.7343754 L344.71912,-1.3108509 L344.94382,-0.92967874 L345.16855,-0.58662385 L345.39325,-0.27787447 L345.61798,-0 L345.84268,-16.114807 L346.0674,-14.25324 L346.29214,-12.577828 L346.51685,-27.434853 L346.74158,-24.44128 L346.96628,-21.747065 L347.191,-19.322271 L347.41574,-17.139957 L347.64044,-15.175875 L347.86517,-13.4082 L348.08987,-44.54708 L348.3146,-56.20718 L348.53934,-50.336376 L348.76404,-61.417545 L348.98877,-55.025703 L349.21347,-49.273045 L349.4382,-76.82544 L349.66293,-68.892815 L349.88763,-61.753445 L350.11237,-55.32801 L350.33707,-49.545124 L350.5618,-44.340523 L350.78653,-39.656384 L351.01123,-35.44066 L351.23596,-31.646507 L351.46066,-28.23177 L351.6854,-25.158504 L351.91013,-38.75746 L352.13483,-34.63163 L352.35956,-30.918379 L352.58426,-27.576454 L352.809,-24.568722 L353.03372,-21.861763 L353.25842,-19.425499 L353.48315,-33.597755 L353.70786,-29.987894 L353.9326,-43.103912 L354.15732,-38.543434 L354.38202,-34.439003 L354.60675,-30.745016 L354.83145,-43.78532 L355.05618,-39.156704 L355.28088,-51.35584 L355.5056,-45.97017 L355.73035,-41.123066 L355.95505,-36.76067 L356.17978,-32.83452 L356.40448,-29.300978 L356.6292,-26.120792 L356.85394,-23.258627 L357.07864,-20.682676 L357.30338,-18.364323 L357.52808,-16.277803 L357.7528,-14.399936 L357.97754,-12.709855 L358.20224,-11.188783 L358.42697,-9.819818 L358.65167,-8.587749 L358.8764,-23.84378 L359.10114,-21.209316 L359.32584,-18.838297 L359.55057,-16.70438 L359.77527,-14.783855 L360,-29.420277 L360.22473,-26.228163 L360.44943,-39.720154 L360.67416,-35.49805 L360.89886,-31.698158 L361.1236,-61.008045 L361.34833,-54.657154 L361.57303,-48.94135 L361.79776,-43.797127 L362.02246,-39.167328 L362.2472,-35.000507 L362.47192,-31.25037 L362.69662,-27.875246 L362.92136,-24.837635 L363.14606,-22.103785 L363.3708,-19.643318 L363.59552,-17.4289 L363.82022,-31.800817 L364.04495,-28.37065 L364.26965,-25.283497 L364.4944,-38.869953 L364.71912,-34.732872 L364.94382,-31.009497 L365.16855,-27.65846 L365.39325,-24.642529 L365.61798,-21.928188 L365.84268,-19.485283 L366.0674,-17.286667 L366.29214,-15.307913 L366.51685,-13.527035 L366.74158,-28.289139 L366.96628,-25.210138 L367.191,-38.803932 L367.41574,-83.768135 L367.64044,-75.141235 L367.86517,-67.37702 L368.08987,-60.389233 L368.3146,-54.100224 L368.53934,-48.440113 L368.76404,-59.71091 L368.98877,-53.48973 L369.21347,-64.25556 L369.4382,-57.57992 L369.66293,-51.571842 L369.88763,-62.529465 L370.11237,-56.026432 L370.33707,-50.173702 L370.5618,-77.63603 L370.78653,-69.622345 L371.01123,-78.77492 L371.23596,-70.64734 L371.46066,-63.332516 L371.6854,-73.114075 L371.91013,-65.552574 L372.13483,-58.747234 L372.35956,-52.62242 L372.58426,-47.110092 L372.809,-42.149 L373.03372,-103.143585 L373.25842,-92.57914 L373.48315,-83.07114 L373.70786,-74.51394 L373.9326,-66.81246 L374.15732,-59.881126 L374.38202,-53.642925 L374.60675,-64.39344 L374.83145,-57.70401 L375.05618,-51.68352 L375.28088,-46.265083 L375.5056,-41.38849 L375.73035,-53.364445 L375.95505,-47.777912 L376.17978,-42.750034 L376.40448,-38.224945 L376.6292,-50.517258 L376.85394,-45.215446 L377.07864,-40.443813 L377.30338,-36.149345 L377.52808,-48.64922 L377.7528,-43.53421 L377.97754,-38.930702 L378.20224,-34.787544 L378.42697,-31.058702 L378.65167,-27.702745 L378.8764,-24.682384 L379.10114,-21.964058 L379.32584,-19.517565 L379.55057,-17.315722 L379.77527,-31.698957 L380,-28.278975 L380.22473,-25.20099 L380.44943,-38.795696 L380.67416,-34.666042 L380.89886,-47.314243 L381.1236,-42.332733 L381.34833,-54.214268 L381.57303,-48.54275 L381.79776,-43.43839 L382.02246,-38.844463 L382.2472,-51.074825 L382.47192,-45.717255 L382.69662,-40.895443 L382.92136,-36.555813 L383.14606,-32.650143 L383.3708,-29.135042 L383.59552,-25.97145 L383.82022,-23.124218 L384.04495,-20.56171 L384.26965,-34.620346 L384.4944,-30.908224 L384.71912,-43.93221 L384.94382,-39.288902 L385.16855,-35.109924 L385.39325,-31.348845 L385.61798,-27.963873 L385.84268,-24.917398 L386.0674,-22.175571 L386.29214,-36.072823 L386.51685,-32.215454 L386.74158,-28.74382 L386.96628,-41.984245 L387.191,-37.535732 L387.41574,-33.532074 L387.64044,-29.92878 L387.86517,-26.685814 L388.08987,-23.767145 L388.3146,-37.505238 L388.53934,-49.869522 L388.76404,-44.632484 L388.98877,-39.919147 L389.21347,-35.677147 L389.4382,-31.859344 L389.66293,-28.423323 L389.88763,-25.330904 L390.11237,-22.547726 L390.33707,-20.042866 L390.5618,-17.788492 L390.78653,-15.759557 L391.01123,-13.933514 L391.23596,-12.290075 L391.46066,-27.175875 L391.6854,-24.2082 L391.91013,-21.537292 L392.13483,-19.133476 L392.35956,-16.970043 L392.58426,-15.022951 L392.809,-13.270569 L393.03372,-11.693425 L393.25842,-26.63889 L393.48315,-23.724915 L393.70786,-37.467228 L393.9326,-33.47042 L394.15732,-29.873291 L394.38202,-43.00077 L394.60675,-38.450603 L394.83145,-34.355457 L395.05618,-30.669825 L395.28088,-27.352755 L395.5056,-24.367393 L395.73035,-21.680567 L395.95505,-19.262423 L396.17978,-17.086094 L396.40448,-31.49229 L396.6292,-28.092976 L396.85394,-25.03359 L397.07864,-22.280144 L397.30338,-36.16694 L397.52808,-32.300156 L397.7528,-28.820053 L397.97754,-25.687962 L398.20224,-39.23397 L398.42697,-35.06049 L398.65167,-31.304352 L398.8764,-27.92383 L399.10114,-24.881361 L399.32584,-22.143137 L399.55057,-19.678736 L399.77527,-17.460775 L400,-31.829506 L400.22473,-28.396467 L400.44943,-25.306734 L400.67416,-22.525974 L400.89886,-20.023289 L401.1236,-50.50066 L401.34833,-45.20051 L401.57303,-40.43037 L401.79776,-36.137245 L402.02246,-32.273434 L402.2472,-28.796005 L402.47192,-25.666317 L402.69662,-39.214493 L402.92136,-35.042957 L403.14606,-31.288574 L403.3708,-27.90963 L403.59552,-41.233475 L403.82022,-69.58983 L404.04495,-62.380756 L404.26965,-55.892593 L404.4944,-82.783035 L404.71912,-74.25465 L404.94382,-66.579094 L405.16855,-59.671097 L405.39325,-53.4539 L405.61798,-64.22332 L405.84268,-57.5509 L406.0674,-51.545723 L406.29214,-46.141064 L406.51685,-41.27687 L406.74158,-36.899097 L406.96628,-32.9591 L407.191,-45.777996 L407.41574,-40.95011 L407.64044,-69.3348 L407.86517,-62.151234 L408.08987,-55.686024 L408.3146,-82.59712 L408.53934,-74.087326 L408.76404,-66.428505 L408.98877,-59.535564 L409.21347,-53.33192 L409.4382,-47.748642 L409.66293,-42.72369 L409.88763,-38.201237 L410.11237,-34.131023 L410.33707,-30.467836 L410.5618,-27.170965 L410.78653,-24.203781 L411.01123,-21.533316 L411.23596,-51.859688 L411.46066,-46.42363 L411.6854,-41.53118 L411.91013,-37.127975 L412.13483,-33.165092 L412.35956,-29.598495 L412.58426,-26.388557 L412.809,-23.499615 L413.03372,-20.899567 L413.25842,-18.559523 L413.48315,-16.453484 L413.70786,-14.558048 L413.9326,-12.852157 L414.15732,-11.316854 L414.38202,-26.299976 L414.60675,-39.784786 L414.83145,-35.55622 L415.05618,-31.750511 L415.28088,-28.325373 L415.5056,-25.242748 L415.73035,-22.468386 L415.95505,-36.336353 L416.17978,-32.452633 L416.40448,-28.957283 L416.6292,-25.811466 L416.85394,-22.980234 L417.07864,-20.432123 L417.30338,-18.138824 L417.52808,-16.074854 L417.7528,-46.94707 L417.97754,-42.002277 L418.20224,-37.55196 L418.42697,-33.546677 L418.65167,-29.941923 L418.8764,-26.697643 L419.10114,-23.777792 L419.32584,-21.149927 L419.55057,-18.784847 L419.77527,-16.656275 L420,-14.740561 L420.22473,-29.381311 L420.44943,-42.557987 L420.67416,-38.0521 L420.89886,-50.3617 L421.1236,-61.440334 L421.34833,-55.046215 L421.57303,-65.6564 L421.79776,-58.840675 L422.02246,-52.70652 L422.2472,-47.18578 L422.47192,-42.217117 L422.69662,-37.745316 L422.92136,-33.7207 L423.14606,-30.098541 L423.3708,-26.8386 L423.59552,-23.904654 L423.82022,-21.264101 L424.04495,-18.887604 L424.26965,-16.748756 L424.4944,-14.823793 L424.71912,-29.45622 L424.94382,-26.260513 L425.16855,-23.384375 L425.39325,-20.795849 L425.61798,-18.466177 L425.84268,-16.369473 L426.0674,-30.847332 L426.29214,-27.512512 L426.51685,-40.87607 L426.74158,-36.538376 L426.96628,-32.63445 L427.191,-29.120918 L427.41574,-42.323635 L427.64044,-37.841183 L427.86517,-33.806976 L428.08987,-30.176193 L428.3146,-43.27338 L428.53934,-38.695957 L428.76404,-34.576275 L428.98877,-47.23345 L429.21347,-42.26002 L429.4382,-54.148827 L429.66293,-48.483856 L429.88763,-43.385384 L430.11237,-38.796757 L430.33707,-51.03189 L430.5618,-45.67861 L430.78653,-57.22556 L431.01123,-51.25292 L431.23596,-45.877537 L431.46066,-41.039696 L431.6854,-36.68564 L431.91013,-32.76699 L432.13483,-29.240204 L432.35956,-26.066095 L432.58426,-23.2094 L432.809,-20.638372 L433.03372,-34.689342 L433.25842,-47.335217 L433.48315,-42.35161 L433.70786,-37.86636 L433.9326,-33.829636 L434.15732,-30.196585 L434.38202,-26.92684 L434.60675,-23.98407 L434.83145,-37.70047 L435.05618,-33.680336 L435.28088,-30.062214 L435.5056,-26.805906 L435.73035,-23.875229 L435.95505,-21.23762 L436.17978,-18.86377 L436.40448,-16.727306 L436.6292,-63.89917 L436.85394,-57.259167 L437.07864,-67.648056 L437.30338,-60.633163 L437.52808,-54.31976 L437.7528,-65.002594 L437.97754,-58.252247 L438.20224,-52.176933 L438.42697,-46.709152 L438.65167,-41.78815 L438.8764,-37.35925 L439.10114,-33.373238 L439.32584,-29.785826 L439.55057,-42.92205 L439.77527,-38.37976 L440,-34.291695 L440.22473,-30.61244 L440.44943,-109.12558 L440.67416,-163.42252 L440.89886,-146.83017 L441.1236,-131.89706 L441.34833,-118.457275 L441.57303,-106.36146 L441.79776,-95.47523 L442.02246,-85.67762 L442.2472,-76.85977 L442.47192,-68.923706 L442.69662,-61.781246 L442.92136,-55.353035 L443.14606,-65.93254 L443.3708,-59.0892 L443.59552,-69.29508 L443.82022,-78.480385 L444.04495,-70.382256 L444.26965,-79.45884 L444.4944,-71.26287 L444.71912,-63.886494 L444.94382,-57.247757 L445.16855,-51.272896 L445.39325,-45.89552 L445.61798,-41.05588 L445.84268,-53.065098 L446.0674,-80.23829 L446.29214,-71.96438 L446.51685,-64.51785 L446.74158,-57.81598 L446.96628,-51.784294 L447.191,-46.355778 L447.41574,-41.47011 L447.64044,-37.073013 L447.86517,-33.115627 L448.08987,-29.553976 L448.3146,-42.713387 L448.53934,-38.19196 L448.76404,-50.48757 L448.98877,-45.18873 L449.21347,-40.419765 L449.4382,-36.127705 L449.66293,-48.62974 L449.88763,-92.61136 L450.11237,-99.465034 L450.33707,-121.99823 L450.5618,-125.913216 L450.78653,-113.07181 L451.01123,-101.51454 L451.23596,-91.113 L451.46066,-81.75161 L451.6854,-73.32636 L451.91013,-65.74364 L452.13483,-58.91919 L452.35956,-52.777184 L452.58426,-47.24938 L452.809,-42.274353 L453.03372,-37.79683 L453.25842,-33.76706 L453.48315,-30.140266 L453.70786,-26.876154 L453.9326,-23.938452 L454.15732,-37.659412 L454.38202,-33.643383 L454.60675,-30.02896 L454.83145,-26.775976 L455.05618,-23.848291 L455.28088,-21.213375 L455.5056,-18.841951 L455.73035,-16.707668 L455.95505,-14.786815 L456.17978,-13.058046 L456.40448,-11.502155 L456.6292,-10.101852 L456.85394,-25.206474 L457.07864,-22.43574 L457.30338,-19.94208 L457.52808,-17.697784 L457.7528,-48.407707 L457.97754,-43.31685 L458.20224,-38.735077 L458.42697,-34.61148 L458.65167,-30.900248 L458.8764,-27.560135 L459.10114,-24.554035 L459.32584,-54.57833 L459.55057,-48.87041 L459.77527,-43.733284 L460,-39.109867 L460.22473,-34.948795 L460.44943,-31.203829 L460.67416,-27.833359 L460.89886,-24.799936 L461.1236,-38.43475 L461.34833,-34.341187 L461.57303,-30.656982 L461.79776,-27.341196 L462.02246,-24.356989 L462.2472,-21.671204 L462.47192,-19.253996 L462.69662,-66.173195 L462.92136,-59.305786 L463.14606,-53.125122 L463.3708,-47.562523 L463.59552,-42.556183 L463.82022,-38.050476 L464.04495,-33.995342 L464.26965,-30.34572 L464.4944,-27.061062 L464.71912,-24.104868 L464.94382,-37.80919 L465.16855,-33.778183 L465.39325,-30.150278 L465.61798,-26.885162 L465.84268,-23.94656 L466.0674,-21.301817 L466.29214,-18.921549 L466.51685,-16.779306 L466.74158,-14.851289 L466.96628,-13.116073 L467.191,-27.919273 L467.41574,-24.877258 L467.64044,-22.139446 L467.86517,-19.675413 L468.08987,-17.457785 L468.3146,-15.46192 L468.53934,-79.12522 L468.76404,-70.96261 L468.98877,-79.981155 L469.21347,-71.732956 L469.4382,-64.30957 L469.66293,-57.628525 L469.88763,-51.615585 L470.11237,-46.20394 L470.33707,-57.698353 L470.5618,-51.678432 L470.78653,-46.2605 L471.01123,-41.384365 L471.23596,-36.995842 L471.46066,-33.04617 L471.6854,-29.491467 L471.91013,-26.292233 L472.13483,-39.777817 L472.35956,-35.549946 L472.58426,-31.744865 L472.809,-28.320292 L473.03372,-25.238176 L473.25842,-22.464272 L473.48315,-36.332653 L473.70786,-48.814194 L473.9326,-43.682686 L474.15732,-55.429226 L474.38202,-66.001114 L474.60675,-59.150913 L474.83145,-52.985733 L475.05618,-47.437073 L475.28088,-58.808174 L475.5056,-52.67727 L475.73035,-47.159454 L475.95505,-42.193424 L476.17978,-54.088886 L476.40448,-48.429913 L476.6292,-43.336834 L476.85394,-38.753063 L477.07864,-34.62767 L477.30338,-30.914816 L477.52808,-27.573248 L477.7528,-40.93073 L477.97754,-36.58757 L478.20224,-49.04362 L478.42697,-43.88917 L478.65167,-39.250168 L478.8764,-51.439957 L479.10114,-46.045876 L479.32584,-57.556095 L479.55057,-51.550396 L479.77527,-46.14527 L480,-41.28066" fill="none" stroke="black" stroke-linejoin="round" stroke-width="2"/>
</g>
</g>
<g>
<g>
<line stroke="black" stroke-width="1" x1="0" x2="0" y1="0" y2="10"/>
<line stroke="black" stroke-width="1" x1="89.88764044943821" x2="89.88764044943821" y1="0" y2="10"/>
<line stroke="black" stroke-width="1" x1="179.77528089887642" x2="179.77528089887642" y1="0" y2="10"/>
<line stroke="black" stroke-width="1" x1="269.6629213483146" x2="269.6629213483146" y1="0" y2="10"/>
<line stroke="black" stroke-width="1" x1="359.55056179775283" x2="359.55056179775283" y1="0" y2="10"/>
<line stroke="black" stroke-width="1" x1="449.438202247191" x2="449.438202247191" y1="0" y2="10"/>
</g>
<line stroke="black" stroke-width="1" x1="0" x2="480" y1="0" y2="0"/>
<g>
<text font-size="12" text-anchor="middle" x="0" y="20">
0
</text>
<text font-size="12" text-anchor="middle" x="89.88764044943821" y="20">
400
</text>
<text font-size="12" text-anchor="middle" x="179.77528089887642" y="20">
800
</text>
<text font-size="12" text-anchor="middle" x="269.6629213483146" y="20">
1200
</text>
<text font-size="12" text-anchor="middle" x="359.55056179775283" y="20">
1600
</text>
<text font-size="12" text-anchor="middle" x="449.438202247191" y="20">
2000
</text>
</g>
<text font-size="12" text-anchor="middle" x="240" y="30">

</text>
</g>
<g>
<g>
<line stroke="black" stroke-width="1" x1="0" x2="-10" y1="0.00031429672493867624" y2="0.00031429672493867624"/>
<line stroke="black" stroke-width="1" x1="0" x2="-10" y1="-81.82415656337578" y2="-81.82415656337578"/>
<line stroke="black" stroke-width="1" x1="0" x2="-10" y1="-163.6486274234765" y2="-163.6486274234765"/>
<line stroke="black" stroke-width="1" x1="0" x2="-10" y1="-245.47309828357723" y2="-245.47309828357723"/>
<line stroke="black" stroke-width="1" x1="0" x2="-10" y1="-327.2975691436779" y2="-327.2975691436779"/>
</g>
<line stroke="black" stroke-width="1" x1="0" x2="0" y1="0" y2="-340"/>
<g>
<text dominant-baseline="middle" font-size="12" text-anchor="end" x="-15" y="0.00031429672493867624">
4.03056
</text>
<text dominant-baseline="middle" font-size="12" text-anchor="end" x="-15" y="-81.82415656337578">
5.03056
</text>
<text dominant-baseline="middle" font-size="12" text-anchor="end" x="-15" y="-163.6486274234765">
6.03056
</text>
<text dominant-baseline="middle" font-size="12" text-anchor="end" x="-15" y="-245.47309828357723">
7.03056
</text>
<text dominant-baseline="middle" font-size="12" text-anchor="end" x="-15" y="-327.2975691436779">
8.03056
</text>
</g>
<text font-size="12" text-anchor="middle" transform="rotate(-90 -84 -170)" x="-84" y="-182">

</text>
</g>
</g>
</svg>