<svg viewBox="0 0 600 400" xmlns="http://www.w3.org/2000/svg">
<g transform="translate(72, 364)">
<g>
<g>
<path d="M0,-198.54774 L0,-198.54774 L0.46021092,-236.06053 L0.92042184,-276.03964 L1.3806328,-340 L1.8408437,-310.51804 L2.3010547,-279.83923 L2.7612655,-256.37335 L3.2214766,-245.61673 L3.6816874,-235.93576 L4.141898,-214.7877 L4.6021094,-199.8995 L5.06232,-178.21002 L5.522531,-158.68948 L5.9827423,-157.70123 L6.442953,-160.95686 L6.903164,-149.37924 L7.3633747,-136.88683 L7.823586,-133.93379 L8.283796,-120.9134 L8.744008,-127.847824 L9.204219,-117.50856 L9.66443,-124.78347 L10.12464,-120.96823 L10.584851,-138.25983 L11.045062,-122.7343 L11.505273,-131.55916 L11.965485,-131.21141 L12.425695,-116.39073 L12.885906,-115.487305 L13.346117,-145.76216 L13.806328,-143.99413 L14.266539,-142.40288 L14.726749,-134.75317 L15.18696,-149.63 L15.647172,-137.11252 L16.107382,-123.77426 L16.567593,-115.91489 L17.027805,-112.98651 L17.488016,-108.278435 L17.948227,-95.75105 L18.408438,-86.54894 L18.868649,-98.99234 L19.32886,-89.466095 L19.78907,-80.89247 L20.24928,-81.46634 L20.709492,-75.76522 L21.169703,-70.634224 L21.629913,-70.16138 L22.090124,-104.968834 L22.550335,-96.91747 L23.010546,-129.04932 L23.470757,-126.88003 L23.93097,-114.56502 L24.39118,-107.626564 L24.85139,-95.16437 L25.311602,-129.54405 L25.771812,-123.18023 L26.232023,-142.32315 L26.692234,-145.04407 L27.152445,-159.92807 L27.612656,-167.1061 L28.072866,-150.76846 L28.533077,-142.28221 L28.993288,-161.58746 L29.453499,-158.23688 L29.91371,-144.85872 L30.37392,-145.25354 L30.834133,-129.02866 L31.294344,-114.42625 L31.754555,-101.28408 L32.214764,-97.746254 L32.674976,-92.48968 L33.135185,-83.6137 L33.595398,-79.77038 L34.05561,-76.31139 L34.51582,-66.98071 L34.976032,-60.655632 L35.43624,-59.10812 L35.896454,-51.49777 L36.356663,-48.79351 L36.816875,-48.43221 L37.277084,-41.88945 L37.737297,-36.000965 L38.197506,-36.91892 L38.65772,-31.527487 L39.117928,-45.32797 L39.57814,-43.240692 L40.03835,-39.289616 L40.49856,-33.661114 L40.958775,-29.631725 L41.418983,-24.969013 L41.879196,-20.772572 L42.339405,-19.068304 L42.799618,-15.461934 L43.259827,-18.433792 L43.72004,-27.326054 L44.18025,-24.966438 L44.64046,-22.842785 L45.10067,-20.931496 L45.560883,-17.138807 L46.02109,-19.942976 L46.481304,-22.46673 L46.941513,-22.665577 L47.401726,-24.91707 L47.86194,-20.725822 L48.322147,-43.89659 L48.78236,-44.024982 L49.24257,-48.285595 L49.70278,-54.192677 L50.16299,-55.36399 L50.623203,-48.12805 L51.083412,-51.97836 L51.543625,-51.298573 L52.003834,-44.469173 L52.464046,-50.7579 L52.924255,-50.20016 L53.384468,-57.988316 L53.844677,-60.852592 L54.30489,-55.140324 L54.765102,-72.79711 L55.22531,-63.817863 L55.685524,-57.809067 L56.145733,-56.54621 L56.605946,-49.19205 L57.066154,-57.081017 L57.526367,-84.90639 L57.986576,-130.67453 L58.44679,-128.34271 L58.906998,-113.8089 L59.36721,-158.75932 L59.82742,-141.18385 L60.287632,-133.65604 L60.74784,-126.88102 L61.208054,-116.638435 L61.668266,-105.34758 L62.128475,-101.403404 L62.588688,-95.78111 L63.048897,-90.721054 L63.50911,-113.10989 L63.96932,-104.24442 L64.42953,-94.19297 L64.88974,-97.58185 L65.34995,-92.34171 L65.810165,-81.408 L66.27037,-73.64019 L66.73058,-72.86675 L67.190796,-63.880535 L67.65101,-68.22813 L68.11122,-63.850834 L68.57143,-55.76621 L69.03164,-48.490047 L69.49185,-44.014034 L69.952065,-37.91309 L70.41227,-32.42224 L70.87248,-31.625536 L71.332695,-28.835974 L71.79291,-26.325367 L72.25311,-21.99329 L72.713326,-22.239481 L73.17354,-30.751173 L73.63375,-28.049047 L74.093956,-27.689663 L74.55417,-29.438747 L75.01438,-24.795332 L75.474594,-30.97891 L75.93481,-28.25401 L76.39501,-29.94666 L76.855225,-31.470043 L77.31544,-28.69603 L77.77565,-26.199415 L78.235855,-21.879934 L78.69607,-24.209991 L79.15628,-22.161982 L79.61649,-18.246244 L80.0767,-27.15726 L80.53691,-26.887054 L80.99712,-22.49881 L81.45734,-24.76698 L81.91755,-20.59074 L82.377754,-18.904657 L82.83797,-15.3146515 L83.29818,-12.083646 L83.75839,-9.175741 L84.2186,-14.848748 L84.67881,-13.736863 L85.13902,-16.881227 L85.599236,-17.638624 L86.05944,-28.682934 L86.51965,-44.8404 L86.979866,-42.801884 L87.44008,-36.822155 L87.90029,-31.4404 L88.3605,-26.596819 L88.82071,-24.310127 L89.28092,-26.397165 L89.741135,-24.130438 L90.20134,-22.090385 L90.66155,-18.181807 L91.121765,-14.664085 L91.58198,-21.860788 L92.04218,-17.975168 L92.502396,-24.840763 L92.96261,-20.657146 L93.42282,-21.036953 L93.883026,-17.233717 L94.34324,-15.883335 L94.80345,-12.595462 L95.263664,-15.853966 L95.72388,-12.56903 L96.18408,-9.612586 L96.644295,-9.024318 L97.10451,-6.422346 L97.56472,-6.1531014 L98.024925,-3.838251 L98.48514,-7.9724765 L98.94535,-17.91087 L99.40556,-14.420243 L99.86577,-13.351209 L100.32598,-12.389078 L100.786194,-19.813282 L101.24641,-16.132414 L101.70662,-12.819632 L102.166824,-9.838128 L102.62704,-11.299836 L103.08725,-22.978024 L103.54746,-18.98068 L104.00767,-17.455603 L104.46788,-18.155563 L104.92809,-14.640467 L105.388306,-15.621941 L105.84851,-12.360207 L106.30872,-11.497176 L106.768936,-10.7204485 L107.22915,-7.9488635 L107.689354,-11.672028 L108.14957,-8.8052845 L108.60978,-6.225216 L109.06999,-3.9031544 L109.530205,-1.8132988 L109.99041,-2.004959 L110.45062,-0.10492308 L110.910835,-4.612481 L111.37105,-16.959404 L111.83125,-15.636455 L112.291466,-16.51833 L112.75168,-17.312017 L113.21189,-18.026335 L113.6721,-16.596691 L114.13231,-19.455072 L114.59252,-15.810026 L115.052734,-14.602014 L115.51295,-11.442272 L115.97315,-10.671035 L116.433365,-18.267042 L116.89358,-16.813328 L117.35379,-13.432455 L117.813995,-10.389669 L118.27421,-15.941283 L118.73442,-12.6476145 L119.19463,-11.755843 L119.65484,-29.606022 L120.11505,-31.16347 L120.575264,-26.347582 L121.03548,-26.158344 L121.49568,-34.278152 L121.955894,-35.368385 L122.41611,-38.42213 L122.87632,-39.097965 L123.33653,-39.70622 L123.79674,-34.036057 L124.25695,-33.077972 L124.71716,-28.070635 L125.177376,-27.709091 L125.63758,-23.238644 L126.09779,-23.360298 L126.55801,-27.61485 L127.01822,-23.153824 L127.478424,-19.138903 L127.93864,-15.525472 L128.39885,-12.273384 L128.85905,-9.346506 L129.31927,-10.857376 L129.77948,-16.362219 L130.2397,-19.244047 L130.6999,-19.765163 L131.16011,-18.161636 L131.62033,-16.718464 L132.08054,-21.637197 L132.54074,-19.846468 L133.00096,-16.162281 L133.46117,-24.24543 L133.92139,-20.121346 L134.38159,-16.409672 L134.8418,-19.286755 L135.30202,-21.87613 L135.76222,-30.424158 L136.22244,-29.827263 L136.68265,-27.217525 L137.14285,-35.231415 L137.60307,-50.734035 L138.06328,-52.251213 L138.52348,-53.616673 L138.9837,-48.627995 L139.44391,-50.355778 L139.90413,-49.83825 L140.36433,-49.372475 L140.82454,-90.403885 L141.28476,-127.332146 L141.74496,-119.11698 L142.20518,-128.30357 L142.66539,-128.28139 L143.1256,-126.188896 L143.58582,-118.08806 L144.04602,-114.94236 L144.50623,-105.89365 L144.96645,-95.67727 L145.42665,-90.627594 L145.88687,-123.38843 L146.34708,-119.7127 L146.80728,-130.91225 L147.2675,-118.194016 L147.7277,-117.11025 L148.18791,-103.69969 L148.64813,-91.63018 L149.10834,-89.05774 L149.56856,-78.45243 L150.02876,-73.052704 L150.48897,-64.0479 L150.94919,-55.943565 L151.4094,-52.794727 L151.86961,-45.815716 L152.32982,-39.534603 L152.79002,-42.171726 L153.25024,-40.400074 L153.71045,-36.733055 L154.17065,-45.86792 L154.63087,-39.58159 L155.09108,-35.99642 L155.5513,-51.42254 L156.0115,-44.580746 L156.47171,-38.42313 L156.93193,-39.09887 L157.39214,-33.48944 L157.85236,-30.513487 L158.31256,-29.90766 L158.77277,-33.507473 L159.23299,-36.747307 L159.69319,-31.373037 L160.1534,-28.608723 L160.61362,-26.12084 L161.07382,-28.026808 L161.53404,-31.814707 L161.99425,-35.223816 L162.45445,-48.654667 L162.91467,-46.234722 L163.37488,-39.91171 L163.8351,-34.220997 L164.2953,-31.171888 L164.75551,-26.35516 L165.21573,-28.237694 L165.67593,-32.004505 L166.13614,-31.249575 L166.59636,-40.93279 L167.05656,-39.28503 L167.51678,-48.1647 L167.97699,-41.64869 L168.4372,-37.85681 L168.89742,-32.37159 L169.35762,-29.50742 L169.81784,-37.29232 L170.27805,-42.2262 L170.73825,-50.81175 L171.19847,-46.103565 L171.65868,-41.8662 L172.11888,-35.980038 L172.5791,-32.755024 L173.0393,-27.779982 L173.49953,-39.882687 L173.95973,-34.194878 L174.41994,-31.14838 L174.88016,-28.406532 L175.34036,-28.011398 L175.80058,-23.51072 L176.26079,-19.460106 L176.721,-32.3948 L177.18121,-31.600838 L177.64142,-26.741215 L178.10162,-22.367552 L178.56184,-28.79391 L179.02205,-34.57763 L179.48227,-33.565388 L179.94247,-30.581837 L180.40268,-27.896645 L180.8629,-23.40744 L181.3231,-23.512217 L181.78331,-21.533985 L182.24353,-17.681046 L182.70374,-22.503523 L183.16396,-22.69869 L183.62416,-20.801811 L184.08437,-19.09462 L184.54459,-15.485618 L185.00479,-18.455107 L185.46501,-27.345238 L185.92522,-35.346355 L186.38542,-32.184708 L186.84564,-47.992 L187.30585,-53.92844 L187.76605,-46.836056 L188.22627,-48.74303 L188.68648,-42.16919 L189.1467,-36.25273 L189.6069,-35.07298 L190.06711,-31.93867 L190.52733,-29.117792 L190.98753,-30.724064 L191.44775,-25.952118 L191.90796,-25.802425 L192.36816,-21.522644 L192.82838,-25.96096 L193.28859,-25.810385 L193.7488,-21.529806 L194.20901,-17.677284 L194.66922,-18.355076 L195.12944,-18.96509 L195.58965,-31.949282 L196.04985,-27.054813 L196.51007,-24.722322 L196.97028,-22.623081 L197.4305,-18.661232 L197.8907,-17.168098 L198.3509,-13.751749 L198.81113,-16.894625 L199.27133,-21.795742 L199.73154,-17.916628 L200.19176,-28.933138 L200.65196,-26.412813 L201.11218,-22.071993 L201.57239,-18.165253 L202.0326,-16.721718 L202.49281,-13.350006 L202.95302,-12.387996 L203.41324,-13.594716 L203.87344,-12.608234 L204.33365,-9.647871 L204.79387,-9.056074 L205.25407,-6.4509263 L205.71428,-4.1062937 L206.1745,-6.141185 L206.6347,-18.335238 L207.09492,-14.802174 L207.55513,-15.767477 L208.01534,-12.491189 L208.47556,-9.54253 L208.93576,-15.178858 L209.39597,-14.033962 L209.85619,-10.9310255 L210.31639,-20.573565 L210.77661,-25.106789 L211.23682,-29.186691 L211.69702,-26.641012 L212.15724,-28.49496 L212.61745,-23.945925 L213.07767,-26.069384 L213.53787,-23.835434 L213.99808,-19.752352 L214.4583,-22.295166 L214.9185,-20.43864 L215.37871,-18.767767 L215.83893,-17.263979 L216.29913,-17.983103 L216.75935,-18.630312 L217.21956,-15.06774 L217.67976,-11.861426 L218.13998,-15.193335 L218.60019,-14.046991 L219.06041,-13.015282 L219.52061,-14.159274 L219.98082,-11.043807 L220.44104,-10.312416 L220.90125,-7.5816345 L221.36145,-7.196461 L221.82167,-10.994865 L222.28188,-14.413429 L222.7421,-11.272547 L223.2023,-8.445752 L223.6625,-5.9016366 L224.12273,-3.6119328 L224.58293,-3.6237295 L225.04315,-5.7068768 L225.50336,-7.5817094 L225.96356,-15.4866495 L226.42378,-14.310975 L226.88399,-17.397928 L227.3442,-28.466307 L227.80441,-25.992666 L228.26462,-25.838919 L228.72484,-23.628017 L229.18504,-19.565676 L229.64525,-17.982098 L230.10547,-18.62941 L230.56567,-15.066928 L231.0259,-13.933226 L231.4861,-14.985423 L231.9463,-22.149992 L232.40652,-28.598103 L232.86673,-24.038754 L233.32693,-19.935337 L233.78716,-28.677444 L234.24736,-28.25522 L234.70758,-23.730158 L235.16779,-19.657602 L235.62799,-18.064833 L236.08821,-24.921461 L236.54842,-20.729774 L237.00864,-16.957256 L237.46884,-13.561991 L237.92905,-10.506251 L238.38927,-16.046207 L238.84947,-12.742046 L239.30968,-20.130953 L239.7699,-18.490847 L240.2301,-19.087282 L240.69032,-19.624075 L241.15053,-18.034658 L241.61073,-14.5316515 L242.07095,-15.524007 L242.53116,-12.272066 L242.99136,-17.63544 L243.45158,-14.172357 L243.91179,-19.345701 L244.37201,-15.711591 L244.83221,-14.513422 L245.29242,-11.362539 L245.75264,-8.526746 L246.21284,-12.1921215 L246.67307,-11.3459 L247.13327,-10.5843 L247.59348,-7.8263297 L248.0537,-17.779337 L248.5139,-30.882105 L248.9741,-32.311947 L249.43433,-29.453741 L249.89453,-31.026417 L250.35475,-26.224236 L250.81496,-23.974802 L251.27516,-19.877783 L251.73538,-16.190464 L252.19559,-14.944407 L252.6558,-15.895487 L253.11601,-12.606399 L253.57622,-13.791279 L254.03644,-21.075262 L254.49664,-21.413256 L254.95685,-19.64492 L255.41707,-36.706192 L255.87727,-49.988804 L256.3375,-53.653034 L256.7977,-48.66072 L257.2579,-42.095108 L257.7181,-38.258587 L258.17834,-36.87825 L258.63855,-37.708473 L259.09875,-34.310616 L259.55896,-33.325077 L260.01917,-32.438087 L260.4794,-39.92992 L260.9396,-38.38245 L261.3998,-45.279846 L261.86002,-51.487503 L262.32022,-44.639214 L262.78043,-40.54828 L263.24066,-45.156563 L263.70087,-47.231487 L264.16107,-51.17145 L264.62128,-46.427296 L265.08148,-40.085026 L265.54172,-38.522045 L266.00192,-39.18789 L266.46213,-35.64209 L266.92233,-32.45087 L267.38254,-29.578775 L267.84277,-47.71919 L268.30298,-43.32026 L268.76318,-39.361225 L269.2234,-33.725563 L269.6836,-28.653465 L270.14383,-26.16111 L270.60403,-23.917988 L271.06424,-21.89918 L271.52444,-18.009722 L271.98465,-14.50921 L272.4449,-17.57634 L272.9051,-18.264225 L273.3653,-14.738263 L273.8255,-15.709957 L274.2857,-14.511951 L274.7459,-11.361216 L275.20615,-16.815676 L275.66635,-13.434567 L276.12656,-16.609161 L276.58676,-17.393766 L277.04697,-16.02738 L277.5072,-12.725101 L277.9674,-11.825581 L278.4276,-8.943482 L278.88782,-6.3495946 L279.34802,-4.0150948 L279.80826,-3.9865756 L280.26846,-1.8883779 L280.72867,-0 L281.18887,-8.663111 L281.64908,-8.16979 L282.1093,-18.088451 L282.56952,-16.652597 L283.02972,-15.360328 L283.48993,-14.197285 L283.95013,-11.078016 L284.41037,-8.270675 L284.87057,-5.7440667 L285.33078,-3.4701202 L285.791,-7.6411586 L286.2512,-5.1775026 L286.7114,-2.9602122 L287.17163,-11.327302 L287.63184,-10.567562 L288.09204,-14.028856 L288.55225,-15.071491 L289.01245,-11.864801 L289.4727,-8.978782 L289.9329,-8.453894 L290.3931,-18.344145 L290.8533,-14.81019 L291.3135,-13.702162 L291.77374,-10.632405 L292.23395,-7.8696246 L292.69415,-9.528183 L293.15436,-11.0208845 L293.61456,-12.364317 L294.0748,-13.573405 L294.535,-10.516524 L294.9952,-9.837862 L295.4554,-7.154536 L295.91562,-4.739542 L296.37582,-17.07376 L296.83606,-13.666843 L297.29626,-12.673149 L297.75647,-15.923884 L298.21667,-16.777016 L298.67688,-17.544836 L299.13712,-26.525993 L299.59732,-28.391443 L300.05753,-32.14288 L300.51773,-27.229052 L300.97794,-24.879137 L301.43817,-26.909273 L301.89838,-24.591337 L302.35858,-20.432663 L302.8188,-16.689857 L303.279,-15.393861 L303.73923,-14.227465 L304.19943,-17.32277 L304.65964,-24.253603 L305.11984,-32.563885 L305.58005,-27.607956 L306.04028,-23.14762 L306.5005,-33.64103 L306.9607,-30.649916 L307.4209,-32.102974 L307.8811,-27.193138 L308.3413,-31.064405 L308.80154,-33.51228 L309.26175,-32.60657 L309.72195,-27.646376 L310.18216,-33.54485 L310.64236,-36.780945 L311.1026,-43.83849 L311.5628,-39.827633 L312.023,-54.870632 L312.48322,-49.756557 L312.94342,-49.298954 L313.40366,-73.75747 L313.86386,-81.26243 L314.32407,-77.654236 L314.78427,-68.18927 L315.24448,-59.670803 L315.7047,-60.294304 L316.16492,-69.14558 L316.62512,-68.821594 L317.08533,-64.38496 L317.54553,-62.46451 L318.00577,-56.591053 L318.46597,-96.900604 L318.92618,-108.30883 L319.38638,-116.503716 L319.8466,-105.22633 L320.3068,-124.09211 L320.76703,-136.92625 L321.22723,-133.96927 L321.68744,-120.94533 L322.14764,-115.441376 L322.60785,-110.48782 L323.06808,-103.95709 L323.5283,-122.94979 L323.9885,-123.46299 L324.4487,-111.48968 L324.9089,-113.14888 L325.36914,-106.35204 L325.82935,-94.017296 L326.28955,-84.988556 L326.74976,-76.86269 L327.20996,-73.69447 L327.6702,-66.69802 L328.1304,-58.328674 L328.5906,-54.94133 L329.0508,-51.892715 L329.51102,-45.003902 L329.97122,-47.094093 L330.43146,-44.830204 L330.89166,-38.647644 L331.35187,-37.2284 L331.81207,-38.02361 L332.27228,-32.52171 L332.7325,-27.569998 L333.19272,-29.331049 L333.65292,-37.133587 L334.11313,-31.720688 L334.57333,-30.994139 L335.03357,-28.267715 L335.49377,-34.104053 L335.95398,-31.066639 L336.41418,-30.405495 L336.8744,-29.810467 L337.33463,-37.56506 L337.79483,-38.326607 L338.25504,-36.939465 L338.71524,-31.545979 L339.17545,-30.8369 L339.63568,-34.343792 L340.0959,-29.209873 L340.5561,-24.589344 L341.0163,-24.575932 L341.4765,-26.636389 L341.9367,-24.34574 L342.39694,-30.574276 L342.85715,-27.88984 L343.31735,-23.401316 L343.77756,-21.434174 L344.23776,-19.663746 L344.698,-22.215422 L345.1582,-24.51193 L345.6184,-22.433727 L346.0786,-22.635876 L346.53882,-20.745277 L346.99905,-31.478922 L347.45926,-32.84908 L347.91946,-36.15475 L348.37967,-30.839737 L348.83987,-28.128754 L349.3001,-31.90646 L349.7603,-27.016273 L350.22052,-22.615105 L350.68073,-22.799116 L351.14093,-20.892195 L351.60117,-21.248495 L352.06137,-17.424105 L352.52158,-18.127214 L352.98178,-14.614953 L353.442,-15.598978 L353.9022,-18.55713 L354.36243,-15.001878 L354.82263,-40.817574 L355.28284,-35.036274 L355.74304,-31.905638 L356.20325,-31.160595 L356.66348,-36.707645 L357.1237,-31.337341 L357.5839,-26.504066 L358.0441,-34.589302 L358.5043,-29.430832 L358.96454,-28.933268 L359.42474,-28.485462 L359.88495,-30.154966 L360.34515,-29.58499 L360.80536,-26.999481 L361.2656,-24.672523 L361.7258,-24.650791 L362.186,-22.558702 L362.6462,-18.603292 L363.1064,-23.333544 L363.56662,-23.44571 L364.02686,-19.401598 L364.48706,-30.26961 L364.94727,-25.543108 L365.40747,-21.289257 L365.86768,-17.460793 L366.3279,-16.087704 L366.78812,-18.996983 L367.24832,-15.397745 L367.70853,-16.30349 L368.16873,-12.973601 L368.62897,-16.194292 L369.08917,-14.947853 L369.54938,-13.826057 L370.00958,-14.888972 L370.4698,-13.773065 L370.93002,-10.6962185 L371.39023,-26.579828 L371.85043,-22.222305 L372.31064,-22.445595 L372.77084,-37.154266 L373.23108,-35.88436 L373.69128,-30.596384 L374.1515,-25.837206 L374.6117,-23.626476 L375.0719,-29.926939 L375.5321,-25.234705 L375.99234,-21.011694 L376.45255,-21.356045 L376.91275,-25.811022 L377.37296,-23.60291 L377.83316,-25.76067 L378.2934,-23.557592 L378.7536,-21.574823 L379.2138,-28.080452 L379.674,-23.572866 L380.13422,-27.80616 L380.59445,-23.326004 L381.05466,-23.438925 L381.51486,-23.540552 L381.97507,-33.994667 L382.43527,-28.895662 L382.8955,-28.451616 L383.3557,-25.979445 L383.81592,-23.75449 L384.27612,-21.752031 L384.73633,-19.949818 L385.19653,-18.327826 L385.65677,-21.013094 L386.11697,-27.574896 L386.57718,-25.190395 L387.03738,-29.261938 L387.4976,-24.636204 L387.95782,-24.618103 L388.41803,-22.529284 L388.87823,-18.576815 L389.33844,-19.164654 L389.79865,-19.693708 L390.25888,-17.061062 L390.7191,-15.727946 L391.1793,-14.528142 L391.6395,-19.665909 L392.0997,-18.072308 L392.55994,-14.5655365 L393.02014,-23.844624 L393.48035,-44.630985 L393.94055,-48.830997 L394.40076,-50.53848 L394.861,-54.14774 L395.3212,-76.04885 L395.7814,-68.816956 L396.2416,-62.30825 L396.7018,-56.450417 L397.16202,-59.468483 L397.62225,-58.03969 L398.08246,-60.89883 L398.54266,-86.26989 L399.00287,-75.94336 L399.46307,-79.08466 L399.9233,-75.69425 L400.3835,-80.933 L400.84372,-73.212685 L401.30392,-64.19188 L401.76413,-122.39412 L402.22437,-122.962875 L402.68457,-125.54729 L403.14478,-121.65567 L403.60498,-114.008156 L404.0652,-115.41551 L404.52542,-131.18985 L404.98563,-149.5318 L405.44583,-132.87907 L405.90604,-136.5444 L406.36624,-127.40801 L406.82648,-119.185265 L407.28668,-107.639725 L407.7469,-95.176216 L408.2071,-83.95905 L408.6673,-78.00867 L409.1275,-70.580795 L409.58774,-70.1133 L410.04794,-63.474953 L410.50815,-55.427917 L410.96835,-48.185585 L411.42856,-47.88508 L411.8888,-47.61462 L412.349,-41.153618 L412.8092,-60.20908 L413.2694,-52.488632 L413.7296,-55.902878 L414.18985,-52.75811 L414.65005,-49.927822 L415.11026,-43.2355 L415.57047,-37.21241 L416.03067,-40.08175 L416.4909,-53.026806 L416.9511,-46.024586 L417.41132,-39.722588 L417.87152,-34.05079 L418.33173,-28.946169 L418.79193,-26.424541 L419.25217,-28.300138 L419.71237,-34.133236 L420.17258,-31.092901 L420.63278,-26.284071 L421.093,-24.028654 L421.55322,-21.99878 L422.01343,-18.099361 L422.47363,-18.734945 L422.93384,-15.161911 L423.39404,-14.01871 L423.85428,-15.062359 L424.31448,-13.929113 L424.7747,-23.271843 L425.2349,-21.31765 L425.6951,-19.558874 L426.15533,-17.975977 L426.61554,-18.6239 L427.07574,-15.06197 L427.53595,-13.928762 L427.99615,-10.836347 L428.4564,-10.125702 L428.9166,-9.486122 L429.3768,-6.8379693 L429.837,-4.4546323 L430.2972,-10.59975 L430.75742,-11.985295 L431.21765,-11.159756 L431.67786,-14.5618305 L432.13806,-13.478638 L432.59827,-12.503764 L433.05847,-11.626378 L433.5187,-12.909261 L433.9789,-11.991324 L434.43912,-27.745424 L434.89932,-33.63399 L435.35953,-28.571053 L435.81976,-24.014408 L436.27997,-19.913427 L436.74017,-18.295074 L437.20038,-14.7660265 L437.66058,-13.662415 L438.12082,-10.596633 L438.58102,-7.837429 L439.04123,-7.4266763 L439.50143,-13.27459 L439.96164,-10.24759 L440.42188,-11.668352 L440.88208,-15.0195675 L441.3423,-11.81807 L441.8025,-17.226845 L442.2627,-26.239801 L442.7229,-26.06134 L443.18314,-21.755667 L443.64334,-17.88056 L444.10355,-24.755615 L444.56375,-20.580513 L445.02396,-20.967983 L445.4842,-21.316704 L445.9444,-19.558023 L446.4046,-17.975212 L446.8648,-14.47815 L447.325,-11.330795 L447.78525,-10.570706 L448.24545,-11.959156 L448.70566,-11.13623 L449.16586,-8.323067 L449.62607,-9.93628 L450.0863,-9.315642 L450.5465,-17.04719 L451.0067,-44.730885 L451.46692,-53.065968 L451.92712,-46.05983 L452.38733,-43.89937 L452.84756,-54.390133 L453.30777,-61.75929 L453.76797,-58.02888 L454.22818,-56.744045 L454.6884,-51.44263 L455.14862,-46.671356 L455.60883,-42.377213 L456.06903,-40.58501 L456.52924,-34.82697 L456.98944,-31.717262 L457.44968,-28.918526 L457.90988,-24.327133 L458.3701,-40.92018 L458.8303,-41.346214 L459.2905,-35.512054 L459.75073,-34.40637 L460.21094,-31.338722 L460.67114,-26.505308 L461.13135,-32.51789 L461.59155,-29.63909 L462.0518,-33.265762 L462.512,-30.312176 L462.9722,-29.726479 L463.4324,-33.34441 L463.8926,-28.31043 L464.3528,-32.06997 L464.81305,-29.235962 L465.27325,-26.685356 L465.73346,-24.38981 L466.19366,-20.25129 L466.65387,-24.81674 L467.1141,-20.635527 L467.5743,-21.017494 L468.03452,-19.288734 L468.49472,-26.022972 L468.95493,-21.721134 L469.41516,-21.994541 L469.87537,-24.313139 L470.33557,-24.327345 L470.79578,-22.267601 L471.25598,-20.41383 L471.71622,-18.745438 L472.17642,-15.171353 L472.63663,-14.027208 L473.09683,-10.924948 L473.55704,-16.423033 L474.01727,-21.371311 L474.47748,-32.04235 L474.93768,-29.211105 L475.3979,-28.735516 L475.8581,-42.815197 L476.3183,-36.834137 L476.77853,-33.523712 L477.23874,-34.689392 L477.69894,-33.665974 L478.15915,-34.817425 L478.61935,-37.926266 L479.0796,-38.651688 L479.5398,-37.23204 L480,-31.809296" fill="none" stroke="black" stroke-linejoin="round" stroke-width="2"/>
</g>
</g>
<g>
<g>
<line stroke="black" stroke-width="1" x1="0" x2="0" y1="0" y2="10"/>
<line stroke="black" stroke-width="1" x1="92.04218600191754" x2="92.04218600191754" y1="0" y2="10"/>
<line stroke="black" stroke-width="1" x1="184.08437200383509" x2="184.08437200383509" y1="0" y2="10"/>
<line stroke="black" stroke-width="1" x1="276.12655800575266" x2="276.12655800575266" y1="0" y2="10"/>
<line stroke="black" stroke-width="1" x1="368.16874400767017" x2="368.16874400767017" y1="0" y2="10"/>
<line stroke="black" stroke-width="1" x1="460.21093000958774" x2="460.21093000958774" y1="0" y2="10"/>
</g>
<line stroke="black" stroke-width="1" x1="0" x2="480" y1="0" y2="0"/>
<g>
<text font-size="12" text-anchor="middle" x="0" y="20">
0
</text>
<text font-size="12" text-anchor="middle" x="92.04218600191754" y="20">
200
</text>
<text font-size="12" text-anchor="middle" x="184.08437200383509" y="20">
400
</text>
<text font-size="12" text-anchor="middle" x="276.12655800575266" y="20">
600
</text>
<text font-size="12" text-anchor="middle" x="368.16874400767017" y="20">
800
</text>
<text font-size="12" text-anchor="middle" x="460.21093000958774" y="20">
1000
</text>
</g>
<text font-size="12" text-anchor="middle" x="240" y="30">

</text>
</g>
<g>
<g>
<line stroke="black" stroke-width="1" x1="0" x2="-10" y1="0.00003151733503367478" y2="0.00003151733503367478"/>
<line stroke="black" stroke-width="1" x1="0" x2="-10" y1="-103.62647892039399" y2="-103.62647892039399"/>
<line stroke="black" stroke-width="1" x1="0" x2="-10" y1="-207.25298935812302" y2="-207.25298935812302"/>
<line stroke="black" stroke-width="1" x1="0" x2="-10" y1="-310.87949979585204" y2="-310.87949979585204"/>
</g>
<line stroke="black" stroke-width="1" x1="0" x2="0" y1="0" y2="-340"/>
<g>
<text dominant-baseline="middle" font-size="12" text-anchor="end" x="-15" y="0.00003151733503367478">
5.64006
</text>
<text dominant-baseline="middle" font-size="12" text-anchor="end" x="-15" y="-103.62647892039399">
15.64006
</text>
<text dominant-baseline="middle" font-size="12" text-anchor="end" x="-15" y="-207.25298935812302">
25.64006
</text>
<text dominant-baseline="middle" font-size="12" text-anchor="end" x="-15" y="-310.87949979585204">
35.64006
</text>
</g>
<text font-size="12" text-anchor="middle" transform="rotate(-90 -96 -170)" x="-96" y="-182">

</text>
</g>
</g>
</svg>