<svg viewBox="0 0 600 400" xmlns="http://www.w3.org/2000/svg">
<g transform="translate(72, 364)">
<g>
<g>
<path d="M0,-340 L0,-340 L0.4804805,-340 L0.960961,-340 L1.4414414,-340 L1.921922,-340 L2.4024024,-340 L2.8828828,-340 L3.3633633,-340 L3.843844,-340 L4.324324,-340 L4.804805,-340 L5.2852855,-340 L5.7657657,-340 L6.2462463,-340 L6.7267265,-340 L7.207207,-340 L7.687688,-340 L8.168168,-340 L8.648648,-340 L9.129129,-340 L9.60961,-340 L10.09009,-340 L10.570571,-340 L11.051051,-340 L11.531531,-340 L12.0120125,-340 L12.492493,-340 L12.972973,-340 L13.453453,-340 L13.933934,-340 L14.414414,-340 L14.894895,-340 L15.375376,-340 L15.855856,-340 L16.336336,-340 L16.816816,-340 L17.297297,-340 L17.777779,-340 L18.258259,-340 L18.738739,-340 L19.21922,-340 L19.6997,-340 L20.18018,-340 L20.66066,-340 L21.141142,-340 L21.621622,-340 L22.102102,-340 L22.582582,-340 L23.063063,-340 L23.543543,-340 L24.024025,-340 L24.504505,-340 L24.984985,-340 L25.465466,-340 L25.945946,-340 L26.426426,-340 L26.906906,-340 L27.387388,-340 L27.867868,-340 L28.348349,-340 L28.828829,-340 L29.309309,-340 L29.78979,-340 L30.27027,-340 L30.750751,-340 L31.231232,-340 L31.711712,-340 L32.192192,-340 L32.672672,-340 L33.153152,-340 L33.633633,-340 L34.114113,-340 L34.594593,-340 L35.075073,-340 L35.555557,-340 L36.036037,-340 L36.516518,-340 L36.996998,-340 L37.477478,-340 L37.95796,-340 L38.43844,-340 L38.91892,-340 L39.3994,-340 L39.87988,-340 L40.36036,-340 L40.84084,-340 L41.32132,-340 L41.801804,-340 L42.282284,-340 L42.762764,-340 L43.243244,-340 L43.723724,-340 L44.204205,-340 L44.684685,-340 L45.165165,-340 L45.645645,-340 L46.126125,-340 L46.606606,-340 L47.087086,-340 L47.567566,-340 L48.04805,-340 L48.52853,-340 L49.00901,-340 L49.48949,-340 L49.96997,-340 L50.45045,-340 L50.93093,-340 L51.41141,-340 L51.89189,-340 L52.37237,-340 L52.85285,-340 L53.333332,-340 L53.813812,-340 L54.294292,-340 L54.774776,-340 L55.255257,-340 L55.735737,-340 L56.216217,-340 L56.696697,-340 L57.177177,-340 L57.657658,-340 L58.138138,-340 L58.618618,-340 L59.0991,-340 L59.57958,-340 L60.06006,-340 L60.54054,-340 L61.021023,-340 L61.501503,-340 L61.981983,-340 L62.462463,-340 L62.942944,-340 L63.423424,-340 L63.903904,-340 L64.384384,-340 L64.86487,-340 L65.345345,-340 L65.82583,-340 L66.306305,-340 L66.78679,-340 L67.267265,-340 L67.74775,-340 L68.228226,-340 L68.70871,-340 L69.189186,-340 L69.66967,-340 L70.15015,-340 L70.63063,-340 L71.111115,-340 L71.59159,-340 L72.072075,-340 L72.55255,-340 L73.033035,-340 L73.51351,-340 L73.993996,-340 L74.47447,-340 L74.954956,-340 L75.43543,-340 L75.91592,-340 L76.39639,-340 L76.87688,-340 L77.35736,-340 L77.83784,-340 L78.31832,-340 L78.7988,-340 L79.27928,-340 L79.75976,-340 L80.24024,-340 L80.72072,-340 L81.2012,-340 L81.68168,-340 L82.16216,-340 L82.64264,-340 L83.12312,-340 L83.60361,-340 L84.08408,-340 L84.56457,-340 L85.045044,-340 L85.52553,-340 L86.006004,-340 L86.48649,-340 L86.966965,-340 L87.44745,-340 L87.927925,-340 L88.40841,-340 L88.888885,-340 L89.36937,-340 L89.84985,-340 L90.33033,-340 L90.810814,-340 L91.29129,-340 L91.771774,-340 L92.25225,-340 L92.732735,-340 L93.21321,-340 L93.693695,-340 L94.17417,-340 L94.654655,-340 L95.13513,-340 L95.615616,-340 L96.0961,-340 L96.57658,-340 L97.05706,-340 L97.53754,-340 L98.01802,-340 L98.4985,-340 L98.97898,-340 L99.45946,-340 L99.93994,-340 L100.42042,-340 L100.9009,-340 L101.38138,-340 L101.86186,-340 L102.34234,-340 L102.82282,-340 L103.30331,-340 L103.78378,-340 L104.26427,-340 L104.74474,-340 L105.22523,-340 L105.7057,-340 L106.18619,-340 L106.666664,-340 L107.14715,-340 L107.627625,-340 L108.10811,-340 L108.588585,-340 L109.06907,-340 L109.54955,-340 L110.03003,-340 L110.51051,-340 L110.99099,-340 L111.47147,-340 L111.95195,-340 L112.432434,-340 L112.91291,-340 L113.393394,-340 L113.87387,-340 L114.354355,-340 L114.83483,-340 L115.315315,-340 L115.7958,-340 L116.276276,-340 L116.75676,-340 L117.237236,-340 L117.71772,-340 L118.1982,-340 L118.67868,-340 L119.15916,-340 L119.63964,-340 L120.12012,-340 L120.6006,-340 L121.08108,-340 L121.56156,-340 L122.042046,-340 L122.52252,-340 L123.003006,-340 L123.48348,-340 L123.96397,-340 L124.44444,-340 L124.92493,-340 L125.4054,-340 L125.88589,-340 L126.36636,-340 L126.84685,-340 L127.327324,-340 L127.80781,-340 L128.28828,-340 L128.76877,-340 L129.24925,-340 L129.72974,-340 L130.2102,-340 L130.69069,-340 L131.17117,-340 L131.65166,-340 L132.13213,-340 L132.61261,-340 L133.0931,-340 L133.57358,-340 L134.05405,-340 L134.53453,-340 L135.01501,-340 L135.4955,-340 L135.97598,-340 L136.45645,-340 L136.93694,-340 L137.41742,-340 L137.8979,-340 L138.37837,-340 L138.85886,-340 L139.33934,-340 L139.81982,-340 L140.3003,-340 L140.78078,-340 L141.26126,-340 L141.74174,-340 L142.22223,-340 L142.7027,-340 L143.18318,-340 L143.66367,-340 L144.14415,-340 L144.62462,-340 L145.1051,-340 L145.58559,-340 L146.06607,-340 L146.54654,-340 L147.02702,-340 L147.5075,-340 L147.98799,-340 L148.46848,-340 L148.94894,-340 L149.42943,-340 L149.90991,-340 L150.3904,-340 L150.87086,-340 L151.35135,-340 L151.83183,-340 L152.31232,-340 L152.79279,-340 L153.27327,-340 L153.75375,-340 L154.23424,-340 L154.71472,-340 L155.19519,-340 L155.67567,-340 L156.15616,-340 L156.63664,-340 L157.11711,-340 L157.5976,-340 L158.07808,-340 L158.55856,-340 L159.03903,-340 L159.51952,-340 L160,-340 L160.48048,-340 L160.96097,-340 L161.44144,-340 L161.92192,-340 L162.4024,-340 L162.88289,-340 L163.36336,-340 L163.84384,-340 L164.32433,-340 L164.80481,-340 L165.28528,-340 L165.76576,-340 L166.24625,-340 L166.72673,-340 L167.20721,-340 L167.68768,-340 L168.16817,-340 L168.64865,-340 L169.12914,-340 L169.6096,-340 L170.09009,-340 L170.57057,-340 L171.05106,-340 L171.53152,-340 L172.01201,-340 L172.4925,-340 L172.97298,-340 L173.45346,-340 L173.93393,-340 L174.41441,-340 L174.8949,-340 L175.37538,-340 L175.85585,-340 L176.33633,-340 L176.81682,-340 L177.2973,-340 L177.77777,-340 L178.25826,-340 L178.73874,-340 L179.21922,-340 L179.6997,-340 L180.18018,-340 L180.66066,-340 L181.14114,-340 L181.62163,-340 L182.1021,-340 L182.58258,-340 L183.06306,-340 L183.54355,-340 L184.02402,-340 L184.5045,-340 L184.98499,-340 L185.46547,-340 L185.94595,-340 L186.42642,-340 L186.9069,-340 L187.38739,-340 L187.86787,-340 L188.34834,-340 L188.82883,-340 L189.30931,-340 L189.7898,-340 L190.27026,-340 L190.75075,-340 L191.23123,-340 L191.71172,-340 L192.1922,-340 L192.67267,-340 L193.15315,-340 L193.63364,-340 L194.11412,-340 L194.59459,-340 L195.07507,-340 L195.55556,-340 L196.03604,-340 L196.51651,-340 L196.997,-340 L197.47748,-340 L197.95796,-340 L198.43845,-340 L198.91891,-340 L199.3994,-340 L199.87988,-340 L200.36037,-340 L200.84084,-340 L201.32132,-340 L201.8018,-340 L202.28229,-340 L202.76276,-340 L203.24324,-340 L203.72372,-340 L204.20421,-340 L204.68468,-340 L205.16516,-340 L205.64565,-340 L206.12613,-340 L206.60661,-340 L207.08708,-340 L207.56757,-340 L208.04805,-340 L208.52853,-340 L209.009,-340 L209.48949,-340 L209.96997,-340 L210.45045,-340 L210.93092,-340 L211.4114,-340 L211.89189,-340 L212.37238,-340 L212.85286,-340 L213.33333,-340 L213.81381,-340 L214.2943,-340 L214.77478,-340 L215.25525,-340 L215.73573,-340 L216.21622,-340 L216.6967,-340 L217.17717,-340 L217.65765,-340 L218.13814,-340 L218.61862,-340 L219.0991,-340 L219.57957,-340 L220.06006,-340 L220.54054,-340 L221.02103,-340 L221.5015,-340 L221.98198,-340 L222.46246,-340 L222.94295,-340 L223.42342,-340 L223.9039,-340 L224.38438,-340 L224.86487,-340 L225.34535,-340 L225.82582,-340 L226.3063,-340 L226.78679,-340 L227.26727,-340 L227.74774,-340 L228.22823,-340 L228.70871,-340 L229.1892,-340 L229.66966,-340 L230.15015,-340 L230.63063,-340 L231.11111,-340 L231.5916,-340 L232.07207,-340 L232.55255,-340 L233.03304,-340 L233.51352,-340 L233.99399,-340 L234.47447,-340 L234.95496,-340 L235.43544,-340 L235.91591,-340 L236.3964,-340 L236.87688,-340 L237.35736,-340 L237.83784,-340 L238.31831,-340 L238.7988,-340 L239.27928,-340 L239.75977,-340 L240.24023,-340 L240.72072,-340 L241.2012,-340 L241.68169,-340 L242.16216,-340 L242.64264,-340 L243.12312,-340 L243.6036,-340 L244.08409,-340 L244.56456,-340 L245.04504,-340 L245.52553,-340 L246.00601,-340 L246.48648,-340 L246.96696,-340 L247.44745,-340 L247.92793,-340 L248.4084,-340 L248.88889,-340 L249.36937,-340 L249.84985,-340 L250.33034,-340 L250.8108,-340 L251.29129,-340 L251.77177,-340 L252.25226,-340 L252.73273,-340 L253.21321,-340 L253.6937,-340 L254.17418,-340 L254.65465,-340 L255.13513,-340 L255.61562,-340 L256.0961,-340 L256.57657,-340 L257.05707,-340 L257.53754,-340 L258.018,-340 L258.4985,-340 L258.97897,-340 L259.45947,-340 L259.93994,-340 L260.4204,-340 L260.9009,-340 L261.38138,-340 L261.86185,-340 L262.34235,-340 L262.8228,-340 L263.3033,-340 L263.78378,-340 L264.26425,-340 L264.74475,-340 L265.22522,-340 L265.70572,-340 L266.1862,-340 L266.66666,-340 L267.14716,-340 L267.62762,-340 L268.1081,-340 L268.5886,-340 L269.06906,-340 L269.54956,-340 L270.03003,-340 L270.5105,-340 L270.991,-340 L271.47147,-340 L271.95197,-340 L272.43243,-340 L272.9129,-340 L273.3934,-340 L273.87387,-340 L274.35434,-340 L274.83484,-340 L275.3153,-340 L275.7958,-340 L276.27628,-340 L276.75674,-340 L277.23724,-340 L277.7177,-340 L278.1982,-340 L278.67868,-340 L279.15915,-340 L279.63965,-340 L280.12012,-340 L280.6006,-340 L281.0811,-340 L281.56155,-340 L282.04205,-340 L282.52252,-340 L283.003,-340 L283.4835,-340 L283.96396,-340 L284.44446,-340 L284.92493,-340 L285.4054,-340 L285.8859,-340 L286.36636,-340 L286.84683,-340 L287.32733,-340 L287.8078,-340 L288.2883,-340 L288.76877,-340 L289.24924,-340 L289.72974,-340 L290.2102,-340 L290.6907,-340 L291.17117,-340 L291.65164,-340 L292.13214,-340 L292.6126,-340 L293.09308,-340 L293.57358,-340 L294.05405,-340 L294.53455,-340 L295.015,-340 L295.49548,-340 L295.97598,-340 L296.45645,-340 L296.93695,-340 L297.41742,-340 L297.8979,-340 L298.3784,-340 L298.85886,-340 L299.33932,-340 L299.81982,-340 L300.3003,-340 L300.7808,-340 L301.26126,-340 L301.74173,-340 L302.22223,-340 L302.7027,-340 L303.1832,-340 L303.66367,-340 L304.14413,-340 L304.62463,-340 L305.1051,-340 L305.58557,-340 L306.06607,-340 L306.54654,-340 L307.02704,-340 L307.5075,-340 L307.98798,-340 L308.46848,-340 L308.94894,-340 L309.42944,-340 L309.9099,-340 L310.39038,-340 L310.87088,-340 L311.35135,-340 L311.83182,-340 L312.31232,-340 L312.7928,-340 L313.2733,-340 L313.75375,-340 L314.23422,-340 L314.71472,-340 L315.1952,-340 L315.6757,-340 L316.15616,-340 L316.63663,-340 L317.11713,-340 L317.5976,-340 L318.07806,-340 L318.55856,-340 L319.03903,-340 L319.51953,-340 L320,-340 L320.48047,-340 L320.96097,-340 L321.44144,-340 L321.92194,-340 L322.4024,-340 L322.88287,-340 L323.36337,-340 L323.84384,-340 L324.3243,-340 L324.8048,-340 L325.28528,-340 L325.76578,-340 L326.24625,-340 L326.7267,-340 L327.2072,-340 L327.68768,-340 L328.16818,-340 L328.64865,-340 L329.12912,-340 L329.60962,-340 L330.0901,-340 L330.57056,-340 L331.05106,-340 L331.53152,-340 L332.01202,-340 L332.4925,-340 L332.97296,-340 L333.45346,-340 L333.93393,-340 L334.41443,-340 L334.8949,-340 L335.37537,-340 L335.85587,-340 L336.33633,-340 L336.8168,-340 L337.2973,-340 L337.77777,-340 L338.25827,-340 L338.73874,-340 L339.2192,-340 L339.6997,-340 L340.18018,-340 L340.66068,-340 L341.14114,-340 L341.6216,-340 L342.1021,-340 L342.58258,-340 L343.06305,-340 L343.54355,-340 L344.02402,-340 L344.50452,-340 L344.985,-340 L345.46545,-340 L345.94595,-340 L346.42642,-340 L346.90692,-340 L347.3874,-340 L347.86786,-340 L348.34836,-340 L348.82883,-340 L349.3093,-340 L349.7898,-340 L350.27026,-340 L350.75076,-340 L351.23123,-340 L351.7117,-340 L352.1922,-340 L352.67267,-340 L353.15317,-340 L353.63364,-340 L354.1141,-340 L354.5946,-340 L355.07507,-340 L355.55554,-340 L356.03604,-340 L356.5165,-340 L356.997,-340 L357.47748,-340 L357.95795,-340 L358.43845,-340 L358.9189,-340 L359.3994,-340 L359.87988,-340 L360.36035,-340 L360.84085,-340 L361.32132,-340 L361.8018,-340 L362.2823,-340 L362.76276,-340 L363.24326,-340 L363.72372,-340 L364.2042,-340 L364.6847,-340 L365.16516,-340 L365.64566,-340 L366.12613,-340 L366.6066,-340 L367.0871,-340 L367.56757,-340 L368.04803,-340 L368.52853,-340 L369.009,-340 L369.4895,-340 L369.96997,-340 L370.45044,-340 L370.93094,-340 L371.4114,-340 L371.8919,-340 L372.37238,-340 L372.85284,-340 L373.33334,-340 L373.8138,-340 L374.29428,-340 L374.77478,-340 L375.25525,-340 L375.73575,-340 L376.21622,-340 L376.6967,-340 L377.1772,-340 L377.65765,-340 L378.13815,-340 L378.61862,-340 L379.0991,-340 L379.5796,-340 L380.06006,-340 L380.54053,-340 L381.02103,-340 L381.5015,-340 L381.982,-340 L382.46246,-340 L382.94293,-340 L383.42343,-340 L383.9039,-340 L384.3844,-340 L384.86487,-340 L385.34534,-340 L385.82584,-340 L386.3063,-340 L386.78677,-340 L387.26727,-340 L387.74774,-340 L388.22824,-340 L388.7087,-340 L389.18918,-340 L389.66968,-340 L390.15015,-340 L390.63065,-340 L391.1111,-340 L391.59158,-340 L392.07208,-340 L392.55255,-340 L393.03302,-340 L393.51352,-340 L393.994,-340 L394.4745,-340 L394.95496,-340 L395.43542,-340 L395.91592,-340 L396.3964,-340 L396.8769,-340 L397.35736,-340 L397.83783,-340 L398.31833,-340 L398.7988,-340 L399.27927,-340 L399.75977,-340 L400.24023,-340 L400.72073,-340 L401.2012,-340 L401.68167,-340 L402.16217,-340 L402.64264,-340 L403.1231,-340 L403.6036,-340 L404.08408,-340 L404.56458,-340 L405.04504,-340 L405.5255,-340 L406.006,-340 L406.48648,-340 L406.96698,-340 L407.44745,-340 L407.92792,-340 L408.40842,-340 L408.8889,-340 L409.36935,-340 L409.84985,-340 L410.33032,-340 L410.81082,-340 L411.2913,-340 L411.77176,-340 L412.25226,-340 L412.73273,-340 L413.21323,-340 L413.6937,-340 L414.17416,-340 L414.65466,-340 L415.13513,-340 L415.6156,-340 L416.0961,-340 L416.57657,-340 L417.05707,-340 L417.53754,-340 L418.018,-340 L418.4985,-340 L418.97897,-340 L419.45947,-340 L419.93994,-340 L420.4204,-340 L420.9009,-340 L421.38138,-340 L421.86185,-340 L422.34235,-340 L422.8228,-340 L423.3033,-340 L423.78378,-340 L424.26425,-340 L424.74475,-340 L425.22522,-340 L425.70572,-340 L426.1862,-340 L426.66666,-340 L427.14716,-340 L427.62762,-340 L428.1081,-340 L428.5886,-340 L429.06906,-340 L429.54956,-340 L430.03003,-340 L430.5105,-340 L430.991,-340 L431.47147,-340 L431.95197,-340 L432.43243,-340 L432.9129,-340 L433.3934,-340 L433.87387,-340 L434.35434,-340 L434.83484,-340 L435.3153,-340 L435.7958,-340 L436.27628,-340 L436.75674,-340 L437.23724,-340 L437.7177,-340 L438.1982,-340 L438.67868,-340 L439.15915,-340 L439.63965,-340 L440.12012,-340 L440.6006,-340 L441.0811,-340 L441.56155,-340 L442.04205,-340 L442.52252,-340 L443.003,-340 L443.4835,-340 L443.96396,-340 L444.44446,-340 L444.92493,-340 L445.4054,-340 L445.8859,-340 L446.36636,-340 L446.84683,-340 L447.32733,-340 L447.8078,-340 L448.2883,-340 L448.76877,-340 L449.24924,-340 L449.72974,-340 L450.2102,-340 L450.6907,-340 L451.17117,-340 L451.65164,-340 L452.13214,-340 L452.6126,-340 L453.09308,-340 L453.57358,-340 L454.05405,-340 L454.53455,-340 L455.015,-340 L455.49548,-340 L455.97598,-340 L456.45645,-340 L456.93695,-340 L457.41742,-340 L457.8979,-340 L458.3784,-340 L458.85886,-340 L459.33932,-340 L459.81982,-340 L460.3003,-340 L460.7808,-340 L461.26126,-340 L461.74173,-340 L462.22223,-340 L462.7027,-340 L463.1832,-340 L463.66367,-340 L464.14413,-340 L464.62463,-340 L465.1051,-340 L465.58557,-340 L466.06607,-340 L466.54654,-340 L467.02704,-340 L467.5075,-340 L467.98798,-340 L468.46848,-340 L468.94894,-340 L469.42944,-340 L469.9099,-340 L470.39038,-340 L470.87088,-340 L471.35135,-340 L471.83182,-340 L472.31232,-340 L472.7928,-340 L473.2733,-340 L473.75375,-340 L474.23422,-340 L474.71472,-340 L475.1952,-340 L475.6757,-340 L476.15616,-340 L476.63663,-340 L477.11713,-340 L477.5976,-340 L478.07806,-340 L478.55856,-340 L479.03903,-340 L479.51953,-340 L480,-340" fill="none" stroke="black" stroke-linejoin="round" stroke-width="2"/>
</g>
</g>
<g>
<g>
<line stroke="black" stroke-width="1" x1="0" x2="0" y1="0" y2="10"/>
<line stroke="black" stroke-width="1" x1="96.09609609609609" x2="96.09609609609609" y1="0" y2="10"/>
<line stroke="black" stroke-width="1" x1="192.19219219219218" x2="192.19219219219218" y1="0" y2="10"/>
<line stroke="black" stroke-width="1" x1="288.2882882882883" x2="288.2882882882883" y1="0" y2="10"/>
<line stroke="black" stroke-width="1" x1="384.38438438438436" x2="384.38438438438436" y1="0" y2="10"/>
</g>
<line stroke="black" stroke-width="1" x1="0" x2="480" y1="0" y2="0"/>
<g>
<text font-size="12" text-anchor="middle" x="0" y="20">
0
</text>
<text font-size="12" text-anchor="middle" x="96.09609609609609" y="20">
200
</text>
<text font-size="12" text-anchor="middle" x="192.19219219219218" y="20">
400
</text>
<text font-size="12" text-anchor="middle" x="288.2882882882883" y="20">
600
</text>
<text font-size="12" text-anchor="middle" x="384.38438438438436" y="20">
800
</text>
</g>
<text font-size="12" text-anchor="middle" x="240" y="30">

</text>
</g>
<g>
<g>
<line stroke="black" stroke-width="1" x1="0" x2="-10" y1="-0" y2="-0"/>
<line stroke="black" stroke-width="1" x1="0" x2="-10" y1="-85" y2="-85"/>
<line stroke="black" stroke-width="1" x1="0" x2="-10" y1="-170" y2="-170"/>
<line stroke="black" stroke-width="1" x1="0" x2="-10" y1="-255" y2="-255"/>
<line stroke="black" stroke-width="1" x1="0" x2="-10" y1="-340" y2="-340"/>
</g>
<line stroke="black" stroke-width="1" x1="0" x2="0" y1="0" y2="-340"/>
<g>
<text dominant-baseline="middle" font-size="12" text-anchor="end" x="-15" y="-0">
0
</text>
<text dominant-baseline="middle" font-size="12" text-anchor="end" x="-15" y="-85">
2
</text>
<text dominant-baseline="middle" font-size="12" text-anchor="end" x="-15" y="-170">
4
</text>
<text dominant-baseline="middle" font-size="12" text-anchor="end" x="-15" y="-255">
6
</text>
<text dominant-baseline="middle" font-size="12" text-anchor="end" x="-15" y="-340">
8
</text>
</g>
<text font-size="12" text-anchor="middle" transform="rotate(-90 -12 -170)" x="-12" y="-182">

</text>
</g>
</g>
</svg>