<svg viewBox="0 0 600 400" xmlns="http://www.w3.org/2000/svg">
<g transform="translate(72, 364)">
<g>
<g>
<path d="M0,-340 L0,-340 L1.0300429,-314.35226 L2.0600858,-306.49765 L3.0901287,-276.98676 L4.1201715,-249.62544 L5.1502147,-242.63307 L6.1802573,-252.36977 L7.2103004,-239.49252 L8.240343,-219.88809 L9.270387,-205.45006 L10.300429,-187.6469 L11.330472,-171.62404 L12.360515,-158.00497 L13.390558,-147.35078 L14.420601,-134.55605 L15.450644,-120.636314 L16.480686,-115.321976 L17.510729,-137.78978 L18.540773,-125.95115 L19.570816,-116.09787 L20.600859,-108.8329 L21.630901,-98.28698 L22.660944,-88.79565 L23.690987,-82.65791 L24.72103,-75.53098 L25.751074,-71.52121 L26.781116,-67.11092 L27.81116,-61.53869 L28.841202,-54.920692 L29.871244,-83.42862 L30.901287,-86.644005 L31.93133,-83.125916 L32.961372,-75.95218 L33.991417,-75.907745 L35.021458,-72.66179 L36.051502,-64.93148 L37.081547,-68.39359 L38.111588,-81.92888 L39.141632,-80.48529 L40.171673,-75.98009 L41.201717,-73.52839 L42.23176,-70.52037 L43.261803,-64.60719 L44.291847,-57.682343 L45.321888,-53.854454 L46.351933,-49.607864 L47.381973,-59.411285 L48.412018,-58.616467 L49.44206,-57.09964 L50.472103,-55.734497 L51.502148,-54.505867 L52.53219,-52.59861 L53.562233,-46.874622 L54.592274,-42.52452 L55.62232,-50.6318 L56.65236,-45.905987 L57.682404,-44.057224 L58.71245,-41.59185 L59.74249,-36.968536 L60.772533,-44.028435 L61.802574,-43.97041 L62.83262,-40.712223 L63.86266,-37.779858 L64.8927,-35.140724 L65.922745,-40.780422 L66.95279,-41.0472 L67.982834,-39.684315 L69.01288,-36.05325 L70.042915,-34.388268 L71.07296,-31.286806 L72.103004,-29.29698 L73.13305,-27.506136 L74.16309,-29.100344 L75.19313,-26.527672 L76.223175,-25.81525 L77.25322,-24.372581 L78.283264,-22.272686 L79.3133,-24.390238 L80.343346,-26.296034 L81.37339,-24.805285 L82.403435,-21.860628 L83.43348,-19.210438 L84.46352,-19.22974 L85.49356,-16.842638 L86.523605,-14.694246 L87.55365,-13.562185 L88.583694,-11.741838 L89.61373,-11.70651 L90.643776,-10.873221 L91.67382,-10.123263 L92.703865,-9.4483 L93.7339,-12.84829 L94.76395,-12.702316 L95.79399,-13.372431 L96.824036,-12.372551 L97.85408,-12.27415 L98.88412,-10.582607 L99.91416,-10.663201 L100.94421,-9.132753 L101.97425,-16.571754 L103.004295,-15.251943 L104.03433,-14.064112 L105.06438,-14.598046 L106.09442,-15.880079 L107.124466,-13.827944 L108.1545,-13.584003 L109.18455,-12.562967 L110.21459,-11.644033 L111.24464,-18.831907 L112.27468,-16.484589 L113.30472,-18.379457 L114.33476,-19.28335 L115.36481,-16.890886 L116.39485,-17.943636 L117.4249,-18.089619 L118.45493,-19.022493 L119.48498,-17.457607 L120.51502,-15.247719 L121.54507,-14.861802 L122.5751,-12.911493 L123.60515,-11.156217 L124.63519,-9.576467 L125.66524,-8.154692 L126.69528,-6.875095 L127.72532,-8.929422 L128.75537,-7.5723524 L129.7854,-8.755464 L130.81544,-7.415789 L131.84549,-6.210082 L132.87553,-5.124946 L133.90558,-8.957272 L134.93562,-7.5974164 L135.96567,-7.9765296 L136.99571,-9.920713 L138.02576,-9.2660055 L139.0558,-7.8752775 L140.08583,-11.4325695 L141.11588,-10.626677 L142.14592,-9.09988 L143.17596,-7.7257643 L144.20601,-6.48906 L145.23605,-5.376026 L146.2661,-4.3742957 L147.29614,-3.472738 L148.32619,-3.4628274 L149.35622,-4.2553997 L150.38626,-6.5716968 L151.4163,-6.2518907 L152.44635,-5.162574 L153.4764,-5.785171 L154.50644,-4.742526 L155.53648,-5.407128 L156.56653,-5.2037787 L157.59657,-4.2192726 L158.6266,-4.134709 L159.65665,-3.2571099 L160.68669,-4.070254 L161.71674,-4.802083 L162.74678,-3.8577468 L163.77682,-5.412318 L164.80687,-4.4069586 L165.83691,-5.9066086 L166.86696,-7.256294 L167.897,-6.0665364 L168.92703,-6.5987377 L169.95708,-6.276227 L170.98712,-5.1844764 L172.01717,-5.003392 L173.04721,-6.443399 L174.07726,-5.334931 L175.1073,-12.352223 L176.13734,-13.858839 L177.16739,-12.810318 L178.19742,-11.86665 L179.22746,-10.215857 L180.2575,-13.539091 L181.28755,-12.522546 L182.3176,-10.806163 L183.34764,-9.261418 L184.37769,-8.67264 L185.40773,-9.745722 L186.43777,-10.711496 L187.4678,-10.7792015 L188.49785,-10.840136 L189.5279,-9.291994 L190.55794,-7.898667 L191.58798,-9.049147 L192.61803,-7.680104 L193.64807,-9.653931 L194.67812,-8.22441 L195.70816,-10.945297 L196.7382,-9.38664 L197.76823,-8.785339 L198.79828,-9.847151 L199.82832,-10.802782 L200.85837,-10.059867 L201.88841,-10.192736 L202.91846,-9.510825 L203.9485,-9.698597 L204.97855,-9.867593 L206.00859,-10.019688 L207.03862,-10.958065 L208.06866,-10.199622 L209.09871,-8.715531 L210.12875,-8.181342 L211.1588,-10.906536 L212.18884,-9.351755 L213.21889,-9.555434 L214.24893,-9.738746 L215.27898,-8.300743 L216.309,-7.006541 L217.33905,-5.8417587 L218.3691,-5.594946 L219.39914,-4.5713234 L220.42918,-5.253046 L221.45923,-4.263613 L222.48927,-3.3731241 L223.51932,-6.57914 L224.54936,-6.2585897 L225.5794,-6.7715855 L226.60944,-8.836265 L227.63948,-7.48851 L228.66953,-6.275531 L229.69957,-6.7868323 L230.72961,-12.857444 L231.75966,-13.512045 L232.7897,-12.498204 L233.81975,-12.3872385 L234.8498,-11.485878 L235.87982,-9.873162 L236.90987,-9.223209 L237.93991,-7.8367605 L238.96996,-6.5889564 L240,-5.465933 L241.03004,-5.256703 L242.06009,-5.068396 L243.09013,-6.5019026 L244.12018,-9.3950405 L245.1502,-9.594392 L246.18025,-8.972316 L247.2103,-7.610956 L248.24034,-7.988715 L249.27039,-6.7257156 L250.30043,-7.99349 L251.33047,-7.5315046 L252.36052,-6.314226 L253.39056,-5.2186756 L254.4206,-5.835663 L255.45064,-4.7879686 L256.48068,-4.646535 L257.51074,-4.5192447 L258.54077,-5.2061753 L259.5708,-4.22143 L260.60086,-4.13665 L261.6309,-4.86184 L262.66095,-7.9189844 L263.69098,-6.662958 L264.72104,-5.532534 L265.75107,-4.515153 L266.78113,-3.5995097 L267.81116,-5.179905 L268.8412,-4.9992776 L269.87125,-5.6382046 L270.90128,-4.610256 L271.93134,-6.0895767 L272.96136,-5.016491 L273.99142,-4.8522053 L275.02145,-4.704348 L276.0515,-4.5712767 L277.08154,-3.650021 L278.1116,-2.820891 L279.14163,-2.8761652 L280.17166,-2.1244206 L281.20172,-3.0508335 L282.23175,-2.281622 L283.2618,-4.795297 L284.29184,-4.653131 L285.3219,-6.128164 L286.35193,-5.8527107 L287.382,-6.4062943 L288.41202,-6.1030283 L289.44205,-5.0285974 L290.4721,-4.0616097 L291.50214,-4.7943034 L292.5322,-7.858202 L293.56223,-6.608254 L294.5923,-5.4833007 L295.6223,-4.4708424 L296.65237,-4.3611217 L297.6824,-6.6668468 L298.71243,-5.536034 L299.7425,-6.1212854 L300.77252,-6.6480117 L301.80258,-6.320574 L302.8326,-6.827371 L303.86267,-6.4819975 L304.8927,-7.7741437 L305.92276,-8.135584 L306.9528,-14.07132 L307.98282,-15.406025 L309.01288,-18.210243 L310.0429,-20.73404 L311.07297,-18.196507 L312.103,-15.912728 L313.13306,-14.658819 L314.1631,-13.5303 L315.19315,-14.919107 L316.22318,-17.772017 L317.2532,-17.13367 L318.28326,-14.956175 L319.3133,-12.996429 L320.34335,-12.03415 L321.37338,-11.969589 L322.40344,-11.911486 L323.43347,-12.660683 L324.46353,-10.930487 L325.49356,-9.37331 L326.5236,-8.773342 L327.55365,-8.233372 L328.58368,-9.350381 L329.61374,-7.9512143 L330.64377,-7.4934564 L331.67383,-7.8829656 L332.70386,-8.233523 L333.73392,-10.152009 L334.76395,-9.474172 L335.794,-8.864118 L336.82404,-7.5135775 L337.85406,-6.298092 L338.88412,-5.204155 L339.91415,-4.219611 L340.9442,-4.936505 L341.97424,-4.7802176 L343.0043,-7.845525 L344.03433,-6.596844 L345.0644,-6.2745233 L346.09442,-8.388908 L347.12445,-7.0858893 L348.1545,-9.119138 L349.18454,-10.147571 L350.2146,-9.470177 L351.24463,-8.860522 L352.2747,-10.716308 L353.30472,-9.180549 L354.33478,-7.798366 L355.3648,-8.958876 L356.39484,-8.400352 L357.4249,-7.8976793 L358.45493,-6.6437836 L359.485,-5.5152774 L360.515,-5.3011127 L361.54507,-4.306874 L362.5751,-5.015041 L363.60516,-4.049409 L364.6352,-3.18034 L365.66522,-8.008617 L366.69528,-11.552576 L367.7253,-12.337665 L368.75537,-17.0517 L369.7854,-15.683894 L370.81546,-13.651377 L371.8455,-11.822111 L372.87555,-10.175772 L373.90558,-11.900032 L374.9356,-10.245901 L375.96567,-8.757183 L376.9957,-8.218828 L378.02576,-6.932817 L379.0558,-8.981373 L380.08585,-8.420599 L381.11588,-7.9159026 L382.14594,-6.6601844 L383.17596,-7.1330204 L384.206,-8.3600645 L385.23605,-10.265896 L386.26608,-8.775178 L387.29614,-8.2350235 L388.32617,-6.9473934 L389.35623,-5.788526 L390.38626,-4.7455454 L391.41632,-3.8068628 L392.44635,-4.565031 L393.4764,-3.6444001 L394.50644,-2.8158321 L395.53647,-3.6731036 L396.56653,-3.6431568 L397.59656,-3.6162043 L398.62662,-2.790456 L399.65665,-2.0472825 L400.6867,-2.1799176 L401.71674,-3.1007805 L402.7468,-2.3265746 L403.77682,-1.629789 L404.80685,-1.0026821 L405.8369,-1.2397773 L406.86694,-0.6516716 L407.897,-1.7253592 L408.92703,-1.0886953 L409.9571,-0.5156978 L410.98712,-0 L412.01718,-1.9403461 L413.0472,-2.083675 L414.07724,-3.8156533 L415.1073,-2.96996 L416.13733,-2.208836 L417.1674,-1.5238246 L418.19742,-3.311788 L419.22748,-4.119464 L420.2575,-4.846372 L421.28757,-5.50059 L422.3176,-5.2878942 L423.34763,-5.8979597 L424.3777,-8.050001 L425.4077,-7.582364 L426.43777,-6.3599997 L427.4678,-5.259872 L428.49786,-4.269757 L429.5279,-4.9816356 L430.55795,-6.423818 L431.58798,-6.1187997 L432.618,-6.6457744 L433.64807,-10.326017 L434.6781,-8.829288 L435.70816,-9.085214 L436.7382,-9.315547 L437.76825,-9.522847 L438.79828,-8.106434 L439.82834,-6.8316627 L440.85837,-7.287351 L441.8884,-6.8959794 L442.91846,-5.742254 L443.9485,-5.5053916 L444.97855,-6.8951983 L446.00858,-5.7415504 L447.03864,-4.7032676 L448.06866,-4.5703044 L449.09872,-3.6491458 L450.12875,-3.6215947 L451.1588,-4.3982897 L452.18884,-5.097316 L453.21887,-10.535387 L454.24893,-9.01772 L455.27896,-10.056294 L456.30902,-9.388028 L457.33905,-7.9850974 L458.3691,-9.928425 L459.39914,-9.272946 L460.4292,-7.881523 L461.45923,-6.629243 L462.48926,-8.708157 L463.51932,-7.3732123 L464.54935,-6.1717634 L465.5794,-5.090459 L466.60944,-4.1172853 L467.6395,-4.8444114 L468.66953,-4.6973333 L469.6996,-3.7634723 L470.7296,-2.922997 L471.75964,-6.9755173 L472.7897,-7.4168205 L473.81973,-7.813993 L474.8498,-6.5684657 L475.87982,-11.859422 L476.90988,-10.209352 L477.9399,-9.52578 L478.96997,-8.109074 L480,-9.238513" fill="none" stroke="black" stroke-linejoin="round" stroke-width="2"/>
</g>
</g>
<g>
<g>
<line stroke="black" stroke-width="1" x1="0" x2="0" y1="0" y2="10"/>
<line stroke="black" stroke-width="1" x1="103.00429184549357" x2="103.00429184549357" y1="0" y2="10"/>
<line stroke="black" stroke-width="1" x1="206.00858369098714" x2="206.00858369098714" y1="0" y2="10"/>
<line stroke="black" stroke-width="1" x1="309.0128755364807" x2="309.0128755364807" y1="0" y2="10"/>
<line stroke="black" stroke-width="1" x1="412.0171673819743" x2="412.0171673819743" y1="0" y2="10"/>
</g>
<line stroke="black" stroke-width="1" x1="0" x2="480" y1="0" y2="0"/>
<g>
<text font-size="12" text-anchor="middle" x="0" y="20">
0
</text>
<text font-size="12" text-anchor="middle" x="103.00429184549357" y="20">
100
</text>
<text font-size="12" text-anchor="middle" x="206.00858369098714" y="20">
200
</text>
<text font-size="12" text-anchor="middle" x="309.0128755364807" y="20">
300
</text>
<text font-size="12" text-anchor="middle" x="412.0171673819743" y="20">
400
</text>
</g>
<text font-size="12" text-anchor="middle" x="240" y="30">

</text>
</g>
<g>
<g>
<line stroke="black" stroke-width="1" x1="0" x2="-10" y1="0.000003685141219692433" y2="0.000003685141219692433"/>
<line stroke="black" stroke-width="1" x1="0" x2="-10" y1="-80.1491311486015" y2="-80.1491311486015"/>
<line stroke="black" stroke-width="1" x1="0" x2="-10" y1="-160.2982659823442" y2="-160.2982659823442"/>
<line stroke="black" stroke-width="1" x1="0" x2="-10" y1="-240.44740081608686" y2="-240.44740081608686"/>
<line stroke="black" stroke-width="1" x1="0" x2="-10" y1="-320.5965356498296" y2="-320.5965356498296"/>
</g>
<line stroke="black" stroke-width="1" x1="0" x2="0" y1="0" y2="-340"/>
<g>
<text dominant-baseline="middle" font-size="12" text-anchor="end" x="-15" y="0.000003685141219692433">
8.57908
</text>
<text dominant-baseline="middle" font-size="12" text-anchor="end" x="-15" y="-80.1491311486015">
18.57908
</text>
<text dominant-baseline="middle" font-size="12" text-anchor="end" x="-15" y="-160.2982659823442">
28.57908
</text>
<text dominant-baseline="middle" font-size="12" text-anchor="end" x="-15" y="-240.44740081608686">
38.57908
</text>
<text dominant-baseline="middle" font-size="12" text-anchor="end" x="-15" y="-320.5965356498296">
48.57908
</text>
</g>
<text font-size="12" text-anchor="middle" transform="rotate(-90 -96 -170)" x="-96" y="-182">

</text>
</g>
</g>
</svg>