<svg viewBox="0 0 600 400" xmlns="http://www.w3.org/2000/svg">
<g transform="translate(72, 364)">
<g>
<g>
<path d="M0,-191.69467 L0,-191.69467 L0.24279211,-233.72005 L0.48558423,-340 L0.7283763,-315.62714 L0.97116846,-299.84576 L1.2139605,-314.34497 L1.4567527,-298.62772 L1.6995448,-298.44208 L1.9423369,-298.26572 L2.185129,-283.35245 L2.427921,-269.1848 L2.6707132,-270.4713 L2.9135053,-256.94775 L3.1562974,-244.10036 L3.3990896,-231.89534 L3.6418817,-220.30058 L3.8846738,-224.0313 L4.1274657,-212.82973 L4.370258,-216.93399 L4.61305,-206.08728 L4.855842,-195.78293 L5.0986342,-185.99377 L5.3414264,-176.69409 L5.5842185,-167.85939 L5.8270106,-159.46642 L6.0698028,-151.49309 L6.312595,-143.91844 L6.555387,-151.46826 L6.798179,-158.6406 L7.0409713,-150.70856 L7.2837634,-157.91888 L7.5265555,-164.76868 L7.7693477,-156.53024 L8.012139,-148.70374 L8.254931,-156.0143 L8.497724,-162.95932 L8.740516,-154.81136 L8.983308,-147.07079 L9.2261,-139.71725 L9.468892,-132.73138 L9.711684,-126.09482 L9.954476,-119.79008 L10.1972685,-113.800575 L10.440061,-122.856285 L10.682853,-116.71347 L10.925645,-110.8778 L11.168437,-105.33391 L11.411229,-114.81296 L11.654021,-109.07231 L11.896813,-103.6187 L12.1396055,-113.1835 L12.382398,-107.52433 L12.62519,-102.14811 L12.867982,-111.78645 L13.110774,-106.19713 L13.353566,-100.887276 L13.596358,-95.84291 L13.83915,-91.050766 L14.081943,-86.49822 L14.324735,-96.91906 L14.567527,-92.073105 L14.810319,-87.46945 L15.053111,-83.09598 L15.295903,-78.94118 L15.538695,-74.99412 L15.781487,-71.244415 L16.024279,-67.68219 L16.26707,-64.29808 L16.509863,-61.08318 L16.752655,-58.02902 L16.995447,-55.12757 L17.23824,-52.37119 L17.481031,-49.752632 L17.723824,-47.265 L17.966616,-44.90175 L18.209408,-42.656662 L18.4522,-40.52383 L18.694992,-53.24338 L18.937784,-50.58121 L19.180576,-48.05215 L19.423368,-45.649544 L19.66616,-43.36707 L19.908953,-41.198715 L20.151745,-39.13878 L20.394537,-37.18184 L20.63733,-50.068493 L20.880121,-47.565067 L21.122913,-45.186813 L21.365705,-42.927475 L21.608498,-40.7811 L21.85129,-53.48779 L22.094082,-50.8134 L22.336874,-48.272728 L22.579666,-75.35058 L22.822458,-71.58305 L23.06525,-68.0039 L23.308043,-64.60371 L23.550835,-90.865005 L23.793627,-86.321754 L24.036419,-82.00567 L24.279211,-77.90539 L24.522003,-74.01012 L24.764795,-70.30961 L25.007587,-66.79413 L25.25038,-63.454426 L25.493172,-75.02745 L25.735964,-71.27608 L25.978756,-67.71227 L26.221548,-64.32666 L26.46434,-61.110325 L26.707132,-58.05481 L26.949924,-55.15207 L27.192717,-52.394466 L27.435509,-49.774742 L27.6783,-47.286003 L27.921093,-44.921703 L28.163885,-42.675617 L28.406677,-40.54184 L28.64947,-38.514748 L28.892262,-66.0805 L29.135054,-62.776474 L29.377846,-59.63765 L29.620638,-56.655766 L29.86343,-53.82298 L30.106222,-51.13183 L30.349014,-48.575237 L30.591806,-46.146477 L30.834599,-43.839153 L31.07739,-41.647194 L31.320183,-39.564835 L31.562975,-37.586594 L31.805767,-35.707264 L32.048557,-33.9219 L32.29135,-46.97155 L32.53414,-44.62297 L32.776936,-42.391823 L33.019726,-40.272232 L33.26252,-38.25862 L33.50531,-36.345688 L33.748104,-34.528404 L33.990894,-32.801987 L34.23369,-31.161886 L34.47648,-29.603792 L34.719273,-28.123602 L34.962063,-26.717422 L35.204857,-25.38155 L35.447647,-24.112473 L35.69044,-22.906849 L35.93323,-21.761507 L36.176025,-20.673431 L36.418816,-19.639761 L36.66161,-18.657772 L36.9044,-17.724884 L37.147194,-16.83864 L37.389984,-15.996707 L37.63278,-15.196872 L37.87557,-14.437028 L38.118362,-13.715177 L38.361153,-13.029418 L38.603947,-12.377947 L38.846737,-11.759049 L39.08953,-11.171098 L39.33232,-10.612542 L39.575115,-10.081915 L39.817905,-9.57782 L40.0607,-9.098928 L40.30349,-8.643982 L40.546284,-8.211783 L40.789074,-22.546938 L41.031868,-21.419592 L41.27466,-20.348612 L41.517452,-19.33118 L41.760242,-18.364622 L42.003036,-17.44639 L42.245827,-16.574072 L42.48862,-30.491112 L42.73141,-28.966557 L42.974205,-27.518229 L43.216995,-26.142317 L43.45979,-24.835201 L43.70258,-23.593441 L43.945374,-22.413769 L44.188164,-21.293081 L44.430958,-20.228426 L44.673748,-19.217005 L44.916542,-18.256155 L45.159332,-17.343348 L45.402126,-16.47618 L45.644917,-15.652371 L45.887707,-14.869753 L46.1305,-14.126265 L46.37329,-13.419951 L46.616085,-12.748954 L46.858875,-12.111506 L47.10167,-11.505931 L47.34446,-10.9306345 L47.587254,-10.384103 L47.830044,-9.864898 L48.072838,-9.371653 L48.315628,-8.90307 L48.558422,-8.457916 L48.801212,-8.035021 L49.044006,-7.63327 L49.286797,-7.2516065 L49.52959,-6.889026 L49.77238,-6.5445747 L50.015175,-20.96309 L50.257965,-19.914936 L50.50076,-18.91919 L50.74355,-17.97323 L50.986343,-17.074568 L51.229134,-16.22084 L51.471928,-30.155542 L51.714718,-28.647764 L51.95751,-27.215376 L52.200302,-25.854609 L52.443096,-24.561878 L52.685886,-23.333784 L52.92868,-22.167095 L53.17147,-21.058739 L53.414265,-20.005802 L53.657055,-19.005512 L53.89985,-18.055237 L54.14264,-17.152475 L54.385433,-16.294851 L54.628223,-15.480109 L54.871017,-14.706103 L55.113808,-13.9707985 L55.3566,-13.272258 L55.599392,-12.608645 L55.842186,-11.978213 L56.084976,-11.379302 L56.32777,-10.810337 L56.57056,-10.26982 L56.813354,-9.75633 L57.056145,-9.268513 L57.29894,-8.805087 L57.54173,-23.110577 L57.784523,-21.955048 L58.027313,-20.857296 L58.270107,-19.81443 L58.512897,-18.82371 L58.75569,-17.882524 L58.99848,-16.988398 L59.241276,-16.138979 L59.484066,-15.332029 L59.72686,-14.565428 L59.96965,-13.837156 L60.212444,-13.145298 L60.455235,-12.488033 L60.69803,-11.863632 L60.94082,-11.270451 L61.183613,-10.706927 L61.426403,-10.171581 L61.669197,-9.663002 L61.911987,-9.1798525 L62.15478,-8.72086 L62.39757,-8.284817 L62.640366,-7.870576 L62.883156,-7.477047 L63.12595,-7.1031947 L63.36874,-6.748035 L63.611534,-6.410633 L63.854324,-6.0901017 L64.097115,-5.7855964 L64.33991,-5.4963164 L64.5827,-5.221501 L64.82549,-4.960426 L65.06828,-4.7124043 L65.31108,-4.476784 L65.55387,-4.252945 L65.79666,-4.040298 L66.03945,-3.8382828 L66.28225,-3.6463687 L66.52504,-3.4640503 L66.76783,-3.2908478 L67.01062,-3.1263053 L67.25342,-2.96999 L67.49621,-2.8214905 L67.739,-2.680416 L67.98179,-2.5463953 L68.22459,-2.4190755 L68.46738,-2.2981217 L68.71017,-2.1832156 L68.95296,-2.074055 L69.19575,-1.9703522 L69.438545,-1.8718345 L69.681335,-1.7782428 L69.924126,-1.6893307 L70.166916,-1.6048641 L70.40971,-1.5246209 L70.652504,-1.4483899 L70.895294,-1.3759704 L71.138084,-1.3071718 L71.38088,-1.2418133 L71.62367,-1.1797225 L71.86646,-1.1207365 L72.10925,-1.0646996 L72.35205,-1.0114647 L72.59484,-0.9608914 L72.83763,-0.91284686 L73.08042,-0.86720455 L73.32322,-0.8238443 L73.56601,-0.7826521 L73.8088,-0.7435195 L74.05159,-0.7063435 L74.29439,-0.67102635 L74.53718,-0.637475 L74.77997,-0.60560125 L75.02276,-0.5753212 L75.26556,-0.54655516 L75.50835,-0.5192274 L75.75114,-0.49326602 L75.99393,-0.46860272 L76.236725,-0.44517258 L76.479515,-0.42291394 L76.722305,-0.40176824 L76.965096,-0.38167983 L77.20789,-0.36259586 L77.45068,-0.34446606 L77.693474,-0.32724276 L77.936264,-0.3108806 L78.17906,-0.29533657 L78.42185,-0.28056976 L78.66464,-0.26654127 L78.90743,-0.2532142 L79.15023,-0.2405535 L79.39302,-0.22852582 L79.63581,-0.21709953 L79.8786,-0.20624454 L80.1214,-0.19593233 L80.36419,-0.18613571 L80.60698,-0.17682892 L80.84977,-0.16798748 L81.09257,-0.1595881 L81.33536,-0.15160869 L81.57815,-0.14402826 L81.82094,-0.13682684 L82.063736,-0.12998551 L82.306526,-0.12348623 L82.54932,-0.11731192 L82.79211,-0.11144632 L83.034904,-0.10587401 L83.277695,-0.100580305 L83.520485,-0.09555129 L83.763275,-0.090773724 L84.00607,-0.08623504 L84.24886,-0.08192329 L84.49165,-0.077827126 L84.73444,-0.07393577 L84.97724,-0.07023898 L85.22003,-0.06672703 L85.46282,-0.06339068 L85.70561,-0.060221143 L85.94841,-0.057210088 L86.1912,-0.054349583 L86.43399,-0.051632103 L86.67678,-0.0490505 L86.91958,-0.046597973 L87.16237,-0.044268075 L87.40516,-14.787799 L87.64795,-14.048409 L87.89075,-13.345988 L88.13354,-12.678689 L88.37633,-12.044755 L88.61912,-11.442517 L88.861916,-10.870391 L89.104706,-10.326872 L89.347496,-9.810528 L89.59029,-9.320002 L89.833084,-8.854001 L90.075874,-8.411302 L90.318665,-7.9907365 L90.561455,-7.5911994 L90.80425,-7.2116394 L91.04704,-6.8510575 L91.28983,-6.508505 L91.53262,-6.1830792 L91.77541,-5.8739257 L92.01821,-5.5802293 L92.261,-5.3012176 L92.50379,-5.0361567 L92.74658,-4.784349 L92.98938,-4.5451317 L93.23217,-4.317875 L93.47496,-4.101981 L93.71775,-3.8968823 L93.96055,-3.702038 L94.20334,-3.516936 L94.44613,-3.3410895 L94.68892,-3.1740348 L94.93172,-3.0153332 L95.17451,-2.8645666 L95.4173,-2.7213383 L95.66009,-2.5852714 L95.902885,-2.4560077 L96.145676,-2.3332074 L96.388466,-2.216547 L96.631256,-2.1057196 L96.874054,-2.0004337 L97.116844,-1.900412 L97.359634,-1.8053913 L97.602425,-1.7151217 L97.84522,-1.6293657 L98.08801,-1.5478975 L98.3308,-1.4705025 L98.57359,-1.3969774 L98.81639,-1.3271285 L99.05918,-1.2607721 L99.30197,-1.1977335 L99.54476,-1.1378468 L99.78756,-1.0809544 L100.03035,-1.0269067 L100.27314,-0.97556144 L100.51593,-0.9267834 L100.75873,-0.88044417 L101.00152,-0.83642197 L101.24431,-0.7946009 L101.4871,-0.75487083 L101.7299,-0.71712726 L101.97269,-0.68127096 L102.21548,-0.6472074 L102.45827,-0.614847 L102.701065,-0.58410466 L102.943855,-0.55489945 L103.186646,-0.52715445 L103.429436,-0.50079674 L103.67223,-0.47575688 L103.91502,-0.45196906 L104.157814,-0.4293706 L104.400604,-0.40790206 L104.6434,-0.38750696 L104.88619,-0.3681316 L105.12898,-0.34972504 L105.37177,-0.3322388 L105.61457,-0.31562686 L105.85736,-0.29984552 L106.10015,-0.28485322 L106.34294,-0.27061057 L106.58574,-0.25708005 L106.82853,-0.24422604 L107.07132,-0.23201473 L107.31411,-0.220414 L107.55691,-0.2093933 L107.7997,-0.19892363 L108.04249,-0.18897745 L108.28528,-0.17952858 L108.528076,-0.17055215 L108.77087,-0.16202454 L109.01366,-0.15392332 L109.25645,-0.14622715 L109.499245,-0.13891579 L109.742035,-0.13197 L109.984825,-0.1253715 L110.227615,-0.119102925 L110.47041,-0.11314778 L110.7132,-0.10749039 L110.95599,-0.10211587 L111.198784,-0.097010076 L111.44158,-0.09215958 L111.68437,-0.087551594 L111.92716,-0.08317401 L112.16995,-0.079015315 L112.41275,-0.07506455 L112.65554,-0.071311325 L112.89833,-0.06774575 L113.14112,-0.064358465 L113.38392,-0.061140545 L113.62671,-0.05808352 L113.8695,-0.055179343 L114.11229,-0.052420374 L114.35508,-0.049799357 L114.59788,-0.047309387 L114.84067,-0.044943918 L115.08346,-0.04269672 L115.32625,-0.04056189 L115.569046,-0.038533792 L115.81184,-0.0366071 L116.05463,-0.034776747 L116.29742,-0.03303791 L116.540215,-0.031386014 L116.783005,-0.029816713 L117.025795,-0.028325878 L117.268585,-0.026909584 L117.51138,-0.025564104 L117.75417,-0.0242859 L117.99696,-0.023071606 L118.23975,-0.021918025 L118.48255,-0.020822123 L118.72534,-0.019781018 L118.96813,-0.018791966 L119.21092,-0.017852368 L119.45372,-0.01695975 L119.69651,-0.016111761 L119.9393,-0.015306174 L120.18209,-0.014540865 L120.42489,-0.0138138225 L120.66768,-0.013123131 L120.91047,-0.012466975 L121.15326,-0.011843625 L121.39606,-0.011251444 L121.63885,-0.010688872 L121.88164,-0.010154429 L122.12443,-0.009646707 L122.367226,-0.0091643715 L122.610016,-0.008706153 L122.852806,-0.008270846 L123.0956,-0.007857303 L123.338394,-0.007464438 L123.581184,-0.0070912163 L123.823975,-0.0067366553 L124.066765,-0.0063998224 L124.30956,-0.0060798316 L124.55235,-0.00577584 L124.79514,-0.005487048 L125.03793,-0.0052126953 L125.28073,-0.0049520605 L125.52352,-0.0047044577 L125.76631,-0.004469235 L126.0091,-0.004245773 L126.2519,-0.0040334845 L126.49469,-0.0038318103 L126.73748,-0.0036402198 L126.98027,-0.0034582086 L127.22307,-0.0032852984 L127.46586,-0.0031210333 L127.70865,-0.0029649816 L127.95144,-0.0028167325 L128.19423,-0.002675896 L128.43703,-0.002542101 L128.67982,-0.002414996 L128.9226,-0.0022942463 L129.1654,-0.002179534 L129.40819,-0.0020705573 L129.65099,-0.0019670294 L129.89378,-0.0018686779 L130.13657,-0.001775244 L130.37936,-0.0016864819 L130.62216,-0.0016021577 L130.86494,-0.0015220499 L131.10774,-0.0014459473 L131.35052,-0.00137365 L131.59332,-0.0013049676 L131.83612,-0.0012397191 L132.0789,-0.0011777332 L132.3217,-0.0011188465 L132.5645,-0.0010629043 L132.80728,-0.001009759 L133.05008,-0.00095927104 L133.29286,-0.00091130746 L133.53566,-0.0008657421 L133.77846,-0.000822455 L134.02124,-0.00078133226 L134.26404,-0.00074226566 L134.50684,-0.00070515234 L134.74962,-0.00066989474 L134.99242,-0.0006364 L135.2352,-0.00060458 L135.478,-0.000574351 L135.7208,-0.00054563343 L135.96358,-0.0005183518 L136.20638,-0.0004924342 L136.44917,-0.0004678125 L136.69196,-0.00044442186 L136.93475,-0.00042220077 L137.17754,-0.0004010907 L137.42033,-0.0003810362 L137.66313,-0.0003619844 L137.90591,-0.00034388516 L138.14871,-0.0003266909 L138.3915,-0.00031035635 L138.6343,-0.00029483854 L138.87709,-0.0002800966 L139.11987,-0.00026609178 L139.36267,-0.0002527872 L139.60547,-0.00024014783 L139.84825,-0.00022814044 L140.09105,-0.00021673342 L140.33383,-0.00020589675 L140.57663,-0.00019560191 L140.81943,-0.00018582182 L141.06221,-0.00017653072 L141.30501,-0.00016770419 L141.5478,-0.00015931898 L141.79059,-0.00015135303 L142.03339,-0.00014378538 L142.27617,-0.0001365961 L142.51897,-0.00012976631 L142.76176,-0.00012327799 L143.00455,-0.00011711409 L143.24734,-0.000111258385 L143.49014,-0.000105695464 L143.73293,-0.00010041069 L143.97572,-0.000095390154 L144.2185,-0.00009062065 L144.4613,-0.00008608962 L144.7041,-0.00008178514 L144.94688,-0.00007769588 L145.18968,-0.00007381108 L145.43248,-0.00007012053 L145.67526,-0.000066614506 L145.91806,-0.00006328378 L146.16084,-0.00006011959 L146.40364,-0.00005711361 L146.64644,-0.00005425793 L146.88922,-0.000051545034 L147.13202,-0.00004896778 L147.37482,-0.00004651939 L147.6176,-0.000044193424 L147.8604,-0.000041983752 L148.10318,-0.000039884562 L148.34598,-0.000037890335 L148.58878,-0.000035995818 L148.83156,-0.00003419603 L149.07436,-0.000032486227 L149.31715,-0.000030861916 L149.55994,-0.000029318819 L149.80273,-0.000027852879 L150.04552,-0.000026460233 L150.28831,-0.000025137222 L150.53111,-0.00002388036 L150.7739,-0.000022686343 L151.0167,-0.000021552027 L151.25949,-0.000020474425 L151.50227,-0.000019450703 L151.74507,-0.000018478167 L151.98785,-0.00001755426 L152.23065,-0.000016676546 L152.47345,-0.00001584272 L152.71623,-0.000015050583 L152.95903,-0.000014298053 L153.20183,-0.000013583151 L153.44461,-0.000012903994 L153.68741,-0.0000122587935 L153.93019,-0.000011645854 L154.17299,-0.000011063561 L154.41579,-0.000010510383 L154.65857,-0.000009984864 L154.90137,-0.0000094856205 L155.14417,-0.00000901134 L155.38695,-0.000008560773 L155.62975,-0.0000081327335 L155.87253,-0.0000077260975 L156.11533,-0.0000073397923 L156.35812,-0.0000069728026 L156.6009,-0.0000066241623 L156.8437,-0.0000062929544 L157.0865,-0.0000059783065 L157.32928,-0.000005679391 L157.57208,-0.0000053954213 L157.81487,-0.00000512565 L158.05766,-0.000004869368 L158.30046,-0.0000046258992 L158.54324,-0.0000043946043 L158.78604,-0.000004174874 L159.02884,-0.00000396613 L159.27162,-0.0000037678237 L159.51442,-0.0000035794324 L159.7572,-0.0000034004606 L160,-0.0000032304376 L160.2428,-0.0000030689157 L160.48558,-0.0000029154698 L160.72838,-0.0000027696963 L160.97116,-0.0000026312114 L161.21396,-0.0000024996507 L161.45676,-0.0000023746682 L161.69954,-0.0000022559348 L161.94234,-0.0000021431379 L162.18513,-0.000002035981 L162.42792,-0.000001934182 L162.67072,-0.0000018374727 L162.9135,-0.000001745599 L163.1563,-0.000001658319 L163.3991,-0.0000015754028 L163.64188,-0.0000014966326 L163.88467,-0.0000014218009 L164.12747,-0.0000013507108 L164.37025,-0.0000012831752 L164.61305,-0.0000012190163 L164.85583,-0.0000011580654 L165.09863,-0.0000011001622 L165.34143,-0.0000010451539 L165.58421,-0.0000009928962 L165.82701,-0.0000009432513 L166.06981,-0.0000008960886 L166.31259,-0.0000008512841 L166.55539,-0.00000080871985 L166.79817,-0.0000007682839 L167.04097,-0.0000007298696 L167.28377,-0.000000693376 L167.52655,-0.0000006587072 L167.76935,-0.00000062577175 L168.01215,-0.00000059448314 L168.25493,-0.0000005647589 L168.49773,-0.00000053652093 L168.74051,-0.00000050969476 L168.9833,-0.00000048421 L169.2261,-0.00000045999943 L169.46889,-0.0000004369994 L169.71169,-0.00000041514937 L169.95448,-0.00000039439178 L170.19727,-0.0000003746721 L170.44006,-0.0000003559385 L170.68285,-0.00000033814146 L170.92564,-0.00000032123435 L171.16844,-0.00000030517262 L171.41122,-0.00000028991388 L171.65402,-0.00000027541816 L171.89682,-0.00000026164722 L172.1396,-0.00000024856476 L172.3824,-0.0000002361365 L172.62518,-0.00000022432955 L172.86798,-0.00000021311303 L173.11078,-0.00000020245729 L173.35356,-0.00000019233434 L173.59636,-0.00000018271759 L173.83916,-0.00000017358161 L174.08194,-0.00000016490246 L174.32474,-0.00000015665734 L174.56752,-0.00000014882437 L174.81032,-0.00000014138314 L175.05312,-0.00000013431398 L175.2959,-0.00000012759817 L175.5387,-0.00000012121818 L175.7815,-0.00000011515721 L176.02428,-0.000000109399316 L176.26707,-0.00000010392928 L176.50986,-0.00000009873271 L176.75266,-0.00000009379599 L176.99545,-0.00000008910614 L177.23824,-0.000000084650715 L177.48103,-0.000000080418076 L177.72383,-0.00000007639708 L177.96661,-0.00000007257712 L178.20941,-0.000000068948246 L178.4522,-0.000000065500764 L178.69499,-0.00000006222563 L178.93779,-0.000000059114345 L179.18057,-0.000000056158516 L179.42337,-0.00000005335055 L179.66617,-0.000000050682985 L179.90895,-0.000000048148742 L180.15175,-0.000000045741277 L180.39453,-0.000000043454175 L180.63733,-0.000000041281407 L180.88013,-0.000000039217213 L181.12291,-0.000000037256353 L181.3657,-0.000000035393455 L181.6085,-0.000000033623678 L181.85129,-0.000000031942434 L182.09409,-0.000000030345277 L182.33687,-0.000000028828005 L182.57967,-0.000000027386566 L182.82246,-0.000000026017158 L183.06525,-0.000000024716249 L183.30804,-0.000000023480428 L183.55083,-0.000000022306295 L183.79362,-0.000000021190969 L184.03642,-0.000000020131303 L184.2792,-0.000000019124679 L184.522,-0.000000018168345 L184.7648,-0.000000017259817 L185.00758,-0.000000016396735 L185.25038,-0.000000015576871 L185.49316,-0.000000014798002 L185.73596,-0.00000001405803 L185.97876,-0.0000000133551215 L186.22154,-0.000000012687313 L186.46434,-0.000000012052902 L186.70714,-0.000000011450185 L186.94992,-0.00000001087759 L187.19272,-0.000000010333678 L187.4355,-0.000000009816876 L187.6783,-0.000000009326007 L187.9211,-0.000000008859628 L188.16388,-0.000000008416561 L188.40668,-0.000000007995628 L188.64948,-0.000000007595781 L188.89226,-0.0000000072159727 L189.13506,-0.0000000068551542 L189.37784,-0.0000000065122787 L189.62064,-0.00000000618656 L189.86343,-0.0000000058772125 L190.10622,-0.000000005583319 L190.34901,-0.000000005304094 L190.59181,-0.0000000050388826 L190.8346,-0.0000000047868993 L191.0774,-0.000000004547489 L191.32018,-0.000000004319997 L191.56297,-0.0000000041038986 L191.80577,-0.0000000038986707 L192.04855,-0.0000000037036587 L192.29135,-0.0000000035184693 L192.53415,-0.0000000033424477 L192.77693,-0.0000000031752008 L193.01973,-0.000000003016336 L193.26251,-0.0000000028654603 L193.50531,-0.0000000027221807 L193.74811,-0.0000000025859734 L193.99089,-0.0000000024565765 L194.23369,-0.000000002333728 L194.47649,-0.000000002217035 L194.71927,-0.0000000021061048 L194.96207,-0.0000000020006752 L195.20485,-0.0000000019006152 L195.44765,-0.0000000018055321 L195.69044,-0.0000000017151637 L195.93323,-0.0000000016293793 L196.17603,-0.000000001547786 L196.41882,-0.0000000014703836 L196.6616,-0.0000000013967792 L196.9044,-0.0000000013268421 L197.14719,-0.000000001260441 L197.38998,-0.0000000011973142 L197.63278,-0.0000000011373307 L197.87556,-0.0000000010803594 L198.11836,-0.0000000010262693 L198.36116,-0.0000000009749297 L198.60394,-0.0000000009260784 L198.84674,-0.0000000008797155 L199.08952,-0.0000000008357101 L199.33232,-0.0000000007938002 L199.57512,-0.00000000075398576 L199.8179,-0.0000000007162668 L200.0607,-0.0000000006803815 L200.3035,-0.00000000064632966 L200.54628,-0.0000000006139804 L200.78908,-0.0000000005832028 L201.03186,-0.00000000055399685 L201.27466,-0.0000000005262315 L201.51746,-0.00000000049990684 L201.76024,-0.00000000047489185 L202.00304,-0.00000000045105558 L202.24583,-0.00000000042839804 L202.48862,-0.0000000004069192 L202.73141,-0.0000000003864881 L202.9742,-0.00000000036710476 L203.217,-0.0000000003486382 L203.4598,-0.0000000003310884 L203.70258,-0.0000000003144554 L203.94537,-0.00000000029860822 L204.18817,-0.0000000002836778 L204.43095,-0.00000000026940225 L204.67375,-0.00000000025591249 L204.91653,-0.00000000024307756 L205.15933,-0.0000000002308975 L205.40213,-0.0000000002192413 L205.64491,-0.00000000020823994 L205.88771,-0.00000000019776246 L206.1305,-0.00000000018780885 L206.37329,-0.00000000017837912 L206.61609,-0.00000000016934229 L206.85887,-0.00000000016082934 L207.10167,-0.00000000015270929 L207.34447,-0.00000000014498215 L207.58725,-0.00000000013764791 L207.83005,-0.00000000013070658 L208.07283,-0.00000000012415816 L208.31563,-0.00000000011787167 L208.55843,-0.000000000111978087 L208.80121,-0.00000000010634644 L209.044,-0.00000000010097673 L209.2868,-0.00000000009586896 L209.52959,-0.00000000009102312 L209.77238,-0.000000000086439224 L210.01517,-0.000000000082117264 L210.25797,-0.00000000007792627 L210.50076,-0.00000000007399721 L210.74355,-0.000000000070199124 L210.98634,-0.000000000066662974 L211.22914,-0.000000000063257795 L211.47192,-0.00000000005998358 L211.71472,-0.000000000056971306 L211.9575,-0.00000000005409 L212.2003,-0.000000000051339658 L212.4431,-0.000000000048720288 L212.68588,-0.000000000046231886 L212.92868,-0.000000000043874453 L213.17148,-0.00000000004164799 L213.41426,-0.000000000039552493 L213.65706,-0.000000000037456996 L213.89984,-0.00000000003549247 L214.14264,-0.00000000003365891 L214.38544,-0.00000000003195632 L214.62822,-0.000000000030253727 L214.87102,-0.000000000028682105 L215.11382,-0.000000000027241452 L215.3566,-0.000000000025800799 L215.5994,-0.000000000024491112 L215.84218,-0.000000000023181427 L216.08498,-0.00000000002200271 L216.32777,-0.000000000020823995 L216.57056,-0.000000000019776247 L216.81335,-0.000000000018728498 L217.05615,-0.00000000001768075 L217.29893,-0.00000000001676397 L217.54173,-0.000000000015847192 L217.78452,-0.000000000014930411 L218.02731,-0.0000000000141446 L218.27011,-0.000000000013358789 L218.5129,-0.000000000012572978 L218.75569,-0.000000000011918135 L218.99849,-0.000000000011263292 L219.24127,-0.00000000001060845 L219.48407,-0.000000000009953607 L219.72685,-0.000000000009429733 L219.96965,-0.0000000000089058596 L220.21245,-0.000000000008381985 L220.45523,-0.000000000007858111 L220.69803,-0.0000000000074652055 L220.94083,-0.0000000000070723 L221.18361,-0.0000000000066793945 L221.4264,-0.000000000006286489 L221.66919,-0.0000000000058935834 L221.91199,-0.0000000000055006776 L222.15479,-0.0000000000051077723 L222.39757,-0.000000000004845835 L222.64037,-0.0000000000045838984 L222.88316,-0.000000000004321961 L223.12595,-0.000000000004060024 L223.36874,-0.000000000003798087 L223.61153,-0.00000000000353615 L223.85432,-0.000000000003274213 L224.09712,-0.000000000003012276 L224.3399,-0.0000000000027503388 L224.5827,-0.0000000000024884018 L224.8255,-0.0000000000023574333 L225.06828,-0.0000000000022264649 L225.31108,-0.0000000000020954963 L225.55386,-0.0000000000019645277 L225.79666,-0.0000000000018335593 L226.03946,-0.0000000000017025908 L226.28224,-0.0000000000015716223 L226.52504,-0.0000000000014406537 L226.76784,-0.0000000000013096852 L227.01062,-0.0000000000011787166 L227.25342,-0.0000000000010477482 L227.4962,-0.0000000000009167797 L227.739,-0.00000000000078581114 L227.9818,-0.0000000000006548426 L228.22458,-0.0000000000005238741 L228.46738,-0.00000000000039290557 L228.71016,-0.00000000000026193704 L228.95296,-0.00000000000013096852 L229.19576,-0 L229.43854,-0 L229.68134,-0 L229.92413,-0 L230.16692,-0 L230.40971,-0 L230.6525,-0 L230.8953,-0 L231.13809,-0 L231.38087,-0 L231.62367,-0 L231.86647,-0 L232.10925,-0 L232.35205,-0 L232.59483,-0 L232.83763,-0 L233.08043,-0 L233.32321,-0 L233.56601,-0 L233.8088,-0 L234.05159,-0 L234.29439,-0 L234.53717,-0 L234.77997,-0 L235.02277,-0 L235.26555,-0 L235.50835,-0 L235.75114,-0 L235.99393,-0 L236.23672,-0 L236.4795,-0 L236.7223,-0 L236.9651,-0 L237.20789,-0 L237.45068,-0 L237.69348,-0 L237.93626,-0 L238.17906,-0 L238.42184,-0 L238.66464,-0 L238.90744,-0 L239.15022,-0 L239.39302,-0 L239.63582,-0 L239.8786,-0 L240.1214,-0 L240.36418,-0 L240.60698,-0 L240.84978,-0 L241.09256,-0 L241.33536,-0 L241.57816,-0 L241.82094,-0 L242.06374,-0 L242.30652,-0 L242.54932,-0 L242.79211,-0 L243.0349,-0 L243.2777,-0 L243.5205,-0 L243.76328,-0 L244.00607,-0 L244.24886,-0 L244.49165,-0 L244.73445,-0 L244.97723,-0 L245.22003,-0 L245.46283,-0 L245.70561,-0 L245.94841,-0 L246.1912,-0 L246.43399,-0 L246.67679,-0 L246.91957,-0 L247.16237,-0 L247.40517,-0 L247.64795,-0 L247.89075,-0 L248.13353,-0 L248.37633,-0 L248.61913,-0 L248.86191,-0 L249.1047,-0 L249.3475,-0 L249.59029,-0 L249.83308,-0 L250.07587,-0 L250.31866,-0 L250.56146,-0 L250.80424,-0 L251.04704,-0 L251.28984,-0 L251.53262,-0 L251.77542,-0 L252.0182,-0 L252.261,-0 L252.5038,-0 L252.74658,-0 L252.98938,-0 L253.23216,-0 L253.47496,-0 L253.71776,-0 L253.96054,-0 L254.20334,-0 L254.44614,-0 L254.68892,-0 L254.93172,-0 L255.1745,-0 L255.4173,-0 L255.6601,-0 L255.90288,-0 L256.14566,-0 L256.38846,-0 L256.63126,-0 L256.87405,-0 L257.11685,-0 L257.35965,-0 L257.60242,-0 L257.8452,-0 L258.088,-0 L258.3308,-0 L258.5736,-0 L258.81638,-0 L259.05917,-0 L259.30197,-0 L259.54477,-0 L259.78757,-0 L260.03033,-0 L260.27313,-0 L260.51593,-0 L260.75873,-0 L261.00153,-0 L261.24432,-0 L261.4871,-0 L261.7299,-0 L261.9727,-0 L262.21548,-0 L262.45828,-0 L262.70105,-0 L262.94385,-0 L263.18665,-0 L263.42944,-0 L263.67224,-0 L263.915,-0 L264.1578,-0 L264.4006,-0 L264.6434,-0 L264.8862,-0 L265.129,-0 L265.37177,-0 L265.61456,-0 L265.85736,-0 L266.10016,-0 L266.34296,-0 L266.58572,-0 L266.82852,-0 L267.07132,-0 L267.31412,-0 L267.55692,-0 L267.79968,-0 L268.04248,-0 L268.28528,-0 L268.52808,-0 L268.77087,-0 L269.01367,-0 L269.25644,-0 L269.49924,-0 L269.74203,-0 L269.98483,-0 L270.22763,-0 L270.4704,-0 L270.7132,-0 L270.956,-0 L271.1988,-0 L271.4416,-0 L271.68436,-0 L271.92715,-0 L272.16995,-0 L272.41275,-0 L272.65555,-0 L272.89835,-0 L273.1411,-0 L273.3839,-0 L273.6267,-0 L273.8695,-0 L274.1123,-0 L274.35507,-0 L274.59787,-0 L274.84067,-0 L275.08347,-0 L275.32626,-0 L275.56903,-0 L275.81183,-0 L276.05463,-0 L276.29742,-0 L276.54022,-0 L276.783,-0 L277.0258,-0 L277.2686,-0 L277.51138,-0 L277.75418,-0 L277.99698,-0 L278.23975,-0 L278.48254,-0 L278.72534,-0 L278.96814,-0 L279.21094,-0 L279.4537,-0 L279.6965,-0 L279.9393,-0 L280.1821,-0 L280.4249,-0 L280.66766,-0 L280.91046,-0 L281.15326,-0 L281.39606,-0 L281.63885,-0 L281.88165,-0 L282.12442,-0 L282.36722,-0 L282.61002,-0 L282.8528,-0 L283.0956,-0 L283.33838,-0 L283.58118,-0 L283.82397,-0 L284.06677,-0 L284.30957,-0 L284.55234,-0 L284.79514,-0 L285.03793,-0 L285.28073,-0 L285.52353,-0 L285.76633,-0 L286.0091,-0 L286.2519,-0 L286.4947,-0 L286.7375,-0 L286.9803,-0 L287.22305,-0 L287.46585,-0 L287.70865,-0 L287.95145,-0 L288.19424,-0 L288.437,-0 L288.6798,-0 L288.9226,-0 L289.1654,-0 L289.4082,-0 L289.651,-0 L289.89377,-0 L290.13657,-0 L290.37936,-0 L290.62216,-0 L290.86496,-0 L291.10773,-0 L291.35052,-0 L291.59332,-0 L291.83612,-0 L292.07892,-0 L292.3217,-0 L292.56448,-0 L292.80728,-0 L293.05008,-0 L293.29288,-0 L293.53568,-0 L293.77844,-0 L294.02124,-0 L294.26404,-0 L294.50684,-0 L294.74963,-0 L294.9924,-0 L295.2352,-0 L295.478,-0 L295.7208,-0 L295.9636,-0 L296.20636,-0 L296.44916,-0 L296.69196,-0 L296.93475,-0 L297.17755,-0 L297.42032,-0 L297.66312,-0 L297.9059,-0 L298.1487,-0 L298.3915,-0 L298.6343,-0 L298.87708,-0 L299.11987,-0 L299.36267,-0 L299.60547,-0 L299.84827,-0 L300.09103,-0 L300.33383,-0 L300.57663,-0 L300.81943,-0 L301.06223,-0 L301.305,-0 L301.5478,-0 L301.7906,-0 L302.0334,-0 L302.27618,-0 L302.51898,-0 L302.76175,-0 L303.00455,-0 L303.24734,-0 L303.49014,-0 L303.73294,-0 L303.9757,-0 L304.2185,-0 L304.4613,-0 L304.7041,-0 L304.9469,-0 L305.18967,-0 L305.43246,-0 L305.67526,-0 L305.91806,-0 L306.16086,-0 L306.40366,-0 L306.64642,-0 L306.88922,-0 L307.13202,-0 L307.37482,-0 L307.6176,-0 L307.86038,-0 L308.10318,-0 L308.34598,-0 L308.58878,-0 L308.83157,-0 L309.07434,-0 L309.31714,-0 L309.55994,-0 L309.80273,-0 L310.04553,-0 L310.28833,-0 L310.5311,-0 L310.7739,-0 L311.0167,-0 L311.2595,-0 L311.5023,-0 L311.74506,-0 L311.98785,-0 L312.23065,-0 L312.47345,-0 L312.71625,-0 L312.959,-0 L313.2018,-0 L313.4446,-0 L313.6874,-0 L313.9302,-0 L314.173,-0 L314.41577,-0 L314.65857,-0 L314.90137,-0 L315.14417,-0 L315.38696,-0 L315.62973,-0 L315.87253,-0 L316.11533,-0 L316.35812,-0 L316.60092,-0 L316.8437,-0 L317.0865,-0 L317.32928,-0 L317.57208,-0 L317.81488,-0 L318.05768,-0 L318.30045,-0 L318.54324,-0 L318.78604,-0 L319.02884,-0 L319.27164,-0 L319.5144,-0 L319.7572,-0 L320,-0 L320.2428,-0 L320.4856,-0 L320.72836,-0 L320.97116,-0 L321.21396,-0 L321.45676,-0 L321.69955,-0 L321.94232,-0 L322.18512,-0 L322.42792,-0 L322.67072,-0 L322.9135,-0 L323.1563,-0 L323.39908,-0 L323.64188,-0 L323.88467,-0 L324.12747,-0 L324.37027,-0 L324.61304,-0 L324.85583,-0 L325.09863,-0 L325.34143,-0 L325.58423,-0 L325.827,-0 L326.0698,-0 L326.3126,-0 L326.5554,-0 L326.7982,-0 L327.041,-0 L327.28375,-0 L327.52655,-0 L327.76935,-0 L328.01215,-0 L328.25494,-0 L328.4977,-0 L328.7405,-0 L328.9833,-0 L329.2261,-0 L329.4689,-0 L329.71167,-0 L329.95447,-0 L330.19727,-0 L330.44006,-0 L330.68286,-0 L330.92566,-0 L331.16843,-0 L331.41122,-0 L331.65402,-0 L331.89682,-0 L332.13962,-0 L332.3824,-0 L332.62518,-0 L332.86798,-0 L333.11078,-0 L333.35358,-0 L333.59634,-0 L333.83914,-0 L334.08194,-0 L334.32474,-0 L334.56754,-0 L334.81033,-0 L335.0531,-0 L335.2959,-0 L335.5387,-0 L335.7815,-0 L336.0243,-0 L336.26706,-0 L336.50986,-0 L336.75266,-0 L336.99545,-0 L337.23825,-0 L337.48102,-0 L337.72382,-0 L337.9666,-0 L338.2094,-0 L338.4522,-0 L338.695,-0 L338.93777,-0 L339.18057,-0 L339.42337,-0 L339.66617,-0 L339.90897,-0 L340.15173,-0 L340.39453,-0 L340.63733,-0 L340.88013,-0 L341.12292,-0 L341.3657,-0 L341.6085,-0 L341.8513,-0 L342.0941,-0 L342.33688,-0 L342.57968,-0 L342.82245,-0 L343.06525,-0 L343.30804,-0 L343.55084,-0 L343.79364,-0 L344.0364,-0 L344.2792,-0 L344.522,-0 L344.7648,-0 L345.0076,-0 L345.25037,-0 L345.49316,-0 L345.73596,-0 L345.97876,-0 L346.22156,-0 L346.46432,-0 L346.70712,-0 L346.94992,-0 L347.19272,-0 L347.43552,-0 L347.6783,-0 L347.92108,-0 L348.16388,-0 L348.40668,-0 L348.64948,-0 L348.89227,-0 L349.13504,-0 L349.37784,-0 L349.62064,-0 L349.86343,-0 L350.10623,-0 L350.349,-0 L350.5918,-0 L350.8346,-0 L351.0774,-0 L351.3202,-0 L351.563,-0 L351.80576,-0 L352.04855,-0 L352.29135,-0 L352.53415,-0 L352.77695,-0 L353.0197,-0 L353.2625,-0 L353.5053,-0 L353.7481,-0 L353.9909,-0 L354.23367,-0 L354.47647,-0 L354.71927,-0 L354.96207,-0 L355.20486,-0 L355.44766,-0 L355.69043,-0 L355.93323,-0 L356.17603,-0 L356.41882,-0 L356.66162,-0 L356.9044,-0 L357.1472,-0 L357.38998,-0 L357.63278,-0 L357.87558,-0 L358.11835,-0 L358.36115,-0 L358.60394,-0 L358.84674,-0 L359.08954,-0 L359.33234,-0 L359.5751,-0 L359.8179,-0 L360.0607,-0 L360.3035,-0 L360.5463,-0 L360.78906,-0 L361.03186,-0 L361.27466,-0 L361.51746,-0 L361.76025,-0 L362.00302,-0 L362.24582,-0 L362.48862,-0 L362.7314,-0 L362.9742,-0 L363.217,-0 L363.45978,-0 L363.70258,-0 L363.94537,-0 L364.18817,-0 L364.43097,-0 L364.67374,-0 L364.91653,-0 L365.15933,-0 L365.40213,-0 L365.64493,-0 L365.8877,-0 L366.1305,-0 L366.3733,-0 L366.6161,-0 L366.8589,-0 L367.10165,-0 L367.34445,-0 L367.58725,-0 L367.83005,-0 L368.07285,-0 L368.31564,-0 L368.5584,-0 L368.8012,-0 L369.044,-0 L369.2868,-0 L369.5296,-0 L369.77237,-0 L370.01517,-0 L370.25797,-0 L370.50076,-0 L370.74356,-0 L370.98633,-0 L371.22913,-0 L371.47192,-0 L371.71472,-0 L371.95752,-0 L372.20032,-0 L372.44308,-0 L372.68588,-0 L372.92868,-0 L373.17148,-0 L373.41428,-0 L373.65704,-0 L373.89984,-0 L374.14264,-0 L374.38544,-0 L374.62823,-0 L374.871,-0 L375.1138,-0 L375.3566,-0 L375.5994,-0 L375.8422,-0 L376.085,-0 L376.32776,-0 L376.57056,-0 L376.81335,-0 L377.05615,-0 L377.29895,-0 L377.54172,-0 L377.78452,-0 L378.0273,-0 L378.2701,-0 L378.5129,-0 L378.75568,-0 L378.99847,-0 L379.24127,-0 L379.48407,-0 L379.72687,-0 L379.96967,-0 L380.21243,-0 L380.45523,-0 L380.69803,-0 L380.94083,-0 L381.18362,-0 L381.4264,-0 L381.6692,-0 L381.912,-0 L382.1548,-0 L382.39758,-0 L382.64035,-0 L382.88315,-0 L383.12595,-0 L383.36874,-0 L383.61154,-0 L383.85434,-0 L384.0971,-0 L384.3399,-0 L384.5827,-0 L384.8255,-0 L385.0683,-0 L385.31107,-0 L385.55386,-0 L385.79666,-0 L386.03946,-0 L386.28226,-0 L386.52502,-0 L386.76782,-0 L387.01062,-0 L387.25342,-0 L387.49622,-0 L387.739,-0 L387.98178,-0 L388.22458,-0 L388.46738,-0 L388.71017,-0 L388.95297,-0 L389.19574,-0 L389.43854,-0 L389.68134,-0 L389.92413,-0 L390.16693,-0 L390.4097,-0 L390.6525,-0 L390.8953,-0 L391.1381,-0 L391.3809,-0 L391.62366,-0 L391.86646,-0 L392.10925,-0 L392.35205,-0 L392.59485,-0 L392.83765,-0 L393.0804,-0 L393.3232,-0 L393.566,-0 L393.8088,-0 L394.0516,-0 L394.29437,-0 L394.53717,-0 L394.77997,-0 L395.02277,-0 L395.26556,-0 L395.50833,-0 L395.75113,-0 L395.99393,-0 L396.23672,-0 L396.47952,-0 L396.72232,-0 L396.9651,-0 L397.2079,-0 L397.45068,-0 L397.69348,-0 L397.93628,-0 L398.17905,-0 L398.42184,-0 L398.66464,-0 L398.90744,-0 L399.15024,-0 L399.393,-0 L399.6358,-0 L399.8786,-0 L400.1214,-0 L400.3642,-0 L400.607,-0 L400.84976,-0 L401.09256,-0 L401.33536,-0 L401.57816,-0 L401.82095,-0 L402.06372,-0 L402.30652,-0 L402.54932,-0 L402.7921,-0 L403.0349,-0 L403.27768,-0 L403.52048,-0 L403.76328,-0 L404.00607,-0 L404.24887,-0 L404.49167,-0 L404.73444,-0 L404.97723,-0 L405.22003,-0 L405.46283,-0 L405.70563,-0 L405.9484,-0 L406.1912,-0 L406.434,-0 L406.6768,-0 L406.9196,-0 L407.16235,-0 L407.40515,-0 L407.64795,-0 L407.89075,-0 L408.13354,-0 L408.37634,-0 L408.6191,-0 L408.8619,-0 L409.1047,-0 L409.3475,-0 L409.5903,-0 L409.83307,-0 L410.07587,-0 L410.31866,-0 L410.56146,-0 L410.80426,-0 L411.04703,-0 L411.28983,-0 L411.53262,-0 L411.77542,-0 L412.01822,-0 L412.261,-0 L412.50378,-0 L412.74658,-0 L412.98938,-0 L413.23218,-0 L413.47498,-0 L413.71774,-0 L413.96054,-0 L414.20334,-0 L414.44614,-0 L414.68893,-0 L414.9317,-0 L415.1745,-0 L415.4173,-0 L415.6601,-0 L415.9029,-0 L416.14566,-0 L416.38846,-0 L416.63126,-0 L416.87405,-0 L417.11685,-0 L417.35965,-0 L417.60242,-0 L417.8452,-0 L418.088,-0 L418.3308,-0 L418.5736,-0 L418.81638,-0 L419.05917,-0 L419.30197,-0 L419.54477,-0 L419.78757,-0 L420.03033,-0 L420.27313,-0 L420.51593,-0 L420.75873,-0 L421.00153,-0 L421.24432,-0 L421.4871,-0 L421.7299,-0 L421.9727,-0 L422.21548,-0 L422.45828,-0 L422.70105,-0 L422.94385,-0 L423.18665,-0 L423.42944,-0 L423.67224,-0 L423.915,-0 L424.1578,-0 L424.4006,-0 L424.6434,-0 L424.8862,-0 L425.129,-0 L425.37177,-0 L425.61456,-0 L425.85736,-0 L426.10016,-0 L426.34296,-0 L426.58572,-0 L426.82852,-0 L427.07132,-0 L427.31412,-0 L427.55692,-0 L427.79968,-0 L428.04248,-0 L428.28528,-0 L428.52808,-0 L428.77087,-0 L429.01367,-0 L429.25644,-0 L429.49924,-0 L429.74203,-0 L429.98483,-0 L430.22763,-0 L430.4704,-0 L430.7132,-0 L430.956,-0 L431.1988,-0 L431.4416,-0 L431.68436,-0 L431.92715,-0 L432.16995,-0 L432.41275,-0 L432.65555,-0 L432.89835,-0 L433.1411,-0 L433.3839,-0 L433.6267,-0 L433.8695,-0 L434.1123,-0 L434.35507,-0 L434.59787,-0 L434.84067,-0 L435.08347,-0 L435.32626,-0 L435.56903,-0 L435.81183,-0 L436.05463,-0 L436.29742,-0 L436.54022,-0 L436.783,-0 L437.0258,-0 L437.2686,-0 L437.51138,-0 L437.75418,-0 L437.99698,-0 L438.23975,-0 L438.48254,-0 L438.72534,-0 L438.96814,-0 L439.21094,-0 L439.4537,-0 L439.6965,-0 L439.9393,-0 L440.1821,-0 L440.4249,-0 L440.66766,-0 L440.91046,-0 L441.15326,-0 L441.39606,-0 L441.63885,-0 L441.88165,-0 L442.12442,-0 L442.36722,-0 L442.61002,-0 L442.8528,-0 L443.0956,-0 L443.33838,-0 L443.58118,-0 L443.82397,-0 L444.06677,-0 L444.30957,-0 L444.55234,-0 L444.79514,-0 L445.03793,-0 L445.28073,-0 L445.52353,-0 L445.76633,-0 L446.0091,-0 L446.2519,-0 L446.4947,-0 L446.7375,-0 L446.9803,-0 L447.22305,-0 L447.46585,-0 L447.70865,-0 L447.95145,-0 L448.19424,-0 L448.437,-0 L448.6798,-0 L448.9226,-0 L449.1654,-0 L449.4082,-0 L449.651,-0 L449.89377,-0 L450.13657,-0 L450.37936,-0 L450.62216,-0 L450.86496,-0 L451.10773,-0 L451.35052,-0 L451.59332,-0 L451.83612,-0 L452.07892,-0 L452.3217,-0 L452.56448,-0 L452.80728,-0 L453.05008,-0 L453.29288,-0 L453.53568,-0 L453.77844,-0 L454.02124,-0 L454.26404,-0 L454.50684,-0 L454.74963,-0 L454.9924,-0 L455.2352,-0 L455.478,-0 L455.7208,-0 L455.9636,-0 L456.20636,-0 L456.44916,-0 L456.69196,-0 L456.93475,-0 L457.17755,-0 L457.42032,-0 L457.66312,-0 L457.9059,-0 L458.1487,-0 L458.3915,-0 L458.6343,-0 L458.87708,-0 L459.11987,-0 L459.36267,-0 L459.60547,-0 L459.84827,-0 L460.09103,-0 L460.33383,-0 L460.57663,-0 L460.81943,-0 L461.06223,-0 L461.305,-0 L461.5478,-0 L461.7906,-0 L462.0334,-0 L462.27618,-0 L462.51898,-0 L462.76175,-0 L463.00455,-0 L463.24734,-0 L463.49014,-0 L463.73294,-0 L463.9757,-0 L464.2185,-0 L464.4613,-0 L464.7041,-0 L464.9469,-0 L465.18967,-0 L465.43246,-0 L465.67526,-0 L465.91806,-0 L466.16086,-0 L466.40366,-0 L466.64642,-0 L466.88922,-0 L467.13202,-0 L467.37482,-0 L467.6176,-0 L467.86038,-0 L468.10318,-0 L468.34598,-0 L468.58878,-0 L468.83157,-0 L469.07434,-0 L469.31714,-0 L469.55994,-0 L469.80273,-0 L470.04553,-0 L470.28833,-0 L470.5311,-0 L470.7739,-0 L471.0167,-0 L471.2595,-0 L471.5023,-0 L471.74506,-0 L471.98785,-0 L472.23065,-0 L472.47345,-0 L472.71625,-0 L472.959,-0 L473.2018,-0 L473.4446,-0 L473.6874,-0 L473.9302,-0 L474.173,-0 L474.41577,-0 L474.65857,-0 L474.90137,-0 L475.14417,-0 L475.38696,-0 L475.62973,-0 L475.87253,-0 L476.11533,-0 L476.35812,-0 L476.60092,-0 L476.8437,-0 L477.0865,-0 L477.32928,-0 L477.57208,-0 L477.81488,-0 L478.05768,-0 L478.30045,-0 L478.54324,-0 L478.78604,-0 L479.02884,-0 L479.27164,-0 L479.5144,-0 L479.7572,-0 L480,-0" fill="none" stroke="black" stroke-linejoin="round" stroke-width="2"/>
</g>
</g>
<g>
<g>
<line stroke="black" stroke-width="1" x1="0" x2="0" y1="0" y2="10"/>
<line stroke="black" stroke-width="1" x1="97.11684370257967" x2="97.11684370257967" y1="0" y2="10"/>
<line stroke="black" stroke-width="1" x1="194.23368740515934" x2="194.23368740515934" y1="0" y2="10"/>
<line stroke="black" stroke-width="1" x1="291.350531107739" x2="291.350531107739" y1="0" y2="10"/>
<line stroke="black" stroke-width="1" x1="388.4673748103187" x2="388.4673748103187" y1="0" y2="10"/>
</g>
<line stroke="black" stroke-width="1" x1="0" x2="480" y1="0" y2="0"/>
<g>
<text font-size="12" text-anchor="middle" x="0" y="20">
0
</text>
<text font-size="12" text-anchor="middle" x="97.11684370257967" y="20">
400
</text>
<text font-size="12" text-anchor="middle" x="194.23368740515934" y="20">
800
</text>
<text font-size="12" text-anchor="middle" x="291.350531107739" y="20">
1200
</text>
<text font-size="12" text-anchor="middle" x="388.4673748103187" y="20">
1600
</text>
</g>
<text font-size="12" text-anchor="middle" x="240" y="30">

</text>
</g>
<g>
<g>
<line stroke="black" stroke-width="1" x1="0" x2="-10" y1="0.0000000000005238740760239279" y2="0.0000000000005238740760239279"/>
<line stroke="black" stroke-width="1" x1="0" x2="-10" y1="-58.98297733926015" y2="-58.98297733926015"/>
<line stroke="black" stroke-width="1" x1="0" x2="-10" y1="-117.9659546785207" y2="-117.9659546785207"/>
<line stroke="black" stroke-width="1" x1="0" x2="-10" y1="-176.94893201778137" y2="-176.94893201778137"/>
<line stroke="black" stroke-width="1" x1="0" x2="-10" y1="-235.9319093570419" y2="-235.9319093570419"/>
<line stroke="black" stroke-width="1" x1="0" x2="-10" y1="-294.9148866963026" y2="-294.9148866963026"/>
</g>
<line stroke="black" stroke-width="1" x1="0" x2="0" y1="0" y2="-340"/>
<g>
<text dominant-baseline="middle" font-size="12" text-anchor="end" x="-15" y="0.0000000000005238740760239279">
5
</text>
<text dominant-baseline="middle" font-size="12" text-anchor="end" x="-15" y="-58.98297733926015">
5.4
</text>
<text dominant-baseline="middle" font-size="12" text-anchor="end" x="-15" y="-117.9659546785207">
5.8
</text>
<text dominant-baseline="middle" font-size="12" text-anchor="end" x="-15" y="-176.94893201778137">
6.2
</text>
<text dominant-baseline="middle" font-size="12" text-anchor="end" x="-15" y="-235.9319093570419">
6.6
</text>
<text dominant-baseline="middle" font-size="12" text-anchor="end" x="-15" y="-294.9148866963026">
7
</text>
</g>
<text font-size="12" text-anchor="middle" transform="rotate(-90 -36 -170)" x="-36" y="-182">

</text>
</g>
</g>
</svg>