<svg viewBox="0 0 600 400" xmlns="http://www.w3.org/2000/svg">
<g transform="translate(72, 364)">
<g>
<g>
<path d="M0,-0 L0,-0 L0.24415056,-17 L0.48830113,-33.15 L0.7324517,-48.4925 L0.97660226,-63.067875 L1.2207528,-76.91448 L1.4649034,-90.068756 L1.7090539,-102.56532 L1.9532045,-114.43705 L2.197355,-125.7152 L2.4415057,-136.42944 L2.685656,-137.6606 L2.9298067,-147.77757 L3.1739573,-157.38869 L3.4181077,-166.51926 L3.6622584,-175.1933 L3.906409,-183.43362 L4.1505594,-182.31458 L4.39471,-181.25148 L4.6388607,-189.1889 L4.8830113,-196.72946 L5.127162,-203.89299 L5.371312,-210.69833 L5.615463,-208.21605 L5.8596134,-214.80525 L6.103764,-221.06499 L6.3479147,-227.01173 L6.5920653,-232.66115 L6.8362155,-238.02809 L7.080366,-243.1267 L7.324517,-247.97035 L7.5686674,-252.57184 L7.812818,-256.94324 L8.056969,-261.09607 L8.301119,-265.0413 L8.54527,-268.7892 L8.78942,-272.34976 L9.03357,-275.73227 L9.277721,-278.94565 L9.521872,-281.99838 L9.766023,-284.89844 L10.010173,-287.65353 L10.254324,-290.27084 L10.498474,-292.75732 L10.742624,-295.11945 L10.986775,-297.36346 L11.230926,-299.4953 L11.475077,-301.52054 L11.719227,-303.44452 L11.963377,-305.27228 L12.207528,-307.00867 L12.451678,-308.65823 L12.695829,-310.2253 L12.93998,-311.71405 L13.184131,-313.12836 L13.428281,-314.47192 L13.672431,-315.74835 L13.916582,-316.96094 L14.160732,-318.11288 L14.404883,-319.20724 L14.649034,-320.24686 L14.893184,-321.23453 L15.137335,-322.1728 L15.381485,-323.06415 L15.625636,-323.91095 L15.869786,-324.7154 L16.113937,-325.47964 L16.358088,-326.20566 L16.602238,-326.8954 L16.846388,-327.5506 L17.09054,-328.17307 L17.33469,-328.7644 L17.57884,-329.3262 L17.82299,-329.8599 L18.06714,-330.36688 L18.311293,-330.84854 L18.555443,-331.30612 L18.799593,-331.7408 L19.043743,-323.20642 L19.287893,-324.04608 L19.532045,-324.84378 L19.776196,-325.6016 L20.020346,-326.3215 L20.264496,-327.00543 L20.508648,-327.65515 L20.752798,-328.2724 L20.996948,-328.8588 L21.241098,-329.41583 L21.485249,-329.94507 L21.7294,-330.4478 L21.97355,-330.9254 L22.217701,-331.37915 L22.461851,-331.81018 L22.706001,-332.21967 L22.950153,-332.6087 L23.194304,-332.97827 L23.438454,-333.32935 L23.682604,-333.66287 L23.926754,-333.97974 L24.170906,-334.28073 L24.415056,-334.5667 L24.659206,-334.83838 L24.903357,-335.09647 L25.147507,-335.34164 L25.391659,-335.57455 L25.635809,-335.79584 L25.87996,-336.00604 L26.12411,-336.20572 L26.368261,-336.39545 L26.612411,-336.57568 L26.856562,-336.7469 L27.100712,-336.90955 L27.344862,-337.06406 L27.589014,-337.21088 L27.833164,-337.3503 L28.077314,-337.48282 L28.321465,-337.60867 L28.565615,-337.72824 L28.809767,-337.84183 L29.053917,-337.94974 L29.298067,-338.05225 L29.542217,-338.14963 L29.786367,-338.24216 L30.03052,-338.33005 L30.27467,-338.41354 L30.51882,-338.49286 L30.76297,-338.5682 L31.00712,-338.6398 L31.251272,-338.70782 L31.495422,-338.77243 L31.739573,-338.8338 L31.983723,-338.89212 L32.227875,-338.9475 L32.472023,-339.00012 L32.716175,-339.05014 L32.960327,-339.09763 L33.204475,-339.14273 L33.448627,-339.1856 L33.692776,-339.22632 L33.936928,-339.265 L34.18108,-339.30176 L34.42523,-339.33667 L34.66938,-339.36984 L34.91353,-339.40134 L35.15768,-339.43127 L35.401833,-339.45972 L35.64598,-339.48672 L35.890133,-339.5124 L36.13428,-339.53677 L36.378433,-339.55994 L36.622585,-339.58194 L36.866734,-339.60284 L37.110886,-339.6227 L37.355034,-339.64157 L37.599186,-339.6595 L37.843338,-339.6765 L38.087486,-339.6927 L38.33164,-339.70804 L38.575787,-339.72266 L38.81994,-339.7365 L39.06409,-339.7497 L39.30824,-339.7622 L39.55239,-339.7741 L39.79654,-339.7854 L40.04069,-339.7961 L40.284843,-339.8063 L40.52899,-339.816 L40.773144,-339.8252 L41.017296,-339.83395 L41.261444,-339.84225 L41.505596,-339.85013 L41.749744,-339.85764 L41.993896,-339.86475 L42.23805,-339.8715 L42.482197,-339.87793 L42.72635,-339.88403 L42.970497,-339.88983 L43.21465,-339.89536 L43.4588,-339.90057 L43.70295,-339.90555 L43.9471,-339.91028 L44.19125,-339.91476 L44.435402,-339.919 L44.679554,-339.92307 L44.923702,-339.9269 L45.167854,-339.93057 L45.412003,-339.93405 L45.656155,-339.93735 L45.900307,-339.94046 L46.144455,-339.94345 L46.388607,-339.94626 L46.632755,-339.94897 L46.876907,-339.9515 L47.12106,-339.95395 L47.365208,-339.95624 L47.60936,-339.95844 L47.853508,-339.9605 L48.09766,-339.9625 L48.341812,-339.96436 L48.58596,-339.96613 L48.830112,-339.96783 L49.07426,-339.96945 L49.318413,-339.97098 L49.562565,-339.9724 L49.806713,-339.9738 L50.050865,-339.9751 L50.295013,-339.97635 L50.539165,-339.97754 L50.783318,-339.97867 L51.027466,-339.97974 L51.271618,-339.98074 L51.51577,-339.9817 L51.75992,-339.9826 L52.00407,-339.9835 L52.24822,-339.9843 L52.49237,-339.9851 L52.736523,-339.98584 L52.98067,-339.98654 L53.224823,-339.9872 L53.46897,-339.98785 L53.713123,-339.98846 L53.957275,-339.98904 L54.201424,-339.9896 L54.445576,-339.9901 L54.689724,-339.9906 L54.933876,-339.9911 L55.17803,-339.99152 L55.422176,-339.99194 L55.66633,-339.99234 L55.910477,-339.99274 L56.15463,-339.9931 L56.39878,-339.99344 L56.64293,-339.99377 L56.88708,-339.99408 L57.13123,-339.9944 L57.37538,-339.99466 L57.619534,-339.99493 L57.86368,-339.99518 L58.107834,-339.99542 L58.351982,-339.99564 L58.596134,-339.99588 L58.840286,-339.99606 L59.084435,-339.99628 L59.328587,-339.99646 L59.572735,-339.99664 L59.816887,-339.9968 L60.06104,-339.99695 L60.305187,-339.9971 L60.54934,-339.99725 L60.793488,-339.9974 L61.03764,-339.99753 L61.28179,-339.99765 L61.52594,-339.99777 L61.770092,-339.99786 L62.01424,-339.998 L62.258392,-339.99808 L62.502544,-339.99817 L62.746693,-339.99826 L62.990845,-339.99835 L63.234997,-339.99844 L63.479145,-339.9985 L63.723297,-339.9986 L63.967445,-339.99866 L64.21159,-339.99872 L64.45575,-339.99878 L64.6999,-339.99884 L64.944046,-339.9989 L65.1882,-339.99896 L65.43235,-339.99902 L65.6765,-339.99905 L65.920654,-339.9991 L66.1648,-339.99915 L66.40895,-339.9992 L66.6531,-339.99924 L66.897255,-339.99927 L67.1414,-339.99933 L67.38555,-339.99936 L67.62971,-339.9994 L67.873856,-339.99942 L68.118004,-339.99945 L68.36216,-339.99948 L68.60631,-339.99948 L68.85046,-339.9995 L69.09461,-339.99954 L69.33876,-339.99957 L69.58291,-339.9996 L69.82706,-339.9996 L70.07121,-339.99963 L70.31536,-339.99963 L70.55951,-339.99966 L70.803665,-339.9997 L71.04781,-339.9997 L71.29196,-339.99973 L71.53612,-339.99973 L71.780266,-339.99976 L72.024414,-339.99976 L72.26856,-339.99976 L72.51272,-339.9998 L72.75687,-339.9998 L73.001015,-339.9998 L73.24517,-339.99982 L73.48932,-339.99982 L73.73347,-339.99982 L73.97762,-339.99985 L74.22177,-339.99985 L74.46592,-339.99985 L74.71007,-339.99985 L74.95422,-339.99988 L75.19837,-339.99988 L75.44252,-339.99988 L75.686676,-339.99988 L75.930824,-339.99988 L76.17497,-339.9999 L76.41913,-339.9999 L76.66328,-339.9999 L76.907425,-339.9999 L77.15157,-339.9999 L77.39573,-339.9999 L77.63988,-339.99994 L77.884026,-339.99994 L78.12818,-339.99994 L78.37233,-339.99994 L78.61648,-339.99994 L78.860634,-339.99994 L79.10478,-339.99994 L79.34893,-339.99994 L79.59308,-339.99994 L79.837234,-339.99994 L80.08138,-339.99997 L80.32553,-339.99997 L80.56969,-339.99997 L80.813835,-339.99997 L81.05798,-339.99997 L81.30214,-339.99997 L81.54629,-339.99997 L81.790436,-339.99997 L82.03459,-339.99997 L82.27874,-339.99997 L82.52289,-339.99997 L82.76704,-339.99997 L83.01119,-339.99997 L83.25534,-339.99997 L83.49949,-339.99997 L83.743645,-339.99997 L83.98779,-339.99997 L84.23194,-339.99997 L84.4761,-339.99997 L84.720245,-339.99997 L84.96439,-339.99997 L85.20854,-339.99997 L85.4527,-340 L85.696846,-340 L85.940994,-340 L86.18515,-340 L86.4293,-340 L86.67345,-340 L86.9176,-340 L87.16175,-340 L87.4059,-340 L87.65005,-340 L87.8942,-340 L88.13835,-340 L88.3825,-340 L88.626656,-340 L88.870804,-340 L89.11495,-340 L89.35911,-340 L89.60326,-340 L89.847404,-340 L90.09155,-340 L90.33571,-340 L90.57986,-340 L90.824005,-340 L91.06816,-340 L91.31231,-340 L91.55646,-340 L91.80061,-340 L92.04476,-340 L92.28891,-340 L92.533066,-340 L92.777214,-340 L93.02136,-340 L93.26551,-340 L93.50967,-340 L93.753815,-340 L93.99796,-340 L94.24212,-340 L94.48627,-340 L94.730415,-340 L94.97457,-340 L95.21872,-340 L95.46287,-340 L95.707016,-340 L95.95117,-340 L96.19532,-340 L96.43947,-340 L96.683624,-340 L96.92777,-340 L97.17192,-340 L97.41608,-340 L97.660225,-340 L97.90437,-340 L98.14852,-340 L98.39268,-340 L98.636826,-340 L98.880974,-340 L99.12513,-340 L99.36928,-340 L99.61343,-340 L99.85758,-340 L100.10173,-340 L100.34588,-340 L100.59003,-340 L100.83418,-340 L101.07833,-340 L101.32248,-340 L101.566635,-340 L101.81078,-340 L102.05493,-340 L102.29909,-340 L102.543236,-340 L102.787384,-340 L103.03154,-340 L103.27569,-340 L103.51984,-340 L103.763985,-340 L104.00814,-340 L104.25229,-340 L104.49644,-340 L104.74059,-340 L104.98474,-340 L105.22889,-340 L105.473045,-340 L105.71719,-340 L105.96134,-340 L106.20549,-340 L106.449646,-340 L106.693794,-340 L106.93794,-340 L107.1821,-340 L107.42625,-340 L107.670395,-340 L107.91455,-340 L108.1587,-340 L108.40285,-340 L108.646996,-340 L108.89115,-340 L109.1353,-340 L109.37945,-340 L109.623604,-340 L109.86775,-340 L110.1119,-340 L110.35606,-340 L110.600204,-340 L110.84435,-340 L111.0885,-340 L111.33266,-340 L111.576805,-340 L111.82095,-340 L112.06511,-340 L112.30926,-340 L112.553406,-340 L112.79756,-340 L113.04171,-340 L113.28586,-340 L113.53001,-340 L113.77416,-340 L114.01831,-340 L114.26246,-340 L114.506615,-340 L114.75076,-340 L114.99491,-340 L115.23907,-340 L115.483215,-340 L115.72736,-340 L115.97152,-340 L116.21567,-340 L116.459816,-340 L116.703964,-340 L116.94812,-340 L117.19227,-340 L117.43642,-340 L117.68057,-340 L117.92472,-340 L118.16887,-340 L118.413025,-340 L118.65717,-340 L118.90132,-340 L119.14547,-340 L119.389626,-340 L119.63377,-340 L119.87792,-340 L120.12208,-340 L120.36623,-340 L120.610374,-340 L120.85453,-340 L121.09868,-340 L121.34283,-340 L121.586975,-340 L121.83113,-340 L122.07528,-340 L122.31943,-340 L122.56358,-340 L122.80773,-340 L123.05188,-340 L123.296036,-340 L123.540184,-340 L123.78433,-340 L124.02848,-340 L124.27264,-340 L124.516785,-340 L124.76093,-340 L125.00509,-340 L125.24924,-340 L125.493385,-340 L125.73754,-340 L125.98169,-340 L126.22584,-340 L126.46999,-340 L126.71414,-340 L126.95829,-340 L127.20244,-340 L127.446594,-340 L127.69074,-340 L127.93489,-340 L128.17905,-340 L128.42319,-340 L128.66734,-340 L128.9115,-340 L129.15564,-340 L129.3998,-340 L129.64395,-340 L129.88809,-340 L130.13225,-340 L130.3764,-340 L130.62054,-340 L130.8647,-340 L131.10886,-340 L131.353,-340 L131.59715,-340 L131.84131,-340 L132.08545,-340 L132.3296,-340 L132.57376,-340 L132.8179,-340 L133.06206,-340 L133.3062,-340 L133.55035,-340 L133.79451,-340 L134.03865,-340 L134.2828,-340 L134.52696,-340 L134.7711,-340 L135.01526,-340 L135.25941,-340 L135.50356,-340 L135.74771,-340 L135.99187,-340 L136.23601,-340 L136.48016,-340 L136.72432,-340 L136.96846,-340 L137.21262,-340 L137.45677,-340 L137.70091,-340 L137.94507,-340 L138.18922,-340 L138.43336,-340 L138.67752,-340 L138.92166,-340 L139.16582,-340 L139.40997,-340 L139.65411,-340 L139.89827,-340 L140.14243,-340 L140.38657,-340 L140.63072,-340 L140.87488,-340 L141.11902,-340 L141.36317,-340 L141.60733,-340 L141.85147,-340 L142.09563,-340 L142.33978,-340 L142.58392,-340 L142.82808,-340 L143.07224,-340 L143.31638,-340 L143.56053,-340 L143.80467,-340 L144.04883,-340 L144.29298,-340 L144.53712,-340 L144.78128,-340 L145.02544,-340 L145.26958,-340 L145.51373,-340 L145.75789,-340 L146.00203,-340 L146.24619,-340 L146.49034,-340 L146.73448,-340 L146.97864,-340 L147.2228,-340 L147.46693,-340 L147.71109,-340 L147.95525,-340 L148.19939,-340 L148.44354,-340 L148.6877,-340 L148.93184,-340 L149.176,-340 L149.42014,-340 L149.66429,-340 L149.90845,-340 L150.15259,-340 L150.39674,-340 L150.6409,-340 L150.88504,-340 L151.1292,-340 L151.37335,-340 L151.6175,-340 L151.86165,-340 L152.1058,-340 L152.34995,-340 L152.5941,-340 L152.83826,-340 L153.0824,-340 L153.32655,-340 L153.57071,-340 L153.81485,-340 L154.059,-340 L154.30315,-340 L154.5473,-340 L154.79146,-340 L155.0356,-340 L155.27975,-340 L155.52391,-340 L155.76805,-340 L156.0122,-340 L156.25636,-340 L156.5005,-340 L156.74466,-340 L156.98882,-340 L157.23296,-340 L157.47711,-340 L157.72127,-340 L157.96541,-340 L158.20956,-340 L158.45372,-340 L158.69786,-340 L158.94202,-340 L159.18616,-340 L159.43031,-340 L159.67447,-340 L159.91861,-340 L160.16277,-340 L160.40692,-340 L160.65106,-340 L160.89522,-340 L161.13937,-340 L161.38351,-340 L161.62767,-340 L161.87183,-340 L162.11597,-340 L162.36012,-340 L162.60428,-340 L162.84842,-340 L163.09258,-340 L163.33673,-340 L163.58087,-340 L163.82503,-340 L164.06918,-340 L164.31332,-340 L164.55748,-340 L164.80162,-340 L165.04578,-340 L165.28993,-340 L165.53407,-340 L165.77823,-340 L166.02238,-340 L166.26653,-340 L166.51068,-340 L166.75484,-340 L166.99898,-340 L167.24313,-340 L167.48729,-340 L167.73143,-340 L167.97559,-340 L168.21974,-340 L168.46388,-340 L168.70804,-340 L168.9522,-340 L169.19633,-340 L169.44049,-340 L169.68463,-340 L169.92879,-340 L170.17294,-340 L170.41708,-340 L170.66124,-340 L170.9054,-340 L171.14954,-340 L171.39369,-340 L171.63785,-340 L171.88199,-340 L172.12614,-340 L172.3703,-340 L172.61444,-340 L172.8586,-340 L173.10275,-340 L173.3469,-340 L173.59105,-340 L173.8352,-340 L174.07935,-340 L174.3235,-340 L174.56766,-340 L174.8118,-340 L175.05595,-340 L175.3001,-340 L175.54425,-340 L175.7884,-340 L176.03255,-340 L176.2767,-340 L176.52086,-340 L176.765,-340 L177.00916,-340 L177.25331,-340 L177.49745,-340 L177.74161,-340 L177.98576,-340 L178.2299,-340 L178.47406,-340 L178.71822,-340 L178.96236,-340 L179.20651,-340 L179.45067,-340 L179.69481,-340 L179.93896,-340 L180.1831,-340 L180.42726,-340 L180.67142,-340 L180.91556,-340 L181.15971,-340 L181.40387,-340 L181.64801,-340 L181.89217,-340 L182.13632,-340 L182.38046,-340 L182.62462,-340 L182.86877,-340 L183.11292,-340 L183.35707,-340 L183.60123,-340 L183.84537,-340 L184.08952,-340 L184.33368,-340 L184.57782,-340 L184.82198,-340 L185.06613,-340 L185.31027,-340 L185.55443,-340 L185.79857,-340 L186.04272,-340 L186.28688,-340 L186.53102,-340 L186.77518,-340 L187.01933,-340 L187.26347,-340 L187.50763,-340 L187.75179,-340 L187.99593,-340 L188.24008,-340 L188.48424,-340 L188.72838,-340 L188.97253,-340 L189.21669,-340 L189.46083,-340 L189.70499,-340 L189.94914,-340 L190.19328,-340 L190.43744,-340 L190.68158,-340 L190.92574,-340 L191.16989,-340 L191.41403,-340 L191.65819,-340 L191.90234,-340 L192.14648,-340 L192.39064,-340 L192.6348,-340 L192.87894,-340 L193.1231,-340 L193.36725,-340 L193.61139,-340 L193.85555,-340 L194.0997,-340 L194.34384,-340 L194.588,-340 L194.83215,-340 L195.0763,-340 L195.32045,-340 L195.5646,-340 L195.80875,-340 L196.0529,-340 L196.29704,-340 L196.5412,-340 L196.78535,-340 L197.0295,-340 L197.27365,-340 L197.5178,-340 L197.76195,-340 L198.0061,-340 L198.25026,-340 L198.4944,-340 L198.73856,-340 L198.98271,-340 L199.22685,-340 L199.47101,-340 L199.71516,-340 L199.9593,-340 L200.20346,-340 L200.44762,-340 L200.69176,-340 L200.93591,-340 L201.18005,-340 L201.42421,-340 L201.66837,-340 L201.9125,-340 L202.15666,-340 L202.40082,-340 L202.64496,-340 L202.88911,-340 L203.13327,-340 L203.37741,-340 L203.62157,-340 L203.86572,-340 L204.10986,-340 L204.35402,-340 L204.59818,-340 L204.84232,-340 L205.08647,-340 L205.33063,-340 L205.57477,-340 L205.81892,-340 L206.06308,-340 L206.30722,-340 L206.55138,-340 L206.79552,-340 L207.03967,-340 L207.28383,-340 L207.52797,-340 L207.77213,-340 L208.01628,-340 L208.26042,-340 L208.50458,-340 L208.74873,-340 L208.99287,-340 L209.23703,-340 L209.48119,-340 L209.72533,-340 L209.96948,-340 L210.21364,-340 L210.45778,-340 L210.70193,-340 L210.94609,-340 L211.19023,-340 L211.43439,-340 L211.67853,-340 L211.92268,-340 L212.16684,-340 L212.41098,-340 L212.65514,-340 L212.89929,-340 L213.14343,-340 L213.38759,-340 L213.63174,-340 L213.87589,-340 L214.12004,-340 L214.3642,-340 L214.60834,-340 L214.8525,-340 L215.09665,-340 L215.34079,-340 L215.58495,-340 L215.8291,-340 L216.07324,-340 L216.3174,-340 L216.56154,-340 L216.8057,-340 L217.04985,-340 L217.29399,-340 L217.53815,-340 L217.7823,-340 L218.02644,-340 L218.2706,-340 L218.51476,-340 L218.7589,-340 L219.00305,-340 L219.24721,-340 L219.49135,-340 L219.7355,-340 L219.97966,-340 L220.2238,-340 L220.46796,-340 L220.71211,-340 L220.95625,-340 L221.20041,-340 L221.44456,-340 L221.6887,-340 L221.93286,-340 L222.177,-340 L222.42116,-340 L222.66531,-340 L222.90945,-340 L223.15361,-340 L223.39777,-340 L223.6419,-340 L223.88606,-340 L224.13022,-340 L224.37436,-340 L224.61852,-340 L224.86267,-340 L225.10681,-340 L225.35097,-340 L225.59512,-340 L225.83926,-340 L226.08342,-340 L226.32758,-340 L226.57172,-340 L226.81587,-340 L227.06001,-340 L227.30417,-340 L227.54832,-340 L227.79247,-340 L228.03662,-340 L228.28078,-340 L228.52492,-340 L228.76907,-340 L229.01323,-340 L229.25737,-340 L229.50153,-340 L229.74568,-340 L229.98982,-340 L230.23398,-340 L230.47813,-340 L230.72227,-340 L230.96643,-340 L231.21059,-340 L231.45473,-340 L231.69888,-340 L231.94304,-340 L232.18718,-340 L232.43134,-340 L232.67548,-340 L232.91963,-340 L233.16379,-340 L233.40793,-340 L233.65208,-340 L233.89624,-340 L234.14038,-340 L234.38454,-340 L234.6287,-340 L234.87283,-340 L235.11699,-340 L235.36115,-340 L235.60529,-340 L235.84944,-340 L236.0936,-340 L236.33774,-340 L236.5819,-340 L236.82605,-340 L237.07019,-340 L237.31435,-340 L237.55849,-340 L237.80264,-340 L238.0468,-340 L238.29094,-340 L238.5351,-340 L238.77925,-340 L239.02339,-340 L239.26755,-340 L239.5117,-340 L239.75584,-340 L240,-340 L240.24416,-340 L240.4883,-340 L240.73245,-340 L240.97661,-340 L241.22075,-340 L241.4649,-340 L241.70906,-340 L241.9532,-340 L242.19736,-340 L242.44151,-340 L242.68565,-340 L242.92981,-340 L243.17395,-340 L243.4181,-340 L243.66226,-340 L243.9064,-340 L244.15056,-340 L244.39471,-340 L244.63885,-340 L244.88301,-340 L245.12717,-340 L245.3713,-340 L245.61546,-340 L245.85962,-340 L246.10376,-340 L246.34792,-340 L246.59207,-340 L246.83621,-340 L247.08037,-340 L247.32452,-340 L247.56866,-340 L247.81282,-340 L248.05696,-340 L248.30112,-340 L248.54527,-340 L248.78941,-340 L249.03357,-340 L249.27773,-340 L249.52187,-340 L249.76602,-340 L250.01018,-340 L250.25432,-340 L250.49847,-340 L250.74263,-340 L250.98677,-340 L251.23093,-340 L251.47508,-340 L251.71922,-340 L251.96338,-340 L252.20753,-340 L252.45168,-340 L252.69583,-340 L252.93999,-340 L253.18413,-340 L253.42828,-340 L253.67242,-340 L253.91658,-340 L254.16074,-340 L254.40488,-340 L254.64903,-340 L254.89319,-340 L255.13733,-340 L255.38148,-340 L255.62564,-340 L255.86978,-340 L256.11392,-340 L256.3581,-340 L256.60223,-340 L256.84637,-340 L257.09055,-340 L257.3347,-340 L257.57883,-340 L257.823,-340 L258.06714,-340 L258.31128,-340 L258.55545,-340 L258.7996,-340 L259.04373,-340 L259.2879,-340 L259.53204,-340 L259.77618,-340 L260.02036,-340 L260.2645,-340 L260.50864,-340 L260.7528,-340 L260.99695,-340 L261.2411,-340 L261.48526,-340 L261.7294,-340 L261.97354,-340 L262.2177,-340 L262.46185,-340 L262.706,-340 L262.95016,-340 L263.1943,-340 L263.43845,-340 L263.68262,-340 L263.92676,-340 L264.1709,-340 L264.41507,-340 L264.6592,-340 L264.90335,-340 L265.14752,-340 L265.39166,-340 L265.6358,-340 L265.87997,-340 L266.1241,-340 L266.36826,-340 L266.6124,-340 L266.85657,-340 L267.1007,-340 L267.34485,-340 L267.58902,-340 L267.83316,-340 L268.0773,-340 L268.32147,-340 L268.5656,-340 L268.80975,-340 L269.05392,-340 L269.29807,-340 L269.5422,-340 L269.78638,-340 L270.03052,-340 L270.27466,-340 L270.51883,-340 L270.76297,-340 L271.0071,-340 L271.25128,-340 L271.49542,-340 L271.73956,-340 L271.98373,-340 L272.22787,-340 L272.47202,-340 L272.7162,-340 L272.96033,-340 L273.20447,-340 L273.44864,-340 L273.69278,-340 L273.93692,-340 L274.1811,-340 L274.42523,-340 L274.66937,-340 L274.91354,-340 L275.15768,-340 L275.40182,-340 L275.646,-340 L275.89014,-340 L276.13428,-340 L276.37845,-340 L276.6226,-340 L276.86673,-340 L277.11087,-340 L277.35504,-340 L277.59918,-340 L277.84332,-340 L278.0875,-340 L278.33163,-340 L278.57578,-340 L278.81995,-340 L279.0641,-340 L279.30823,-340 L279.5524,-340 L279.79654,-340 L280.04068,-340 L280.28485,-340 L280.529,-340 L280.77313,-340 L281.0173,-340 L281.26144,-340 L281.50558,-340 L281.74976,-340 L281.9939,-340 L282.23804,-340 L282.4822,-340 L282.72635,-340 L282.9705,-340 L283.21466,-340 L283.4588,-340 L283.70294,-340 L283.9471,-340 L284.19125,-340 L284.4354,-340 L284.67957,-340 L284.9237,-340 L285.16785,-340 L285.41202,-340 L285.65616,-340 L285.9003,-340 L286.14447,-340 L286.3886,-340 L286.63275,-340 L286.87692,-340 L287.12106,-340 L287.3652,-340 L287.60934,-340 L287.85352,-340 L288.09766,-340 L288.3418,-340 L288.58597,-340 L288.8301,-340 L289.07425,-340 L289.31842,-340 L289.56256,-340 L289.8067,-340 L290.05087,-340 L290.295,-340 L290.53915,-340 L290.78333,-340 L291.02747,-340 L291.2716,-340 L291.51578,-340 L291.75992,-340 L292.00406,-340 L292.24823,-340 L292.49237,-340 L292.7365,-340 L292.98068,-340 L293.22482,-340 L293.46896,-340 L293.71313,-340 L293.95728,-340 L294.20142,-340 L294.4456,-340 L294.68973,-340 L294.93387,-340 L295.17804,-340 L295.42218,-340 L295.66632,-340 L295.9105,-340 L296.15463,-340 L296.39877,-340 L296.64294,-340 L296.8871,-340 L297.13123,-340 L297.3754,-340 L297.61954,-340 L297.86368,-340 L298.10782,-340 L298.352,-340 L298.59613,-340 L298.84027,-340 L299.08444,-340 L299.32858,-340 L299.57272,-340 L299.8169,-340 L300.06104,-340 L300.30518,-340 L300.54935,-340 L300.7935,-340 L301.03763,-340 L301.2818,-340 L301.52594,-340 L301.77008,-340 L302.01425,-340 L302.2584,-340 L302.50253,-340 L302.7467,-340 L302.99084,-340 L303.235,-340 L303.47916,-340 L303.7233,-340 L303.96744,-340 L304.2116,-340 L304.45575,-340 L304.6999,-340 L304.94406,-340 L305.1882,-340 L305.43234,-340 L305.6765,-340 L305.92065,-340 L306.1648,-340 L306.40897,-340 L306.6531,-340 L306.89725,-340 L307.14142,-340 L307.38556,-340 L307.6297,-340 L307.87384,-340 L308.118,-340 L308.36215,-340 L308.6063,-340 L308.85046,-340 L309.0946,-340 L309.33875,-340 L309.58292,-340 L309.82706,-340 L310.0712,-340 L310.31537,-340 L310.5595,-340 L310.80365,-340 L311.04782,-340 L311.29196,-340 L311.5361,-340 L311.78027,-340 L312.0244,-340 L312.26855,-340 L312.51273,-340 L312.75687,-340 L313.001,-340 L313.24518,-340 L313.48932,-340 L313.73346,-340 L313.97763,-340 L314.22177,-340 L314.4659,-340 L314.71008,-340 L314.95422,-340 L315.19836,-340 L315.44254,-340 L315.68668,-340 L315.93082,-340 L316.175,-340 L316.41913,-340 L316.66327,-340 L316.90744,-340 L317.15158,-340 L317.39572,-340 L317.6399,-340 L317.88403,-340 L318.12817,-340 L318.3723,-340 L318.6165,-340 L318.86063,-340 L319.10477,-340 L319.34894,-340 L319.59308,-340 L319.83722,-340 L320.0814,-340 L320.32553,-340 L320.56967,-340 L320.81384,-340 L321.05798,-340 L321.30212,-340 L321.5463,-340 L321.79044,-340 L322.03458,-340 L322.27875,-340 L322.5229,-340 L322.76703,-340 L323.0112,-340 L323.25534,-340 L323.49948,-340 L323.74365,-340 L323.9878,-340 L324.23193,-340 L324.4761,-340 L324.72025,-340 L324.9644,-340 L325.20856,-340 L325.4527,-340 L325.69684,-340 L325.941,-340 L326.18515,-340 L326.4293,-340 L326.67346,-340 L326.9176,-340 L327.16174,-340 L327.4059,-340 L327.65005,-340 L327.8942,-340 L328.13837,-340 L328.3825,-340 L328.62665,-340 L328.8708,-340 L329.11496,-340 L329.3591,-340 L329.60324,-340 L329.8474,-340 L330.09155,-340 L330.3357,-340 L330.57986,-340 L330.824,-340 L331.06815,-340 L331.31232,-340 L331.55646,-340 L331.8006,-340 L332.04477,-340 L332.2889,-340 L332.53305,-340 L332.77722,-340 L333.02136,-340 L333.2655,-340 L333.50967,-340 L333.7538,-340 L333.99796,-340 L334.24213,-340 L334.48627,-340 L334.7304,-340 L334.97458,-340 L335.21872,-340 L335.46286,-340 L335.70703,-340 L335.95117,-340 L336.1953,-340 L336.43948,-340 L336.68362,-340 L336.92776,-340 L337.17194,-340 L337.41608,-340 L337.66022,-340 L337.9044,-340 L338.14853,-340 L338.39267,-340 L338.63684,-340 L338.88098,-340 L339.12512,-340 L339.36926,-340 L339.61343,-340 L339.85757,-340 L340.1017,-340 L340.3459,-340 L340.59003,-340 L340.83417,-340 L341.07834,-340 L341.32248,-340 L341.56662,-340 L341.8108,-340 L342.05493,-340 L342.29907,-340 L342.54324,-340 L342.78738,-340 L343.03152,-340 L343.2757,-340 L343.51984,-340 L343.76398,-340 L344.00815,-340 L344.2523,-340 L344.49643,-340 L344.7406,-340 L344.98474,-340 L345.22888,-340 L345.47305,-340 L345.7172,-340 L345.96133,-340 L346.2055,-340 L346.44965,-340 L346.6938,-340 L346.93796,-340 L347.1821,-340 L347.42624,-340 L347.6704,-340 L347.91455,-340 L348.1587,-340 L348.40286,-340 L348.647,-340 L348.89114,-340 L349.1353,-340 L349.37946,-340 L349.6236,-340 L349.86774,-340 L350.1119,-340 L350.35605,-340 L350.6002,-340 L350.84436,-340 L351.0885,-340 L351.33264,-340 L351.5768,-340 L351.82095,-340 L352.0651,-340 L352.30927,-340 L352.5534,-340 L352.79755,-340 L353.04172,-340 L353.28586,-340 L353.53,-340 L353.77417,-340 L354.0183,-340 L354.26245,-340 L354.50662,-340 L354.75076,-340 L354.9949,-340 L355.23907,-340 L355.48322,-340 L355.72736,-340 L355.97153,-340 L356.21567,-340 L356.4598,-340 L356.70398,-340 L356.94812,-340 L357.19226,-340 L357.43643,-340 L357.68057,-340 L357.9247,-340 L358.16888,-340 L358.41302,-340 L358.65717,-340 L358.90134,-340 L359.14548,-340 L359.38962,-340 L359.6338,-340 L359.87793,-340 L360.12207,-340 L360.3662,-340 L360.61038,-340 L360.85452,-340 L361.09866,-340 L361.34283,-340 L361.58698,-340 L361.83112,-340 L362.0753,-340 L362.31943,-340 L362.56357,-340 L362.80774,-340 L363.05188,-340 L363.29602,-340 L363.5402,-340 L363.78433,-340 L364.02847,-340 L364.27264,-340 L364.51678,-340 L364.76093,-340 L365.0051,-340 L365.24924,-340 L365.49338,-340 L365.73755,-340 L365.9817,-340 L366.22583,-340 L366.47,-340 L366.71414,-340 L366.95828,-340 L367.20245,-340 L367.4466,-340 L367.69073,-340 L367.9349,-340 L368.17905,-340 L368.4232,-340 L368.66736,-340 L368.9115,-340 L369.15564,-340 L369.3998,-340 L369.64395,-340 L369.8881,-340 L370.13226,-340 L370.3764,-340 L370.62054,-340 L370.8647,-340 L371.10886,-340 L371.353,-340 L371.59714,-340 L371.8413,-340 L372.08545,-340 L372.3296,-340 L372.57376,-340 L372.8179,-340 L373.06204,-340 L373.3062,-340 L373.55035,-340 L373.7945,-340 L374.03867,-340 L374.2828,-340 L374.52695,-340 L374.77112,-340 L375.01526,-340 L375.2594,-340 L375.50357,-340 L375.7477,-340 L375.99185,-340 L376.23602,-340 L376.48016,-340 L376.7243,-340 L376.96848,-340 L377.21262,-340 L377.45676,-340 L377.70093,-340 L377.94507,-340 L378.1892,-340 L378.43338,-340 L378.67752,-340 L378.92166,-340 L379.16583,-340 L379.40997,-340 L379.6541,-340 L379.8983,-340 L380.14243,-340 L380.38657,-340 L380.63074,-340 L380.87488,-340 L381.11902,-340 L381.36316,-340 L381.60733,-340 L381.85147,-340 L382.0956,-340 L382.33978,-340 L382.58392,-340 L382.82806,-340 L383.07224,-340 L383.31638,-340 L383.56052,-340 L383.8047,-340 L384.04883,-340 L384.29297,-340 L384.53714,-340 L384.78128,-340 L385.02542,-340 L385.2696,-340 L385.51373,-340 L385.75787,-340 L386.00204,-340 L386.2462,-340 L386.49033,-340 L386.7345,-340 L386.97864,-340 L387.22278,-340 L387.46695,-340 L387.7111,-340 L387.95523,-340 L388.1994,-340 L388.44354,-340 L388.68768,-340 L388.93185,-340 L389.176,-340 L389.42014,-340 L389.6643,-340 L389.90845,-340 L390.1526,-340 L390.39676,-340 L390.6409,-340 L390.88504,-340 L391.1292,-340 L391.37335,-340 L391.6175,-340 L391.86163,-340 L392.1058,-340 L392.34995,-340 L392.5941,-340 L392.83826,-340 L393.0824,-340 L393.32654,-340 L393.5707,-340 L393.81485,-340 L394.059,-340 L394.30316,-340 L394.5473,-340 L394.79144,-340 L395.0356,-340 L395.27975,-340 L395.5239,-340 L395.76807,-340 L396.0122,-340 L396.25635,-340 L396.50052,-340 L396.74466,-340 L396.9888,-340 L397.23297,-340 L397.4771,-340 L397.72125,-340 L397.96542,-340 L398.20956,-340 L398.4537,-340 L398.69788,-340 L398.94202,-340 L399.18616,-340 L399.43033,-340 L399.67447,-340 L399.9186,-340 L400.16278,-340 L400.40692,-340 L400.65106,-340 L400.89523,-340 L401.13937,-340 L401.3835,-340 L401.6277,-340 L401.87183,-340 L402.11597,-340 L402.3601,-340 L402.60428,-340 L402.84842,-340 L403.09256,-340 L403.33673,-340 L403.58087,-340 L403.825,-340 L404.06918,-340 L404.31332,-340 L404.55746,-340 L404.80164,-340 L405.04578,-340 L405.28992,-340 L405.5341,-340 L405.77823,-340 L406.02237,-340 L406.26654,-340 L406.51068,-340 L406.75482,-340 L406.999,-340 L407.24313,-340 L407.48727,-340 L407.73145,-340 L407.9756,-340 L408.21973,-340 L408.4639,-340 L408.70804,-340 L408.95218,-340 L409.19635,-340 L409.4405,-340 L409.68463,-340 L409.9288,-340 L410.17294,-340 L410.41708,-340 L410.66125,-340 L410.9054,-340 L411.14954,-340 L411.3937,-340 L411.63785,-340 L411.882,-340 L412.12616,-340 L412.3703,-340 L412.61444,-340 L412.85858,-340 L413.10275,-340 L413.3469,-340 L413.59103,-340 L413.8352,-340 L414.07935,-340 L414.3235,-340 L414.56766,-340 L414.8118,-340 L415.05594,-340 L415.3001,-340 L415.54425,-340 L415.7884,-340 L416.03256,-340 L416.2767,-340 L416.52084,-340 L416.765,-340 L417.00916,-340 L417.2533,-340 L417.49747,-340 L417.7416,-340 L417.98575,-340 L418.22992,-340 L418.47406,-340 L418.7182,-340 L418.96237,-340 L419.2065,-340 L419.45065,-340 L419.69482,-340 L419.93896,-340 L420.1831,-340 L420.42728,-340 L420.67142,-340 L420.91556,-340 L421.15973,-340 L421.40387,-340 L421.648,-340 L421.89218,-340 L422.13632,-340 L422.38046,-340 L422.6246,-340 L422.86877,-340 L423.1129,-340 L423.35706,-340 L423.60123,-340 L423.84537,-340 L424.0895,-340 L424.33368,-340 L424.57782,-340 L424.82196,-340 L425.06613,-340 L425.31027,-340 L425.5544,-340 L425.79858,-340 L426.04272,-340 L426.28687,-340 L426.53104,-340 L426.77518,-340 L427.01932,-340 L427.2635,-340 L427.50763,-340 L427.75177,-340 L427.99594,-340 L428.24008,-340 L428.48422,-340 L428.7284,-340 L428.97253,-340 L429.21667,-340 L429.46085,-340 L429.705,-340 L429.94913,-340 L430.1933,-340 L430.43744,-340 L430.68158,-340 L430.92575,-340 L431.1699,-340 L431.41403,-340 L431.6582,-340 L431.90234,-340 L432.14648,-340 L432.39066,-340 L432.6348,-340 L432.87894,-340 L433.12308,-340 L433.36725,-340 L433.6114,-340 L433.85553,-340 L434.0997,-340 L434.34384,-340 L434.58798,-340 L434.83215,-340 L435.0763,-340 L435.32043,-340 L435.5646,-340 L435.80875,-340 L436.0529,-340 L436.29706,-340 L436.5412,-340 L436.78534,-340 L437.0295,-340 L437.27365,-340 L437.5178,-340 L437.76196,-340 L438.0061,-340 L438.25024,-340 L438.49442,-340 L438.73856,-340 L438.9827,-340 L439.22687,-340 L439.471,-340 L439.71515,-340 L439.95932,-340 L440.20346,-340 L440.4476,-340 L440.69177,-340 L440.9359,-340 L441.18005,-340 L441.42422,-340 L441.66837,-340 L441.9125,-340 L442.15668,-340 L442.40082,-340 L442.64496,-340 L442.88913,-340 L443.13327,-340 L443.3774,-340 L443.62155,-340 L443.86572,-340 L444.10986,-340 L444.354,-340 L444.59818,-340 L444.84232,-340 L445.08646,-340 L445.33063,-340 L445.57477,-340 L445.8189,-340 L446.06308,-340 L446.30722,-340 L446.55136,-340 L446.79553,-340 L447.03967,-340 L447.2838,-340 L447.52798,-340 L447.77213,-340 L448.01627,-340 L448.26044,-340 L448.50458,-340 L448.74872,-340 L448.9929,-340 L449.23703,-340 L449.48117,-340 L449.72534,-340 L449.96948,-340 L450.21362,-340 L450.4578,-340 L450.70193,-340 L450.94608,-340 L451.19025,-340 L451.4344,-340 L451.67853,-340 L451.9227,-340 L452.16684,-340 L452.41098,-340 L452.65515,-340 L452.8993,-340 L453.14343,-340 L453.3876,-340 L453.63174,-340 L453.8759,-340 L454.12003,-340 L454.3642,-340 L454.60834,-340 L454.85248,-340 L455.09665,-340 L455.3408,-340 L455.58493,-340 L455.8291,-340 L456.07324,-340 L456.31738,-340 L456.56155,-340 L456.8057,-340 L457.04984,-340 L457.294,-340 L457.53815,-340 L457.7823,-340 L458.02646,-340 L458.2706,-340 L458.51474,-340 L458.7589,-340 L459.00305,-340 L459.2472,-340 L459.49136,-340 L459.7355,-340 L459.97964,-340 L460.22382,-340 L460.46796,-340 L460.7121,-340 L460.95627,-340 L461.2004,-340 L461.44455,-340 L461.68872,-340 L461.93286,-340 L462.177,-340 L462.42117,-340 L462.6653,-340 L462.90945,-340 L463.15363,-340 L463.39777,-340 L463.6419,-340 L463.88608,-340 L464.13022,-340 L464.37436,-340 L464.6185,-340 L464.86267,-340 L465.1068,-340 L465.35095,-340 L465.59512,-340 L465.83926,-340 L466.0834,-340 L466.32758,-340 L466.57172,-340 L466.81586,-340 L467.06003,-340 L467.30417,-340 L467.5483,-340 L467.79248,-340 L468.03662,-340 L468.28076,-340 L468.52493,-340 L468.76907,-340 L469.0132,-340 L469.2574,-340 L469.50153,-340 L469.74567,-340 L469.98984,-340 L470.23398,-340 L470.47812,-340 L470.7223,-340 L470.96643,-340 L471.21057,-340 L471.45474,-340 L471.69888,-340 L471.94302,-340 L472.1872,-340 L472.43134,-340 L472.67548,-340 L472.91965,-340 L473.1638,-340 L473.40793,-340 L473.6521,-340 L473.89624,-340 L474.14038,-340 L474.38455,-340 L474.6287,-340 L474.87283,-340 L475.11697,-340 L475.36115,-340 L475.6053,-340 L475.84943,-340 L476.0936,-340 L476.33774,-340 L476.58188,-340 L476.82605,-340 L477.0702,-340 L477.31433,-340 L477.5585,-340 L477.80264,-340 L478.04678,-340 L478.29095,-340 L478.5351,-340 L478.77924,-340 L479.0234,-340 L479.26755,-340 L479.5117,-340 L479.75586,-340 L480,-340" fill="none" stroke="black" stroke-linejoin="round" stroke-width="2"/>
</g>
</g>
<g>
<g>
<line stroke="black" stroke-width="1" x1="0" x2="0" y1="0" y2="10"/>
<line stroke="black" stroke-width="1" x1="97.66022380467955" x2="97.66022380467955" y1="0" y2="10"/>
<line stroke="black" stroke-width="1" x1="195.3204476093591" x2="195.3204476093591" y1="0" y2="10"/>
<line stroke="black" stroke-width="1" x1="292.9806714140387" x2="292.9806714140387" y1="0" y2="10"/>
<line stroke="black" stroke-width="1" x1="390.6408952187182" x2="390.6408952187182" y1="0" y2="10"/>
</g>
<line stroke="black" stroke-width="1" x1="0" x2="480" y1="0" y2="0"/>
<g>
<text font-size="12" text-anchor="middle" x="0" y="20">
0
</text>
<text font-size="12" text-anchor="middle" x="97.66022380467955" y="20">
400
</text>
<text font-size="12" text-anchor="middle" x="195.3204476093591" y="20">
800
</text>
<text font-size="12" text-anchor="middle" x="292.9806714140387" y="20">
1200
</text>
<text font-size="12" text-anchor="middle" x="390.6408952187182" y="20">
1600
</text>
</g>
<text font-size="12" text-anchor="middle" x="240" y="30">

</text>
</g>
<g>
<g>
<line stroke="black" stroke-width="1" x1="0" x2="-10" y1="-17.89473684210525" y2="-17.89473684210525"/>
<line stroke="black" stroke-width="1" x1="0" x2="-10" y1="-89.47368421052634" y2="-89.47368421052634"/>
<line stroke="black" stroke-width="1" x1="0" x2="-10" y1="-161.05263157894743" y2="-161.05263157894743"/>
<line stroke="black" stroke-width="1" x1="0" x2="-10" y1="-232.63157894736852" y2="-232.63157894736852"/>
<line stroke="black" stroke-width="1" x1="0" x2="-10" y1="-304.21052631578965" y2="-304.21052631578965"/>
</g>
<line stroke="black" stroke-width="1" x1="0" x2="0" y1="0" y2="-340"/>
<g>
<text dominant-baseline="middle" font-size="12" text-anchor="end" x="-15" y="-17.89473684210525">
-0.8
</text>
<text dominant-baseline="middle" font-size="12" text-anchor="end" x="-15" y="-89.47368421052634">
-0.4
</text>
<text dominant-baseline="middle" font-size="12" text-anchor="end" x="-15" y="-161.05263157894743">
0
</text>
<text dominant-baseline="middle" font-size="12" text-anchor="end" x="-15" y="-232.63157894736852">
0.4
</text>
<text dominant-baseline="middle" font-size="12" text-anchor="end" x="-15" y="-304.21052631578965">
0.8
</text>
</g>
<text font-size="12" text-anchor="middle" transform="rotate(-90 -48 -170)" x="-48" y="-182">

</text>
</g>
</g>
</svg>