<svg viewBox="0 0 600 400" xmlns="http://www.w3.org/2000/svg">
<g transform="translate(72, 364)">
<g>
<g>
<path d="M0,-0 L0,-0 L0.2247191,-0 L0.4494382,-0 L0.6741573,-0 L0.8988764,-17 L1.1235955,-32.3 L1.3483146,-63.07 L1.5730337,-90.763 L1.7977529,-115.6867 L2.022472,-138.11803 L2.247191,-158.30623 L2.47191,-176.4756 L2.6966293,-192.82805 L2.9213483,-207.54524 L3.1460674,-220.79071 L3.3707864,-232.71164 L3.5955057,-243.44048 L3.8202248,-253.09644 L4.044944,-261.78677 L4.269663,-269.60812 L4.494382,-276.6473 L4.719101,-282.98257 L4.94382,-288.68433 L5.1685395,-293.8159 L5.3932586,-298.4343 L5.6179776,-302.59085 L5.8426967,-306.3318 L6.0674157,-309.6986 L6.292135,-312.72873 L6.516854,-315.45587 L6.741573,-317.91028 L6.966292,-320.11926 L7.1910114,-322.10733 L7.4157305,-323.8966 L7.6404495,-325.50693 L7.8651686,-326.95624 L8.089888,-328.26062 L8.314607,-329.43454 L8.539326,-330.4911 L8.764045,-331.442 L8.988764,-332.2978 L9.213483,-333.06802 L9.438202,-333.7612 L9.662921,-334.3851 L9.88764,-334.9466 L10.11236,-335.45193 L10.337079,-335.90674 L10.561798,-336.31607 L10.786517,-336.68445 L11.011236,-337.016 L11.235955,-337.3144 L11.460674,-337.58298 L11.685393,-337.82468 L11.910112,-338.0422 L12.134831,-338.23798 L12.35955,-338.41418 L12.58427,-338.57275 L12.808989,-338.71548 L13.033708,-338.84393 L13.258427,-338.95953 L13.483146,-339.0636 L13.707865,-339.15723 L13.932584,-339.24152 L14.157304,-339.31735 L14.382023,-339.38562 L14.606742,-339.44705 L14.831461,-339.50235 L15.05618,-339.55212 L15.280899,-339.5969 L15.505618,-339.6372 L15.730337,-339.6735 L15.955056,-339.70615 L16.179775,-339.73553 L16.404495,-339.76196 L16.629213,-339.78577 L16.853933,-339.8072 L17.078651,-339.82648 L17.303371,-339.84384 L17.52809,-339.85944 L17.75281,-339.8735 L17.977528,-339.88617 L18.202248,-339.89755 L18.426966,-339.90778 L18.651686,-339.917 L18.876404,-339.9253 L19.101124,-339.93277 L19.325842,-339.93948 L19.550562,-339.94556 L19.77528,-339.951 L20,-339.9559 L20.22472,-339.9603 L20.449438,-339.96426 L20.674158,-339.96783 L20.898876,-339.97107 L21.123596,-339.97397 L21.348314,-339.97656 L21.573034,-339.9789 L21.797752,-339.98102 L22.022472,-339.9829 L22.24719,-339.98462 L22.47191,-339.98615 L22.696629,-339.98755 L22.921349,-339.9888 L23.146067,-339.9899 L23.370787,-339.9909 L23.595505,-339.99182 L23.820225,-339.99265 L24.044945,-339.99338 L24.269663,-339.99405 L24.494383,-339.99463 L24.7191,-339.99518 L24.94382,-339.99567 L25.16854,-339.9961 L25.39326,-339.9965 L25.617977,-339.99683 L25.842697,-339.99716 L26.067415,-339.99744 L26.292135,-339.99768 L26.516853,-339.99792 L26.741573,-339.99814 L26.966291,-339.99832 L27.191011,-339.99847 L27.41573,-339.99863 L27.64045,-339.99878 L27.865168,-339.9989 L28.089888,-339.999 L28.314608,-339.9991 L28.539326,-339.9992 L28.764046,-339.99927 L28.988764,-339.99936 L29.213484,-339.99942 L29.438202,-339.99948 L29.662922,-339.9995 L29.88764,-339.99957 L30.11236,-339.9996 L30.337078,-339.99966 L30.561798,-339.9997 L30.786516,-339.99973 L31.011236,-339.99976 L31.235954,-339.9998 L31.460674,-339.9998 L31.685392,-339.99982 L31.910112,-339.99985 L32.13483,-339.99985 L32.35955,-339.99988 L32.58427,-339.99988 L32.80899,-339.99988 L33.033707,-339.9999 L33.258427,-339.9999 L33.483147,-339.9999 L33.707867,-339.99994 L33.932583,-339.99994 L34.157303,-339.99994 L34.382023,-339.99994 L34.606743,-339.99994 L34.83146,-339.99997 L35.05618,-339.99997 L35.2809,-339.99997 L35.50562,-339.99997 L35.730335,-339.99997 L35.955055,-339.99997 L36.179775,-339.99997 L36.404495,-339.99997 L36.629215,-339.99997 L36.85393,-339.99997 L37.07865,-340 L37.30337,-340 L37.52809,-340 L37.752808,-340 L37.977528,-340 L38.202248,-340 L38.426968,-340 L38.651684,-340 L38.876404,-340 L39.101124,-340 L39.325844,-340 L39.55056,-340 L39.77528,-340 L40,-340 L40.22472,-340 L40.44944,-340 L40.674156,-340 L40.898876,-340 L41.123596,-340 L41.348316,-340 L41.573032,-340 L41.797752,-340 L42.022472,-340 L42.247192,-340 L42.47191,-340 L42.69663,-340 L42.92135,-340 L43.14607,-340 L43.370785,-340 L43.595505,-340 L43.820225,-340 L44.044945,-340 L44.269665,-340 L44.49438,-340 L44.7191,-340 L44.94382,-340 L45.16854,-340 L45.393257,-340 L45.617977,-340 L45.842697,-340 L46.067417,-340 L46.292133,-340 L46.516853,-340 L46.741573,-340 L46.966293,-340 L47.19101,-340 L47.41573,-340 L47.64045,-340 L47.86517,-340 L48.08989,-340 L48.314606,-340 L48.539326,-340 L48.764046,-340 L48.988766,-340 L49.21348,-340 L49.4382,-340 L49.66292,-340 L49.88764,-340 L50.11236,-340 L50.33708,-340 L50.5618,-340 L50.78652,-340 L51.011234,-340 L51.235954,-340 L51.460674,-340 L51.685394,-340 L51.91011,-340 L52.13483,-340 L52.35955,-340 L52.58427,-340 L52.80899,-340 L53.033707,-340 L53.258427,-340 L53.483147,-340 L53.707867,-340 L53.932583,-340 L54.157303,-340 L54.382023,-340 L54.606743,-340 L54.83146,-340 L55.05618,-340 L55.2809,-340 L55.50562,-340 L55.730335,-340 L55.955055,-340 L56.179775,-340 L56.404495,-340 L56.629215,-340 L56.85393,-340 L57.07865,-340 L57.30337,-340 L57.52809,-340 L57.752808,-340 L57.977528,-340 L58.202248,-340 L58.426968,-340 L58.651684,-340 L58.876404,-340 L59.101124,-340 L59.325844,-340 L59.55056,-340 L59.77528,-340 L60,-340 L60.22472,-340 L60.44944,-340 L60.674156,-340 L60.898876,-340 L61.123596,-340 L61.348316,-340 L61.573032,-340 L61.797752,-340 L62.022472,-340 L62.247192,-340 L62.47191,-340 L62.69663,-340 L62.92135,-340 L63.14607,-340 L63.370785,-340 L63.595505,-340 L63.820225,-340 L64.044945,-340 L64.26966,-340 L64.494385,-340 L64.7191,-340 L64.94382,-340 L65.16854,-340 L65.39326,-340 L65.61798,-340 L65.8427,-340 L66.06741,-340 L66.29214,-340 L66.51685,-340 L66.74157,-340 L66.96629,-340 L67.19101,-340 L67.41573,-340 L67.64045,-340 L67.865166,-340 L68.08989,-340 L68.314606,-340 L68.53933,-340 L68.764046,-340 L68.98876,-340 L69.213486,-340 L69.4382,-340 L69.66292,-340 L69.88764,-340 L70.11236,-340 L70.33708,-340 L70.5618,-340 L70.786514,-340 L71.01124,-340 L71.235954,-340 L71.46067,-340 L71.685394,-340 L71.91011,-340 L72.134834,-340 L72.35955,-340 L72.58427,-340 L72.80899,-340 L73.03371,-340 L73.25843,-340 L73.48315,-340 L73.70786,-340 L73.93259,-340 L74.1573,-340 L74.38202,-340 L74.60674,-340 L74.83146,-340 L75.05618,-340 L75.2809,-340 L75.505615,-340 L75.73034,-340 L75.955055,-340 L76.17978,-340 L76.404495,-340 L76.62921,-340 L76.853935,-340 L77.07865,-340 L77.30337,-340 L77.52809,-340 L77.75281,-340 L77.97753,-340 L78.20225,-340 L78.42696,-340 L78.65169,-340 L78.8764,-340 L79.10112,-340 L79.32584,-340 L79.55056,-340 L79.77528,-340 L80,-340 L80.22472,-340 L80.44944,-340 L80.67416,-340 L80.89888,-340 L81.1236,-340 L81.34831,-340 L81.57304,-340 L81.79775,-340 L82.02247,-340 L82.24719,-340 L82.47191,-340 L82.69663,-340 L82.92135,-340 L83.146065,-340 L83.37079,-340 L83.595505,-340 L83.82022,-340 L84.044945,-340 L84.26966,-340 L84.494385,-340 L84.7191,-340 L84.94382,-340 L85.16854,-340 L85.39326,-340 L85.61798,-340 L85.8427,-340 L86.06741,-340 L86.29214,-340 L86.51685,-340 L86.74157,-340 L86.96629,-340 L87.19101,-340 L87.41573,-340 L87.64045,-340 L87.865166,-340 L88.08989,-340 L88.314606,-340 L88.53933,-340 L88.764046,-340 L88.98876,-340 L89.213486,-340 L89.4382,-340 L89.66292,-340 L89.88764,-340 L90.11236,-340 L90.33708,-340 L90.5618,-340 L90.786514,-340 L91.01124,-340 L91.235954,-340 L91.46067,-340 L91.685394,-340 L91.91011,-340 L92.134834,-340 L92.35955,-340 L92.58427,-340 L92.80899,-340 L93.03371,-340 L93.25843,-340 L93.48315,-340 L93.70786,-340 L93.93259,-340 L94.1573,-340 L94.38202,-340 L94.60674,-340 L94.83146,-340 L95.05618,-340 L95.2809,-340 L95.505615,-340 L95.73034,-340 L95.955055,-340 L96.17978,-340 L96.404495,-340 L96.62921,-340 L96.853935,-340 L97.07865,-340 L97.30337,-340 L97.52809,-340 L97.75281,-340 L97.97753,-340 L98.20225,-340 L98.42696,-340 L98.65169,-340 L98.8764,-340 L99.10112,-340 L99.32584,-340 L99.55056,-340 L99.77528,-340 L100,-340 L100.22472,-340 L100.44944,-340 L100.67416,-340 L100.89888,-340 L101.1236,-340 L101.34831,-340 L101.57304,-340 L101.79775,-340 L102.02247,-340 L102.24719,-340 L102.47191,-340 L102.69663,-340 L102.92135,-340 L103.146065,-340 L103.37079,-340 L103.595505,-340 L103.82022,-340 L104.044945,-340 L104.26966,-340 L104.494385,-340 L104.7191,-340 L104.94382,-340 L105.16854,-340 L105.39326,-340 L105.61798,-340 L105.8427,-340 L106.06741,-340 L106.29214,-340 L106.51685,-340 L106.74157,-340 L106.96629,-340 L107.19101,-340 L107.41573,-340 L107.64045,-340 L107.865166,-340 L108.08989,-340 L108.314606,-340 L108.53933,-340 L108.764046,-340 L108.98876,-340 L109.213486,-340 L109.4382,-340 L109.66292,-340 L109.88764,-340 L110.11236,-340 L110.33708,-340 L110.5618,-340 L110.786514,-340 L111.01124,-340 L111.235954,-340 L111.46067,-340 L111.685394,-340 L111.91011,-340 L112.134834,-340 L112.35955,-340 L112.58427,-340 L112.80899,-340 L113.03371,-340 L113.25843,-340 L113.48315,-340 L113.70786,-340 L113.93259,-340 L114.1573,-340 L114.38202,-340 L114.60674,-340 L114.83146,-340 L115.05618,-340 L115.2809,-340 L115.505615,-340 L115.73034,-340 L115.955055,-340 L116.17978,-340 L116.404495,-340 L116.62921,-340 L116.853935,-340 L117.07865,-340 L117.30337,-340 L117.52809,-340 L117.75281,-340 L117.97753,-340 L118.20225,-340 L118.42696,-340 L118.65169,-340 L118.8764,-340 L119.10112,-340 L119.32584,-340 L119.55056,-340 L119.77528,-340 L120,-340 L120.22472,-340 L120.44944,-340 L120.67416,-340 L120.89888,-340 L121.1236,-340 L121.34831,-340 L121.57304,-340 L121.79775,-340 L122.02247,-340 L122.24719,-340 L122.47191,-340 L122.69663,-340 L122.92135,-340 L123.146065,-340 L123.37079,-340 L123.595505,-340 L123.82022,-340 L124.044945,-340 L124.26966,-340 L124.494385,-340 L124.7191,-340 L124.94382,-340 L125.16854,-340 L125.39326,-340 L125.61798,-340 L125.8427,-340 L126.06741,-340 L126.29214,-340 L126.51685,-340 L126.74157,-340 L126.96629,-340 L127.19101,-340 L127.41573,-340 L127.64045,-340 L127.865166,-340 L128.08989,-340 L128.3146,-340 L128.53932,-340 L128.76404,-340 L128.98877,-340 L129.21349,-340 L129.4382,-340 L129.66292,-340 L129.88763,-340 L130.11237,-340 L130.33708,-340 L130.5618,-340 L130.78651,-340 L131.01123,-340 L131.23596,-340 L131.46068,-340 L131.6854,-340 L131.91011,-340 L132.13483,-340 L132.35956,-340 L132.58427,-340 L132.80899,-340 L133.0337,-340 L133.25842,-340 L133.48314,-340 L133.70787,-340 L133.93259,-340 L134.1573,-340 L134.38202,-340 L134.60674,-340 L134.83147,-340 L135.05618,-340 L135.2809,-340 L135.50562,-340 L135.73033,-340 L135.95506,-340 L136.17978,-340 L136.4045,-340 L136.62921,-340 L136.85393,-340 L137.07866,-340 L137.30338,-340 L137.52809,-340 L137.7528,-340 L137.97752,-340 L138.20224,-340 L138.42697,-340 L138.65169,-340 L138.8764,-340 L139.10112,-340 L139.32584,-340 L139.55057,-340 L139.77528,-340 L140,-340 L140.22472,-340 L140.44943,-340 L140.67416,-340 L140.89888,-340 L141.1236,-340 L141.34831,-340 L141.57303,-340 L141.79776,-340 L142.02248,-340 L142.2472,-340 L142.47191,-340 L142.69662,-340 L142.92134,-340 L143.14607,-340 L143.37079,-340 L143.5955,-340 L143.82022,-340 L144.04494,-340 L144.26967,-340 L144.49438,-340 L144.7191,-340 L144.94382,-340 L145.16853,-340 L145.39326,-340 L145.61798,-340 L145.8427,-340 L146.06741,-340 L146.29213,-340 L146.51686,-340 L146.74158,-340 L146.9663,-340 L147.19101,-340 L147.41573,-340 L147.64044,-340 L147.86517,-340 L148.08989,-340 L148.3146,-340 L148.53932,-340 L148.76404,-340 L148.98877,-340 L149.21349,-340 L149.4382,-340 L149.66292,-340 L149.88763,-340 L150.11237,-340 L150.33708,-340 L150.5618,-340 L150.78651,-340 L151.01123,-340 L151.23596,-340 L151.46068,-340 L151.6854,-340 L151.91011,-340 L152.13483,-340 L152.35956,-340 L152.58427,-340 L152.80899,-340 L153.0337,-340 L153.25842,-340 L153.48314,-340 L153.70787,-340 L153.93259,-340 L154.1573,-340 L154.38202,-340 L154.60674,-340 L154.83147,-340 L155.05618,-340 L155.2809,-340 L155.50562,-340 L155.73033,-340 L155.95506,-340 L156.17978,-340 L156.4045,-340 L156.62921,-340 L156.85393,-340 L157.07866,-340 L157.30338,-340 L157.52809,-340 L157.7528,-340 L157.97752,-340 L158.20224,-340 L158.42697,-340 L158.65169,-340 L158.8764,-340 L159.10112,-340 L159.32584,-340 L159.55057,-340 L159.77528,-340 L160,-340 L160.22472,-340 L160.44943,-340 L160.67416,-340 L160.89888,-340 L161.1236,-340 L161.34831,-340 L161.57303,-340 L161.79776,-340 L162.02248,-340 L162.2472,-340 L162.47191,-340 L162.69662,-340 L162.92134,-340 L163.14607,-340 L163.37079,-340 L163.5955,-340 L163.82022,-340 L164.04494,-340 L164.26967,-340 L164.49438,-340 L164.7191,-340 L164.94382,-340 L165.16853,-340 L165.39326,-340 L165.61798,-340 L165.8427,-340 L166.06741,-340 L166.29213,-340 L166.51686,-340 L166.74158,-340 L166.9663,-340 L167.19101,-340 L167.41573,-340 L167.64044,-340 L167.86517,-340 L168.08989,-340 L168.3146,-340 L168.53932,-340 L168.76404,-340 L168.98877,-340 L169.21349,-340 L169.4382,-340 L169.66292,-340 L169.88763,-340 L170.11237,-340 L170.33708,-340 L170.5618,-340 L170.78651,-340 L171.01123,-340 L171.23596,-340 L171.46068,-340 L171.6854,-340 L171.91011,-340 L172.13483,-340 L172.35956,-340 L172.58427,-340 L172.80899,-340 L173.0337,-340 L173.25842,-340 L173.48314,-340 L173.70787,-340 L173.93259,-340 L174.1573,-340 L174.38202,-340 L174.60674,-340 L174.83147,-340 L175.05618,-340 L175.2809,-340 L175.50562,-340 L175.73033,-340 L175.95506,-340 L176.17978,-340 L176.4045,-340 L176.62921,-340 L176.85393,-340 L177.07866,-340 L177.30338,-340 L177.52809,-340 L177.7528,-340 L177.97752,-340 L178.20224,-340 L178.42697,-340 L178.65169,-340 L178.8764,-340 L179.10112,-340 L179.32584,-340 L179.55057,-340 L179.77528,-340 L180,-340 L180.22472,-340 L180.44943,-340 L180.67416,-340 L180.89888,-340 L181.1236,-340 L181.34831,-340 L181.57303,-340 L181.79776,-340 L182.02248,-340 L182.2472,-340 L182.47191,-340 L182.69662,-340 L182.92134,-340 L183.14607,-340 L183.37079,-340 L183.5955,-340 L183.82022,-340 L184.04494,-340 L184.26967,-340 L184.49438,-340 L184.7191,-340 L184.94382,-340 L185.16853,-340 L185.39326,-340 L185.61798,-340 L185.8427,-340 L186.06741,-340 L186.29213,-340 L186.51686,-340 L186.74158,-340 L186.9663,-340 L187.19101,-340 L187.41573,-340 L187.64044,-340 L187.86517,-340 L188.08989,-340 L188.3146,-340 L188.53932,-340 L188.76404,-340 L188.98877,-340 L189.21349,-340 L189.4382,-340 L189.66292,-340 L189.88763,-340 L190.11237,-340 L190.33708,-340 L190.5618,-340 L190.78651,-340 L191.01123,-340 L191.23596,-340 L191.46068,-340 L191.6854,-340 L191.91011,-340 L192.13483,-340 L192.35956,-340 L192.58427,-340 L192.80899,-340 L193.0337,-340 L193.25842,-340 L193.48314,-340 L193.70787,-340 L193.93259,-340 L194.1573,-340 L194.38202,-340 L194.60674,-340 L194.83147,-340 L195.05618,-340 L195.2809,-340 L195.50562,-340 L195.73033,-340 L195.95506,-340 L196.17978,-340 L196.4045,-340 L196.62921,-340 L196.85393,-340 L197.07866,-340 L197.30338,-340 L197.52809,-340 L197.7528,-340 L197.97752,-340 L198.20224,-340 L198.42697,-340 L198.65169,-340 L198.8764,-340 L199.10112,-340 L199.32584,-340 L199.55057,-340 L199.77528,-340 L200,-340 L200.22472,-340 L200.44943,-340 L200.67416,-340 L200.89888,-340 L201.1236,-340 L201.34831,-340 L201.57303,-340 L201.79776,-340 L202.02248,-340 L202.2472,-340 L202.47191,-340 L202.69662,-340 L202.92134,-340 L203.14607,-340 L203.37079,-340 L203.5955,-340 L203.82022,-340 L204.04494,-340 L204.26967,-340 L204.49438,-340 L204.7191,-340 L204.94382,-340 L205.16853,-340 L205.39326,-340 L205.61798,-340 L205.8427,-340 L206.06741,-340 L206.29213,-340 L206.51686,-340 L206.74158,-340 L206.9663,-340 L207.19101,-340 L207.41573,-340 L207.64044,-340 L207.86517,-340 L208.08989,-340 L208.3146,-340 L208.53932,-340 L208.76404,-340 L208.98877,-340 L209.21349,-340 L209.4382,-340 L209.66292,-340 L209.88763,-340 L210.11237,-340 L210.33708,-340 L210.5618,-340 L210.78651,-340 L211.01123,-340 L211.23596,-340 L211.46068,-340 L211.6854,-340 L211.91011,-340 L212.13483,-340 L212.35956,-340 L212.58427,-340 L212.80899,-340 L213.0337,-340 L213.25842,-340 L213.48314,-340 L213.70787,-340 L213.93259,-340 L214.1573,-340 L214.38202,-340 L214.60674,-340 L214.83147,-340 L215.05618,-340 L215.2809,-340 L215.50562,-340 L215.73033,-340 L215.95506,-340 L216.17978,-340 L216.4045,-340 L216.62921,-340 L216.85393,-340 L217.07866,-340 L217.30338,-340 L217.52809,-340 L217.7528,-340 L217.97752,-340 L218.20224,-340 L218.42697,-340 L218.65169,-340 L218.8764,-340 L219.10112,-340 L219.32584,-340 L219.55057,-340 L219.77528,-340 L220,-340 L220.22472,-340 L220.44943,-340 L220.67416,-340 L220.89888,-340 L221.1236,-340 L221.34831,-340 L221.57303,-340 L221.79776,-340 L222.02248,-340 L222.2472,-340 L222.47191,-340 L222.69662,-340 L222.92134,-340 L223.14607,-340 L223.37079,-340 L223.5955,-340 L223.82022,-340 L224.04494,-340 L224.26967,-340 L224.49438,-340 L224.7191,-340 L224.94382,-340 L225.16853,-340 L225.39326,-340 L225.61798,-340 L225.8427,-340 L226.06741,-340 L226.29213,-340 L226.51686,-340 L226.74158,-340 L226.9663,-340 L227.19101,-340 L227.41573,-340 L227.64044,-340 L227.86517,-340 L228.08989,-340 L228.3146,-340 L228.53932,-340 L228.76404,-340 L228.98877,-340 L229.21349,-340 L229.4382,-340 L229.66292,-340 L229.88763,-340 L230.11237,-340 L230.33708,-340 L230.5618,-340 L230.78651,-340 L231.01123,-340 L231.23596,-340 L231.46068,-340 L231.6854,-340 L231.91011,-340 L232.13483,-340 L232.35956,-340 L232.58427,-340 L232.80899,-340 L233.0337,-340 L233.25842,-340 L233.48314,-340 L233.70787,-340 L233.93259,-340 L234.1573,-340 L234.38202,-340 L234.60674,-340 L234.83147,-340 L235.05618,-340 L235.2809,-340 L235.50562,-340 L235.73033,-340 L235.95506,-340 L236.17978,-340 L236.4045,-340 L236.62921,-340 L236.85393,-340 L237.07866,-340 L237.30338,-340 L237.52809,-340 L237.7528,-340 L237.97752,-340 L238.20224,-340 L238.42697,-340 L238.65169,-340 L238.8764,-340 L239.10112,-340 L239.32584,-340 L239.55057,-340 L239.77528,-340 L240,-340 L240.22472,-340 L240.44943,-340 L240.67416,-340 L240.89888,-340 L241.1236,-340 L241.34831,-340 L241.57303,-340 L241.79776,-340 L242.02248,-340 L242.2472,-340 L242.47191,-340 L242.69662,-340 L242.92134,-340 L243.14607,-340 L243.37079,-340 L243.5955,-340 L243.82022,-340 L244.04494,-340 L244.26967,-340 L244.49438,-340 L244.7191,-340 L244.94382,-340 L245.16853,-340 L245.39326,-340 L245.61798,-340 L245.8427,-340 L246.06741,-340 L246.29213,-340 L246.51686,-340 L246.74158,-340 L246.9663,-340 L247.19101,-340 L247.41573,-340 L247.64044,-340 L247.86517,-340 L248.08989,-340 L248.3146,-340 L248.53932,-340 L248.76404,-340 L248.98877,-340 L249.21349,-340 L249.4382,-340 L249.66292,-340 L249.88763,-340 L250.11237,-340 L250.33708,-340 L250.5618,-340 L250.78651,-340 L251.01123,-340 L251.23596,-340 L251.46068,-340 L251.6854,-340 L251.91011,-340 L252.13483,-340 L252.35956,-340 L252.58427,-340 L252.80899,-340 L253.0337,-340 L253.25842,-340 L253.48314,-340 L253.70787,-340 L253.93259,-340 L254.1573,-340 L254.38202,-340 L254.60674,-340 L254.83147,-340 L255.05618,-340 L255.2809,-340 L255.50562,-340 L255.73033,-340 L255.95506,-340 L256.17978,-340 L256.40448,-340 L256.6292,-340 L256.85394,-340 L257.07864,-340 L257.30338,-340 L257.52808,-340 L257.7528,-340 L257.97754,-340 L258.20224,-340 L258.42697,-340 L258.65167,-340 L258.8764,-340 L259.10114,-340 L259.32584,-340 L259.55057,-340 L259.77527,-340 L260,-340 L260.22473,-340 L260.44943,-340 L260.67416,-340 L260.89886,-340 L261.1236,-340 L261.34833,-340 L261.57303,-340 L261.79776,-340 L262.02246,-340 L262.2472,-340 L262.47192,-340 L262.69662,-340 L262.92136,-340 L263.14606,-340 L263.3708,-340 L263.59552,-340 L263.82022,-340 L264.04495,-340 L264.26965,-340 L264.4944,-340 L264.71912,-340 L264.94382,-340 L265.16855,-340 L265.39325,-340 L265.61798,-340 L265.84268,-340 L266.0674,-340 L266.29214,-340 L266.51685,-340 L266.74158,-340 L266.96628,-340 L267.191,-340 L267.41574,-340 L267.64044,-340 L267.86517,-340 L268.08987,-340 L268.3146,-340 L268.53934,-340 L268.76404,-340 L268.98877,-340 L269.21347,-340 L269.4382,-340 L269.66293,-340 L269.88763,-340 L270.11237,-340 L270.33707,-340 L270.5618,-340 L270.78653,-340 L271.01123,-340 L271.23596,-340 L271.46066,-340 L271.6854,-340 L271.91013,-340 L272.13483,-340 L272.35956,-340 L272.58426,-340 L272.809,-340 L273.03372,-340 L273.25842,-340 L273.48315,-340 L273.70786,-340 L273.9326,-340 L274.15732,-340 L274.38202,-340 L274.60675,-340 L274.83145,-340 L275.05618,-340 L275.28088,-340 L275.5056,-340 L275.73035,-340 L275.95505,-340 L276.17978,-340 L276.40448,-340 L276.6292,-340 L276.85394,-340 L277.07864,-340 L277.30338,-340 L277.52808,-340 L277.7528,-340 L277.97754,-340 L278.20224,-340 L278.42697,-340 L278.65167,-340 L278.8764,-340 L279.10114,-340 L279.32584,-340 L279.55057,-340 L279.77527,-340 L280,-340 L280.22473,-340 L280.44943,-340 L280.67416,-340 L280.89886,-340 L281.1236,-340 L281.34833,-340 L281.57303,-340 L281.79776,-340 L282.02246,-340 L282.2472,-340 L282.47192,-340 L282.69662,-340 L282.92136,-340 L283.14606,-340 L283.3708,-340 L283.59552,-340 L283.82022,-340 L284.04495,-340 L284.26965,-340 L284.4944,-340 L284.71912,-340 L284.94382,-340 L285.16855,-340 L285.39325,-340 L285.61798,-340 L285.84268,-340 L286.0674,-340 L286.29214,-340 L286.51685,-340 L286.74158,-340 L286.96628,-340 L287.191,-340 L287.41574,-340 L287.64044,-340 L287.86517,-340 L288.08987,-340 L288.3146,-340 L288.53934,-340 L288.76404,-340 L288.98877,-340 L289.21347,-340 L289.4382,-340 L289.66293,-340 L289.88763,-340 L290.11237,-340 L290.33707,-340 L290.5618,-340 L290.78653,-340 L291.01123,-340 L291.23596,-340 L291.46066,-340 L291.6854,-340 L291.91013,-340 L292.13483,-340 L292.35956,-340 L292.58426,-340 L292.809,-340 L293.03372,-340 L293.25842,-340 L293.48315,-340 L293.70786,-340 L293.9326,-340 L294.15732,-340 L294.38202,-340 L294.60675,-340 L294.83145,-340 L295.05618,-340 L295.28088,-340 L295.5056,-340 L295.73035,-340 L295.95505,-340 L296.17978,-340 L296.40448,-340 L296.6292,-340 L296.85394,-340 L297.07864,-340 L297.30338,-340 L297.52808,-340 L297.7528,-340 L297.97754,-340 L298.20224,-340 L298.42697,-340 L298.65167,-340 L298.8764,-340 L299.10114,-340 L299.32584,-340 L299.55057,-340 L299.77527,-340 L300,-340 L300.22473,-340 L300.44943,-340 L300.67416,-340 L300.89886,-340 L301.1236,-340 L301.34833,-340 L301.57303,-340 L301.79776,-340 L302.02246,-340 L302.2472,-340 L302.47192,-340 L302.69662,-340 L302.92136,-340 L303.14606,-340 L303.3708,-340 L303.59552,-340 L303.82022,-340 L304.04495,-340 L304.26965,-340 L304.4944,-340 L304.71912,-340 L304.94382,-340 L305.16855,-340 L305.39325,-340 L305.61798,-340 L305.84268,-340 L306.0674,-340 L306.29214,-340 L306.51685,-340 L306.74158,-340 L306.96628,-340 L307.191,-340 L307.41574,-340 L307.64044,-340 L307.86517,-340 L308.08987,-340 L308.3146,-340 L308.53934,-340 L308.76404,-340 L308.98877,-340 L309.21347,-340 L309.4382,-340 L309.66293,-340 L309.88763,-340 L310.11237,-340 L310.33707,-340 L310.5618,-340 L310.78653,-340 L311.01123,-340 L311.23596,-340 L311.46066,-340 L311.6854,-340 L311.91013,-340 L312.13483,-340 L312.35956,-340 L312.58426,-340 L312.809,-340 L313.03372,-340 L313.25842,-340 L313.48315,-340 L313.70786,-340 L313.9326,-340 L314.15732,-340 L314.38202,-340 L314.60675,-340 L314.83145,-340 L315.05618,-340 L315.28088,-340 L315.5056,-340 L315.73035,-340 L315.95505,-340 L316.17978,-340 L316.40448,-340 L316.6292,-340 L316.85394,-340 L317.07864,-340 L317.30338,-340 L317.52808,-340 L317.7528,-340 L317.97754,-340 L318.20224,-340 L318.42697,-340 L318.65167,-340 L318.8764,-340 L319.10114,-340 L319.32584,-340 L319.55057,-340 L319.77527,-340 L320,-340 L320.22473,-340 L320.44943,-340 L320.67416,-340 L320.89886,-340 L321.1236,-340 L321.34833,-340 L321.57303,-340 L321.79776,-340 L322.02246,-340 L322.2472,-340 L322.47192,-340 L322.69662,-340 L322.92136,-340 L323.14606,-340 L323.3708,-340 L323.59552,-340 L323.82022,-340 L324.04495,-340 L324.26965,-340 L324.4944,-340 L324.71912,-340 L324.94382,-340 L325.16855,-340 L325.39325,-340 L325.61798,-340 L325.84268,-340 L326.0674,-340 L326.29214,-340 L326.51685,-340 L326.74158,-340 L326.96628,-340 L327.191,-340 L327.41574,-340 L327.64044,-340 L327.86517,-340 L328.08987,-340 L328.3146,-340 L328.53934,-340 L328.76404,-340 L328.98877,-340 L329.21347,-340 L329.4382,-340 L329.66293,-340 L329.88763,-340 L330.11237,-340 L330.33707,-340 L330.5618,-340 L330.78653,-340 L331.01123,-340 L331.23596,-340 L331.46066,-340 L331.6854,-340 L331.91013,-340 L332.13483,-340 L332.35956,-340 L332.58426,-340 L332.809,-340 L333.03372,-340 L333.25842,-340 L333.48315,-340 L333.70786,-340 L333.9326,-340 L334.15732,-340 L334.38202,-340 L334.60675,-340 L334.83145,-340 L335.05618,-340 L335.28088,-340 L335.5056,-340 L335.73035,-340 L335.95505,-340 L336.17978,-340 L336.40448,-340 L336.6292,-340 L336.85394,-340 L337.07864,-340 L337.30338,-340 L337.52808,-340 L337.7528,-340 L337.97754,-340 L338.20224,-340 L338.42697,-340 L338.65167,-340 L338.8764,-340 L339.10114,-340 L339.32584,-340 L339.55057,-340 L339.77527,-340 L340,-340 L340.22473,-340 L340.44943,-340 L340.67416,-340 L340.89886,-340 L341.1236,-340 L341.34833,-340 L341.57303,-340 L341.79776,-340 L342.02246,-340 L342.2472,-340 L342.47192,-340 L342.69662,-340 L342.92136,-340 L343.14606,-340 L343.3708,-340 L343.59552,-340 L343.82022,-340 L344.04495,-340 L344.26965,-340 L344.4944,-340 L344.71912,-340 L344.94382,-340 L345.16855,-340 L345.39325,-340 L345.61798,-340 L345.84268,-340 L346.0674,-340 L346.29214,-340 L346.51685,-340 L346.74158,-340 L346.96628,-340 L347.191,-340 L347.41574,-340 L347.64044,-340 L347.86517,-340 L348.08987,-340 L348.3146,-340 L348.53934,-340 L348.76404,-340 L348.98877,-340 L349.21347,-340 L349.4382,-340 L349.66293,-340 L349.88763,-340 L350.11237,-340 L350.33707,-340 L350.5618,-340 L350.78653,-340 L351.01123,-340 L351.23596,-340 L351.46066,-340 L351.6854,-340 L351.91013,-340 L352.13483,-340 L352.35956,-340 L352.58426,-340 L352.809,-340 L353.03372,-340 L353.25842,-340 L353.48315,-340 L353.70786,-340 L353.9326,-340 L354.15732,-340 L354.38202,-340 L354.60675,-340 L354.83145,-340 L355.05618,-340 L355.28088,-340 L355.5056,-340 L355.73035,-340 L355.95505,-340 L356.17978,-340 L356.40448,-340 L356.6292,-340 L356.85394,-340 L357.07864,-340 L357.30338,-340 L357.52808,-340 L357.7528,-340 L357.97754,-340 L358.20224,-340 L358.42697,-340 L358.65167,-340 L358.8764,-340 L359.10114,-340 L359.32584,-340 L359.55057,-340 L359.77527,-340 L360,-340 L360.22473,-340 L360.44943,-340 L360.67416,-340 L360.89886,-340 L361.1236,-340 L361.34833,-340 L361.57303,-340 L361.79776,-340 L362.02246,-340 L362.2472,-340 L362.47192,-340 L362.69662,-340 L362.92136,-340 L363.14606,-340 L363.3708,-340 L363.59552,-340 L363.82022,-340 L364.04495,-340 L364.26965,-340 L364.4944,-340 L364.71912,-340 L364.94382,-340 L365.16855,-340 L365.39325,-340 L365.61798,-340 L365.84268,-340 L366.0674,-340 L366.29214,-340 L366.51685,-340 L366.74158,-340 L366.96628,-340 L367.191,-340 L367.41574,-340 L367.64044,-340 L367.86517,-340 L368.08987,-340 L368.3146,-340 L368.53934,-340 L368.76404,-340 L368.98877,-340 L369.21347,-340 L369.4382,-340 L369.66293,-340 L369.88763,-340 L370.11237,-340 L370.33707,-340 L370.5618,-340 L370.78653,-340 L371.01123,-340 L371.23596,-340 L371.46066,-340 L371.6854,-340 L371.91013,-340 L372.13483,-340 L372.35956,-340 L372.58426,-340 L372.809,-340 L373.03372,-340 L373.25842,-340 L373.48315,-340 L373.70786,-340 L373.9326,-340 L374.15732,-340 L374.38202,-340 L374.60675,-340 L374.83145,-340 L375.05618,-340 L375.28088,-340 L375.5056,-340 L375.73035,-340 L375.95505,-340 L376.17978,-340 L376.40448,-340 L376.6292,-340 L376.85394,-340 L377.07864,-340 L377.30338,-340 L377.52808,-340 L377.7528,-340 L377.97754,-340 L378.20224,-340 L378.42697,-340 L378.65167,-340 L378.8764,-340 L379.10114,-340 L379.32584,-340 L379.55057,-340 L379.77527,-340 L380,-340 L380.22473,-340 L380.44943,-340 L380.67416,-340 L380.89886,-340 L381.1236,-340 L381.34833,-340 L381.57303,-340 L381.79776,-340 L382.02246,-340 L382.2472,-340 L382.47192,-340 L382.69662,-340 L382.92136,-340 L383.14606,-340 L383.3708,-340 L383.59552,-340 L383.82022,-340 L384.04495,-340 L384.26965,-340 L384.4944,-340 L384.71912,-340 L384.94382,-340 L385.16855,-340 L385.39325,-340 L385.61798,-340 L385.84268,-340 L386.0674,-340 L386.29214,-340 L386.51685,-340 L386.74158,-340 L386.96628,-340 L387.191,-340 L387.41574,-340 L387.64044,-340 L387.86517,-340 L388.08987,-340 L388.3146,-340 L388.53934,-340 L388.76404,-340 L388.98877,-340 L389.21347,-340 L389.4382,-340 L389.66293,-340 L389.88763,-340 L390.11237,-340 L390.33707,-340 L390.5618,-340 L390.78653,-340 L391.01123,-340 L391.23596,-340 L391.46066,-340 L391.6854,-340 L391.91013,-340 L392.13483,-340 L392.35956,-340 L392.58426,-340 L392.809,-340 L393.03372,-340 L393.25842,-340 L393.48315,-340 L393.70786,-340 L393.9326,-340 L394.15732,-340 L394.38202,-340 L394.60675,-340 L394.83145,-340 L395.05618,-340 L395.28088,-340 L395.5056,-340 L395.73035,-340 L395.95505,-340 L396.17978,-340 L396.40448,-340 L396.6292,-340 L396.85394,-340 L397.07864,-340 L397.30338,-340 L397.52808,-340 L397.7528,-340 L397.97754,-340 L398.20224,-340 L398.42697,-340 L398.65167,-340 L398.8764,-340 L399.10114,-340 L399.32584,-340 L399.55057,-340 L399.77527,-340 L400,-340 L400.22473,-340 L400.44943,-340 L400.67416,-340 L400.89886,-340 L401.1236,-340 L401.34833,-340 L401.57303,-340 L401.79776,-340 L402.02246,-340 L402.2472,-340 L402.47192,-340 L402.69662,-340 L402.92136,-340 L403.14606,-340 L403.3708,-340 L403.59552,-340 L403.82022,-340 L404.04495,-340 L404.26965,-340 L404.4944,-340 L404.71912,-340 L404.94382,-340 L405.16855,-340 L405.39325,-340 L405.61798,-340 L405.84268,-340 L406.0674,-340 L406.29214,-340 L406.51685,-340 L406.74158,-340 L406.96628,-340 L407.191,-340 L407.41574,-340 L407.64044,-340 L407.86517,-340 L408.08987,-340 L408.3146,-340 L408.53934,-340 L408.76404,-340 L408.98877,-340 L409.21347,-340 L409.4382,-340 L409.66293,-340 L409.88763,-340 L410.11237,-340 L410.33707,-340 L410.5618,-340 L410.78653,-340 L411.01123,-340 L411.23596,-340 L411.46066,-340 L411.6854,-340 L411.91013,-340 L412.13483,-340 L412.35956,-340 L412.58426,-340 L412.809,-340 L413.03372,-340 L413.25842,-340 L413.48315,-340 L413.70786,-340 L413.9326,-340 L414.15732,-340 L414.38202,-340 L414.60675,-340 L414.83145,-340 L415.05618,-340 L415.28088,-340 L415.5056,-340 L415.73035,-340 L415.95505,-340 L416.17978,-340 L416.40448,-340 L416.6292,-340 L416.85394,-340 L417.07864,-340 L417.30338,-340 L417.52808,-340 L417.7528,-340 L417.97754,-340 L418.20224,-340 L418.42697,-340 L418.65167,-340 L418.8764,-340 L419.10114,-340 L419.32584,-340 L419.55057,-340 L419.77527,-340 L420,-340 L420.22473,-340 L420.44943,-340 L420.67416,-340 L420.89886,-340 L421.1236,-340 L421.34833,-340 L421.57303,-340 L421.79776,-340 L422.02246,-340 L422.2472,-340 L422.47192,-340 L422.69662,-340 L422.92136,-340 L423.14606,-340 L423.3708,-340 L423.59552,-340 L423.82022,-340 L424.04495,-340 L424.26965,-340 L424.4944,-340 L424.71912,-340 L424.94382,-340 L425.16855,-340 L425.39325,-340 L425.61798,-340 L425.84268,-340 L426.0674,-340 L426.29214,-340 L426.51685,-340 L426.74158,-340 L426.96628,-340 L427.191,-340 L427.41574,-340 L427.64044,-340 L427.86517,-340 L428.08987,-340 L428.3146,-340 L428.53934,-340 L428.76404,-340 L428.98877,-340 L429.21347,-340 L429.4382,-340 L429.66293,-340 L429.88763,-340 L430.11237,-340 L430.33707,-340 L430.5618,-340 L430.78653,-340 L431.01123,-340 L431.23596,-340 L431.46066,-340 L431.6854,-340 L431.91013,-340 L432.13483,-340 L432.35956,-340 L432.58426,-340 L432.809,-340 L433.03372,-340 L433.25842,-340 L433.48315,-340 L433.70786,-340 L433.9326,-340 L434.15732,-340 L434.38202,-340 L434.60675,-340 L434.83145,-340 L435.05618,-340 L435.28088,-340 L435.5056,-340 L435.73035,-340 L435.95505,-340 L436.17978,-340 L436.40448,-340 L436.6292,-340 L436.85394,-340 L437.07864,-340 L437.30338,-340 L437.52808,-340 L437.7528,-340 L437.97754,-340 L438.20224,-340 L438.42697,-340 L438.65167,-340 L438.8764,-340 L439.10114,-340 L439.32584,-340 L439.55057,-340 L439.77527,-340 L440,-340 L440.22473,-340 L440.44943,-340 L440.67416,-340 L440.89886,-340 L441.1236,-340 L441.34833,-340 L441.57303,-340 L441.79776,-340 L442.02246,-340 L442.2472,-340 L442.47192,-340 L442.69662,-340 L442.92136,-340 L443.14606,-340 L443.3708,-340 L443.59552,-340 L443.82022,-340 L444.04495,-340 L444.26965,-340 L444.4944,-340 L444.71912,-340 L444.94382,-340 L445.16855,-340 L445.39325,-340 L445.61798,-340 L445.84268,-340 L446.0674,-340 L446.29214,-340 L446.51685,-340 L446.74158,-340 L446.96628,-340 L447.191,-340 L447.41574,-340 L447.64044,-340 L447.86517,-340 L448.08987,-340 L448.3146,-340 L448.53934,-340 L448.76404,-340 L448.98877,-340 L449.21347,-340 L449.4382,-340 L449.66293,-340 L449.88763,-340 L450.11237,-340 L450.33707,-340 L450.5618,-340 L450.78653,-340 L451.01123,-340 L451.23596,-340 L451.46066,-340 L451.6854,-340 L451.91013,-340 L452.13483,-340 L452.35956,-340 L452.58426,-340 L452.809,-340 L453.03372,-340 L453.25842,-340 L453.48315,-340 L453.70786,-340 L453.9326,-340 L454.15732,-340 L454.38202,-340 L454.60675,-340 L454.83145,-340 L455.05618,-340 L455.28088,-340 L455.5056,-340 L455.73035,-340 L455.95505,-340 L456.17978,-340 L456.40448,-340 L456.6292,-340 L456.85394,-340 L457.07864,-340 L457.30338,-340 L457.52808,-340 L457.7528,-340 L457.97754,-340 L458.20224,-340 L458.42697,-340 L458.65167,-340 L458.8764,-340 L459.10114,-340 L459.32584,-340 L459.55057,-340 L459.77527,-340 L460,-340 L460.22473,-340 L460.44943,-340 L460.67416,-340 L460.89886,-340 L461.1236,-340 L461.34833,-340 L461.57303,-340 L461.79776,-340 L462.02246,-340 L462.2472,-340 L462.47192,-340 L462.69662,-340 L462.92136,-340 L463.14606,-340 L463.3708,-340 L463.59552,-340 L463.82022,-340 L464.04495,-340 L464.26965,-340 L464.4944,-340 L464.71912,-340 L464.94382,-340 L465.16855,-340 L465.39325,-340 L465.61798,-340 L465.84268,-340 L466.0674,-340 L466.29214,-340 L466.51685,-340 L466.74158,-340 L466.96628,-340 L467.191,-340 L467.41574,-340 L467.64044,-340 L467.86517,-340 L468.08987,-340 L468.3146,-340 L468.53934,-340 L468.76404,-340 L468.98877,-340 L469.21347,-340 L469.4382,-340 L469.66293,-340 L469.88763,-340 L470.11237,-340 L470.33707,-340 L470.5618,-340 L470.78653,-340 L471.01123,-340 L471.23596,-340 L471.46066,-340 L471.6854,-340 L471.91013,-340 L472.13483,-340 L472.35956,-340 L472.58426,-340 L472.809,-340 L473.03372,-340 L473.25842,-340 L473.48315,-340 L473.70786,-340 L473.9326,-340 L474.15732,-340 L474.38202,-340 L474.60675,-340 L474.83145,-340 L475.05618,-340 L475.28088,-340 L475.5056,-340 L475.73035,-340 L475.95505,-340 L476.17978,-340 L476.40448,-340 L476.6292,-340 L476.85394,-340 L477.07864,-340 L477.30338,-340 L477.52808,-340 L477.7528,-340 L477.97754,-340 L478.20224,-340 L478.42697,-340 L478.65167,-340 L478.8764,-340 L479.10114,-340 L479.32584,-340 L479.55057,-340 L479.77527,-340 L480,-340" fill="none" stroke="black" stroke-linejoin="round" stroke-width="2"/>
</g>
</g>
<g>
<g>
<line stroke="black" stroke-width="1" x1="0" x2="0" y1="0" y2="10"/>
<line stroke="black" stroke-width="1" x1="89.88764044943821" x2="89.88764044943821" y1="0" y2="10"/>
<line stroke="black" stroke-width="1" x1="179.77528089887642" x2="179.77528089887642" y1="0" y2="10"/>
<line stroke="black" stroke-width="1" x1="269.6629213483146" x2="269.6629213483146" y1="0" y2="10"/>
<line stroke="black" stroke-width="1" x1="359.55056179775283" x2="359.55056179775283" y1="0" y2="10"/>
<line stroke="black" stroke-width="1" x1="449.438202247191" x2="449.438202247191" y1="0" y2="10"/>
</g>
<line stroke="black" stroke-width="1" x1="0" x2="480" y1="0" y2="0"/>
<g>
<text font-size="12" text-anchor="middle" x="0" y="20">
0
</text>
<text font-size="12" text-anchor="middle" x="89.88764044943821" y="20">
400
</text>
<text font-size="12" text-anchor="middle" x="179.77528089887642" y="20">
800
</text>
<text font-size="12" text-anchor="middle" x="269.6629213483146" y="20">
1200
</text>
<text font-size="12" text-anchor="middle" x="359.55056179775283" y="20">
1600
</text>
<text font-size="12" text-anchor="middle" x="449.438202247191" y="20">
2000
</text>
</g>
<text font-size="12" text-anchor="middle" x="240" y="30">

</text>
</g>
<g>
<g>
<line stroke="black" stroke-width="1" x1="0" x2="-10" y1="-34" y2="-34"/>
<line stroke="black" stroke-width="1" x1="0" x2="-10" y1="-102.00000000000003" y2="-102.00000000000003"/>
<line stroke="black" stroke-width="1" x1="0" x2="-10" y1="-170.00000000000003" y2="-170.00000000000003"/>
<line stroke="black" stroke-width="1" x1="0" x2="-10" y1="-238.00000000000003" y2="-238.00000000000003"/>
<line stroke="black" stroke-width="1" x1="0" x2="-10" y1="-306.00000000000006" y2="-306.00000000000006"/>
</g>
<line stroke="black" stroke-width="1" x1="0" x2="0" y1="0" y2="-340"/>
<g>
<text dominant-baseline="middle" font-size="12" text-anchor="end" x="-15" y="-34">
-0.8
</text>
<text dominant-baseline="middle" font-size="12" text-anchor="end" x="-15" y="-102.00000000000003">
-0.4
</text>
<text dominant-baseline="middle" font-size="12" text-anchor="end" x="-15" y="-170.00000000000003">
0
</text>
<text dominant-baseline="middle" font-size="12" text-anchor="end" x="-15" y="-238.00000000000003">
0.4
</text>
<text dominant-baseline="middle" font-size="12" text-anchor="end" x="-15" y="-306.00000000000006">
0.8
</text>
</g>
<text font-size="12" text-anchor="middle" transform="rotate(-90 -48 -170)" x="-48" y="-182">

</text>
</g>
</g>
</svg>