<svg viewBox="0 0 600 400" xmlns="http://www.w3.org/2000/svg">
<g transform="translate(72, 364)">
<g>
<g>
<path d="M0,-340 L0,-340 L0.24279211,-340 L0.48558423,-331.5 L0.7283763,-331.925 L0.97116846,-315.32874 L1.2139605,-299.56232 L1.4567527,-284.5842 L1.6995448,-270.35498 L1.9423369,-256.83725 L2.185129,-243.99538 L2.427921,-231.79561 L2.6707132,-220.20583 L2.9135053,-209.19554 L3.1562974,-198.73576 L3.3990896,-188.79897 L3.6418817,-179.35902 L3.8846738,-170.39107 L4.1274657,-161.87152 L4.370258,-153.77794 L4.61305,-146.08905 L4.855842,-138.78459 L5.0986342,-131.84537 L5.3414264,-125.2531 L5.5842185,-118.99044 L5.8270106,-113.04092 L6.0698028,-107.38887 L6.312595,-102.01943 L6.555387,-96.91846 L6.798179,-92.07253 L7.0409713,-87.46891 L7.2837634,-83.09546 L7.5265555,-78.94069 L7.7693477,-74.99365 L8.012139,-71.24397 L8.254931,-67.68177 L8.497724,-64.29768 L8.740516,-61.0828 L8.983308,-58.02866 L9.2261,-55.127228 L9.468892,-52.370865 L9.711684,-49.752323 L9.954476,-47.264706 L10.1972685,-44.90147 L10.440061,-42.6564 L10.682853,-40.52358 L10.925645,-38.4974 L11.168437,-36.57253 L11.411229,-34.743904 L11.654021,-33.006706 L11.896813,-31.356373 L12.1396055,-29.788553 L12.382398,-28.299126 L12.62519,-26.884169 L12.867982,-25.53996 L13.110774,-24.262962 L13.353566,-23.049814 L13.596358,-21.897324 L13.83915,-20.802458 L14.081943,-19.762335 L14.324735,-18.774218 L14.567527,-17.835506 L14.810319,-16.943731 L15.053111,-16.096546 L15.295903,-15.2917185 L15.538695,-14.527132 L15.781487,-13.800776 L16.024279,-13.110737 L16.26707,-12.4552 L16.509863,-11.83244 L16.752655,-11.240818 L16.995447,-10.678777 L17.23824,-10.144838 L17.481031,-9.637596 L17.723824,-9.155717 L17.966616,-8.69793 L18.209408,-8.263034 L18.4522,-7.8498826 L18.694992,-7.4573884 L18.937784,-7.084519 L19.180576,-6.730293 L19.423368,-6.3937783 L19.66616,-6.0740895 L19.908953,-5.770385 L20.151745,-5.4818654 L20.394537,-5.2077723 L20.63733,-4.947384 L20.880121,-4.7000146 L21.122913,-4.465014 L21.365705,-4.241763 L21.608498,-4.029675 L21.85129,-3.8281913 L22.094082,-3.6367817 L22.336874,-3.4549427 L22.579666,-3.2821956 L22.822458,-3.1180856 L23.06525,-2.9621813 L23.308043,-2.8140724 L23.550835,-2.6733687 L23.793627,-2.5397003 L24.036419,-2.4127152 L24.279211,-2.2920794 L24.522003,-2.1774755 L24.764795,-2.0686018 L25.007587,-1.9651717 L25.25038,-1.8669131 L25.493172,-1.7735674 L25.735964,-1.6848891 L25.978756,-1.6006446 L26.221548,-1.5206124 L26.46434,-1.4445817 L26.707132,-1.3723527 L26.949924,-1.303735 L27.192717,-1.2385483 L27.435509,-1.1766208 L27.6783,-1.1177899 L27.921093,-1.0619004 L28.163885,-1.0088053 L28.406677,-0.958365 L28.64947,-0.9104468 L28.892262,-0.86492443 L29.135054,-0.8216782 L29.377846,-0.78059435 L29.620638,-0.74156463 L29.86343,-0.70448637 L30.106222,-0.66926205 L30.349014,-0.63579893 L30.591806,-0.60400903 L30.834599,-0.57380855 L31.07739,-0.54511815 L31.320183,-0.5178622 L31.562975,-0.4919691 L31.805767,-0.46737066 L32.048557,-0.44400212 L32.29135,-0.421802 L32.53414,-0.40071192 L32.776936,-0.38067633 L33.019726,-0.3616425 L33.26252,-0.34356037 L33.50531,-0.32638237 L33.748104,-0.31006324 L33.990894,-0.29456007 L34.23369,-0.27983207 L34.47648,-0.26584047 L34.719273,-0.25254846 L34.962063,-0.23992102 L35.204857,-0.22792497 L35.447647,-0.21652873 L35.69044,-0.20570229 L35.93323,-0.19541718 L36.176025,-0.18564631 L36.418816,-0.176364 L36.66161,-0.1675458 L36.9044,-0.15916851 L37.147194,-0.15121008 L37.389984,-0.14364958 L37.63278,-0.1364671 L37.87557,-0.12964375 L38.118362,-0.12316156 L38.361153,-0.11700348 L38.603947,-0.111153305 L38.846737,-0.10559564 L39.08953,-0.10031586 L39.33232,-0.09530006 L39.575115,-0.09053507 L39.817905,-0.08600831 L40.0607,-0.081707895 L40.30349,-0.0776225 L40.546284,-0.07374138 L40.789074,-0.07005431 L41.031868,-0.06655159 L41.27466,-0.06322401 L41.517452,-0.06006281 L41.760242,-0.05705967 L42.003036,-0.054206688 L42.245827,-0.051496353 L42.48862,-0.048921537 L42.73141,-0.04647546 L42.974205,-0.044151686 L43.216995,-0.0419441 L43.45979,-0.039846897 L43.70258,-0.037854552 L43.945374,-0.03596182 L44.188164,-0.034163732 L44.430958,-0.032455545 L44.673748,-0.03083277 L44.916542,-0.02929113 L45.159332,-0.027826574 L45.402126,-0.026435245 L45.644917,-0.025113482 L45.887707,-0.023857808 L46.1305,-0.022664918 L46.37329,-0.021531671 L46.616085,-0.020455088 L46.858875,-0.019432334 L47.10167,-0.018460717 L47.34446,-0.017537681 L47.587254,-0.016660798 L47.830044,-0.015827758 L48.072838,-0.01503637 L48.315628,-0.014284551 L48.558422,-0.013570324 L48.801212,-0.012891808 L49.044006,-0.012247217 L49.286797,-0.011634856 L49.52959,-0.011053113 L49.77238,-0.010500458 L50.015175,-0.009975435 L50.257965,-0.009476664 L50.50076,-0.00900283 L50.74355,-0.008552688 L50.986343,-0.008125054 L51.229134,-0.0077188015 L51.471928,-0.0073328614 L51.714718,-0.0069662184 L51.95751,-0.0066179074 L52.200302,-0.006287012 L52.443096,-0.0059726615 L52.685886,-0.0056740283 L52.92868,-0.005390327 L53.17147,-0.0051208106 L53.414265,-0.00486477 L53.657055,-0.0046215313 L53.89985,-0.004390455 L54.14264,-0.0041709323 L54.385433,-0.0039623855 L54.628223,-0.0037642664 L54.871017,-0.003576053 L55.113808,-0.0033972503 L55.3566,-0.0032273878 L55.599392,-0.0030660185 L55.842186,-0.0029127174 L56.084976,-0.0027670816 L56.32777,-0.0026287276 L56.57056,-0.0024972912 L56.813354,-0.0023724267 L57.056145,-0.0022538053 L57.29894,-0.002141115 L57.54173,-0.0020340593 L57.784523,-0.0019323563 L58.027313,-0.0018357384 L58.270107,-0.0017439516 L58.512897,-0.001656754 L58.75569,-0.0015739163 L58.99848,-0.0014952205 L59.241276,-0.0014204595 L59.484066,-0.0013494365 L59.72686,-0.0012819646 L59.96965,-0.0012178664 L60.212444,-0.0011569731 L60.455235,-0.0010991244 L60.69803,-0.0010441683 L60.94082,-0.0009919598 L61.183613,-0.00094236183 L61.426403,-0.0008952437 L61.669197,-0.00085048156 L61.911987,-0.0008079575 L62.15478,-0.00076755957 L62.39757,-0.00072918163 L62.640366,-0.0006927225 L62.883156,-0.0006580864 L63.12595,-0.00062518206 L63.36874,-0.000593923 L63.611534,-0.0005642268 L63.854324,-0.0005360155 L64.097115,-0.0005092147 L64.33991,-0.00048375397 L64.5827,-0.00045956628 L64.82549,-0.00043658796 L65.06828,-0.00041475857 L65.31108,-0.00039402064 L65.55387,-0.0003743196 L65.79666,-0.00035560364 L66.03945,-0.00033782344 L66.28225,-0.00032093227 L66.52504,-0.00030488565 L66.76783,-0.00028964138 L67.01062,-0.0002751593 L67.25342,-0.00026140135 L67.49621,-0.0002483313 L67.739,-0.00023591472 L67.98179,-0.00022411898 L68.22459,-0.00021291303 L68.46738,-0.00020226737 L68.71017,-0.00019215401 L68.95296,-0.00018254631 L69.19575,-0.00017341899 L69.438545,-0.00016474804 L69.681335,-0.00015651064 L69.924126,-0.00014868511 L70.166916,-0.00014125086 L70.40971,-0.0001341883 L70.652504,-0.0001274789 L70.895294,-0.000121104946 L71.138084,-0.000115049705 L71.38088,-0.000109297216 L71.62367,-0.00010383235 L71.86646,-0.00009864074 L72.10925,-0.0000937087 L72.35205,-0.00008902327 L72.59484,-0.0000845721 L72.83763,-0.000080343496 L73.08042,-0.00007632632 L73.32322,-0.00007251 L73.56601,-0.0000688845 L73.8088,-0.00006544028 L74.05159,-0.00006216827 L74.29439,-0.000059059854 L74.53718,-0.00005610686 L74.77997,-0.00005330152 L75.02276,-0.00005063644 L75.26556,-0.00004810462 L75.50835,-0.000045699388 L75.75114,-0.00004341442 L75.99393,-0.000041243697 L76.236725,-0.000039181512 L76.479515,-0.00003722244 L76.722305,-0.000035361314 L76.965096,-0.00003359325 L77.20789,-0.000031913587 L77.45068,-0.000030317908 L77.693474,-0.000028802013 L77.936264,-0.000027361912 L78.17906,-0.000025993817 L78.42185,-0.000024694125 L78.66464,-0.000023459419 L78.90743,-0.00002228645 L79.15023,-0.000021172125 L79.39302,-0.000020113519 L79.63581,-0.000019107843 L79.8786,-0.000018152452 L80.1214,-0.000017244829 L80.36419,-0.000016382588 L80.60698,-0.000015563459 L80.84977,-0.000014785285 L81.09257,-0.000014046021 L81.33536,-0.00001334372 L81.57815,-0.0000126765335 L81.82094,-0.000012042707 L82.063736,-0.000011440572 L82.306526,-0.0000108685435 L82.54932,-0.000010325116 L82.79211,-0.00000980886 L83.034904,-0.000009318417 L83.277695,-0.000008852497 L83.520485,-0.000008409871 L83.763275,-0.000007989378 L84.00607,-0.000007589909 L84.24886,-0.0000072104135 L84.49165,-0.000006849893 L84.73444,-0.000006507398 L84.97724,-0.0000061820283 L85.22003,-0.000005872927 L85.46282,-0.0000055792802 L85.70561,-0.0000053003164 L85.94841,-0.0000050353005 L86.1912,-0.0000047835356 L86.43399,-0.000004544359 L86.67678,-0.000004317141 L86.91958,-0.0000041012836 L87.16237,-0.0000038962194 L87.40516,-0.0000037014086 L87.64795,-0.0000035163382 L87.89075,-0.0000033405213 L88.13354,-0.000003173495 L88.37633,-0.0000030148203 L88.61912,-0.0000028640793 L88.861916,-0.0000027208753 L89.104706,-0.0000025848317 L89.347496,-0.00000245559 L89.59029,-0.0000023328105 L89.833084,-0.00000221617 L90.075874,-0.0000021053615 L90.318665,-0.0000020000934 L90.561455,-0.0000019000887 L90.80425,-0.0000018050843 L91.04704,-0.0000017148301 L91.28983,-0.0000016290885 L91.53262,-0.000001547634 L91.77541,-0.0000014702524 L92.01821,-0.0000013967398 L92.261,-0.0000013269027 L92.50379,-0.0000012605576 L92.74658,-0.0000011975297 L92.98938,-0.0000011376533 L93.23217,-0.0000010807705 L93.47496,-0.000001026732 L93.71775,-0.0000009753954 L93.96055,-0.0000009266256 L94.20334,-0.00000088029435 L94.44613,-0.00000083627964 L94.68892,-0.0000007944656 L94.93172,-0.0000007547423 L95.17451,-0.0000007170052 L95.4173,-0.0000006811549 L95.66009,-0.0000006470972 L95.902885,-0.0000006147423 L96.145676,-0.0000005840052 L96.388466,-0.0000005548049 L96.631256,-0.0000005270647 L96.874054,-0.0000005007114 L97.116844,-0.00000047567585 L97.359634,-0.00000045189205 L97.602425,-0.00000042929742 L97.84522,-0.00000040783254 L98.08801,-0.0000003874409 L98.3308,-0.00000036806884 L98.57359,-0.00000034966538 L98.81639,-0.0000003321821 L99.05918,-0.000000315573 L99.30197,-0.00000029979435 L99.54476,-0.0000002848046 L99.78756,-0.00000027056436 L100.03035,-0.00000025703613 L100.27314,-0.00000024418432 L100.51593,-0.0000002319751 L100.75873,-0.00000022037634 L101.00152,-0.00000020935751 L101.24431,-0.00000019888964 L101.4871,-0.00000018894515 L101.7299,-0.00000017949789 L101.97269,-0.000000170523 L102.21548,-0.00000016199682 L102.45827,-0.00000015389698 L102.701065,-0.00000014620211 L102.943855,-0.00000013889199 L103.186646,-0.00000013194737 L103.429436,-0.00000012535 L103.67223,-0.000000119082486 L103.91502,-0.00000011312835 L104.157814,-0.000000107471934 L104.400604,-0.00000010209832 L104.6434,-0.000000096993396 L104.88619,-0.000000092143715 L105.12898,-0.000000087536534 L105.37177,-0.0000000831597 L105.61457,-0.00000007900171 L105.85736,-0.00000007505161 L106.10015,-0.000000071299034 L106.34294,-0.00000006773407 L106.58574,-0.00000006434736 L106.82853,-0.00000006112998 L107.07132,-0.000000058073468 L107.31411,-0.000000055169792 L107.55691,-0.00000005241129 L107.7997,-0.000000049790724 L108.04249,-0.000000047301175 L108.28528,-0.0000000449361 L108.528076,-0.00000004268929 L108.77087,-0.000000040554813 L109.01366,-0.00000003852707 L109.25645,-0.000000036600717 L109.499245,-0.000000034770675 L109.742035,-0.000000033032137 L109.984825,-0.000000031380527 L110.227615,-0.000000029811492 L110.47041,-0.000000028320917 L110.7132,-0.000000026904853 L110.95599,-0.000000025559606 L111.198784,-0.000000024281624 L111.44158,-0.000000023067528 L111.68437,-0.000000021914152 L111.92716,-0.000000020818433 L112.16995,-0.000000019777506 L112.41275,-0.000000018788613 L112.65554,-0.000000017849171 L112.89833,-0.000000016956704 L113.14112,-0.000000016108856 L113.38392,-0.0000000153034 L113.62671,-0.000000014538218 L113.8695,-0.000000013811293 L114.11229,-0.0000000131207205 L114.35508,-0.0000000124646675 L114.59788,-0.000000011841417 L114.84067,-0.000000011249346 L115.08346,-0.000000010686869 L115.32625,-0.000000010152514 L115.569046,-0.000000009644885 L115.81184,-0.00000000916264 L116.05463,-0.0000000087044985 L116.29742,-0.000000008269269 L116.540215,-0.0000000078558005 L116.783005,-0.000000007462999 L117.025795,-0.0000000070898456 L117.268585,-0.000000006735339 L117.51138,-0.000000006398555 L117.75417,-0.0000000060786256 L117.99696,-0.000000005774682 L118.23975,-0.0000000054859317 L118.48255,-0.00000000521162 L118.72534,-0.00000000495103 L118.96813,-0.000000004703462 L119.21092,-0.000000004468276 L119.45372,-0.000000004244848 L119.69651,-0.0000000040325934 L119.9393,-0.000000003830946 L120.18209,-0.0000000036393955 L120.42489,-0.0000000034574144 L120.66768,-0.0000000032845304 L120.91047,-0.0000000031202907 L121.15326,-0.000000002964261 L121.39606,-0.0000000028160452 L121.63885,-0.0000000026752278 L121.88164,-0.0000000025414504 L122.12443,-0.0000000024143731 L122.367226,-0.0000000022936375 L122.610016,-0.0000000021789415 L122.852806,-0.000000002069983 L123.0956,-0.0000000019664792 L123.338394,-0.0000000018681467 L123.581184,-0.0000000017747215 L123.823975,-0.0000000016859769 L124.066765,-0.0000000016016677 L124.30956,-0.0000000015215673 L124.55235,-0.0000000014454871 L124.79514,-0.0000000013732004 L125.03793,-0.0000000013045376 L125.28073,-0.0000000012393098 L125.52352,-0.0000000011773282 L125.76631,-0.0000000011184609 L126.0091,-0.0000000010625378 L126.2519,-0.0000000010094081 L126.49469,-0.0000000009589207 L126.73748,-0.0000000009109624 L126.98027,-0.0000000008654011 L127.22307,-0.0000000008221235 L127.46586,-0.00000000078101636 L127.70865,-0.0000000007419476 L127.95144,-0.00000000070484174 L128.19423,-0.0000000006695855 L128.43703,-0.0000000006361034 L128.67982,-0.0000000006042822 L128.9226,-0.00000000057406524 L129.1654,-0.0000000005453582 L129.40819,-0.0000000005180856 L129.65099,-0.00000000049217186 L129.89378,-0.00000000046756043 L130.13657,-0.0000000004441758 L130.37936,-0.00000000042196135 L130.62216,-0.00000000040086046 L130.86494,-0.0000000003808165 L131.10774,-0.00000000036177283 L131.35052,-0.00000000034367287 L131.59332,-0.00000000032647884 L131.83612,-0.00000000031015301 L132.0789,-0.00000000029463876 L132.3217,-0.00000000027989833 L132.5645,-0.00000000026589397 L132.80728,-0.00000000025258795 L133.05008,-0.0000000002399425 L133.29286,-0.00000000022793878 L133.53566,-0.00000000021653901 L133.77846,-0.00000000020570545 L134.02124,-0.00000000019541924 L134.26404,-0.00000000018564261 L134.50684,-0.00000000017635671 L134.74962,-0.00000000016752377 L134.99242,-0.00000000015914381 L135.2352,-0.00000000015117907 L135.478,-0.00000000014361068 L135.7208,-0.00000000013641976 L135.96358,-0.00000000012958745 L136.20638,-0.00000000012309487 L136.44917,-0.00000000011692314 L136.69196,-0.00000000011107226 L136.93475,-0.000000000105504494 L137.17754,-0.00000000010021983 L137.42033,-0.000000000095199404 L137.66313,-0.000000000090424335 L137.90591,-0.000000000085894625 L138.14871,-0.0000000000815914 L138.3915,-0.00000000007749579 L138.6343,-0.00000000007360779 L138.87709,-0.0000000000699274 L139.11987,-0.00000000006641687 L139.36267,-0.000000000063095085 L139.60547,-0.00000000005992429 L139.84825,-0.000000000056923355 L140.09105,-0.000000000054073412 L140.33383,-0.000000000051355586 L140.57663,-0.000000000048769877 L140.81943,-0.000000000046316284 L141.06221,-0.000000000043994808 L141.30501,-0.000000000041786574 L141.5478,-0.000000000039691583 L141.79059,-0.00000000003769096 L142.03339,-0.000000000035803582 L142.27617,-0.000000000034010572 L142.51897,-0.000000000032293057 L142.76176,-0.00000000003066991 L143.00455,-0.00000000002912226 L143.24734,-0.000000000027650104 L143.49014,-0.000000000026253444 L143.73293,-0.000000000024932278 L143.97572,-0.000000000023667734 L144.2185,-0.000000000022478686 L144.4613,-0.000000000021346258 L144.7041,-0.000000000020270452 L144.94688,-0.000000000019251267 L145.18968,-0.000000000018288704 L145.43248,-0.000000000017363888 L145.67526,-0.000000000016495694 L145.91806,-0.000000000015665247 L146.16084,-0.000000000014872548 L146.40364,-0.000000000014117596 L146.64644,-0.000000000013400392 L146.88922,-0.000000000012720935 L147.13202,-0.0000000000120792265 L147.37482,-0.000000000011475265 L147.6176,-0.000000000010890178 L147.8604,-0.000000000010342838 L148.10318,-0.0000000000098143715 L148.34598,-0.000000000009323653 L148.58878,-0.000000000008851808 L148.83156,-0.000000000008398837 L149.07436,-0.00000000000796474 L149.31715,-0.000000000007549517 L149.55994,-0.0000000000071720407 L149.80273,-0.0000000000068134387 L150.04552,-0.0000000000064548367 L150.28831,-0.0000000000061151084 L150.53111,-0.000000000005794254 L150.7739,-0.0000000000054922733 L151.0167,-0.0000000000052091664 L151.25949,-0.0000000000049449334 L151.50227,-0.0000000000046807003 L151.74507,-0.000000000004435341 L151.98785,-0.0000000000042088555 L152.23065,-0.00000000000398237 L152.47345,-0.0000000000037747583 L152.71623,-0.0000000000035860204 L152.95903,-0.0000000000033972825 L153.20183,-0.0000000000032274183 L153.44461,-0.0000000000030575542 L153.68741,-0.00000000000288769 L153.93019,-0.0000000000027366998 L154.17299,-0.0000000000025857094 L154.41579,-0.0000000000024535929 L154.65857,-0.0000000000023214763 L154.90137,-0.0000000000021893598 L155.14417,-0.000000000002076117 L155.38695,-0.0000000000019628743 L155.62975,-0.0000000000018496316 L155.87253,-0.0000000000017552626 L156.11533,-0.0000000000016608936 L156.35812,-0.0000000000015665247 L156.6009,-0.0000000000014721557 L156.8437,-0.0000000000013966606 L157.0865,-0.0000000000013211654 L157.32928,-0.0000000000012456702 L157.57208,-0.0000000000011701751 L157.81487,-0.0000000000010946799 L158.05766,-0.0000000000010380585 L158.30046,-0.0000000000009814372 L158.54324,-0.0000000000009248158 L158.78604,-0.0000000000008681944 L159.02884,-0.00000000000081157303 L159.27162,-0.00000000000075495166 L159.51442,-0.0000000000007172041 L159.7572,-0.0000000000006794565 L160,-0.0000000000006417089 L160.2428,-0.0000000000006039613 L160.48558,-0.00000000000056621374 L160.72838,-0.00000000000052846616 L160.97116,-0.0000000000004907186 L161.21396,-0.000000000000452971 L161.45676,-0.0000000000004152234 L161.69954,-0.00000000000037747583 L161.94234,-0.00000000000035860204 L162.18513,-0.00000000000033972825 L162.42792,-0.00000000000032085445 L162.67072,-0.00000000000030198066 L162.9135,-0.00000000000028310687 L163.1563,-0.00000000000026423308 L163.3991,-0.0000000000002453593 L163.64188,-0.0000000000002264855 L163.88467,-0.0000000000002076117 L164.12747,-0.00000000000018873791 L164.37025,-0.00000000000016986412 L164.61305,-0.00000000000015099033 L164.85583,-0.00000000000013211654 L165.09863,-0.00000000000011324275 L165.34143,-0.00000000000009436896 L165.58421,-0.000000000000075495166 L165.82701,-0.000000000000056621374 L166.06981,-0.000000000000037747583 L166.31259,-0.000000000000018873791 L166.55539,-0 L166.79817,-0 L167.04097,-0 L167.28377,-0 L167.52655,-0 L167.76935,-0 L168.01215,-0 L168.25493,-0 L168.49773,-0 L168.74051,-0 L168.9833,-0 L169.2261,-0 L169.46889,-0 L169.71169,-0 L169.95448,-0 L170.19727,-0 L170.44006,-0 L170.68285,-0 L170.92564,-0 L171.16844,-0 L171.41122,-0 L171.65402,-0 L171.89682,-0 L172.1396,-0 L172.3824,-0 L172.62518,-0 L172.86798,-0 L173.11078,-0 L173.35356,-0 L173.59636,-0 L173.83916,-0 L174.08194,-0 L174.32474,-0 L174.56752,-0 L174.81032,-0 L175.05312,-0 L175.2959,-0 L175.5387,-0 L175.7815,-0 L176.02428,-0 L176.26707,-0 L176.50986,-0 L176.75266,-0 L176.99545,-0 L177.23824,-0 L177.48103,-0 L177.72383,-0 L177.96661,-0 L178.20941,-0 L178.4522,-0 L178.69499,-0 L178.93779,-0 L179.18057,-0 L179.42337,-0 L179.66617,-0 L179.90895,-0 L180.15175,-0 L180.39453,-0 L180.63733,-0 L180.88013,-0 L181.12291,-0 L181.3657,-0 L181.6085,-0 L181.85129,-0 L182.09409,-0 L182.33687,-0 L182.57967,-0 L182.82246,-0 L183.06525,-0 L183.30804,-0 L183.55083,-0 L183.79362,-0 L184.03642,-0 L184.2792,-0 L184.522,-0 L184.7648,-0 L185.00758,-0 L185.25038,-0 L185.49316,-0 L185.73596,-0 L185.97876,-0 L186.22154,-0 L186.46434,-0 L186.70714,-0 L186.94992,-0 L187.19272,-0 L187.4355,-0 L187.6783,-0 L187.9211,-0 L188.16388,-0 L188.40668,-0 L188.64948,-0 L188.89226,-0 L189.13506,-0 L189.37784,-0 L189.62064,-0 L189.86343,-0 L190.10622,-0 L190.34901,-0 L190.59181,-0 L190.8346,-0 L191.0774,-0 L191.32018,-0 L191.56297,-0 L191.80577,-0 L192.04855,-0 L192.29135,-0 L192.53415,-0 L192.77693,-0 L193.01973,-0 L193.26251,-0 L193.50531,-0 L193.74811,-0 L193.99089,-0 L194.23369,-0 L194.47649,-0 L194.71927,-0 L194.96207,-0 L195.20485,-0 L195.44765,-0 L195.69044,-0 L195.93323,-0 L196.17603,-0 L196.41882,-0 L196.6616,-0 L196.9044,-0 L197.14719,-0 L197.38998,-0 L197.63278,-0 L197.87556,-0 L198.11836,-0 L198.36116,-0 L198.60394,-0 L198.84674,-0 L199.08952,-0 L199.33232,-0 L199.57512,-0 L199.8179,-0 L200.0607,-0 L200.3035,-0 L200.54628,-0 L200.78908,-0 L201.03186,-0 L201.27466,-0 L201.51746,-0 L201.76024,-0 L202.00304,-0 L202.24583,-0 L202.48862,-0 L202.73141,-0 L202.9742,-0 L203.217,-0 L203.4598,-0 L203.70258,-0 L203.94537,-0 L204.18817,-0 L204.43095,-0 L204.67375,-0 L204.91653,-0 L205.15933,-0 L205.40213,-0 L205.64491,-0 L205.88771,-0 L206.1305,-0 L206.37329,-0 L206.61609,-0 L206.85887,-0 L207.10167,-0 L207.34447,-0 L207.58725,-0 L207.83005,-0 L208.07283,-0 L208.31563,-0 L208.55843,-0 L208.80121,-0 L209.044,-0 L209.2868,-0 L209.52959,-0 L209.77238,-0 L210.01517,-0 L210.25797,-0 L210.50076,-0 L210.74355,-0 L210.98634,-0 L211.22914,-0 L211.47192,-0 L211.71472,-0 L211.9575,-0 L212.2003,-0 L212.4431,-0 L212.68588,-0 L212.92868,-0 L213.17148,-0 L213.41426,-0 L213.65706,-0 L213.89984,-0 L214.14264,-0 L214.38544,-0 L214.62822,-0 L214.87102,-0 L215.11382,-0 L215.3566,-0 L215.5994,-0 L215.84218,-0 L216.08498,-0 L216.32777,-0 L216.57056,-0 L216.81335,-0 L217.05615,-0 L217.29893,-0 L217.54173,-0 L217.78452,-0 L218.02731,-0 L218.27011,-0 L218.5129,-0 L218.75569,-0 L218.99849,-0 L219.24127,-0 L219.48407,-0 L219.72685,-0 L219.96965,-0 L220.21245,-0 L220.45523,-0 L220.69803,-0 L220.94083,-0 L221.18361,-0 L221.4264,-0 L221.66919,-0 L221.91199,-0 L222.15479,-0 L222.39757,-0 L222.64037,-0 L222.88316,-0 L223.12595,-0 L223.36874,-0 L223.61153,-0 L223.85432,-0 L224.09712,-0 L224.3399,-0 L224.5827,-0 L224.8255,-0 L225.06828,-0 L225.31108,-0 L225.55386,-0 L225.79666,-0 L226.03946,-0 L226.28224,-0 L226.52504,-0 L226.76784,-0 L227.01062,-0 L227.25342,-0 L227.4962,-0 L227.739,-0 L227.9818,-0 L228.22458,-0 L228.46738,-0 L228.71016,-0 L228.95296,-0 L229.19576,-0 L229.43854,-0 L229.68134,-0 L229.92413,-0 L230.16692,-0 L230.40971,-0 L230.6525,-0 L230.8953,-0 L231.13809,-0 L231.38087,-0 L231.62367,-0 L231.86647,-0 L232.10925,-0 L232.35205,-0 L232.59483,-0 L232.83763,-0 L233.08043,-0 L233.32321,-0 L233.56601,-0 L233.8088,-0 L234.05159,-0 L234.29439,-0 L234.53717,-0 L234.77997,-0 L235.02277,-0 L235.26555,-0 L235.50835,-0 L235.75114,-0 L235.99393,-0 L236.23672,-0 L236.4795,-0 L236.7223,-0 L236.9651,-0 L237.20789,-0 L237.45068,-0 L237.69348,-0 L237.93626,-0 L238.17906,-0 L238.42184,-0 L238.66464,-0 L238.90744,-0 L239.15022,-0 L239.39302,-0 L239.63582,-0 L239.8786,-0 L240.1214,-0 L240.36418,-0 L240.60698,-0 L240.84978,-0 L241.09256,-0 L241.33536,-0 L241.57816,-0 L241.82094,-0 L242.06374,-0 L242.30652,-0 L242.54932,-0 L242.79211,-0 L243.0349,-0 L243.2777,-0 L243.5205,-0 L243.76328,-0 L244.00607,-0 L244.24886,-0 L244.49165,-0 L244.73445,-0 L244.97723,-0 L245.22003,-0 L245.46283,-0 L245.70561,-0 L245.94841,-0 L246.1912,-0 L246.43399,-0 L246.67679,-0 L246.91957,-0 L247.16237,-0 L247.40517,-0 L247.64795,-0 L247.89075,-0 L248.13353,-0 L248.37633,-0 L248.61913,-0 L248.86191,-0 L249.1047,-0 L249.3475,-0 L249.59029,-0 L249.83308,-0 L250.07587,-0 L250.31866,-0 L250.56146,-0 L250.80424,-0 L251.04704,-0 L251.28984,-0 L251.53262,-0 L251.77542,-0 L252.0182,-0 L252.261,-0 L252.5038,-0 L252.74658,-0 L252.98938,-0 L253.23216,-0 L253.47496,-0 L253.71776,-0 L253.96054,-0 L254.20334,-0 L254.44614,-0 L254.68892,-0 L254.93172,-0 L255.1745,-0 L255.4173,-0 L255.6601,-0 L255.90288,-0 L256.14566,-0 L256.38846,-0 L256.63126,-0 L256.87405,-0 L257.11685,-0 L257.35965,-0 L257.60242,-0 L257.8452,-0 L258.088,-0 L258.3308,-0 L258.5736,-0 L258.81638,-0 L259.05917,-0 L259.30197,-0 L259.54477,-0 L259.78757,-0 L260.03033,-0 L260.27313,-0 L260.51593,-0 L260.75873,-0 L261.00153,-0 L261.24432,-0 L261.4871,-0 L261.7299,-0 L261.9727,-0 L262.21548,-0 L262.45828,-0 L262.70105,-0 L262.94385,-0 L263.18665,-0 L263.42944,-0 L263.67224,-0 L263.915,-0 L264.1578,-0 L264.4006,-0 L264.6434,-0 L264.8862,-0 L265.129,-0 L265.37177,-0 L265.61456,-0 L265.85736,-0 L266.10016,-0 L266.34296,-0 L266.58572,-0 L266.82852,-0 L267.07132,-0 L267.31412,-0 L267.55692,-0 L267.79968,-0 L268.04248,-0 L268.28528,-0 L268.52808,-0 L268.77087,-0 L269.01367,-0 L269.25644,-0 L269.49924,-0 L269.74203,-0 L269.98483,-0 L270.22763,-0 L270.4704,-0 L270.7132,-0 L270.956,-0 L271.1988,-0 L271.4416,-0 L271.68436,-0 L271.92715,-0 L272.16995,-0 L272.41275,-0 L272.65555,-0 L272.89835,-0 L273.1411,-0 L273.3839,-0 L273.6267,-0 L273.8695,-0 L274.1123,-0 L274.35507,-0 L274.59787,-0 L274.84067,-0 L275.08347,-0 L275.32626,-0 L275.56903,-0 L275.81183,-0 L276.05463,-0 L276.29742,-0 L276.54022,-0 L276.783,-0 L277.0258,-0 L277.2686,-0 L277.51138,-0 L277.75418,-0 L277.99698,-0 L278.23975,-0 L278.48254,-0 L278.72534,-0 L278.96814,-0 L279.21094,-0 L279.4537,-0 L279.6965,-0 L279.9393,-0 L280.1821,-0 L280.4249,-0 L280.66766,-0 L280.91046,-0 L281.15326,-0 L281.39606,-0 L281.63885,-0 L281.88165,-0 L282.12442,-0 L282.36722,-0 L282.61002,-0 L282.8528,-0 L283.0956,-0 L283.33838,-0 L283.58118,-0 L283.82397,-0 L284.06677,-0 L284.30957,-0 L284.55234,-0 L284.79514,-0 L285.03793,-0 L285.28073,-0 L285.52353,-0 L285.76633,-0 L286.0091,-0 L286.2519,-0 L286.4947,-0 L286.7375,-0 L286.9803,-0 L287.22305,-0 L287.46585,-0 L287.70865,-0 L287.95145,-0 L288.19424,-0 L288.437,-0 L288.6798,-0 L288.9226,-0 L289.1654,-0 L289.4082,-0 L289.651,-0 L289.89377,-0 L290.13657,-0 L290.37936,-0 L290.62216,-0 L290.86496,-0 L291.10773,-0 L291.35052,-0 L291.59332,-0 L291.83612,-0 L292.07892,-0 L292.3217,-0 L292.56448,-0 L292.80728,-0 L293.05008,-0 L293.29288,-0 L293.53568,-0 L293.77844,-0 L294.02124,-0 L294.26404,-0 L294.50684,-0 L294.74963,-0 L294.9924,-0 L295.2352,-0 L295.478,-0 L295.7208,-0 L295.9636,-0 L296.20636,-0 L296.44916,-0 L296.69196,-0 L296.93475,-0 L297.17755,-0 L297.42032,-0 L297.66312,-0 L297.9059,-0 L298.1487,-0 L298.3915,-0 L298.6343,-0 L298.87708,-0 L299.11987,-0 L299.36267,-0 L299.60547,-0 L299.84827,-0 L300.09103,-0 L300.33383,-0 L300.57663,-0 L300.81943,-0 L301.06223,-0 L301.305,-0 L301.5478,-0 L301.7906,-0 L302.0334,-0 L302.27618,-0 L302.51898,-0 L302.76175,-0 L303.00455,-0 L303.24734,-0 L303.49014,-0 L303.73294,-0 L303.9757,-0 L304.2185,-0 L304.4613,-0 L304.7041,-0 L304.9469,-0 L305.18967,-0 L305.43246,-0 L305.67526,-0 L305.91806,-0 L306.16086,-0 L306.40366,-0 L306.64642,-0 L306.88922,-0 L307.13202,-0 L307.37482,-0 L307.6176,-0 L307.86038,-0 L308.10318,-0 L308.34598,-0 L308.58878,-0 L308.83157,-0 L309.07434,-0 L309.31714,-0 L309.55994,-0 L309.80273,-0 L310.04553,-0 L310.28833,-0 L310.5311,-0 L310.7739,-0 L311.0167,-0 L311.2595,-0 L311.5023,-0 L311.74506,-0 L311.98785,-0 L312.23065,-0 L312.47345,-0 L312.71625,-0 L312.959,-0 L313.2018,-0 L313.4446,-0 L313.6874,-0 L313.9302,-0 L314.173,-0 L314.41577,-0 L314.65857,-0 L314.90137,-0 L315.14417,-0 L315.38696,-0 L315.62973,-0 L315.87253,-0 L316.11533,-0 L316.35812,-0 L316.60092,-0 L316.8437,-0 L317.0865,-0 L317.32928,-0 L317.57208,-0 L317.81488,-0 L318.05768,-0 L318.30045,-0 L318.54324,-0 L318.78604,-0 L319.02884,-0 L319.27164,-0 L319.5144,-0 L319.7572,-0 L320,-0 L320.2428,-0 L320.4856,-0 L320.72836,-0 L320.97116,-0 L321.21396,-0 L321.45676,-0 L321.69955,-0 L321.94232,-0 L322.18512,-0 L322.42792,-0 L322.67072,-0 L322.9135,-0 L323.1563,-0 L323.39908,-0 L323.64188,-0 L323.88467,-0 L324.12747,-0 L324.37027,-0 L324.61304,-0 L324.85583,-0 L325.09863,-0 L325.34143,-0 L325.58423,-0 L325.827,-0 L326.0698,-0 L326.3126,-0 L326.5554,-0 L326.7982,-0 L327.041,-0 L327.28375,-0 L327.52655,-0 L327.76935,-0 L328.01215,-0 L328.25494,-0 L328.4977,-0 L328.7405,-0 L328.9833,-0 L329.2261,-0 L329.4689,-0 L329.71167,-0 L329.95447,-0 L330.19727,-0 L330.44006,-0 L330.68286,-0 L330.92566,-0 L331.16843,-0 L331.41122,-0 L331.65402,-0 L331.89682,-0 L332.13962,-0 L332.3824,-0 L332.62518,-0 L332.86798,-0 L333.11078,-0 L333.35358,-0 L333.59634,-0 L333.83914,-0 L334.08194,-0 L334.32474,-0 L334.56754,-0 L334.81033,-0 L335.0531,-0 L335.2959,-0 L335.5387,-0 L335.7815,-0 L336.0243,-0 L336.26706,-0 L336.50986,-0 L336.75266,-0 L336.99545,-0 L337.23825,-0 L337.48102,-0 L337.72382,-0 L337.9666,-0 L338.2094,-0 L338.4522,-0 L338.695,-0 L338.93777,-0 L339.18057,-0 L339.42337,-0 L339.66617,-0 L339.90897,-0 L340.15173,-0 L340.39453,-0 L340.63733,-0 L340.88013,-0 L341.12292,-0 L341.3657,-0 L341.6085,-0 L341.8513,-0 L342.0941,-0 L342.33688,-0 L342.57968,-0 L342.82245,-0 L343.06525,-0 L343.30804,-0 L343.55084,-0 L343.79364,-0 L344.0364,-0 L344.2792,-0 L344.522,-0 L344.7648,-0 L345.0076,-0 L345.25037,-0 L345.49316,-0 L345.73596,-0 L345.97876,-0 L346.22156,-0 L346.46432,-0 L346.70712,-0 L346.94992,-0 L347.19272,-0 L347.43552,-0 L347.6783,-0 L347.92108,-0 L348.16388,-0 L348.40668,-0 L348.64948,-0 L348.89227,-0 L349.13504,-0 L349.37784,-0 L349.62064,-0 L349.86343,-0 L350.10623,-0 L350.349,-0 L350.5918,-0 L350.8346,-0 L351.0774,-0 L351.3202,-0 L351.563,-0 L351.80576,-0 L352.04855,-0 L352.29135,-0 L352.53415,-0 L352.77695,-0 L353.0197,-0 L353.2625,-0 L353.5053,-0 L353.7481,-0 L353.9909,-0 L354.23367,-0 L354.47647,-0 L354.71927,-0 L354.96207,-0 L355.20486,-0 L355.44766,-0 L355.69043,-0 L355.93323,-0 L356.17603,-0 L356.41882,-0 L356.66162,-0 L356.9044,-0 L357.1472,-0 L357.38998,-0 L357.63278,-0 L357.87558,-0 L358.11835,-0 L358.36115,-0 L358.60394,-0 L358.84674,-0 L359.08954,-0 L359.33234,-0 L359.5751,-0 L359.8179,-0 L360.0607,-0 L360.3035,-0 L360.5463,-0 L360.78906,-0 L361.03186,-0 L361.27466,-0 L361.51746,-0 L361.76025,-0 L362.00302,-0 L362.24582,-0 L362.48862,-0 L362.7314,-0 L362.9742,-0 L363.217,-0 L363.45978,-0 L363.70258,-0 L363.94537,-0 L364.18817,-0 L364.43097,-0 L364.67374,-0 L364.91653,-0 L365.15933,-0 L365.40213,-0 L365.64493,-0 L365.8877,-0 L366.1305,-0 L366.3733,-0 L366.6161,-0 L366.8589,-0 L367.10165,-0 L367.34445,-0 L367.58725,-0 L367.83005,-0 L368.07285,-0 L368.31564,-0 L368.5584,-0 L368.8012,-0 L369.044,-0 L369.2868,-0 L369.5296,-0 L369.77237,-0 L370.01517,-0 L370.25797,-0 L370.50076,-0 L370.74356,-0 L370.98633,-0 L371.22913,-0 L371.47192,-0 L371.71472,-0 L371.95752,-0 L372.20032,-0 L372.44308,-0 L372.68588,-0 L372.92868,-0 L373.17148,-0 L373.41428,-0 L373.65704,-0 L373.89984,-0 L374.14264,-0 L374.38544,-0 L374.62823,-0 L374.871,-0 L375.1138,-0 L375.3566,-0 L375.5994,-0 L375.8422,-0 L376.085,-0 L376.32776,-0 L376.57056,-0 L376.81335,-0 L377.05615,-0 L377.29895,-0 L377.54172,-0 L377.78452,-0 L378.0273,-0 L378.2701,-0 L378.5129,-0 L378.75568,-0 L378.99847,-0 L379.24127,-0 L379.48407,-0 L379.72687,-0 L379.96967,-0 L380.21243,-0 L380.45523,-0 L380.69803,-0 L380.94083,-0 L381.18362,-0 L381.4264,-0 L381.6692,-0 L381.912,-0 L382.1548,-0 L382.39758,-0 L382.64035,-0 L382.88315,-0 L383.12595,-0 L383.36874,-0 L383.61154,-0 L383.85434,-0 L384.0971,-0 L384.3399,-0 L384.5827,-0 L384.8255,-0 L385.0683,-0 L385.31107,-0 L385.55386,-0 L385.79666,-0 L386.03946,-0 L386.28226,-0 L386.52502,-0 L386.76782,-0 L387.01062,-0 L387.25342,-0 L387.49622,-0 L387.739,-0 L387.98178,-0 L388.22458,-0 L388.46738,-0 L388.71017,-0 L388.95297,-0 L389.19574,-0 L389.43854,-0 L389.68134,-0 L389.92413,-0 L390.16693,-0 L390.4097,-0 L390.6525,-0 L390.8953,-0 L391.1381,-0 L391.3809,-0 L391.62366,-0 L391.86646,-0 L392.10925,-0 L392.35205,-0 L392.59485,-0 L392.83765,-0 L393.0804,-0 L393.3232,-0 L393.566,-0 L393.8088,-0 L394.0516,-0 L394.29437,-0 L394.53717,-0 L394.77997,-0 L395.02277,-0 L395.26556,-0 L395.50833,-0 L395.75113,-0 L395.99393,-0 L396.23672,-0 L396.47952,-0 L396.72232,-0 L396.9651,-0 L397.2079,-0 L397.45068,-0 L397.69348,-0 L397.93628,-0 L398.17905,-0 L398.42184,-0 L398.66464,-0 L398.90744,-0 L399.15024,-0 L399.393,-0 L399.6358,-0 L399.8786,-0 L400.1214,-0 L400.3642,-0 L400.607,-0 L400.84976,-0 L401.09256,-0 L401.33536,-0 L401.57816,-0 L401.82095,-0 L402.06372,-0 L402.30652,-0 L402.54932,-0 L402.7921,-0 L403.0349,-0 L403.27768,-0 L403.52048,-0 L403.76328,-0 L404.00607,-0 L404.24887,-0 L404.49167,-0 L404.73444,-0 L404.97723,-0 L405.22003,-0 L405.46283,-0 L405.70563,-0 L405.9484,-0 L406.1912,-0 L406.434,-0 L406.6768,-0 L406.9196,-0 L407.16235,-0 L407.40515,-0 L407.64795,-0 L407.89075,-0 L408.13354,-0 L408.37634,-0 L408.6191,-0 L408.8619,-0 L409.1047,-0 L409.3475,-0 L409.5903,-0 L409.83307,-0 L410.07587,-0 L410.31866,-0 L410.56146,-0 L410.80426,-0 L411.04703,-0 L411.28983,-0 L411.53262,-0 L411.77542,-0 L412.01822,-0 L412.261,-0 L412.50378,-0 L412.74658,-0 L412.98938,-0 L413.23218,-0 L413.47498,-0 L413.71774,-0 L413.96054,-0 L414.20334,-0 L414.44614,-0 L414.68893,-0 L414.9317,-0 L415.1745,-0 L415.4173,-0 L415.6601,-0 L415.9029,-0 L416.14566,-0 L416.38846,-0 L416.63126,-0 L416.87405,-0 L417.11685,-0 L417.35965,-0 L417.60242,-0 L417.8452,-0 L418.088,-0 L418.3308,-0 L418.5736,-0 L418.81638,-0 L419.05917,-0 L419.30197,-0 L419.54477,-0 L419.78757,-0 L420.03033,-0 L420.27313,-0 L420.51593,-0 L420.75873,-0 L421.00153,-0 L421.24432,-0 L421.4871,-0 L421.7299,-0 L421.9727,-0 L422.21548,-0 L422.45828,-0 L422.70105,-0 L422.94385,-0 L423.18665,-0 L423.42944,-0 L423.67224,-0 L423.915,-0 L424.1578,-0 L424.4006,-0 L424.6434,-0 L424.8862,-0 L425.129,-0 L425.37177,-0 L425.61456,-0 L425.85736,-0 L426.10016,-0 L426.34296,-0 L426.58572,-0 L426.82852,-0 L427.07132,-0 L427.31412,-0 L427.55692,-0 L427.79968,-0 L428.04248,-0 L428.28528,-0 L428.52808,-0 L428.77087,-0 L429.01367,-0 L429.25644,-0 L429.49924,-0 L429.74203,-0 L429.98483,-0 L430.22763,-0 L430.4704,-0 L430.7132,-0 L430.956,-0 L431.1988,-0 L431.4416,-0 L431.68436,-0 L431.92715,-0 L432.16995,-0 L432.41275,-0 L432.65555,-0 L432.89835,-0 L433.1411,-0 L433.3839,-0 L433.6267,-0 L433.8695,-0 L434.1123,-0 L434.35507,-0 L434.59787,-0 L434.84067,-0 L435.08347,-0 L435.32626,-0 L435.56903,-0 L435.81183,-0 L436.05463,-0 L436.29742,-0 L436.54022,-0 L436.783,-0 L437.0258,-0 L437.2686,-0 L437.51138,-0 L437.75418,-0 L437.99698,-0 L438.23975,-0 L438.48254,-0 L438.72534,-0 L438.96814,-0 L439.21094,-0 L439.4537,-0 L439.6965,-0 L439.9393,-0 L440.1821,-0 L440.4249,-0 L440.66766,-0 L440.91046,-0 L441.15326,-0 L441.39606,-0 L441.63885,-0 L441.88165,-0 L442.12442,-0 L442.36722,-0 L442.61002,-0 L442.8528,-0 L443.0956,-0 L443.33838,-0 L443.58118,-0 L443.82397,-0 L444.06677,-0 L444.30957,-0 L444.55234,-0 L444.79514,-0 L445.03793,-0 L445.28073,-0 L445.52353,-0 L445.76633,-0 L446.0091,-0 L446.2519,-0 L446.4947,-0 L446.7375,-0 L446.9803,-0 L447.22305,-0 L447.46585,-0 L447.70865,-0 L447.95145,-0 L448.19424,-0 L448.437,-0 L448.6798,-0 L448.9226,-0 L449.1654,-0 L449.4082,-0 L449.651,-0 L449.89377,-0 L450.13657,-0 L450.37936,-0 L450.62216,-0 L450.86496,-0 L451.10773,-0 L451.35052,-0 L451.59332,-0 L451.83612,-0 L452.07892,-0 L452.3217,-0 L452.56448,-0 L452.80728,-0 L453.05008,-0 L453.29288,-0 L453.53568,-0 L453.77844,-0 L454.02124,-0 L454.26404,-0 L454.50684,-0 L454.74963,-0 L454.9924,-0 L455.2352,-0 L455.478,-0 L455.7208,-0 L455.9636,-0 L456.20636,-0 L456.44916,-0 L456.69196,-0 L456.93475,-0 L457.17755,-0 L457.42032,-0 L457.66312,-0 L457.9059,-0 L458.1487,-0 L458.3915,-0 L458.6343,-0 L458.87708,-0 L459.11987,-0 L459.36267,-0 L459.60547,-0 L459.84827,-0 L460.09103,-0 L460.33383,-0 L460.57663,-0 L460.81943,-0 L461.06223,-0 L461.305,-0 L461.5478,-0 L461.7906,-0 L462.0334,-0 L462.27618,-0 L462.51898,-0 L462.76175,-0 L463.00455,-0 L463.24734,-0 L463.49014,-0 L463.73294,-0 L463.9757,-0 L464.2185,-0 L464.4613,-0 L464.7041,-0 L464.9469,-0 L465.18967,-0 L465.43246,-0 L465.67526,-0 L465.91806,-0 L466.16086,-0 L466.40366,-0 L466.64642,-0 L466.88922,-0 L467.13202,-0 L467.37482,-0 L467.6176,-0 L467.86038,-0 L468.10318,-0 L468.34598,-0 L468.58878,-0 L468.83157,-0 L469.07434,-0 L469.31714,-0 L469.55994,-0 L469.80273,-0 L470.04553,-0 L470.28833,-0 L470.5311,-0 L470.7739,-0 L471.0167,-0 L471.2595,-0 L471.5023,-0 L471.74506,-0 L471.98785,-0 L472.23065,-0 L472.47345,-0 L472.71625,-0 L472.959,-0 L473.2018,-0 L473.4446,-0 L473.6874,-0 L473.9302,-0 L474.173,-0 L474.41577,-0 L474.65857,-0 L474.90137,-0 L475.14417,-0 L475.38696,-0 L475.62973,-0 L475.87253,-0 L476.11533,-0 L476.35812,-0 L476.60092,-0 L476.8437,-0 L477.0865,-0 L477.32928,-0 L477.57208,-0 L477.81488,-0 L478.05768,-0 L478.30045,-0 L478.54324,-0 L478.78604,-0 L479.02884,-0 L479.27164,-0 L479.5144,-0 L479.7572,-0 L480,-0" fill="none" stroke="black" stroke-linejoin="round" stroke-width="2"/>
</g>
</g>
<g>
<g>
<line stroke="black" stroke-width="1" x1="0" x2="0" y1="0" y2="10"/>
<line stroke="black" stroke-width="1" x1="97.11684370257967" x2="97.11684370257967" y1="0" y2="10"/>
<line stroke="black" stroke-width="1" x1="194.23368740515934" x2="194.23368740515934" y1="0" y2="10"/>
<line stroke="black" stroke-width="1" x1="291.350531107739" x2="291.350531107739" y1="0" y2="10"/>
<line stroke="black" stroke-width="1" x1="388.4673748103187" x2="388.4673748103187" y1="0" y2="10"/>
</g>
<line stroke="black" stroke-width="1" x1="0" x2="480" y1="0" y2="0"/>
<g>
<text font-size="12" text-anchor="middle" x="0" y="20">
0
</text>
<text font-size="12" text-anchor="middle" x="97.11684370257967" y="20">
400
</text>
<text font-size="12" text-anchor="middle" x="194.23368740515934" y="20">
800
</text>
<text font-size="12" text-anchor="middle" x="291.350531107739" y="20">
1200
</text>
<text font-size="12" text-anchor="middle" x="388.4673748103187" y="20">
1600
</text>
</g>
<text font-size="12" text-anchor="middle" x="240" y="30">

</text>
</g>
<g>
<g>
<line stroke="black" stroke-width="1" x1="0" x2="-10" y1="-33.99999999999984" y2="-33.99999999999984"/>
<line stroke="black" stroke-width="1" x1="0" x2="-10" y1="-101.99999999999987" y2="-101.99999999999987"/>
<line stroke="black" stroke-width="1" x1="0" x2="-10" y1="-169.99999999999991" y2="-169.99999999999991"/>
<line stroke="black" stroke-width="1" x1="0" x2="-10" y1="-237.99999999999994" y2="-237.99999999999994"/>
<line stroke="black" stroke-width="1" x1="0" x2="-10" y1="-305.99999999999994" y2="-305.99999999999994"/>
</g>
<line stroke="black" stroke-width="1" x1="0" x2="0" y1="0" y2="-340"/>
<g>
<text dominant-baseline="middle" font-size="12" text-anchor="end" x="-15" y="-33.99999999999984">
-0.8
</text>
<text dominant-baseline="middle" font-size="12" text-anchor="end" x="-15" y="-101.99999999999987">
-0.4
</text>
<text dominant-baseline="middle" font-size="12" text-anchor="end" x="-15" y="-169.99999999999991">
0
</text>
<text dominant-baseline="middle" font-size="12" text-anchor="end" x="-15" y="-237.99999999999994">
0.4
</text>
<text dominant-baseline="middle" font-size="12" text-anchor="end" x="-15" y="-305.99999999999994">
0.8
</text>
</g>
<text font-size="12" text-anchor="middle" transform="rotate(-90 -48 -170)" x="-48" y="-182">

</text>
</g>
</g>
</svg>