<svg viewBox="0 0 600 400" xmlns="http://www.w3.org/2000/svg">
<g transform="translate(72, 364)">
<g>
<g>
<path d="M0,-116.24083 L0,-116.24083 L1.0835215,-121.4045 L2.167043,-74.41508 L3.2505643,-83.76133 L4.334086,-92.17295 L5.4176073,-99.74341 L6.5011287,-54.920094 L7.58465,-14.579109 L8.668172,-29.908955 L9.751693,-43.705814 L10.835215,-56.12299 L11.9187355,-67.29845 L13.002257,-77.35636 L14.085779,-34.771748 L15.1693,-48.08233 L16.252821,-8.42512 L17.336344,-24.370365 L18.419865,-38.721085 L19.503386,-0 L20.586908,-16.787756 L21.67043,-31.896736 L22.75395,-45.49482 L23.837471,-6.0963616 L24.920994,-22.274483 L26.004515,-54.047035 L27.088036,-65.430084 L28.171558,-75.674835 L29.25508,-33.258373 L30.3386,-46.720295 L31.422121,-7.199289 L32.505642,-23.267117 L33.589165,-37.72816 L34.672688,-50.7431 L35.756207,-79.66879 L36.83973,-105.70191 L37.923252,-60.282745 L39.00677,-71.04223 L40.090294,-80.72576 L41.173817,-37.804207 L42.257336,-50.811543 L43.34086,-62.518147 L44.424377,-73.054085 L45.5079,-82.53644 L46.591423,-91.07055 L47.674942,-47.114517 L48.758465,-59.190823 L49.841988,-70.059494 L50.925507,-97.05354 L52.00903,-121.34819 L53.092552,-126.00113 L54.17607,-147.40102 L55.259594,-166.66092 L56.343117,-183.99483 L57.426636,-182.3831 L58.51016,-129.2958 L59.59368,-133.15399 L60.6772,-136.62634 L61.760723,-139.75146 L62.844242,-142.56407 L63.927765,-162.30766 L65.011284,-180.0769 L66.09481,-178.85696 L67.17833,-177.75903 L68.26185,-125.13415 L69.345375,-129.4085 L70.428894,-150.46764 L71.51241,-169.42088 L72.59594,-186.47879 L73.67946,-201.83092 L74.76298,-215.64783 L75.846504,-228.08304 L76.93002,-239.27473 L78.01354,-249.34726 L79.09707,-258.41254 L80.18059,-266.5713 L81.26411,-273.91415 L82.34763,-280.52274 L83.43115,-286.47046 L84.51467,-291.82343 L85.5982,-296.64108 L86.68172,-300.97696 L87.765236,-304.87927 L88.848755,-308.39136 L89.93228,-311.55222 L91.0158,-314.397 L92.09932,-316.9573 L93.182846,-319.26157 L94.266365,-321.33542 L95.349884,-323.20187 L96.43341,-324.88168 L97.51693,-326.39352 L98.60045,-327.75415 L99.683975,-328.97876 L100.767494,-330.08087 L101.85101,-331.07278 L102.93454,-331.9655 L104.01806,-332.76895 L105.10158,-333.49207 L106.185104,-334.14285 L107.26862,-334.72858 L108.35214,-335.2557 L109.43567,-335.73013 L110.51919,-336.15714 L111.60271,-336.5414 L112.68623,-336.88727 L113.76975,-337.19855 L114.85327,-337.4787 L115.9368,-337.73083 L117.02032,-337.95773 L118.103836,-338.16196 L119.18736,-338.34576 L120.27088,-338.5112 L121.3544,-338.66006 L122.43792,-338.79407 L123.52145,-338.91467 L124.604965,-339.0232 L125.688484,-339.12088 L126.77201,-339.2088 L127.85553,-339.2879 L128.93906,-339.35913 L130.02257,-339.42322 L131.1061,-339.4809 L132.18962,-339.5328 L133.27313,-339.57953 L134.35666,-339.62158 L135.44019,-339.65942 L136.5237,-339.69348 L137.60722,-339.72412 L138.69075,-339.7517 L139.77426,-339.77655 L140.85779,-339.7989 L141.94131,-339.819 L143.02483,-339.8371 L144.10835,-339.8534 L145.19188,-339.86804 L146.27539,-339.88126 L147.35892,-339.89313 L148.44244,-339.9038 L149.52596,-339.91342 L150.60948,-339.9221 L151.69301,-339.92987 L152.77652,-339.9369 L153.86005,-339.9432 L154.94357,-339.94888 L156.02708,-339.95398 L157.11061,-339.9586 L158.19414,-339.96274 L159.27765,-339.96646 L160.36118,-339.96982 L161.4447,-339.97284 L162.52821,-339.97556 L163.61174,-339.978 L164.69527,-339.9802 L165.77878,-339.98218 L166.8623,-339.98395 L167.94583,-339.98557 L169.02934,-339.987 L170.11287,-339.9883 L171.1964,-339.98947 L172.2799,-339.99054 L173.36343,-339.9915 L174.44695,-339.99234 L175.53047,-339.9931 L176.614,-339.99377 L177.69751,-339.99442 L178.78104,-339.99496 L179.86456,-339.99548 L180.94807,-339.9959 L182.0316,-339.99634 L183.11513,-339.9967 L184.19864,-339.99704 L185.28217,-339.9973 L186.36569,-339.9976 L187.4492,-339.99783 L188.53273,-339.99805 L189.61626,-339.99826 L190.69977,-339.9984 L191.7833,-339.99857 L192.86682,-339.99872 L193.95033,-339.99884 L195.03386,-339.99896 L196.11739,-339.99908 L197.2009,-339.99918 L198.28442,-339.99924 L199.36795,-339.99933 L200.45146,-339.9994 L201.53499,-339.99945 L202.61852,-339.9995 L203.70203,-339.99954 L204.78555,-339.9996 L205.86908,-339.99963 L206.95259,-339.99966 L208.03612,-339.9997 L209.11964,-339.99973 L210.20316,-339.99976 L211.28668,-339.9998 L212.37021,-339.99982 L213.45372,-339.99982 L214.53725,-339.99985 L215.62077,-339.99985 L216.70428,-339.99988 L217.78781,-339.99988 L218.87134,-339.9999 L219.95485,-339.9999 L221.03838,-339.9999 L222.1219,-339.99994 L223.20541,-339.99994 L224.28894,-339.99994 L225.37247,-339.99994 L226.45598,-322.78772 L227.5395,-255.65996 L228.62303,-246.88173 L229.70654,-256.19354 L230.79007,-264.5742 L231.8736,-272.1168 L232.9571,-278.9051 L234.04063,-285.0146 L235.12416,-290.51312 L236.20767,-295.46182 L237.2912,-299.91565 L238.37473,-303.92407 L239.45824,-307.53168 L240.54176,-310.7785 L241.62527,-313.70065 L242.7088,-316.3306 L243.79233,-318.69754 L244.87584,-320.8278 L245.95937,-322.745 L247.0429,-324.4705 L248.1264,-326.02344 L249.20993,-327.4211 L250.29346,-328.679 L251.37697,-329.8111 L252.4605,-330.83 L253.54402,-331.74698 L254.62753,-332.5723 L255.71106,-333.31506 L256.7946,-333.98355 L257.8781,-334.5852 L258.96164,-335.12668 L260.04514,-335.614 L261.12866,-336.0526 L262.2122,-336.44736 L263.29572,-336.8026 L264.37924,-337.12234 L265.46277,-268.56116 L266.54626,-258.4928 L267.6298,-266.6435 L268.71332,-273.97916 L269.79684,-280.58124 L270.88037,-286.5231 L271.9639,-291.87082 L273.0474,-296.68372 L274.13092,-232.16638 L275.21445,-242.94974 L276.29797,-252.65477 L277.3815,-261.38928 L278.465,-269.25037 L279.54852,-276.32532 L280.63205,-282.69278 L281.71558,-288.42352 L282.7991,-276.36893 L283.88263,-282.73203 L284.96613,-288.45883 L286.04965,-293.61295 L287.13318,-298.25165 L288.2167,-302.42648 L289.30023,-306.18384 L290.38376,-292.3532 L291.46725,-297.1179 L292.55078,-232.55713 L293.6343,-226.08917 L294.71783,-237.48026 L295.80136,-230.51999 L296.8849,-224.25574 L297.96838,-235.83017 L299.0519,-246.24715 L300.13544,-255.62244 L301.21896,-264.06018 L302.3025,-271.65417 L303.38602,-278.48877 L304.4695,-284.6399 L305.55304,-290.1759 L306.63657,-295.1583 L307.7201,-299.6425 L308.80362,-303.67822 L309.88715,-307.3104 L310.97064,-310.57938 L312.05417,-313.52142 L313.1377,-316.16928 L314.22122,-318.55237 L315.30475,-320.6971 L316.38828,-322.6274 L317.47177,-324.36465 L318.5553,-325.9282 L319.63882,-327.3354 L320.72235,-328.60184 L321.80588,-329.74167 L322.8894,-330.7675 L323.9729,-331.69073 L325.05643,-332.52167 L326.13995,-333.2695 L327.22348,-333.94257 L328.307,-334.5483 L329.39053,-335.09348 L330.47403,-335.58414 L331.55756,-336.0257 L332.64108,-336.42313 L333.7246,-336.78082 L334.80814,-337.10275 L335.89166,-337.39246 L336.97516,-337.65323 L338.0587,-337.8879 L339.1422,-338.09912 L340.22574,-338.28918 L341.30927,-338.46027 L342.3928,-338.61426 L343.4763,-338.75284 L344.5598,-338.87753 L345.64334,-338.98978 L346.72687,-339.09082 L347.8104,-339.18173 L348.8939,-339.26355 L349.97742,-339.3372 L351.06094,-339.40347 L352.14447,-339.46313 L353.228,-339.5168 L354.31152,-339.56512 L355.39502,-339.6086 L356.47855,-339.64777 L357.56207,-339.68298 L358.6456,-339.7147 L359.72913,-339.74323 L360.81265,-339.7689 L361.89615,-339.79202 L362.97968,-339.8128 L364.0632,-339.8315 L365.14673,-339.8484 L366.23026,-339.86353 L367.31378,-339.8772 L368.39728,-339.88947 L369.4808,-339.9005 L370.56433,-339.91046 L371.64786,-339.91943 L372.73138,-339.9275 L373.8149,-339.93472 L374.8984,-339.94125 L375.98193,-339.94714 L377.06546,-339.95242 L378.149,-339.95718 L379.2325,-339.96146 L380.31604,-339.9653 L381.39954,-339.96878 L382.48306,-339.9719 L383.5666,-339.9747 L384.65012,-339.97723 L385.73364,-339.97952 L386.81717,-339.98157 L387.90067,-339.9834 L388.9842,-339.98508 L390.06772,-339.98657 L391.15125,-339.9879 L392.23477,-339.9891 L393.3183,-339.9902 L394.4018,-339.99118 L395.48532,-339.99207 L396.56885,-339.99286 L397.65237,-339.99356 L398.7359,-339.99423 L399.81943,-339.99478 L400.90292,-339.99533 L401.98645,-339.9958 L403.06998,-339.99622 L404.1535,-339.99658 L405.23703,-339.99692 L406.32056,-339.99722 L407.40405,-339.9975 L408.48758,-339.99777 L409.5711,-339.998 L410.65463,-339.9982 L411.73816,-339.99838 L412.82166,-339.99854 L413.90518,-339.9987 L414.9887,-339.9988 L416.07224,-339.99893 L417.15576,-339.99902 L418.2393,-339.99915 L419.32278,-339.9992 L420.4063,-339.9993 L421.48984,-339.99936 L422.57336,-339.99942 L423.6569,-339.99948 L424.74042,-339.99954 L425.8239,-339.99957 L426.90744,-339.99963 L427.99097,-339.99966 L429.0745,-339.9997 L430.15802,-339.99973 L431.24155,-339.99976 L432.32504,-339.9998 L433.40857,-339.99982 L434.4921,-339.99982 L435.57562,-339.99985 L436.65915,-339.99985 L437.74268,-339.99988 L438.82617,-339.99988 L439.9097,-339.9999 L440.99323,-339.9999 L442.07675,-339.9999 L443.16028,-339.99994 L444.2438,-339.99994 L445.3273,-339.99994 L446.41083,-339.99994 L447.49435,-339.99994 L448.57788,-339.99997 L449.6614,-339.99997 L450.74493,-339.99997 L451.82843,-339.99997 L452.91196,-339.99997 L453.99548,-339.99997 L455.079,-339.99997 L456.16254,-339.99997 L457.24606,-339.99997 L458.32956,-339.99997 L459.4131,-340 L460.4966,-340 L461.58014,-340 L462.66367,-340 L463.7472,-340 L464.8307,-340 L465.9142,-340 L466.99774,-340 L468.08127,-340 L469.1648,-340 L470.24832,-340 L471.33182,-340 L472.41534,-340 L473.49887,-340 L474.5824,-340 L475.66592,-340 L476.74945,-340 L477.83295,-340 L478.91647,-340 L480,-340" fill="none" stroke="black" stroke-linejoin="round" stroke-width="2"/>
</g>
</g>
<g>
<g>
<line stroke="black" stroke-width="1" x1="0" x2="0" y1="0" y2="10"/>
<line stroke="black" stroke-width="1" x1="108.35214446952595" x2="108.35214446952595" y1="0" y2="10"/>
<line stroke="black" stroke-width="1" x1="216.7042889390519" x2="216.7042889390519" y1="0" y2="10"/>
<line stroke="black" stroke-width="1" x1="325.0564334085779" x2="325.0564334085779" y1="0" y2="10"/>
<line stroke="black" stroke-width="1" x1="433.4085778781038" x2="433.4085778781038" y1="0" y2="10"/>
</g>
<line stroke="black" stroke-width="1" x1="0" x2="480" y1="0" y2="0"/>
<g>
<text font-size="12" text-anchor="middle" x="0" y="20">
0
</text>
<text font-size="12" text-anchor="middle" x="108.35214446952595" y="20">
100
</text>
<text font-size="12" text-anchor="middle" x="216.7042889390519" y="20">
200
</text>
<text font-size="12" text-anchor="middle" x="325.0564334085779" y="20">
300
</text>
<text font-size="12" text-anchor="middle" x="433.4085778781038" y="20">
400
</text>
</g>
<text font-size="12" text-anchor="middle" x="240" y="30">

</text>
</g>
<g>
<g>
<line stroke="black" stroke-width="1" x1="0" x2="-10" y1="-30.179610546073164" y2="-30.179610546073164"/>
<line stroke="black" stroke-width="1" x1="0" x2="-10" y1="-99.02858645591111" y2="-99.02858645591111"/>
<line stroke="black" stroke-width="1" x1="0" x2="-10" y1="-167.87756236574907" y2="-167.87756236574907"/>
<line stroke="black" stroke-width="1" x1="0" x2="-10" y1="-236.726538275587" y2="-236.726538275587"/>
<line stroke="black" stroke-width="1" x1="0" x2="-10" y1="-305.575514185425" y2="-305.575514185425"/>
</g>
<line stroke="black" stroke-width="1" x1="0" x2="0" y1="0" y2="-340"/>
<g>
<text dominant-baseline="middle" font-size="12" text-anchor="end" x="-15" y="-30.179610546073164">
-0.8
</text>
<text dominant-baseline="middle" font-size="12" text-anchor="end" x="-15" y="-99.02858645591111">
-0.4
</text>
<text dominant-baseline="middle" font-size="12" text-anchor="end" x="-15" y="-167.87756236574907">
0
</text>
<text dominant-baseline="middle" font-size="12" text-anchor="end" x="-15" y="-236.726538275587">
0.4
</text>
<text dominant-baseline="middle" font-size="12" text-anchor="end" x="-15" y="-305.575514185425">
0.8
</text>
</g>
<text font-size="12" text-anchor="middle" transform="rotate(-90 -48 -170)" x="-48" y="-182">

</text>
</g>
</g>
</svg>