<svg viewBox="0 0 600 400" xmlns="http://www.w3.org/2000/svg">
<g transform="translate(72, 364)">
<g>
<g>
<path d="M0,-2.7345846 L0,-2.7345846 L1.0105263,-0 L2.0210526,-24.884718 L3.031579,-47.280964 L4.042105,-40.091743 L5.0526314,-33.62144 L6.063158,-64.2593 L7.073684,-91.83337 L8.08421,-107.53475 L9.094737,-130.78128 L10.105263,-151.70314 L11.115789,-134.0717 L12.126316,-154.66454 L13.136842,-173.19809 L14.147368,-189.87828 L15.157895,-204.89044 L16.16842,-218.4014 L17.178947,-230.56126 L18.189474,-241.50514 L19.2,-251.35463 L20.210526,-260.21915 L21.221052,-268.19724 L22.231579,-275.37753 L23.242105,-281.83978 L24.252632,-287.6558 L25.263159,-292.8902 L26.273684,-297.6012 L27.28421,-301.84106 L28.294737,-305.65695 L29.305264,-309.09128 L30.31579,-312.18213 L31.326315,-314.96393 L32.33684,-317.46753 L33.34737,-319.7208 L34.357895,-321.74872 L35.36842,-323.57382 L36.37895,-325.21646 L37.389473,-326.6948 L38.4,-328.02533 L39.410526,-329.22278 L40.42105,-330.3005 L41.43158,-331.27045 L42.442104,-332.1434 L43.452633,-332.92908 L44.463158,-333.63617 L45.473682,-334.27255 L46.48421,-334.8453 L47.494736,-335.36078 L48.505264,-335.82468 L49.51579,-336.24222 L50.526318,-336.618 L51.536842,-336.9562 L52.547367,-337.2606 L53.557896,-337.53452 L54.56842,-337.78107 L55.57895,-338.00296 L56.589474,-338.20267 L57.6,-338.3824 L58.610527,-338.54416 L59.62105,-338.68976 L60.63158,-338.82077 L61.642105,-338.9387 L62.65263,-339.04483 L63.66316,-339.14035 L64.67368,-339.22632 L65.68421,-339.30368 L66.69474,-339.37332 L67.70526,-339.43597 L68.71579,-339.49237 L69.72632,-339.54315 L70.73684,-339.58884 L71.74737,-339.62994 L72.7579,-339.66696 L73.76842,-339.70026 L74.778946,-339.73022 L75.789474,-339.7572 L76.8,-339.7815 L77.810524,-339.80334 L78.82105,-339.823 L79.83158,-339.8407 L80.8421,-339.85663 L81.85263,-339.87097 L82.86316,-339.88388 L83.87369,-339.89548 L84.88421,-303.44482 L85.89474,-297.98505 L86.905266,-302.18655 L87.91579,-305.9679 L88.926315,-309.3711 L89.936844,-312.434 L90.947365,-315.19058 L91.95789,-317.67154 L92.96842,-319.9044 L93.97895,-321.91394 L94.98947,-323.72253 L96,-325.35028 L97.01053,-326.81528 L98.02105,-328.13373 L99.03158,-329.32037 L100.04211,-330.38834 L101.052635,-331.3495 L102.063156,-332.21454 L103.073685,-332.9931 L104.08421,-333.6938 L105.094734,-334.3244 L106.10526,-334.89197 L107.11579,-335.40277 L108.12631,-335.8625 L109.13684,-336.27625 L110.14737,-336.64862 L111.1579,-336.98376 L112.16842,-337.28537 L113.17895,-337.55685 L114.189476,-337.80115 L115.2,-338.02106 L116.210526,-338.21893 L117.221054,-338.39703 L118.23158,-338.55734 L119.2421,-338.7016 L120.25263,-338.83145 L121.26316,-338.9483 L122.27368,-339.05347 L123.28421,-339.14813 L124.29474,-339.2333 L125.30526,-339.30997 L126.31579,-339.37897 L127.32632,-339.44107 L128.33684,-339.49698 L129.34737,-339.54727 L130.3579,-339.59256 L131.36842,-339.6333 L132.37895,-339.66995 L133.38948,-339.70297 L134.4,-339.73267 L135.41052,-339.7594 L136.42105,-339.78348 L137.43158,-339.8051 L138.44211,-339.82462 L139.45264,-339.84213 L140.46317,-339.85794 L141.47368,-339.87213 L142.4842,-339.88492 L143.49474,-339.89642 L144.50526,-339.9068 L145.5158,-339.9161 L146.52632,-339.9245 L147.53683,-339.93204 L148.54736,-339.93884 L149.55789,-339.94495 L150.56842,-339.95047 L151.57895,-339.9554 L152.58948,-339.95987 L153.6,-339.9639 L154.61052,-339.9675 L155.62105,-339.97076 L156.63158,-339.97366 L157.6421,-339.97632 L158.65263,-339.97867 L159.66316,-339.9808 L160.67369,-339.98273 L161.6842,-339.98447 L162.69473,-339.98602 L163.70526,-339.9874 L164.71579,-339.98868 L165.72632,-339.9898 L166.73685,-339.9908 L167.74738,-339.99173 L168.75789,-339.99255 L169.76842,-339.99332 L170.77895,-339.994 L171.78947,-339.99457 L172.8,-339.99512 L173.81053,-339.9956 L174.82106,-339.99606 L175.83157,-339.99643 L176.8421,-339.9968 L177.85263,-339.99713 L178.86316,-339.9974 L179.87369,-339.99768 L180.88422,-339.9979 L181.89473,-339.9981 L182.90526,-339.9983 L183.91579,-339.99847 L184.92632,-339.99863 L185.93684,-339.99875 L186.94737,-339.99887 L187.9579,-339.999 L188.96841,-339.99908 L189.97894,-339.99918 L190.98947,-339.99927 L192,-339.99933 L193.01053,-339.99942 L194.02106,-339.99948 L195.03159,-339.9995 L196.0421,-339.99957 L197.05263,-339.9996 L198.06316,-339.99966 L199.07368,-339.9997 L200.08421,-339.99973 L201.09474,-339.99976 L202.10527,-339.99976 L203.11578,-339.9998 L204.12631,-339.99982 L205.13684,-339.99985 L206.14737,-339.99985 L207.1579,-339.99988 L208.16843,-339.99988 L209.17894,-339.99988 L210.18947,-339.9999 L211.2,-339.9999 L212.21053,-339.9999 L213.22105,-339.99994 L214.23158,-339.99994 L215.24211,-339.99994 L216.25262,-339.99994 L217.26315,-339.99994 L218.27368,-339.99997 L219.28421,-339.99997 L220.29474,-339.99997 L221.30527,-339.99997 L222.3158,-339.99997 L223.32631,-339.99997 L224.33684,-339.99997 L225.34737,-339.99997 L226.3579,-339.99997 L227.36842,-339.99997 L228.37895,-340 L229.38948,-340 L230.4,-340 L231.41052,-340 L232.42105,-340 L233.43158,-340 L234.44211,-340 L235.45264,-340 L236.46317,-340 L237.47368,-340 L238.4842,-340 L239.49474,-340 L240.50526,-340 L241.5158,-340 L242.52632,-340 L243.53683,-340 L244.54736,-340 L245.55789,-340 L246.56842,-340 L247.57895,-340 L248.58948,-340 L249.6,-340 L250.61052,-340 L251.62105,-340 L252.63158,-340 L253.6421,-340 L254.65263,-340 L255.66316,-340 L256.67368,-340 L257.6842,-340 L258.69473,-340 L259.70526,-340 L260.7158,-340 L261.72632,-340 L262.73685,-340 L263.74738,-340 L264.7579,-303.53888 L265.76843,-307.185 L266.77896,-310.4665 L267.78946,-313.41983 L268.8,-316.07785 L269.81052,-309.3548 L270.82104,-312.4193 L271.83157,-315.17737 L272.8421,-317.65964 L273.85263,-319.89368 L274.86316,-321.9043 L275.8737,-323.71387 L276.88422,-325.3425 L277.89474,-326.80823 L278.90527,-328.1274 L279.9158,-329.31467 L280.92633,-330.3832 L281.93683,-331.34488 L282.94736,-332.2104 L283.9579,-332.98935 L284.9684,-333.69043 L285.97894,-334.32138 L286.98947,-334.88925 L288,-335.40033 L289.01053,-335.8603 L290.02106,-336.27426 L291.0316,-336.64682 L292.0421,-336.98215 L293.05264,-337.28394 L294.06317,-337.55554 L295.07367,-337.8 L296.0842,-338.02 L297.09473,-338.218 L298.10526,-338.39618 L299.11578,-338.55658 L300.1263,-338.70093 L301.13684,-338.8308 L302.14737,-338.94775 L303.1579,-339.05298 L304.16843,-339.14767 L305.17896,-339.2329 L306.18948,-339.3096 L307.2,-339.37866 L308.21054,-339.4408 L309.22104,-339.4967 L310.23157,-339.54703 L311.2421,-339.59235 L312.25262,-339.6331 L313.26315,-339.6698 L314.27368,-339.70282 L315.2842,-339.73254 L316.29474,-339.75928 L317.30527,-339.78336 L318.3158,-339.80502 L319.32632,-339.82452 L320.33685,-339.84207 L321.34738,-339.85785 L322.35788,-339.87207 L323.3684,-339.88486 L324.37894,-339.89636 L325.38947,-339.90674 L326.4,-339.91608 L327.41052,-339.92447 L328.42105,-339.932 L329.43158,-339.9388 L330.4421,-339.94492 L331.45264,-339.95044 L332.46317,-339.95538 L333.4737,-339.95987 L334.48422,-339.96387 L335.49475,-339.96747 L336.50525,-339.97073 L337.51578,-339.97366 L338.5263,-339.9763 L339.53683,-339.97867 L340.54736,-339.9808 L341.5579,-339.98273 L342.56842,-339.98444 L343.57895,-339.986 L344.58948,-339.9874 L345.6,-339.98865 L346.61053,-339.9898 L347.62106,-339.9908 L348.6316,-339.99173 L349.64212,-339.99255 L350.65262,-339.99332 L351.66315,-339.994 L352.67368,-339.99457 L353.6842,-339.99512 L354.69473,-339.9956 L355.70526,-339.99603 L356.7158,-339.99643 L357.72632,-339.9968 L358.73685,-339.99713 L359.74738,-339.9974 L360.7579,-339.99768 L361.76843,-339.9979 L362.77896,-339.9981 L363.78946,-339.9983 L364.8,-339.99847 L365.81052,-339.99863 L366.82104,-339.99875 L367.83157,-339.99887 L368.8421,-339.999 L369.85263,-339.99908 L370.86316,-339.99918 L371.8737,-339.99927 L372.88422,-339.99933 L373.89474,-339.99942 L374.90527,-339.99948 L375.9158,-339.9995 L376.92633,-339.99957 L377.93683,-339.9996 L378.94736,-339.99966 L379.9579,-339.9997 L380.9684,-339.99973 L381.97894,-339.99976 L382.98947,-339.99976 L384,-339.9998 L385.01053,-339.99982 L386.02106,-339.99985 L387.0316,-339.99985 L388.0421,-339.99988 L389.05264,-339.99988 L390.06317,-339.99988 L391.07367,-339.9999 L392.0842,-339.9999 L393.09473,-339.9999 L394.10526,-339.99994 L395.11578,-339.99994 L396.1263,-339.99994 L397.13684,-339.99994 L398.14737,-339.99994 L399.1579,-339.99997 L400.16843,-339.99997 L401.17896,-339.99997 L402.18948,-339.99997 L403.2,-339.99997 L404.21054,-339.99997 L405.22104,-339.99997 L406.23157,-303.53885 L407.2421,-307.18497 L408.25262,-310.46646 L409.26315,-313.41983 L410.27368,-316.07785 L411.2842,-318.47006 L412.29474,-320.62305 L413.30527,-322.56076 L414.3158,-287.84354 L415.32632,-293.0592 L416.33685,-297.75327 L417.34738,-301.97794 L418.35788,-305.78015 L419.3684,-309.20215 L420.37894,-312.28192 L421.38947,-315.05374 L422.4,-317.54837 L423.41052,-319.79352 L424.42105,-321.81418 L425.43158,-323.63275 L426.4421,-316.1542 L427.45264,-282.07764 L428.46317,-278.7546 L429.4737,-284.87915 L430.48422,-253.9301 L431.49475,-226.07597 L432.50525,-228.35309 L433.51578,-203.05666 L434.5263,-180.28986 L435.53683,-196.26088 L436.54736,-210.6348 L437.5579,-223.5713 L438.56842,-235.21417 L439.57895,-245.69276 L440.58948,-255.12349 L441.6,-263.61115 L442.61053,-271.25003 L443.62106,-278.12503 L444.6316,-284.31253 L445.64212,-289.88126 L446.65262,-294.89313 L447.66315,-299.40384 L448.67368,-303.46344 L449.6842,-298.00183 L450.69473,-293.08636 L451.70526,-288.66245 L452.7158,-284.6809 L453.72632,-281.09753 L454.73685,-277.8725 L455.74738,-247.62413 L456.7579,-247.74643 L457.76843,-220.51067 L458.77896,-223.34431 L459.78946,-225.8946 L460.8,-228.18987 L461.81052,-202.90974 L462.82104,-216.61877 L463.83157,-228.9569 L464.8421,-240.0612 L465.85263,-250.05508 L466.86316,-259.0496 L467.8737,-267.14462 L468.88422,-274.43015 L469.89474,-280.98715 L470.90527,-250.4273 L471.9158,-259.38458 L472.92633,-267.4461 L473.93683,-274.7015 L474.94736,-281.23135 L475.9579,-277.99295 L476.9684,-284.19363 L477.97894,-289.7743 L478.98947,-294.79684 L480,-299.31717" fill="none" stroke="black" stroke-linejoin="round" stroke-width="2"/>
</g>
</g>
<g>
<g>
<line stroke="black" stroke-width="1" x1="0" x2="0" y1="0" y2="10"/>
<line stroke="black" stroke-width="1" x1="101.05263157894737" x2="101.05263157894737" y1="0" y2="10"/>
<line stroke="black" stroke-width="1" x1="202.10526315789474" x2="202.10526315789474" y1="0" y2="10"/>
<line stroke="black" stroke-width="1" x1="303.1578947368421" x2="303.1578947368421" y1="0" y2="10"/>
<line stroke="black" stroke-width="1" x1="404.2105263157895" x2="404.2105263157895" y1="0" y2="10"/>
</g>
<line stroke="black" stroke-width="1" x1="0" x2="480" y1="0" y2="0"/>
<g>
<text font-size="12" text-anchor="middle" x="0" y="20">
0
</text>
<text font-size="12" text-anchor="middle" x="101.05263157894737" y="20">
100
</text>
<text font-size="12" text-anchor="middle" x="202.10526315789474" y="20">
200
</text>
<text font-size="12" text-anchor="middle" x="303.1578947368421" y="20">
300
</text>
<text font-size="12" text-anchor="middle" x="404.2105263157895" y="20">
400
</text>
</g>
<text font-size="12" text-anchor="middle" x="240" y="30">

</text>
</g>
<g>
<g>
<line stroke="black" stroke-width="1" x1="0" x2="-10" y1="-66.54155503251317" y2="-66.54155503251317"/>
<line stroke="black" stroke-width="1" x1="0" x2="-10" y1="-157.69437014554492" y2="-157.69437014554492"/>
<line stroke="black" stroke-width="1" x1="0" x2="-10" y1="-248.84718525857667" y2="-248.84718525857667"/>
</g>
<line stroke="black" stroke-width="1" x1="0" x2="0" y1="0" y2="-340"/>
<g>
<text dominant-baseline="middle" font-size="12" text-anchor="end" x="-15" y="-66.54155503251317">
-2
</text>
<text dominant-baseline="middle" font-size="12" text-anchor="end" x="-15" y="-157.69437014554492">
-1
</text>
<text dominant-baseline="middle" font-size="12" text-anchor="end" x="-15" y="-248.84718525857667">
0
</text>
</g>
<text font-size="12" text-anchor="middle" transform="rotate(-90 -24 -170)" x="-24" y="-182">

</text>
</g>
</g>
</svg>