<svg viewBox="0 0 600 400" xmlns="http://www.w3.org/2000/svg">
<g transform="translate(72, 364)">
<g>
<g>
<path d="M0,-340 L0,-340 L0.21798365,-340 L0.4359673,-340 L0.6539509,-340 L0.8719346,-340 L1.0899183,-340 L1.3079019,-340 L1.5258856,-340 L1.7438692,-340 L1.9618529,-340 L2.1798365,-340 L2.3978202,-340 L2.6158037,-340 L2.8337874,-340 L3.0517712,-340 L3.269755,-340 L3.4877384,-340 L3.705722,-340 L3.9237058,-340 L4.1416893,-340 L4.359673,-340 L4.5776567,-340 L4.7956405,-340 L5.013624,-340 L5.2316074,-340 L5.449591,-340 L5.667575,-340 L5.8855586,-340 L6.1035423,-340 L6.321526,-340 L6.53951,-340 L6.757493,-340 L6.9754767,-340 L7.1934605,-340 L7.411444,-340 L7.629428,-340 L7.8474116,-340 L8.065395,-340 L8.283379,-340 L8.501363,-340 L8.719346,-340 L8.937329,-340 L9.1553135,-340 L9.373297,-340 L9.591281,-340 L9.809264,-340 L10.027248,-340 L10.245232,-340 L10.463215,-340 L10.681199,-340 L10.899182,-340 L11.1171665,-340 L11.33515,-340 L11.553134,-340 L11.771117,-340 L11.9891,-340 L12.207085,-340 L12.425068,-340 L12.643052,-340 L12.861035,-340 L13.07902,-340 L13.297003,-340 L13.514986,-340 L13.73297,-340 L13.9509535,-340 L14.168938,-340 L14.386921,-340 L14.604904,-340 L14.822888,-340 L15.040872,-340 L15.258856,-340 L15.476839,-340 L15.694823,-340 L15.9128065,-340 L16.13079,-340 L16.348774,-340 L16.566757,-340 L16.78474,-340 L17.002726,-340 L17.220709,-340 L17.438692,-340 L17.656675,-340 L17.874659,-340 L18.092644,-340 L18.310627,-340 L18.52861,-340 L18.746593,-340 L18.964577,-340 L19.182562,-340 L19.400545,-340 L19.618528,-340 L19.836512,-340 L20.054497,-340 L20.27248,-340 L20.490463,-340 L20.708447,-340 L20.92643,-340 L21.144415,-340 L21.362398,-340 L21.580381,-340 L21.798365,-340 L22.016348,-340 L22.234333,-340 L22.452316,-340 L22.6703,-340 L22.888283,-340 L23.106268,-340 L23.324251,-340 L23.542234,-340 L23.760218,-340 L23.9782,-340 L24.196186,-340 L24.41417,-340 L24.632153,-340 L24.850136,-340 L25.06812,-340 L25.286104,-340 L25.504087,-340 L25.72207,-340 L25.940054,-340 L26.15804,-340 L26.376022,-340 L26.594006,-340 L26.811989,-340 L27.029972,-340 L27.247957,-340 L27.46594,-340 L27.683924,-340 L27.901907,-340 L28.11989,-340 L28.337875,-340 L28.555859,-340 L28.773842,-340 L28.991825,-340 L29.209808,-340 L29.427794,-340 L29.645777,-340 L29.86376,-340 L30.081743,-340 L30.299728,-340 L30.517712,-340 L30.735695,-340 L30.953678,-340 L31.171661,-340 L31.389647,-340 L31.60763,-340 L31.825613,-340 L32.0436,-340 L32.26158,-340 L32.479565,-340 L32.697548,-340 L32.91553,-340 L33.133514,-340 L33.351498,-340 L33.56948,-340 L33.787464,-340 L34.00545,-340 L34.223434,-340 L34.441418,-340 L34.6594,-340 L34.877384,-340 L35.095367,-340 L35.31335,-340 L35.531334,-340 L35.749317,-340 L35.967304,-340 L36.185287,-340 L36.40327,-340 L36.621254,-340 L36.839237,-340 L37.05722,-340 L37.275204,-340 L37.493187,-340 L37.71117,-340 L37.929153,-340 L38.14714,-340 L38.365124,-340 L38.583107,-340 L38.80109,-340 L39.019073,-340 L39.237057,-340 L39.45504,-340 L39.673023,-340 L39.891006,-340 L40.108994,-340 L40.326977,-340 L40.54496,-340 L40.762943,-340 L40.980927,-340 L41.19891,-340 L41.416893,-340 L41.634876,-340 L41.85286,-340 L42.070847,-340 L42.28883,-340 L42.506813,-340 L42.724796,-340 L42.94278,-340 L43.160763,-340 L43.378746,-340 L43.59673,-340 L43.814713,-340 L44.032696,-340 L44.250683,-340 L44.468666,-340 L44.68665,-340 L44.904633,-340 L45.122616,-340 L45.3406,-340 L45.558582,-340 L45.776566,-340 L45.99455,-340 L46.212536,-340 L46.43052,-340 L46.648502,-340 L46.866486,-340 L47.08447,-340 L47.302452,-340 L47.520435,-340 L47.73842,-340 L47.9564,-340 L48.174385,-340 L48.392372,-340 L48.610355,-340 L48.82834,-340 L49.04632,-340 L49.264305,-340 L49.48229,-340 L49.70027,-340 L49.918255,-340 L50.13624,-340 L50.354225,-340 L50.57221,-340 L50.79019,-340 L51.008175,-340 L51.22616,-340 L51.44414,-340 L51.662125,-340 L51.880108,-340 L52.09809,-340 L52.31608,-340 L52.53406,-340 L52.752045,-340 L52.970028,-340 L53.18801,-340 L53.405994,-340 L53.623978,-340 L53.84196,-340 L54.059944,-340 L54.277927,-340 L54.495914,-340 L54.713898,-340 L54.93188,-340 L55.149864,-340 L55.367847,-340 L55.58583,-340 L55.803814,-340 L56.021797,-340 L56.23978,-340 L56.457767,-340 L56.67575,-340 L56.893734,-340 L57.111717,-340 L57.3297,-340 L57.547684,-340 L57.765667,-340 L57.98365,-340 L58.201633,-340 L58.419617,-340 L58.637604,-340 L58.855587,-340 L59.07357,-340 L59.291553,-340 L59.509537,-340 L59.72752,-340 L59.945503,-340 L60.163486,-340 L60.38147,-340 L60.599457,-340 L60.81744,-340 L61.035423,-340 L61.253407,-340 L61.47139,-340 L61.689373,-340 L61.907356,-340 L62.12534,-340 L62.343323,-340 L62.561306,-340 L62.779293,-340 L62.997276,-340 L63.21526,-340 L63.433243,-340 L63.651226,-340 L63.86921,-340 L64.0872,-340 L64.305176,-340 L64.52316,-340 L64.74114,-340 L64.95913,-340 L65.17711,-340 L65.395096,-340 L65.613075,-340 L65.83106,-340 L66.04905,-340 L66.26703,-340 L66.485016,-340 L66.702995,-340 L66.92098,-340 L67.13896,-340 L67.35695,-340 L67.57493,-340 L67.792915,-340 L68.0109,-340 L68.22888,-340 L68.44687,-340 L68.66485,-340 L68.882835,-340 L69.100815,-340 L69.3188,-340 L69.53678,-340 L69.75477,-340 L69.972755,-340 L70.190735,-340 L70.40872,-340 L70.6267,-340 L70.84469,-340 L71.06267,-340 L71.280655,-340 L71.498634,-340 L71.71662,-340 L71.93461,-340 L72.15259,-340 L72.370575,-340 L72.588554,-340 L72.80654,-340 L73.02452,-340 L73.24251,-340 L73.46049,-340 L73.678474,-340 L73.89646,-340 L74.11444,-340 L74.33243,-340 L74.55041,-340 L74.768394,-340 L74.986374,-340 L75.20436,-340 L75.42234,-340 L75.64033,-340 L75.85831,-340 L76.076294,-340 L76.29428,-340 L76.51226,-340 L76.73025,-340 L76.94823,-340 L77.166214,-340 L77.38419,-340 L77.60218,-340 L77.82016,-340 L78.03815,-340 L78.256134,-340 L78.47411,-340 L78.6921,-340 L78.91008,-340 L79.12807,-340 L79.34605,-340 L79.56403,-340 L79.78201,-340 L80,-340 L80.21799,-340 L80.43597,-340 L80.65395,-340 L80.87193,-340 L81.08992,-340 L81.3079,-340 L81.52589,-340 L81.743866,-340 L81.96185,-340 L82.17984,-340 L82.39782,-340 L82.61581,-340 L82.833786,-340 L83.05177,-340 L83.26975,-340 L83.48774,-340 L83.70572,-340 L83.923706,-340 L84.14169,-340 L84.35967,-340 L84.57766,-340 L84.79564,-340 L85.013626,-340 L85.231606,-340 L85.44959,-340 L85.66757,-340 L85.88556,-340 L86.10354,-340 L86.321526,-340 L86.53951,-340 L86.75749,-340 L86.97548,-340 L87.19346,-340 L87.411446,-340 L87.629425,-340 L87.84741,-340 L88.06539,-340 L88.28338,-340 L88.501366,-340 L88.719345,-340 L88.93733,-340 L89.15531,-340 L89.3733,-340 L89.59128,-340 L89.809265,-340 L90.027245,-340 L90.24523,-340 L90.46322,-340 L90.6812,-340 L90.899185,-340 L91.117165,-340 L91.33515,-340 L91.55313,-340 L91.77112,-340 L91.9891,-340 L92.207085,-340 L92.42507,-340 L92.64305,-340 L92.86104,-340 L93.07902,-340 L93.297005,-340 L93.514984,-340 L93.73297,-340 L93.95095,-340 L94.16894,-340 L94.386925,-340 L94.604904,-340 L94.82289,-340 L95.04087,-340 L95.25886,-340 L95.47684,-340 L95.694824,-340 L95.9128,-340 L96.13079,-340 L96.34877,-340 L96.56676,-340 L96.784744,-340 L97.00272,-340 L97.22071,-340 L97.43869,-340 L97.65668,-340 L97.87466,-340 L98.09264,-340 L98.31062,-340 L98.52861,-340 L98.7466,-340 L98.96458,-340 L99.18256,-340 L99.40054,-340 L99.61853,-340 L99.83651,-340 L100.0545,-340 L100.27248,-340 L100.49046,-340 L100.70845,-340 L100.92643,-340 L101.14442,-340 L101.3624,-340 L101.58038,-340 L101.79836,-340 L102.01635,-340 L102.23433,-340 L102.45232,-340 L102.6703,-340 L102.88828,-340 L103.10627,-340 L103.32425,-340 L103.54224,-340 L103.760216,-340 L103.9782,-340 L104.19618,-340 L104.41417,-340 L104.63216,-340 L104.850136,-340 L105.06812,-340 L105.2861,-340 L105.50409,-340 L105.72207,-340 L105.940056,-340 L106.158035,-340 L106.37602,-340 L106.594,-340 L106.81199,-340 L107.029976,-340 L107.247955,-340 L107.46594,-340 L107.68392,-340 L107.90191,-340 L108.11989,-340 L108.337875,-340 L108.555855,-340 L108.77384,-340 L108.99183,-340 L109.20981,-340 L109.427795,-340 L109.645775,-340 L109.86376,-340 L110.08174,-340 L110.29973,-340 L110.51771,-340 L110.735695,-340 L110.95368,-340 L111.17166,-340 L111.38965,-340 L111.60763,-340 L111.825615,-340 L112.043594,-340 L112.26158,-340 L112.47956,-340 L112.69755,-340 L112.915535,-340 L113.133514,-340 L113.3515,-340 L113.56948,-340 L113.78747,-340 L114.00545,-340 L114.223434,-340 L114.441414,-340 L114.6594,-340 L114.87739,-340 L115.09537,-340 L115.313354,-340 L115.531334,-340 L115.74932,-340 L115.9673,-340 L116.18529,-340 L116.40327,-340 L116.621254,-340 L116.83923,-340 L117.05722,-340 L117.27521,-340 L117.49319,-340 L117.711174,-340 L117.92915,-340 L118.14714,-340 L118.36512,-340 L118.58311,-340 L118.80109,-340 L119.01907,-340 L119.23706,-340 L119.45504,-340 L119.67303,-340 L119.89101,-340 L120.10899,-340 L120.32697,-340 L120.54496,-340 L120.76294,-340 L120.98093,-340 L121.19891,-340 L121.41689,-340 L121.63488,-340 L121.85286,-340 L122.07085,-340 L122.288826,-340 L122.50681,-340 L122.72479,-340 L122.94278,-340 L123.16077,-340 L123.378746,-340 L123.59673,-340 L123.81471,-340 L124.0327,-340 L124.25068,-340 L124.468666,-340 L124.686646,-340 L124.90463,-340 L125.12261,-340 L125.3406,-340 L125.558586,-340 L125.776566,-340 L125.99455,-340 L126.21253,-340 L126.43052,-340 L126.6485,-340 L126.866486,-340 L127.084465,-340 L127.30245,-340 L127.52044,-340 L127.73842,-340 L127.956406,-340 L128.1744,-340 L128.39236,-340 L128.61035,-340 L128.82834,-340 L129.04633,-340 L129.26431,-340 L129.48228,-340 L129.70027,-340 L129.91826,-340 L130.13625,-340 L130.35422,-340 L130.5722,-340 L130.79019,-340 L131.00818,-340 L131.22615,-340 L131.44414,-340 L131.66212,-340 L131.88011,-340 L132.0981,-340 L132.31607,-340 L132.53406,-340 L132.75204,-340 L132.97003,-340 L133.188,-340 L133.40599,-340 L133.62398,-340 L133.84196,-340 L134.05995,-340 L134.27792,-340 L134.49591,-340 L134.7139,-340 L134.93188,-340 L135.14986,-340 L135.36784,-340 L135.58583,-340 L135.80382,-340 L136.0218,-340 L136.23978,-340 L136.45776,-340 L136.67575,-340 L136.89374,-340 L137.11171,-340 L137.3297,-340 L137.54768,-340 L137.76567,-340 L137.98366,-340 L138.20163,-340 L138.41962,-340 L138.6376,-340 L138.85559,-340 L139.07356,-340 L139.29155,-340 L139.50954,-340 L139.72752,-340 L139.94551,-340 L140.16348,-340 L140.38147,-340 L140.59946,-340 L140.81744,-340 L141.03542,-340 L141.2534,-340 L141.47139,-340 L141.68938,-340 L141.90736,-340 L142.12534,-340 L142.34332,-340 L142.56131,-340 L142.7793,-340 L142.99727,-340 L143.21526,-340 L143.43324,-340 L143.65123,-340 L143.86922,-340 L144.08719,-340 L144.30518,-340 L144.52316,-340 L144.74115,-340 L144.95912,-340 L145.17711,-340 L145.3951,-340 L145.61308,-340 L145.83107,-340 L146.04904,-340 L146.26703,-340 L146.48502,-340 L146.703,-340 L146.92097,-340 L147.13896,-340 L147.35695,-340 L147.57494,-340 L147.79292,-340 L148.0109,-340 L148.22888,-340 L148.44687,-340 L148.66486,-340 L148.88283,-340 L149.10081,-340 L149.3188,-340 L149.53679,-340 L149.75478,-340 L149.97275,-340 L150.19073,-340 L150.40872,-340 L150.62671,-340 L150.84468,-340 L151.06267,-340 L151.28065,-340 L151.49864,-340 L151.71661,-340 L151.9346,-340 L152.15259,-340 L152.37057,-340 L152.58856,-340 L152.80653,-340 L153.02452,-340 L153.24251,-340 L153.4605,-340 L153.67847,-340 L153.89645,-340 L154.11444,-340 L154.33243,-340 L154.55042,-340 L154.76839,-340 L154.98637,-340 L155.20436,-340 L155.42235,-340 L155.64032,-340 L155.8583,-340 L156.0763,-340 L156.29428,-340 L156.51227,-340 L156.73024,-340 L156.94823,-340 L157.16621,-340 L157.3842,-340 L157.60217,-340 L157.82016,-340 L158.03815,-340 L158.25613,-340 L158.47412,-340 L158.6921,-340 L158.91008,-340 L159.12807,-340 L159.34605,-340 L159.56403,-340 L159.78201,-340 L160,-340 L160.21799,-340 L160.43597,-340 L160.65395,-340 L160.87193,-340 L161.08992,-340 L161.3079,-340 L161.52588,-340 L161.74387,-340 L161.96185,-340 L162.17984,-340 L162.39783,-340 L162.6158,-340 L162.83379,-340 L163.05177,-340 L163.26976,-340 L163.48773,-340 L163.70572,-340 L163.9237,-340 L164.1417,-340 L164.35968,-340 L164.57765,-340 L164.79564,-340 L165.01363,-340 L165.23161,-340 L165.44958,-340 L165.66757,-340 L165.88556,-340 L166.10355,-340 L166.32153,-340 L166.5395,-340 L166.75749,-340 L166.97548,-340 L167.19347,-340 L167.41144,-340 L167.62943,-340 L167.84741,-340 L168.0654,-340 L168.28339,-340 L168.50136,-340 L168.71935,-340 L168.93733,-340 L169.15532,-340 L169.37329,-340 L169.59128,-340 L169.80927,-340 L170.02725,-340 L170.24522,-340 L170.46321,-340 L170.6812,-340 L170.89919,-340 L171.11717,-340 L171.33514,-340 L171.55313,-340 L171.77112,-340 L171.9891,-340 L172.20708,-340 L172.42506,-340 L172.64305,-340 L172.86104,-340 L173.07903,-340 L173.297,-340 L173.51498,-340 L173.73297,-340 L173.95096,-340 L174.16893,-340 L174.38692,-340 L174.6049,-340 L174.82289,-340 L175.04088,-340 L175.25885,-340 L175.47684,-340 L175.69482,-340 L175.91281,-340 L176.13078,-340 L176.34877,-340 L176.56676,-340 L176.78474,-340 L177.00273,-340 L177.2207,-340 L177.43869,-340 L177.65668,-340 L177.87466,-340 L178.09264,-340 L178.31062,-340 L178.52861,-340 L178.7466,-340 L178.96458,-340 L179.18256,-340 L179.40054,-340 L179.61853,-340 L179.83652,-340 L180.05449,-340 L180.27248,-340 L180.49046,-340 L180.70845,-340 L180.92644,-340 L181.14441,-340 L181.3624,-340 L181.58038,-340 L181.79837,-340 L182.01634,-340 L182.23433,-340 L182.45232,-340 L182.6703,-340 L182.88829,-340 L183.10626,-340 L183.32425,-340 L183.54224,-340 L183.76022,-340 L183.9782,-340 L184.19618,-340 L184.41417,-340 L184.63216,-340 L184.85014,-340 L185.06812,-340 L185.2861,-340 L185.50409,-340 L185.72208,-340 L185.94005,-340 L186.15804,-340 L186.37602,-340 L186.59401,-340 L186.812,-340 L187.02997,-340 L187.24796,-340 L187.46594,-340 L187.68393,-340 L187.9019,-340 L188.11989,-340 L188.33788,-340 L188.55586,-340 L188.77385,-340 L188.99182,-340 L189.20981,-340 L189.4278,-340 L189.64578,-340 L189.86375,-340 L190.08174,-340 L190.29973,-340 L190.51772,-340 L190.73569,-340 L190.95367,-340 L191.17166,-340 L191.38965,-340 L191.60764,-340 L191.8256,-340 L192.0436,-340 L192.26158,-340 L192.47957,-340 L192.69754,-340 L192.91553,-340 L193.13351,-340 L193.3515,-340 L193.56949,-340 L193.78746,-340 L194.00545,-340 L194.22343,-340 L194.44142,-340 L194.6594,-340 L194.87738,-340 L195.09537,-340 L195.31335,-340 L195.53134,-340 L195.74931,-340 L195.9673,-340 L196.18529,-340 L196.40327,-340 L196.62125,-340 L196.83923,-340 L197.05722,-340 L197.2752,-340 L197.4932,-340 L197.71117,-340 L197.92915,-340 L198.14714,-340 L198.36513,-340 L198.5831,-340 L198.80109,-340 L199.01907,-340 L199.23706,-340 L199.45505,-340 L199.67302,-340 L199.891,-340 L200.109,-340 L200.32698,-340 L200.54495,-340 L200.76294,-340 L200.98093,-340 L201.19891,-340 L201.4169,-340 L201.63487,-340 L201.85286,-340 L202.07085,-340 L202.28883,-340 L202.5068,-340 L202.7248,-340 L202.94278,-340 L203.16077,-340 L203.37875,-340 L203.59673,-340 L203.81471,-340 L204.0327,-340 L204.25069,-340 L204.46866,-340 L204.68665,-340 L204.90463,-340 L205.12262,-340 L205.3406,-340 L205.55858,-340 L205.77657,-340 L205.99455,-340 L206.21254,-340 L206.43051,-340 L206.6485,-340 L206.86649,-340 L207.08447,-340 L207.30246,-340 L207.52043,-340 L207.73842,-340 L207.9564,-340 L208.1744,-340 L208.39236,-340 L208.61035,-340 L208.82834,-340 L209.04633,-340 L209.26431,-340 L209.48228,-340 L209.70027,-340 L209.91826,-340 L210.13625,-340 L210.35422,-340 L210.5722,-340 L210.79019,-340 L211.00818,-340 L211.22615,-340 L211.44414,-340 L211.66212,-340 L211.88011,-340 L212.0981,-340 L212.31607,-340 L212.53406,-340 L212.75204,-340 L212.97003,-340 L213.188,-340 L213.40599,-340 L213.62398,-340 L213.84196,-340 L214.05995,-340 L214.27792,-340 L214.49591,-340 L214.7139,-340 L214.93188,-340 L215.14986,-340 L215.36784,-340 L215.58583,-340 L215.80382,-340 L216.0218,-340 L216.23978,-340 L216.45776,-340 L216.67575,-340 L216.89374,-340 L217.11171,-340 L217.3297,-340 L217.54768,-340 L217.76567,-340 L217.98366,-340 L218.20163,-340 L218.41962,-340 L218.6376,-340 L218.85559,-340 L219.07356,-340 L219.29155,-340 L219.50954,-340 L219.72752,-340 L219.94551,-340 L220.16348,-340 L220.38147,-340 L220.59946,-340 L220.81744,-340 L221.03542,-340 L221.2534,-340 L221.47139,-340 L221.68938,-340 L221.90736,-340 L222.12534,-340 L222.34332,-340 L222.56131,-340 L222.7793,-340 L222.99727,-340 L223.21526,-340 L223.43324,-340 L223.65123,-340 L223.86922,-340 L224.08719,-340 L224.30518,-340 L224.52316,-340 L224.74115,-340 L224.95912,-340 L225.17711,-340 L225.3951,-340 L225.61308,-340 L225.83107,-340 L226.04904,-340 L226.26703,-340 L226.48502,-340 L226.703,-340 L226.92097,-340 L227.13896,-340 L227.35695,-340 L227.57494,-340 L227.79292,-340 L228.0109,-340 L228.22888,-340 L228.44687,-340 L228.66486,-340 L228.88283,-340 L229.10081,-340 L229.3188,-340 L229.53679,-340 L229.75478,-340 L229.97275,-340 L230.19073,-340 L230.40872,-340 L230.62671,-340 L230.84468,-340 L231.06267,-340 L231.28065,-340 L231.49864,-340 L231.71661,-340 L231.9346,-340 L232.15259,-340 L232.37057,-340 L232.58856,-340 L232.80653,-340 L233.02452,-340 L233.24251,-340 L233.4605,-340 L233.67847,-340 L233.89645,-340 L234.11444,-340 L234.33243,-340 L234.55042,-340 L234.76839,-340 L234.98637,-340 L235.20436,-340 L235.42235,-340 L235.64032,-340 L235.8583,-340 L236.0763,-340 L236.29428,-340 L236.51227,-340 L236.73024,-340 L236.94823,-340 L237.16621,-340 L237.3842,-340 L237.60217,-340 L237.82016,-340 L238.03815,-340 L238.25613,-340 L238.47412,-340 L238.6921,-340 L238.91008,-340 L239.12807,-340 L239.34605,-340 L239.56403,-340 L239.78201,-340 L240,-340 L240.21799,-340 L240.43597,-340 L240.65395,-340 L240.87193,-340 L241.08992,-340 L241.3079,-340 L241.52588,-340 L241.74387,-340 L241.96185,-340 L242.17984,-340 L242.39783,-340 L242.6158,-340 L242.83379,-340 L243.05177,-340 L243.26976,-340 L243.48773,-340 L243.70572,-340 L243.9237,-340 L244.1417,-340 L244.35968,-340 L244.57765,-340 L244.79564,-340 L245.01363,-340 L245.23161,-340 L245.44958,-340 L245.66757,-340 L245.88556,-340 L246.10355,-340 L246.32153,-340 L246.5395,-340 L246.75749,-340 L246.97548,-340 L247.19347,-340 L247.41144,-340 L247.62943,-340 L247.84741,-340 L248.0654,-340 L248.28339,-340 L248.50136,-340 L248.71935,-340 L248.93733,-340 L249.15532,-340 L249.37329,-340 L249.59128,-340 L249.80927,-340 L250.02725,-340 L250.24522,-340 L250.46321,-340 L250.6812,-340 L250.89919,-340 L251.11717,-340 L251.33514,-340 L251.55313,-340 L251.77112,-340 L251.9891,-340 L252.20708,-340 L252.42506,-340 L252.64305,-340 L252.86104,-340 L253.07903,-340 L253.297,-340 L253.51498,-340 L253.73297,-340 L253.95096,-340 L254.16893,-340 L254.38692,-340 L254.6049,-340 L254.82289,-340 L255.04088,-340 L255.25885,-340 L255.47684,-340 L255.69482,-340 L255.91281,-340 L256.1308,-340 L256.3488,-340 L256.56677,-340 L256.78473,-340 L257.00272,-340 L257.2207,-340 L257.4387,-340 L257.65668,-340 L257.87466,-340 L258.09265,-340 L258.31064,-340 L258.52863,-340 L258.74658,-340 L258.96457,-340 L259.18256,-340 L259.40054,-340 L259.61853,-340 L259.83652,-340 L260.0545,-340 L260.2725,-340 L260.49045,-340 L260.70844,-340 L260.92642,-340 L261.1444,-340 L261.3624,-340 L261.58038,-340 L261.79837,-340 L262.01636,-340 L262.23434,-340 L262.4523,-340 L262.6703,-340 L262.88828,-340 L263.10626,-340 L263.32425,-340 L263.54224,-340 L263.76022,-340 L263.9782,-340 L264.1962,-340 L264.41415,-340 L264.63214,-340 L264.85013,-340 L265.0681,-340 L265.2861,-340 L265.5041,-340 L265.72208,-340 L265.94006,-340 L266.15805,-340 L266.376,-340 L266.594,-340 L266.81198,-340 L267.02997,-340 L267.24796,-340 L267.46594,-340 L267.68393,-340 L267.90192,-340 L268.1199,-340 L268.33786,-340 L268.55585,-340 L268.77383,-340 L268.99182,-340 L269.2098,-340 L269.4278,-340 L269.64578,-340 L269.86377,-340 L270.08176,-340 L270.2997,-340 L270.5177,-340 L270.7357,-340 L270.95367,-340 L271.17166,-340 L271.38965,-340 L271.60764,-340 L271.82562,-340 L272.0436,-340 L272.26157,-340 L272.47955,-340 L272.69754,-340 L272.91553,-340 L273.1335,-340 L273.3515,-340 L273.5695,-340 L273.78748,-340 L274.00546,-340 L274.22342,-340 L274.4414,-340 L274.6594,-340 L274.87738,-340 L275.09537,-340 L275.31335,-340 L275.53134,-340 L275.74933,-340 L275.96732,-340 L276.18527,-340 L276.40326,-340 L276.62125,-340 L276.83923,-340 L277.05722,-340 L277.2752,-340 L277.4932,-340 L277.71118,-340 L277.92917,-340 L278.14713,-340 L278.3651,-340 L278.5831,-340 L278.8011,-340 L279.01907,-340 L279.23706,-340 L279.45505,-340 L279.67303,-340 L279.89102,-340 L280.10898,-340 L280.32697,-340 L280.54495,-340 L280.76294,-340 L280.98093,-340 L281.1989,-340 L281.4169,-340 L281.6349,-340 L281.85287,-340 L282.07083,-340 L282.28882,-340 L282.5068,-340 L282.7248,-340 L282.94278,-340 L283.16077,-340 L283.37875,-340 L283.59674,-340 L283.81473,-340 L284.03268,-340 L284.25067,-340 L284.46866,-340 L284.68665,-340 L284.90463,-340 L285.12262,-340 L285.3406,-340 L285.5586,-340 L285.77658,-340 L285.99454,-340 L286.21252,-340 L286.4305,-340 L286.6485,-340 L286.8665,-340 L287.08447,-340 L287.30246,-340 L287.52045,-340 L287.73843,-340 L287.9564,-340 L288.17438,-340 L288.39236,-340 L288.61035,-340 L288.82834,-340 L289.04633,-340 L289.2643,-340 L289.4823,-340 L289.7003,-340 L289.91824,-340 L290.13623,-340 L290.35422,-340 L290.5722,-340 L290.7902,-340 L291.00818,-340 L291.22617,-340 L291.44415,-340 L291.66214,-340 L291.8801,-340 L292.09808,-340 L292.31607,-340 L292.53406,-340 L292.75204,-340 L292.97003,-340 L293.18802,-340 L293.406,-340 L293.624,-340 L293.84195,-340 L294.05994,-340 L294.27792,-340 L294.4959,-340 L294.7139,-340 L294.9319,-340 L295.14987,-340 L295.36786,-340 L295.58585,-340 L295.8038,-340 L296.0218,-340 L296.23978,-340 L296.45776,-340 L296.67575,-340 L296.89374,-340 L297.11172,-340 L297.3297,-340 L297.5477,-340 L297.76566,-340 L297.98364,-340 L298.20163,-340 L298.41962,-340 L298.6376,-340 L298.8556,-340 L299.07358,-340 L299.29156,-340 L299.50955,-340 L299.7275,-340 L299.9455,-340 L300.16348,-340 L300.38147,-340 L300.59946,-340 L300.81744,-340 L301.03543,-340 L301.25342,-340 L301.47137,-340 L301.68936,-340 L301.90735,-340 L302.12534,-340 L302.34332,-340 L302.5613,-340 L302.7793,-340 L302.99728,-340 L303.21527,-340 L303.43323,-340 L303.6512,-340 L303.8692,-340 L304.0872,-340 L304.30518,-340 L304.52316,-340 L304.74115,-340 L304.95914,-340 L305.17712,-340 L305.39508,-340 L305.61307,-340 L305.83105,-340 L306.04904,-340 L306.26703,-340 L306.48502,-340 L306.703,-340 L306.921,-340 L307.13898,-340 L307.35693,-340 L307.57492,-340 L307.7929,-340 L308.0109,-340 L308.22888,-340 L308.44687,-340 L308.66486,-340 L308.88284,-340 L309.10083,-340 L309.3188,-340 L309.53677,-340 L309.75476,-340 L309.97275,-340 L310.19073,-340 L310.40872,-340 L310.6267,-340 L310.8447,-340 L311.06268,-340 L311.28064,-340 L311.49863,-340 L311.7166,-340 L311.9346,-340 L312.1526,-340 L312.37057,-340 L312.58856,-340 L312.80655,-340 L313.02454,-340 L313.2425,-340 L313.46048,-340 L313.67847,-340 L313.89645,-340 L314.11444,-340 L314.33243,-340 L314.5504,-340 L314.7684,-340 L314.9864,-340 L315.20435,-340 L315.42233,-340 L315.64032,-340 L315.8583,-340 L316.0763,-340 L316.29428,-340 L316.51227,-340 L316.73026,-340 L316.94824,-340 L317.1662,-340 L317.3842,-340 L317.60217,-340 L317.82016,-340 L318.03815,-340 L318.25613,-340 L318.47412,-340 L318.6921,-340 L318.9101,-340 L319.12805,-340 L319.34604,-340 L319.56403,-340 L319.782,-340 L320,-340 L320.218,-340 L320.43597,-340 L320.65396,-340 L320.87195,-340 L321.0899,-340 L321.3079,-340 L321.52588,-340 L321.74387,-340 L321.96185,-340 L322.17984,-340 L322.39783,-340 L322.6158,-340 L322.8338,-340 L323.05176,-340 L323.26974,-340 L323.48773,-340 L323.70572,-340 L323.9237,-340 L324.1417,-340 L324.35968,-340 L324.57767,-340 L324.79565,-340 L325.0136,-340 L325.2316,-340 L325.4496,-340 L325.66757,-340 L325.88556,-340 L326.10355,-340 L326.32153,-340 L326.53952,-340 L326.7575,-340 L326.97546,-340 L327.19345,-340 L327.41144,-340 L327.62943,-340 L327.8474,-340 L328.0654,-340 L328.2834,-340 L328.50137,-340 L328.71936,-340 L328.93732,-340 L329.1553,-340 L329.3733,-340 L329.59128,-340 L329.80927,-340 L330.02725,-340 L330.24524,-340 L330.46323,-340 L330.6812,-340 L330.89917,-340 L331.11716,-340 L331.33514,-340 L331.55313,-340 L331.77112,-340 L331.9891,-340 L332.2071,-340 L332.42508,-340 L332.64307,-340 L332.86102,-340 L333.079,-340 L333.297,-340 L333.51498,-340 L333.73297,-340 L333.95096,-340 L334.16895,-340 L334.38693,-340 L334.60492,-340 L334.82288,-340 L335.04086,-340 L335.25885,-340 L335.47684,-340 L335.69482,-340 L335.9128,-340 L336.1308,-340 L336.3488,-340 L336.56677,-340 L336.78473,-340 L337.00272,-340 L337.2207,-340 L337.4387,-340 L337.65668,-340 L337.87466,-340 L338.09265,-340 L338.31064,-340 L338.52863,-340 L338.74658,-340 L338.96457,-340 L339.18256,-340 L339.40054,-340 L339.61853,-340 L339.83652,-340 L340.0545,-340 L340.2725,-340 L340.49045,-340 L340.70844,-340 L340.92642,-340 L341.1444,-340 L341.3624,-340 L341.58038,-340 L341.79837,-340 L342.01636,-340 L342.23434,-340 L342.4523,-340 L342.6703,-340 L342.88828,-340 L343.10626,-340 L343.32425,-340 L343.54224,-340 L343.76022,-340 L343.9782,-340 L344.1962,-340 L344.41415,-340 L344.63214,-340 L344.85013,-340 L345.0681,-340 L345.2861,-340 L345.5041,-340 L345.72208,-340 L345.94006,-340 L346.15805,-340 L346.376,-340 L346.594,-340 L346.81198,-340 L347.02997,-340 L347.24796,-340 L347.46594,-340 L347.68393,-340 L347.90192,-340 L348.1199,-340 L348.33786,-340 L348.55585,-340 L348.77383,-340 L348.99182,-340 L349.2098,-340 L349.4278,-340 L349.64578,-340 L349.86377,-340 L350.08176,-340 L350.2997,-340 L350.5177,-340 L350.7357,-340 L350.95367,-340 L351.17166,-340 L351.38965,-340 L351.60764,-340 L351.82562,-340 L352.0436,-340 L352.26157,-340 L352.47955,-340 L352.69754,-340 L352.91553,-340 L353.1335,-340 L353.3515,-340 L353.5695,-340 L353.78748,-340 L354.00546,-340 L354.22342,-340 L354.4414,-340 L354.6594,-340 L354.87738,-340 L355.09537,-340 L355.31335,-340 L355.53134,-340 L355.74933,-340 L355.96732,-340 L356.18527,-340 L356.40326,-340 L356.62125,-340 L356.83923,-340 L357.05722,-340 L357.2752,-340 L357.4932,-340 L357.71118,-340 L357.92917,-340 L358.14713,-340 L358.3651,-340 L358.5831,-340 L358.8011,-340 L359.01907,-340 L359.23706,-340 L359.45505,-340 L359.67303,-340 L359.89102,-340 L360.10898,-340 L360.32697,-340 L360.54495,-340 L360.76294,-340 L360.98093,-340 L361.1989,-340 L361.4169,-340 L361.6349,-340 L361.85287,-340 L362.07083,-340 L362.28882,-340 L362.5068,-340 L362.7248,-340 L362.94278,-340 L363.16077,-340 L363.37875,-340 L363.59674,-340 L363.81473,-340 L364.03268,-340 L364.25067,-340 L364.46866,-340 L364.68665,-340 L364.90463,-340 L365.12262,-340 L365.3406,-340 L365.5586,-340 L365.77658,-340 L365.99454,-340 L366.21252,-340 L366.4305,-340 L366.6485,-340 L366.8665,-340 L367.08447,-340 L367.30246,-340 L367.52045,-340 L367.73843,-340 L367.9564,-340 L368.17438,-340 L368.39236,-340 L368.61035,-340 L368.82834,-340 L369.04633,-340 L369.2643,-340 L369.4823,-340 L369.7003,-340 L369.91824,-340 L370.13623,-340 L370.35422,-340 L370.5722,-340 L370.7902,-340 L371.00818,-340 L371.22617,-340 L371.44415,-340 L371.66214,-340 L371.8801,-340 L372.09808,-340 L372.31607,-340 L372.53406,-340 L372.75204,-340 L372.97003,-340 L373.18802,-340 L373.406,-340 L373.624,-340 L373.84195,-340 L374.05994,-340 L374.27792,-340 L374.4959,-340 L374.7139,-340 L374.9319,-340 L375.14987,-340 L375.36786,-340 L375.58585,-340 L375.8038,-340 L376.0218,-340 L376.23978,-340 L376.45776,-340 L376.67575,-340 L376.89374,-340 L377.11172,-340 L377.3297,-340 L377.5477,-340 L377.76566,-340 L377.98364,-340 L378.20163,-340 L378.41962,-340 L378.6376,-340 L378.8556,-340 L379.07358,-340 L379.29156,-340 L379.50955,-340 L379.7275,-340 L379.9455,-340 L380.16348,-340 L380.38147,-340 L380.59946,-340 L380.81744,-340 L381.03543,-340 L381.25342,-340 L381.47137,-340 L381.68936,-340 L381.90735,-340 L382.12534,-340 L382.34332,-340 L382.5613,-340 L382.7793,-340 L382.99728,-340 L383.21527,-340 L383.43323,-340 L383.6512,-340 L383.8692,-340 L384.0872,-340 L384.30518,-340 L384.52316,-340 L384.74115,-340 L384.95914,-340 L385.17712,-340 L385.39508,-340 L385.61307,-340 L385.83105,-340 L386.04904,-340 L386.26703,-340 L386.48502,-340 L386.703,-340 L386.921,-340 L387.13898,-340 L387.35693,-340 L387.57492,-340 L387.7929,-340 L388.0109,-340 L388.22888,-340 L388.44687,-340 L388.66486,-340 L388.88284,-340 L389.10083,-340 L389.3188,-340 L389.53677,-340 L389.75476,-340 L389.97275,-340 L390.19073,-340 L390.40872,-340 L390.6267,-340 L390.8447,-340 L391.06268,-340 L391.28064,-340 L391.49863,-340 L391.7166,-340 L391.9346,-340 L392.1526,-340 L392.37057,-340 L392.58856,-340 L392.80655,-340 L393.02454,-340 L393.2425,-340 L393.46048,-340 L393.67847,-340 L393.89645,-340 L394.11444,-340 L394.33243,-340 L394.5504,-340 L394.7684,-340 L394.9864,-340 L395.20435,-340 L395.42233,-340 L395.64032,-340 L395.8583,-340 L396.0763,-340 L396.29428,-340 L396.51227,-340 L396.73026,-340 L396.94824,-340 L397.1662,-340 L397.3842,-340 L397.60217,-340 L397.82016,-340 L398.03815,-340 L398.25613,-340 L398.47412,-340 L398.6921,-340 L398.9101,-340 L399.12805,-340 L399.34604,-340 L399.56403,-340 L399.782,-340 L400,-340 L400.218,-340 L400.43597,-340 L400.65396,-340 L400.87195,-340 L401.0899,-340 L401.3079,-340 L401.52588,-340 L401.74387,-340 L401.96185,-340 L402.17984,-340 L402.39783,-340 L402.6158,-340 L402.8338,-340 L403.05176,-340 L403.26974,-340 L403.48773,-340 L403.70572,-340 L403.9237,-340 L404.1417,-340 L404.35968,-340 L404.57767,-340 L404.79565,-340 L405.0136,-340 L405.2316,-340 L405.4496,-340 L405.66757,-340 L405.88556,-340 L406.10355,-340 L406.32153,-340 L406.53952,-340 L406.7575,-340 L406.97546,-340 L407.19345,-340 L407.41144,-340 L407.62943,-340 L407.8474,-340 L408.0654,-340 L408.2834,-340 L408.50137,-340 L408.71936,-340 L408.93732,-340 L409.1553,-340 L409.3733,-340 L409.59128,-340 L409.80927,-340 L410.02725,-340 L410.24524,-340 L410.46323,-340 L410.6812,-340 L410.89917,-340 L411.11716,-340 L411.33514,-340 L411.55313,-340 L411.77112,-340 L411.9891,-340 L412.2071,-340 L412.42508,-340 L412.64307,-340 L412.86102,-340 L413.079,-340 L413.297,-340 L413.51498,-340 L413.73297,-340 L413.95096,-340 L414.16895,-340 L414.38693,-340 L414.60492,-340 L414.82288,-340 L415.04086,-340 L415.25885,-340 L415.47684,-340 L415.69482,-340 L415.9128,-340 L416.1308,-340 L416.3488,-340 L416.56677,-340 L416.78473,-340 L417.00272,-340 L417.2207,-340 L417.4387,-340 L417.65668,-340 L417.87466,-340 L418.09265,-340 L418.31064,-340 L418.52863,-340 L418.74658,-340 L418.96457,-340 L419.18256,-340 L419.40054,-340 L419.61853,-340 L419.83652,-340 L420.0545,-340 L420.2725,-340 L420.49045,-340 L420.70844,-340 L420.92642,-340 L421.1444,-340 L421.3624,-340 L421.58038,-340 L421.79837,-340 L422.01636,-340 L422.23434,-340 L422.4523,-340 L422.6703,-340 L422.88828,-340 L423.10626,-340 L423.32425,-340 L423.54224,-340 L423.76022,-340 L423.9782,-340 L424.1962,-340 L424.41415,-340 L424.63214,-340 L424.85013,-340 L425.0681,-340 L425.2861,-340 L425.5041,-340 L425.72208,-340 L425.94006,-340 L426.15805,-340 L426.376,-340 L426.594,-340 L426.81198,-340 L427.02997,-340 L427.24796,-340 L427.46594,-340 L427.68393,-340 L427.90192,-340 L428.1199,-340 L428.33786,-340 L428.55585,-340 L428.77383,-340 L428.99182,-340 L429.2098,-340 L429.4278,-340 L429.64578,-340 L429.86377,-340 L430.08176,-340 L430.2997,-340 L430.5177,-340 L430.7357,-340 L430.95367,-340 L431.17166,-340 L431.38965,-340 L431.60764,-340 L431.82562,-340 L432.0436,-340 L432.26157,-340 L432.47955,-340 L432.69754,-340 L432.91553,-340 L433.1335,-340 L433.3515,-340 L433.5695,-340 L433.78748,-340 L434.00546,-340 L434.22342,-340 L434.4414,-340 L434.6594,-340 L434.87738,-340 L435.09537,-340 L435.31335,-340 L435.53134,-340 L435.74933,-340 L435.96732,-340 L436.18527,-340 L436.40326,-340 L436.62125,-340 L436.83923,-340 L437.05722,-340 L437.2752,-340 L437.4932,-340 L437.71118,-340 L437.92917,-340 L438.14713,-340 L438.3651,-340 L438.5831,-340 L438.8011,-340 L439.01907,-340 L439.23706,-340 L439.45505,-340 L439.67303,-340 L439.89102,-340 L440.10898,-340 L440.32697,-340 L440.54495,-340 L440.76294,-340 L440.98093,-340 L441.1989,-340 L441.4169,-340 L441.6349,-340 L441.85287,-340 L442.07083,-340 L442.28882,-340 L442.5068,-340 L442.7248,-340 L442.94278,-340 L443.16077,-340 L443.37875,-340 L443.59674,-340 L443.81473,-340 L444.03268,-340 L444.25067,-340 L444.46866,-340 L444.68665,-340 L444.90463,-340 L445.12262,-340 L445.3406,-340 L445.5586,-340 L445.77658,-340 L445.99454,-340 L446.21252,-340 L446.4305,-340 L446.6485,-340 L446.8665,-340 L447.08447,-340 L447.30246,-340 L447.52045,-340 L447.73843,-340 L447.9564,-340 L448.17438,-340 L448.39236,-340 L448.61035,-340 L448.82834,-340 L449.04633,-340 L449.2643,-340 L449.4823,-340 L449.7003,-340 L449.91824,-340 L450.13623,-340 L450.35422,-340 L450.5722,-340 L450.7902,-340 L451.00818,-340 L451.22617,-340 L451.44415,-340 L451.66214,-340 L451.8801,-340 L452.09808,-340 L452.31607,-340 L452.53406,-340 L452.75204,-340 L452.97003,-340 L453.18802,-340 L453.406,-340 L453.624,-340 L453.84195,-340 L454.05994,-340 L454.27792,-340 L454.4959,-340 L454.7139,-340 L454.9319,-340 L455.14987,-340 L455.36786,-340 L455.58585,-340 L455.8038,-340 L456.0218,-340 L456.23978,-340 L456.45776,-340 L456.67575,-340 L456.89374,-340 L457.11172,-340 L457.3297,-340 L457.5477,-340 L457.76566,-340 L457.98364,-340 L458.20163,-340 L458.41962,-340 L458.6376,-340 L458.8556,-340 L459.07358,-340 L459.29156,-340 L459.50955,-340 L459.7275,-340 L459.9455,-340 L460.16348,-340 L460.38147,-340 L460.59946,-340 L460.81744,-340 L461.03543,-340 L461.25342,-340 L461.47137,-340 L461.68936,-340 L461.90735,-340 L462.12534,-340 L462.34332,-340 L462.5613,-340 L462.7793,-340 L462.99728,-340 L463.21527,-340 L463.43323,-340 L463.6512,-340 L463.8692,-340 L464.0872,-340 L464.30518,-340 L464.52316,-340 L464.74115,-340 L464.95914,-340 L465.17712,-340 L465.39508,-340 L465.61307,-340 L465.83105,-340 L466.04904,-340 L466.26703,-340 L466.48502,-340 L466.703,-340 L466.921,-340 L467.13898,-340 L467.35693,-340 L467.57492,-340 L467.7929,-340 L468.0109,-340 L468.22888,-340 L468.44687,-340 L468.66486,-340 L468.88284,-340 L469.10083,-340 L469.3188,-340 L469.53677,-340 L469.75476,-340 L469.97275,-340 L470.19073,-340 L470.40872,-340 L470.6267,-340 L470.8447,-340 L471.06268,-340 L471.28064,-340 L471.49863,-340 L471.7166,-340 L471.9346,-340 L472.1526,-340 L472.37057,-340 L472.58856,-340 L472.80655,-340 L473.02454,-340 L473.2425,-340 L473.46048,-340 L473.67847,-340 L473.89645,-340 L474.11444,-340 L474.33243,-340 L474.5504,-340 L474.7684,-340 L474.9864,-340 L475.20435,-340 L475.42233,-340 L475.64032,-340 L475.8583,-340 L476.0763,-340 L476.29428,-340 L476.51227,-340 L476.73026,-340 L476.94824,-340 L477.1662,-340 L477.3842,-340 L477.60217,-340 L477.82016,-340 L478.03815,-340 L478.25613,-340 L478.47412,-340 L478.6921,-340 L478.9101,-340 L479.12805,-340 L479.34604,-340 L479.56403,-340 L479.782,-340 L480,-340" fill="none" stroke="black" stroke-linejoin="round" stroke-width="2"/>
</g>
</g>
<g>
<g>
<line stroke="black" stroke-width="1" x1="0" x2="0" y1="0" y2="10"/>
<line stroke="black" stroke-width="1" x1="87.19346049046321" x2="87.19346049046321" y1="0" y2="10"/>
<line stroke="black" stroke-width="1" x1="174.38692098092642" x2="174.38692098092642" y1="0" y2="10"/>
<line stroke="black" stroke-width="1" x1="261.58038147138967" x2="261.58038147138967" y1="0" y2="10"/>
<line stroke="black" stroke-width="1" x1="348.77384196185284" x2="348.77384196185284" y1="0" y2="10"/>
<line stroke="black" stroke-width="1" x1="435.96730245231606" x2="435.96730245231606" y1="0" y2="10"/>
</g>
<line stroke="black" stroke-width="1" x1="0" x2="480" y1="0" y2="0"/>
<g>
<text font-size="12" text-anchor="middle" x="0" y="20">
0
</text>
<text font-size="12" text-anchor="middle" x="87.19346049046321" y="20">
400
</text>
<text font-size="12" text-anchor="middle" x="174.38692098092642" y="20">
800
</text>
<text font-size="12" text-anchor="middle" x="261.58038147138967" y="20">
1200
</text>
<text font-size="12" text-anchor="middle" x="348.77384196185284" y="20">
1600
</text>
<text font-size="12" text-anchor="middle" x="435.96730245231606" y="20">
2000
</text>
</g>
<text font-size="12" text-anchor="middle" x="240" y="30">

</text>
</g>
<g>
<g>
<line stroke="black" stroke-width="1" x1="0" x2="-10" y1="-0" y2="-0"/>
<line stroke="black" stroke-width="1" x1="0" x2="-10" y1="-68" y2="-68"/>
<line stroke="black" stroke-width="1" x1="0" x2="-10" y1="-136" y2="-136"/>
<line stroke="black" stroke-width="1" x1="0" x2="-10" y1="-204" y2="-204"/>
<line stroke="black" stroke-width="1" x1="0" x2="-10" y1="-272" y2="-272"/>
<line stroke="black" stroke-width="1" x1="0" x2="-10" y1="-340" y2="-340"/>
</g>
<line stroke="black" stroke-width="1" x1="0" x2="0" y1="0" y2="-340"/>
<g>
<text dominant-baseline="middle" font-size="12" text-anchor="end" x="-15" y="-0">
0
</text>
<text dominant-baseline="middle" font-size="12" text-anchor="end" x="-15" y="-68">
0.2
</text>
<text dominant-baseline="middle" font-size="12" text-anchor="end" x="-15" y="-136">
0.4
</text>
<text dominant-baseline="middle" font-size="12" text-anchor="end" x="-15" y="-204">
0.6
</text>
<text dominant-baseline="middle" font-size="12" text-anchor="end" x="-15" y="-272">
0.8
</text>
<text dominant-baseline="middle" font-size="12" text-anchor="end" x="-15" y="-340">
1
</text>
</g>
<text font-size="12" text-anchor="middle" transform="rotate(-90 -36 -170)" x="-36" y="-182">

</text>
</g>
</g>
</svg>