<svg viewBox="0 0 600 400" xmlns="http://www.w3.org/2000/svg">
<g transform="translate(72, 364)">
<g>
<g>
<path d="M0,-340 L0,-340 L0.6233766,-340 L1.2467532,-245.81728 L1.8701298,-161.05281 L2.4935064,-178.94753 L3.116883,-195.05278 L3.7402596,-21.182041 L4.3636365,-53.06384 L4.987013,-81.757454 L5.6103897,-107.58171 L6.233766,-130.82353 L6.857143,-151.74118 L7.4805193,-170.56706 L8.103896,-93.32763 L8.727273,-117.994865 L9.350649,-140.19537 L9.974026,-160.17584 L10.597403,-178.15826 L11.220779,-194.34244 L11.844156,-208.90819 L12.467532,-222.01736 L13.090909,-233.81563 L13.714286,-244.43407 L14.337663,-253.99066 L14.961039,-262.59158 L15.584415,-270.33243 L16.207792,-277.2992 L16.83117,-283.56927 L17.454546,-195.02962 L18.077923,-115.343925 L18.701298,-137.80954 L19.324675,-158.02858 L19.948051,-176.22572 L20.571428,-192.60315 L21.194805,-207.34283 L21.818182,-220.60855 L22.441559,-232.5477 L23.064936,-243.29292 L23.688313,-158.7809 L24.311687,-176.90282 L24.935064,-193.21254 L25.558441,-207.89128 L26.181818,-221.10216 L26.805195,-232.99194 L27.428572,-243.69275 L28.051949,-253.32347 L28.675325,-261.99112 L29.298702,-269.79202 L29.922077,-276.8128 L30.545454,-283.13153 L31.16883,-288.8184 L31.792208,-293.93652 L32.415585,-298.54288 L33.03896,-302.6886 L33.66234,-306.41974 L34.285713,-309.77777 L34.909092,-312.8 L35.532467,-315.52 L36.155846,-317.968 L36.77922,-320.1712 L37.402596,-322.15408 L38.025974,-323.93866 L38.64935,-325.5448 L39.272728,-326.99033 L39.896103,-328.2913 L40.51948,-329.46216 L41.142857,-330.51593 L41.766235,-331.46436 L42.38961,-332.3179 L43.012985,-333.08612 L43.636364,-333.7775 L44.25974,-334.39975 L44.883118,-334.95978 L45.506493,-335.4638 L46.12987,-335.91742 L46.753246,-336.32568 L47.376625,-336.6931 L48,-337.0238 L48.623375,-337.3214 L49.246754,-337.5893 L49.87013,-337.83035 L50.493507,-338.0473 L51.116882,-338.24258 L51.74026,-338.41833 L52.363636,-338.5765 L52.987015,-338.71884 L53.61039,-338.84695 L54.233765,-338.96225 L54.857143,-339.06604 L55.48052,-339.15942 L56.103897,-339.2435 L56.727272,-339.31915 L57.35065,-339.38724 L57.974026,-339.44852 L58.597404,-339.50366 L59.22078,-339.55328 L59.844154,-339.59796 L60.467533,-339.63815 L61.090908,-339.67435 L61.714287,-339.7069 L62.33766,-339.73624 L62.96104,-339.7626 L63.584415,-339.78635 L64.207794,-339.8077 L64.83117,-339.82693 L65.454544,-339.84424 L66.07792,-339.8598 L66.7013,-339.87384 L67.32468,-339.88644 L67.94805,-339.8978 L68.57143,-339.90802 L69.19481,-339.91724 L69.818184,-339.9255 L70.44156,-339.93295 L71.06493,-339.93967 L71.68831,-339.94568 L72.31169,-339.9511 L72.93507,-339.95602 L73.55844,-339.96042 L74.181816,-339.96436 L74.80519,-339.96793 L75.42857,-339.97113 L76.05195,-339.97403 L76.67532,-339.97662 L77.2987,-339.97897 L77.92208,-339.98105 L78.545456,-339.98297 L79.16883,-339.98465 L79.792206,-339.9862 L80.41558,-339.98758 L81.03896,-339.98883 L81.66234,-339.98993 L82.28571,-339.99094 L82.90909,-339.99185 L83.53247,-339.99268 L84.155846,-339.9934 L84.77922,-339.99405 L85.402596,-339.99466 L86.02597,-339.99518 L86.64935,-339.99567 L87.27273,-339.9961 L87.8961,-339.9965 L88.51948,-339.99686 L89.14286,-339.99716 L89.766235,-339.99744 L90.38961,-339.9977 L91.012985,-339.99792 L91.63636,-339.99814 L92.25974,-339.99832 L92.88312,-339.9985 L93.50649,-339.99863 L94.12987,-339.99878 L94.75325,-339.9989 L95.376625,-339.99902 L96,-339.9991 L96.623375,-339.9992 L97.24675,-339.99927 L97.87013,-339.99936 L98.49351,-339.99942 L99.11688,-339.99948 L99.74026,-339.9995 L100.36364,-245.81685 L100.987015,-66.8697 L101.61039,-0 L102.233765,-34 L102.85714,-64.6 L103.48052,-92.14 L104.1039,-22.74327 L104.72727,-54.468945 L105.35065,-83.02205 L105.97403,-108.71984 L106.597404,-131.84785 L107.22078,-152.66307 L107.844154,-171.39676 L108.46753,-188.2571 L109.09091,-203.43138 L109.71429,-217.08824 L110.33766,-229.37943 L110.96104,-146.25874 L111.58442,-165.63287 L112.207794,-183.06958 L112.83117,-198.76262 L113.454544,-212.88637 L114.07792,-225.59773 L114.7013,-237.03795 L115.32468,-247.33415 L115.94805,-256.60074 L116.57143,-264.94067 L117.19481,-272.4466 L117.818184,-279.20193 L118.44156,-285.28174 L119.06493,-290.75357 L119.68831,-295.67822 L120.31169,-300.11038 L120.93507,-304.09937 L121.55844,-307.68942 L122.181816,-310.92047 L122.80519,-313.82843 L123.42857,-316.4456 L124.05195,-318.80103 L124.67532,-320.92093 L125.2987,-322.82883 L125.92208,-324.54596 L126.545456,-326.09137 L127.16883,-327.4822 L127.792206,-328.734 L128.41559,-329.8606 L129.03896,-330.87454 L129.66234,-331.78708 L130.28572,-332.60837 L130.90909,-333.34753 L131.53247,-334.0128 L132.15584,-334.6115 L132.77922,-240.96762 L133.4026,-250.87086 L134.02597,-165.60104 L134.64935,-183.04094 L135.27272,-198.73685 L135.8961,-212.86316 L136.51949,-225.57684 L137.14285,-237.01917 L137.76624,-247.31725 L138.38962,-256.5855 L139.01299,-264.92697 L139.63637,-272.43427 L140.25974,-279.19086 L140.88312,-285.27176 L141.5065,-290.7446 L142.12987,-295.67014 L142.75325,-300.10312 L143.37662,-304.0928 L144,-307.68353 L144.62338,-310.91516 L145.24675,-313.82364 L145.87013,-222.25856 L146.4935,-234.0327 L147.11688,-244.62943 L147.74026,-254.16649 L148.36363,-262.74985 L148.98701,-270.47485 L149.61038,-277.42737 L150.23376,-283.68463 L150.85715,-289.31616 L151.48051,-294.38455 L152.1039,-298.9461 L152.72728,-303.05148 L153.35065,-306.74634 L153.97403,-310.07172 L154.5974,-313.06454 L155.22078,-315.7581 L155.84416,-318.18228 L156.46753,-320.36404 L157.09091,-322.32764 L157.71428,-324.09488 L158.33766,-325.6854 L158.96104,-327.11685 L159.58441,-328.40515 L160.2078,-329.56464 L160.83116,-330.6082 L161.45454,-331.54736 L162.07793,-332.39264 L162.7013,-333.15338 L163.32468,-333.83804 L163.94806,-334.45422 L164.57143,-335.0088 L165.19481,-335.50793 L165.81818,-335.95712 L166.44156,-336.36142 L167.06494,-336.72528 L167.68831,-337.05273 L168.31169,-337.34747 L168.93506,-337.61273 L169.55844,-243.66872 L170.18182,-253.30185 L170.80519,-261.97168 L171.42857,-269.7745 L172.05194,-276.79706 L172.67532,-283.11734 L173.2987,-194.62288 L173.92207,-209.1606 L174.54546,-222.24454 L175.16884,-234.02008 L175.7922,-150.43535 L176.41559,-169.39182 L177.03896,-186.45262 L177.66234,-201.80736 L178.28572,-215.62663 L178.90909,-228.06396 L179.53247,-239.25757 L180.15584,-249.33182 L180.77922,-258.39862 L181.4026,-266.55878 L182.02597,-273.9029 L182.64935,-280.5126 L183.27272,-286.46133 L183.8961,-291.81522 L184.51949,-296.6337 L185.14285,-300.9703 L185.76624,-304.8733 L186.38962,-308.38596 L187.01299,-311.54736 L187.63637,-314.39264 L188.25974,-316.95337 L188.88312,-319.25803 L189.5065,-321.3322 L190.12987,-323.199 L190.75325,-324.8791 L191.37662,-326.3912 L192,-327.75208 L192.62338,-328.97687 L193.24675,-330.0792 L193.87013,-331.07126 L194.4935,-331.96414 L195.11688,-332.76773 L195.74026,-333.49094 L196.36363,-334.14185 L196.98701,-334.72766 L197.61038,-335.2549 L198.23376,-335.7294 L198.85715,-336.15646 L199.48051,-336.54083 L200.1039,-336.88675 L200.72728,-337.19806 L201.35065,-337.47827 L201.97403,-337.73044 L202.5974,-337.9574 L203.22078,-243.97893 L203.84416,-253.58102 L204.46753,-262.22293 L205.09091,-270.00064 L205.71428,-277.00058 L206.33766,-283.3005 L206.96104,-288.97046 L207.58441,-294.07343 L208.2078,-298.66608 L208.83116,-302.79947 L209.45454,-306.51953 L210.07793,-309.86755 L210.7013,-312.8808 L211.32468,-315.59274 L211.94806,-318.03345 L212.57143,-320.2301 L213.19481,-322.2071 L213.81818,-323.9864 L214.44156,-325.58774 L215.06494,-327.02896 L215.68831,-328.32608 L216.31169,-329.49347 L216.93506,-330.54413 L217.55844,-331.48972 L218.18182,-332.34073 L218.80519,-333.10666 L219.42857,-333.796 L220.05194,-334.4164 L220.67532,-334.97476 L221.2987,-335.4773 L221.92207,-335.92957 L222.54546,-336.3366 L223.16884,-336.70294 L223.7922,-337.03265 L224.41559,-337.32938 L225.03896,-337.59644 L225.66234,-337.8368 L226.28572,-338.05313 L226.90909,-338.2478 L227.53247,-338.42303 L228.15584,-338.58072 L228.77922,-338.72266 L229.4026,-338.85037 L230.02597,-338.96536 L230.64935,-339.06882 L231.27272,-339.16193 L231.8961,-339.24573 L232.51949,-339.32117 L233.14285,-339.38904 L233.76624,-339.45013 L234.38962,-339.50513 L235.01299,-339.55463 L235.63637,-339.59915 L236.25974,-339.63925 L236.88312,-339.67532 L237.5065,-339.7078 L238.12987,-339.737 L238.75325,-339.7633 L239.37662,-339.787 L240,-339.8083 L240.62338,-339.82745 L241.24675,-339.8447 L241.87013,-339.86023 L242.4935,-339.8742 L243.11688,-339.88678 L243.74026,-339.8981 L244.36363,-339.9083 L244.98701,-339.91748 L245.61038,-339.92572 L246.23376,-339.93314 L246.85715,-339.93985 L247.48051,-339.94586 L248.1039,-339.95126 L248.72728,-339.95615 L249.35065,-339.96054 L249.97403,-339.96448 L250.5974,-339.96802 L251.22078,-339.97122 L251.84416,-339.9741 L252.46753,-339.97668 L253.09091,-339.97903 L253.71428,-339.9811 L254.33766,-339.983 L254.96104,-339.9847 L255.58441,-339.98624 L256.2078,-339.9876 L256.83118,-339.98886 L257.45456,-339.98996 L258.0779,-339.99097 L258.7013,-339.99188 L259.32468,-339.99268 L259.94806,-339.9934 L260.57144,-339.99408 L261.1948,-339.99466 L261.81818,-339.9952 L262.44156,-339.99567 L263.06494,-339.99612 L263.68832,-339.9965 L264.31168,-339.99686 L264.93506,-339.99716 L265.55844,-339.99744 L266.18182,-339.9977 L266.8052,-339.99792 L267.42856,-339.99814 L268.05194,-339.99832 L268.67532,-339.9985 L269.2987,-339.99866 L269.9221,-339.99878 L270.54544,-339.9989 L271.16882,-339.99902 L271.7922,-339.9991 L272.4156,-339.9992 L273.03897,-339.99927 L273.66232,-339.99936 L274.2857,-339.99942 L274.9091,-339.99948 L275.53247,-339.99954 L276.15585,-339.99957 L276.77924,-339.9996 L277.4026,-339.99966 L278.02597,-339.9997 L278.64935,-339.99973 L279.27274,-339.99976 L279.89612,-339.9998 L280.51947,-339.9998 L281.14285,-339.99982 L281.76624,-339.99985 L282.38962,-339.99985 L283.013,-339.99988 L283.63635,-339.99988 L284.25974,-339.99988 L284.88312,-339.9999 L285.5065,-339.9999 L286.12988,-339.9999 L286.75323,-339.99994 L287.37662,-339.99994 L288,-339.99994 L288.62338,-339.99994 L289.24677,-339.99994 L289.87012,-339.99997 L290.4935,-339.99997 L291.11688,-339.99997 L291.74026,-339.99997 L292.36365,-339.99997 L292.987,-339.99997 L293.61038,-339.99997 L294.23376,-339.99997 L294.85715,-339.99997 L295.48053,-339.99997 L296.10388,-340 L296.72726,-340 L297.35065,-340 L297.97403,-340 L298.5974,-340 L299.22076,-340 L299.84415,-340 L300.46753,-340 L301.0909,-340 L301.7143,-340 L302.33768,-340 L302.96103,-340 L303.5844,-340 L304.2078,-340 L304.83118,-340 L305.45456,-340 L306.0779,-340 L306.7013,-340 L307.32468,-340 L307.94806,-340 L308.57144,-340 L309.1948,-340 L309.81818,-340 L310.44156,-340 L311.06494,-340 L311.68832,-340 L312.31168,-340 L312.93506,-340 L313.55844,-340 L314.18182,-340 L314.8052,-340 L315.42856,-340 L316.05194,-340 L316.67532,-340 L317.2987,-340 L317.9221,-340 L318.54544,-340 L319.16882,-340 L319.7922,-340 L320.4156,-340 L321.03897,-340 L321.66232,-340 L322.2857,-340 L322.9091,-340 L323.53247,-340 L324.15585,-340 L324.77924,-340 L325.4026,-245.81728 L326.02597,-255.23555 L326.64935,-263.71198 L327.27274,-271.3408 L327.89612,-278.20673 L328.51947,-284.38605 L329.14285,-289.94745 L329.76624,-294.9527 L330.38962,-299.45743 L331.013,-303.5117 L331.63635,-307.16052 L332.25974,-310.44446 L332.88312,-313.40002 L333.5065,-316.06003 L334.12988,-318.454 L334.75323,-320.6086 L335.37662,-322.54776 L336,-324.29297 L336.62338,-325.86368 L337.24677,-327.2773 L337.87012,-328.5496 L338.4935,-329.6946 L339.11688,-330.72516 L339.74026,-331.65265 L340.36365,-332.48737 L340.987,-333.23865 L341.61038,-333.91476 L342.23376,-334.5233 L342.85715,-335.07098 L343.48053,-335.56387 L344.10388,-336.00748 L344.72726,-336.40674 L345.35065,-336.76605 L345.97403,-337.08945 L346.5974,-337.38052 L347.22076,-337.64246 L347.84415,-337.8782 L348.46753,-338.0904 L349.0909,-338.28134 L349.7143,-338.45322 L350.33768,-338.6079 L350.96103,-338.7471 L351.5844,-338.8724 L352.2078,-338.98517 L352.83118,-339.08664 L353.45456,-339.17798 L354.0779,-339.2602 L354.7013,-339.33417 L355.32468,-339.40076 L355.94806,-339.46066 L356.57144,-339.51462 L357.1948,-339.56314 L357.81818,-339.60684 L358.44156,-339.64615 L359.06494,-339.68152 L359.68832,-339.71338 L360.31168,-339.74203 L360.93506,-339.76782 L361.55844,-339.79105 L362.18182,-339.81195 L362.8052,-339.83075 L363.42856,-339.8477 L364.05194,-339.8629 L364.67532,-339.87662 L365.2987,-339.88895 L365.9221,-339.90005 L366.54544,-339.91006 L367.16882,-339.91904 L367.7922,-339.92715 L368.4156,-339.93442 L369.03897,-339.94098 L369.66232,-339.9469 L370.2857,-339.9522 L370.9091,-339.95697 L371.53247,-339.96127 L372.15585,-339.96515 L372.77924,-339.96863 L373.4026,-339.97177 L374.02597,-339.9746 L374.64935,-339.97714 L375.27274,-339.97943 L375.89612,-339.98148 L376.51947,-339.98334 L377.14285,-339.985 L377.76624,-339.9865 L378.38962,-339.98785 L379.013,-339.98907 L379.63635,-339.99017 L380.25974,-339.99115 L380.88312,-339.99203 L381.5065,-339.99283 L382.12988,-339.99353 L382.75323,-339.9942 L383.37662,-339.99478 L384,-339.9953 L384.62338,-339.99576 L385.24677,-339.9962 L385.87012,-339.99658 L386.4935,-339.99692 L387.11688,-339.99722 L387.74026,-339.9975 L388.36365,-339.99774 L388.987,-339.998 L389.61038,-339.99817 L390.23376,-339.99835 L390.85715,-339.99854 L391.48053,-339.99866 L392.10388,-339.9988 L392.72726,-339.99893 L393.35065,-339.99902 L393.97403,-339.9991 L394.5974,-339.9992 L395.22076,-339.9993 L395.84415,-339.99936 L396.46753,-339.99942 L397.0909,-339.99948 L397.7143,-339.99954 L398.33768,-339.99957 L398.96103,-339.99963 L399.5844,-339.99966 L400.2078,-339.9997 L400.83118,-339.99973 L401.45456,-339.99976 L402.0779,-339.9998 L402.7013,-339.9998 L403.32468,-339.99982 L403.94806,-339.99985 L404.57144,-339.99985 L405.1948,-339.99988 L405.81818,-339.99988 L406.44156,-339.9999 L407.06494,-339.9999 L407.68832,-339.9999 L408.31168,-339.9999 L408.93506,-339.99994 L409.55844,-339.99994 L410.18182,-339.99994 L410.8052,-339.99994 L411.42856,-339.99997 L412.05194,-339.99997 L412.67532,-339.99997 L413.2987,-339.99997 L413.9221,-339.99997 L414.54544,-339.99997 L415.16882,-339.99997 L415.7922,-339.99997 L416.4156,-339.99997 L417.03897,-339.99997 L417.66232,-339.99997 L418.2857,-340 L418.9091,-340 L419.53247,-340 L420.15585,-340 L420.77924,-340 L421.4026,-340 L422.02597,-340 L422.64935,-340 L423.27274,-340 L423.89612,-340 L424.51947,-340 L425.14285,-340 L425.76624,-340 L426.38962,-340 L427.013,-340 L427.63635,-340 L428.25974,-340 L428.88312,-340 L429.5065,-340 L430.12988,-340 L430.75323,-340 L431.37662,-340 L432,-340 L432.62338,-340 L433.24677,-340 L433.87012,-340 L434.4935,-340 L435.11688,-340 L435.74026,-340 L436.36365,-340 L436.987,-340 L437.61038,-340 L438.23376,-340 L438.85715,-340 L439.48053,-340 L440.10388,-340 L440.72726,-340 L441.35065,-340 L441.97403,-340 L442.5974,-340 L443.22076,-340 L443.84415,-340 L444.46753,-340 L445.0909,-340 L445.7143,-340 L446.33768,-340 L446.96103,-340 L447.5844,-340 L448.2078,-340 L448.83118,-340 L449.45456,-340 L450.0779,-340 L450.7013,-340 L451.32468,-340 L451.94806,-340 L452.57144,-340 L453.1948,-340 L453.81818,-340 L454.44156,-340 L455.06494,-340 L455.68832,-340 L456.31168,-340 L456.93506,-340 L457.55844,-340 L458.18182,-340 L458.8052,-340 L459.42856,-340 L460.05194,-340 L460.67532,-340 L461.2987,-340 L461.9221,-340 L462.54544,-340 L463.16882,-340 L463.7922,-340 L464.4156,-340 L465.03897,-340 L465.66232,-340 L466.2857,-340 L466.9091,-340 L467.53247,-340 L468.15585,-340 L468.77924,-340 L469.4026,-340 L470.02597,-340 L470.64935,-340 L471.27274,-340 L471.89612,-340 L472.51947,-340 L473.14285,-340 L473.76624,-340 L474.38962,-340 L475.013,-340 L475.63635,-340 L476.25974,-340 L476.88312,-340 L477.5065,-340 L478.12988,-340 L478.75323,-340 L479.37662,-340 L480,-340" fill="none" stroke="black" stroke-linejoin="round" stroke-width="2"/>
</g>
</g>
<g>
<g>
<line stroke="black" stroke-width="1" x1="0" x2="0" y1="0" y2="10"/>
<line stroke="black" stroke-width="1" x1="124.67532467532467" x2="124.67532467532467" y1="0" y2="10"/>
<line stroke="black" stroke-width="1" x1="249.35064935064935" x2="249.35064935064935" y1="0" y2="10"/>
<line stroke="black" stroke-width="1" x1="374.02597402597405" x2="374.02597402597405" y1="0" y2="10"/>
</g>
<line stroke="black" stroke-width="1" x1="0" x2="480" y1="0" y2="0"/>
<g>
<text font-size="12" text-anchor="middle" x="0" y="20">
0
</text>
<text font-size="12" text-anchor="middle" x="124.67532467532467" y="20">
200
</text>
<text font-size="12" text-anchor="middle" x="249.35064935064935" y="20">
400
</text>
<text font-size="12" text-anchor="middle" x="374.02597402597405" y="20">
600
</text>
</g>
<text font-size="12" text-anchor="middle" x="240" y="30">

</text>
</g>
<g>
<g>
<line stroke="black" stroke-width="1" x1="0" x2="-10" y1="-0.0003455553649170885" y2="-0.0003455553649170885"/>
<line stroke="black" stroke-width="1" x1="0" x2="-10" y1="-94.18307531842171" y2="-94.18307531842171"/>
<line stroke="black" stroke-width="1" x1="0" x2="-10" y1="-188.3658050814785" y2="-188.3658050814785"/>
<line stroke="black" stroke-width="1" x1="0" x2="-10" y1="-282.54853484453525" y2="-282.54853484453525"/>
</g>
<line stroke="black" stroke-width="1" x1="0" x2="0" y1="0" y2="-340"/>
<g>
<text dominant-baseline="middle" font-size="12" text-anchor="end" x="-15" y="-0.0003455553649170885">
0.639
</text>
<text dominant-baseline="middle" font-size="12" text-anchor="end" x="-15" y="-94.18307531842171">
0.739
</text>
<text dominant-baseline="middle" font-size="12" text-anchor="end" x="-15" y="-188.3658050814785">
0.839
</text>
<text dominant-baseline="middle" font-size="12" text-anchor="end" x="-15" y="-282.54853484453525">
0.939
</text>
</g>
<text font-size="12" text-anchor="middle" transform="rotate(-90 -60 -170)" x="-60" y="-182">

</text>
</g>
</g>
</svg>