<svg viewBox="0 0 600 400" xmlns="http://www.w3.org/2000/svg">
<g transform="translate(72, 364)">
<g>
<g>
<path d="M0,-324.02255 L0,-324.02255 L1.1970075,-325.6203 L2.394015,-311.08078 L3.5910225,-313.97272 L4.78803,-252.6654 L5.9850373,-261.39886 L7.182045,-269.259 L8.379052,-260.3556 L9.57606,-252.34253 L10.773067,-197.19824 L11.970075,-211.47842 L13.167082,-208.35309 L14.36409,-157.60774 L15.561097,-159.86948 L16.758104,-177.88254 L17.955112,-194.09428 L19.15212,-208.68486 L20.349127,-205.83888 L21.546135,-203.27748 L22.743143,-216.94974 L23.94015,-213.27727 L25.137157,-162.0395 L26.334164,-163.85806 L27.531172,-165.49475 L28.72818,-119.03525 L29.925186,-125.15422 L31.122194,-82.72877 L32.319202,-92.478386 L33.51621,-101.253044 L34.71322,-61.217712 L35.910225,-89.09595 L37.10723,-50.27632 L38.30424,-79.248695 L39.501247,-105.32384 L40.698254,-112.81395 L41.895264,-119.55505 L43.09227,-125.62205 L44.289276,-147.05984 L45.486286,-102.44383 L46.683292,-62.289417 L47.8803,-90.060486 L49.077305,-115.05444 L50.274315,-137.54901 L51.47132,-157.79411 L52.668327,-176.01471 L53.865337,-192.41324 L55.062344,-207.17192 L56.25935,-220.45474 L57.45636,-216.43176 L58.653366,-164.87856 L59.850372,-166.41321 L61.047382,-167.79437 L62.24439,-121.10491 L63.441395,-127.016914 L64.638405,-148.31523 L65.83541,-167.48372 L67.03242,-168.75784 L68.22942,-169.90456 L69.42644,-186.91411 L70.62344,-202.2227 L71.82045,-152.09041 L73.017456,-170.88138 L74.21446,-171.81573 L75.41147,-172.65666 L76.60848,-125.48096 L77.80549,-146.93288 L79.002495,-166.2396 L80.1995,-183.61565 L81.39651,-199.25409 L82.59351,-197.35117 L83.79053,-195.63855 L84.98753,-146.16467 L86.18454,-101.63817 L87.381546,-109.49685 L88.57855,-132.54718 L89.77556,-153.29247 L90.97257,-171.96323 L92.16958,-188.7669 L93.366585,-203.89023 L94.56359,-217.5012 L95.7606,-229.7511 L96.9576,-240.776 L98.15461,-250.69841 L99.35162,-259.62857 L100.54863,-267.6657 L101.745636,-274.89917 L102.94264,-281.40924 L104.13965,-287.26834 L105.336655,-292.5415 L106.53367,-297.28735 L107.730675,-301.55862 L108.92768,-305.40277 L110.12469,-308.86252 L111.32169,-311.97626 L112.5187,-314.77866 L113.71571,-317.30078 L114.91272,-319.5707 L116.109726,-321.61365 L117.30673,-323.4523 L118.50374,-325.1071 L119.700745,-326.59637 L120.89776,-327.93674 L122.094765,-329.14307 L123.29177,-330.22876 L124.48878,-331.2059 L125.68578,-332.08533 L126.88279,-332.8768 L128.0798,-333.5891 L129.27681,-334.23022 L130.47382,-334.8072 L131.67082,-335.32648 L132.86783,-335.79385 L134.06483,-336.21448 L135.26184,-336.59302 L136.45885,-336.93375 L137.65585,-337.24036 L138.85287,-337.51633 L140.04988,-337.7647 L141.24689,-337.98825 L142.4439,-338.18942 L143.6409,-338.37048 L144.8379,-338.53345 L146.03491,-338.6801 L147.23192,-338.8121 L148.42892,-338.9309 L149.62593,-339.0378 L150.82294,-339.13406 L152.01994,-339.22064 L153.21696,-339.29858 L154.41397,-339.36874 L155.61098,-339.4319 L156.80798,-339.4887 L158.00499,-339.53983 L159.202,-339.58585 L160.399,-339.6273 L161.59601,-339.66455 L162.79301,-339.69812 L163.99002,-339.7283 L165.18703,-339.7555 L166.38403,-339.77994 L167.58105,-339.80194 L168.77806,-339.82178 L169.97507,-339.8396 L171.17207,-339.85565 L172.36908,-339.8701 L173.56609,-339.8831 L174.76309,-339.89478 L175.9601,-339.9053 L177.1571,-339.9148 L178.35411,-339.9233 L179.55112,-339.931 L180.74812,-339.9379 L181.94514,-339.94412 L183.14215,-339.9497 L184.33916,-339.95474 L185.53616,-339.9593 L186.73317,-339.96335 L187.93018,-339.96704 L189.12718,-339.97034 L190.32419,-339.9733 L191.5212,-339.97598 L192.7182,-339.9784 L193.9152,-339.98056 L195.11221,-339.9825 L196.30922,-339.98428 L197.50624,-339.98584 L198.70325,-339.98727 L199.90025,-339.98856 L201.09726,-339.98972 L202.29427,-339.99075 L203.49127,-339.99167 L204.68828,-339.99252 L205.88528,-339.99326 L207.08229,-339.99396 L208.2793,-339.99457 L209.4763,-339.99512 L210.67331,-339.9956 L211.87033,-339.99606 L213.06734,-339.99646 L214.26434,-339.99683 L215.46135,-339.99713 L216.65836,-339.99744 L217.85536,-339.9977 L219.05237,-339.99792 L220.24937,-339.99814 L221.44638,-339.99835 L222.64339,-339.9985 L223.8404,-339.9987 L225.0374,-339.9988 L226.23442,-339.99893 L227.43143,-339.99905 L228.62843,-339.99915 L229.82544,-339.99924 L231.02245,-339.99933 L232.21945,-339.9994 L233.41646,-339.99948 L234.61346,-339.99954 L235.81047,-339.99957 L237.00748,-339.99963 L238.20448,-339.99966 L239.40149,-339.99973 L240.59851,-339.99976 L241.79552,-339.9998 L242.99252,-339.99982 L244.18953,-339.99985 L245.38654,-339.99988 L246.58354,-339.99988 L247.78055,-339.9999 L248.97755,-339.9999 L250.17456,-339.99994 L251.37157,-339.99994 L252.56857,-339.99997 L253.76558,-339.99997 L254.9626,-339.99997 L256.1596,-340 L257.3566,-340 L258.55362,-324.0225 L259.7506,-309.64276 L260.94763,-248.76845 L262.14465,-241.9141 L263.34164,-235.74518 L264.53867,-182.26064 L265.73566,-182.05707 L266.93268,-181.87386 L268.12967,-181.70897 L269.3267,-181.56058 L270.52368,-133.49449 L271.7207,-138.16754 L272.9177,-142.37328 L274.11472,-98.22592 L275.3117,-58.493298 L276.50873,-70.666466 L277.70575,-97.59983 L278.90274,-57.929813 L280.09976,-70.15933 L281.29675,-33.233368 L282.49377,-0 L283.69077,-34.000008 L284.8878,-64.60001 L286.08478,-92.14002 L287.2818,-116.926025 L288.4788,-139.23343 L289.6758,-159.31009 L290.8728,-177.37909 L292.06982,-193.64119 L293.26685,-208.27708 L294.46384,-221.44937 L295.66086,-233.30444 L296.85785,-243.97401 L298.05487,-253.57661 L299.25186,-262.21896 L300.44888,-269.99707 L301.64587,-276.99738 L302.8429,-283.29764 L304.0399,-288.9679 L305.2369,-294.0711 L306.43393,-298.664 L307.63092,-302.7976 L308.82794,-306.51785 L310.02493,-245.95604 L311.22195,-255.36044 L312.41895,-263.8244 L313.61597,-271.442 L314.81296,-278.2978 L316.00998,-284.46802 L317.20697,-274.0437 L318.404,-264.66183 L319.60098,-272.19565 L320.798,-262.9986 L321.99503,-206.7887 L323.19202,-204.13232 L324.38904,-201.7416 L325.58603,-151.65741 L326.78305,-154.51416 L327.98004,-157.08525 L329.17706,-159.39922 L330.37405,-161.4818 L331.57108,-115.423584 L332.76807,-137.88123 L333.9651,-158.09312 L335.1621,-176.28381 L336.3591,-192.65544 L337.55612,-207.38991 L338.7531,-220.65092 L339.95013,-232.58583 L341.14713,-243.32726 L342.34415,-252.99454 L343.54114,-261.6951 L344.73816,-269.5256 L345.93515,-276.57303 L347.13217,-282.91574 L348.32916,-288.62418 L349.52618,-293.76178 L350.7232,-298.3856 L351.9202,-302.54706 L353.11722,-306.29236 L354.3142,-309.66312 L355.51123,-312.6968 L356.70822,-315.42715 L357.90524,-317.88443 L359.10223,-320.096 L360.29926,-322.0864 L361.49625,-259.96774 L362.69327,-267.97098 L363.8903,-275.1739 L365.08728,-281.6565 L366.2843,-287.49084 L367.4813,-292.7418 L368.6783,-297.46762 L369.8753,-285.74335 L371.07233,-291.169 L372.26932,-280.07462 L373.46634,-286.06717 L374.66333,-291.46045 L375.86035,-296.31442 L377.05734,-236.77293 L378.25436,-231.11815 L379.4514,-226.02882 L380.64838,-237.42595 L381.8454,-247.68336 L383.0424,-256.91504 L384.2394,-249.24603 L385.4364,-242.34392 L386.63342,-236.13203 L387.8304,-246.51883 L389.02744,-191.95692 L390.22443,-206.76123 L391.42145,-220.08511 L392.61844,-232.07661 L393.81546,-242.86896 L395.01248,-252.58208 L396.20947,-261.32388 L397.4065,-269.1915 L398.6035,-276.27234 L399.8005,-282.6451 L400.9975,-288.3806 L402.19452,-293.54257 L403.3915,-298.18832 L404.58853,-302.36948 L405.78552,-306.13254 L406.98254,-309.5193 L408.17957,-312.56738 L409.37656,-299.33313 L410.57358,-287.42233 L411.77057,-228.77007 L412.9676,-223.91556 L414.16458,-171.61397 L415.3616,-124.54254 L416.5586,-130.11078 L417.7556,-151.09972 L418.9526,-169.98975 L420.14963,-186.99078 L421.34662,-202.29172 L422.54364,-216.06255 L423.74066,-228.4563 L424.93765,-239.61067 L426.13467,-249.64961 L427.33167,-258.68466 L428.5287,-266.8162 L429.72568,-274.13458 L430.9227,-280.72113 L432.1197,-286.64902 L433.3167,-291.98413 L434.5137,-296.78574 L435.71072,-301.10718 L436.90775,-304.99646 L438.10474,-244.58678 L439.30176,-254.12811 L440.49875,-262.7153 L441.69577,-270.4438 L442.89276,-277.3994 L444.08978,-283.6595 L445.28677,-289.29355 L446.4838,-294.3642 L447.6808,-298.92776 L448.8778,-303.035 L450.0748,-306.7315 L451.27182,-294.08087 L452.46884,-298.6728 L453.66583,-302.8055 L454.86285,-306.52496 L456.05984,-309.87247 L457.25687,-312.88522 L458.45386,-315.5967 L459.65088,-318.03705 L460.84787,-320.23337 L462.0449,-322.21002 L463.24188,-323.98904 L464.4389,-325.59015 L465.63593,-327.03113 L466.83292,-328.32803 L468.02994,-329.49524 L469.22693,-330.54572 L470.42395,-331.49115 L471.62094,-332.34204 L472.81796,-333.10785 L474.01495,-333.79706 L475.21198,-334.41736 L476.40897,-334.97565 L477.606,-335.4781 L478.80298,-335.93027 L480,-336.33725" fill="none" stroke="black" stroke-linejoin="round" stroke-width="2"/>
</g>
</g>
<g>
<g>
<line stroke="black" stroke-width="1" x1="0" x2="0" y1="0" y2="10"/>
<line stroke="black" stroke-width="1" x1="119.70074812967582" x2="119.70074812967582" y1="0" y2="10"/>
<line stroke="black" stroke-width="1" x1="239.40149625935163" x2="239.40149625935163" y1="0" y2="10"/>
<line stroke="black" stroke-width="1" x1="359.1022443890274" x2="359.1022443890274" y1="0" y2="10"/>
<line stroke="black" stroke-width="1" x1="478.80299251870326" x2="478.80299251870326" y1="0" y2="10"/>
</g>
<line stroke="black" stroke-width="1" x1="0" x2="480" y1="0" y2="0"/>
<g>
<text font-size="12" text-anchor="middle" x="0" y="20">
0
</text>
<text font-size="12" text-anchor="middle" x="119.70074812967582" y="20">
100
</text>
<text font-size="12" text-anchor="middle" x="239.40149625935163" y="20">
200
</text>
<text font-size="12" text-anchor="middle" x="359.1022443890274" y="20">
300
</text>
<text font-size="12" text-anchor="middle" x="478.80299251870326" y="20">
400
</text>
</g>
<text font-size="12" text-anchor="middle" x="240" y="30">

</text>
</g>
<g>
<g>
<line stroke="black" stroke-width="1" x1="0" x2="-10" y1="-52.404903703239995" y2="-52.404903703239995"/>
<line stroke="black" stroke-width="1" x1="0" x2="-10" y1="-116.31494139176017" y2="-116.31494139176017"/>
<line stroke="black" stroke-width="1" x1="0" x2="-10" y1="-180.22497908028035" y2="-180.22497908028035"/>
<line stroke="black" stroke-width="1" x1="0" x2="-10" y1="-244.1350167688005" y2="-244.1350167688005"/>
<line stroke="black" stroke-width="1" x1="0" x2="-10" y1="-308.0450544573207" y2="-308.0450544573207"/>
</g>
<line stroke="black" stroke-width="1" x1="0" x2="0" y1="0" y2="-340"/>
<g>
<text dominant-baseline="middle" font-size="12" text-anchor="end" x="-15" y="-52.404903703239995">
-0.8
</text>
<text dominant-baseline="middle" font-size="12" text-anchor="end" x="-15" y="-116.31494139176017">
-0.4
</text>
<text dominant-baseline="middle" font-size="12" text-anchor="end" x="-15" y="-180.22497908028035">
0
</text>
<text dominant-baseline="middle" font-size="12" text-anchor="end" x="-15" y="-244.1350167688005">
0.4
</text>
<text dominant-baseline="middle" font-size="12" text-anchor="end" x="-15" y="-308.0450544573207">
0.8
</text>
</g>
<text font-size="12" text-anchor="middle" transform="rotate(-90 -48 -170)" x="-48" y="-182">

</text>
</g>
</g>
</svg>