<svg viewBox="0 0 600 400" xmlns="http://www.w3.org/2000/svg">
<g transform="translate(72, 364)">
<g>
<g>
<path d="M0,-340 L0,-340 L0.53571427,-340 L1.0714285,-340 L1.6071428,-340 L2.142857,-340 L2.6785715,-340 L3.2142856,-340 L3.75,-340 L4.285714,-340 L4.821429,-340 L5.357143,-340 L5.892857,-340 L6.428571,-340 L6.964286,-340 L7.5,-267.53513 L8.035714,-274.78162 L8.571428,-281.30347 L9.107142,-287.17313 L9.642858,-292.4558 L10.178572,-297.21024 L10.714286,-301.4892 L11.25,-305.34027 L11.785714,-308.80624 L12.321428,-311.92563 L12.857142,-314.73306 L13.392858,-317.25977 L13.928572,-319.53378 L14.464286,-321.5804 L15,-323.42236 L15.535714,-325.08014 L16.071428,-326.5721 L16.607143,-327.91492 L17.142857,-329.1234 L17.678572,-330.21106 L18.214285,-331.18997 L18.75,-332.07095 L19.285715,-332.86386 L19.821428,-333.57748 L20.357143,-334.21973 L20.892857,-334.79776 L21.428572,-299.08554 L21.964285,-303.177 L22.5,-270.62686 L23.035715,-277.56418 L23.571428,-283.80777 L24.107143,-289.427 L24.642857,-294.48428 L25.178572,-299.03586 L25.714285,-303.13226 L26.25,-306.81906 L26.785715,-310.13715 L27.321428,-313.1234 L27.857143,-315.8111 L28.392857,-318.22998 L28.928572,-320.40698 L29.464285,-322.36627 L30,-324.12964 L30.535715,-289.48425 L31.071428,-258.3034 L31.607143,-230.24063 L32.142857,-204.98413 L32.67857,-182.2533 L33.214287,-161.79553 L33.75,-143.38354 L34.285713,-126.81276 L34.82143,-111.899055 L35.357143,-134.70915 L35.892857,-155.23824 L36.42857,-173.71442 L36.964287,-190.34297 L37.5,-205.30867 L38.035713,-218.7778 L38.57143,-230.90002 L39.107143,-241.81003 L39.642857,-251.62901 L40.17857,-260.46613 L40.714287,-268.4195 L41.25,-275.57755 L41.785713,-282.0198 L42.32143,-287.8178 L42.857143,-293.03604 L43.392857,-297.73242 L43.92857,-301.9592 L44.464287,-305.76328 L45,-309.18695 L45.535713,-312.26825 L46.07143,-315.0414 L46.607143,-317.5373 L47.142857,-283.55112 L47.67857,-252.96358 L48.214287,-261.66724 L48.75,-269.5005 L49.285713,-276.55045 L49.82143,-282.89542 L50.357143,-288.60587 L50.892857,-293.74527 L51.42857,-298.37076 L51.964287,-302.53366 L52.5,-270.04788 L53.035713,-277.0431 L53.57143,-283.33878 L54.107143,-289.0049 L54.642857,-294.1044 L55.17857,-298.69397 L55.714287,-266.59213 L56.25,-237.7005 L56.785713,-247.93045 L57.32143,-257.1374 L57.857143,-265.42368 L58.392857,-272.8813 L58.92857,-279.59317 L59.464287,-213.16899 L60,-225.8521 L60.535713,-237.26688 L61.07143,-247.54019 L61.607143,-220.55374 L62.142857,-232.49837 L62.67857,-243.24854 L63.214287,-216.69125 L63.75,-192.78969 L64.28571,-207.51073 L64.82143,-220.75964 L65.35714,-232.68369 L65.89286,-243.41531 L66.42857,-253.07379 L66.96429,-261.76642 L67.5,-269.58975 L68.03571,-276.6308 L68.57143,-282.9677 L69.10714,-288.67093 L69.64286,-257.5714 L70.17857,-193.34941 L70.71429,-208.01447 L71.25,-148.74815 L71.78571,-131.64091 L72.32143,-152.47682 L72.85714,-171.22914 L73.39286,-188.10623 L73.92857,-203.29561 L74.46429,-180.73361 L75,-196.66025 L75.53571,-210.99423 L76.07143,-223.8948 L76.60714,-235.50533 L77.14286,-245.95479 L77.67857,-255.35931 L78.21429,-263.8234 L78.75,-271.44104 L79.28571,-278.29694 L79.82143,-284.46725 L80.35714,-253.78809 L80.89286,-226.17685 L81.42857,-201.32674 L81.96429,-178.96162 L82.5,-195.06546 L83.03571,-209.55891 L83.57143,-222.60303 L84.10714,-234.34273 L84.64286,-244.90845 L85.17857,-254.4176 L85.71429,-226.74341 L86.25,-238.06908 L86.78571,-248.26216 L87.32143,-257.43594 L87.85714,-265.69235 L88.39286,-236.89069 L88.92857,-210.9692 L89.46429,-223.87227 L90,-235.48505 L90.53571,-245.93654 L91.07143,-255.34288 L91.60714,-263.8086 L92.14286,-271.42773 L92.67857,-278.28497 L93.21429,-284.45645 L93.75,-290.01083 L94.28571,-295.00974 L94.82143,-299.50876 L95.35714,-303.5579 L95.89286,-307.2021 L96.42857,-310.4819 L96.96429,-313.4337 L97.5,-316.09033 L98.03571,-318.4813 L98.57143,-320.63318 L99.10714,-322.56985 L99.64286,-324.31287 L100.17857,-325.8816 L100.71429,-327.29343 L101.25,-328.5641 L101.78571,-329.70767 L102.32143,-294.5045 L102.85714,-299.05402 L103.39286,-303.14862 L103.92857,-306.83377 L104.46429,-310.1504 L105,-313.13535 L105.53571,-315.8218 L106.07143,-318.23962 L106.60714,-320.41568 L107.14286,-322.3741 L107.67857,-324.1367 L108.21429,-325.72302 L108.75,-327.15073 L109.28571,-328.43564 L109.82143,-329.59207 L110.35714,-294.40045 L110.89286,-262.72797 L111.42857,-234.22275 L111.96429,-172.3356 L112.5,-152.86961 L113.03571,-171.58266 L113.57143,-188.4244 L114.10714,-203.58195 L114.64286,-217.22375 L115.17857,-229.50137 L115.71429,-240.55124 L116.25,-250.49611 L116.78571,-259.4465 L117.32143,-267.50186 L117.85714,-274.75168 L118.39286,-281.2765 L118.92857,-287.14886 L119.46429,-292.43396 L120,-297.19058 L120.53571,-301.47153 L121.07143,-269.09192 L121.60714,-276.18274 L122.14286,-282.56445 L122.67857,-288.308 L123.21429,-293.4772 L123.75,-261.89706 L124.28571,-269.70737 L124.82143,-276.73663 L125.35714,-283.06296 L125.89286,-288.75665 L126.42857,-293.88098 L126.96429,-298.4929 L127.5,-302.64362 L128.03572,-306.37924 L128.57143,-309.74133 L129.10715,-312.76718 L129.64285,-315.49048 L130.17857,-317.94144 L130.71428,-320.14728 L131.25,-322.13257 L131.78572,-323.9193 L132.32143,-325.52737 L132.85715,-326.97464 L133.39285,-292.04474 L133.92857,-260.60782 L134.46428,-268.54706 L135,-275.69235 L135.53572,-245.89069 L136.07143,-219.06918 L136.60715,-194.92982 L137.14285,-136.97198 L137.67857,-121.04236 L138.21428,-142.93813 L138.75,-162.6443 L139.28572,-180.37988 L139.82143,-196.34189 L140.35715,-210.7077 L140.89285,-223.63693 L141.42857,-235.27324 L141.96428,-245.74591 L142.5,-255.17133 L143.03572,-263.6542 L143.57143,-235.05634 L144.10715,-173.08585 L144.64285,-153.54483 L145.17857,-135.95792 L145.71428,-120.12969 L146.25,-105.88429 L146.78572,-129.29587 L147.32143,-150.36627 L147.85715,-169.32965 L148.39285,-186.39668 L148.92857,-201.75702 L149.46428,-215.58131 L150,-228.02318 L150.53572,-239.22087 L151.07143,-213.06635 L151.60715,-189.52728 L152.14285,-204.57455 L152.67857,-218.1171 L153.21428,-230.30539 L153.75,-241.27486 L154.28572,-251.14737 L154.82143,-260.03262 L155.35715,-268.02936 L155.89285,-275.22644 L156.42857,-281.7038 L156.96428,-287.53342 L157.5,-292.78006 L158.03572,-297.50204 L158.57143,-301.75186 L159.10715,-305.57666 L159.64285,-309.019 L160.17857,-312.1171 L160.71428,-314.9054 L161.25,-317.41486 L161.78572,-319.67337 L162.32143,-321.70602 L162.85715,-323.53543 L163.39285,-325.1819 L163.92857,-290.43127 L164.46428,-295.38815 L165,-299.84933 L165.53572,-303.86438 L166.07143,-307.47797 L166.60715,-310.73016 L167.14285,-313.65714 L167.67857,-316.29144 L168.21428,-318.6623 L168.75,-320.79605 L169.28572,-322.71646 L169.82143,-324.4448 L170.35715,-326.00034 L170.89285,-327.4003 L171.42857,-328.66028 L171.96428,-293.5618 L172.5,-261.9732 L173.03572,-269.77588 L173.57143,-276.79828 L174.10715,-283.11847 L174.64285,-288.8066 L175.17857,-257.6935 L175.71428,-265.92416 L176.25,-273.33176 L176.78572,-279.99857 L177.32143,-285.99872 L177.85715,-291.39883 L178.39285,-296.25897 L178.92857,-300.63306 L179.46428,-304.56976 L180,-308.1128 L180.53572,-311.3015 L181.07143,-314.17136 L181.60715,-280.5218 L182.14285,-250.23718 L182.67857,-259.21347 L183.21428,-231.05968 L183.75,-205.72128 L184.28572,-182.91672 L184.82143,-162.39262 L185.35715,-143.92093 L185.89285,-163.52884 L186.42857,-181.17595 L186.96428,-197.05835 L187.5,-211.35252 L188.03572,-224.21727 L188.57143,-235.79555 L189.10715,-246.21599 L189.64285,-255.59439 L190.17857,-264.03494 L190.71428,-271.63147 L191.25,-278.46832 L191.78572,-284.6215 L192.32143,-290.15933 L192.85715,-295.1434 L193.39285,-299.62906 L193.92857,-303.66614 L194.46428,-307.29953 L195,-310.56958 L195.53572,-313.51263 L196.07143,-316.16138 L196.60715,-318.54523 L197.14285,-320.6907 L197.67857,-322.62164 L198.21428,-324.35947 L198.75,-325.92352 L199.28572,-327.33118 L199.82143,-328.59805 L200.35715,-329.73825 L200.89285,-330.76443 L201.42857,-295.45554 L201.96428,-263.67755 L202.5,-235.07738 L203.03572,-209.3372 L203.57143,-149.93863 L204.10715,-168.94476 L204.64285,-186.0503 L205.17857,-201.44525 L205.71428,-215.30074 L206.25,-227.77066 L206.78572,-238.99359 L207.32143,-249.09424 L207.85715,-258.1848 L208.39285,-230.1339 L208.92857,-204.88808 L209.46428,-218.39928 L210,-230.55934 L210.53572,-169.03854 L211.07143,-186.13469 L211.60715,-201.52122 L212.14285,-215.3691 L212.67857,-227.83218 L213.21428,-239.04897 L213.75,-249.14407 L214.28572,-258.22968 L214.82143,-266.4067 L215.35715,-273.76602 L215.89285,-280.38943 L216.42857,-286.3505 L216.96428,-291.71542 L217.5,-296.54388 L218.03572,-300.8895 L218.57143,-304.80057 L219.10715,-308.3205 L219.64285,-311.48843 L220.17857,-314.3396 L220.71428,-316.90564 L221.25,-319.2151 L221.78572,-321.29358 L222.32143,-323.1642 L222.85715,-324.84778 L223.39285,-326.363 L223.92857,-327.7267 L224.46428,-328.95404 L225,-330.05862 L225.53572,-331.05276 L226.07143,-331.9475 L226.60715,-332.75275 L227.14285,-333.47748 L227.67857,-297.8973 L228.21428,-265.87512 L228.75,-237.05519 L229.28572,-174.88481 L229.82143,-155.1639 L230.35715,-137.41507 L230.89285,-157.67357 L231.42857,-175.9062 L231.96428,-192.31558 L232.5,-207.08403 L233.03572,-220.37563 L233.57143,-232.33806 L234.10715,-243.10426 L234.64285,-252.79384 L235.17857,-261.51443 L235.71428,-269.363 L236.25,-276.4267 L236.78572,-282.78403 L237.32143,-252.2732 L237.85715,-188.58102 L238.39285,-203.72292 L238.92857,-217.35062 L239.46428,-193.38313 L240,-208.04482 L240.53572,-185.0079 L241.07143,-164.27469 L241.60715,-145.61478 L242.14285,-128.82088 L242.67857,-113.70635 L243.21428,-100.10329 L243.75,-87.86053 L244.28572,-76.84205 L244.82143,-66.92541 L245.35715,-58.00044 L245.89285,-49.967964 L246.42857,-42.738735 L246.96428,-0 L247.5,-34 L248.03572,-64.6 L248.57143,-92.14 L249.10715,-116.926 L249.64285,-139.2334 L250.17857,-159.31006 L250.71428,-177.37906 L251.25,-193.64114 L251.78572,-208.27704 L252.32143,-221.44933 L252.85715,-233.3044 L253.39285,-243.97395 L253.92857,-253.57657 L254.46428,-262.2189 L255,-269.997 L255.53572,-276.9973 L256.07144,-247.06516 L256.60715,-256.35864 L257.14285,-228.49034 L257.67856,-203.40887 L258.2143,-180.83556 L258.75,-196.752 L259.2857,-174.84438 L259.82144,-191.35994 L260.35715,-169.99152 L260.89285,-150.75993 L261.42856,-169.68393 L261.9643,-186.71555 L262.5,-202.04399 L263.0357,-215.83958 L263.57144,-228.25563 L264.10715,-239.43007 L264.64285,-249.48706 L265.17856,-258.53836 L265.7143,-266.6845 L266.25,-274.01605 L266.7857,-280.61447 L267.32144,-286.553 L267.85715,-291.8977 L268.39285,-296.70795 L268.92856,-301.03714 L269.4643,-304.93344 L270,-308.4401 L270.5357,-311.59607 L271.07144,-314.43646 L271.60715,-316.99283 L272.14285,-319.29355 L272.67856,-321.3642 L273.2143,-323.22778 L273.75,-324.905 L274.2857,-326.4145 L274.82144,-327.77304 L275.35715,-292.7633 L275.89285,-261.25455 L276.42856,-232.89667 L276.9643,-243.607 L277.5,-253.24629 L278.0357,-261.92166 L278.57144,-269.7295 L279.10715,-276.75656 L279.64285,-283.0809 L280.17856,-288.7728 L280.7143,-293.89554 L281.25,-298.50598 L281.7857,-302.65536 L282.32144,-306.38983 L282.85715,-309.75085 L283.39285,-312.77576 L283.92856,-315.4982 L284.4643,-317.94836 L285,-320.15353 L285.5357,-322.13818 L286.07144,-323.92438 L286.60715,-325.53192 L287.14285,-326.97873 L287.67856,-328.28085 L288.2143,-256.9879 L288.75,-265.28912 L289.2857,-272.76022 L289.82144,-279.4842 L290.35715,-285.53577 L290.89285,-290.98218 L291.42856,-295.88397 L291.9643,-300.29556 L292.5,-304.26602 L293.0357,-307.83942 L293.57144,-311.05548 L294.10715,-313.94992 L294.64285,-280.3225 L295.17856,-250.05782 L295.7143,-259.05203 L296.25,-267.14685 L296.7857,-274.43216 L297.32144,-280.98892 L297.85715,-286.89005 L298.39285,-292.20105 L298.92856,-296.98093 L299.4643,-301.28284 L300,-305.15457 L300.5357,-308.6391 L301.07144,-311.77518 L301.60715,-314.5977 L302.14285,-317.1379 L302.67856,-319.4241 L303.2143,-321.4817 L303.75,-323.33353 L304.2857,-325.00018 L304.82144,-326.50015 L305.35715,-327.85016 L305.89285,-329.06512 L306.42856,-330.15863 L306.9643,-331.14276 L307.5,-332.02847 L308.0357,-332.82562 L308.57144,-333.54306 L309.10715,-334.18875 L309.64285,-298.53745 L310.17856,-230.21884 L310.7143,-204.96454 L311.25,-218.46808 L311.7857,-230.62128 L312.32144,-241.55914 L312.85715,-251.40323 L313.39285,-260.2629 L313.92856,-268.2366 L314.4643,-275.41296 L315,-281.87167 L315.5357,-287.68448 L316.07144,-292.91605 L316.60715,-297.62445 L317.14285,-301.862 L317.67856,-305.67578 L318.2143,-309.10822 L318.75,-275.96497 L319.2857,-246.13603 L319.82144,-219.29001 L320.35715,-195.12857 L320.89285,-173.38329 L321.42856,-190.04495 L321.9643,-205.04045 L322.5,-182.30399 L323.0357,-198.07358 L323.57144,-212.26622 L324.10715,-225.0396 L324.64285,-236.53564 L325.17856,-246.88208 L325.7143,-256.19388 L326.25,-264.5745 L326.7857,-272.11703 L327.32144,-278.90533 L327.85715,-285.0148 L328.39285,-290.5133 L328.92856,-295.46198 L329.4643,-263.68335 L330,-235.0826 L330.5357,-209.3419 L331.07144,-222.40771 L331.60715,-197.93451 L332.14285,-139.6762 L332.67856,-123.47614 L333.2143,-145.12852 L333.75,-164.61568 L334.2857,-182.15411 L334.82144,-197.9387 L335.35715,-175.9124 L335.89285,-192.32115 L336.42856,-207.08904 L336.9643,-220.38014 L337.5,-232.34212 L338.0357,-243.10791 L338.57144,-252.79712 L339.10715,-261.5174 L339.64285,-269.36566 L340.17856,-276.4291 L340.7143,-282.7862 L341.25,-288.50757 L341.7857,-293.6568 L342.32144,-298.29114 L342.85715,-302.462 L343.39285,-306.21582 L343.92856,-309.59424 L344.4643,-312.63483 L345,-315.37134 L345.5357,-317.8342 L346.07144,-283.81836 L346.60715,-253.20409 L347.14285,-225.65125 L347.67856,-200.85368 L348.2143,-142.30345 L348.75,-162.0731 L349.2857,-179.8658 L349.82144,-195.87923 L350.35715,-210.29129 L350.89285,-223.26216 L351.42856,-234.93594 L351.9643,-245.44235 L352.5,-254.89812 L353.0357,-263.4083 L353.57144,-271.06747 L354.10715,-277.96072 L354.64285,-284.16464 L355.17856,-289.7482 L355.7143,-294.77338 L356.25,-263.0636 L356.7857,-234.52481 L357.32144,-245.07233 L357.85715,-254.5651 L358.39285,-263.10858 L358.92856,-270.79773 L359.4643,-277.71796 L360,-283.94617 L360.5357,-289.55154 L361.07144,-294.5964 L361.60715,-262.90433 L362.14285,-270.6139 L362.67856,-241.32007 L363.2143,-251.18806 L363.75,-260.06924 L364.2857,-268.06232 L364.82144,-275.2561 L365.35715,-281.7305 L365.89285,-287.55743 L366.42856,-292.8017 L366.9643,-297.5215 L367.5,-265.53696 L368.0357,-236.75082 L368.57144,-210.8433 L369.10715,-187.52654 L369.64285,-202.7739 L370.17856,-216.4965 L370.7143,-228.84685 L371.25,-239.96216 L371.7857,-177.50108 L372.32144,-193.75098 L372.85715,-208.37589 L373.39285,-221.53828 L373.92856,-233.38446 L374.4643,-244.04602 L375,-253.64142 L375.5357,-262.27728 L376.07144,-270.04956 L376.60715,-277.0446 L377.14285,-247.1077 L377.67856,-256.39694 L378.2143,-264.75723 L378.75,-272.28152 L379.2857,-279.05338 L379.82144,-285.14804 L380.35715,-290.6332 L380.89285,-295.56992 L381.42856,-300.0129 L381.9643,-267.77917 L382.5,-202.5364 L383.0357,-216.28276 L383.57144,-228.6545 L384.10715,-239.78905 L384.64285,-249.81013 L385.17856,-222.5967 L385.7143,-198.1046 L386.25,-212.29413 L386.7857,-225.06471 L387.32144,-236.55824 L387.85715,-246.90242 L388.39285,-256.2122 L388.92856,-264.59097 L389.4643,-272.13187 L390,-278.91867 L390.5357,-248.79439 L391.07144,-257.91495 L391.60715,-266.12344 L392.14285,-273.5111 L392.67856,-280.16 L393.2143,-286.14398 L393.75,-291.5296 L394.2857,-296.37665 L394.82144,-300.73898 L395.35715,-304.66507 L395.89285,-271.96613 L396.42856,-242.5371 L396.9643,-216.05095 L397.5,-155.98099 L398.0357,-138.15047 L398.57144,-158.33542 L399.10715,-176.50188 L399.64285,-192.85168 L400.17856,-207.56651 L400.7143,-220.80986 L401.25,-232.72888 L401.7857,-243.456 L402.32144,-253.1104 L402.85715,-261.79935 L403.39285,-269.61942 L403.92856,-276.65747 L404.4643,-282.99173 L405,-288.69257 L405.5357,-293.8233 L406.07144,-298.44098 L406.60715,-302.59686 L407.14285,-306.3372 L407.67856,-309.70346 L408.2143,-312.73312 L408.75,-315.4598 L409.2857,-281.6814 L409.82144,-215.0484 L410.35715,-191.31113 L410.89285,-169.94759 L411.42856,-186.95282 L411.9643,-202.25754 L412.5,-216.03178 L413.0357,-228.4286 L413.57144,-239.58575 L414.10715,-249.62717 L414.64285,-258.66446 L415.17856,-266.798 L415.7143,-274.1182 L416.25,-280.7064 L416.7857,-286.63574 L417.32144,-255.73975 L417.85715,-264.16577 L418.39285,-235.51675 L418.92856,-209.73265 L419.4643,-222.75938 L420,-198.25102 L420.5357,-212.42592 L421.07144,-188.9509 L421.60715,-167.82338 L422.14285,-112.57617 L422.67856,-99.08613 L423.2143,-123.17751 L423.75,-144.85976 L424.2857,-164.37378 L424.82144,-145.70398 L425.35715,-128.90115 L425.89285,-150.01103 L426.42856,-169.00993 L426.9643,-186.10893 L427.5,-201.49805 L428.0357,-215.34824 L428.57144,-227.81342 L429.10715,-202.79964 L429.64285,-216.51968 L430.17856,-228.8677 L430.7143,-239.98094 L431.25,-249.98285 L431.7857,-258.98456 L432.32144,-267.0861 L432.85715,-238.14507 L433.39285,-212.09813 L433.92856,-188.65588 L434.4643,-167.55786 L435,-184.80208 L435.5357,-200.32187 L436.07144,-214.28969 L436.60715,-226.86072 L437.14285,-238.17464 L437.67856,-248.35718 L438.2143,-257.52145 L438.75,-229.53688 L439.2857,-204.35077 L439.82144,-217.9157 L440.35715,-230.12411 L440.89285,-241.11171 L441.42856,-251.00053 L441.9643,-259.90048 L442.5,-267.91043 L443.0357,-275.1194 L443.57144,-281.60745 L444.10715,-287.44672 L444.64285,-292.70203 L445.17856,-297.43182 L445.7143,-301.68866 L446.25,-305.51978 L446.7857,-308.9678 L447.32144,-312.071 L447.85715,-314.86392 L448.39285,-317.37753 L448.92856,-283.40735 L449.4643,-252.83418 L450,-225.31833 L450.5357,-200.55406 L451.07144,-178.26624 L451.60715,-158.20717 L452.14285,-140.15402 L452.67856,-123.9062 L453.2143,-109.28314 L453.75,-132.35483 L454.2857,-153.11934 L454.82144,-171.8074 L455.35715,-188.62666 L455.89285,-203.764 L456.42856,-217.3876 L456.9643,-229.64885 L457.5,-240.68396 L458.0357,-250.61555 L458.57144,-259.55402 L459.10715,-267.5986 L459.64285,-274.83875 L460.17856,-281.35486 L460.7143,-287.2194 L461.25,-292.49744 L461.7857,-297.2477 L462.32144,-301.52292 L462.85715,-305.37064 L463.39285,-308.8336 L463.92856,-311.95023 L464.4643,-314.7552 L465,-317.27966 L465.5357,-319.5517 L466.07144,-321.59653 L466.60715,-323.4369 L467.14285,-325.0932 L467.67856,-290.35144 L468.2143,-259.08386 L468.75,-230.94305 L469.2857,-205.61632 L469.82144,-219.05469 L470.35715,-231.14922 L470.89285,-242.03429 L471.42856,-251.83087 L471.9643,-260.64777 L472.5,-268.583 L473.0357,-275.7247 L473.57144,-282.15222 L474.10715,-287.937 L474.64285,-293.1433 L475.17856,-261.59656 L475.7143,-233.20445 L476.25,-243.88402 L476.7857,-253.4956 L477.32144,-262.14606 L477.85715,-233.69902 L478.39285,-244.32912 L478.92856,-253.8962 L479.4643,-262.5066 L480,-270.25592" fill="none" stroke="black" stroke-linejoin="round" stroke-width="2"/>
</g>
</g>
<g>
<g>
<line stroke="black" stroke-width="1" x1="0" x2="0" y1="0" y2="10"/>
<line stroke="black" stroke-width="1" x1="107.14285714285714" x2="107.14285714285714" y1="0" y2="10"/>
<line stroke="black" stroke-width="1" x1="214.28571428571428" x2="214.28571428571428" y1="0" y2="10"/>
<line stroke="black" stroke-width="1" x1="321.42857142857144" x2="321.42857142857144" y1="0" y2="10"/>
<line stroke="black" stroke-width="1" x1="428.57142857142856" x2="428.57142857142856" y1="0" y2="10"/>
</g>
<line stroke="black" stroke-width="1" x1="0" x2="480" y1="0" y2="0"/>
<g>
<text font-size="12" text-anchor="middle" x="0" y="20">
0
</text>
<text font-size="12" text-anchor="middle" x="107.14285714285714" y="20">
200
</text>
<text font-size="12" text-anchor="middle" x="214.28571428571428" y="20">
400
</text>
<text font-size="12" text-anchor="middle" x="321.42857142857144" y="20">
600
</text>
<text font-size="12" text-anchor="middle" x="428.57142857142856" y="20">
800
</text>
</g>
<text font-size="12" text-anchor="middle" x="240" y="30">

</text>
</g>
<g>
<g>
<line stroke="black" stroke-width="1" x1="0" x2="-10" y1="0.0015095914868732622" y2="0.0015095914868732622"/>
<line stroke="black" stroke-width="1" x1="0" x2="-10" y1="-72.46335247897143" y2="-72.46335247897143"/>
<line stroke="black" stroke-width="1" x1="0" x2="-10" y1="-144.92821454942975" y2="-144.92821454942975"/>
<line stroke="black" stroke-width="1" x1="0" x2="-10" y1="-217.3930766198881" y2="-217.3930766198881"/>
<line stroke="black" stroke-width="1" x1="0" x2="-10" y1="-289.8579386903463" y2="-289.8579386903463"/>
</g>
<line stroke="black" stroke-width="1" x1="0" x2="0" y1="0" y2="-340"/>
<g>
<text dominant-baseline="middle" font-size="12" text-anchor="end" x="-15" y="0.0015095914868732622">
0.06161
</text>
<text dominant-baseline="middle" font-size="12" text-anchor="end" x="-15" y="-72.46335247897143">
0.26161
</text>
<text dominant-baseline="middle" font-size="12" text-anchor="end" x="-15" y="-144.92821454942975">
0.46161
</text>
<text dominant-baseline="middle" font-size="12" text-anchor="end" x="-15" y="-217.3930766198881">
0.66161
</text>
<text dominant-baseline="middle" font-size="12" text-anchor="end" x="-15" y="-289.8579386903463">
0.86161
</text>
</g>
<text font-size="12" text-anchor="middle" transform="rotate(-90 -84 -170)" x="-84" y="-182">

</text>
</g>
</g>
</svg>