<svg viewBox="0 0 600 400" xmlns="http://www.w3.org/2000/svg">
<g transform="translate(72, 364)">
<g>
<g>
<path d="M0,-3.9096808 L0,-3.9096808 L0.38034865,-0 L0.7606973,-35.578094 L1.1410459,-67.59838 L1.5213946,-96.41663 L1.9017433,-122.353065 L2.2820919,-145.69586 L2.6624405,-166.70436 L3.0427892,-185.61203 L3.423138,-202.62892 L3.8034866,-217.94412 L4.183835,-231.7278 L4.5641837,-244.13312 L4.9445324,-255.2979 L5.324881,-265.3462 L5.7052298,-274.38968 L6.0855784,-282.5288 L6.465927,-289.854 L6.846276,-296.44672 L7.2266245,-302.38013 L7.606973,-307.7202 L7.987322,-312.52628 L8.36767,-316.85175 L8.748019,-320.74466 L9.128367,-324.2483 L9.508717,-327.40158 L9.889065,-330.2395 L10.269414,-293.69684 L10.649762,-299.90524 L11.030111,-305.49283 L11.4104595,-310.52164 L11.790809,-315.04758 L12.171157,-319.1209 L12.551505,-322.7869 L12.931854,-326.0863 L13.312202,-329.0558 L13.692552,-331.7283 L14.0729,-334.13354 L14.453249,-336.2983 L14.833597,-338.24655 L15.213946,-340 L15.594295,-302.4813 L15.974644,-307.81125 L16.354992,-312.60822 L16.73534,-316.9255 L17.11569,-320.81104 L17.496038,-324.30804 L17.876387,-327.45532 L18.256735,-291.19107 L18.637083,-297.65005 L19.017433,-303.46317 L19.397781,-289.1465 L19.77813,-295.80997 L20.158478,-301.80707 L20.538828,-268.10764 L20.919176,-276.87497 L21.299524,-284.76556 L21.679873,-291.86713 L22.060223,-298.25848 L22.44057,-304.01074 L22.820919,-270.09094 L23.201267,-259.11154 L23.581617,-268.7785 L23.961966,-238.38193 L24.342314,-211.02502 L24.722662,-225.50061 L25.10301,-238.52864 L25.48336,-250.25388 L25.863708,-260.80658 L26.244057,-270.30402 L26.624405,-278.8517 L27.004755,-286.54465 L27.385103,-293.46826 L27.765451,-299.69952 L28.1458,-305.30768 L28.52615,-310.355 L28.906498,-275.80078 L29.286846,-283.7988 L29.667194,-251.9002 L30.047544,-262.2883 L30.427893,-271.63754 L30.80824,-280.05188 L31.18859,-287.6248 L31.568937,-294.4404 L31.949287,-300.57446 L32.329636,-306.09512 L32.709984,-311.0637 L33.090332,-315.53543 L33.47068,-319.55997 L33.85103,-323.18207 L34.23138,-287.34515 L34.61173,-255.09192 L34.992077,-226.06403 L35.372425,-239.0357 L35.752773,-211.61343 L36.13312,-226.03018 L36.51347,-239.00525 L36.893818,-250.68283 L37.274166,-261.19263 L37.65452,-270.65146 L38.034866,-279.16443 L38.415215,-286.82608 L38.795563,-293.72156 L39.17591,-299.9275 L39.55626,-266.41605 L39.936607,-275.35254 L40.316956,-283.39536 L40.697308,-251.53712 L41.077656,-242.4131 L41.458004,-253.74988 L41.838352,-263.953 L42.2187,-234.03897 L42.59905,-226.66476 L42.979397,-239.57639 L43.359745,-212.10004 L43.740093,-187.37132 L44.120445,-204.21228 L44.500793,-219.36916 L44.88114,-193.91353 L45.26149,-171.00346 L45.641838,-189.4812 L46.022186,-206.11118 L46.402534,-221.07816 L46.782883,-195.45163 L47.163235,-211.48456 L47.543583,-225.9142 L47.92393,-199.80406 L48.30428,-215.40175 L48.684628,-190.34286 L49.064976,-206.88667 L49.445324,-221.77611 L49.825672,-235.17659 L50.20602,-247.23701 L50.586372,-258.0914 L50.96672,-228.76357 L51.34707,-241.4653 L51.727417,-252.89687 L52.107765,-263.18527 L52.488113,-272.44485 L52.86846,-280.77844 L53.24881,-288.2787 L53.62916,-255.93211 L54.00951,-265.917 L54.38986,-274.90338 L54.770206,-282.99115 L55.150555,-290.27014 L55.530903,-296.8212 L55.91125,-302.7172 L56.2916,-268.92676 L56.671947,-277.61218 L57.0523,-285.42905 L57.432648,-292.46423 L57.812996,-298.7959 L58.193344,-304.49442 L58.573692,-270.52625 L58.95404,-279.05173 L59.33439,-247.62784 L59.714737,-258.44315 L60.09509,-268.17694 L60.475437,-237.84053 L60.855785,-210.53777 L61.236134,-185.96527 L61.61648,-202.94684 L61.99683,-218.23026 L62.37718,-231.98532 L62.757526,-244.36488 L63.137875,-255.50648 L63.518227,-265.53394 L63.898575,-274.55862 L64.27892,-282.68088 L64.65927,-270.44247 L65.03962,-278.97632 L65.41997,-286.65677 L65.800316,-293.56918 L66.180664,-260.69357 L66.56101,-270.2023 L66.94136,-239.66336 L67.32171,-251.27512 L67.70206,-261.7257 L68.082405,-271.13123 L68.46276,-279.5962 L68.84311,-287.21466 L69.22346,-254.97449 L69.603806,-225.95833 L69.98415,-199.84378 L70.3645,-215.4375 L70.74485,-190.37505 L71.1252,-206.91563 L71.50555,-221.80215 L71.885895,-235.20004 L72.26624,-208.16132 L72.64659,-222.92328 L73.02694,-236.20905 L73.40729,-248.16624 L73.787636,-219.8309 L74.167984,-233.4259 L74.54833,-245.6614 L74.92869,-256.67337 L75.30904,-266.58414 L75.689384,-275.5038 L76.06973,-283.53152 L76.45008,-251.65965 L76.83043,-222.97498 L77.21078,-236.25557 L77.591125,-248.20811 L77.97147,-258.9654 L78.35182,-229.55014 L78.73217,-203.07642 L79.11252,-218.34686 L79.49287,-232.09027 L79.873215,-244.45935 L80.25356,-255.5915 L80.63391,-265.61044 L81.01426,-274.6275 L81.394615,-282.74283 L81.77496,-290.04666 L82.15531,-296.6201 L82.53566,-263.43936 L82.91601,-233.5767 L83.29636,-245.79713 L83.676704,-256.79553 L84.05705,-227.59726 L84.4374,-240.41562 L84.81775,-251.95215 L85.1981,-242.78664 L85.578445,-214.98926 L85.95879,-229.06842 L86.33914,-202.64287 L86.71949,-217.95668 L87.09984,-231.7391 L87.48019,-244.1433 L87.86054,-255.30705 L88.24089,-265.35443 L88.62124,-274.3971 L89.00159,-282.5355 L89.381935,-250.76321 L89.76228,-261.26498 L90.14263,-231.61978 L90.52298,-204.93909 L90.90333,-220.02327 L91.283676,-233.59904 L91.664024,-245.81723 L92.04437,-256.8136 L92.42472,-227.61353 L92.80507,-240.43027 L93.18542,-251.96535 L93.565765,-262.3469 L93.94611,-271.6903 L94.32647,-241.00256 L94.70682,-252.48041 L95.087166,-262.81046 L95.467514,-272.1075 L95.84786,-241.37804 L96.22821,-213.72153 L96.60856,-227.92746 L96.98891,-240.71281 L97.369255,-252.21964 L97.7496,-262.57574 L98.12995,-252.34787 L98.5103,-223.59438 L98.89065,-236.81303 L99.270996,-229.16142 L99.651344,-241.82338 L100.03169,-214.12233 L100.41204,-208.73978 L100.7924,-223.4439 L101.172745,-236.6776 L101.55309,-248.58794 L101.93344,-259.30725 L102.31379,-229.8578 L102.69414,-242.45012 L103.074486,-253.7832 L103.454834,-263.98297 L103.83518,-273.16278 L104.21553,-281.4246 L104.59588,-288.86023 L104.97623,-295.5523 L105.356575,-301.57516 L105.73692,-306.99573 L106.11727,-311.87427 L106.49762,-316.26492 L106.87797,-281.11972 L107.25832,-288.58585 L107.63867,-256.20856 L108.01902,-266.1658 L108.39937,-275.12732 L108.77972,-283.19266 L109.160065,-290.4515 L109.54041,-257.88763 L109.92076,-267.67697 L110.30111,-276.48737 L110.68146,-284.41672 L111.061806,-291.55313 L111.442154,-297.97592 L111.8225,-264.6596 L112.20285,-234.67494 L112.5832,-207.68874 L112.96355,-183.40115 L113.343895,-200.63913 L113.72425,-177.0565 L114.1046,-155.83214 L114.48495,-175.82703 L114.865295,-154.7256 L115.24564,-135.73433 L115.62599,-157.739 L116.00634,-177.5432 L116.38669,-195.36696 L116.76704,-191.85995 L117.147385,-169.15526 L117.52773,-187.81783 L117.90808,-204.61414 L118.28843,-219.73082 L118.66878,-233.33583 L119.049126,-245.58034 L119.429474,-256.6004 L119.80982,-266.51846 L120.19018,-236.3479 L120.570526,-248.2912 L120.950874,-259.0402 L121.33122,-229.61745 L121.71157,-242.2338 L122.09192,-253.58852 L122.47227,-263.80777 L122.852615,-273.00507 L123.23296,-281.28265 L123.61331,-288.73248 L123.99366,-295.43735 L124.37401,-301.4717 L124.75436,-306.90262 L125.134705,-311.79047 L125.51505,-316.1895 L125.8954,-320.14865 L126.27575,-284.61508 L126.656105,-252.63486 L127.03645,-223.85265 L127.4168,-237.04549 L127.79715,-248.91902 L128.17749,-259.60522 L128.55785,-269.22278 L128.93819,-277.8786 L129.31854,-285.66885 L129.69888,-292.68005 L130.07924,-259.89334 L130.4596,-230.38528 L130.83994,-242.92485 L131.22029,-215.11366 L131.60063,-229.18039 L131.98099,-202.74364 L132.36133,-218.04736 L132.74168,-231.82072 L133.12202,-244.21675 L133.50238,-216.27635 L133.88272,-230.22682 L134.26308,-203.68542 L134.64342,-218.89497 L135.02377,-232.58357 L135.40411,-244.9033 L135.78447,-255.99107 L136.16481,-265.97006 L136.54517,-274.95114 L136.92552,-283.03412 L137.30586,-290.3088 L137.68622,-296.85602 L138.06656,-263.6517 L138.44691,-272.86462 L138.82726,-281.15625 L139.20761,-288.61874 L139.58795,-295.33496 L139.9683,-262.28275 L140.34865,-271.63257 L140.729,-280.0474 L141.10934,-248.52396 L141.4897,-259.24966 L141.87004,-268.90277 L142.2504,-277.5906 L142.63074,-285.40964 L143.0111,-292.44678 L143.39145,-298.78018 L143.77179,-304.48026 L144.15215,-309.61032 L144.53249,-314.2274 L144.91284,-279.28595 L145.29318,-247.83864 L145.67354,-258.63287 L146.05388,-268.34766 L146.43423,-277.091 L146.81458,-245.86319 L147.19493,-256.85495 L147.57527,-227.65076 L147.95563,-240.46378 L148.33597,-251.99548 L148.71632,-262.37402 L149.09666,-271.71472 L149.47702,-280.12134 L149.85738,-287.68732 L150.23772,-294.49667 L150.61807,-300.6251 L150.99841,-306.1407 L151.37877,-311.1047 L151.75911,-315.57233 L152.13947,-319.5932 L152.5198,-323.21198 L152.90016,-326.46887 L153.2805,-329.4001 L153.66086,-292.94135 L154.0412,-299.2253 L154.42155,-304.8809 L154.8019,-309.9709 L155.18225,-275.45508 L155.56259,-283.48767 L155.94295,-251.6202 L156.3233,-262.03625 L156.70364,-271.41074 L157.084,-279.84775 L157.46434,-287.44107 L157.8447,-294.27505 L158.22504,-300.42566 L158.6054,-266.86438 L158.98573,-275.75604 L159.36609,-244.66171 L159.74643,-255.77364 L160.12679,-226.67757 L160.50713,-239.5879 L160.88748,-231.6588 L161.26782,-244.07101 L161.64818,-255.242 L162.02852,-226.1991 L162.40887,-239.15729 L162.78923,-211.72284 L163.16957,-226.12865 L163.54993,-199.99707 L163.93027,-215.57545 L164.31062,-190.4992 L164.69096,-207.02737 L165.07132,-182.80592 L165.45166,-200.10342 L165.83202,-215.67117 L166.21236,-229.68216 L166.59271,-242.29204 L166.97305,-253.64093 L167.35341,-263.85492 L167.73375,-273.04752 L168.1141,-281.32086 L168.49445,-288.76688 L168.8748,-256.3715 L169.25516,-266.31244 L169.6355,-275.25928 L170.01585,-283.31143 L170.3962,-290.55838 L170.77655,-297.08066 L171.15689,-263.85388 L171.53725,-273.04657 L171.91759,-281.32 L172.29794,-288.7661 L172.67828,-295.4676 L173.05864,-301.49893 L173.43898,-306.92712 L173.81934,-311.8125 L174.19968,-316.20935 L174.58003,-320.1665 L174.96037,-284.63116 L175.34073,-291.74612 L175.72108,-298.1496 L176.10143,-303.91275 L176.48178,-270.00275 L176.86212,-239.48376 L177.24248,-251.1135 L177.62282,-261.58023 L178.00317,-271.0003 L178.38351,-279.47836 L178.76387,-287.1086 L179.14421,-293.97586 L179.52457,-261.05957 L179.9049,-270.5317 L180.28526,-279.0566 L180.6656,-247.63225 L181.04596,-258.4471 L181.4263,-268.1805 L181.80666,-237.84373 L182.18701,-249.63747 L182.56735,-260.2518 L182.94771,-269.80472 L183.32805,-239.30554 L183.7084,-250.95308 L184.08875,-261.43585 L184.4691,-270.87036 L184.84944,-279.36142 L185.2298,-287.0034 L185.61014,-293.88113 L185.9905,-260.9743 L186.37083,-231.35817 L186.75119,-204.70364 L187.13153,-219.81137 L187.51189,-194.31152 L187.89223,-210.45847 L188.27258,-224.9907 L188.65294,-238.06973 L189.03328,-249.84085 L189.41364,-260.43488 L189.79398,-269.96948 L190.17433,-278.55063 L190.55467,-286.27365 L190.93503,-293.2244 L191.31537,-299.48004 L191.69572,-266.01334 L192.07607,-235.89328 L192.45642,-247.88205 L192.83676,-258.67194 L193.21712,-229.28603 L193.59746,-202.83871 L193.97781,-218.13293 L194.35815,-231.89774 L194.73851,-205.18925 L195.11887,-220.24841 L195.4992,-233.80167 L195.87956,-245.9996 L196.2599,-256.97772 L196.64026,-266.85806 L197.0206,-236.65353 L197.40096,-209.46947 L197.7813,-224.10062 L198.16165,-198.17184 L198.54199,-213.93275 L198.92235,-228.11757 L199.30269,-240.88391 L199.68304,-213.27681 L200.06339,-188.43042 L200.44374,-205.16547 L200.82408,-220.22702 L201.20444,-233.78241 L201.5848,-245.98227 L201.96513,-256.96213 L202.34549,-266.84402 L202.72583,-275.7377 L203.10619,-283.74203 L203.48653,-251.84912 L203.86688,-262.2423 L204.24722,-232.49936 L204.62758,-244.82751 L205.00792,-255.92285 L205.38828,-265.90866 L205.76862,-274.8959 L206.14897,-282.9844 L206.52931,-290.26407 L206.90967,-296.81573 L207.29001,-302.71225 L207.67036,-308.01913 L208.05072,-273.69852 L208.43106,-242.80994 L208.81142,-254.10704 L209.19176,-264.27444 L209.57211,-234.32828 L209.95245,-246.47354 L210.33281,-257.4043 L210.71315,-228.14514 L211.0935,-240.90872 L211.47385,-252.39595 L211.8542,-262.73444 L212.23454,-272.0391 L212.6149,-280.41327 L212.99524,-287.95004 L213.3756,-294.73312 L213.75594,-300.83792 L214.13629,-306.3322 L214.51665,-272.1803 L214.89699,-241.44354 L215.27734,-252.87729 L215.65768,-263.16766 L216.03804,-233.33217 L216.41838,-245.57706 L216.79874,-256.59744 L217.17908,-227.41899 L217.55943,-240.25517 L217.93977,-212.71095 L218.32013,-227.01794 L218.70047,-239.89424 L219.08083,-251.48293 L219.46117,-261.91272 L219.84152,-271.29953 L220.22186,-279.74768 L220.60222,-287.351 L220.98257,-255.0972 L221.36292,-265.16556 L221.74327,-274.2271 L222.12361,-282.3825 L222.50397,-289.72235 L222.88431,-257.23138 L223.26466,-267.08633 L223.645,-275.9558 L224.02536,-283.93832 L224.4057,-252.02577 L224.78606,-223.30449 L225.1664,-197.45532 L225.54675,-193.73949 L225.9271,-209.94363 L226.30745,-224.52736 L226.68779,-237.65273 L227.06815,-249.46555 L227.4485,-260.09708 L227.82884,-230.56866 L228.2092,-243.08989 L228.58954,-254.359 L228.9699,-225.40439 L229.35023,-238.44205 L229.73059,-250.17593 L230.11093,-221.63962 L230.49129,-235.05376 L230.87163,-247.12648 L231.25198,-218.89511 L231.63232,-193.4869 L232.01268,-209.7163 L232.39302,-224.32277 L232.77338,-237.46858 L233.15372,-210.203 L233.53407,-224.7608 L233.91443,-237.86282 L234.29477,-249.65463 L234.67513,-260.26727 L235.05547,-269.81863 L235.43582,-278.41486 L235.81616,-286.15146 L236.19652,-293.1144 L236.57686,-299.38107 L236.95721,-305.02106 L237.33755,-271.00024 L237.71791,-279.4783 L238.09825,-287.10858 L238.4786,-254.879 L238.85895,-264.9692 L239.2393,-274.05038 L239.61964,-243.12662 L240,-215.29524 L240.38036,-229.34381 L240.7607,-202.89072 L241.14105,-179.08293 L241.5214,-157.65593 L241.90175,-177.46843 L242.28209,-156.20288 L242.66245,-176.16069 L243.04279,-155.02591 L243.42314,-175.10141 L243.80348,-193.16936 L244.18384,-209.43053 L244.56418,-224.06557 L244.94453,-198.14029 L245.32487,-213.90436 L245.70523,-228.09201 L246.08557,-240.86092 L246.46593,-252.35292 L246.84628,-262.6957 L247.22662,-272.00424 L247.60698,-280.3819 L247.98732,-287.9218 L248.36768,-255.61092 L248.74802,-265.62793 L249.12837,-274.64322 L249.50871,-243.66019 L249.88907,-215.77545 L250.26941,-229.776 L250.64977,-242.3765 L251.0301,-214.62013 L251.41046,-228.73622 L251.7908,-241.44069 L252.17116,-213.77791 L252.5515,-227.97821 L252.93185,-240.75848 L253.31221,-213.16393 L253.69255,-227.42563 L254.0729,-240.26115 L254.45325,-251.81314 L254.8336,-262.20993 L255.21394,-232.47021 L255.5943,-205.70448 L255.97464,-181.61533 L256.35498,-199.03188 L256.73535,-214.70679 L257.1157,-228.81421 L257.49603,-241.51088 L257.87637,-252.93788 L258.25674,-263.2222 L258.6371,-272.47806 L259.01743,-280.80835 L259.39777,-249.2088 L259.77814,-259.86603 L260.15848,-230.3607 L260.53882,-242.90273 L260.9192,-254.19055 L261.29953,-264.34958 L261.67987,-234.39592 L262.0602,-246.53442 L262.44058,-237.91068 L262.82092,-210.60089 L263.20126,-225.1189 L263.5816,-238.1851 L263.96198,-249.94469 L264.34232,-260.52832 L264.72266,-270.0536 L265.103,-239.52951 L265.48337,-251.15465 L265.8637,-261.61728 L266.24405,-231.93684 L266.62442,-205.22444 L267.00476,-220.28009 L267.3851,-194.73337 L267.76544,-171.74132 L268.1458,-190.14528 L268.52615,-206.70885 L268.9065,-221.61606 L269.28683,-235.03255 L269.6672,-208.01057 L270.04755,-222.78761 L270.4279,-236.08694 L270.80823,-248.05635 L271.1886,-258.8288 L271.56894,-268.52402 L271.94928,-277.24973 L272.32962,-285.10284 L272.71,-253.07384 L273.09033,-263.34454 L273.47067,-233.49138 L273.85104,-245.72034 L274.23138,-256.7264 L274.61172,-227.53505 L274.99207,-240.35963 L275.37244,-251.90176 L275.75278,-262.28967 L276.13312,-232.542 L276.51346,-244.8659 L276.89383,-255.9574 L277.27417,-265.93976 L277.6545,-274.9239 L278.03485,-283.00958 L278.41522,-290.2867 L278.79556,-296.83615 L279.1759,-302.73062 L279.55627,-308.03564 L279.9366,-312.81018 L280.31696,-278.01047 L280.6973,-285.7875 L281.07767,-292.78683 L281.458,-299.08624 L281.83835,-304.75574 L282.2187,-309.85825 L282.59906,-314.45053 L282.9794,-318.58356 L283.35974,-322.3033 L283.74008,-325.65106 L284.12045,-328.66406 L284.5008,-292.27893 L284.88113,-259.53232 L285.26147,-230.06038 L285.64185,-242.63245 L286.0222,-253.9473 L286.40253,-264.13065 L286.7829,-273.2957 L287.16324,-281.54422 L287.54358,-288.9679 L287.92392,-295.6492 L288.3043,-262.56555 L288.68463,-271.8871 L289.06497,-280.2765 L289.4453,-287.82693 L289.82568,-294.62234 L290.20602,-300.7382 L290.58636,-306.24246 L290.9667,-311.19632 L291.34708,-315.6548 L291.72742,-319.6674 L292.10776,-323.27875 L292.48813,-326.52896 L292.86847,-329.45416 L293.2488,-292.99005 L293.62915,-299.26913 L294.00952,-304.92032 L294.38986,-310.00638 L294.7702,-314.58383 L295.15054,-279.60675 L295.5309,-287.22415 L295.91125,-254.98303 L296.2916,-225.96602 L296.67194,-238.94751 L297.0523,-250.63084 L297.43265,-261.14587 L297.813,-270.60938 L298.19333,-279.12653 L298.5737,-286.79196 L298.95404,-254.59406 L299.33438,-264.71274 L299.71475,-234.72276 L300.0951,-207.73177 L300.47543,-183.43988 L300.85577,-200.67398 L301.23615,-196.63628 L301.6165,-212.55075 L301.99683,-207.32536 L302.37717,-222.17093 L302.75754,-196.43512 L303.13788,-212.3697 L303.51822,-187.61401 L303.89856,-204.43071 L304.27893,-219.56573 L304.65927,-233.18726 L305.0396,-245.44662 L305.41998,-256.48004 L305.80032,-266.41016 L306.18066,-236.25041 L306.561,-248.20348 L306.94138,-219.86441 L307.32172,-194.35925 L307.70206,-210.50142 L308.0824,-225.02937 L308.46277,-199.00772 L308.8431,-214.68504 L309.22345,-228.79463 L309.6038,-221.94487 L309.98416,-235.32848 L310.3645,-247.37372 L310.74484,-219.11763 L311.12518,-232.78397 L311.50555,-245.08366 L311.8859,-256.15338 L312.26624,-266.11615 L312.6466,-235.98582 L313.02695,-247.96533 L313.4073,-219.65009 L313.78763,-233.26317 L314.168,-245.51495 L314.54834,-256.54156 L314.92868,-227.36868 L315.30902,-240.20992 L315.6894,-251.76701 L316.06973,-262.1684 L316.45007,-271.52966 L316.8304,-279.9548 L317.2108,-287.5374 L317.59113,-294.36176 L317.97147,-300.5037 L318.35184,-266.9346 L318.73218,-275.81924 L319.11252,-283.8154 L319.49286,-291.01196 L319.87323,-258.39206 L320.25357,-268.13095 L320.6339,-276.89594 L321.01425,-245.68764 L321.39462,-217.60016 L321.77496,-231.41824 L322.1553,-204.7577 L322.53564,-219.86003 L322.91602,-194.35532 L323.29636,-210.49788 L323.6767,-225.02618 L324.05704,-238.10165 L324.4374,-249.86958 L324.81775,-260.46072 L325.1981,-269.99274 L325.57846,-278.57156 L325.9588,-286.2925 L326.33914,-293.24133 L326.71948,-299.4953 L327.09985,-305.12387 L327.4802,-310.18958 L327.86053,-314.74872 L328.24088,-299.30353 L328.62125,-304.95126 L329.0016,-310.03424 L329.38193,-314.60892 L329.76227,-318.7261 L330.14264,-283.33478 L330.52298,-290.5794 L330.90332,-297.09955 L331.2837,-302.9677 L331.66403,-308.24902 L332.04437,-313.00223 L332.4247,-317.2801 L332.80508,-321.1302 L333.18542,-324.59525 L333.56577,-288.617 L333.9461,-295.3334 L334.32648,-301.37817 L334.70682,-306.81845 L335.08716,-311.7147 L335.4675,-316.1213 L335.84787,-320.08728 L336.2282,-323.65665 L336.60855,-326.86908 L336.9889,-329.76025 L337.36926,-332.36234 L337.7496,-334.7042 L338.12994,-336.81186 L338.5103,-299.61197 L338.89066,-305.22888 L339.271,-271.18726 L339.65134,-279.64664 L340.0317,-287.26007 L340.41205,-294.11215 L340.7924,-300.27902 L341.17273,-305.82922 L341.5531,-291.276 L341.93344,-297.7265 L342.31378,-264.43512 L342.69412,-273.5697 L343.0745,-281.79083 L343.45483,-289.18985 L343.83517,-295.84897 L344.21555,-301.84216 L344.5959,-268.13922 L344.97623,-276.9034 L345.35657,-284.79114 L345.73694,-291.89014 L346.11728,-259.1824 L346.49762,-268.84225 L346.87796,-277.53613 L347.25833,-246.26381 L347.63867,-257.2155 L348.019,-267.07205 L348.39935,-275.94296 L348.77972,-283.92676 L349.16006,-252.01537 L349.5404,-262.3919 L349.92075,-271.73083 L350.30112,-280.13583 L350.68146,-287.70035 L351.0618,-255.4116 L351.44217,-265.44855 L351.8225,-254.93336 L352.20285,-265.01813 L352.5832,-274.09442 L352.96356,-282.26306 L353.3439,-250.51805 L353.72424,-261.04434 L354.10458,-270.518 L354.48495,-239.94748 L354.8653,-251.53082 L355.24564,-261.95584 L355.62598,-271.33835 L356.00635,-279.78262 L356.3867,-287.38245 L356.76703,-294.2223 L357.1474,-300.37817 L357.52774,-266.82162 L357.90808,-236.62076 L358.28842,-248.53677 L358.6688,-259.2612 L359.04913,-268.91318 L359.42947,-238.50314 L359.8098,-250.23093 L360.1902,-221.68912 L360.57053,-235.0983 L360.95087,-247.16656 L361.3312,-258.028 L361.71158,-267.80328 L362.09192,-276.60107 L362.47226,-284.51904 L362.8526,-291.64523 L363.23297,-298.0588 L363.6133,-303.83102 L363.99365,-309.026 L364.37402,-313.7015 L364.75436,-317.90945 L365.1347,-321.6966 L365.51505,-325.10504 L365.89542,-328.17264 L366.27576,-330.93347 L366.6561,-294.3214 L367.03644,-300.46735 L367.4168,-305.99872 L367.79715,-310.97693 L368.1775,-276.36053 L368.55783,-284.30258 L368.9382,-252.3536 L369.31854,-262.69635 L369.69888,-272.0048 L370.07925,-280.38242 L370.4596,-287.92227 L370.83994,-255.61133 L371.22028,-265.6283 L371.60065,-274.64355 L371.981,-282.7573 L372.36133,-290.05966 L372.74167,-257.53497 L373.12204,-228.26277 L373.50238,-201.91779 L373.88272,-217.3041 L374.26306,-192.05498 L374.64343,-208.42757 L375.02377,-223.1629 L375.4041,-236.42471 L375.78445,-248.36034 L376.16483,-259.1024 L376.54517,-268.77026 L376.9255,-277.4713 L377.30588,-285.30228 L377.68622,-292.35016 L378.06656,-298.69324 L378.4469,-304.402 L378.82727,-309.5399 L379.2076,-314.164 L379.58795,-318.32568 L379.9683,-322.07123 L380.34866,-325.4422 L380.729,-328.47607 L381.10934,-292.10974 L381.4897,-259.38007 L381.87006,-269.02014 L382.2504,-238.59943 L382.63074,-250.31758 L383.0111,-241.3155 L383.39145,-252.76205 L383.7718,-263.06393 L384.15213,-272.33563 L384.5325,-280.68018 L384.91284,-288.19025 L385.29318,-294.9493 L385.67352,-301.03247 L386.0539,-306.50732 L386.43423,-311.4347 L386.81458,-276.77252 L387.19492,-284.67334 L387.5753,-291.78412 L387.95563,-298.1838 L388.33597,-264.8467 L388.7163,-273.94012 L389.09668,-243.0274 L389.47702,-254.30275 L389.85736,-264.45056 L390.23773,-273.58362 L390.61807,-281.80334 L390.9984,-289.2011 L391.37875,-256.76227 L391.75912,-266.66415 L392.13947,-275.57584 L392.5198,-283.59634 L392.90015,-290.8148 L393.28052,-297.3114 L393.66086,-303.15836 L394.0412,-269.32382 L394.42154,-277.96954 L394.8019,-285.75067 L395.18225,-292.7537 L395.5626,-299.05643 L395.94296,-265.63208 L396.3233,-274.64697 L396.70364,-282.76035 L397.08398,-290.0624 L397.46436,-296.63428 L397.8447,-302.54895 L398.22504,-307.87213 L398.60538,-312.66302 L398.98575,-277.878 L399.3661,-285.6683 L399.74643,-292.67957 L400.12677,-298.98972 L400.50714,-304.66882 L400.88748,-270.68323 L401.26782,-240.09619 L401.64816,-251.66467 L402.02853,-262.0763 L402.40887,-232.34996 L402.7892,-244.69305 L403.1696,-255.80185 L403.54993,-265.79974 L403.93027,-274.79788 L404.3106,-282.89618 L404.69098,-290.18466 L405.07132,-257.6475 L405.45166,-267.46082 L405.832,-237.19603 L406.21237,-209.95772 L406.5927,-224.54004 L406.97305,-237.66412 L407.3534,-210.379 L407.73376,-224.9192 L408.1141,-198.90857 L408.49445,-175.499 L408.87482,-193.52719 L409.25516,-209.75256 L409.6355,-224.35541 L410.01584,-237.49796 L410.3962,-249.32626 L410.77655,-259.97174 L411.1569,-269.55264 L411.53723,-239.07867 L411.9176,-250.7489 L412.29794,-261.2521 L412.67828,-270.705 L413.05862,-240.11578 L413.439,-212.58548 L413.81934,-226.90503 L414.19968,-239.79262 L414.58002,-251.39145 L414.9604,-261.8304 L415.34073,-271.22546 L415.72107,-279.681 L416.10144,-287.29102 L416.48178,-294.13998 L416.86212,-300.30408 L417.24246,-305.85178 L417.62283,-310.8447 L418.00317,-276.24152 L418.3835,-284.19547 L418.76385,-291.354 L419.14423,-297.7967 L419.52457,-303.59512 L419.9049,-269.7169 L420.28525,-278.3233 L420.66562,-246.97226 L421.04596,-257.85312 L421.4263,-267.6459 L421.80667,-276.4594 L422.187,-284.39157 L422.56735,-252.4337 L422.9477,-223.67162 L423.32806,-236.88255 L423.7084,-248.77238 L424.08875,-259.47324 L424.4691,-230.0072 L424.84946,-242.58458 L425.2298,-214.8074 L425.61014,-228.90477 L425.99048,-241.59238 L426.37085,-213.91443 L426.7512,-228.10109 L427.13153,-201.77226 L427.51187,-178.07632 L427.89224,-195.84679 L428.27258,-211.8402 L428.65292,-187.13747 L429.0333,-204.00182 L429.41364,-219.17973 L429.79398,-232.83984 L430.17432,-245.13396 L430.5547,-256.19867 L430.93503,-266.1569 L431.31537,-275.1193 L431.6957,-244.08865 L432.07608,-255.25789 L432.45642,-265.31018 L432.83676,-274.35727 L433.2171,-282.49963 L433.59747,-289.82776 L433.9778,-296.4231 L434.35815,-302.35886 L434.73853,-307.70108 L435.11887,-312.50906 L435.4992,-277.73944 L435.87955,-285.5436 L436.25992,-253.47052 L436.64026,-224.60475 L437.0206,-198.62556 L437.40094,-214.34111 L437.7813,-228.48509 L438.16165,-241.21468 L438.542,-213.5745 L438.92233,-188.69833 L439.3027,-205.4066 L439.68304,-220.44403 L440.0634,-233.97772 L440.44373,-246.15805 L440.8241,-218.02353 L441.20444,-231.79927 L441.58478,-244.19743 L441.96515,-255.35579 L442.3455,-265.39832 L442.72583,-274.43655 L443.10617,-243.4742 L443.48654,-254.70488 L443.86688,-264.81247 L444.24722,-273.90933 L444.62756,-282.0965 L445.00793,-250.36813 L445.38828,-260.90942 L445.76862,-270.39658 L446.14896,-239.8382 L446.52933,-251.43246 L446.90967,-261.8673 L447.29,-232.16188 L447.67038,-244.52377 L448.05072,-255.64949 L448.43106,-265.66263 L448.8114,-274.67447 L449.19177,-243.68831 L449.5721,-254.89758 L449.95245,-264.9859 L450.3328,-274.06543 L450.71317,-282.23697 L451.0935,-289.59137 L451.47385,-276.66193 L451.8542,-265.02542 L452.23456,-274.10098 L452.6149,-282.26898 L452.99524,-289.62018 L453.37558,-257.13943 L453.75595,-267.0036 L454.1363,-275.88132 L454.51663,-283.87128 L454.897,-291.06226 L455.27734,-258.43732 L455.65768,-229.07487 L456.03802,-241.74548 L456.4184,-253.14903 L456.79874,-263.41223 L457.17908,-272.64908 L457.55942,-280.96228 L457.9398,-288.44415 L458.32013,-256.08102 L458.70047,-226.95421 L459.0808,-239.83688 L459.46118,-251.43129 L459.84152,-261.86624 L460.22186,-271.25772 L460.60223,-240.61324 L460.98257,-252.13 L461.3629,-262.4951 L461.74326,-271.8237 L462.12363,-280.21942 L462.50397,-287.77557 L462.8843,-255.4793 L463.26465,-226.41266 L463.64502,-239.34949 L464.02536,-250.99263 L464.4057,-261.47147 L464.78604,-270.9024 L465.1664,-279.39026 L465.54675,-287.02933 L465.9271,-254.80768 L466.30743,-264.905 L466.6878,-273.9926 L467.06815,-282.17145 L467.4485,-289.53238 L467.82886,-257.06042 L468.2092,-266.9325 L468.58954,-275.81732 L468.96988,-283.8137 L469.35025,-251.91362 L469.7306,-262.30035 L470.11093,-271.6484 L470.49127,-280.06168 L470.87164,-287.63358 L471.25198,-294.44833 L471.63232,-300.58157 L472.01266,-306.10153 L472.39304,-311.06946 L472.77338,-315.54062 L473.15372,-319.56464 L473.5341,-284.08948 L473.91443,-291.2586 L474.29477,-297.71085 L474.6751,-264.42105 L475.05548,-273.55704 L475.43582,-242.68263 L475.81616,-214.89565 L476.1965,-228.98418 L476.57687,-241.66385 L476.9572,-253.07556 L477.33755,-263.3461 L477.7179,-272.5896 L478.09827,-280.90872 L478.4786,-288.39594 L478.85895,-295.13446 L479.2393,-301.1991 L479.61966,-306.6573 L480,-272.47284" fill="none" stroke="black" stroke-linejoin="round" stroke-width="2"/>
</g>
</g>
<g>
<g>
<line stroke="black" stroke-width="1" x1="0" x2="0" y1="0" y2="10"/>
<line stroke="black" stroke-width="1" x1="152.13946117274168" x2="152.13946117274168" y1="0" y2="10"/>
<line stroke="black" stroke-width="1" x1="304.27892234548335" x2="304.27892234548335" y1="0" y2="10"/>
<line stroke="black" stroke-width="1" x1="456.418383518225" x2="456.418383518225" y1="0" y2="10"/>
</g>
<line stroke="black" stroke-width="1" x1="0" x2="480" y1="0" y2="0"/>
<g>
<text font-size="12" text-anchor="middle" x="0" y="20">
0
</text>
<text font-size="12" text-anchor="middle" x="152.13946117274168" y="20">
400
</text>
<text font-size="12" text-anchor="middle" x="304.27892234548335" y="20">
800
</text>
<text font-size="12" text-anchor="middle" x="456.418383518225" y="20">
1200
</text>
</g>
<text font-size="12" text-anchor="middle" x="240" y="30">

</text>
</g>
<g>
<g>
<line stroke="black" stroke-width="1" x1="0" x2="-10" y1="-3.909680732523558" y2="-3.909680732523558"/>
<line stroke="black" stroke-width="1" x1="0" x2="-10" y1="-82.10329538299465" y2="-82.10329538299465"/>
<line stroke="black" stroke-width="1" x1="0" x2="-10" y1="-160.29691003346574" y2="-160.29691003346574"/>
<line stroke="black" stroke-width="1" x1="0" x2="-10" y1="-238.49052468393685" y2="-238.49052468393685"/>
<line stroke="black" stroke-width="1" x1="0" x2="-10" y1="-316.684139334408" y2="-316.684139334408"/>
</g>
<line stroke="black" stroke-width="1" x1="0" x2="0" y1="0" y2="-340"/>
<g>
<text dominant-baseline="middle" font-size="12" text-anchor="end" x="-15" y="-3.909680732523558">
-0.8
</text>
<text dominant-baseline="middle" font-size="12" text-anchor="end" x="-15" y="-82.10329538299465">
-0.4
</text>
<text dominant-baseline="middle" font-size="12" text-anchor="end" x="-15" y="-160.29691003346574">
0
</text>
<text dominant-baseline="middle" font-size="12" text-anchor="end" x="-15" y="-238.49052468393685">
0.4
</text>
<text dominant-baseline="middle" font-size="12" text-anchor="end" x="-15" y="-316.684139334408">
0.8
</text>
</g>
<text font-size="12" text-anchor="middle" transform="rotate(-90 -48 -170)" x="-48" y="-182">

</text>
</g>
</g>
</svg>