<svg viewBox="0 0 600 400" xmlns="http://www.w3.org/2000/svg">
<g transform="translate(72, 364)">
<g>
<g>
<path d="M0,-340 L0,-340 L0.22588235,-340 L0.4517647,-340 L0.67764705,-340 L0.9035294,-340 L1.1294118,-305.6583 L1.3552941,-274.75076 L1.5811765,-246.93398 L1.8070588,-187.55716 L2.032941,-202.80144 L2.2588236,-216.5213 L2.484706,-160.18575 L2.7105882,-178.16718 L2.9364705,-194.35046 L3.162353,-208.91542 L3.3882353,-222.02386 L3.6141176,-233.82149 L3.84,-244.43933 L4.065882,-253.9954 L4.2917647,-262.59586 L4.5176473,-270.33627 L4.7435293,-277.30264 L4.969412,-283.5724 L5.195294,-289.21515 L5.4211764,-294.29364 L5.647059,-298.86426 L5.872941,-302.97784 L6.0988235,-306.68005 L6.324706,-310.01205 L6.550588,-313.01083 L6.7764707,-315.70975 L7.0023527,-318.1388 L7.2282352,-320.32492 L7.454118,-322.29242 L7.68,-324.06317 L7.9058824,-325.65686 L8.131764,-327.0912 L8.357647,-328.38205 L8.583529,-329.54385 L8.809412,-330.58948 L9.035295,-331.53052 L9.261176,-332.37747 L9.487059,-333.1397 L9.712941,-333.82574 L9.938824,-334.44318 L10.164706,-334.99884 L10.390588,-335.49896 L10.61647,-335.94907 L10.842353,-336.35416 L11.068235,-336.71875 L11.294118,-337.04688 L11.52,-337.3422 L11.745882,-337.60797 L11.971765,-337.84717 L12.197647,-338.06244 L12.42353,-338.2562 L12.649412,-338.4306 L12.875294,-338.58752 L13.101176,-338.7288 L13.327059,-338.8559 L13.552941,-338.9703 L13.778824,-339.07327 L14.004705,-339.16595 L14.230588,-339.24936 L14.4564705,-339.32443 L14.682353,-339.39197 L14.908236,-339.4528 L15.134118,-339.5075 L15.36,-339.55676 L15.585882,-339.60107 L15.811765,-339.64096 L16.037647,-339.67688 L16.263529,-339.7092 L16.489412,-339.73828 L16.715294,-339.76443 L16.941177,-339.788 L17.167059,-339.8092 L17.39294,-339.82828 L17.618824,-339.84546 L17.844706,-339.8609 L18.07059,-339.87482 L18.29647,-339.88733 L18.522352,-339.8986 L18.748236,-339.90875 L18.974117,-339.91788 L19.2,-339.9261 L19.425882,-339.93347 L19.651764,-339.94012 L19.877647,-339.9461 L20.103529,-339.9515 L20.329412,-339.95636 L20.555294,-339.96072 L20.781176,-339.96463 L21.00706,-339.96817 L21.23294,-339.97137 L21.458824,-339.9742 L21.684706,-339.9768 L21.910587,-339.97913 L22.13647,-339.9812 L22.362352,-339.9831 L22.588236,-339.98477 L22.814117,-339.9863 L23.04,-339.98767 L23.265882,-339.9889 L23.491764,-339.99002 L23.717648,-339.99103 L23.94353,-339.9919 L24.169413,-339.9927 L24.395294,-339.99344 L24.621176,-339.9941 L24.84706,-339.9947 L25.07294,-339.9952 L25.298824,-339.9957 L25.524706,-339.99612 L25.750587,-339.99652 L25.97647,-339.99686 L26.202353,-339.9972 L26.428236,-339.99747 L26.654118,-339.9977 L26.88,-339.99796 L27.105883,-339.99814 L27.331764,-339.99832 L27.557648,-339.9985 L27.78353,-339.99866 L28.00941,-339.99878 L28.235294,-339.9989 L28.461176,-339.99902 L28.68706,-339.9991 L28.912941,-339.9992 L29.138824,-339.9993 L29.364706,-339.99936 L29.590588,-339.99942 L29.816471,-339.99948 L30.042353,-339.99954 L30.268236,-339.99957 L30.494118,-339.99963 L30.72,-339.99966 L30.945883,-339.9997 L31.171764,-339.99973 L31.397648,-339.99976 L31.62353,-339.9998 L31.849411,-339.9998 L32.075294,-339.99982 L32.301178,-339.99985 L32.527058,-339.99985 L32.75294,-339.99988 L32.978825,-339.99988 L33.204704,-339.99988 L33.430588,-339.9999 L33.65647,-339.9999 L33.882355,-339.9999 L34.108234,-339.99994 L34.334118,-339.99994 L34.56,-339.99994 L34.78588,-339.99994 L35.011765,-339.99994 L35.237648,-339.99997 L35.463528,-339.99997 L35.68941,-339.99997 L35.915295,-339.99997 L36.14118,-339.99997 L36.367058,-339.99997 L36.59294,-339.99997 L36.818825,-339.99997 L37.044704,-339.99997 L37.270588,-339.99997 L37.49647,-340 L37.72235,-340 L37.948235,-340 L38.174118,-340 L38.4,-340 L38.62588,-340 L38.851765,-340 L39.07765,-340 L39.303528,-340 L39.52941,-340 L39.755295,-340 L39.98118,-340 L40.207058,-340 L40.43294,-340 L40.658825,-340 L40.884705,-340 L41.110588,-340 L41.33647,-340 L41.56235,-340 L41.788235,-340 L42.01412,-340 L42.24,-340 L42.46588,-340 L42.691765,-340 L42.91765,-340 L43.143528,-340 L43.36941,-340 L43.595295,-340 L43.821175,-340 L44.04706,-340 L44.27294,-340 L44.498825,-340 L44.724705,-340 L44.95059,-340 L45.17647,-340 L45.40235,-340 L45.628235,-340 L45.85412,-340 L46.08,-340 L46.30588,-340 L46.531765,-340 L46.75765,-340 L46.98353,-340 L47.20941,-340 L47.435295,-340 L47.661175,-271.3166 L47.88706,-278.18494 L48.11294,-284.36642 L48.338825,-289.92978 L48.564705,-294.9368 L48.79059,-299.4431 L49.01647,-303.4988 L49.24235,-307.14893 L49.468235,-310.43405 L49.69412,-313.39063 L49.92,-316.05157 L50.14588,-318.4464 L50.371765,-320.60178 L50.59765,-288.1999 L50.82353,-293.3799 L51.04941,-263.7002 L51.275295,-236.98848 L51.501175,-212.94792 L51.72706,-191.31142 L51.95294,-137.49686 L52.178825,-123.405464 L52.404705,-110.72321 L52.63059,-99.30918 L52.856472,-89.03656 L53.08235,-79.79119 L53.308235,-37.12866 L53.53412,-33.074085 L53.76,-29.424969 L53.98588,-26.140764 L54.211765,-23.184978 L54.43765,-20.524773 L54.66353,-18.130589 L54.889412,-15.9758215 L55.115295,-48.37824 L55.341175,-43.198708 L55.56706,-38.53713 L55.792942,-0 L56.01882,-34 L56.244705,-30.258291 L56.47059,-26.890755 L56.696472,-23.859972 L56.92235,-55.473976 L57.148235,-83.926575 L57.37412,-109.53392 L57.6,-132.58052 L57.825882,-153.32248 L58.051765,-171.99023 L58.27765,-188.7912 L58.50353,-203.91208 L58.729412,-217.52087 L58.955296,-229.76878 L59.181175,-240.79192 L59.40706,-250.71272 L59.632942,-259.64145 L59.85882,-267.6773 L60.084705,-274.90958 L60.31059,-281.4186 L60.536472,-287.27676 L60.762352,-292.54907 L60.988235,-297.29416 L61.21412,-301.56476 L61.44,-305.40826 L61.665882,-308.86746 L61.891766,-311.9807 L62.117645,-314.78262 L62.34353,-317.30438 L62.569412,-319.57394 L62.795296,-321.61655 L63.021175,-323.4549 L63.24706,-325.1094 L63.472942,-326.59845 L63.698822,-327.9386 L63.924706,-329.14474 L64.15059,-330.2303 L64.37647,-331.20724 L64.602356,-332.08652 L64.82823,-332.87787 L65.054115,-333.5901 L65.28,-334.23108 L65.50588,-334.80795 L65.731766,-335.32718 L65.95765,-335.79446 L66.18353,-336.215 L66.40941,-336.5935 L66.63529,-336.93414 L66.861176,-337.24075 L67.08706,-337.51666 L67.31294,-337.765 L67.538826,-337.9885 L67.76471,-338.18964 L67.990585,-338.3707 L68.21647,-338.53363 L68.44235,-338.68027 L68.668236,-338.81223 L68.89412,-338.931 L69.12,-339.0379 L69.34588,-339.13412 L69.57176,-339.2207 L69.797646,-339.29865 L70.02353,-339.36877 L70.24941,-339.4319 L70.475296,-339.4887 L70.70118,-339.53983 L70.927055,-339.58585 L71.15294,-339.62726 L71.37882,-339.66455 L71.604706,-339.6981 L71.83059,-339.72827 L72.05647,-339.75546 L72.28236,-339.7799 L72.50823,-339.8019 L72.734116,-339.82172 L72.96,-339.83954 L73.18588,-339.8556 L73.411766,-339.87003 L73.63765,-339.88303 L73.86353,-339.8947 L74.08941,-339.90524 L74.31529,-339.91473 L74.541176,-339.92325 L74.76706,-339.93094 L74.99294,-339.93784 L75.21883,-339.94406 L75.4447,-339.94965 L75.670586,-339.95468 L75.89647,-339.95923 L76.12235,-339.9633 L76.348236,-339.96698 L76.57412,-339.97028 L76.8,-339.97324 L77.02588,-339.97592 L77.25176,-339.97833 L77.477646,-339.9805 L77.70353,-339.98245 L77.92941,-339.9842 L78.1553,-339.98578 L78.38118,-339.9872 L78.607056,-339.9885 L78.83294,-339.98962 L79.05882,-339.99066 L79.284706,-339.9916 L79.51059,-339.99243 L79.73647,-339.9932 L79.96236,-339.99387 L80.18823,-339.99448 L80.414116,-339.99506 L80.64,-339.99554 L80.86588,-339.99597 L81.09177,-339.9964 L81.31765,-339.99673 L81.543526,-339.99707 L81.76941,-339.99738 L81.99529,-339.99762 L82.221176,-339.99786 L82.44706,-339.99808 L82.67294,-339.99826 L82.89883,-339.99844 L83.1247,-339.9986 L83.350586,-339.99875 L83.57647,-339.99887 L83.80235,-339.999 L84.02824,-339.99908 L84.25412,-339.99918 L84.48,-339.99927 L84.70588,-339.99933 L84.93176,-339.9994 L85.157646,-339.99945 L85.38353,-339.9995 L85.60941,-339.99957 L85.8353,-339.9996 L86.06118,-339.99963 L86.287056,-339.9997 L86.51294,-339.99973 L86.73882,-339.99973 L86.96471,-339.99976 L87.19059,-339.9998 L87.41647,-339.99982 L87.64235,-339.99982 L87.86823,-339.99985 L88.09412,-339.99985 L88.32,-339.99988 L88.54588,-339.99988 L88.77177,-339.9999 L88.99765,-339.9999 L89.223526,-339.9999 L89.44941,-339.99994 L89.67529,-339.99994 L89.90118,-339.99994 L90.12706,-339.99994 L90.35294,-339.99994 L90.57883,-339.99997 L90.8047,-339.99997 L91.03059,-339.99997 L91.25647,-339.99997 L91.48235,-339.99997 L91.70824,-339.99997 L91.93412,-339.99997 L92.16,-339.99997 L92.38588,-339.99997 L92.61176,-339.99997 L92.83765,-340 L93.06353,-340 L93.28941,-340 L93.5153,-340 L93.74117,-340 L93.96706,-340 L94.19294,-340 L94.41882,-340 L94.64471,-340 L94.87059,-340 L95.09647,-340 L95.32235,-340 L95.54823,-340 L95.77412,-340 L96,-340 L96.22588,-340 L96.45177,-340 L96.67765,-340 L96.90353,-340 L97.12941,-340 L97.35529,-340 L97.58118,-340 L97.80706,-340 L98.03294,-340 L98.25883,-340 L98.4847,-340 L98.71059,-340 L98.93647,-340 L99.16235,-340 L99.38824,-340 L99.61412,-340 L99.84,-340 L100.06588,-340 L100.29176,-340 L100.51765,-340 L100.74353,-340 L100.96941,-340 L101.1953,-340 L101.42117,-340 L101.64706,-340 L101.87294,-340 L102.09882,-340 L102.32471,-340 L102.55059,-340 L102.776474,-340 L103.00235,-340 L103.22823,-340 L103.45412,-340 L103.68,-340 L103.90588,-340 L104.13177,-340 L104.35765,-340 L104.58353,-340 L104.80941,-340 L105.03529,-340 L105.26118,-340 L105.48706,-340 L105.712944,-340 L105.93882,-340 L106.1647,-340 L106.39059,-340 L106.61647,-340 L106.842354,-340 L107.06824,-340 L107.29412,-340 L107.52,-340 L107.74588,-340 L107.97176,-340 L108.19765,-340 L108.42353,-340 L108.649414,-340 L108.8753,-340 L109.10117,-340 L109.32706,-340 L109.55294,-340 L109.778824,-340 L110.00471,-340 L110.23059,-340 L110.456474,-340 L110.68235,-340 L110.90823,-340 L111.13412,-340 L111.36,-340 L111.585884,-340 L111.81177,-340 L112.03764,-340 L112.26353,-340 L112.48941,-340 L112.715294,-340 L112.94118,-340 L113.16706,-340 L113.392944,-340 L113.61882,-340 L113.8447,-340 L114.07059,-340 L114.29647,-340 L114.522354,-340 L114.74824,-340 L114.97412,-340 L115.2,-340 L115.42588,-340 L115.651764,-340 L115.87765,-340 L116.10353,-340 L116.329414,-340 L116.5553,-340 L116.78117,-340 L117.00706,-340 L117.23294,-340 L117.458824,-340 L117.68471,-340 L117.91059,-340 L118.13647,-340 L118.36235,-340 L118.588234,-340 L118.81412,-340 L119.04,-340 L119.265884,-340 L119.49177,-340 L119.71764,-340 L119.94353,-340 L120.16941,-340 L120.395294,-340 L120.62118,-340 L120.84706,-340 L121.072945,-340 L121.29882,-340 L121.524704,-340 L121.75059,-340 L121.97647,-340 L122.202354,-340 L122.42824,-340 L122.65412,-340 L122.88,-340 L123.10588,-340 L123.331764,-340 L123.55765,-340 L123.78353,-340 L124.009415,-340 L124.23529,-340 L124.461174,-340 L124.68706,-340 L124.91294,-340 L125.138824,-340 L125.36471,-340 L125.59059,-340 L125.81647,-340 L126.04235,-340 L126.268234,-340 L126.49412,-340 L126.72,-340 L126.945885,-340 L127.17177,-340 L127.397644,-340 L127.62353,-340 L127.84941,-340 L128.07529,-340 L128.30118,-340 L128.52705,-340 L128.75294,-340 L128.97882,-340 L129.20471,-340 L129.43059,-340 L129.65646,-340 L129.88235,-340 L130.10823,-340 L130.33412,-340 L130.56,-340 L130.78589,-340 L131.01176,-340 L131.23764,-340 L131.46353,-340 L131.6894,-340 L131.9153,-340 L132.14117,-340 L132.36707,-340 L132.59294,-340 L132.81882,-340 L133.04471,-340 L133.27058,-340 L133.49648,-340 L133.72235,-340 L133.94824,-340 L134.17412,-340 L134.4,-340 L134.62589,-340 L134.85176,-340 L135.07765,-340 L135.30353,-340 L135.52942,-340 L135.7553,-340 L135.98117,-340 L136.20706,-340 L136.43294,-340 L136.65883,-340 L136.8847,-340 L137.1106,-340 L137.33647,-340 L137.56235,-340 L137.78824,-340 L138.01411,-340 L138.24,-340 L138.46588,-340 L138.69176,-340 L138.91765,-340 L139.14352,-340 L139.36942,-340 L139.59529,-340 L139.82118,-340 L140.04706,-340 L140.27293,-340 L140.49883,-340 L140.7247,-340 L140.95059,-340 L141.17647,-340 L141.40236,-340 L141.62823,-340 L141.85411,-340 L142.08,-340 L142.30588,-340 L142.53177,-340 L142.75764,-340 L142.98354,-340 L143.20941,-340 L143.43529,-340 L143.66118,-340 L143.88705,-340 L144.11295,-340 L144.33882,-340 L144.56471,-340 L144.79059,-340 L145.01646,-340 L145.24236,-340 L145.46823,-340 L145.69412,-340 L145.92,-340 L146.14589,-340 L146.37177,-340 L146.59764,-340 L146.82353,-340 L147.04941,-340 L147.2753,-340 L147.50117,-340 L147.72707,-340 L147.95294,-340 L148.17882,-340 L148.40471,-340 L148.63058,-340 L148.85648,-340 L149.08235,-340 L149.30824,-340 L149.53412,-340 L149.76,-340 L149.98589,-340 L150.21176,-340 L150.43765,-340 L150.66353,-340 L150.8894,-340 L151.1153,-340 L151.34117,-340 L151.56706,-340 L151.79294,-340 L152.01883,-340 L152.2447,-340 L152.47058,-340 L152.69647,-340 L152.92235,-340 L153.14824,-340 L153.37411,-340 L153.6,-340 L153.82588,-340 L154.05176,-340 L154.27765,-340 L154.50352,-340 L154.72942,-340 L154.95529,-340 L155.18118,-340 L155.40706,-340 L155.63293,-340 L155.85883,-340 L156.0847,-340 L156.3106,-340 L156.53647,-340 L156.76236,-340 L156.98824,-340 L157.21411,-340 L157.44,-340 L157.66588,-340 L157.89177,-340 L158.11765,-340 L158.34354,-340 L158.56941,-340 L158.79529,-340 L159.02118,-340 L159.24706,-340 L159.47295,-340 L159.69882,-340 L159.92471,-340 L160.15059,-340 L160.37646,-340 L160.60236,-340 L160.82823,-340 L161.05412,-340 L161.28,-340 L161.50589,-340 L161.73177,-340 L161.95764,-340 L162.18353,-340 L162.40941,-340 L162.6353,-340 L162.86118,-340 L163.08705,-340 L163.31294,-340 L163.53882,-340 L163.76471,-340 L163.99059,-340 L164.21648,-340 L164.44235,-340 L164.66823,-340 L164.89412,-340 L165.12,-340 L165.34589,-340 L165.57176,-340 L165.79765,-340 L166.02353,-340 L166.2494,-340 L166.4753,-340 L166.70117,-340 L166.92706,-340 L167.15294,-340 L167.37883,-340 L167.6047,-340 L167.83058,-340 L168.05647,-340 L168.28235,-340 L168.50824,-340 L168.73412,-340 L168.96,-340 L169.18588,-340 L169.41176,-340 L169.63765,-340 L169.86353,-340 L170.08942,-340 L170.31529,-340 L170.54118,-340 L170.76706,-340 L170.99294,-340 L171.21883,-340 L171.4447,-340 L171.6706,-340 L171.89647,-340 L172.12236,-340 L172.34824,-340 L172.57411,-340 L172.8,-340 L173.02588,-340 L173.25177,-340 L173.47765,-340 L173.70354,-340 L173.92941,-340 L174.15529,-340 L174.38118,-340 L174.60706,-340 L174.83295,-340 L175.05882,-340 L175.2847,-340 L175.51059,-340 L175.73647,-340 L175.96236,-340 L176.18823,-340 L176.41412,-340 L176.64,-340 L176.86588,-340 L177.09177,-340 L177.31764,-340 L177.54353,-340 L177.76941,-340 L177.9953,-340 L178.22118,-340 L178.44705,-340 L178.67294,-340 L178.89882,-340 L179.12471,-340 L179.35059,-340 L179.57648,-340 L179.80235,-340 L180.02823,-340 L180.25412,-340 L180.48,-340 L180.70589,-340 L180.93176,-340 L181.15765,-340 L181.38353,-340 L181.6094,-340 L181.8353,-340 L182.06117,-340 L182.28706,-340 L182.51294,-340 L182.73883,-340 L182.9647,-340 L183.19058,-340 L183.41647,-340 L183.64235,-340 L183.86824,-340 L184.09412,-340 L184.32,-340 L184.54588,-340 L184.77176,-340 L184.99765,-340 L185.22353,-340 L185.44942,-340 L185.6753,-340 L185.90118,-340 L186.12706,-340 L186.35294,-340 L186.57883,-340 L186.8047,-340 L187.0306,-340 L187.25647,-340 L187.48235,-340 L187.70824,-340 L187.93411,-340 L188.16,-340 L188.38588,-340 L188.61177,-340 L188.83765,-340 L189.06352,-340 L189.28941,-340 L189.51529,-340 L189.74118,-340 L189.96706,-340 L190.19295,-340 L190.41882,-340 L190.6447,-340 L190.87059,-340 L191.09647,-340 L191.32236,-340 L191.54823,-340 L191.77412,-340 L192,-340 L192.22588,-340 L192.45177,-340 L192.67764,-340 L192.90353,-340 L193.12941,-340 L193.3553,-340 L193.58118,-340 L193.80705,-340 L194.03294,-340 L194.25882,-340 L194.48471,-340 L194.71059,-340 L194.93648,-340 L195.16235,-340 L195.38823,-340 L195.61412,-340 L195.84,-340 L196.06589,-340 L196.29176,-340 L196.51765,-340 L196.74353,-340 L196.9694,-340 L197.1953,-340 L197.42117,-340 L197.64706,-340 L197.87294,-340 L198.09882,-340 L198.3247,-340 L198.55058,-340 L198.77647,-340 L199.00235,-340 L199.22824,-340 L199.45412,-340 L199.68,-340 L199.90588,-340 L200.13176,-340 L200.35765,-340 L200.58353,-340 L200.80942,-340 L201.0353,-340 L201.26117,-340 L201.48706,-340 L201.71294,-340 L201.93883,-340 L202.1647,-340 L202.3906,-340 L202.61647,-340 L202.84235,-340 L203.06824,-340 L203.29411,-340 L203.52,-340 L203.74588,-340 L203.97177,-340 L204.19765,-340 L204.42352,-340 L204.64941,-340 L204.87529,-340 L205.10118,-340 L205.32706,-340 L205.55295,-340 L205.77882,-340 L206.0047,-340 L206.23059,-340 L206.45647,-340 L206.68236,-340 L206.90823,-340 L207.13412,-340 L207.36,-340 L207.58588,-340 L207.81177,-340 L208.03764,-340 L208.26353,-340 L208.48941,-340 L208.7153,-340 L208.94118,-340 L209.16705,-340 L209.39294,-340 L209.61882,-340 L209.84471,-340 L210.07059,-340 L210.29646,-340 L210.52235,-340 L210.74823,-340 L210.97412,-340 L211.2,-340 L211.42589,-340 L211.65176,-340 L211.87764,-340 L212.10353,-340 L212.3294,-340 L212.5553,-340 L212.78117,-340 L213.00706,-340 L213.23294,-340 L213.45882,-340 L213.68471,-340 L213.91058,-340 L214.13647,-340 L214.36235,-340 L214.58824,-340 L214.81412,-340 L215.04,-340 L215.26588,-340 L215.49176,-340 L215.71765,-340 L215.94353,-340 L216.16942,-340 L216.3953,-340 L216.62117,-340 L216.84706,-340 L217.07294,-340 L217.29883,-340 L217.5247,-340 L217.7506,-340 L217.97647,-340 L218.20235,-340 L218.42824,-340 L218.65411,-340 L218.88,-340 L219.10588,-340 L219.33177,-340 L219.55765,-340 L219.78352,-340 L220.00941,-340 L220.23529,-340 L220.46118,-340 L220.68706,-340 L220.91295,-340 L221.13882,-340 L221.3647,-340 L221.59059,-340 L221.81647,-340 L222.04236,-340 L222.26823,-340 L222.49411,-340 L222.72,-340 L222.94588,-340 L223.17177,-340 L223.39764,-340 L223.62354,-340 L223.84941,-340 L224.07529,-340 L224.30118,-340 L224.52705,-340 L224.75294,-340 L224.97882,-340 L225.20471,-340 L225.43059,-340 L225.65646,-340 L225.88235,-340 L226.10823,-340 L226.33412,-340 L226.56,-340 L226.78589,-340 L227.01176,-340 L227.23764,-340 L227.46353,-340 L227.6894,-340 L227.9153,-340 L228.14117,-340 L228.36707,-340 L228.59294,-340 L228.81882,-340 L229.04471,-340 L229.27058,-340 L229.49648,-340 L229.72235,-340 L229.94824,-340 L230.17412,-340 L230.4,-340 L230.62589,-340 L230.85176,-340 L231.07765,-340 L231.30353,-340 L231.52942,-340 L231.7553,-340 L231.98117,-340 L232.20706,-340 L232.43294,-340 L232.65883,-340 L232.8847,-340 L233.1106,-340 L233.33647,-340 L233.56235,-340 L233.78824,-340 L234.01411,-340 L234.24,-340 L234.46588,-340 L234.69176,-340 L234.91765,-340 L235.14352,-340 L235.36942,-340 L235.59529,-340 L235.82118,-340 L236.04706,-340 L236.27293,-340 L236.49883,-340 L236.7247,-340 L236.95059,-340 L237.17647,-340 L237.40236,-340 L237.62823,-340 L237.85411,-340 L238.08,-340 L238.30588,-340 L238.53177,-340 L238.75764,-340 L238.98354,-340 L239.20941,-340 L239.43529,-340 L239.66118,-340 L239.88705,-340 L240.11295,-340 L240.33882,-340 L240.56471,-340 L240.79059,-340 L241.01646,-340 L241.24236,-340 L241.46823,-340 L241.69412,-340 L241.92,-340 L242.14589,-340 L242.37177,-340 L242.59764,-340 L242.82353,-340 L243.04941,-340 L243.2753,-340 L243.50117,-340 L243.72707,-340 L243.95294,-340 L244.17882,-340 L244.40471,-340 L244.63058,-340 L244.85648,-340 L245.08235,-340 L245.30824,-340 L245.53412,-340 L245.76,-340 L245.98589,-340 L246.21176,-340 L246.43765,-340 L246.66353,-340 L246.8894,-340 L247.1153,-340 L247.34117,-340 L247.56706,-340 L247.79294,-340 L248.01883,-340 L248.2447,-340 L248.47058,-340 L248.69647,-340 L248.92235,-340 L249.14824,-340 L249.37411,-340 L249.6,-340 L249.82588,-340 L250.05176,-340 L250.27765,-340 L250.50352,-340 L250.72942,-340 L250.95529,-340 L251.18118,-340 L251.40706,-340 L251.63293,-340 L251.85883,-340 L252.0847,-340 L252.3106,-340 L252.53647,-340 L252.76236,-340 L252.98824,-340 L253.21411,-340 L253.44,-340 L253.66588,-340 L253.89177,-340 L254.11765,-340 L254.34354,-340 L254.56941,-340 L254.79529,-340 L255.02118,-340 L255.24706,-340 L255.47295,-340 L255.69882,-340 L255.92471,-340 L256.15057,-340 L256.37646,-340 L256.60236,-340 L256.82825,-340 L257.0541,-340 L257.28,-340 L257.5059,-340 L257.73175,-340 L257.95764,-340 L258.18353,-340 L258.40942,-340 L258.63528,-340 L258.86118,-340 L259.08707,-340 L259.31293,-340 L259.53882,-340 L259.7647,-340 L259.9906,-340 L260.21646,-340 L260.44235,-340 L260.66824,-340 L260.8941,-340 L261.12,-340 L261.3459,-340 L261.57178,-340 L261.79764,-340 L262.02353,-340 L262.24942,-340 L262.47528,-340 L262.70117,-340 L262.92706,-340 L263.15295,-340 L263.3788,-340 L263.6047,-340 L263.8306,-340 L264.05646,-340 L264.28235,-340 L264.50824,-340 L264.73413,-340 L264.96,-340 L265.18588,-340 L265.41177,-340 L265.63763,-340 L265.86353,-340 L266.08942,-340 L266.3153,-340 L266.54117,-340 L266.76706,-340 L266.99295,-340 L267.2188,-340 L267.4447,-340 L267.6706,-340 L267.89648,-340 L268.12234,-340 L268.34824,-340 L268.57413,-340 L268.8,-340 L269.02588,-340 L269.25177,-340 L269.47766,-340 L269.70352,-340 L269.9294,-340 L270.1553,-340 L270.38116,-340 L270.60706,-340 L270.83295,-340 L271.05884,-340 L271.2847,-340 L271.5106,-340 L271.73648,-340 L271.96234,-340 L272.18823,-340 L272.41412,-340 L272.64,-340 L272.86588,-340 L273.09177,-340 L273.31766,-340 L273.54352,-340 L273.7694,-340 L273.9953,-340 L274.2212,-340 L274.44705,-340 L274.67294,-340 L274.89883,-340 L275.1247,-340 L275.3506,-340 L275.57648,-340 L275.80237,-340 L276.02823,-340 L276.25412,-340 L276.48,-340 L276.70587,-340 L276.93176,-340 L277.15765,-340 L277.3835,-340 L277.6094,-340 L277.8353,-340 L278.0612,-340 L278.28705,-340 L278.51294,-340 L278.73883,-340 L278.9647,-340 L279.19058,-340 L279.41647,-340 L279.64236,-340 L279.86823,-340 L280.09412,-340 L280.32,-340 L280.54587,-340 L280.77176,-340 L280.99765,-340 L281.22354,-340 L281.4494,-340 L281.6753,-340 L281.90118,-340 L282.12704,-340 L282.35294,-340 L282.57883,-340 L282.80472,-340 L283.03058,-340 L283.25647,-340 L283.48236,-340 L283.70822,-340 L283.9341,-340 L284.16,-340 L284.3859,-340 L284.61176,-340 L284.83765,-340 L285.06354,-340 L285.2894,-340 L285.5153,-340 L285.74118,-340 L285.96707,-340 L286.19293,-340 L286.41882,-340 L286.6447,-340 L286.87057,-340 L287.09647,-340 L287.32236,-340 L287.54825,-340 L287.7741,-340 L288,-340 L288.2259,-340 L288.45175,-340 L288.67764,-340 L288.90353,-340 L289.12943,-340 L289.3553,-340 L289.58118,-340 L289.80707,-340 L290.03293,-340 L290.25882,-340 L290.4847,-340 L290.7106,-340 L290.93646,-340 L291.16235,-340 L291.38824,-340 L291.6141,-340 L291.84,-340 L292.0659,-340 L292.29178,-340 L292.51764,-340 L292.74353,-340 L292.96942,-340 L293.19528,-340 L293.42117,-340 L293.64706,-340 L293.87296,-340 L294.09882,-340 L294.3247,-340 L294.5506,-340 L294.77646,-340 L295.00235,-340 L295.22824,-340 L295.45413,-340 L295.68,-340 L295.90588,-340 L296.13177,-340 L296.35764,-340 L296.58353,-340 L296.80942,-340 L297.0353,-340 L297.26117,-340 L297.48706,-340 L297.71295,-340 L297.9388,-340 L298.1647,-340 L298.3906,-340 L298.6165,-340 L298.84235,-340 L299.06824,-340 L299.29413,-340 L299.52,-340 L299.74588,-340 L299.97177,-340 L300.19763,-340 L300.42352,-340 L300.6494,-340 L300.8753,-340 L301.10117,-340 L301.32706,-340 L301.55295,-340 L301.7788,-340 L302.0047,-340 L302.2306,-340 L302.45648,-340 L302.68234,-340 L302.90823,-340 L303.13412,-340 L303.36,-340 L303.58588,-340 L303.81177,-340 L304.03766,-340 L304.26352,-340 L304.4894,-340 L304.7153,-340 L304.94116,-340 L305.16705,-340 L305.39294,-340 L305.61884,-340 L305.8447,-340 L306.0706,-340 L306.29648,-340 L306.52234,-340 L306.74823,-340 L306.97412,-340 L307.2,-340 L307.42587,-340 L307.65176,-340 L307.87766,-340 L308.10352,-340 L308.3294,-340 L308.5553,-340 L308.7812,-340 L309.00705,-340 L309.23294,-340 L309.45883,-340 L309.6847,-340 L309.91058,-340 L310.13647,-340 L310.36237,-340 L310.58823,-340 L310.81412,-340 L311.04,-340 L311.26587,-340 L311.49176,-340 L311.71765,-340 L311.94354,-340 L312.1694,-340 L312.3953,-340 L312.6212,-340 L312.84705,-340 L313.07294,-340 L313.29883,-340 L313.52472,-340 L313.75058,-340 L313.97647,-340 L314.20236,-340 L314.42822,-340 L314.6541,-340 L314.88,-340 L315.1059,-340 L315.33176,-340 L315.55765,-340 L315.78354,-340 L316.0094,-340 L316.2353,-340 L316.46118,-340 L316.68707,-340 L316.91293,-340 L317.13882,-340 L317.36472,-340 L317.59058,-340 L317.81647,-340 L318.04236,-340 L318.26825,-340 L318.4941,-340 L318.72,-340 L318.9459,-340 L319.17175,-340 L319.39764,-340 L319.62354,-340 L319.84943,-340 L320.0753,-340 L320.30118,-340 L320.52707,-340 L320.75293,-340 L320.97882,-340 L321.2047,-340 L321.4306,-340 L321.65646,-340 L321.88235,-340 L322.10825,-340 L322.3341,-340 L322.56,-340 L322.7859,-340 L323.01178,-340 L323.23764,-340 L323.46353,-340 L323.68942,-340 L323.91528,-340 L324.14117,-340 L324.36707,-340 L324.59293,-340 L324.81882,-340 L325.0447,-340 L325.2706,-340 L325.49646,-340 L325.72235,-340 L325.94824,-340 L326.1741,-340 L326.4,-340 L326.6259,-340 L326.85178,-340 L327.07764,-340 L327.30353,-340 L327.52942,-340 L327.75528,-340 L327.98117,-340 L328.20706,-340 L328.43295,-340 L328.6588,-340 L328.8847,-340 L329.1106,-340 L329.33646,-340 L329.56235,-340 L329.78824,-340 L330.01413,-340 L330.24,-340 L330.46588,-340 L330.69177,-340 L330.91763,-340 L331.14352,-340 L331.36942,-340 L331.5953,-340 L331.82117,-340 L332.04706,-340 L332.27295,-340 L332.4988,-340 L332.7247,-340 L332.9506,-340 L333.17648,-340 L333.40234,-340 L333.62823,-340 L333.85413,-340 L334.08,-340 L334.30588,-340 L334.53177,-340 L334.75766,-340 L334.98352,-340 L335.2094,-340 L335.4353,-340 L335.66116,-340 L335.88705,-340 L336.11295,-340 L336.33884,-340 L336.5647,-340 L336.7906,-340 L337.01648,-340 L337.24234,-340 L337.46823,-340 L337.69412,-340 L337.92,-340 L338.14587,-340 L338.37177,-340 L338.59766,-340 L338.82352,-340 L339.0494,-340 L339.2753,-340 L339.5012,-340 L339.72705,-340 L339.95294,-340 L340.17883,-340 L340.4047,-340 L340.63058,-340 L340.85648,-340 L341.08237,-340 L341.30823,-340 L341.53412,-340 L341.76,-340 L341.98587,-340 L342.21176,-340 L342.43765,-340 L342.66354,-340 L342.8894,-340 L343.1153,-340 L343.3412,-340 L343.56705,-340 L343.79294,-340 L344.01883,-340 L344.24472,-340 L344.47058,-340 L344.69647,-340 L344.92236,-340 L345.14822,-340 L345.3741,-340 L345.6,-340 L345.8259,-340 L346.05176,-340 L346.27765,-340 L346.50354,-340 L346.7294,-340 L346.9553,-340 L347.18118,-340 L347.40707,-340 L347.63293,-340 L347.85883,-340 L348.08472,-340 L348.31058,-340 L348.53647,-340 L348.76236,-340 L348.98822,-340 L349.2141,-340 L349.44,-340 L349.6659,-340 L349.89175,-340 L350.11765,-340 L350.34354,-340 L350.5694,-340 L350.7953,-340 L351.02118,-340 L351.24707,-340 L351.47293,-340 L351.69882,-340 L351.9247,-340 L352.15057,-340 L352.37646,-340 L352.60236,-340 L352.82825,-340 L353.0541,-340 L353.28,-340 L353.5059,-340 L353.73175,-340 L353.95764,-340 L354.18353,-340 L354.40942,-340 L354.63528,-340 L354.86118,-340 L355.08707,-340 L355.31293,-340 L355.53882,-340 L355.7647,-340 L355.9906,-340 L356.21646,-340 L356.44235,-340 L356.66824,-340 L356.8941,-340 L357.12,-340 L357.3459,-340 L357.57178,-340 L357.79764,-340 L358.02353,-340 L358.24942,-340 L358.47528,-340 L358.70117,-340 L358.92706,-340 L359.15295,-340 L359.3788,-340 L359.6047,-340 L359.8306,-340 L360.05646,-340 L360.28235,-340 L360.50824,-340 L360.73413,-340 L360.96,-340 L361.18588,-340 L361.41177,-340 L361.63763,-340 L361.86353,-340 L362.08942,-340 L362.3153,-340 L362.54117,-340 L362.76706,-340 L362.99295,-340 L363.2188,-340 L363.4447,-340 L363.6706,-340 L363.89648,-340 L364.12234,-340 L364.34824,-340 L364.57413,-340 L364.8,-340 L365.02588,-340 L365.25177,-340 L365.47766,-340 L365.70352,-340 L365.9294,-340 L366.1553,-340 L366.38116,-340 L366.60706,-340 L366.83295,-340 L367.05884,-340 L367.2847,-340 L367.5106,-340 L367.73648,-340 L367.96234,-340 L368.18823,-340 L368.41412,-340 L368.64,-340 L368.86588,-340 L369.09177,-340 L369.31766,-340 L369.54352,-340 L369.7694,-340 L369.9953,-340 L370.2212,-340 L370.44705,-340 L370.67294,-340 L370.89883,-340 L371.1247,-340 L371.3506,-340 L371.57648,-340 L371.80237,-340 L372.02823,-340 L372.25412,-340 L372.48,-340 L372.70587,-340 L372.93176,-340 L373.15765,-340 L373.3835,-340 L373.6094,-340 L373.8353,-340 L374.0612,-340 L374.28705,-340 L374.51294,-340 L374.73883,-340 L374.9647,-340 L375.19058,-340 L375.41647,-340 L375.64236,-340 L375.86823,-340 L376.09412,-340 L376.32,-340 L376.54587,-340 L376.77176,-340 L376.99765,-340 L377.22354,-340 L377.4494,-340 L377.6753,-340 L377.90118,-340 L378.12704,-340 L378.35294,-340 L378.57883,-340 L378.80472,-340 L379.03058,-340 L379.25647,-340 L379.48236,-340 L379.70822,-340 L379.9341,-340 L380.16,-340 L380.3859,-340 L380.61176,-340 L380.83765,-340 L381.06354,-340 L381.2894,-340 L381.5153,-340 L381.74118,-340 L381.96707,-340 L382.19293,-340 L382.41882,-340 L382.6447,-340 L382.87057,-340 L383.09647,-340 L383.32236,-340 L383.54825,-340 L383.7741,-340 L384,-340 L384.2259,-340 L384.45175,-340 L384.67764,-340 L384.90353,-340 L385.12943,-340 L385.3553,-340 L385.58118,-340 L385.80707,-340 L386.03293,-340 L386.25882,-340 L386.4847,-340 L386.7106,-340 L386.93646,-340 L387.16235,-340 L387.38824,-340 L387.6141,-340 L387.84,-340 L388.0659,-340 L388.29178,-340 L388.51764,-340 L388.74353,-340 L388.96942,-340 L389.19528,-340 L389.42117,-340 L389.64706,-340 L389.87296,-340 L390.09882,-340 L390.3247,-340 L390.5506,-340 L390.77646,-340 L391.00235,-340 L391.22824,-340 L391.45413,-340 L391.68,-340 L391.90588,-340 L392.13177,-340 L392.35764,-340 L392.58353,-340 L392.80942,-340 L393.0353,-340 L393.26117,-340 L393.48706,-340 L393.71295,-340 L393.9388,-340 L394.1647,-340 L394.3906,-340 L394.6165,-340 L394.84235,-340 L395.06824,-340 L395.29413,-340 L395.52,-340 L395.74588,-340 L395.97177,-340 L396.19763,-340 L396.42352,-340 L396.6494,-340 L396.8753,-340 L397.10117,-340 L397.32706,-340 L397.55295,-340 L397.7788,-340 L398.0047,-340 L398.2306,-340 L398.45648,-340 L398.68234,-340 L398.90823,-340 L399.13412,-340 L399.36,-340 L399.58588,-340 L399.81177,-340 L400.03766,-340 L400.26352,-340 L400.4894,-340 L400.7153,-340 L400.94116,-340 L401.16705,-340 L401.39294,-340 L401.61884,-340 L401.8447,-340 L402.0706,-340 L402.29648,-340 L402.52234,-340 L402.74823,-340 L402.97412,-340 L403.2,-340 L403.42587,-340 L403.65176,-340 L403.87766,-340 L404.10352,-340 L404.3294,-340 L404.5553,-340 L404.7812,-340 L405.00705,-340 L405.23294,-340 L405.45883,-340 L405.6847,-340 L405.91058,-340 L406.13647,-340 L406.36237,-340 L406.58823,-340 L406.81412,-340 L407.04,-340 L407.26587,-340 L407.49176,-340 L407.71765,-340 L407.94354,-340 L408.1694,-340 L408.3953,-340 L408.6212,-340 L408.84705,-340 L409.07294,-340 L409.29883,-340 L409.52472,-340 L409.75058,-340 L409.97647,-340 L410.20236,-340 L410.42822,-340 L410.6541,-340 L410.88,-340 L411.1059,-340 L411.33176,-340 L411.55765,-340 L411.78354,-340 L412.0094,-340 L412.2353,-340 L412.46118,-340 L412.68707,-340 L412.91293,-340 L413.13882,-340 L413.36472,-340 L413.59058,-340 L413.81647,-340 L414.04236,-340 L414.26825,-340 L414.4941,-340 L414.72,-340 L414.9459,-340 L415.17175,-340 L415.39764,-340 L415.62354,-340 L415.84943,-340 L416.0753,-340 L416.30118,-340 L416.52707,-340 L416.75293,-340 L416.97882,-340 L417.2047,-340 L417.4306,-340 L417.65646,-340 L417.88235,-340 L418.10825,-340 L418.3341,-340 L418.56,-340 L418.7859,-340 L419.01178,-340 L419.23764,-340 L419.46353,-340 L419.68942,-340 L419.91528,-340 L420.14117,-340 L420.36707,-340 L420.59293,-340 L420.81882,-340 L421.0447,-340 L421.2706,-340 L421.49646,-340 L421.72235,-340 L421.94824,-340 L422.1741,-340 L422.4,-340 L422.6259,-340 L422.85178,-340 L423.07764,-340 L423.30353,-340 L423.52942,-340 L423.75528,-340 L423.98117,-340 L424.20706,-340 L424.43295,-340 L424.6588,-340 L424.8847,-340 L425.1106,-340 L425.33646,-340 L425.56235,-340 L425.78824,-340 L426.01413,-340 L426.24,-340 L426.46588,-340 L426.69177,-340 L426.91763,-340 L427.14352,-340 L427.36942,-340 L427.5953,-340 L427.82117,-340 L428.04706,-340 L428.27295,-340 L428.4988,-340 L428.7247,-340 L428.9506,-340 L429.17648,-340 L429.40234,-340 L429.62823,-340 L429.85413,-340 L430.08,-340 L430.30588,-340 L430.53177,-340 L430.75766,-340 L430.98352,-340 L431.2094,-340 L431.4353,-340 L431.66116,-340 L431.88705,-340 L432.11295,-340 L432.33884,-340 L432.5647,-340 L432.7906,-340 L433.01648,-340 L433.24234,-340 L433.46823,-340 L433.69412,-340 L433.92,-340 L434.14587,-340 L434.37177,-340 L434.59766,-340 L434.82352,-340 L435.0494,-340 L435.2753,-340 L435.5012,-340 L435.72705,-340 L435.95294,-340 L436.17883,-340 L436.4047,-340 L436.63058,-340 L436.85648,-340 L437.08237,-340 L437.30823,-340 L437.53412,-340 L437.76,-340 L437.98587,-340 L438.21176,-340 L438.43765,-340 L438.66354,-340 L438.8894,-340 L439.1153,-340 L439.3412,-340 L439.56705,-340 L439.79294,-340 L440.01883,-340 L440.24472,-340 L440.47058,-340 L440.69647,-340 L440.92236,-340 L441.14822,-340 L441.3741,-340 L441.6,-340 L441.8259,-340 L442.05176,-340 L442.27765,-340 L442.50354,-340 L442.7294,-340 L442.9553,-340 L443.18118,-340 L443.40707,-340 L443.63293,-340 L443.85883,-340 L444.08472,-340 L444.31058,-340 L444.53647,-340 L444.76236,-340 L444.98822,-340 L445.2141,-340 L445.44,-340 L445.6659,-340 L445.89175,-340 L446.11765,-340 L446.34354,-340 L446.5694,-340 L446.7953,-340 L447.02118,-340 L447.24707,-340 L447.47293,-340 L447.69882,-340 L447.9247,-340 L448.15057,-340 L448.37646,-340 L448.60236,-340 L448.82825,-340 L449.0541,-340 L449.28,-340 L449.5059,-340 L449.73175,-340 L449.95764,-340 L450.18353,-340 L450.40942,-340 L450.63528,-340 L450.86118,-340 L451.08707,-340 L451.31293,-340 L451.53882,-340 L451.7647,-340 L451.9906,-340 L452.21646,-340 L452.44235,-340 L452.66824,-340 L452.8941,-340 L453.12,-340 L453.3459,-340 L453.57178,-340 L453.79764,-340 L454.02353,-340 L454.24942,-340 L454.47528,-340 L454.70117,-340 L454.92706,-340 L455.15295,-340 L455.3788,-340 L455.6047,-340 L455.8306,-340 L456.05646,-340 L456.28235,-340 L456.50824,-340 L456.73413,-340 L456.96,-340 L457.18588,-340 L457.41177,-340 L457.63763,-340 L457.86353,-340 L458.08942,-340 L458.3153,-340 L458.54117,-340 L458.76706,-340 L458.99295,-340 L459.2188,-340 L459.4447,-340 L459.6706,-340 L459.89648,-340 L460.12234,-340 L460.34824,-340 L460.57413,-340 L460.8,-340 L461.02588,-340 L461.25177,-340 L461.47766,-340 L461.70352,-340 L461.9294,-340 L462.1553,-340 L462.38116,-340 L462.60706,-340 L462.83295,-340 L463.05884,-340 L463.2847,-340 L463.5106,-340 L463.73648,-340 L463.96234,-340 L464.18823,-340 L464.41412,-340 L464.64,-340 L464.86588,-340 L465.09177,-340 L465.31766,-340 L465.54352,-340 L465.7694,-340 L465.9953,-340 L466.2212,-340 L466.44705,-340 L466.67294,-340 L466.89883,-340 L467.1247,-340 L467.3506,-340 L467.57648,-340 L467.80237,-340 L468.02823,-340 L468.25412,-340 L468.48,-340 L468.70587,-340 L468.93176,-340 L469.15765,-340 L469.3835,-340 L469.6094,-340 L469.8353,-340 L470.0612,-340 L470.28705,-340 L470.51294,-340 L470.73883,-340 L470.9647,-340 L471.19058,-340 L471.41647,-340 L471.64236,-340 L471.86823,-340 L472.09412,-340 L472.32,-340 L472.54587,-340 L472.77176,-340 L472.99765,-340 L473.22354,-340 L473.4494,-340 L473.6753,-340 L473.90118,-340 L474.12704,-340 L474.35294,-340 L474.57883,-340 L474.80472,-340 L475.03058,-340 L475.25647,-340 L475.48236,-340 L475.70822,-340 L475.9341,-340 L476.16,-340 L476.3859,-340 L476.61176,-340 L476.83765,-340 L477.06354,-340 L477.2894,-340 L477.5153,-340 L477.74118,-340 L477.96707,-340 L478.19293,-340 L478.41882,-340 L478.6447,-340 L478.87057,-340 L479.09647,-340 L479.32236,-340 L479.54825,-340 L479.7741,-340 L480,-340" fill="none" stroke="black" stroke-linejoin="round" stroke-width="2"/>
</g>
</g>
<g>
<g>
<line stroke="black" stroke-width="1" x1="0" x2="0" y1="0" y2="10"/>
<line stroke="black" stroke-width="1" x1="90.3529411764706" x2="90.3529411764706" y1="0" y2="10"/>
<line stroke="black" stroke-width="1" x1="180.7058823529412" x2="180.7058823529412" y1="0" y2="10"/>
<line stroke="black" stroke-width="1" x1="271.05882352941177" x2="271.05882352941177" y1="0" y2="10"/>
<line stroke="black" stroke-width="1" x1="361.4117647058824" x2="361.4117647058824" y1="0" y2="10"/>
<line stroke="black" stroke-width="1" x1="451.7647058823529" x2="451.7647058823529" y1="0" y2="10"/>
</g>
<line stroke="black" stroke-width="1" x1="0" x2="480" y1="0" y2="0"/>
<g>
<text font-size="12" text-anchor="middle" x="0" y="20">
0
</text>
<text font-size="12" text-anchor="middle" x="90.3529411764706" y="20">
400
</text>
<text font-size="12" text-anchor="middle" x="180.7058823529412" y="20">
800
</text>
<text font-size="12" text-anchor="middle" x="271.05882352941177" y="20">
1200
</text>
<text font-size="12" text-anchor="middle" x="361.4117647058824" y="20">
1600
</text>
<text font-size="12" text-anchor="middle" x="451.7647058823529" y="20">
2000
</text>
</g>
<text font-size="12" text-anchor="middle" x="240" y="30">

</text>
</g>
<g>
<g>
<line stroke="black" stroke-width="1" x1="0" x2="-10" y1="0.00007928563933933508" y2="0.00007928563933933508"/>
<line stroke="black" stroke-width="1" x1="0" x2="-10" y1="-68.68333655914412" y2="-68.68333655914412"/>
<line stroke="black" stroke-width="1" x1="0" x2="-10" y1="-137.3667524039276" y2="-137.3667524039276"/>
<line stroke="black" stroke-width="1" x1="0" x2="-10" y1="-206.05016824871103" y2="-206.05016824871103"/>
<line stroke="black" stroke-width="1" x1="0" x2="-10" y1="-274.73358409349447" y2="-274.73358409349447"/>
</g>
<line stroke="black" stroke-width="1" x1="0" x2="0" y1="0" y2="-340"/>
<g>
<text dominant-baseline="middle" font-size="12" text-anchor="end" x="-15" y="0.00007928563933933508">
0.00995
</text>
<text dominant-baseline="middle" font-size="12" text-anchor="end" x="-15" y="-68.68333655914412">
0.20995
</text>
<text dominant-baseline="middle" font-size="12" text-anchor="end" x="-15" y="-137.3667524039276">
0.40995
</text>
<text dominant-baseline="middle" font-size="12" text-anchor="end" x="-15" y="-206.05016824871103">
0.60995
</text>
<text dominant-baseline="middle" font-size="12" text-anchor="end" x="-15" y="-274.73358409349447">
0.80995
</text>
</g>
<text font-size="12" text-anchor="middle" transform="rotate(-90 -84 -170)" x="-84" y="-182">

</text>
</g>
</g>
</svg>