<svg viewBox="0 0 600 400" xmlns="http://www.w3.org/2000/svg">
<g transform="translate(72, 364)">
<g>
<g>
<path d="M0,-0 L0,-0 L0.56537104,-16.288908 L1.1307421,-30.948923 L1.6961131,-44.142937 L2.2614841,-37.918766 L2.8268552,-50.4158 L3.3922262,-61.663124 L3.9575973,-53.68693 L4.5229683,-64.60715 L5.0883393,-74.43534 L5.6537104,-83.280716 L6.2190814,-109.34033 L6.7844524,-114.695206 L7.3498235,-119.514595 L7.9151945,-141.95082 L8.480565,-144.04465 L9.045937,-145.9291 L9.611307,-147.62509 L10.176679,-149.15149 L10.742049,-150.52525 L11.307421,-169.86041 L11.872791,-187.26207 L12.438163,-202.92355 L13.003533,-217.01889 L13.568905,-229.7047 L14.134275,-223.02313 L14.699647,-217.00972 L15.2650175,-193.49887 L15.830389,-190.4379 L16.39576,-187.68301 L16.96113,-185.20361 L17.526503,-182.97217 L18.091873,-180.96385 L18.657244,-161.05759 L19.222614,-179.33952 L19.787987,-177.69447 L20.353357,-176.21394 L20.918728,-192.98024 L21.484098,-189.97112 L22.04947,-205.3617 L22.614841,-201.11444 L23.180212,-215.39069 L23.745583,-228.2393 L24.310953,-221.70428 L24.876326,-215.82277 L25.441696,-210.52939 L26.007067,-205.76537 L26.572437,-201.47774 L27.13781,-197.61887 L27.70318,-194.14589 L28.26855,-191.0202 L28.833921,-188.20709 L29.399294,-203.77408 L29.964664,-199.68558 L30.530035,-214.1047 L31.095406,-227.08194 L31.660778,-238.76143 L32.226147,-249.27298 L32.79152,-258.73337 L33.35689,-267.24774 L33.92226,-274.91064 L34.487633,-281.80728 L35.053005,-288.01425 L35.618374,-293.60052 L36.183746,-298.62814 L36.749115,-303.15305 L37.314487,-289.12665 L37.87986,-276.50287 L38.44523,-247.04271 L39.0106,-238.62735 L39.575974,-249.15231 L40.141342,-258.62476 L40.706715,-267.15 L41.272083,-256.7239 L41.837456,-265.4392 L42.40283,-273.28296 L42.968197,-280.34238 L43.53357,-286.69583 L44.09894,-292.41394 L44.66431,-297.56024 L45.229683,-302.1919 L45.79505,-306.3604 L46.360424,-310.11206 L46.925797,-313.48856 L47.491165,-316.52737 L48.056538,-319.26233 L48.621906,-321.7238 L49.18728,-323.93912 L49.75265,-325.9329 L50.31802,-291.52972 L50.883392,-296.76443 L51.448765,-283.3769 L52.014133,-271.32813 L52.579506,-278.583 L53.144875,-285.1124 L53.710247,-272.89008 L54.27562,-261.88995 L54.84099,-270.08865 L55.40636,-277.4675 L55.971733,-284.10843 L56.5371,-290.08527 L57.102474,-295.46445 L57.667843,-300.3057 L58.233215,-304.6628 L58.798588,-308.58423 L59.363956,-312.1135 L59.92933,-315.28983 L60.4947,-318.14856 L61.06007,-320.72137 L61.625443,-323.03693 L62.19081,-325.12094 L62.756184,-326.99655 L63.321556,-328.68457 L63.886925,-330.20383 L64.45229,-331.57114 L65.01767,-332.8017 L65.58304,-333.90924 L66.14841,-334.906 L66.71378,-335.8031 L67.27915,-336.61047 L67.84452,-337.33713 L68.4099,-337.9911 L68.975266,-338.57968 L69.540634,-339.1094 L70.10601,-321.48737 L70.67138,-287.52875 L71.23675,-293.16357 L71.80212,-298.23492 L72.36749,-302.7991 L72.93286,-306.9069 L73.49823,-310.60388 L74.06361,-313.9312 L74.628975,-316.92578 L75.19434,-319.62088 L75.75972,-322.04648 L76.32509,-324.22952 L76.89046,-308.0955 L77.45583,-311.67365 L78.0212,-314.89395 L78.58657,-317.79227 L79.15195,-302.30194 L79.717316,-288.36066 L80.282684,-275.8135 L80.84805,-282.61984 L81.41343,-288.74554 L81.9788,-276.1599 L82.54417,-282.9316 L83.10954,-289.02612 L83.67491,-294.5112 L84.24028,-299.44778 L84.80566,-285.7919 L85.371025,-273.50162 L85.93639,-262.44037 L86.50177,-234.38646 L87.06714,-227.23672 L87.63251,-238.90074 L88.19788,-249.39836 L88.76325,-258.84622 L89.32862,-249.2505 L89.89399,-258.71313 L90.459366,-249.13074 L91.024734,-258.60535 L91.5901,-267.1325 L92.15548,-274.80695 L92.72085,-281.71396 L93.28622,-287.93024 L93.85159,-275.42612 L94.41696,-282.2712 L94.98233,-288.4318 L95.54771,-293.9763 L96.113075,-298.96637 L96.678444,-303.45743 L97.24381,-307.49936 L97.80919,-311.13712 L98.37456,-314.4111 L98.939926,-317.3577 L99.5053,-320.0096 L100.07067,-304.29755 L100.63604,-290.1567 L101.201416,-259.33115 L101.766785,-267.78574 L102.33215,-275.39487 L102.89753,-282.24307 L103.4629,-288.40646 L104.02827,-293.9535 L104.59364,-298.94583 L105.15901,-303.43893 L105.72438,-307.48276 L106.28975,-311.12216 L106.855125,-314.39764 L107.420494,-317.34558 L107.98586,-301.89993 L108.55124,-287.99884 L109.11661,-275.48785 L109.68198,-264.22797 L110.24735,-254.09409 L110.81272,-244.97359 L111.37809,-254.86392 L111.94347,-263.76523 L112.508835,-271.7764 L113.0742,-278.98645 L113.63958,-285.4755 L114.20495,-291.31564 L114.77032,-296.57178 L115.335686,-301.30228 L115.90106,-305.55975 L116.46643,-309.39148 L117.0318,-312.84 L117.597176,-315.9437 L118.162544,-318.73703 L118.72791,-321.251 L119.29329,-323.5136 L119.85866,-325.54993 L120.42403,-327.38263 L120.9894,-329.03207 L121.55477,-330.51654 L122.12014,-331.8526 L122.68551,-333.05502 L123.250885,-334.1372 L123.81625,-335.11118 L124.38162,-335.98776 L124.947,-336.77667 L125.51237,-319.3879 L126.077736,-303.73804 L126.64311,-271.55435 L127.20848,-278.78662 L127.77385,-285.29565 L128.33922,-291.15378 L128.90459,-296.4261 L129.46997,-283.0724 L130.03534,-271.05405 L130.60071,-260.23755 L131.16608,-268.6015 L131.73145,-276.12903 L132.29681,-282.9038 L132.8622,-270.90234 L133.42757,-260.101 L133.99294,-250.37982 L134.5583,-241.63075 L135.12367,-215.65779 L135.68904,-228.4797 L136.25441,-240.01942 L136.8198,-250.40518 L137.38516,-259.75235 L137.95053,-268.16483 L138.5159,-275.73602 L139.08127,-282.5501 L139.64664,-288.6828 L140.21202,-294.2022 L140.77739,-299.16968 L141.34276,-303.6404 L141.90813,-307.66406 L142.4735,-311.28534 L143.03886,-296.4457 L143.60423,-301.18884 L144.16962,-305.45764 L144.73499,-309.29956 L145.30035,-312.75732 L145.86572,-315.86926 L146.43109,-300.57126 L146.99646,-286.80304 L147.56184,-274.41165 L148.12721,-263.25937 L148.69258,-271.32114 L149.25795,-278.57672 L149.82332,-285.10675 L150.38869,-290.98376 L150.95407,-296.27307 L151.51944,-301.03345 L152.08481,-305.3178 L152.65018,-309.1737 L153.21555,-312.64404 L153.78091,-315.76733 L154.34628,-318.57828 L154.91167,-321.10815 L155.47704,-323.38504 L156.0424,-325.4342 L156.60777,-327.2785 L157.17314,-328.93832 L157.73851,-330.4322 L158.3039,-331.77667 L158.86926,-332.9867 L159.43463,-334.0757 L160,-335.05585 L160.56537,-335.93796 L161.13074,-336.73184 L161.6961,-319.34756 L162.26149,-303.70172 L162.82686,-307.71924 L163.39223,-293.23624 L163.9576,-280.2015 L164.52296,-250.37148 L165.08833,-259.72202 L165.65372,-268.1375 L166.21909,-275.71146 L166.78445,-282.528 L167.34982,-288.6629 L167.91519,-294.1843 L168.48056,-299.15356 L169.04593,-303.6259 L169.61131,-307.651 L170.17668,-311.2736 L170.74205,-314.53394 L171.30742,-317.46823 L171.87279,-320.1091 L172.43816,-322.48587 L173.00354,-306.52618 L173.56891,-292.16248 L174.13428,-297.33392 L174.69965,-301.98822 L175.26501,-306.1771 L175.83038,-309.94708 L176.39577,-313.34006 L176.96114,-316.39374 L177.5265,-319.14206 L178.09187,-321.61557 L178.65724,-287.64413 L179.22261,-293.2674 L179.78798,-298.32837 L180.35336,-302.8832 L180.91873,-306.98257 L181.4841,-310.67203 L182.04947,-313.99252 L182.61484,-316.98096 L183.1802,-319.67056 L183.74559,-322.0912 L184.31096,-324.26978 L184.87633,-308.13168 L185.4417,-293.60742 L186.00706,-298.63437 L186.57243,-303.15863 L187.1378,-307.23047 L187.70319,-310.8951 L188.26855,-314.1933 L188.83392,-317.16165 L189.39929,-319.8332 L189.96466,-304.13876 L190.53003,-308.11258 L191.09541,-293.59024 L191.66078,-298.6189 L192.22615,-303.1447 L192.79152,-307.21793 L193.35689,-310.88382 L193.92226,-314.18314 L194.48763,-317.15253 L195.05301,-301.72617 L195.61838,-305.94125 L196.18375,-309.7348 L196.74911,-313.14902 L197.31448,-298.12302 L197.87985,-302.69843 L198.44524,-306.81628 L199.0106,-310.52234 L199.57597,-313.8578 L200.14134,-316.8597 L200.70671,-301.46265 L201.27208,-305.70407 L201.83746,-309.52136 L202.40283,-312.9569 L202.9682,-316.04892 L203.53357,-318.83173 L204.09894,-303.23746 L204.6643,-271.10382 L205.22968,-278.38113 L205.79506,-284.93073 L206.36043,-272.72656 L206.9258,-279.84158 L207.49117,-286.24512 L208.05653,-292.0083 L208.6219,-279.09637 L209.18729,-285.57443 L209.75266,-291.4047 L210.31802,-296.65192 L210.88339,-301.37442 L211.44876,-305.62466 L212.01413,-309.4499 L212.5795,-312.89258 L213.14488,-297.89224 L213.71025,-284.39194 L214.27562,-272.24164 L214.84099,-261.3064 L215.40636,-233.36586 L215.97173,-244.41698 L216.53711,-236.26418 L217.10248,-228.92667 L217.66785,-222.3229 L218.23322,-234.47832 L218.79858,-245.41817 L219.36395,-255.26405 L219.92932,-264.12534 L220.4947,-272.1005 L221.06007,-279.27814 L221.62544,-285.738 L222.19081,-291.5519 L222.75618,-296.78442 L223.32155,-301.49365 L223.88693,-305.732 L224.4523,-309.54648 L225.01767,-312.97952 L225.58304,-297.9705 L226.1484,-302.56113 L226.71378,-306.69272 L227.27916,-310.41113 L227.84453,-313.75772 L228.4099,-316.76962 L228.97527,-319.48035 L229.54063,-303.82123 L230.106,-289.72803 L230.67137,-295.1429 L231.23676,-300.0163 L231.80212,-304.40237 L232.3675,-290.25104 L232.93286,-259.41605 L233.49823,-249.76335 L234.0636,-259.1747 L234.62898,-249.54616 L235.19435,-240.88045 L235.75972,-251.18008 L236.32509,-260.44977 L236.89046,-268.79248 L237.45583,-276.30093 L238.0212,-264.95975 L238.58658,-254.75269 L239.15195,-227.46753 L239.71732,-221.00969 L240.28268,-233.29642 L240.84805,-244.35446 L241.41342,-236.20792 L241.9788,-228.87604 L242.54417,-222.27734 L243.10954,-234.4373 L243.67491,-245.38126 L244.24028,-255.23083 L244.80565,-245.99666 L245.37102,-237.6859 L245.9364,-248.305 L246.50177,-257.86218 L247.06714,-266.46365 L247.6325,-274.205 L248.19788,-281.17218 L248.76324,-287.44266 L249.32863,-274.9873 L249.894,-263.77747 L250.45937,-271.7874 L251.02473,-278.99637 L251.5901,-267.38565 L252.15547,-256.93597 L252.72084,-247.5313 L253.28622,-239.06708 L253.8516,-231.44926 L254.41696,-224.59325 L254.98233,-218.42284 L255.5477,-230.96825 L256.11307,-242.25911 L256.67844,-252.4209 L257.2438,-261.5665 L257.80917,-269.79755 L258.37457,-277.20547 L258.93994,-283.87262 L259.5053,-289.87305 L260.07068,-295.27344 L260.63605,-300.1338 L261.20142,-304.50812 L261.76678,-308.44498 L262.33215,-311.9882 L262.89752,-315.17706 L263.4629,-318.04703 L264.02826,-320.63004 L264.59363,-322.9547 L265.159,-325.04694 L265.7244,-326.92993 L266.28976,-328.62463 L266.85513,-330.14987 L267.4205,-331.52258 L267.98587,-332.758 L268.55124,-333.8699 L269.1166,-334.8706 L269.68198,-335.77124 L270.24734,-336.58182 L270.8127,-337.3113 L271.37808,-337.96786 L271.94345,-338.55878 L272.50882,-339.0906 L273.07422,-339.56924 L273.6396,-340 L274.20496,-322.2889 L274.77032,-288.25015 L275.3357,-275.71402 L275.90106,-282.53033 L276.46643,-288.66498 L277.0318,-276.0874 L277.59717,-264.76755 L278.16254,-254.57971 L278.7279,-245.41064 L279.29327,-255.25728 L279.85864,-264.11923 L280.42404,-272.095 L280.9894,-279.2732 L281.55478,-285.73358 L282.12015,-291.5479 L282.68552,-296.78082 L283.2509,-301.49042 L283.81625,-305.72906 L284.38162,-309.54385 L284.947,-312.97717 L285.51236,-316.06714 L286.07773,-318.8481 L286.6431,-321.351 L287.20847,-323.6036 L287.77386,-325.63092 L288.33923,-327.45554 L288.9046,-329.09766 L289.46997,-330.5756 L290.03534,-331.90573 L290.6007,-333.10284 L291.16608,-334.18027 L291.73145,-335.14993 L292.2968,-336.0226 L292.86218,-336.80804 L293.42755,-337.51495 L293.99292,-338.15115 L294.55832,-338.72372 L295.1237,-321.14026 L295.68906,-305.31512 L296.25443,-291.07254 L296.8198,-278.25418 L297.38516,-266.71768 L297.95053,-256.3348 L298.5159,-265.08902 L299.08127,-272.9678 L299.64664,-280.05872 L300.212,-286.44055 L300.77737,-292.18417 L301.34274,-279.25467 L301.90814,-285.7169 L302.4735,-291.5329 L303.03888,-296.7673 L303.60425,-301.47827 L304.16962,-287.61935 L304.735,-293.24512 L305.30035,-298.3083 L305.86572,-302.86514 L306.4311,-306.96634 L306.99646,-310.65738 L307.56183,-295.88055 L308.1272,-282.58142 L308.69257,-270.61218 L309.25797,-277.93866 L309.82333,-284.53247 L310.3887,-290.46692 L310.95407,-295.80792 L311.51944,-300.61484 L312.0848,-304.94104 L312.65018,-308.83463 L313.21555,-312.33887 L313.7809,-297.39386 L314.34628,-302.04218 L314.91165,-306.22565 L315.47702,-309.99078 L316.0424,-313.3794 L316.6078,-316.42914 L317.17316,-319.17392 L317.73853,-321.64423 L318.3039,-323.8675 L318.86926,-325.86844 L319.43463,-327.66928 L320,-329.29004 L320.56537,-330.74875 L321.13074,-332.06155 L321.6961,-333.2431 L322.26147,-316.2077 L322.82684,-282.77704 L323.3922,-288.88702 L323.9576,-294.38602 L324.52298,-299.3351 L325.08835,-303.7893 L325.65372,-307.79807 L326.2191,-311.40594 L326.78445,-296.55426 L327.34982,-301.28653 L327.9152,-287.44678 L328.48056,-274.991 L329.04593,-263.78082 L329.6113,-235.59285 L330.17667,-246.42126 L330.74203,-256.16684 L331.30743,-246.83905 L331.8728,-238.44406 L332.43817,-230.88855 L333.00354,-242.1874 L333.5689,-252.35635 L334.13428,-243.40962 L334.69965,-235.35756 L335.265,-228.11072 L335.83038,-239.68733 L336.39575,-250.1063 L336.96112,-259.48337 L337.5265,-267.92273 L338.09186,-257.41934 L338.65726,-247.96632 L339.22263,-239.4586 L339.788,-231.80165 L340.35336,-243.00917 L340.91873,-253.09595 L341.4841,-262.17404 L342.04947,-270.34433 L342.61484,-277.6976 L343.1802,-284.31552 L343.74557,-290.27167 L344.31094,-295.6322 L344.8763,-300.45667 L345.44168,-304.7987 L346.00708,-308.7065 L346.57245,-312.22357 L347.13782,-315.3889 L347.7032,-318.2377 L348.26855,-320.8016 L348.83392,-323.10916 L349.3993,-325.18594 L349.96466,-327.05502 L350.53003,-328.7372 L351.0954,-312.1524 L351.66077,-315.32486 L352.22614,-318.18005 L352.79153,-320.74976 L353.3569,-323.06247 L353.92227,-325.14392 L354.48764,-327.0172 L355.053,-328.7032 L355.61838,-330.22055 L356.18375,-313.4874 L356.7491,-316.52637 L357.31448,-319.2614 L357.87985,-321.72296 L358.44522,-323.93835 L359.0106,-325.93222 L359.57596,-327.72668 L360.14136,-311.24292 L360.70673,-296.40753 L361.2721,-264.9569 L361.83746,-254.75012 L362.40283,-227.46524 L362.9682,-221.00761 L363.53357,-215.19577 L364.09894,-209.96509 L364.6643,-205.25749 L365.22968,-219.11943 L365.79504,-231.59518 L366.3604,-242.82336 L366.92578,-252.92871 L367.49118,-262.02353 L368.05655,-270.20886 L368.62192,-259.4769 L369.1873,-267.9169 L369.75266,-275.5129 L370.31802,-282.3493 L370.8834,-288.50208 L371.44876,-294.03955 L372.01413,-299.0233 L372.5795,-303.50867 L373.14487,-289.4467 L373.71024,-276.79092 L374.2756,-265.40076 L374.841,-255.14958 L375.40637,-245.92352 L375.97174,-237.62009 L376.5371,-248.24577 L377.10248,-257.80887 L377.66785,-266.41568 L378.23322,-274.1618 L378.79858,-281.13333 L379.36395,-287.40768 L379.92932,-274.9558 L380.4947,-281.84793 L381.06006,-288.05084 L381.62543,-293.63345 L382.19083,-298.65778 L382.7562,-266.98215 L383.32156,-256.5728 L383.88693,-265.30322 L384.4523,-273.1606 L385.01767,-262.13345 L385.58304,-270.3078 L386.1484,-277.6647 L386.71378,-284.28592 L387.27914,-290.24503 L387.8445,-295.60822 L388.40988,-300.4351 L388.97525,-286.68048 L389.54065,-274.30136 L390.10602,-245.06134 L390.6714,-254.9429 L391.23676,-263.8363 L391.80212,-271.84036 L392.3675,-279.044 L392.93286,-285.5273 L393.49823,-291.36227 L394.0636,-296.61374 L394.62897,-301.34006 L395.19434,-305.59375 L395.7597,-309.42206 L396.32507,-312.86755 L396.89047,-315.96848 L397.45584,-318.75934 L398.0212,-321.2711 L398.58658,-323.53168 L399.15195,-325.5662 L399.71732,-327.39728 L400.28268,-329.04523 L400.84805,-330.5284 L401.41342,-313.76447 L401.9788,-316.77573 L402.54416,-319.48584 L403.10953,-321.92496 L403.67493,-324.12015 L404.2403,-326.09583 L404.80566,-327.87393 L405.37103,-329.47424 L405.9364,-330.9145 L406.50177,-332.21075 L407.06714,-333.37735 L407.6325,-334.4273 L408.19788,-335.37228 L408.76324,-318.12396 L409.3286,-302.60046 L409.89398,-306.72812 L410.45935,-310.443 L411.02475,-313.78638 L411.59012,-316.79544 L412.1555,-301.40482 L412.72086,-305.652 L413.28622,-309.47452 L413.8516,-312.91476 L414.41696,-316.01096 L414.98233,-318.79758 L415.5477,-321.3055 L416.11307,-323.56265 L416.67844,-325.5941 L417.2438,-327.42236 L417.80917,-329.0678 L418.37457,-330.54874 L418.93994,-331.88153 L419.5053,-333.0811 L420.07068,-316.0619 L420.63605,-300.7446 L421.20142,-268.86026 L421.76678,-258.26315 L422.33215,-248.72574 L422.89752,-258.24084 L423.4629,-266.80447 L424.02826,-274.51172 L424.59363,-281.44824 L425.159,-287.6911 L425.7244,-293.3097 L426.28976,-298.3664 L426.85513,-302.91745 L427.4205,-307.0134 L427.98587,-310.69977 L428.55124,-314.0175 L429.1166,-317.00342 L429.68198,-319.69077 L430.24734,-322.10938 L430.8127,-324.28613 L431.37808,-326.2452 L431.94345,-328.0084 L432.50882,-329.59525 L433.07422,-312.92462 L433.6396,-297.92108 L434.20496,-302.51666 L434.77032,-306.65268 L435.3357,-310.37512 L435.90106,-295.6265 L436.46643,-282.35275 L437.0318,-270.4064 L437.59717,-277.75345 L438.16254,-266.267 L438.7279,-237.83043 L439.29327,-248.43507 L439.85864,-239.88048 L440.42404,-232.18134 L440.9894,-243.35089 L441.55478,-253.4035 L442.12015,-262.45084 L442.68552,-252.49466 L443.2509,-243.5341 L443.81625,-217.37082 L444.38162,-211.92264 L444.947,-225.11807 L445.51236,-236.99396 L446.07773,-247.68225 L446.6431,-239.20294 L447.20847,-231.57155 L447.77386,-242.8021 L448.33923,-252.90958 L448.9046,-262.00632 L449.46997,-270.19336 L450.03534,-277.56174 L450.6007,-284.19324 L451.16608,-290.16162 L451.73145,-295.53314 L452.2968,-300.36752 L452.86218,-304.71848 L453.42755,-290.53552 L453.99292,-295.86966 L454.55832,-300.67038 L455.1237,-304.99106 L455.68906,-308.87964 L456.25443,-312.37936 L456.8198,-315.5291 L457.38516,-318.3639 L457.95053,-320.9152 L458.5159,-323.21136 L459.08127,-325.27792 L459.64664,-309.03903 L460.212,-294.42404 L460.77737,-263.17175 L461.34274,-271.24228 L461.90814,-278.50574 L462.4735,-285.04288 L463.03888,-272.82748 L463.60425,-261.83365 L464.16962,-251.93918 L464.735,-243.03418 L465.30035,-235.01967 L465.86572,-227.80661 L466.4311,-221.31485 L466.99646,-215.47227 L467.56183,-210.21396 L468.1272,-205.48146 L468.69257,-201.22223 L469.25797,-197.38892 L469.82333,-175.84013 L470.3887,-174.54503 L470.95407,-191.47823 L471.51944,-206.7181 L472.0848,-220.43398 L472.65018,-232.77827 L473.21555,-243.88814 L473.7809,-253.88701 L474.34628,-262.88602 L474.91165,-270.9851 L475.47702,-278.2743 L476.0424,-284.83453 L476.6078,-290.73877 L477.17316,-296.0526 L477.73853,-300.83502 L478.3039,-305.13922 L478.86926,-309.013 L479.43463,-312.4994 L480,-315.63715" fill="none" stroke="black" stroke-linejoin="round" stroke-width="2"/>
</g>
</g>
<g>
<g>
<line stroke="black" stroke-width="1" x1="0" x2="0" y1="0" y2="10"/>
<line stroke="black" stroke-width="1" x1="113.07420494699646" x2="113.07420494699646" y1="0" y2="10"/>
<line stroke="black" stroke-width="1" x1="226.14840989399292" x2="226.14840989399292" y1="0" y2="10"/>
<line stroke="black" stroke-width="1" x1="339.2226148409894" x2="339.2226148409894" y1="0" y2="10"/>
<line stroke="black" stroke-width="1" x1="452.29681978798584" x2="452.29681978798584" y1="0" y2="10"/>
</g>
<line stroke="black" stroke-width="1" x1="0" x2="480" y1="0" y2="0"/>
<g>
<text font-size="12" text-anchor="middle" x="0" y="20">
0
</text>
<text font-size="12" text-anchor="middle" x="113.07420494699646" y="20">
200
</text>
<text font-size="12" text-anchor="middle" x="226.14840989399292" y="20">
400
</text>
<text font-size="12" text-anchor="middle" x="339.2226148409894" y="20">
600
</text>
<text font-size="12" text-anchor="middle" x="452.29681978798584" y="20">
800
</text>
</g>
<text font-size="12" text-anchor="middle" x="240" y="30">

</text>
</g>
<g>
<g>
<line stroke="black" stroke-width="1" x1="0" x2="-10" y1="-18.098785643711793" y2="-18.098785643711793"/>
<line stroke="black" stroke-width="1" x1="0" x2="-10" y1="-90.49392821855898" y2="-90.49392821855898"/>
<line stroke="black" stroke-width="1" x1="0" x2="-10" y1="-162.88907079340615" y2="-162.88907079340615"/>
<line stroke="black" stroke-width="1" x1="0" x2="-10" y1="-235.28421336825335" y2="-235.28421336825335"/>
<line stroke="black" stroke-width="1" x1="0" x2="-10" y1="-307.6793559431006" y2="-307.6793559431006"/>
</g>
<line stroke="black" stroke-width="1" x1="0" x2="0" y1="0" y2="-340"/>
<g>
<text dominant-baseline="middle" font-size="12" text-anchor="end" x="-15" y="-18.098785643711793">
-0.8
</text>
<text dominant-baseline="middle" font-size="12" text-anchor="end" x="-15" y="-90.49392821855898">
-0.4
</text>
<text dominant-baseline="middle" font-size="12" text-anchor="end" x="-15" y="-162.88907079340615">
0
</text>
<text dominant-baseline="middle" font-size="12" text-anchor="end" x="-15" y="-235.28421336825335">
0.4
</text>
<text dominant-baseline="middle" font-size="12" text-anchor="end" x="-15" y="-307.6793559431006">
0.8
</text>
</g>
<text font-size="12" text-anchor="middle" transform="rotate(-90 -48 -170)" x="-48" y="-182">

</text>
</g>
</g>
</svg>