<svg viewBox="0 0 600 400" xmlns="http://www.w3.org/2000/svg">
<g transform="translate(72, 364)">
<g>
<g>
<path d="M0,-0 L0,-0 L0.21641119,-34 L0.43282238,-64.6 L0.6492335,-92.14 L0.86564475,-116.926 L1.0820559,-139.2334 L1.298467,-159.31006 L1.5148783,-139.60127 L1.7312895,-159.64114 L1.9477006,-177.67703 L2.1641119,-193.90933 L2.380523,-208.5184 L2.596934,-221.66656 L2.8133454,-233.49991 L3.0297565,-244.14992 L3.2461677,-253.73492 L3.462579,-262.36142 L3.6789901,-270.12527 L3.8954012,-277.11276 L4.1118126,-283.4015 L4.3282237,-289.06134 L4.544635,-294.1552 L4.761046,-298.7397 L4.977457,-302.86572 L5.193868,-306.57913 L5.4102798,-309.92123 L5.626691,-312.9291 L5.843102,-315.6362 L6.059513,-318.07257 L6.275924,-320.26532 L6.4923353,-322.2388 L6.7087464,-324.0149 L6.925158,-325.6134 L7.141569,-327.05206 L7.3579803,-328.34686 L7.5743914,-329.51218 L7.7908025,-330.56097 L8.007214,-331.50485 L8.223625,-332.35437 L8.440036,-333.11893 L8.656447,-333.80704 L8.872858,-334.42633 L9.08927,-334.9837 L9.305681,-335.48535 L9.522092,-335.9368 L9.738503,-336.3431 L9.954914,-336.7088 L10.171326,-337.03793 L10.387736,-337.33414 L10.604148,-337.6007 L10.8205595,-337.84064 L11.03697,-338.05658 L11.253382,-338.25092 L11.469792,-338.42584 L11.686204,-338.58325 L11.902615,-338.7249 L12.119026,-338.85245 L12.335438,-338.9672 L12.551848,-339.07047 L12.76826,-339.16342 L12.984671,-339.24707 L13.201082,-339.3224 L13.417493,-339.39014 L13.633904,-339.4511 L13.850316,-339.506 L14.066727,-339.55542 L14.283138,-339.59985 L14.499549,-339.6399 L14.7159605,-339.6759 L14.932371,-339.7083 L15.148783,-339.7375 L15.365194,-339.76373 L15.581605,-339.78735 L15.798017,-339.80862 L16.014427,-339.82776 L16.230839,-339.84497 L16.44725,-339.86047 L16.66366,-339.87442 L16.880072,-339.887 L17.096483,-339.8983 L17.312895,-339.90848 L17.529306,-339.9176 L17.745716,-339.92584 L17.962128,-339.93326 L18.17854,-339.93994 L18.39495,-339.94595 L18.611362,-339.95135 L18.827772,-339.9562 L19.044184,-339.9606 L19.260595,-339.96454 L19.477007,-339.96808 L19.693417,-339.97128 L19.909828,-339.97415 L20.12624,-339.97675 L20.342651,-339.97906 L20.559063,-339.98114 L20.775473,-339.98303 L20.991884,-339.98474 L21.208296,-339.98627 L21.424707,-339.98764 L21.641119,-339.98886 L21.857529,-339.99 L22.07394,-339.991 L22.290352,-339.99188 L22.506763,-339.9927 L22.723173,-339.99344 L22.939585,-339.99408 L23.155996,-339.9947 L23.372408,-339.9952 L23.58882,-339.9957 L23.80523,-339.99612 L24.02164,-339.99652 L24.238052,-339.99686 L24.454464,-339.99716 L24.670876,-339.99747 L24.887285,-339.9977 L25.103697,-339.99792 L25.320108,-339.99814 L25.53652,-339.99832 L25.75293,-339.9985 L25.969341,-339.99866 L26.185753,-339.99878 L26.402164,-339.9989 L26.618576,-339.99902 L26.834986,-339.9991 L27.051397,-339.9992 L27.267809,-339.99927 L27.48422,-339.99936 L27.700632,-339.99942 L27.917042,-339.99948 L28.133453,-339.99954 L28.349865,-339.99957 L28.566277,-339.9996 L28.782686,-339.99966 L28.999098,-339.9997 L29.21551,-339.99973 L29.431921,-339.99976 L29.648333,-339.9998 L29.864742,-339.9998 L30.081154,-339.99982 L30.297565,-339.99985 L30.513977,-339.99985 L30.730389,-339.99988 L30.946798,-339.99988 L31.16321,-339.99988 L31.379622,-339.9999 L31.596033,-339.9999 L31.812443,-339.9999 L32.028854,-339.99994 L32.245266,-339.99994 L32.461678,-339.99994 L32.67809,-339.99994 L32.8945,-339.99994 L33.110912,-339.99997 L33.32732,-339.99997 L33.54373,-339.99997 L33.760143,-339.99997 L33.976555,-339.99997 L34.192966,-339.99997 L34.409378,-339.99997 L34.62579,-339.99997 L34.8422,-339.99997 L35.058613,-339.99997 L35.275024,-340 L35.491432,-340 L35.707844,-340 L35.924255,-340 L36.140667,-340 L36.35708,-340 L36.57349,-340 L36.7899,-340 L37.006313,-340 L37.222725,-340 L37.439133,-340 L37.655544,-340 L37.871956,-340 L38.088367,-340 L38.30478,-340 L38.52119,-340 L38.737602,-340 L38.954014,-340 L39.170425,-340 L39.386833,-340 L39.603245,-340 L39.819656,-340 L40.036068,-340 L40.25248,-340 L40.46889,-340 L40.685303,-340 L40.901714,-340 L41.118126,-340 L41.334538,-340 L41.550945,-340 L41.767357,-340 L41.98377,-340 L42.20018,-340 L42.41659,-340 L42.633003,-340 L42.849415,-340 L43.065826,-340 L43.282238,-340 L43.498646,-340 L43.715057,-340 L43.93147,-340 L44.14788,-340 L44.364292,-340 L44.580704,-340 L44.797115,-340 L45.013527,-340 L45.22994,-340 L45.446346,-340 L45.662758,-340 L45.87917,-340 L46.09558,-340 L46.311993,-340 L46.528404,-340 L46.744816,-340 L46.961227,-340 L47.17764,-340 L47.39405,-340 L47.61046,-340 L47.82687,-340 L48.04328,-340 L48.259693,-340 L48.476105,-340 L48.692516,-340 L48.908928,-340 L49.12534,-340 L49.34175,-340 L49.55816,-340 L49.77457,-340 L49.990982,-340 L50.207394,-340 L50.423805,-340 L50.640217,-340 L50.85663,-340 L51.07304,-340 L51.28945,-340 L51.50586,-340 L51.72227,-340 L51.938683,-340 L52.155094,-340 L52.371506,-340 L52.587917,-340 L52.80433,-340 L53.02074,-340 L53.237152,-340 L53.45356,-340 L53.66997,-340 L53.886383,-340 L54.102795,-340 L54.319206,-340 L54.535618,-340 L54.75203,-340 L54.96844,-340 L55.184853,-340 L55.401264,-340 L55.617672,-340 L55.834084,-340 L56.050495,-340 L56.266907,-340 L56.48332,-340 L56.69973,-340 L56.91614,-340 L57.132553,-340 L57.348965,-340 L57.565372,-340 L57.781784,-340 L57.998196,-340 L58.214607,-340 L58.43102,-340 L58.64743,-340 L58.863842,-340 L59.080254,-340 L59.296665,-340 L59.513073,-340 L59.729485,-340 L59.945896,-340 L60.162308,-340 L60.37872,-340 L60.59513,-340 L60.811543,-340 L61.027954,-340 L61.244366,-340 L61.460777,-340 L61.677185,-340 L61.893597,-340 L62.11001,-340 L62.32642,-340 L62.54283,-340 L62.759243,-340 L62.975655,-340 L63.192066,-340 L63.408478,-340 L63.624886,-340 L63.841297,-340 L64.05771,-340 L64.274124,-340 L64.49053,-340 L64.70694,-340 L64.923355,-340 L65.13976,-340 L65.35618,-340 L65.572586,-340 L65.789,-340 L66.00541,-340 L66.221825,-340 L66.43823,-340 L66.65464,-340 L66.871056,-340 L67.08746,-340 L67.30388,-340 L67.52029,-340 L67.7367,-340 L67.95311,-340 L68.169525,-340 L68.38593,-340 L68.60234,-340 L68.818756,-340 L69.035164,-340 L69.25158,-340 L69.46799,-340 L69.6844,-340 L69.90081,-340 L70.117226,-340 L70.33363,-340 L70.55005,-340 L70.76646,-340 L70.982864,-340 L71.19928,-340 L71.41569,-340 L71.6321,-340 L71.84851,-340 L72.064926,-340 L72.281334,-340 L72.49775,-340 L72.71416,-340 L72.930565,-340 L73.14698,-340 L73.36339,-340 L73.5798,-340 L73.79621,-340 L74.01263,-340 L74.229034,-340 L74.44545,-340 L74.66186,-340 L74.878265,-340 L75.09468,-340 L75.31109,-340 L75.527504,-340 L75.74391,-340 L75.96033,-340 L76.176735,-340 L76.39315,-340 L76.60956,-340 L76.825966,-340 L77.04238,-340 L77.25879,-340 L77.475204,-340 L77.69161,-340 L77.90803,-340 L78.124435,-340 L78.34085,-340 L78.55726,-340 L78.77367,-340 L78.99008,-340 L79.20649,-340 L79.422905,-340 L79.63931,-340 L79.85573,-340 L80.072136,-340 L80.28855,-340 L80.50496,-340 L80.72137,-340 L80.93778,-340 L81.15419,-340 L81.370605,-340 L81.58701,-340 L81.80343,-340 L82.01984,-340 L82.23625,-340 L82.45266,-340 L82.669075,-340 L82.88548,-340 L83.10189,-340 L83.318306,-340 L83.53471,-340 L83.75113,-340 L83.96754,-340 L84.18395,-340 L84.40036,-340 L84.616776,-340 L84.83318,-340 L85.04959,-340 L85.26601,-340 L85.482414,-340 L85.69883,-340 L85.91524,-340 L86.13165,-340 L86.34806,-340 L86.564476,-340 L86.78088,-340 L86.99729,-340 L87.21371,-340 L87.430115,-340 L87.64653,-340 L87.86294,-340 L88.07935,-340 L88.29576,-340 L88.51218,-340 L88.728584,-340 L88.94499,-340 L89.16141,-340 L89.377815,-340 L89.59423,-340 L89.81064,-340 L90.027054,-340 L90.24346,-340 L90.45988,-340 L90.676285,-340 L90.89269,-340 L91.10911,-340 L91.325516,-340 L91.54193,-340 L91.75834,-340 L91.974754,-340 L92.19116,-340 L92.40758,-340 L92.623985,-340 L92.84039,-340 L93.05681,-340 L93.27322,-340 L93.48963,-340 L93.70604,-340 L93.922455,-340 L94.13886,-340 L94.35528,-340 L94.571686,-340 L94.7881,-340 L95.00451,-340 L95.22092,-340 L95.43733,-340 L95.65374,-340 L95.870155,-340 L96.08656,-340 L96.30298,-340 L96.51939,-340 L96.7358,-340 L96.95221,-340 L97.16862,-340 L97.38503,-340 L97.60144,-340 L97.817856,-340 L98.03426,-340 L98.25068,-340 L98.46709,-340 L98.6835,-340 L98.89991,-340 L99.11632,-340 L99.33273,-340 L99.54914,-340 L99.76556,-340 L99.981964,-340 L100.19838,-340 L100.41479,-340 L100.6312,-340 L100.84761,-340 L101.06402,-340 L101.28043,-340 L101.49684,-340 L101.71326,-340 L101.929665,-340 L102.14608,-340 L102.36249,-340 L102.5789,-340 L102.79531,-340 L103.01172,-340 L103.228134,-340 L103.44454,-340 L103.66096,-340 L103.877365,-340 L104.09378,-340 L104.31019,-340 L104.5266,-340 L104.74301,-340 L104.95942,-340 L105.175835,-340 L105.39224,-340 L105.60866,-340 L105.825066,-340 L106.04148,-340 L106.25789,-340 L106.474304,-340 L106.69071,-340 L106.90712,-340 L107.123535,-340 L107.33994,-340 L107.55636,-340 L107.772766,-340 L107.98918,-340 L108.20559,-340 L108.422005,-340 L108.63841,-340 L108.85483,-340 L109.071236,-340 L109.28764,-340 L109.50406,-340 L109.72047,-340 L109.93688,-340 L110.15329,-340 L110.369705,-340 L110.58611,-340 L110.80253,-340 L111.018936,-340 L111.235344,-340 L111.45176,-340 L111.66817,-340 L111.88458,-340 L112.10099,-340 L112.317406,-340 L112.53381,-340 L112.75023,-340 L112.96664,-340 L113.183044,-340 L113.39946,-340 L113.61587,-340 L113.83228,-340 L114.04869,-340 L114.26511,-340 L114.481514,-340 L114.69793,-340 L114.91434,-340 L115.130745,-340 L115.34716,-340 L115.56357,-340 L115.77998,-340 L115.99639,-340 L116.21281,-340 L116.429214,-340 L116.64563,-340 L116.86204,-340 L117.078445,-340 L117.29486,-340 L117.51127,-340 L117.727684,-340 L117.94409,-340 L118.16051,-340 L118.376915,-340 L118.59333,-340 L118.80974,-340 L119.026146,-340 L119.24256,-340 L119.45897,-340 L119.675385,-340 L119.89179,-340 L120.10821,-340 L120.324615,-340 L120.54103,-340 L120.75744,-340 L120.973854,-340 L121.19026,-340 L121.40667,-340 L121.623085,-340 L121.83949,-340 L122.05591,-340 L122.272316,-340 L122.48873,-340 L122.70514,-340 L122.921555,-340 L123.13796,-340 L123.35437,-340 L123.570786,-340 L123.78719,-340 L124.00361,-340 L124.22002,-340 L124.43643,-340 L124.65284,-340 L124.869255,-340 L125.08566,-340 L125.30207,-340 L125.518486,-340 L125.73489,-340 L125.95131,-340 L126.16772,-340 L126.38413,-340 L126.60054,-340 L126.816956,-340 L127.03336,-340 L127.24977,-340 L127.46619,-340 L127.682594,-340 L127.89901,-340 L128.11542,-340 L128.33183,-340 L128.54825,-340 L128.76465,-340 L128.98106,-340 L129.19748,-340 L129.41388,-340 L129.6303,-340 L129.84671,-340 L130.06313,-340 L130.27953,-340 L130.49594,-340 L130.71236,-340 L130.92877,-340 L131.14517,-340 L131.36159,-340 L131.578,-340 L131.7944,-340 L132.01082,-340 L132.22723,-340 L132.44365,-340 L132.66005,-340 L132.87646,-340 L133.09288,-340 L133.30928,-340 L133.5257,-340 L133.74211,-340 L133.95853,-340 L134.17493,-340 L134.39134,-340 L134.60776,-340 L134.82417,-340 L135.04057,-340 L135.25699,-340 L135.4734,-340 L135.6898,-340 L135.90622,-340 L136.12263,-340 L136.33905,-340 L136.55545,-340 L136.77187,-340 L136.98828,-340 L137.20468,-340 L137.4211,-340 L137.63751,-340 L137.85393,-340 L138.07033,-340 L138.28674,-340 L138.50316,-340 L138.71957,-340 L138.93597,-340 L139.15239,-340 L139.3688,-340 L139.5852,-340 L139.80162,-340 L140.01804,-340 L140.23445,-340 L140.45085,-340 L140.66727,-340 L140.88368,-340 L141.1001,-340 L141.3165,-340 L141.53291,-340 L141.74933,-340 L141.96573,-340 L142.18214,-340 L142.39856,-340 L142.61497,-340 L142.83138,-340 L143.04779,-340 L143.2642,-340 L143.4806,-340 L143.69702,-340 L143.91344,-340 L144.12985,-340 L144.34625,-340 L144.56267,-340 L144.77908,-340 L144.9955,-340 L145.2119,-340 L145.42831,-340 L145.64473,-340 L145.86113,-340 L146.07755,-340 L146.29396,-340 L146.51038,-340 L146.72678,-340 L146.94319,-340 L147.1596,-340 L147.376,-340 L147.59242,-340 L147.80884,-340 L148.02525,-340 L148.24165,-340 L148.45807,-340 L148.67448,-340 L148.8909,-340 L149.1073,-340 L149.32372,-340 L149.54013,-340 L149.75653,-340 L149.97295,-340 L150.18936,-340 L150.40578,-340 L150.62218,-340 L150.8386,-340 L151.05501,-340 L151.27141,-340 L151.48782,-340 L151.70424,-340 L151.92065,-340 L152.13705,-340 L152.35347,-340 L152.56989,-340 L152.7863,-340 L153.0027,-340 L153.21912,-340 L153.43553,-340 L153.65193,-340 L153.86835,-340 L154.08476,-340 L154.30118,-340 L154.51758,-340 L154.734,-340 L154.95041,-340 L155.16682,-340 L155.38322,-340 L155.59964,-340 L155.81606,-340 L156.03246,-340 L156.24887,-340 L156.46529,-340 L156.6817,-340 L156.8981,-340 L157.11452,-340 L157.33093,-340 L157.54733,-340 L157.76375,-340 L157.98016,-340 L158.19658,-340 L158.41298,-340 L158.6294,-340 L158.84581,-340 L159.06223,-340 L159.27863,-340 L159.49504,-340 L159.71146,-340 L159.92786,-340 L160.14427,-340 L160.36069,-340 L160.5771,-340 L160.7935,-340 L161.00992,-340 L161.22633,-340 L161.44273,-340 L161.65915,-340 L161.87556,-340 L162.09198,-340 L162.30838,-340 L162.5248,-340 L162.74121,-340 L162.95763,-340 L163.17403,-340 L163.39044,-340 L163.60686,-340 L163.82326,-340 L164.03967,-340 L164.25609,-340 L164.4725,-340 L164.6889,-340 L164.90532,-340 L165.12173,-340 L165.33815,-340 L165.55455,-340 L165.77097,-340 L165.98738,-340 L166.20378,-340 L166.4202,-340 L166.63661,-340 L166.85303,-340 L167.06943,-340 L167.28584,-340 L167.50226,-340 L167.71866,-340 L167.93507,-340 L168.15149,-340 L168.3679,-340 L168.5843,-340 L168.80072,-340 L169.01714,-340 L169.23355,-340 L169.44995,-340 L169.66637,-340 L169.88278,-340 L170.09918,-340 L170.3156,-340 L170.53201,-340 L170.74843,-340 L170.96483,-340 L171.18124,-340 L171.39766,-340 L171.61406,-340 L171.83047,-340 L172.04689,-340 L172.2633,-340 L172.4797,-340 L172.69612,-340 L172.91254,-340 L173.12895,-340 L173.34535,-340 L173.56177,-340 L173.77818,-340 L173.99458,-340 L174.211,-340 L174.42741,-340 L174.64383,-340 L174.86023,-340 L175.07664,-340 L175.29306,-340 L175.50946,-340 L175.72588,-340 L175.94229,-340 L176.1587,-340 L176.3751,-340 L176.59152,-340 L176.80794,-340 L177.02435,-340 L177.24075,-340 L177.45717,-340 L177.67358,-340 L177.88998,-340 L178.1064,-340 L178.32281,-340 L178.53923,-340 L178.75563,-340 L178.97205,-340 L179.18846,-340 L179.40488,-340 L179.62128,-340 L179.83769,-340 L180.05411,-340 L180.27051,-340 L180.48692,-340 L180.70334,-340 L180.91975,-340 L181.13615,-340 L181.35257,-340 L181.56898,-340 L181.78539,-340 L182.0018,-340 L182.21822,-340 L182.43463,-340 L182.65103,-340 L182.86745,-340 L183.08386,-340 L183.30028,-340 L183.51668,-340 L183.7331,-340 L183.94951,-340 L184.16591,-340 L184.38232,-340 L184.59874,-340 L184.81516,-340 L185.03156,-340 L185.24797,-340 L185.46439,-340 L185.68079,-340 L185.8972,-340 L186.11362,-340 L186.33003,-340 L186.54643,-340 L186.76285,-340 L186.97926,-340 L187.19568,-340 L187.41208,-340 L187.6285,-340 L187.84491,-340 L188.06131,-340 L188.27773,-340 L188.49414,-340 L188.71056,-340 L188.92696,-340 L189.14337,-340 L189.35979,-340 L189.5762,-340 L189.7926,-340 L190.00902,-340 L190.22543,-340 L190.44183,-340 L190.65825,-340 L190.87466,-340 L191.09108,-340 L191.30748,-340 L191.5239,-340 L191.74031,-340 L191.95671,-340 L192.17313,-340 L192.38954,-340 L192.60596,-340 L192.82236,-340 L193.03877,-340 L193.25519,-340 L193.4716,-340 L193.688,-340 L193.90442,-340 L194.12083,-340 L194.33723,-340 L194.55365,-340 L194.77007,-340 L194.98648,-340 L195.20288,-340 L195.4193,-340 L195.63571,-340 L195.85211,-340 L196.06853,-340 L196.28494,-340 L196.50136,-340 L196.71776,-340 L196.93417,-340 L197.15059,-340 L197.367,-340 L197.5834,-340 L197.79982,-340 L198.01624,-340 L198.23264,-340 L198.44905,-340 L198.66547,-340 L198.88188,-340 L199.09828,-340 L199.3147,-340 L199.53111,-340 L199.74751,-340 L199.96393,-340 L200.18034,-340 L200.39676,-340 L200.61316,-340 L200.82957,-340 L201.04599,-340 L201.2624,-340 L201.4788,-340 L201.69522,-340 L201.91164,-340 L202.12804,-340 L202.34445,-340 L202.56087,-340 L202.77728,-340 L202.99368,-340 L203.2101,-340 L203.42651,-340 L203.64293,-340 L203.85933,-340 L204.07574,-340 L204.29216,-340 L204.50856,-340 L204.72498,-340 L204.94139,-340 L205.1578,-340 L205.3742,-340 L205.59062,-340 L205.80704,-340 L206.02344,-340 L206.23985,-340 L206.45627,-340 L206.67268,-340 L206.88908,-340 L207.1055,-340 L207.32191,-340 L207.53833,-340 L207.75473,-340 L207.97115,-340 L208.18756,-340 L208.40396,-340 L208.62038,-340 L208.83679,-340 L209.0532,-340 L209.2696,-340 L209.48602,-340 L209.70244,-340 L209.91884,-340 L210.13525,-340 L210.35167,-340 L210.56808,-340 L210.78448,-340 L211.0009,-340 L211.21732,-340 L211.43373,-340 L211.65013,-340 L211.86655,-340 L212.08296,-340 L212.29936,-340 L212.51578,-340 L212.7322,-340 L212.94861,-340 L213.16501,-340 L213.38142,-340 L213.59784,-340 L213.81424,-340 L214.03065,-340 L214.24707,-340 L214.46349,-340 L214.67989,-340 L214.8963,-340 L215.11272,-340 L215.32913,-340 L215.54553,-340 L215.76195,-340 L215.97836,-340 L216.19476,-340 L216.41118,-340 L216.6276,-340 L216.84401,-340 L217.06041,-340 L217.27682,-340 L217.49324,-340 L217.70966,-340 L217.92606,-340 L218.14247,-340 L218.35889,-340 L218.57529,-340 L218.7917,-340 L219.00812,-340 L219.22453,-340 L219.44093,-340 L219.65735,-340 L219.87376,-340 L220.09016,-340 L220.30658,-340 L220.523,-340 L220.73941,-340 L220.95581,-340 L221.17223,-340 L221.38864,-340 L221.60506,-340 L221.82146,-340 L222.03787,-340 L222.25429,-340 L222.47069,-340 L222.6871,-340 L222.90352,-340 L223.11993,-340 L223.33633,-340 L223.55275,-340 L223.76917,-340 L223.98557,-340 L224.20198,-340 L224.4184,-340 L224.63481,-340 L224.85121,-340 L225.06763,-340 L225.28404,-340 L225.50046,-340 L225.71686,-340 L225.93327,-340 L226.14969,-340 L226.36609,-340 L226.5825,-340 L226.79892,-340 L227.01534,-340 L227.23174,-340 L227.44815,-340 L227.66457,-340 L227.88098,-340 L228.09738,-340 L228.3138,-340 L228.53021,-340 L228.74661,-340 L228.96303,-340 L229.17944,-340 L229.39586,-340 L229.61226,-340 L229.82867,-340 L230.04509,-340 L230.26149,-340 L230.4779,-340 L230.69432,-340 L230.91074,-340 L231.12714,-340 L231.34355,-340 L231.55997,-340 L231.77638,-340 L231.99278,-340 L232.2092,-340 L232.42561,-340 L232.64201,-340 L232.85843,-340 L233.07484,-340 L233.29126,-340 L233.50766,-340 L233.72408,-340 L233.94049,-340 L234.15689,-340 L234.3733,-340 L234.58972,-340 L234.80614,-340 L235.02254,-340 L235.23895,-340 L235.45537,-340 L235.67178,-340 L235.88818,-340 L236.1046,-340 L236.32101,-340 L236.53741,-340 L236.75383,-340 L236.97025,-340 L237.18666,-340 L237.40306,-340 L237.61948,-340 L237.83589,-340 L238.05229,-340 L238.2687,-340 L238.48512,-340 L238.70154,-340 L238.91794,-340 L239.13435,-340 L239.35077,-340 L239.56718,-340 L239.78358,-340 L240,-340 L240.21642,-340 L240.43282,-340 L240.64923,-340 L240.86565,-340 L241.08206,-340 L241.29846,-340 L241.51488,-340 L241.7313,-340 L241.94771,-340 L242.16411,-340 L242.38052,-340 L242.59694,-340 L242.81334,-340 L243.02975,-340 L243.24617,-340 L243.46259,-340 L243.67899,-340 L243.8954,-340 L244.11182,-340 L244.32822,-340 L244.54463,-340 L244.76105,-340 L244.97746,-340 L245.19386,-340 L245.41028,-340 L245.6267,-340 L245.84311,-340 L246.05951,-340 L246.27592,-340 L246.49234,-340 L246.70874,-340 L246.92516,-340 L247.14157,-340 L247.35799,-340 L247.57439,-340 L247.7908,-340 L248.00722,-340 L248.22362,-340 L248.44003,-340 L248.65645,-340 L248.87286,-340 L249.08926,-340 L249.30568,-340 L249.5221,-340 L249.73851,-340 L249.95491,-340 L250.17133,-340 L250.38774,-340 L250.60414,-340 L250.82056,-340 L251.03697,-340 L251.25339,-340 L251.46979,-340 L251.6862,-340 L251.90262,-340 L252.11902,-340 L252.33543,-340 L252.55185,-340 L252.76826,-340 L252.98466,-340 L253.20108,-340 L253.4175,-340 L253.63391,-340 L253.85031,-340 L254.06673,-340 L254.28314,-340 L254.49954,-340 L254.71596,-340 L254.93237,-340 L255.14879,-340 L255.36519,-340 L255.5816,-340 L255.79802,-340 L256.01443,-340 L256.23083,-340 L256.44724,-340 L256.66367,-340 L256.88007,-340 L257.0965,-340 L257.3129,-340 L257.5293,-340 L257.74573,-340 L257.96213,-340 L258.17853,-340 L258.39496,-340 L258.61136,-340 L258.82776,-340 L259.0442,-340 L259.2606,-340 L259.47702,-340 L259.69342,-340 L259.90982,-340 L260.12625,-340 L260.34265,-340 L260.55905,-340 L260.77548,-340 L260.99188,-340 L261.20828,-340 L261.4247,-340 L261.6411,-340 L261.85754,-340 L262.07394,-340 L262.29034,-340 L262.50677,-340 L262.72318,-340 L262.93958,-340 L263.156,-340 L263.3724,-340 L263.5888,-340 L263.80524,-340 L264.02164,-340 L264.23804,-340 L264.45447,-340 L264.67087,-340 L264.8873,-340 L265.1037,-340 L265.3201,-340 L265.53653,-340 L265.75293,-340 L265.96933,-340 L266.18576,-340 L266.40216,-340 L266.61856,-340 L266.835,-340 L267.0514,-340 L267.26782,-340 L267.48422,-340 L267.70062,-340 L267.91705,-340 L268.13345,-340 L268.34985,-340 L268.56628,-340 L268.78268,-340 L268.99908,-340 L269.2155,-340 L269.43192,-340 L269.64835,-340 L269.86475,-340 L270.08115,-340 L270.29758,-340 L270.51398,-340 L270.73038,-340 L270.9468,-340 L271.1632,-340 L271.3796,-340 L271.59604,-340 L271.81244,-340 L272.02887,-340 L272.24527,-340 L272.46167,-340 L272.6781,-340 L272.8945,-340 L273.1109,-340 L273.32733,-340 L273.54373,-340 L273.76013,-340 L273.97656,-340 L274.19296,-340 L274.40936,-340 L274.6258,-340 L274.8422,-340 L275.05862,-340 L275.27502,-340 L275.49142,-340 L275.70786,-340 L275.92426,-340 L276.14066,-340 L276.3571,-340 L276.5735,-340 L276.7899,-340 L277.00632,-340 L277.22272,-340 L277.43915,-340 L277.65555,-340 L277.87195,-340 L278.08838,-340 L278.30478,-340 L278.52118,-340 L278.7376,-340 L278.954,-340 L279.1704,-340 L279.38684,-340 L279.60324,-340 L279.81967,-340 L280.03607,-340 L280.25247,-340 L280.4689,-340 L280.6853,-340 L280.9017,-340 L281.11813,-340 L281.33453,-340 L281.55093,-340 L281.76736,-340 L281.98376,-340 L282.2002,-340 L282.4166,-340 L282.633,-340 L282.84943,-340 L283.06583,-340 L283.28223,-340 L283.49866,-340 L283.71506,-340 L283.93146,-340 L284.1479,-340 L284.3643,-340 L284.5807,-340 L284.79712,-340 L285.01352,-340 L285.22995,-340 L285.44635,-340 L285.66275,-340 L285.87918,-340 L286.09558,-340 L286.31198,-340 L286.5284,-340 L286.7448,-340 L286.9612,-340 L287.17764,-340 L287.39404,-340 L287.61047,-340 L287.82687,-340 L288.04327,-340 L288.2597,-340 L288.4761,-340 L288.6925,-340 L288.90894,-340 L289.12534,-340 L289.34174,-340 L289.55817,-340 L289.77457,-340 L289.991,-340 L290.2074,-340 L290.4238,-340 L290.64023,-340 L290.85663,-340 L291.07303,-340 L291.28946,-340 L291.50586,-340 L291.72226,-340 L291.9387,-340 L292.1551,-340 L292.37152,-340 L292.58792,-340 L292.80432,-340 L293.02075,-340 L293.23715,-340 L293.45355,-340 L293.66998,-340 L293.88638,-340 L294.10278,-340 L294.3192,-340 L294.5356,-340 L294.752,-340 L294.96844,-340 L295.18484,-340 L295.40128,-340 L295.61768,-340 L295.83408,-340 L296.0505,-340 L296.2669,-340 L296.4833,-340 L296.69974,-340 L296.91614,-340 L297.13254,-340 L297.34897,-340 L297.56537,-340 L297.7818,-340 L297.9982,-340 L298.2146,-340 L298.43103,-340 L298.64743,-340 L298.86383,-340 L299.08026,-340 L299.29666,-340 L299.51306,-340 L299.7295,-340 L299.9459,-340 L300.16232,-340 L300.37872,-340 L300.59512,-340 L300.81155,-340 L301.02795,-340 L301.24435,-340 L301.4608,-340 L301.6772,-340 L301.8936,-340 L302.11002,-340 L302.32642,-340 L302.54282,-340 L302.75925,-340 L302.97565,-340 L303.19208,-340 L303.40848,-340 L303.62488,-340 L303.8413,-340 L304.0577,-340 L304.2741,-340 L304.49054,-340 L304.70694,-340 L304.92334,-340 L305.13977,-340 L305.35617,-340 L305.5726,-340 L305.789,-340 L306.0054,-340 L306.22183,-340 L306.43823,-340 L306.65463,-340 L306.87106,-340 L307.08746,-340 L307.30386,-340 L307.5203,-340 L307.7367,-340 L307.95313,-340 L308.16953,-340 L308.38593,-340 L308.60236,-340 L308.81876,-340 L309.03516,-340 L309.2516,-340 L309.468,-340 L309.6844,-340 L309.90082,-340 L310.11722,-340 L310.33365,-340 L310.55005,-340 L310.76645,-340 L310.98288,-340 L311.19928,-340 L311.41568,-340 L311.6321,-340 L311.8485,-340 L312.0649,-340 L312.28134,-340 L312.49774,-340 L312.71414,-340 L312.93057,-340 L313.14697,-340 L313.3634,-340 L313.5798,-340 L313.7962,-340 L314.01263,-340 L314.22903,-340 L314.44543,-340 L314.66187,-340 L314.87827,-340 L315.09467,-340 L315.3111,-340 L315.5275,-340 L315.74393,-340 L315.96033,-340 L316.17673,-340 L316.39316,-340 L316.60956,-340 L316.82596,-340 L317.0424,-340 L317.2588,-340 L317.4752,-340 L317.69162,-340 L317.90802,-340 L318.12445,-340 L318.34085,-340 L318.55725,-340 L318.77368,-340 L318.99008,-340 L319.20648,-340 L319.4229,-340 L319.6393,-340 L319.8557,-340 L320.07214,-340 L320.28854,-340 L320.50497,-340 L320.72137,-340 L320.93777,-340 L321.1542,-340 L321.3706,-340 L321.587,-340 L321.80344,-340 L322.01984,-340 L322.23624,-340 L322.45267,-340 L322.66907,-340 L322.88547,-340 L323.1019,-340 L323.3183,-340 L323.53473,-340 L323.75113,-340 L323.96753,-340 L324.18396,-340 L324.40036,-340 L324.61676,-340 L324.8332,-340 L325.0496,-340 L325.266,-340 L325.48242,-340 L325.69882,-340 L325.91525,-340 L326.13165,-340 L326.34805,-340 L326.56448,-340 L326.78088,-340 L326.99728,-340 L327.2137,-340 L327.4301,-340 L327.6465,-340 L327.86295,-340 L328.07935,-340 L328.29578,-340 L328.51218,-340 L328.72858,-340 L328.945,-340 L329.1614,-340 L329.3778,-340 L329.59424,-340 L329.81064,-340 L330.02704,-340 L330.24347,-340 L330.45987,-340 L330.6763,-340 L330.8927,-340 L331.1091,-340 L331.32553,-340 L331.54193,-340 L331.75833,-340 L331.97476,-340 L332.19116,-340 L332.40756,-340 L332.624,-340 L332.8404,-340 L333.0568,-340 L333.27322,-340 L333.48962,-340 L333.70605,-340 L333.92245,-340 L334.13885,-340 L334.3553,-340 L334.5717,-340 L334.7881,-340 L335.00452,-340 L335.22092,-340 L335.43732,-340 L335.65375,-340 L335.87015,-340 L336.08658,-340 L336.30298,-340 L336.51938,-340 L336.7358,-340 L336.9522,-340 L337.1686,-340 L337.38504,-340 L337.60144,-340 L337.81784,-340 L338.03427,-340 L338.25067,-340 L338.4671,-340 L338.6835,-340 L338.8999,-340 L339.11633,-340 L339.33273,-340 L339.54913,-340 L339.76556,-340 L339.98196,-340 L340.19836,-340 L340.4148,-340 L340.6312,-340 L340.8476,-340 L341.06403,-340 L341.28043,-340 L341.49686,-340 L341.71326,-340 L341.92966,-340 L342.1461,-340 L342.3625,-340 L342.5789,-340 L342.79532,-340 L343.01172,-340 L343.22812,-340 L343.44455,-340 L343.66095,-340 L343.87738,-340 L344.09378,-340 L344.31018,-340 L344.5266,-340 L344.743,-340 L344.9594,-340 L345.17584,-340 L345.39224,-340 L345.60864,-340 L345.82507,-340 L346.04147,-340 L346.2579,-340 L346.4743,-340 L346.6907,-340 L346.90714,-340 L347.12354,-340 L347.33994,-340 L347.55637,-340 L347.77277,-340 L347.98917,-340 L348.2056,-340 L348.422,-340 L348.63843,-340 L348.85483,-340 L349.07123,-340 L349.28766,-340 L349.50406,-340 L349.72046,-340 L349.9369,-340 L350.1533,-340 L350.3697,-340 L350.58612,-340 L350.80252,-340 L351.01892,-340 L351.23535,-340 L351.45175,-340 L351.66818,-340 L351.88458,-340 L352.10098,-340 L352.3174,-340 L352.5338,-340 L352.7502,-340 L352.96664,-340 L353.18304,-340 L353.39944,-340 L353.61588,-340 L353.83228,-340 L354.0487,-340 L354.2651,-340 L354.4815,-340 L354.69794,-340 L354.91434,-340 L355.13074,-340 L355.34717,-340 L355.56357,-340 L355.77997,-340 L355.9964,-340 L356.2128,-340 L356.42923,-340 L356.64563,-340 L356.86203,-340 L357.07846,-340 L357.29486,-340 L357.51126,-340 L357.7277,-340 L357.9441,-340 L358.1605,-340 L358.37692,-340 L358.59332,-340 L358.80975,-340 L359.02615,-340 L359.24255,-340 L359.45898,-340 L359.67538,-340 L359.89178,-340 L360.10822,-340 L360.32462,-340 L360.54102,-340 L360.75745,-340 L360.97385,-340 L361.19025,-340 L361.40668,-340 L361.62308,-340 L361.8395,-340 L362.0559,-340 L362.2723,-340 L362.48874,-340 L362.70514,-340 L362.92154,-340 L363.13797,-340 L363.35437,-340 L363.57077,-340 L363.7872,-340 L364.0036,-340 L364.22003,-340 L364.43643,-340 L364.65283,-340 L364.86926,-340 L365.08566,-340 L365.30206,-340 L365.5185,-340 L365.7349,-340 L365.9513,-340 L366.16772,-340 L366.38412,-340 L366.60056,-340 L366.81696,-340 L367.03336,-340 L367.2498,-340 L367.4662,-340 L367.6826,-340 L367.89902,-340 L368.11542,-340 L368.33182,-340 L368.54825,-340 L368.76465,-340 L368.98108,-340 L369.19748,-340 L369.41388,-340 L369.6303,-340 L369.8467,-340 L370.0631,-340 L370.27954,-340 L370.49594,-340 L370.71234,-340 L370.92877,-340 L371.14517,-340 L371.36157,-340 L371.578,-340 L371.7944,-340 L372.01083,-340 L372.22723,-340 L372.44363,-340 L372.66006,-340 L372.87646,-340 L373.09286,-340 L373.3093,-340 L373.5257,-340 L373.7421,-340 L373.95853,-340 L374.17493,-340 L374.39136,-340 L374.60776,-340 L374.82416,-340 L375.0406,-340 L375.257,-340 L375.4734,-340 L375.68982,-340 L375.90622,-340 L376.12262,-340 L376.33905,-340 L376.55545,-340 L376.77188,-340 L376.98828,-340 L377.20468,-340 L377.4211,-340 L377.6375,-340 L377.8539,-340 L378.07034,-340 L378.28674,-340 L378.50314,-340 L378.71957,-340 L378.93597,-340 L379.1524,-340 L379.3688,-340 L379.5852,-340 L379.80164,-340 L380.01804,-340 L380.23444,-340 L380.45087,-340 L380.66727,-340 L380.88367,-340 L381.1001,-340 L381.3165,-340 L381.5329,-340 L381.74933,-340 L381.96573,-340 L382.18216,-340 L382.39856,-340 L382.61496,-340 L382.8314,-340 L383.0478,-340 L383.2642,-340 L383.48062,-340 L383.69702,-340 L383.91342,-340 L384.12985,-340 L384.34625,-340 L384.56268,-340 L384.77908,-340 L384.99548,-340 L385.2119,-340 L385.4283,-340 L385.6447,-340 L385.86115,-340 L386.07755,-340 L386.29395,-340 L386.51038,-340 L386.72678,-340 L386.9432,-340 L387.1596,-340 L387.376,-340 L387.59244,-340 L387.80884,-340 L388.02524,-340 L388.24167,-340 L388.45807,-340 L388.67447,-340 L388.8909,-340 L389.1073,-340 L389.3237,-340 L389.54013,-340 L389.75653,-340 L389.97296,-340 L390.18936,-340 L390.40576,-340 L390.6222,-340 L390.8386,-340 L391.055,-340 L391.27142,-340 L391.48782,-340 L391.70422,-340 L391.92065,-340 L392.13705,-340 L392.3535,-340 L392.5699,-340 L392.7863,-340 L393.00272,-340 L393.21912,-340 L393.43552,-340 L393.65195,-340 L393.86835,-340 L394.08475,-340 L394.30118,-340 L394.51758,-340 L394.734,-340 L394.9504,-340 L395.1668,-340 L395.38324,-340 L395.59964,-340 L395.81604,-340 L396.03247,-340 L396.24887,-340 L396.46527,-340 L396.6817,-340 L396.8981,-340 L397.11453,-340 L397.33093,-340 L397.54733,-340 L397.76376,-340 L397.98016,-340 L398.19656,-340 L398.413,-340 L398.6294,-340 L398.8458,-340 L399.06223,-340 L399.27863,-340 L399.49503,-340 L399.71146,-340 L399.92786,-340 L400.1443,-340 L400.3607,-340 L400.5771,-340 L400.79352,-340 L401.00992,-340 L401.22632,-340 L401.44275,-340 L401.65915,-340 L401.87555,-340 L402.09198,-340 L402.30838,-340 L402.5248,-340 L402.7412,-340 L402.9576,-340 L403.17404,-340 L403.39044,-340 L403.60684,-340 L403.82327,-340 L404.03967,-340 L404.25607,-340 L404.4725,-340 L404.6889,-340 L404.90533,-340 L405.12173,-340 L405.33813,-340 L405.55457,-340 L405.77097,-340 L405.98737,-340 L406.2038,-340 L406.4202,-340 L406.6366,-340 L406.85303,-340 L407.06943,-340 L407.28586,-340 L407.50226,-340 L407.71866,-340 L407.9351,-340 L408.1515,-340 L408.3679,-340 L408.58432,-340 L408.80072,-340 L409.01712,-340 L409.23355,-340 L409.44995,-340 L409.66635,-340 L409.88278,-340 L410.09918,-340 L410.3156,-340 L410.532,-340 L410.7484,-340 L410.96484,-340 L411.18124,-340 L411.39764,-340 L411.61407,-340 L411.83047,-340 L412.04688,-340 L412.2633,-340 L412.4797,-340 L412.69614,-340 L412.91254,-340 L413.12894,-340 L413.34537,-340 L413.56177,-340 L413.77817,-340 L413.9946,-340 L414.211,-340 L414.4274,-340 L414.64383,-340 L414.86023,-340 L415.07666,-340 L415.29306,-340 L415.50946,-340 L415.7259,-340 L415.9423,-340 L416.1587,-340 L416.37512,-340 L416.59152,-340 L416.80792,-340 L417.02435,-340 L417.24075,-340 L417.45718,-340 L417.67358,-340 L417.88998,-340 L418.1064,-340 L418.3228,-340 L418.5392,-340 L418.75565,-340 L418.97205,-340 L419.18845,-340 L419.40488,-340 L419.62128,-340 L419.83768,-340 L420.0541,-340 L420.2705,-340 L420.48694,-340 L420.70334,-340 L420.91974,-340 L421.13617,-340 L421.35257,-340 L421.56897,-340 L421.7854,-340 L422.0018,-340 L422.2182,-340 L422.43463,-340 L422.65103,-340 L422.86746,-340 L423.08386,-340 L423.30026,-340 L423.5167,-340 L423.7331,-340 L423.9495,-340 L424.16592,-340 L424.38232,-340 L424.59872,-340 L424.81516,-340 L425.03156,-340 L425.248,-340 L425.4644,-340 L425.6808,-340 L425.89722,-340 L426.11362,-340 L426.33002,-340 L426.54645,-340 L426.76285,-340 L426.97925,-340 L427.19568,-340 L427.41208,-340 L427.62848,-340 L427.8449,-340 L428.0613,-340 L428.27774,-340 L428.49414,-340 L428.71054,-340 L428.92697,-340 L429.14337,-340 L429.35977,-340 L429.5762,-340 L429.7926,-340 L430.009,-340 L430.22543,-340 L430.44183,-340 L430.65826,-340 L430.87466,-340 L431.09106,-340 L431.3075,-340 L431.5239,-340 L431.7403,-340 L431.95673,-340 L432.17313,-340 L432.38953,-340 L432.60596,-340 L432.82236,-340 L433.0388,-340 L433.2552,-340 L433.4716,-340 L433.68802,-340 L433.90442,-340 L434.12082,-340 L434.33725,-340 L434.55365,-340 L434.77005,-340 L434.98648,-340 L435.20288,-340 L435.4193,-340 L435.6357,-340 L435.8521,-340 L436.06854,-340 L436.28494,-340 L436.50134,-340 L436.71777,-340 L436.93417,-340 L437.15057,-340 L437.367,-340 L437.5834,-340 L437.7998,-340 L438.01624,-340 L438.23264,-340 L438.44907,-340 L438.66547,-340 L438.88187,-340 L439.0983,-340 L439.3147,-340 L439.5311,-340 L439.74753,-340 L439.96393,-340 L440.18033,-340 L440.39676,-340 L440.61316,-340 L440.8296,-340 L441.046,-340 L441.2624,-340 L441.47882,-340 L441.69522,-340 L441.91162,-340 L442.12805,-340 L442.34445,-340 L442.56085,-340 L442.77728,-340 L442.99368,-340 L443.2101,-340 L443.4265,-340 L443.6429,-340 L443.85934,-340 L444.07574,-340 L444.29214,-340 L444.50858,-340 L444.72498,-340 L444.94138,-340 L445.1578,-340 L445.3742,-340 L445.59064,-340 L445.80704,-340 L446.02344,-340 L446.23987,-340 L446.45627,-340 L446.67267,-340 L446.8891,-340 L447.1055,-340 L447.3219,-340 L447.53833,-340 L447.75473,-340 L447.97113,-340 L448.18756,-340 L448.40396,-340 L448.6204,-340 L448.8368,-340 L449.0532,-340 L449.26962,-340 L449.48602,-340 L449.70242,-340 L449.91885,-340 L450.13525,-340 L450.35165,-340 L450.56808,-340 L450.7845,-340 L451.00092,-340 L451.21732,-340 L451.43372,-340 L451.65015,-340 L451.86655,-340 L452.08295,-340 L452.29938,-340 L452.51578,-340 L452.73218,-340 L452.9486,-340 L453.165,-340 L453.38144,-340 L453.59784,-340 L453.81424,-340 L454.03067,-340 L454.24707,-340 L454.46347,-340 L454.6799,-340 L454.8963,-340 L455.1127,-340 L455.32913,-340 L455.54553,-340 L455.76196,-340 L455.97836,-340 L456.19476,-340 L456.4112,-340 L456.6276,-340 L456.844,-340 L457.06042,-340 L457.27682,-340 L457.49323,-340 L457.70966,-340 L457.92606,-340 L458.14246,-340 L458.3589,-340 L458.5753,-340 L458.79172,-340 L459.00812,-340 L459.22452,-340 L459.44095,-340 L459.65735,-340 L459.87375,-340 L460.09018,-340 L460.30658,-340 L460.52298,-340 L460.7394,-340 L460.9558,-340 L461.17224,-340 L461.38864,-340 L461.60504,-340 L461.82147,-340 L462.03787,-340 L462.25427,-340 L462.4707,-340 L462.6871,-340 L462.9035,-340 L463.11993,-340 L463.33633,-340 L463.55276,-340 L463.76917,-340 L463.98557,-340 L464.202,-340 L464.4184,-340 L464.6348,-340 L464.85123,-340 L465.06763,-340 L465.28403,-340 L465.50046,-340 L465.71686,-340 L465.93326,-340 L466.1497,-340 L466.3661,-340 L466.58252,-340 L466.79892,-340 L467.01532,-340 L467.23175,-340 L467.44815,-340 L467.66455,-340 L467.88098,-340 L468.09738,-340 L468.31378,-340 L468.5302,-340 L468.7466,-340 L468.96304,-340 L469.17944,-340 L469.39584,-340 L469.61227,-340 L469.82867,-340 L470.04507,-340 L470.2615,-340 L470.4779,-340 L470.6943,-340 L470.91074,-340 L471.12714,-340 L471.34357,-340 L471.55997,-340 L471.77637,-340 L471.9928,-340 L472.2092,-340 L472.4256,-340 L472.64203,-340 L472.85843,-340 L473.07483,-340 L473.29126,-340 L473.50766,-340 L473.7241,-340 L473.9405,-340 L474.1569,-340 L474.37332,-340 L474.58972,-340 L474.80612,-340 L475.02255,-340 L475.23895,-340 L475.45535,-340 L475.67178,-340 L475.88818,-340 L476.10458,-340 L476.321,-340 L476.5374,-340 L476.75385,-340 L476.97025,-340 L477.18665,-340 L477.40308,-340 L477.61948,-340 L477.83588,-340 L478.0523,-340 L478.2687,-340 L478.4851,-340 L478.70154,-340 L478.91794,-340 L479.13437,-340 L479.35077,-340 L479.56717,-340 L479.7836,-340 L480,-340" fill="none" stroke="black" stroke-linejoin="round" stroke-width="2"/>
</g>
</g>
<g>
<g>
<line stroke="black" stroke-width="1" x1="0" x2="0" y1="0" y2="10"/>
<line stroke="black" stroke-width="1" x1="86.56447249774571" x2="86.56447249774571" y1="0" y2="10"/>
<line stroke="black" stroke-width="1" x1="173.12894499549142" x2="173.12894499549142" y1="0" y2="10"/>
<line stroke="black" stroke-width="1" x1="259.6934174932372" x2="259.6934174932372" y1="0" y2="10"/>
<line stroke="black" stroke-width="1" x1="346.25788999098285" x2="346.25788999098285" y1="0" y2="10"/>
<line stroke="black" stroke-width="1" x1="432.8223624887286" x2="432.8223624887286" y1="0" y2="10"/>
</g>
<line stroke="black" stroke-width="1" x1="0" x2="480" y1="0" y2="0"/>
<g>
<text font-size="12" text-anchor="middle" x="0" y="20">
0
</text>
<text font-size="12" text-anchor="middle" x="86.56447249774571" y="20">
400
</text>
<text font-size="12" text-anchor="middle" x="173.12894499549142" y="20">
800
</text>
<text font-size="12" text-anchor="middle" x="259.6934174932372" y="20">
1200
</text>
<text font-size="12" text-anchor="middle" x="346.25788999098285" y="20">
1600
</text>
<text font-size="12" text-anchor="middle" x="432.8223624887286" y="20">
2000
</text>
</g>
<text font-size="12" text-anchor="middle" x="240" y="30">

</text>
</g>
<g>
<g>
<line stroke="black" stroke-width="1" x1="0" x2="-10" y1="-0" y2="-0"/>
<line stroke="black" stroke-width="1" x1="0" x2="-10" y1="-75.55555555555559" y2="-75.55555555555559"/>
<line stroke="black" stroke-width="1" x1="0" x2="-10" y1="-151.11111111111117" y2="-151.11111111111117"/>
<line stroke="black" stroke-width="1" x1="0" x2="-10" y1="-226.66666666666677" y2="-226.66666666666677"/>
<line stroke="black" stroke-width="1" x1="0" x2="-10" y1="-302.22222222222234" y2="-302.22222222222234"/>
</g>
<line stroke="black" stroke-width="1" x1="0" x2="0" y1="0" y2="-340"/>
<g>
<text dominant-baseline="middle" font-size="12" text-anchor="end" x="-15" y="-0">
-0.8
</text>
<text dominant-baseline="middle" font-size="12" text-anchor="end" x="-15" y="-75.55555555555559">
-0.4
</text>
<text dominant-baseline="middle" font-size="12" text-anchor="end" x="-15" y="-151.11111111111117">
0
</text>
<text dominant-baseline="middle" font-size="12" text-anchor="end" x="-15" y="-226.66666666666677">
0.4
</text>
<text dominant-baseline="middle" font-size="12" text-anchor="end" x="-15" y="-302.22222222222234">
0.8
</text>
</g>
<text font-size="12" text-anchor="middle" transform="rotate(-90 -48 -170)" x="-48" y="-182">

</text>
</g>
</g>
</svg>