<svg viewBox="0 0 600 400" xmlns="http://www.w3.org/2000/svg">
<g transform="translate(72, 364)">
<g>
<g>
<path d="M0,-340 L0,-340 L0.19347037,-340 L0.38694075,-340 L0.58041114,-340 L0.7738815,-340 L0.96735185,-340 L1.1608223,-340 L1.3542926,-340 L1.547763,-340 L1.7412333,-340 L1.9347037,-340 L2.128174,-340 L2.3216445,-0 L2.5151148,-34 L2.7085853,-64.6 L2.9020557,-92.14 L3.095526,-116.926 L3.2889965,-139.2334 L3.4824667,-159.31006 L3.6759372,-177.37906 L3.8694074,-193.64114 L4.0628777,-208.27704 L4.256348,-221.44933 L4.4498186,-233.3044 L4.643289,-243.97395 L4.8367596,-253.57657 L5.0302296,-262.2189 L5.2237,-269.997 L5.4171705,-276.9973 L5.610641,-283.29758 L5.8041115,-288.96783 L5.9975815,-294.07104 L6.191052,-298.66394 L6.3845224,-302.79755 L6.577993,-306.5178 L6.771463,-309.866 L6.9649334,-312.8794 L7.158404,-315.59146 L7.3518744,-318.03232 L7.545345,-320.2291 L7.738815,-322.20618 L7.9322853,-323.98557 L8.125755,-325.587 L8.319226,-327.02832 L8.512696,-328.32547 L8.706167,-329.49292 L8.899637,-330.54364 L9.093107,-331.48926 L9.286578,-332.34033 L9.480048,-333.10632 L9.673519,-333.7957 L9.866989,-334.4161 L10.060459,-334.9745 L10.25393,-335.47705 L10.4474,-335.92935 L10.640871,-336.3364 L10.834341,-336.70276 L11.027811,-337.0325 L11.221282,-337.32925 L11.414752,-337.5963 L11.608223,-337.8367 L11.801693,-338.053 L11.995163,-338.2477 L12.188634,-338.42294 L12.382104,-338.58066 L12.575574,-338.7226 L12.769045,-338.85034 L12.962515,-338.9653 L13.155986,-339.06876 L13.349456,-339.1619 L13.542926,-339.2457 L13.736397,-339.32114 L13.929867,-339.389 L14.123338,-339.4501 L14.316808,-339.5051 L14.510278,-339.5546 L14.703749,-339.59912 L14.897219,-339.63922 L15.09069,-339.6753 L15.28416,-339.70776 L15.47763,-339.737 L15.671101,-339.7633 L15.864571,-339.78696 L16.05804,-339.80826 L16.25151,-339.82745 L16.444983,-339.8447 L16.638453,-339.86023 L16.831923,-339.8742 L17.025393,-339.88678 L17.218863,-339.8981 L17.412334,-339.9083 L17.605804,-339.91745 L17.799274,-339.92572 L17.992744,-339.93314 L18.186214,-339.93982 L18.379686,-339.94586 L18.573156,-339.95126 L18.766626,-339.95615 L18.960096,-339.9605 L19.153566,-339.96448 L19.347038,-339.96802 L19.540508,-339.97122 L19.733978,-339.9741 L19.927448,-339.97668 L20.120918,-339.97903 L20.31439,-339.9811 L20.50786,-339.983 L20.70133,-339.9847 L20.8948,-339.98624 L21.08827,-339.9876 L21.281742,-339.98886 L21.475212,-339.98996 L21.668682,-339.99097 L21.862152,-339.99188 L22.055622,-339.99268 L22.249094,-339.9934 L22.442564,-339.99408 L22.636034,-339.99466 L22.829504,-339.9952 L23.022974,-339.99567 L23.216446,-339.99612 L23.409916,-339.9965 L23.603386,-339.99686 L23.796856,-339.99716 L23.990326,-339.99744 L24.183796,-339.9977 L24.377268,-339.99792 L24.570738,-339.99814 L24.764208,-339.99832 L24.957678,-339.9985 L25.151148,-339.99866 L25.34462,-339.99878 L25.53809,-339.9989 L25.73156,-339.99902 L25.92503,-339.9991 L26.1185,-339.9992 L26.311972,-339.99927 L26.505442,-339.99936 L26.698912,-339.99942 L26.892382,-339.99948 L27.085852,-339.99954 L27.279324,-339.99957 L27.472794,-339.9996 L27.666264,-339.99966 L27.859734,-339.9997 L28.053204,-339.99973 L28.246675,-339.99976 L28.440145,-339.9998 L28.633615,-339.9998 L28.827085,-339.99982 L29.020555,-339.99985 L29.214027,-339.99985 L29.407497,-339.99988 L29.600967,-339.99988 L29.794437,-339.99988 L29.987907,-339.9999 L30.18138,-339.9999 L30.37485,-339.9999 L30.56832,-339.99994 L30.76179,-339.99994 L30.95526,-339.99994 L31.148731,-339.99994 L31.342201,-339.99994 L31.535671,-339.99997 L31.729141,-339.99997 L31.922611,-339.99997 L32.11608,-339.99997 L32.30955,-339.99997 L32.50302,-339.99997 L32.696495,-339.99997 L32.889965,-339.99997 L33.083435,-339.99997 L33.276905,-339.99997 L33.470375,-340 L33.663845,-340 L33.857315,-340 L34.050785,-340 L34.244255,-340 L34.437725,-340 L34.6312,-340 L34.82467,-340 L35.01814,-340 L35.21161,-340 L35.40508,-340 L35.59855,-340 L35.79202,-340 L35.98549,-340 L36.17896,-340 L36.37243,-340 L36.565903,-340 L36.759373,-340 L36.952843,-340 L37.146313,-340 L37.339783,-340 L37.533253,-340 L37.726723,-340 L37.920193,-340 L38.113663,-340 L38.307133,-340 L38.500603,-340 L38.694077,-340 L38.887547,-340 L39.081017,-340 L39.274487,-340 L39.467957,-340 L39.661427,-340 L39.854897,-340 L40.048367,-340 L40.241837,-340 L40.435307,-340 L40.62878,-340 L40.82225,-340 L41.01572,-340 L41.20919,-340 L41.40266,-340 L41.59613,-340 L41.7896,-340 L41.98307,-340 L42.17654,-340 L42.37001,-340 L42.563484,-340 L42.756954,-340 L42.950424,-340 L43.143894,-340 L43.337364,-340 L43.530834,-340 L43.724304,-340 L43.917774,-340 L44.111244,-340 L44.304714,-340 L44.498188,-340 L44.691658,-340 L44.885128,-340 L45.078598,-340 L45.272068,-340 L45.465538,-340 L45.659008,-340 L45.852478,-340 L46.045948,-340 L46.239418,-340 L46.43289,-340 L46.62636,-340 L46.81983,-340 L47.0133,-340 L47.20677,-340 L47.40024,-340 L47.59371,-340 L47.78718,-340 L47.98065,-340 L48.17412,-340 L48.36759,-340 L48.561066,-340 L48.754536,-340 L48.948006,-340 L49.141476,-340 L49.334946,-340 L49.528416,-340 L49.721886,-340 L49.915356,-340 L50.108826,-340 L50.302296,-340 L50.49577,-340 L50.68924,-340 L50.88271,-340 L51.07618,-340 L51.26965,-340 L51.46312,-340 L51.65659,-340 L51.85006,-340 L52.04353,-340 L52.237,-340 L52.430473,-340 L52.623943,-340 L52.817413,-340 L53.010883,-340 L53.204353,-340 L53.397823,-340 L53.591293,-340 L53.784763,-340 L53.978233,-340 L54.171703,-340 L54.365177,-340 L54.558647,-340 L54.752117,-340 L54.945587,-340 L55.139057,-340 L55.332527,-340 L55.525997,-340 L55.719467,-340 L55.912937,-340 L56.106407,-340 L56.29988,-340 L56.49335,-340 L56.68682,-340 L56.88029,-340 L57.07376,-340 L57.26723,-340 L57.4607,-340 L57.65417,-340 L57.84764,-340 L58.04111,-340 L58.23458,-340 L58.428055,-340 L58.621525,-340 L58.814995,-340 L59.008465,-340 L59.201935,-340 L59.395405,-340 L59.588875,-340 L59.782345,-340 L59.975815,-340 L60.169285,-340 L60.36276,-340 L60.55623,-340 L60.7497,-340 L60.94317,-340 L61.13664,-340 L61.33011,-340 L61.52358,-340 L61.71705,-340 L61.91052,-340 L62.10399,-340 L62.297462,-340 L62.490932,-340 L62.684402,-340 L62.877872,-340 L63.071342,-340 L63.264812,-340 L63.458282,-340 L63.651752,-340 L63.845222,-340 L64.0387,-340 L64.23216,-340 L64.42564,-340 L64.6191,-340 L64.81258,-340 L65.00604,-340 L65.19952,-340 L65.39299,-340 L65.58646,-340 L65.77993,-340 L65.9734,-340 L66.16687,-340 L66.36034,-340 L66.55381,-340 L66.74728,-340 L66.94075,-340 L67.13422,-340 L67.32769,-340 L67.521164,-340 L67.71463,-340 L67.908104,-340 L68.10157,-340 L68.295044,-340 L68.48851,-340 L68.681984,-340 L68.87545,-340 L69.068924,-340 L69.2624,-340 L69.455864,-340 L69.64934,-340 L69.842804,-340 L70.03628,-340 L70.229744,-340 L70.42322,-340 L70.616684,-340 L70.81016,-340 L71.003624,-340 L71.1971,-340 L71.39057,-340 L71.58404,-340 L71.77751,-340 L71.97098,-340 L72.16445,-340 L72.35792,-340 L72.55139,-340 L72.74486,-340 L72.93833,-340 L73.131805,-340 L73.32527,-340 L73.518745,-340 L73.71221,-340 L73.905685,-340 L74.09915,-340 L74.292625,-340 L74.48609,-340 L74.679565,-340 L74.87303,-340 L75.066505,-340 L75.25998,-340 L75.453445,-340 L75.64692,-340 L75.840385,-340 L76.03386,-340 L76.227325,-340 L76.4208,-340 L76.614265,-340 L76.80774,-340 L77.001205,-340 L77.19468,-340 L77.38815,-340 L77.58162,-340 L77.77509,-340 L77.96856,-340 L78.16203,-340 L78.3555,-340 L78.54897,-340 L78.74244,-340 L78.93591,-340 L79.12939,-340 L79.32285,-340 L79.51633,-340 L79.70979,-340 L79.90327,-340 L80.09673,-340 L80.29021,-340 L80.48367,-340 L80.67715,-340 L80.87061,-340 L81.06409,-340 L81.25756,-340 L81.45103,-340 L81.6445,-340 L81.83797,-340 L82.03144,-340 L82.22491,-340 L82.41838,-340 L82.61185,-340 L82.80532,-340 L82.998795,-340 L83.19226,-340 L83.385735,-340 L83.5792,-340 L83.772675,-340 L83.96614,-340 L84.159615,-340 L84.35308,-340 L84.546555,-340 L84.74002,-340 L84.933495,-340 L85.12697,-340 L85.320435,-340 L85.51391,-340 L85.707375,-340 L85.90085,-340 L86.094315,-340 L86.28779,-340 L86.481255,-340 L86.67473,-340 L86.868195,-340 L87.06167,-340 L87.25514,-340 L87.44861,-340 L87.64208,-340 L87.83555,-340 L88.02902,-340 L88.22249,-340 L88.41596,-340 L88.60943,-340 L88.8029,-340 L88.996376,-340 L89.18984,-340 L89.383316,-340 L89.57678,-340 L89.770256,-340 L89.96372,-340 L90.157196,-340 L90.35066,-340 L90.544136,-340 L90.7376,-340 L90.931076,-340 L91.12455,-340 L91.318016,-340 L91.51149,-340 L91.704956,-340 L91.89843,-340 L92.091896,-340 L92.28537,-340 L92.478836,-340 L92.67231,-340 L92.86578,-340 L93.05925,-340 L93.25272,-340 L93.44619,-340 L93.63966,-340 L93.83313,-340 L94.0266,-340 L94.22007,-340 L94.41354,-340 L94.60701,-340 L94.80048,-340 L94.99396,-340 L95.18742,-340 L95.3809,-340 L95.57436,-340 L95.76784,-340 L95.9613,-340 L96.15478,-340 L96.34824,-340 L96.54172,-340 L96.73518,-340 L96.92866,-340 L97.12213,-340 L97.3156,-340 L97.50907,-340 L97.70254,-340 L97.89601,-340 L98.08948,-340 L98.28295,-340 L98.47642,-340 L98.66989,-340 L98.863365,-340 L99.05683,-340 L99.250305,-340 L99.44377,-340 L99.637245,-340 L99.83071,-340 L100.024185,-340 L100.21765,-340 L100.411125,-340 L100.60459,-340 L100.798065,-340 L100.99154,-340 L101.185005,-340 L101.37848,-340 L101.571945,-340 L101.76542,-340 L101.958885,-340 L102.15236,-340 L102.345825,-340 L102.5393,-340 L102.73277,-340 L102.92624,-340 L103.11971,-340 L103.31318,-340 L103.50665,-340 L103.70012,-340 L103.89359,-340 L104.08706,-340 L104.28053,-340 L104.474,-340 L104.66747,-340 L104.86095,-340 L105.05441,-340 L105.24789,-340 L105.44135,-340 L105.63483,-340 L105.82829,-340 L106.02177,-340 L106.21523,-340 L106.40871,-340 L106.60217,-340 L106.79565,-340 L106.98912,-340 L107.18259,-340 L107.37606,-340 L107.56953,-340 L107.763,-340 L107.95647,-340 L108.14994,-340 L108.34341,-340 L108.53688,-340 L108.730354,-340 L108.92382,-340 L109.117294,-340 L109.31076,-340 L109.504234,-340 L109.6977,-340 L109.891174,-340 L110.08464,-340 L110.278114,-340 L110.47158,-340 L110.665054,-340 L110.85853,-340 L111.051994,-340 L111.24547,-340 L111.438934,-340 L111.63241,-340 L111.825874,-340 L112.01935,-340 L112.212814,-340 L112.40629,-340 L112.59976,-340 L112.79323,-340 L112.9867,-340 L113.18017,-340 L113.37364,-340 L113.56711,-340 L113.76058,-340 L113.95405,-340 L114.14752,-340 L114.34099,-340 L114.53446,-340 L114.727936,-340 L114.9214,-340 L115.114876,-340 L115.30834,-340 L115.501816,-340 L115.69528,-340 L115.888756,-340 L116.08222,-340 L116.275696,-340 L116.46916,-340 L116.662636,-340 L116.85611,-340 L117.049576,-340 L117.24305,-340 L117.436516,-340 L117.62999,-340 L117.823456,-340 L118.01693,-340 L118.210396,-340 L118.40387,-340 L118.59734,-340 L118.79081,-340 L118.98428,-340 L119.17775,-340 L119.37122,-340 L119.56469,-340 L119.75816,-340 L119.95163,-340 L120.1451,-340 L120.33857,-340 L120.53204,-340 L120.72552,-340 L120.91898,-340 L121.11246,-340 L121.30592,-340 L121.4994,-340 L121.69286,-340 L121.88634,-340 L122.0798,-340 L122.27328,-340 L122.46674,-340 L122.66022,-340 L122.85369,-340 L123.04716,-340 L123.24063,-340 L123.4341,-340 L123.62757,-340 L123.82104,-340 L124.01451,-340 L124.20798,-340 L124.40145,-340 L124.594925,-340 L124.78839,-340 L124.981865,-340 L125.17533,-340 L125.368805,-340 L125.56227,-340 L125.755745,-340 L125.94921,-340 L126.142685,-340 L126.33615,-340 L126.529625,-340 L126.7231,-340 L126.916565,-340 L127.11004,-340 L127.303505,-340 L127.49698,-340 L127.690445,-340 L127.88392,-340 L128.0774,-340 L128.27086,-340 L128.46432,-340 L128.6578,-340 L128.85127,-340 L129.04474,-340 L129.2382,-340 L129.43169,-340 L129.62515,-340 L129.81862,-340 L130.01208,-340 L130.20557,-340 L130.39903,-340 L130.5925,-340 L130.78598,-340 L130.97945,-340 L131.17291,-340 L131.36638,-340 L131.55986,-340 L131.75333,-340 L131.9468,-340 L132.14026,-340 L132.33374,-340 L132.5272,-340 L132.72067,-340 L132.91415,-340 L133.10762,-340 L133.30109,-340 L133.49455,-340 L133.68803,-340 L133.8815,-340 L134.07497,-340 L134.26843,-340 L134.46191,-340 L134.65538,-340 L134.84885,-340 L135.04233,-340 L135.2358,-340 L135.42926,-340 L135.62273,-340 L135.81621,-340 L136.00967,-340 L136.20314,-340 L136.39662,-340 L136.59009,-340 L136.78355,-340 L136.97702,-340 L137.1705,-340 L137.36397,-340 L137.55743,-340 L137.7509,-340 L137.94438,-340 L138.13785,-340 L138.33131,-340 L138.5248,-340 L138.71826,-340 L138.91173,-340 L139.1052,-340 L139.29868,-340 L139.49214,-340 L139.68561,-340 L139.87907,-340 L140.07256,-340 L140.26602,-340 L140.45949,-340 L140.65297,-340 L140.84644,-340 L141.0399,-340 L141.23337,-340 L141.42685,-340 L141.62032,-340 L141.81378,-340 L142.00725,-340 L142.20073,-340 L142.3942,-340 L142.58766,-340 L142.78114,-340 L142.97461,-340 L143.16808,-340 L143.36154,-340 L143.55502,-340 L143.74849,-340 L143.94196,-340 L144.13542,-340 L144.3289,-340 L144.52237,-340 L144.71584,-340 L144.90932,-340 L145.10278,-340 L145.29625,-340 L145.48972,-340 L145.6832,-340 L145.87666,-340 L146.07013,-340 L146.26361,-340 L146.45708,-340 L146.65054,-340 L146.84401,-340 L147.03749,-340 L147.23096,-340 L147.42442,-340 L147.61789,-340 L147.81137,-340 L148.00484,-340 L148.1983,-340 L148.39178,-340 L148.58525,-340 L148.77872,-340 L148.97218,-340 L149.16566,-340 L149.35913,-340 L149.5526,-340 L149.74606,-340 L149.93954,-340 L150.13301,-340 L150.32648,-340 L150.51996,-340 L150.71342,-340 L150.90689,-340 L151.10036,-340 L151.29384,-340 L151.4873,-340 L151.68077,-340 L151.87424,-340 L152.06772,-340 L152.26118,-340 L152.45465,-340 L152.64813,-340 L152.8416,-340 L153.03506,-340 L153.22853,-340 L153.42201,-340 L153.61548,-340 L153.80894,-340 L154.00241,-340 L154.19589,-340 L154.38936,-340 L154.58282,-340 L154.7763,-340 L154.96977,-340 L155.16324,-340 L155.3567,-340 L155.55019,-340 L155.74365,-340 L155.93712,-340 L156.1306,-340 L156.32407,-340 L156.51753,-340 L156.711,-340 L156.90448,-340 L157.09795,-340 L157.29141,-340 L157.48488,-340 L157.67836,-340 L157.87183,-340 L158.06529,-340 L158.25877,-340 L158.45224,-340 L158.6457,-340 L158.83917,-340 L159.03265,-340 L159.22612,-340 L159.41959,-340 L159.61305,-340 L159.80653,-340 L160,-340 L160.19347,-340 L160.38695,-340 L160.58041,-340 L160.77388,-340 L160.96735,-340 L161.16083,-340 L161.3543,-340 L161.54776,-340 L161.74123,-340 L161.93471,-340 L162.12817,-340 L162.32164,-340 L162.51512,-340 L162.70859,-340 L162.90205,-340 L163.09552,-340 L163.289,-340 L163.48247,-340 L163.67593,-340 L163.8694,-340 L164.06288,-340 L164.25635,-340 L164.44981,-340 L164.6433,-340 L164.83676,-340 L165.03023,-340 L165.2237,-340 L165.41718,-340 L165.61064,-340 L165.80411,-340 L165.99759,-340 L166.19106,-340 L166.38452,-340 L166.57799,-340 L166.77147,-340 L166.96494,-340 L167.1584,-340 L167.35187,-340 L167.54535,-340 L167.73882,-340 L167.93228,-340 L168.12576,-340 L168.31923,-340 L168.5127,-340 L168.70616,-340 L168.89964,-340 L169.09311,-340 L169.28658,-340 L169.48004,-340 L169.67352,-340 L169.86699,-340 L170.06046,-340 L170.25394,-340 L170.4474,-340 L170.64087,-340 L170.83434,-340 L171.02782,-340 L171.22128,-340 L171.41475,-340 L171.60822,-340 L171.8017,-340 L171.99516,-340 L172.18863,-340 L172.38211,-340 L172.57558,-340 L172.76904,-340 L172.96251,-340 L173.15599,-340 L173.34946,-340 L173.54292,-340 L173.73639,-340 L173.92987,-340 L174.12334,-340 L174.3168,-340 L174.51028,-340 L174.70375,-340 L174.89722,-340 L175.09068,-340 L175.28416,-340 L175.47763,-340 L175.6711,-340 L175.86458,-340 L176.05804,-340 L176.25151,-340 L176.44498,-340 L176.63846,-340 L176.83192,-340 L177.02539,-340 L177.21886,-340 L177.41234,-340 L177.6058,-340 L177.79927,-340 L177.99275,-340 L178.18622,-340 L178.37968,-340 L178.57315,-340 L178.76663,-340 L178.9601,-340 L179.15356,-340 L179.34703,-340 L179.54051,-340 L179.73398,-340 L179.92744,-340 L180.12093,-340 L180.31439,-340 L180.50786,-340 L180.70132,-340 L180.8948,-340 L181.08827,-340 L181.28174,-340 L181.4752,-340 L181.66869,-340 L181.86215,-340 L182.05562,-340 L182.2491,-340 L182.44257,-340 L182.63603,-340 L182.8295,-340 L183.02298,-340 L183.21645,-340 L183.40991,-340 L183.60338,-340 L183.79686,-340 L183.99033,-340 L184.18379,-340 L184.37727,-340 L184.57074,-340 L184.7642,-340 L184.95767,-340 L185.15115,-340 L185.34462,-340 L185.53809,-340 L185.73157,-340 L185.92503,-340 L186.1185,-340 L186.31197,-340 L186.50545,-340 L186.69891,-340 L186.89238,-340 L187.08585,-340 L187.27933,-340 L187.4728,-340 L187.66626,-340 L187.85974,-340 L188.0532,-340 L188.24667,-340 L188.44014,-340 L188.63362,-340 L188.82709,-340 L189.02055,-340 L189.21402,-340 L189.4075,-340 L189.60097,-340 L189.79443,-340 L189.98792,-340 L190.18138,-340 L190.37485,-340 L190.56831,-340 L190.7618,-340 L190.95526,-340 L191.14873,-340 L191.3422,-340 L191.53568,-340 L191.72914,-340 L191.9226,-340 L192.11609,-340 L192.30956,-340 L192.50302,-340 L192.69649,-340 L192.88997,-340 L193.08344,-340 L193.2769,-340 L193.47037,-340 L193.66385,-340 L193.85732,-340 L194.05078,-340 L194.24426,-340 L194.43773,-340 L194.6312,-340 L194.82466,-340 L195.01814,-340 L195.21161,-340 L195.40508,-340 L195.59856,-340 L195.79202,-340 L195.98549,-340 L196.17896,-340 L196.37244,-340 L196.5659,-340 L196.75937,-340 L196.95284,-340 L197.14632,-340 L197.33978,-340 L197.53325,-340 L197.72673,-340 L197.9202,-340 L198.11366,-340 L198.30713,-340 L198.50061,-340 L198.69408,-340 L198.88754,-340 L199.08101,-340 L199.27449,-340 L199.46796,-340 L199.66142,-340 L199.8549,-340 L200.04837,-340 L200.24184,-340 L200.4353,-340 L200.62878,-340 L200.82225,-340 L201.01572,-340 L201.20918,-340 L201.40266,-340 L201.59613,-340 L201.7896,-340 L201.98308,-340 L202.17654,-340 L202.37001,-340 L202.56348,-340 L202.75696,-340 L202.95042,-340 L203.14389,-340 L203.33736,-340 L203.53084,-340 L203.7243,-340 L203.91777,-340 L204.11125,-340 L204.30472,-340 L204.49818,-340 L204.69165,-340 L204.88513,-340 L205.0786,-340 L205.27206,-340 L205.46555,-340 L205.65901,-340 L205.85248,-340 L206.04594,-340 L206.23943,-340 L206.43289,-340 L206.62636,-340 L206.81982,-340 L207.0133,-340 L207.20677,-340 L207.40024,-340 L207.59372,-340 L207.78719,-340 L207.98065,-340 L208.17412,-340 L208.3676,-340 L208.56107,-340 L208.75453,-340 L208.948,-340 L209.14148,-340 L209.33495,-340 L209.52841,-340 L209.7219,-340 L209.91536,-340 L210.10883,-340 L210.30229,-340 L210.49577,-340 L210.68924,-340 L210.8827,-340 L211.07617,-340 L211.26965,-340 L211.46312,-340 L211.65659,-340 L211.85007,-340 L212.04353,-340 L212.237,-340 L212.43047,-340 L212.62395,-340 L212.81741,-340 L213.01088,-340 L213.20435,-340 L213.39783,-340 L213.5913,-340 L213.78476,-340 L213.97824,-340 L214.1717,-340 L214.36517,-340 L214.55864,-340 L214.75212,-340 L214.94559,-340 L215.13905,-340 L215.33253,-340 L215.526,-340 L215.71947,-340 L215.91293,-340 L216.10641,-340 L216.29988,-340 L216.49335,-340 L216.68681,-340 L216.8803,-340 L217.07376,-340 L217.26723,-340 L217.46071,-340 L217.65417,-340 L217.84764,-340 L218.0411,-340 L218.23459,-340 L218.42805,-340 L218.62152,-340 L218.81499,-340 L219.00847,-340 L219.20193,-340 L219.3954,-340 L219.58888,-340 L219.78235,-340 L219.97581,-340 L220.16928,-340 L220.36276,-340 L220.55623,-340 L220.7497,-340 L220.94316,-340 L221.13664,-340 L221.33011,-340 L221.52357,-340 L221.71706,-340 L221.91052,-340 L222.10399,-340 L222.29745,-340 L222.49094,-340 L222.6844,-340 L222.87787,-340 L223.07133,-340 L223.26482,-340 L223.45828,-340 L223.65175,-340 L223.84523,-340 L224.0387,-340 L224.23216,-340 L224.42563,-340 L224.61911,-340 L224.81258,-340 L225.00604,-340 L225.19952,-340 L225.39299,-340 L225.58646,-340 L225.77992,-340 L225.9734,-340 L226.16687,-340 L226.36034,-340 L226.5538,-340 L226.74728,-340 L226.94075,-340 L227.13422,-340 L227.3277,-340 L227.52116,-340 L227.71463,-340 L227.9081,-340 L228.10158,-340 L228.29504,-340 L228.48851,-340 L228.68198,-340 L228.87546,-340 L229.06892,-340 L229.26239,-340 L229.45587,-340 L229.64934,-340 L229.8428,-340 L230.03627,-340 L230.22975,-340 L230.42322,-340 L230.61668,-340 L230.81015,-340 L231.00363,-340 L231.1971,-340 L231.39056,-340 L231.58405,-340 L231.77751,-340 L231.97098,-340 L232.16444,-340 L232.35793,-340 L232.55139,-340 L232.74486,-340 L232.93832,-340 L233.1318,-340 L233.32527,-340 L233.51874,-340 L233.71222,-340 L233.90569,-340 L234.09915,-340 L234.29262,-340 L234.4861,-340 L234.67957,-340 L234.87303,-340 L235.06651,-340 L235.25998,-340 L235.45345,-340 L235.64691,-340 L235.8404,-340 L236.03386,-340 L236.22733,-340 L236.42079,-340 L236.61427,-340 L236.80774,-340 L237.0012,-340 L237.19469,-340 L237.38815,-340 L237.58162,-340 L237.77509,-340 L237.96857,-340 L238.16203,-340 L238.3555,-340 L238.54897,-340 L238.74245,-340 L238.93591,-340 L239.12938,-340 L239.32286,-340 L239.51633,-340 L239.7098,-340 L239.90326,-340 L240.09674,-340 L240.2902,-340 L240.48367,-340 L240.67714,-340 L240.87062,-340 L241.06409,-340 L241.25755,-340 L241.45103,-340 L241.6445,-340 L241.83797,-340 L242.03143,-340 L242.22491,-340 L242.41838,-340 L242.61185,-340 L242.80531,-340 L242.9988,-340 L243.19226,-340 L243.38573,-340 L243.57921,-340 L243.77267,-340 L243.96614,-340 L244.1596,-340 L244.35309,-340 L244.54655,-340 L244.74002,-340 L244.93349,-340 L245.12697,-340 L245.32043,-340 L245.5139,-340 L245.70738,-340 L245.90085,-340 L246.09431,-340 L246.28778,-340 L246.48126,-340 L246.67473,-340 L246.8682,-340 L247.06168,-340 L247.25514,-340 L247.44861,-340 L247.64207,-340 L247.83556,-340 L248.02902,-340 L248.22249,-340 L248.41595,-340 L248.60944,-340 L248.8029,-340 L248.99637,-340 L249.18985,-340 L249.38332,-340 L249.57678,-340 L249.77025,-340 L249.96373,-340 L250.1572,-340 L250.35066,-340 L250.54413,-340 L250.73761,-340 L250.93108,-340 L251.12454,-340 L251.31802,-340 L251.51149,-340 L251.70496,-340 L251.89842,-340 L252.0919,-340 L252.28537,-340 L252.47884,-340 L252.6723,-340 L252.86578,-340 L253.05925,-340 L253.25272,-340 L253.4462,-340 L253.63966,-340 L253.83313,-340 L254.0266,-340 L254.22008,-340 L254.41354,-340 L254.60701,-340 L254.80048,-340 L254.99396,-340 L255.18742,-340 L255.38089,-340 L255.57437,-340 L255.76784,-340 L255.9613,-340 L256.1548,-340 L256.34824,-340 L256.54172,-340 L256.7352,-340 L256.92865,-340 L257.12213,-340 L257.3156,-340 L257.50906,-340 L257.70255,-340 L257.896,-340 L258.08948,-340 L258.28296,-340 L258.4764,-340 L258.6699,-340 L258.86337,-340 L259.05682,-340 L259.2503,-340 L259.4438,-340 L259.63724,-340 L259.83072,-340 L260.02417,-340 L260.21765,-340 L260.41113,-340 L260.60458,-340 L260.79807,-340 L260.99155,-340 L261.185,-340 L261.37848,-340 L261.57196,-340 L261.7654,-340 L261.9589,-340 L262.15234,-340 L262.34583,-340 L262.5393,-340 L262.73276,-340 L262.92624,-340 L263.11972,-340 L263.31317,-340 L263.50665,-340 L263.70013,-340 L263.8936,-340 L264.08707,-340 L264.28052,-340 L264.474,-340 L264.66748,-340 L264.86093,-340 L265.0544,-340 L265.2479,-340 L265.44135,-340 L265.63483,-340 L265.8283,-340 L266.02176,-340 L266.21524,-340 L266.4087,-340 L266.60217,-340 L266.79565,-340 L266.9891,-340 L267.1826,-340 L267.37607,-340 L267.56952,-340 L267.763,-340 L267.95648,-340 L268.14993,-340 L268.3434,-340 L268.53687,-340 L268.73035,-340 L268.92383,-340 L269.11728,-340 L269.31076,-340 L269.50424,-340 L269.6977,-340 L269.89117,-340 L270.08466,-340 L270.2781,-340 L270.4716,-340 L270.66507,-340 L270.85852,-340 L271.052,-340 L271.24545,-340 L271.43893,-340 L271.63242,-340 L271.82587,-340 L272.01935,-340 L272.21283,-340 L272.40628,-340 L272.59976,-340 L272.79324,-340 L272.9867,-340 L273.18018,-340 L273.37363,-340 L273.5671,-340 L273.7606,-340 L273.95404,-340 L274.14752,-340 L274.341,-340 L274.53445,-340 L274.72794,-340 L274.92142,-340 L275.11487,-340 L275.30835,-340 L275.5018,-340 L275.69528,-340 L275.88876,-340 L276.0822,-340 L276.2757,-340 L276.46918,-340 L276.66263,-340 L276.8561,-340 L277.0496,-340 L277.24304,-340 L277.43652,-340 L277.62997,-340 L277.82346,-340 L278.01694,-340 L278.2104,-340 L278.40387,-340 L278.59735,-340 L278.7908,-340 L278.98428,-340 L279.17776,-340 L279.37122,-340 L279.5647,-340 L279.75815,-340 L279.95163,-340 L280.1451,-340 L280.33856,-340 L280.53204,-340 L280.72552,-340 L280.91898,-340 L281.11246,-340 L281.30594,-340 L281.4994,-340 L281.69287,-340 L281.88632,-340 L282.0798,-340 L282.2733,-340 L282.46674,-340 L282.66022,-340 L282.8537,-340 L283.04715,-340 L283.24063,-340 L283.4341,-340 L283.62756,-340 L283.82104,-340 L284.0145,-340 L284.20798,-340 L284.40146,-340 L284.5949,-340 L284.7884,-340 L284.98187,-340 L285.17532,-340 L285.3688,-340 L285.5623,-340 L285.75574,-340 L285.94922,-340 L286.14267,-340 L286.33615,-340 L286.52963,-340 L286.72308,-340 L286.91656,-340 L287.11005,-340 L287.3035,-340 L287.49698,-340 L287.69046,-340 L287.8839,-340 L288.0774,-340 L288.27084,-340 L288.46432,-340 L288.6578,-340 L288.85126,-340 L289.04474,-340 L289.23822,-340 L289.43167,-340 L289.62515,-340 L289.81863,-340 L290.0121,-340 L290.20557,-340 L290.39905,-340 L290.5925,-340 L290.78598,-340 L290.97943,-340 L291.1729,-340 L291.3664,-340 L291.55984,-340 L291.75333,-340 L291.9468,-340 L292.14026,-340 L292.33374,-340 L292.52722,-340 L292.72067,-340 L292.91415,-340 L293.1076,-340 L293.3011,-340 L293.49457,-340 L293.68802,-340 L293.8815,-340 L294.07498,-340 L294.26843,-340 L294.4619,-340 L294.6554,-340 L294.84885,-340 L295.04233,-340 L295.23578,-340 L295.42926,-340 L295.62274,-340 L295.8162,-340 L296.00967,-340 L296.20316,-340 L296.3966,-340 L296.5901,-340 L296.78357,-340 L296.97702,-340 L297.1705,-340 L297.36395,-340 L297.55743,-340 L297.75092,-340 L297.94437,-340 L298.13785,-340 L298.33133,-340 L298.52478,-340 L298.71826,-340 L298.91174,-340 L299.1052,-340 L299.29868,-340 L299.49213,-340 L299.6856,-340 L299.8791,-340 L300.07254,-340 L300.26602,-340 L300.4595,-340 L300.65295,-340 L300.84644,-340 L301.03992,-340 L301.23337,-340 L301.42685,-340 L301.6203,-340 L301.81378,-340 L302.00726,-340 L302.2007,-340 L302.3942,-340 L302.58768,-340 L302.78113,-340 L302.9746,-340 L303.1681,-340 L303.36154,-340 L303.55502,-340 L303.74847,-340 L303.94196,-340 L304.13544,-340 L304.3289,-340 L304.52237,-340 L304.71585,-340 L304.9093,-340 L305.10278,-340 L305.29626,-340 L305.48972,-340 L305.6832,-340 L305.87665,-340 L306.07013,-340 L306.2636,-340 L306.45706,-340 L306.65054,-340 L306.84402,-340 L307.03748,-340 L307.23096,-340 L307.42444,-340 L307.6179,-340 L307.81137,-340 L308.00482,-340 L308.1983,-340 L308.39178,-340 L308.58524,-340 L308.77872,-340 L308.9722,-340 L309.16565,-340 L309.35913,-340 L309.5526,-340 L309.74606,-340 L309.93954,-340 L310.13303,-340 L310.32648,-340 L310.51996,-340 L310.7134,-340 L310.9069,-340 L311.10037,-340 L311.29382,-340 L311.4873,-340 L311.6808,-340 L311.87424,-340 L312.06772,-340 L312.2612,-340 L312.45465,-340 L312.64813,-340 L312.84158,-340 L313.03506,-340 L313.22855,-340 L313.422,-340 L313.61548,-340 L313.80896,-340 L314.0024,-340 L314.1959,-340 L314.38937,-340 L314.58282,-340 L314.7763,-340 L314.96976,-340 L315.16324,-340 L315.35672,-340 L315.55017,-340 L315.74365,-340 L315.93713,-340 L316.13058,-340 L316.32407,-340 L316.51755,-340 L316.711,-340 L316.90448,-340 L317.09793,-340 L317.2914,-340 L317.4849,-340 L317.67834,-340 L317.87183,-340 L318.0653,-340 L318.25876,-340 L318.45224,-340 L318.64572,-340 L318.83917,-340 L319.03265,-340 L319.2261,-340 L319.4196,-340 L319.61307,-340 L319.80652,-340 L320,-340 L320.19348,-340 L320.38693,-340 L320.5804,-340 L320.7739,-340 L320.96735,-340 L321.16083,-340 L321.35428,-340 L321.54776,-340 L321.74124,-340 L321.9347,-340 L322.12817,-340 L322.32166,-340 L322.5151,-340 L322.7086,-340 L322.90207,-340 L323.09552,-340 L323.289,-340 L323.48245,-340 L323.67593,-340 L323.86942,-340 L324.06287,-340 L324.25635,-340 L324.44983,-340 L324.64328,-340 L324.83676,-340 L325.03024,-340 L325.2237,-340 L325.41718,-340 L325.61063,-340 L325.8041,-340 L325.9976,-340 L326.19104,-340 L326.38452,-340 L326.578,-340 L326.77145,-340 L326.96494,-340 L327.15842,-340 L327.35187,-340 L327.54535,-340 L327.7388,-340 L327.93228,-340 L328.12576,-340 L328.3192,-340 L328.5127,-340 L328.70618,-340 L328.89963,-340 L329.0931,-340 L329.2866,-340 L329.48004,-340 L329.67352,-340 L329.86697,-340 L330.06046,-340 L330.25394,-340 L330.4474,-340 L330.64087,-340 L330.83435,-340 L331.0278,-340 L331.22128,-340 L331.41476,-340 L331.60822,-340 L331.8017,-340 L331.99518,-340 L332.18863,-340 L332.3821,-340 L332.57556,-340 L332.76904,-340 L332.96252,-340 L333.15598,-340 L333.34946,-340 L333.54294,-340 L333.7364,-340 L333.92987,-340 L334.12335,-340 L334.3168,-340 L334.51028,-340 L334.70374,-340 L334.89722,-340 L335.0907,-340 L335.28415,-340 L335.47763,-340 L335.6711,-340 L335.86456,-340 L336.05804,-340 L336.25153,-340 L336.44498,-340 L336.63846,-340 L336.8319,-340 L337.0254,-340 L337.21887,-340 L337.41232,-340 L337.6058,-340 L337.7993,-340 L337.99274,-340 L338.18622,-340 L338.3797,-340 L338.57315,-340 L338.76663,-340 L338.96008,-340 L339.15356,-340 L339.34705,-340 L339.5405,-340 L339.73398,-340 L339.92746,-340 L340.1209,-340 L340.3144,-340 L340.50787,-340 L340.70132,-340 L340.8948,-340 L341.08826,-340 L341.28174,-340 L341.47522,-340 L341.66867,-340 L341.86215,-340 L342.05563,-340 L342.24908,-340 L342.44257,-340 L342.63605,-340 L342.8295,-340 L343.02298,-340 L343.21643,-340 L343.4099,-340 L343.6034,-340 L343.79684,-340 L343.99033,-340 L344.1838,-340 L344.37726,-340 L344.57074,-340 L344.76422,-340 L344.95767,-340 L345.15115,-340 L345.3446,-340 L345.5381,-340 L345.73157,-340 L345.92502,-340 L346.1185,-340 L346.31198,-340 L346.50543,-340 L346.6989,-340 L346.8924,-340 L347.08585,-340 L347.27933,-340 L347.47278,-340 L347.66626,-340 L347.85974,-340 L348.0532,-340 L348.24667,-340 L348.44016,-340 L348.6336,-340 L348.8271,-340 L349.02057,-340 L349.21402,-340 L349.4075,-340 L349.60095,-340 L349.79443,-340 L349.9879,-340 L350.18137,-340 L350.37485,-340 L350.56833,-340 L350.76178,-340 L350.95526,-340 L351.14874,-340 L351.3422,-340 L351.53568,-340 L351.72916,-340 L351.9226,-340 L352.1161,-340 L352.30954,-340 L352.50302,-340 L352.6965,-340 L352.88995,-340 L353.08344,-340 L353.27692,-340 L353.47037,-340 L353.66385,-340 L353.85733,-340 L354.05078,-340 L354.24426,-340 L354.4377,-340 L354.6312,-340 L354.82468,-340 L355.01813,-340 L355.2116,-340 L355.4051,-340 L355.59854,-340 L355.79202,-340 L355.9855,-340 L356.17896,-340 L356.37244,-340 L356.5659,-340 L356.75937,-340 L356.95285,-340 L357.1463,-340 L357.33978,-340 L357.53326,-340 L357.7267,-340 L357.9202,-340 L358.11368,-340 L358.30713,-340 L358.5006,-340 L358.69406,-340 L358.88754,-340 L359.08102,-340 L359.27448,-340 L359.46796,-340 L359.66144,-340 L359.8549,-340 L360.04837,-340 L360.24185,-340 L360.4353,-340 L360.62878,-340 L360.82224,-340 L361.01572,-340 L361.2092,-340 L361.40265,-340 L361.59613,-340 L361.7896,-340 L361.98306,-340 L362.17654,-340 L362.37003,-340 L362.56348,-340 L362.75696,-340 L362.9504,-340 L363.1439,-340 L363.33737,-340 L363.53082,-340 L363.7243,-340 L363.9178,-340 L364.11124,-340 L364.30472,-340 L364.4982,-340 L364.69165,-340 L364.88513,-340 L365.07858,-340 L365.27206,-340 L365.46555,-340 L365.659,-340 L365.85248,-340 L366.04596,-340 L366.2394,-340 L366.4329,-340 L366.62637,-340 L366.81982,-340 L367.0133,-340 L367.20676,-340 L367.40024,-340 L367.59372,-340 L367.78717,-340 L367.98065,-340 L368.17413,-340 L368.36758,-340 L368.56107,-340 L368.75455,-340 L368.948,-340 L369.14148,-340 L369.33493,-340 L369.5284,-340 L369.7219,-340 L369.91534,-340 L370.10883,-340 L370.3023,-340 L370.49576,-340 L370.68924,-340 L370.88272,-340 L371.07617,-340 L371.26965,-340 L371.46313,-340 L371.6566,-340 L371.85007,-340 L372.04352,-340 L372.237,-340 L372.43048,-340 L372.62393,-340 L372.8174,-340 L373.0109,-340 L373.20435,-340 L373.39783,-340 L373.5913,-340 L373.78476,-340 L373.97824,-340 L374.1717,-340 L374.36517,-340 L374.55865,-340 L374.7521,-340 L374.9456,-340 L375.13907,-340 L375.33252,-340 L375.526,-340 L375.71948,-340 L375.91293,-340 L376.1064,-340 L376.29987,-340 L376.49335,-340 L376.68683,-340 L376.88028,-340 L377.07376,-340 L377.26724,-340 L377.4607,-340 L377.65417,-340 L377.84766,-340 L378.0411,-340 L378.2346,-340 L378.42804,-340 L378.62152,-340 L378.815,-340 L379.00845,-340 L379.20193,-340 L379.39542,-340 L379.58887,-340 L379.78235,-340 L379.97583,-340 L380.16928,-340 L380.36276,-340 L380.5562,-340 L380.7497,-340 L380.94318,-340 L381.13663,-340 L381.3301,-340 L381.5236,-340 L381.71704,-340 L381.91052,-340 L382.104,-340 L382.29745,-340 L382.49094,-340 L382.6844,-340 L382.87787,-340 L383.07135,-340 L383.2648,-340 L383.45828,-340 L383.65176,-340 L383.8452,-340 L384.0387,-340 L384.23218,-340 L384.42563,-340 L384.6191,-340 L384.81256,-340 L385.00604,-340 L385.19952,-340 L385.39297,-340 L385.58646,-340 L385.77994,-340 L385.9734,-340 L386.16687,-340 L386.36035,-340 L386.5538,-340 L386.74728,-340 L386.94073,-340 L387.13422,-340 L387.3277,-340 L387.52115,-340 L387.71463,-340 L387.9081,-340 L388.10156,-340 L388.29504,-340 L388.48853,-340 L388.68198,-340 L388.87546,-340 L389.0689,-340 L389.2624,-340 L389.45587,-340 L389.64932,-340 L389.8428,-340 L390.0363,-340 L390.22974,-340 L390.42322,-340 L390.6167,-340 L390.81015,-340 L391.00363,-340 L391.1971,-340 L391.39056,-340 L391.58405,-340 L391.7775,-340 L391.97098,-340 L392.16446,-340 L392.3579,-340 L392.5514,-340 L392.74487,-340 L392.93832,-340 L393.1318,-340 L393.3253,-340 L393.51874,-340 L393.71222,-340 L393.90567,-340 L394.09915,-340 L394.29263,-340 L394.48608,-340 L394.67957,-340 L394.87305,-340 L395.0665,-340 L395.25998,-340 L395.45346,-340 L395.6469,-340 L395.8404,-340 L396.03384,-340 L396.22733,-340 L396.4208,-340 L396.61426,-340 L396.80774,-340 L397.00122,-340 L397.19467,-340 L397.38815,-340 L397.58163,-340 L397.7751,-340 L397.96857,-340 L398.16202,-340 L398.3555,-340 L398.54898,-340 L398.74243,-340 L398.9359,-340 L399.1294,-340 L399.32285,-340 L399.51633,-340 L399.7098,-340 L399.90326,-340 L400.09674,-340 L400.2902,-340 L400.48367,-340 L400.67715,-340 L400.8706,-340 L401.0641,-340 L401.25757,-340 L401.45102,-340 L401.6445,-340 L401.83798,-340 L402.03143,-340 L402.2249,-340 L402.41837,-340 L402.61185,-340 L402.80533,-340 L402.99878,-340 L403.19226,-340 L403.38574,-340 L403.5792,-340 L403.77267,-340 L403.96616,-340 L404.1596,-340 L404.3531,-340 L404.54654,-340 L404.74002,-340 L404.9335,-340 L405.12695,-340 L405.32043,-340 L405.51392,-340 L405.70737,-340 L405.90085,-340 L406.09433,-340 L406.28778,-340 L406.48126,-340 L406.6747,-340 L406.8682,-340 L407.06168,-340 L407.25513,-340 L407.4486,-340 L407.6421,-340 L407.83554,-340 L408.02902,-340 L408.2225,-340 L408.41595,-340 L408.60944,-340 L408.8029,-340 L408.99637,-340 L409.18985,-340 L409.3833,-340 L409.57678,-340 L409.77026,-340 L409.9637,-340 L410.1572,-340 L410.35068,-340 L410.54413,-340 L410.7376,-340 L410.9311,-340 L411.12454,-340 L411.31802,-340 L411.51147,-340 L411.70496,-340 L411.89844,-340 L412.0919,-340 L412.28537,-340 L412.47885,-340 L412.6723,-340 L412.86578,-340 L413.05927,-340 L413.25272,-340 L413.4462,-340 L413.63965,-340 L413.83313,-340 L414.0266,-340 L414.22006,-340 L414.41354,-340 L414.60703,-340 L414.80048,-340 L414.99396,-340 L415.18744,-340 L415.3809,-340 L415.57437,-340 L415.76782,-340 L415.9613,-340 L416.1548,-340 L416.34824,-340 L416.54172,-340 L416.7352,-340 L416.92865,-340 L417.12213,-340 L417.3156,-340 L417.50906,-340 L417.70255,-340 L417.896,-340 L418.08948,-340 L418.28296,-340 L418.4764,-340 L418.6699,-340 L418.86337,-340 L419.05682,-340 L419.2503,-340 L419.4438,-340 L419.63724,-340 L419.83072,-340 L420.02417,-340 L420.21765,-340 L420.41113,-340 L420.60458,-340 L420.79807,-340 L420.99155,-340 L421.185,-340 L421.37848,-340 L421.57196,-340 L421.7654,-340 L421.9589,-340 L422.15234,-340 L422.34583,-340 L422.5393,-340 L422.73276,-340 L422.92624,-340 L423.11972,-340 L423.31317,-340 L423.50665,-340 L423.70013,-340 L423.8936,-340 L424.08707,-340 L424.28052,-340 L424.474,-340 L424.66748,-340 L424.86093,-340 L425.0544,-340 L425.2479,-340 L425.44135,-340 L425.63483,-340 L425.8283,-340 L426.02176,-340 L426.21524,-340 L426.4087,-340 L426.60217,-340 L426.79565,-340 L426.9891,-340 L427.1826,-340 L427.37607,-340 L427.56952,-340 L427.763,-340 L427.95648,-340 L428.14993,-340 L428.3434,-340 L428.53687,-340 L428.73035,-340 L428.92383,-340 L429.11728,-340 L429.31076,-340 L429.50424,-340 L429.6977,-340 L429.89117,-340 L430.08466,-340 L430.2781,-340 L430.4716,-340 L430.66507,-340 L430.85852,-340 L431.052,-340 L431.24545,-340 L431.43893,-340 L431.63242,-340 L431.82587,-340 L432.01935,-340 L432.21283,-340 L432.40628,-340 L432.59976,-340 L432.79324,-340 L432.9867,-340 L433.18018,-340 L433.37363,-340 L433.5671,-340 L433.7606,-340 L433.95404,-340 L434.14752,-340 L434.341,-340 L434.53445,-340 L434.72794,-340 L434.92142,-340 L435.11487,-340 L435.30835,-340 L435.5018,-340 L435.69528,-340 L435.88876,-340 L436.0822,-340 L436.2757,-340 L436.46918,-340 L436.66263,-340 L436.8561,-340 L437.0496,-340 L437.24304,-340 L437.43652,-340 L437.62997,-340 L437.82346,-340 L438.01694,-340 L438.2104,-340 L438.40387,-340 L438.59735,-340 L438.7908,-340 L438.98428,-340 L439.17776,-340 L439.37122,-340 L439.5647,-340 L439.75815,-340 L439.95163,-340 L440.1451,-340 L440.33856,-340 L440.53204,-340 L440.72552,-340 L440.91898,-340 L441.11246,-340 L441.30594,-340 L441.4994,-340 L441.69287,-340 L441.88632,-340 L442.0798,-340 L442.2733,-340 L442.46674,-340 L442.66022,-340 L442.8537,-340 L443.04715,-340 L443.24063,-340 L443.4341,-340 L443.62756,-340 L443.82104,-340 L444.0145,-340 L444.20798,-340 L444.40146,-340 L444.5949,-340 L444.7884,-340 L444.98187,-340 L445.17532,-340 L445.3688,-340 L445.5623,-340 L445.75574,-340 L445.94922,-340 L446.14267,-340 L446.33615,-340 L446.52963,-340 L446.72308,-340 L446.91656,-340 L447.11005,-340 L447.3035,-340 L447.49698,-340 L447.69046,-340 L447.8839,-340 L448.0774,-340 L448.27084,-340 L448.46432,-340 L448.6578,-340 L448.85126,-340 L449.04474,-340 L449.23822,-340 L449.43167,-340 L449.62515,-340 L449.81863,-340 L450.0121,-340 L450.20557,-340 L450.39905,-340 L450.5925,-340 L450.78598,-340 L450.97943,-340 L451.1729,-340 L451.3664,-340 L451.55984,-340 L451.75333,-340 L451.9468,-340 L452.14026,-340 L452.33374,-340 L452.52722,-340 L452.72067,-340 L452.91415,-340 L453.1076,-340 L453.3011,-340 L453.49457,-340 L453.68802,-340 L453.8815,-340 L454.07498,-340 L454.26843,-340 L454.4619,-340 L454.6554,-340 L454.84885,-340 L455.04233,-340 L455.23578,-340 L455.42926,-340 L455.62274,-340 L455.8162,-340 L456.00967,-340 L456.20316,-340 L456.3966,-340 L456.5901,-340 L456.78357,-340 L456.97702,-340 L457.1705,-340 L457.36395,-340 L457.55743,-340 L457.75092,-340 L457.94437,-340 L458.13785,-340 L458.33133,-340 L458.52478,-340 L458.71826,-340 L458.91174,-340 L459.1052,-340 L459.29868,-340 L459.49213,-340 L459.6856,-340 L459.8791,-340 L460.07254,-340 L460.26602,-340 L460.4595,-340 L460.65295,-340 L460.84644,-340 L461.03992,-340 L461.23337,-340 L461.42685,-340 L461.6203,-340 L461.81378,-340 L462.00726,-340 L462.2007,-340 L462.3942,-340 L462.58768,-340 L462.78113,-340 L462.9746,-340 L463.1681,-340 L463.36154,-340 L463.55502,-340 L463.74847,-340 L463.94196,-340 L464.13544,-340 L464.3289,-340 L464.52237,-340 L464.71585,-340 L464.9093,-340 L465.10278,-340 L465.29626,-340 L465.48972,-340 L465.6832,-340 L465.87665,-340 L466.07013,-340 L466.2636,-340 L466.45706,-340 L466.65054,-340 L466.84402,-340 L467.03748,-340 L467.23096,-340 L467.42444,-340 L467.6179,-340 L467.81137,-340 L468.00482,-340 L468.1983,-340 L468.39178,-340 L468.58524,-340 L468.77872,-340 L468.9722,-340 L469.16565,-340 L469.35913,-340 L469.5526,-340 L469.74606,-340 L469.93954,-340 L470.13303,-340 L470.32648,-340 L470.51996,-340 L470.7134,-340 L470.9069,-340 L471.10037,-340 L471.29382,-340 L471.4873,-340 L471.6808,-340 L471.87424,-340 L472.06772,-340 L472.2612,-340 L472.45465,-340 L472.64813,-340 L472.84158,-340 L473.03506,-340 L473.22855,-340 L473.422,-340 L473.61548,-340 L473.80896,-340 L474.0024,-340 L474.1959,-340 L474.38937,-340 L474.58282,-340 L474.7763,-340 L474.96976,-340 L475.16324,-340 L475.35672,-340 L475.55017,-340 L475.74365,-340 L475.93713,-340 L476.13058,-340 L476.32407,-340 L476.51755,-340 L476.711,-340 L476.90448,-340 L477.09793,-340 L477.2914,-340 L477.4849,-340 L477.67834,-340 L477.87183,-340 L478.0653,-340 L478.25876,-340 L478.45224,-340 L478.64572,-340 L478.83917,-340 L479.03265,-340 L479.2261,-340 L479.4196,-340 L479.61307,-340 L479.80652,-340 L480,-340" fill="none" stroke="black" stroke-linejoin="round" stroke-width="2"/>
</g>
</g>
<g>
<g>
<line stroke="black" stroke-width="1" x1="0" x2="0" y1="0" y2="10"/>
<line stroke="black" stroke-width="1" x1="96.73518742442563" x2="96.73518742442563" y1="0" y2="10"/>
<line stroke="black" stroke-width="1" x1="193.47037484885126" x2="193.47037484885126" y1="0" y2="10"/>
<line stroke="black" stroke-width="1" x1="290.2055622732769" x2="290.2055622732769" y1="0" y2="10"/>
<line stroke="black" stroke-width="1" x1="386.94074969770253" x2="386.94074969770253" y1="0" y2="10"/>
</g>
<line stroke="black" stroke-width="1" x1="0" x2="480" y1="0" y2="0"/>
<g>
<text font-size="12" text-anchor="middle" x="0" y="20">
0
</text>
<text font-size="12" text-anchor="middle" x="96.73518742442563" y="20">
500
</text>
<text font-size="12" text-anchor="middle" x="193.47037484885126" y="20">
1000
</text>
<text font-size="12" text-anchor="middle" x="290.2055622732769" y="20">
1500
</text>
<text font-size="12" text-anchor="middle" x="386.94074969770253" y="20">
2000
</text>
</g>
<text font-size="12" text-anchor="middle" x="240" y="30">

</text>
</g>
<g>
<g>
<line stroke="black" stroke-width="1" x1="0" x2="-10" y1="-0" y2="-0"/>
<line stroke="black" stroke-width="1" x1="0" x2="-10" y1="-67.99999999999989" y2="-67.99999999999989"/>
<line stroke="black" stroke-width="1" x1="0" x2="-10" y1="-135.99999999999994" y2="-135.99999999999994"/>
<line stroke="black" stroke-width="1" x1="0" x2="-10" y1="-204.00000000000003" y2="-204.00000000000003"/>
<line stroke="black" stroke-width="1" x1="0" x2="-10" y1="-271.9999999999999" y2="-271.9999999999999"/>
<line stroke="black" stroke-width="1" x1="0" x2="-10" y1="-340" y2="-340"/>
</g>
<line stroke="black" stroke-width="1" x1="0" x2="0" y1="0" y2="-340"/>
<g>
<text dominant-baseline="middle" font-size="12" text-anchor="end" x="-15" y="-0">
0.8
</text>
<text dominant-baseline="middle" font-size="12" text-anchor="end" x="-15" y="-67.99999999999989">
0.84
</text>
<text dominant-baseline="middle" font-size="12" text-anchor="end" x="-15" y="-135.99999999999994">
0.88
</text>
<text dominant-baseline="middle" font-size="12" text-anchor="end" x="-15" y="-204.00000000000003">
0.92
</text>
<text dominant-baseline="middle" font-size="12" text-anchor="end" x="-15" y="-271.9999999999999">
0.96
</text>
<text dominant-baseline="middle" font-size="12" text-anchor="end" x="-15" y="-340">
1
</text>
</g>
<text font-size="12" text-anchor="middle" transform="rotate(-90 -48 -170)" x="-48" y="-182">

</text>
</g>
</g>
</svg>