<svg viewBox="0 0 600 400" xmlns="http://www.w3.org/2000/svg">
<g transform="translate(72, 364)">
<g>
<g>
<path d="M0,-0 L0,-0 L0.46021092,-0 L0.92042184,-0 L1.3806328,-34 L1.8408437,-64.6 L2.3010547,-92.14 L2.7612655,-116.926 L3.2214766,-139.2334 L3.6816874,-159.31006 L4.141898,-177.37906 L4.6021094,-193.64114 L5.06232,-208.27704 L5.522531,-221.44933 L5.9827423,-233.3044 L6.442953,-243.97395 L6.903164,-253.57657 L7.3633747,-262.2189 L7.823586,-269.997 L8.283796,-276.9973 L8.744008,-283.29758 L9.204219,-288.96783 L9.66443,-294.07104 L10.12464,-298.66394 L10.584851,-302.79755 L11.045062,-306.5178 L11.505273,-309.866 L11.965485,-312.8794 L12.425695,-315.59146 L12.885906,-318.03232 L13.346117,-320.2291 L13.806328,-322.20618 L14.266539,-323.98557 L14.726749,-325.587 L15.18696,-293.02832 L15.647172,-297.72546 L16.107382,-301.95294 L16.567593,-305.75763 L17.027805,-309.1819 L17.488016,-312.26367 L17.948227,-315.03732 L18.408438,-317.53357 L18.868649,-319.7802 L19.32886,-321.80222 L19.78907,-323.62198 L20.24928,-325.2598 L20.709492,-326.7338 L21.169703,-328.06042 L21.629913,-329.2544 L22.090124,-330.32895 L22.550335,-331.29605 L23.010546,-332.16644 L23.470757,-332.9498 L23.93097,-333.65482 L24.39118,-334.28934 L24.85139,-334.8604 L25.311602,-335.37436 L25.771812,-335.8369 L26.232023,-336.25323 L26.692234,-336.6279 L27.152445,-336.96512 L27.612656,-337.26862 L28.072866,-337.54175 L28.533077,-337.78757 L28.993288,-338.00882 L29.453499,-338.20795 L29.91371,-338.38715 L30.37392,-338.54843 L30.834133,-338.69357 L31.294344,-338.82422 L31.754555,-338.9418 L32.214764,-339.0476 L32.674976,-339.14285 L33.135185,-339.22858 L33.595398,-339.30573 L34.05561,-339.37515 L34.51582,-339.43762 L34.976032,-339.49387 L35.43624,-339.5445 L35.896454,-339.59003 L36.356663,-339.63104 L36.816875,-339.66794 L37.277084,-339.70114 L37.737297,-339.73102 L38.197506,-339.7579 L38.65772,-339.78214 L39.117928,-339.80392 L39.57814,-339.82352 L40.03835,-339.84116 L40.49856,-339.85706 L40.958775,-305.87134 L41.418983,-309.2842 L41.879196,-312.3558 L42.339405,-315.1202 L42.799618,-317.6082 L43.259827,-319.84738 L43.72004,-321.86264 L44.18025,-323.67636 L44.64046,-325.30875 L45.10067,-326.77786 L45.560883,-328.10007 L46.02109,-329.29007 L46.481304,-330.36105 L46.941513,-331.32495 L47.401726,-332.19244 L47.86194,-332.9732 L48.322147,-333.6759 L48.78236,-334.3083 L49.24257,-334.87747 L49.70278,-335.38974 L50.16299,-335.85074 L50.623203,-336.2657 L51.083412,-336.6391 L51.543625,-336.9752 L52.003834,-337.27768 L52.464046,-337.5499 L52.924255,-337.79492 L53.384468,-338.01544 L53.844677,-338.2139 L54.30489,-338.3925 L54.765102,-338.55325 L55.22531,-338.69794 L55.685524,-338.82813 L56.145733,-338.9453 L56.605946,-339.05078 L57.066154,-339.14572 L57.526367,-339.23114 L57.986576,-339.308 L58.44679,-339.37723 L58.906998,-339.43948 L59.36721,-339.49554 L59.82742,-339.546 L60.287632,-339.5914 L60.74784,-339.63226 L61.208054,-339.66904 L61.668266,-339.70212 L62.128475,-339.7319 L62.588688,-339.75873 L63.048897,-339.78284 L63.50911,-339.80457 L63.96932,-339.8241 L64.42953,-339.8417 L64.88974,-339.8575 L65.34995,-339.87177 L65.810165,-339.88458 L66.27037,-339.89615 L66.73058,-339.90652 L67.190796,-339.91586 L67.65101,-339.9243 L68.11122,-339.93185 L68.57143,-339.93866 L69.03164,-339.9448 L69.49185,-339.95032 L69.952065,-339.9553 L70.41227,-339.95975 L70.87248,-339.96378 L71.332695,-339.9674 L71.79291,-339.97067 L72.25311,-339.9736 L72.713326,-339.97623 L73.17354,-339.9786 L73.63375,-339.98074 L74.093956,-339.98267 L74.55417,-339.9844 L75.01438,-339.98596 L75.474594,-339.98737 L75.93481,-339.98865 L76.39501,-339.98978 L76.855225,-339.99078 L77.31544,-339.99173 L77.77565,-339.99255 L78.235855,-339.9933 L78.69607,-339.99396 L79.15628,-339.99457 L79.61649,-339.99512 L80.0767,-339.9956 L80.53691,-339.99603 L80.99712,-339.99643 L81.45734,-339.9968 L81.91755,-339.9971 L82.377754,-339.9974 L82.83797,-339.99765 L83.29818,-339.9979 L83.75839,-339.9981 L84.2186,-339.9983 L84.67881,-339.99847 L85.13902,-339.99863 L85.599236,-339.99875 L86.05944,-339.99887 L86.51965,-339.999 L86.979866,-339.99908 L87.44008,-339.99918 L87.90029,-339.99927 L88.3605,-339.99933 L88.82071,-339.99942 L89.28092,-339.99945 L89.741135,-339.9995 L90.20134,-339.99957 L90.66155,-339.9996 L91.121765,-339.99963 L91.58198,-339.9997 L92.04218,-339.99973 L92.502396,-339.99976 L92.96261,-339.99976 L93.42282,-339.9998 L93.883026,-339.99982 L94.34324,-339.99982 L94.80345,-339.99985 L95.263664,-339.99988 L95.72388,-339.99988 L96.18408,-339.99988 L96.644295,-339.9999 L97.10451,-339.9999 L97.56472,-339.9999 L98.024925,-339.99994 L98.48514,-339.99994 L98.94535,-339.99994 L99.40556,-339.99994 L99.86577,-339.99994 L100.32598,-339.99997 L100.786194,-339.99997 L101.24641,-339.99997 L101.70662,-339.99997 L102.166824,-339.99997 L102.62704,-339.99997 L103.08725,-339.99997 L103.54746,-339.99997 L104.00767,-339.99997 L104.46788,-339.99997 L104.92809,-340 L105.388306,-340 L105.84851,-340 L106.30872,-340 L106.768936,-340 L107.22915,-340 L107.689354,-340 L108.14957,-340 L108.60978,-340 L109.06999,-340 L109.530205,-340 L109.99041,-340 L110.45062,-340 L110.910835,-340 L111.37105,-340 L111.83125,-340 L112.291466,-340 L112.75168,-340 L113.21189,-340 L113.6721,-340 L114.13231,-340 L114.59252,-340 L115.052734,-340 L115.51295,-340 L115.97315,-340 L116.433365,-340 L116.89358,-340 L117.35379,-340 L117.813995,-340 L118.27421,-340 L118.73442,-340 L119.19463,-340 L119.65484,-340 L120.11505,-340 L120.575264,-340 L121.03548,-340 L121.49568,-340 L121.955894,-340 L122.41611,-340 L122.87632,-340 L123.33653,-340 L123.79674,-340 L124.25695,-340 L124.71716,-340 L125.177376,-340 L125.63758,-340 L126.09779,-340 L126.55801,-340 L127.01822,-340 L127.478424,-340 L127.93864,-340 L128.39885,-340 L128.85905,-340 L129.31927,-340 L129.77948,-340 L130.2397,-340 L130.6999,-340 L131.16011,-340 L131.62033,-340 L132.08054,-340 L132.54074,-340 L133.00096,-340 L133.46117,-306 L133.92139,-309.4 L134.38159,-312.46 L134.8418,-315.214 L135.30202,-317.6926 L135.76222,-319.92334 L136.22244,-321.931 L136.68265,-323.7379 L137.14285,-325.3641 L137.60307,-326.8277 L138.06328,-328.14493 L138.52348,-329.33044 L138.9837,-330.3974 L139.44391,-331.35767 L139.90413,-332.2219 L140.36433,-332.9997 L140.82454,-333.69974 L141.28476,-334.32977 L141.74496,-334.8968 L142.20518,-335.4071 L142.66539,-335.8664 L143.1256,-336.27975 L143.58582,-336.65176 L144.04602,-336.9866 L144.50623,-337.28793 L144.96645,-337.55914 L145.42665,-337.80322 L145.88687,-338.02292 L146.34708,-338.2206 L146.80728,-338.39856 L147.2675,-338.55872 L147.7277,-338.70282 L148.18791,-338.83255 L148.64813,-338.94928 L149.10834,-339.05435 L149.56856,-339.14893 L150.02876,-339.23404 L150.48897,-339.31064 L150.94919,-339.37958 L151.4094,-339.44162 L151.86961,-339.49744 L152.32982,-339.5477 L152.79002,-339.59293 L153.25024,-339.63364 L153.71045,-339.6703 L154.17065,-339.70325 L154.63087,-339.7329 L155.09108,-339.75964 L155.5513,-339.78366 L156.0115,-339.8053 L156.47171,-339.82477 L156.93193,-339.8423 L157.39214,-339.85806 L157.85236,-339.87225 L158.31256,-339.88504 L158.77277,-339.8965 L159.23299,-339.9069 L159.69319,-339.9162 L160.1534,-339.92456 L160.61362,-339.9321 L161.07382,-339.9389 L161.53404,-339.945 L161.99425,-339.9505 L162.45445,-339.95544 L162.91467,-339.9599 L163.37488,-339.96393 L163.8351,-339.96753 L164.2953,-339.97076 L164.75551,-339.9737 L165.21573,-339.97632 L165.67593,-339.9787 L166.13614,-339.98083 L166.59636,-339.98276 L167.05656,-339.98447 L167.51678,-339.98602 L167.97699,-339.98743 L168.4372,-339.98868 L168.89742,-339.9898 L169.35762,-339.9908 L169.81784,-339.99176 L170.27805,-339.99258 L170.73825,-339.99332 L171.19847,-339.994 L171.65868,-339.9946 L172.11888,-339.99512 L172.5791,-339.9956 L173.0393,-339.99606 L173.49953,-339.99646 L173.95973,-339.9968 L174.41994,-339.99713 L174.88016,-339.9974 L175.34036,-339.99768 L175.80058,-339.9979 L176.26079,-339.9981 L176.721,-339.9983 L177.18121,-339.99847 L177.64142,-339.99863 L178.10162,-339.99875 L178.56184,-339.99887 L179.02205,-339.999 L179.48227,-339.99908 L179.94247,-339.99918 L180.40268,-339.99927 L180.8629,-339.99933 L181.3231,-339.99942 L181.78331,-339.99948 L182.24353,-339.9995 L182.70374,-339.99957 L183.16396,-339.9996 L183.62416,-339.99966 L184.08437,-339.9997 L184.54459,-339.99973 L185.00479,-339.99976 L185.46501,-339.99976 L185.92522,-339.9998 L186.38542,-339.99982 L186.84564,-339.99985 L187.30585,-339.99985 L187.76605,-339.99988 L188.22627,-339.99988 L188.68648,-339.99988 L189.1467,-339.9999 L189.6069,-339.9999 L190.06711,-339.9999 L190.52733,-339.99994 L190.98753,-339.99994 L191.44775,-339.99994 L191.90796,-339.99994 L192.36816,-339.99994 L192.82838,-339.99997 L193.28859,-339.99997 L193.7488,-339.99997 L194.20901,-339.99997 L194.66922,-339.99997 L195.12944,-339.99997 L195.58965,-339.99997 L196.04985,-339.99997 L196.51007,-339.99997 L196.97028,-339.99997 L197.4305,-340 L197.8907,-340 L198.3509,-340 L198.81113,-340 L199.27133,-340 L199.73154,-340 L200.19176,-340 L200.65196,-340 L201.11218,-340 L201.57239,-340 L202.0326,-340 L202.49281,-340 L202.95302,-340 L203.41324,-340 L203.87344,-340 L204.33365,-340 L204.79387,-340 L205.25407,-340 L205.71428,-340 L206.1745,-340 L206.6347,-340 L207.09492,-340 L207.55513,-340 L208.01534,-340 L208.47556,-340 L208.93576,-340 L209.39597,-340 L209.85619,-340 L210.31639,-340 L210.77661,-340 L211.23682,-340 L211.69702,-340 L212.15724,-340 L212.61745,-340 L213.07767,-340 L213.53787,-340 L213.99808,-340 L214.4583,-340 L214.9185,-340 L215.37871,-340 L215.83893,-340 L216.29913,-340 L216.75935,-340 L217.21956,-340 L217.67976,-340 L218.13998,-340 L218.60019,-340 L219.06041,-340 L219.52061,-340 L219.98082,-340 L220.44104,-340 L220.90125,-340 L221.36145,-340 L221.82167,-340 L222.28188,-340 L222.7421,-340 L223.2023,-340 L223.6625,-340 L224.12273,-340 L224.58293,-340 L225.04315,-340 L225.50336,-340 L225.96356,-340 L226.42378,-340 L226.88399,-340 L227.3442,-340 L227.80441,-340 L228.26462,-340 L228.72484,-340 L229.18504,-340 L229.64525,-340 L230.10547,-340 L230.56567,-340 L231.0259,-340 L231.4861,-340 L231.9463,-340 L232.40652,-340 L232.86673,-340 L233.32693,-340 L233.78716,-340 L234.24736,-340 L234.70758,-340 L235.16779,-340 L235.62799,-340 L236.08821,-340 L236.54842,-340 L237.00864,-340 L237.46884,-340 L237.92905,-340 L238.38927,-340 L238.84947,-340 L239.30968,-340 L239.7699,-340 L240.2301,-340 L240.69032,-340 L241.15053,-340 L241.61073,-340 L242.07095,-340 L242.53116,-340 L242.99136,-340 L243.45158,-340 L243.91179,-340 L244.37201,-340 L244.83221,-340 L245.29242,-340 L245.75264,-340 L246.21284,-340 L246.67307,-340 L247.13327,-340 L247.59348,-340 L248.0537,-340 L248.5139,-340 L248.9741,-340 L249.43433,-340 L249.89453,-340 L250.35475,-340 L250.81496,-340 L251.27516,-340 L251.73538,-340 L252.19559,-340 L252.6558,-340 L253.11601,-340 L253.57622,-340 L254.03644,-340 L254.49664,-340 L254.95685,-340 L255.41707,-340 L255.87727,-340 L256.3375,-340 L256.7977,-340 L257.2579,-340 L257.7181,-340 L258.17834,-340 L258.63855,-340 L259.09875,-340 L259.55896,-340 L260.01917,-340 L260.4794,-340 L260.9396,-340 L261.3998,-340 L261.86002,-340 L262.32022,-340 L262.78043,-340 L263.24066,-340 L263.70087,-340 L264.16107,-340 L264.62128,-340 L265.08148,-340 L265.54172,-340 L266.00192,-340 L266.46213,-340 L266.92233,-340 L267.38254,-340 L267.84277,-340 L268.30298,-340 L268.76318,-340 L269.2234,-340 L269.6836,-340 L270.14383,-340 L270.60403,-340 L271.06424,-340 L271.52444,-340 L271.98465,-340 L272.4449,-340 L272.9051,-340 L273.3653,-340 L273.8255,-340 L274.2857,-340 L274.7459,-340 L275.20615,-340 L275.66635,-340 L276.12656,-340 L276.58676,-340 L277.04697,-340 L277.5072,-340 L277.9674,-340 L278.4276,-340 L278.88782,-340 L279.34802,-340 L279.80826,-340 L280.26846,-340 L280.72867,-340 L281.18887,-340 L281.64908,-340 L282.1093,-340 L282.56952,-340 L283.02972,-340 L283.48993,-340 L283.95013,-340 L284.41037,-340 L284.87057,-340 L285.33078,-340 L285.791,-340 L286.2512,-340 L286.7114,-340 L287.17163,-340 L287.63184,-340 L288.09204,-340 L288.55225,-340 L289.01245,-340 L289.4727,-340 L289.9329,-340 L290.3931,-340 L290.8533,-340 L291.3135,-340 L291.77374,-340 L292.23395,-340 L292.69415,-340 L293.15436,-340 L293.61456,-340 L294.0748,-340 L294.535,-340 L294.9952,-340 L295.4554,-340 L295.91562,-340 L296.37582,-340 L296.83606,-340 L297.29626,-340 L297.75647,-340 L298.21667,-340 L298.67688,-340 L299.13712,-340 L299.59732,-340 L300.05753,-340 L300.51773,-340 L300.97794,-340 L301.43817,-340 L301.89838,-340 L302.35858,-340 L302.8188,-340 L303.279,-340 L303.73923,-340 L304.19943,-340 L304.65964,-340 L305.11984,-340 L305.58005,-340 L306.04028,-340 L306.5005,-340 L306.9607,-340 L307.4209,-340 L307.8811,-340 L308.3413,-340 L308.80154,-306 L309.26175,-309.4 L309.72195,-312.46 L310.18216,-315.214 L310.64236,-317.6926 L311.1026,-319.92334 L311.5628,-321.931 L312.023,-323.7379 L312.48322,-325.3641 L312.94342,-326.8277 L313.40366,-328.14493 L313.86386,-329.33044 L314.32407,-330.3974 L314.78427,-331.35767 L315.24448,-332.2219 L315.7047,-332.9997 L316.16492,-333.69974 L316.62512,-334.32977 L317.08533,-334.8968 L317.54553,-335.4071 L318.00577,-335.8664 L318.46597,-336.27975 L318.92618,-336.65176 L319.38638,-336.9866 L319.8466,-337.28793 L320.3068,-337.55914 L320.76703,-337.80322 L321.22723,-338.02292 L321.68744,-338.2206 L322.14764,-338.39856 L322.60785,-338.55872 L323.06808,-338.70282 L323.5283,-338.83255 L323.9885,-338.94928 L324.4487,-339.05435 L324.9089,-339.14893 L325.36914,-339.23404 L325.82935,-339.31064 L326.28955,-339.37958 L326.74976,-339.44162 L327.20996,-339.49744 L327.6702,-339.5477 L328.1304,-339.59293 L328.5906,-339.63364 L329.0508,-339.6703 L329.51102,-339.70325 L329.97122,-339.7329 L330.43146,-339.75964 L330.89166,-339.78366 L331.35187,-339.8053 L331.81207,-339.82477 L332.27228,-339.8423 L332.7325,-339.85806 L333.19272,-339.87225 L333.65292,-339.88504 L334.11313,-339.8965 L334.57333,-339.9069 L335.03357,-339.9162 L335.49377,-339.92456 L335.95398,-339.9321 L336.41418,-339.9389 L336.8744,-339.945 L337.33463,-339.9505 L337.79483,-339.95544 L338.25504,-339.9599 L338.71524,-339.96393 L339.17545,-339.96753 L339.63568,-339.97076 L340.0959,-339.9737 L340.5561,-339.97632 L341.0163,-339.9787 L341.4765,-339.98083 L341.9367,-339.98276 L342.39694,-339.98447 L342.85715,-339.98602 L343.31735,-339.98743 L343.77756,-339.98868 L344.23776,-339.9898 L344.698,-339.9908 L345.1582,-339.99176 L345.6184,-339.99258 L346.0786,-339.99332 L346.53882,-339.994 L346.99905,-339.9946 L347.45926,-339.99512 L347.91946,-339.9956 L348.37967,-339.99606 L348.83987,-339.99646 L349.3001,-339.9968 L349.7603,-339.99713 L350.22052,-339.9974 L350.68073,-339.99768 L351.14093,-339.9979 L351.60117,-339.9981 L352.06137,-339.9983 L352.52158,-339.99847 L352.98178,-339.99863 L353.442,-339.99875 L353.9022,-339.99887 L354.36243,-339.999 L354.82263,-339.99908 L355.28284,-339.99918 L355.74304,-339.99927 L356.20325,-339.99933 L356.66348,-339.99942 L357.1237,-339.99948 L357.5839,-339.9995 L358.0441,-339.99957 L358.5043,-339.9996 L358.96454,-339.99966 L359.42474,-339.9997 L359.88495,-339.99973 L360.34515,-339.99976 L360.80536,-339.99976 L361.2656,-339.9998 L361.7258,-339.99982 L362.186,-339.99985 L362.6462,-339.99985 L363.1064,-339.99988 L363.56662,-339.99988 L364.02686,-339.99988 L364.48706,-339.9999 L364.94727,-339.9999 L365.40747,-339.9999 L365.86768,-339.99994 L366.3279,-339.99994 L366.78812,-339.99994 L367.24832,-339.99994 L367.70853,-339.99994 L368.16873,-339.99997 L368.62897,-339.99997 L369.08917,-339.99997 L369.54938,-339.99997 L370.00958,-339.99997 L370.4698,-339.99997 L370.93002,-339.99997 L371.39023,-339.99997 L371.85043,-339.99997 L372.31064,-339.99997 L372.77084,-340 L373.23108,-340 L373.69128,-340 L374.1515,-340 L374.6117,-340 L375.0719,-340 L375.5321,-340 L375.99234,-340 L376.45255,-340 L376.91275,-340 L377.37296,-340 L377.83316,-340 L378.2934,-340 L378.7536,-340 L379.2138,-340 L379.674,-340 L380.13422,-340 L380.59445,-340 L381.05466,-340 L381.51486,-340 L381.97507,-340 L382.43527,-340 L382.8955,-340 L383.3557,-340 L383.81592,-340 L384.27612,-340 L384.73633,-340 L385.19653,-340 L385.65677,-340 L386.11697,-340 L386.57718,-340 L387.03738,-340 L387.4976,-340 L387.95782,-340 L388.41803,-340 L388.87823,-340 L389.33844,-340 L389.79865,-340 L390.25888,-306 L390.7191,-309.4 L391.1793,-312.46 L391.6395,-315.214 L392.0997,-317.6926 L392.55994,-319.92334 L393.02014,-321.931 L393.48035,-323.7379 L393.94055,-325.3641 L394.40076,-326.8277 L394.861,-328.14493 L395.3212,-329.33044 L395.7814,-330.3974 L396.2416,-331.35767 L396.7018,-332.2219 L397.16202,-332.9997 L397.62225,-333.69974 L398.08246,-334.32977 L398.54266,-334.8968 L399.00287,-335.4071 L399.46307,-335.8664 L399.9233,-336.27975 L400.3835,-336.65176 L400.84372,-336.9866 L401.30392,-337.28793 L401.76413,-337.55914 L402.22437,-337.80322 L402.68457,-338.02292 L403.14478,-338.2206 L403.60498,-338.39856 L404.0652,-338.55872 L404.52542,-338.70282 L404.98563,-338.83255 L405.44583,-338.94928 L405.90604,-339.05435 L406.36624,-339.14893 L406.82648,-339.23404 L407.28668,-339.31064 L407.7469,-339.37958 L408.2071,-339.44162 L408.6673,-339.49744 L409.1275,-339.5477 L409.58774,-339.59293 L410.04794,-339.63364 L410.50815,-339.6703 L410.96835,-339.70325 L411.42856,-339.7329 L411.8888,-339.75964 L412.349,-339.78366 L412.8092,-339.8053 L413.2694,-339.82477 L413.7296,-339.8423 L414.18985,-339.85806 L414.65005,-339.87225 L415.11026,-339.88504 L415.57047,-339.8965 L416.03067,-339.9069 L416.4909,-339.9162 L416.9511,-339.92456 L417.41132,-339.9321 L417.87152,-339.9389 L418.33173,-339.945 L418.79193,-339.9505 L419.25217,-339.95544 L419.71237,-339.9599 L420.17258,-339.96393 L420.63278,-339.96753 L421.093,-339.97076 L421.55322,-339.9737 L422.01343,-339.97632 L422.47363,-339.9787 L422.93384,-339.98083 L423.39404,-339.98276 L423.85428,-339.98447 L424.31448,-339.98602 L424.7747,-339.98743 L425.2349,-339.98868 L425.6951,-339.9898 L426.15533,-339.9908 L426.61554,-339.99176 L427.07574,-339.99258 L427.53595,-339.99332 L427.99615,-339.994 L428.4564,-339.9946 L428.9166,-339.99512 L429.3768,-339.9956 L429.837,-339.99606 L430.2972,-339.99646 L430.75742,-339.9968 L431.21765,-339.99713 L431.67786,-339.9974 L432.13806,-339.99768 L432.59827,-339.9979 L433.05847,-339.9981 L433.5187,-339.9983 L433.9789,-339.99847 L434.43912,-339.99863 L434.89932,-339.99875 L435.35953,-339.99887 L435.81976,-339.999 L436.27997,-339.99908 L436.74017,-339.99918 L437.20038,-339.99927 L437.66058,-339.99933 L438.12082,-339.99942 L438.58102,-339.99948 L439.04123,-339.9995 L439.50143,-339.99957 L439.96164,-339.9996 L440.42188,-339.99966 L440.88208,-339.9997 L441.3423,-339.99973 L441.8025,-339.99976 L442.2627,-339.99976 L442.7229,-339.9998 L443.18314,-339.99982 L443.64334,-339.99985 L444.10355,-339.99985 L444.56375,-339.99988 L445.02396,-339.99988 L445.4842,-339.99988 L445.9444,-339.9999 L446.4046,-339.9999 L446.8648,-339.9999 L447.325,-339.99994 L447.78525,-339.99994 L448.24545,-339.99994 L448.70566,-339.99994 L449.16586,-339.99994 L449.62607,-339.99997 L450.0863,-339.99997 L450.5465,-339.99997 L451.0067,-339.99997 L451.46692,-339.99997 L451.92712,-339.99997 L452.38733,-339.99997 L452.84756,-339.99997 L453.30777,-339.99997 L453.76797,-339.99997 L454.22818,-340 L454.6884,-340 L455.14862,-340 L455.60883,-340 L456.06903,-340 L456.52924,-340 L456.98944,-340 L457.44968,-340 L457.90988,-340 L458.3701,-340 L458.8303,-340 L459.2905,-340 L459.75073,-340 L460.21094,-340 L460.67114,-340 L461.13135,-340 L461.59155,-340 L462.0518,-340 L462.512,-340 L462.9722,-340 L463.4324,-340 L463.8926,-340 L464.3528,-340 L464.81305,-340 L465.27325,-340 L465.73346,-340 L466.19366,-340 L466.65387,-340 L467.1141,-340 L467.5743,-340 L468.03452,-340 L468.49472,-340 L468.95493,-340 L469.41516,-340 L469.87537,-340 L470.33557,-340 L470.79578,-340 L471.25598,-340 L471.71622,-340 L472.17642,-340 L472.63663,-340 L473.09683,-340 L473.55704,-340 L474.01727,-340 L474.47748,-340 L474.93768,-340 L475.3979,-340 L475.8581,-340 L476.3183,-340 L476.77853,-340 L477.23874,-340 L477.69894,-340 L478.15915,-340 L478.61935,-340 L479.0796,-340 L479.5398,-340 L480,-340" fill="none" stroke="black" stroke-linejoin="round" stroke-width="2"/>
</g>
</g>
<g>
<g>
<line stroke="black" stroke-width="1" x1="0" x2="0" y1="0" y2="10"/>
<line stroke="black" stroke-width="1" x1="92.04218600191754" x2="92.04218600191754" y1="0" y2="10"/>
<line stroke="black" stroke-width="1" x1="184.08437200383509" x2="184.08437200383509" y1="0" y2="10"/>
<line stroke="black" stroke-width="1" x1="276.12655800575266" x2="276.12655800575266" y1="0" y2="10"/>
<line stroke="black" stroke-width="1" x1="368.16874400767017" x2="368.16874400767017" y1="0" y2="10"/>
<line stroke="black" stroke-width="1" x1="460.21093000958774" x2="460.21093000958774" y1="0" y2="10"/>
</g>
<line stroke="black" stroke-width="1" x1="0" x2="480" y1="0" y2="0"/>
<g>
<text font-size="12" text-anchor="middle" x="0" y="20">
0
</text>
<text font-size="12" text-anchor="middle" x="92.04218600191754" y="20">
200
</text>
<text font-size="12" text-anchor="middle" x="184.08437200383509" y="20">
400
</text>
<text font-size="12" text-anchor="middle" x="276.12655800575266" y="20">
600
</text>
<text font-size="12" text-anchor="middle" x="368.16874400767017" y="20">
800
</text>
<text font-size="12" text-anchor="middle" x="460.21093000958774" y="20">
1000
</text>
</g>
<text font-size="12" text-anchor="middle" x="240" y="30">

</text>
</g>
<g>
<g>
<line stroke="black" stroke-width="1" x1="0" x2="-10" y1="-34" y2="-34"/>
<line stroke="black" stroke-width="1" x1="0" x2="-10" y1="-102.00000000000003" y2="-102.00000000000003"/>
<line stroke="black" stroke-width="1" x1="0" x2="-10" y1="-170.00000000000003" y2="-170.00000000000003"/>
<line stroke="black" stroke-width="1" x1="0" x2="-10" y1="-238.00000000000003" y2="-238.00000000000003"/>
<line stroke="black" stroke-width="1" x1="0" x2="-10" y1="-306.00000000000006" y2="-306.00000000000006"/>
</g>
<line stroke="black" stroke-width="1" x1="0" x2="0" y1="0" y2="-340"/>
<g>
<text dominant-baseline="middle" font-size="12" text-anchor="end" x="-15" y="-34">
-0.8
</text>
<text dominant-baseline="middle" font-size="12" text-anchor="end" x="-15" y="-102.00000000000003">
-0.4
</text>
<text dominant-baseline="middle" font-size="12" text-anchor="end" x="-15" y="-170.00000000000003">
0
</text>
<text dominant-baseline="middle" font-size="12" text-anchor="end" x="-15" y="-238.00000000000003">
0.4
</text>
<text dominant-baseline="middle" font-size="12" text-anchor="end" x="-15" y="-306.00000000000006">
0.8
</text>
</g>
<text font-size="12" text-anchor="middle" transform="rotate(-90 -48 -170)" x="-48" y="-182">

</text>
</g>
</g>
</svg>